**ABCDEFGHIJKLMNOPQRSTUVWXYZabcdefghijklmnopqrstuvwxyz**************************
**PARASOLID !"#$%&'()*+,-./:;<=>?@[\]^_`{|}~0123456789**************************
**PART1;
MC=unknown;
MC_MODEL=unknown;
MC_ID=unknown;
OS=unknown;
OS_RELEASE=unknown;
FRU=Parasolid 37.0.173;
APPL=Onshape;
SITE=unknown;
USER=unknown;
FORMAT=text;
GUISE=transmit;
KEY=BTGapi::writeModels_.xmt;
FILE=BTGapi::writeModels_.xmt;
DATE=2024-12-29T04:00:29 (UTC);
**PART2;
SCH=SCH_3700173_36001;
USFLD_SIZE=0;
**PART3;
**END_OF_HEADER*****************************************************************
T51 : TRANSMIT FILE created by modeller version 370017323 SCH_3700173_36001_1300
6231 0 12 36 CCCI7 lattice222 0 CCCI4 mesh1006 0 I8 polyline1008 0 CCCCCCCDI5 ow
ner1040 0 CCCI16 boundary_lattice222 0 CCCI13 boundary_mesh1006 0 I17 boundary_p
olyline1008 0 CCCA16 index_map_offset0 0 1 dA9 index_map82 0 A17 node_id_index_m
ap82 0 A20 schema_embedding_map82 0 A5 child12 0 A14 lowest_node_id0 0 1 dA16 me
sh_offset_data206 0 Z1 594 2 3 0 0 0 0 0 0 0 1e3 1e-8 0 4 5 1 0 1 2 6 0 7 8 9 0
 0 10 11 12 0 0 0 0 0 0 0 81 255 1 2 594 13 1 14 0 0 0 15 70 11 CI9 list_type0 0
 1 uI10 notransmit0 0 1 lCCCDCCDI12 finger_index0 0 1 dI12 finger_block1012 0 CZ
3 0 4 T1 0 0 3 20 1 16 16 13 255 6 315 0 1 0 17 0 0 18 0 51 255 7 524 0 19 20 0
 0 +-.0279910911465105 0 .001 0 0 1 .005 1 0 0 31 255 8 503 0 11 21 0 0 +-.02799
10911465105 0 .001 0 0 1 1 0 0 .005 29 255 9 495 0 12 22 0 -.0315579801619888 .0
03503898222160645 .001 19 9 CCCCCCI5 frame230 0 CA5 owner12 0 Z10 135 0 1 18 0 2
3 0 V0 16 255 11 501 0 ?24 0 25 8 0 0 1 18 255 12 492 0 26 0 27 9 ?1 17 255 26 0
 28 29 30 12 31 25 0 32 +18 27 483 0 33 12 34 22 ?1 17 33 0 35 36 37 27 38 39 0
 30 +18 34 474 0 24 27 40 41 ?1 29 22 486 0 27 41 9 -.0315579801619888 .00350389
8222160645 0 29 41 477 0 34 42 22 -.0315579801619888 -.003503898222160645 .001 2
9 42 473 0 40 43 41 -.0315579801619888 -.003503898222160645 0 18 40 470 0 38 34
 44 42 ?1 29 43 412 0 44 45 42 .0315579801619888 -.003503898222160645 .001 18 44
 409 0 46 40 47 43 ?1 29 45 403 0 47 48 43 .0315579801619888 -.00350389822216064
5 0 18 47 400 0 49 44 50 45 ?1 29 48 394 0 50 51 45 .0315579801619888 .003503898
222160645 .001 18 50 391 0 52 47 53 48 ?1 29 51 390 0 53 54 48 .0315579801619888
 .003503898222160645 0 18 53 387 0 55 50 56 51 ?1 29 54 271 0 57 58 51 .01869482
37959426 -.0165983000105028 0 18 57 244 0 59 60 61 54 ?1 29 58 272 0 61 62 54 -.
0186948237959426 -.0165983000105028 0 18 61 248 0 63 57 64 58 ?1 29 62 273 0 64
 65 58 -.01869482379594255 .01659830001050285 0 18 64 252 0 66 61 67 62 ?1 29 65
 274 0 67 68 62 .01869482379594255 .01659830001050285 0 18 67 256 0 69 64 0 65 ?
1 29 68 111 0 56 70 65 .0186948237959426 -.0165983000105028 .001 18 56 109 0 71
 53 72 68 ?1 29 70 106 0 72 73 68 -.0186948237959426 -.0165983000105028 .001 18
 72 104 0 74 56 75 70 ?1 29 73 96 0 75 76 70 -.01869482379594255 .01659830001050
285 .001 18 75 94 0 77 72 60 73 ?1 29 76 91 0 60 0 73 .01869482379594255 .016598
30001050285 .001 18 60 89 0 78 75 57 76 ?1 17 78 0 79 80 81 60 69 82 0 83 -15 25
5 79 295 0 80 17 0 17 80 0 79 84 78 50 85 86 0 87 +17 81 0 79 78 84 67 88 89 0 0
 -17 69 0 90 66 83 67 78 82 0 91 +16 82 280 0 ?69 92 93 94 0 0 1 17 83 0 90 69 9
5 60 77 96 0 85 -15 90 299 0 66 97 0 17 95 0 90 83 66 75 98 93 0 29 -17 77 0 99
 32 85 75 83 96 0 95 +16 96 24 0 ?77 100 101 102 0 0 1 17 85 0 99 77 52 60 80 86
 0 0 -15 99 146 0 32 103 104 17 52 0 99 85 105 50 106 107 0 80 +16 86 49 0 ?80 1
08 100 109 0 0 1 16 108 54 0 ?110 111 86 112 0 0 1 16 100 39 0 ?71 86 96 113 0 0
 1 30 255 109 51 0 86 113 112 0 +.0268474118979713 .00829915000525141 .001 .7007
79644432129 -.713377803095652 0 31 113 41 0 100 102 109 0 +867361737988404e-32 0
 .001 0 0 1 1 0 0 .025 31 112 56 0 108 109 114 0 +.028 -2383140777421175e-33 .00
1 0 0 1 1 0 0 .003 30 114 66 0 111 112 115 0 +.0268474118979713 -.00829915000525
141 .001 .700779644432129 .713377803095652 0 16 111 64 0 ?105 116 108 114 0 0 1
 31 115 76 0 116 114 117 0 +-.028 -2383140777421175e-33 .001 0 0 -1 1 0 0 .003 1
6 116 74 0 ?118 119 111 115 0 0 1 30 117 81 0 119 115 120 0 +-.0268474118979713
 .00829915000525141 .001 -.700779644432129 -.713377803095652 0 16 119 79 0 ?32 1
21 116 117 0 0 1 30 120 86 0 121 117 122 0 +-.0268474118979713 -.008299150005251
41 .001 -.700779644432129 .713377803095652 0 16 121 84 0 ?123 124 119 120 0 0 1
 31 122 268 0 125 120 126 0 +3469446951953615e-33 0 0 0 0 1 1 0 0 .025 16 125 23
2 0 ?66 127 0 122 0 0 1 31 126 267 0 127 122 128 0 +867361737988404e-32 0 0 0 0
 1 1 0 0 .025 16 127 228 0 ?59 89 125 126 0 0 1 30 128 266 0 89 126 129 0 +.0268
474118979713 .00829915000525141 0 .700779644432129 -.713377803095652 0 16 89 224
 0 ?88 130 127 128 0 0 1 31 129 265 0 130 128 131 0 +.028 -2383140777421175e-33
 0 0 0 1 1 0 0 .003 16 130 218 0 ?132 133 89 129 0 0 1 30 131 264 0 133 129 134
 0 +.0268474118979713 -.00829915000525141 0 .700779644432129 .713377803095652 0
 16 133 214 0 ?135 136 130 131 0 0 1 31 134 263 0 136 131 137 0 +-.028 -23831407
77421175e-33 0 0 0 -1 1 0 0 .003 16 136 210 0 ?138 139 133 134 0 0 1 30 137 262
 0 139 134 140 0 +-.0268474118979713 .00829915000525141 0 -.700779644432129 -.71
3377803095652 0 16 139 206 0 ?30 101 136 137 0 0 1 30 140 261 0 101 137 141 0 +-
.0268474118979713 -.00829915000525141 0 -.700779644432129 .713377803095652 0 16
 101 202 0 ?37 96 139 140 0 0 1 30 141 311 0 124 140 142 0 +.0186948237959426 -.
0165983000105028 .001 0 0 -1 16 124 277 0 ?143 144 121 141 0 0 1 30 142 312 0 14
4 141 145 0 +-.0186948237959426 -.0165983000105028 .001 0 0 -1 16 144 278 0 ?63
 93 124 142 0 0 1 30 145 313 0 93 142 94 0 +-.01869482379594255 .016598300010502
85 .001 0 0 -1 16 93 279 0 ?98 82 144 145 0 0 1 30 94 314 0 82 145 146 0 +.01869
482379594255 .01659830001050285 .001 0 0 -1 30 146 397 0 92 94 147 0 +.031557980
1619888 .003503898222160645 0 0 0 -1 16 92 395 0 ?84 148 82 146 0 0 1 31 147 406
 0 148 146 149 0 -.0279910911465105 0 0 0 0 1 1 0 0 .005 16 148 404 0 ?49 150 92
 147 0 0 1 30 149 415 0 150 147 151 0 -.0315579801619888 -.003503898222160645 .0
01 0 0 -1 16 150 413 0 ?46 107 148 149 0 0 1 31 151 420 0 107 149 152 0 +.027991
0911465105 0 .001 0 0 1 1 0 0 .005 16 107 418 0 ?52 153 150 151 0 0 1 30 152 480
 0 153 151 154 0 +-.0315579801619888 -.003503898222160645 0 0 0 -1 16 153 478 0
 ?155 39 107 152 0 0 1 31 154 489 0 39 152 21 0 --.0279910911465105 0 0 0 0 1 1
 0 0 .005 16 39 487 0 ?33 25 153 154 0 0 1 30 21 498 0 25 154 8 0 --.03155798016
19888 .003503898222160645 .001 0 0 -1 16 25 496 0 ?26 11 39 21 0 0 1 17 155 0 15
6 157 123 40 158 153 0 37 +15 156 281 0 123 159 0 17 157 0 156 74 155 61 37 101
 0 0 -17 123 0 156 155 74 34 160 121 0 158 +17 158 0 161 162 38 34 155 153 0 0 -
17 37 0 35 33 163 40 157 101 0 0 +15 35 199 0 37 164 165 17 163 0 35 37 166 61 5
9 127 0 157 -17 166 0 35 163 49 57 135 133 0 0 -17 59 0 167 168 63 57 163 127 0
 143 +15 167 297 0 59 169 0 17 168 0 167 170 59 56 143 124 0 171 -17 63 0 167 59
 170 61 74 144 0 163 +17 143 0 172 135 171 57 168 124 0 166 +15 172 289 0 135 17
3 0 17 135 0 172 46 143 47 166 133 0 174 +17 171 0 172 143 46 56 105 111 0 0 -17
 46 0 172 171 135 44 174 150 0 105 +17 105 0 99 52 71 44 171 111 0 106 +17 71 0
 99 105 160 56 170 100 0 168 +17 106 0 175 174 87 44 52 107 0 0 -15 175 430 0 10
6 176 0 17 174 0 175 55 106 47 46 150 0 0 -17 87 0 175 106 55 50 84 92 0 0 -17 5
5 0 175 87 174 53 49 148 0 84 -17 84 0 79 81 80 53 87 92 0 88 +17 88 0 35 49 91
 53 81 89 0 0 +17 49 0 35 166 88 47 55 148 0 135 +17 91 0 35 88 36 67 66 125 0 8
1 -17 36 0 35 91 33 64 30 139 0 0 -17 66 0 90 95 69 64 91 125 0 98 +17 98 0 28 3
0 29 64 95 93 0 36 +15 28 283 0 30 177 0 17 30 0 28 26 98 27 36 139 0 31 +17 29
 0 28 98 26 75 32 119 0 0 -17 32 0 99 24 77 12 29 119 0 162 +17 24 0 99 160 32 3
4 162 11 0 123 +17 162 0 161 31 158 12 24 11 0 0 -15 161 513 0 162 19 0 17 31 0
 161 38 162 27 26 25 0 0 -17 38 0 161 158 31 40 33 39 0 155 -14 255 19 512 0 ?0
 176 161 6 7 +0 0 0 176 23 14 176 429 0 ?19 164 175 6 20 +0 0 19 164 23 13 23 13
6 0 0 0 0 0 0 10 17 14 17 296 0 ?97 0 79 6 178 +0 0 97 0 23 14 97 300 0 ?177 17
 90 6 179 -0 0 177 17 23 50 255 178 306 0 17 180 181 0 +.0268474118979713 .00829
915000525141 .001 .713377803095652 .700779644432129 0 -.700779644432129 .7133778
03095652 0 51 180 305 0 182 183 178 0 -.028 -2383140777421175e-33 .001 0 0 -1 .0
03 -1 0 0 51 181 307 0 169 178 179 0 -867361737988404e-32 0 .001 0 0 -1 .025 -1
 0 0 14 169 298 0 ?184 159 167 6 181 -0 0 184 159 23 51 179 308 0 97 181 20 0 -3
469446951953615e-33 0 .001 0 0 -1 .025 -1 0 0 51 20 441 0 176 179 7 0 +.02799109
11465105 0 .001 0 0 1 .005 1 0 0 14 184 286 0 ?173 169 185 6 186 -0 0 173 169 23
 14 159 282 0 ?169 177 156 6 187 +0 0 169 177 23 14 177 284 0 ?159 97 28 6 188 -
0 0 159 97 23 50 187 301 0 159 189 188 0 +-.0268474118979713 -.00829915000525141
 .001 -.713377803095652 -.700779644432129 0 .700779644432129 -.713377803095652 0
 50 189 260 0 164 190 187 0 +0 0 0 0 0 1 1 0 0 50 188 302 0 177 187 186 0 +-.026
8474118979713 .00829915000525141 .001 .713377803095652 -.700779644432129 0 .7007
79644432129 .713377803095652 0 51 186 303 0 184 188 183 0 +-.028 -23831407774211
75e-33 .001 0 0 -1 .003 -1 0 0 50 183 304 0 173 186 180 0 +.0268474118979713 -.0
0829915000525141 .001 -.713377803095652 .700779644432129 0 -.700779644432129 -.7
13377803095652 0 14 173 290 0 ?182 184 172 6 183 -0 0 182 184 23 14 182 292 0 ?1
03 173 191 6 180 +0 0 103 173 23 14 103 1 0 ?164 182 99 6 190 +0 0 164 182 23 15
 191 291 0 110 182 192 17 110 0 191 110 110 0 193 108 0 0 +15 192 293 0 194 182
 0 17 194 0 192 194 194 0 132 130 0 0 -17 132 0 195 132 132 0 194 130 0 0 +15 19
5 201 0 132 164 0 14 164 184 0 ?176 103 35 6 189 -0 0 176 103 23 17 193 0 196 19
3 193 0 110 108 0 0 -15 196 6 0 193 103 0 50 190 3 0 103 0 189 0 +0 0 .001 0 0 1
 1 0 0 15 185 285 0 197 184 198 17 197 0 185 197 197 0 118 116 0 0 -15 198 287 0
 138 184 0 17 138 0 198 138 138 0 199 136 0 0 +17 199 0 165 199 199 0 138 136 0
 0 -15 165 200 0 199 164 195 17 118 0 104 118 118 0 197 116 0 0 +15 104 145 0 11
8 103 196 17 160 0 99 71 24 72 123 121 0 0 -17 170 0 167 63 168 72 71 100 0 160
 -17 74 0 156 123 157 72 63 144 0 170 -31 102 26 0 96 0 113 0 +3469446951953615e
-33 0 .001 0 0 1 1 0 0 .025 19 18 316 0 1 0 10 6 0 S0 74 4 CI16 index_map_offset
0 0 1 dCCZ20 16 3 0 0 200 14 2 0 0 0 0 0 0 0 0 0 0 0 0 0 0 0 0 0 81 1 200 592 20
1 1 0 14 0 0 202 81 1 14 593 203 1 200 2 0 0 204 80 7 CCCCCDI12 legal_owners0 17
 1 lCZ1 203 13 205 8038 0 0 0 0 0 0 0 0 0 TTTTTTTTTTTTTFTFT10 98 255 6 204 80 97
 114 116 32 49 79 255 14 205 SDL/TYSA_UNAME80 1 201 206 207 8040 0 0 0 0 3 5 0 0
 0 TTTFFFFFFFFFFFFFF2 83 255 3 202 .615686274509804 .811764705882353 .9294117647
05882 79 17 207 SDL/TYSA_COLOUR_280 1 13 208 209 8017 0 0 0 0 0 0 0 0 0 TTTTTTTT
TTTTTFTFT3 84 255 6 15 Part 179 13 209 SDL/TYSA_NAME1 0 
