**ABCDEFGHIJKLMNOPQRSTUVWXYZabcdefghijklmnopqrstuvwxyz**************************
**PARASOLID !"#$%&'()*+,-./:;<=>?@[\]^_`{|}~0123456789**************************
**PART1;
MC=unknown;
MC_MODEL=unknown;
MC_ID=unknown;
OS=unknown;
OS_RELEASE=unknown;
FRU=Parasolid 37.0.173;
APPL=Onshape;
SITE=unknown;
USER=unknown;
FORMAT=text;
GUISE=transmit;
KEY=BTGapi::writeModels_.xmt;
FILE=BTGapi::writeModels_.xmt;
DATE=2024-12-29T04:00:28 (UTC);
**PART2;
SCH=SCH_3700173_36001;
USFLD_SIZE=0;
**PART3;
**END_OF_HEADER*****************************************************************
T51 : TRANSMIT FILE created by modeller version 370017323 SCH_3700173_36001_1300
6231 0 12 36 CCCI7 lattice222 0 CCCI4 mesh1006 0 I8 polyline1008 0 CCCCCCCDI5 ow
ner1040 0 CCCI16 boundary_lattice222 0 CCCI13 boundary_mesh1006 0 I17 boundary_p
olyline1008 0 CCCA16 index_map_offset0 0 1 dA9 index_map82 0 A17 node_id_index_m
ap82 0 A20 schema_embedding_map82 0 A5 child12 0 A14 lowest_node_id0 0 1 dA16 me
sh_offset_data206 0 Z1 719 2 3 0 0 0 0 0 0 0 1e3 1e-8 0 4 5 1 0 3 2 6 0 7 8 9 0
 0 10 11 12 0 0 0 0 0 0 0 81 255 1 2 646 13 1 14 0 0 0 15 70 11 CI9 list_type0 0
 1 uI10 notransmit0 0 1 lCCCDCCDI12 finger_index0 0 1 dI12 finger_block1012 0 CZ
3 0 4 T1 0 0 5 20 1 16 16 13 255 6 2 0 1 0 17 0 0 10 17 50 255 7 185 0 17 0 0 0
 +.001714 0 61e-5 0 -1 0 1 0 0 31 255 8 573 0 1 18 0 19 +.00167650478316885 2288
377530888305e-36 .00062671043258867 151478549738736e-31 1 -593290986476715e-31 .
534360584398884 -582427304545147e-31 -.845256627209088 392903545735281e-19 29 25
5 9 253 0 12 20 0 .001674 0 5875e-7 19 9 CCCCCCI5 frame230 0 CA5 owner12 0 Z10 1
 0 1 0 0 6 0 V0 16 255 11 74 21 ?22 0 23 18 0 0 1 18 255 12 73 24 22 0 25 9 5e-7
 1 81 1 24 574 26 12 0 0 0 27 28 17 255 22 0 0 0 0 12 29 11 0 30 +18 25 71 27 31
 12 32 20 5e-7 1 81 1 27 575 26 25 0 0 24 33 34 17 31 0 0 0 0 25 30 23 0 35 +18
 32 69 33 36 25 37 38 5e-7 1 29 20 251 0 25 38 9 .0016455 0 5955e-7 29 38 249 0
 32 39 20 .0016125 0 6135e-7 29 39 247 0 37 40 38 .001567 0 632e-6 18 37 67 41 4
2 32 43 39 5e-7 1 29 40 245 0 43 44 39 .0015015 0 64e-5 18 43 65 45 46 37 47 40
 5e-7 1 29 44 243 0 47 48 40 .001414 0 6235e-7 18 47 63 49 50 43 51 44 5e-7 1 29
 48 241 0 51 52 44 .0013515 0 576e-6 18 51 61 53 54 47 55 48 5e-7 1 29 52 239 0
 55 56 48 .001314 0 5005e-7 18 55 59 57 58 51 59 52 5e-7 1 29 56 237 0 59 60 52
 .001302 0 401e-6 18 59 57 61 62 55 63 56 5e-7 1 29 60 235 0 63 64 56 .001315 0
 298e-6 18 63 55 65 66 59 67 60 5e-7 1 29 64 233 0 67 68 60 .001354 0 222e-6 18
 67 53 69 70 63 71 64 5e-7 1 29 68 231 0 71 72 64 .0014155 0 1755e-7 18 71 51 73
 74 67 75 68 5e-7 1 29 72 229 0 75 76 68 .001497 0 16e-5 18 75 49 77 78 71 79 72
 5e-7 1 29 76 227 0 79 80 72 .00157 0 17e-5 18 79 47 81 82 75 83 76 5e-7 1 29 80
 225 0 83 84 76 .001617 0 193e-6 18 83 45 85 86 79 87 80 5e-7 1 29 84 223 0 87 8
8 80 .0016505 0 2155e-7 18 87 43 89 90 83 91 84 5e-7 1 29 88 221 0 91 92 84 .001
6825 0 226e-6 18 91 41 93 94 87 95 88 5e-7 1 29 92 219 0 95 96 88 .001717 0 209e
-6 18 95 39 97 98 91 99 92 5e-7 1 29 96 217 0 99 100 92 .001772 0 1425e-7 18 99
 37 101 102 95 103 96 5e-7 1 29 100 215 0 103 104 96 .0017035 0 74e-6 18 103 35
 105 106 99 107 100 5e-7 1 29 104 213 0 107 108 100 .001627 0 3e-5 18 107 33 109
 110 103 111 104 5e-7 1 29 108 211 0 111 112 104 .0015455 0 65e-7 18 111 31 113
 114 107 115 108 5e-7 1 29 112 209 0 115 116 108 .0014625 0 0 18 115 29 117 118
 111 119 112 5e-7 1 29 116 207 0 119 120 112 .001325 0 265e-7 18 119 27 121 122
 115 123 116 5e-7 1 29 120 205 0 123 124 116 .001212 0 105e-6 18 123 25 125 126
 119 127 120 5e-7 1 29 124 203 0 127 128 120 .0011355 0 231e-6 18 127 23 129 130
 123 131 124 5e-7 1 29 128 201 0 131 132 124 .0011075 0 401e-6 18 131 21 133 134
 127 135 128 5e-7 1 29 132 199 0 135 136 128 .0011325 0 5595e-7 18 135 19 137 13
8 131 139 132 5e-7 1 29 136 197 0 139 140 132 .0012055 0 686e-6 18 139 17 141 14
2 135 143 136 5e-7 1 29 140 195 0 143 144 136 .0013255 0 7695e-7 18 143 15 145 1
46 139 147 140 5e-7 1 29 144 193 0 147 148 140 .00149 0 8e-4 18 147 13 149 150 1
43 151 144 5e-7 1 29 148 191 0 151 152 144 .0016445 0 768e-6 18 151 11 153 154 1
47 155 148 5e-7 1 29 152 189 0 155 156 148 .001764 0 6775e-7 18 155 9 157 158 15
1 159 152 5e-7 1 29 156 187 0 159 160 152 .0016975 0 5935e-7 18 159 7 161 29 155
 162 156 5e-7 1 29 160 186 0 162 0 156 .001714 0 61e-5 18 162 6 163 164 159 0 16
0 5e-7 1 81 1 163 608 26 162 0 0 161 21 165 17 164 0 0 0 0 162 166 167 0 168 +17
 166 0 169 170 168 155 164 167 0 0 -16 167 8 171 ?164 172 173 174 0 0 1 17 168 0
 169 166 29 162 175 173 0 0 -15 255 169 4 0 168 17 0 17 29 0 169 168 30 159 22 1
1 0 175 -17 175 0 0 0 0 159 168 173 0 0 +16 173 5 176 ?175 167 0 177 0 0 1 81 1
 176 643 26 173 0 0 171 178 179 133 255 177 448 0 173 180 181 0 +181 .001714 0 6
1e-5 .0016975 0 5935e-7 -1166726188957796e-20 1166726188957804e-20 30 255 180 22
0 0 1 182 177 183 +.001717 0 209e-6 .637330529974671 0 -.770590549878602 30 181
 449 0 1 177 184 185 +.00170575 0 60175e-8 -.70710678118655 0 -.707106781186545
 133 184 452 0 172 181 186 0 +186 .0016445 3009265538105055e-51 768e-6 .001764 0
 6775e-7 728967243876089e-48 .3993773861939785 141 255 185 177 185 185 181 16 17
2 10 187 ?158 188 167 184 0 0 1 31 186 453 0 1 184 189 190 +.00148066729364186 2
2676543307744e-33 .0004275220065215735 3696775413959605e-32 1 488137748031129e-3
1 .433598300407966 -600155540119779e-31 .901106272247243 .000377844438513693 133
 189 456 0 188 186 191 0 +191 .00149 -3009265538105055e-51 8e-4 .0016445 -300926
5538105055e-51 768e-6 0 .450025717261788 141 190 184 190 190 186 16 188 12 192 ?
154 193 172 189 0 0 1 31 191 457 0 1 189 194 195 +.001497347091524544 2110452816
328295e-35 .0004465000200169405 1241884798507062e-32 1 599597504279191e-31 -.020
77936520006755 -596887484816188e-31 .999784085681445 .000353576322173719 133 194
 460 0 193 191 196 0 +196 .0013255 -601853107621011e-50 7695e-7 .00149 -60185310
7621011e-50 8e-4 129902207159501e-30 .4036396488632785 141 195 189 195 195 191 1
6 193 14 197 ?150 198 188 194 0 0 1 31 196 461 0 1 194 199 200 +.001482283733970
23 2503451740627355e-35 .000382756582357287 -1116285715099862e-32 1 602062295521
074e-31 -.3756965925045345 -5998953237278e-29 .926742720705419 .0004173147616938
725 133 199 464 0 198 196 201 0 +201 .0012055 3009265538105055e-51 686e-6 .00132
55 3009265538105055e-51 7695e-7 2433590055653625e-31 .44109021672429 141 200 194
 200 200 196 16 198 16 202 ?146 203 193 199 0 0 1 31 201 465 0 1 199 204 205 +.0
0145172442551255 199643946642998e-34 .000460122083095739 -3497375059816585e-32 1
 502616775063461e-31 -.736897390041434 -597491913779686e-31 .676004612817193 .00
0334136650285468 133 204 468 0 203 201 206 0 +206 .0011325 0 5595e-7 .0012055 30
09265538105055e-51 686e-6 745260608303337e-31 .404322856248626 141 205 199 205 2
05 201 16 203 18 207 ?142 208 198 204 0 0 1 31 206 469 0 1 204 209 210 +.0014775
9488794293 218166071200752e-34 .000444667574546769 -530350800567394e-31 1 306052
240643634e-31 -.948847484860237 -599853359679171e-31 .315734778689966 .000363699
0068996815 133 209 472 0 208 206 211 0 +211 .0011075 601853107621011e-50 401e-6
 .0011325 601853107621011e-50 5595e-7 609358845936366e-48 .331057660461987 141 2
10 204 210 210 206 16 208 20 212 ?138 213 203 209 0 0 1 31 211 473 0 1 209 214 2
15 +.001594387833609745 2940698884665445e-35 .000405425420566286 -60484583948904
1e-31 1 954015519698806e-32 -.999958695787056 -603953768902236e-31 -.00908882389
80301 .000486907944959189 133 214 476 0 213 211 216 0 +216 .0011355 -60185310762
1011e-50 231e-6 .0011075 -601853107621011e-50 401e-6 559095785359592e-31 .357280
6569733 141 215 209 215 215 211 16 213 22 217 ?134 218 208 214 0 0 1 31 216 477
 0 1 214 219 220 +.001592244134170345 292131281084098e-34 .000393534327980998 -6
04183089990129e-31 1 -995125089395507e-32 -.942125839194515 -602579010338595e-31
 -.335259456424469 .000484801621151634 133 219 480 0 218 216 221 0 +221 .001212
 3009265538105055e-51 105e-6 .0011355 601853107621011e-50 231e-6 726475148033684
e-48 .397934944117021 141 220 214 220 220 216 16 218 24 222 ?130 223 213 219 0 0
 1 31 221 481 0 1 219 224 225 +.001486195284639432 2238188502572545e-35 .0003576
989228167985 -523406397233705e-31 1 -3177824554633205e-32 -.735343766339558 -600
242985733276e-31 -.67769428602103 .0003728804093959215 133 224 484 0 223 221 226
 0 +226 .001325 -3009265538105055e-51 265e-7 .001212 -601853107621011e-50 105e-6
 826926203820395e-31 .422909457525871 141 225 219 225 225 221 16 223 26 227 ?126
 228 218 224 0 0 1 31 226 485 0 1 224 229 230 +.001451344112991742 1962374205457
705e-35 .000328952353733335 -3493500964276265e-32 1 -502886126067793e-31 -.38545
30469785155 -598684892310857e-31 -.922727450862376 .0003277808126881505 133 229
 488 0 228 226 231 0 +231 .0014625 0 0 .001325 0 265e-7 1180473296755252e-33 .39
28294768487935 141 230 224 230 230 226 16 228 28 232 ?122 233 223 229 0 0 1 31 2
31 489 0 1 229 234 235 +.001460339558320344 2154583366110425e-35 .00035876185920
93345 -1158789479730792e-32 1 -601258692313148e-31 .00602182883274539 -600549987
475941e-31 -.999981868624381 .0003587683641733055 133 234 492 0 233 231 236 0 +2
36 .0015455 601853107621011e-50 65e-7 .0014625 601853107621011e-50 1084202172485
504e-34 2869928137496115e-49 .153691698082423 141 235 229 235 235 231 16 233 30
 237 ?118 238 228 234 0 0 1 31 236 493 0 1 234 239 240 +.001461790822420034 3310
397698880815e-35 .000542228729098032 478066630899567e-32 1 -610454313302534e-31
 .154379695305751 -610516317169493e-31 -.988011593898221 .000542229192862305 133
 239 496 0 241 236 242 0 +242 .0017035 -3009265538105055e-51 74e-6 .001627 -3009
265538105055e-51 3e-5 0 .243934549561148 141 240 234 240 240 236 16 241 34 243 ?
110 244 238 239 0 0 1 31 242 497 0 1 239 245 246 +.001485769062085054 2204278434
779225e-35 .000364052085238487 3052907112279425e-32 1 -53078953202131e-30 .60033
8534719362 -607774576420455e-31 -.799745987005255 .0003626802634229175 133 245 5
00 0 244 242 247 0 +247 .001772 0 1425e-7 .0017035 3009265538105055e-51 74e-6 14
6353318208966e-30 .2622849903119775 141 246 239 246 246 242 16 244 36 248 ?106 2
49 241 245 0 0 1 31 247 501 0 1 245 250 251 +.001478082631380386 224860530462888
e-34 .0003679173686196125 432978028117747e-31 1 -4329780281177465e-32 .793501124
944542 -607065464405569e-31 -.608568783878821 .000370405736526404 133 250 504 0
 252 247 253 0 +253 .0016825 1128474576789396e-51 226e-6 .001717 -75231638452626
4e-51 209e-6 0 1.024784270780686 141 251 245 251 251 247 16 252 40 254 ?98 255 2
49 250 0 0 1 31 253 505 0 1 250 256 257 +.001684638983490485 2093371965178045e-3
6 .0001868335253189205 270650596419282e-31 1 54926150449795e-30 -.05453135178294
99 -533685292820753e-31 .998512058851932 3922483893295405e-20 133 256 508 0 255
 253 258 0 +258 .0016505 225694915357879e-50 2155e-7 .0016825 564237288394698e-5
0 226e-6 253214289917401e-30 .640121748649173 141 257 250 257 257 253 16 255 42
 259 ?94 260 252 256 0 0 1 31 258 509 0 1 256 261 262 +.001682339160245505 31108
4307271064e-35 .00017247827353751 -190904322173388e-31 1 581803648528422e-31 -.5
94880221252429 -581227331721785e-31 .803814358146619 535219681341431e-19 133 261
 512 0 260 258 263 0 +263 .001617 0 193e-6 .0016505 0 2155e-7 -201773387739811e-
19 201773387739811e-19 141 262 256 262 262 258 16 260 44 264 ?90 265 255 261 0 0
 1 30 263 513 0 1 261 266 267 +.00163375 0 20425e-8 .830139206543895 0 .55755618
3499629 133 266 516 0 265 263 268 0 +268 .00157 -3009265538105055e-51 17e-5 .001
617 0 193e-6 568267139507361e-31 .219848726771127 141 267 261 267 267 263 16 265
 46 269 ?86 270 260 266 0 0 1 31 268 517 0 1 266 271 272 +.001489304326513464 14
51507980913248e-35 .0003944215936464 -269148503965086e-31 -1 549999116798219e-31
 .338362720212513 -608627659466679e-31 -.941015764783135 .000238488665169302 133
 271 520 0 270 268 273 0 +273 .001497 -3009265538105055e-51 16e-5 .00157 0 17e-5
 75869678788834e-31 .33150364012719 141 272 266 272 272 268 16 270 48 274 ?82 27
5 265 271 0 0 1 31 273 521 0 1 271 276 277 +.001503611179062535 1348495681845702
e-35 .0003831883928434945 -831038100393428e-32 -1 606657813287202e-31 -.02960853
137507275 -603931255339039e-31 -.999561571325054 .000223286287954856 133 276 524
 0 275 273 278 0 +278 .0014155 -150463276905253e-50 1755e-7 .001497 -45138983071
5758e-50 16e-5 0 .408027651582151 141 277 271 277 277 273 16 275 50 279 ?78 280
 270 276 0 0 1 31 278 525 0 1 276 281 282 +.001493709117581026 122766481887657e-
34 .0003647124569583055 114403535024805e-31 -1 601541168033654e-31 -.38199440848
3219 -599624584456604e-31 -.924164634622834 .0002047389067593205 133 281 528 0 2
80 278 283 0 +283 .001354 -451389830715758e-50 222e-6 .0014155 -451389830715758e
-50 1755e-7 0 .461356534916593 141 282 276 282 282 278 16 280 52 284 ?74 285 275
 281 0 0 1 31 283 529 0 1 281 286 287 +.001483745597778104 1005081898224792e-35
 .0003296796615774935 369297309180484e-31 -1 488425473432251e-31 -.7695080025438
94 -596103896502685e-31 -.638637169307352 .000168608510046917 133 286 532 0 285
 283 288 0 +288 .001315 -902779661431517e-50 298e-6 .001354 -902779661431517e-50
 222e-6 313581731063881e-31 .397925498704112 141 287 281 287 287 283 16 285 54 2
89 ?70 290 280 286 0 0 1 31 288 533 0 1 286 291 292 +.001522963654238795 1297080
841283306e-35 .0003567116120435935 544781404760377e-31 -1 279558878758616e-31 -.
96238291122508 -60024355731658e-30 -.2716967651296925 .000216092422063133 133 29
1 536 0 290 288 293 0 +293 .001302 0 401e-6 .001315 -3009265538105055e-51 298e-6
 0 .2769780062550705 141 292 286 292 292 288 16 290 56 294 ?66 295 285 291 0 0 1
 31 293 537 0 1 291 296 297 +.00167799024180707 2280424478735265e-35 .0003961346
90713514 607503789223908e-31 -1 766752355331144e-32 -.999916288865396 -606460840
806823e-31 .0129389049634482 .0003760217190118055 133 296 540 0 295 293 298 0 +2
98 .001314 -3009265538105055e-51 5005e-7 .001302 -3009265538105055e-51 401e-6 0
 .2648606491369355 141 297 291 297 297 293 16 295 58 299 ?62 300 290 296 0 0 1 3
1 298 541 0 1 296 301 302 +.001681470536450735 230341864359201e-34 .000405708327
262223 607918248096338e-31 -1 -733167736397598e-32 -.968302459720319 -6069618424
10137e-31 .249780596723566 .000379499744900857 133 301 544 0 300 298 303 0 +303
 .0013515 0 576e-6 .001314 150463276905253e-50 5005e-7 740819692893487e-48 .4062
49771355165 141 302 296 302 302 298 16 300 60 304 ?58 305 295 301 0 0 1 31 303 5
45 0 1 301 306 307 +.00151603321193419 125309636917807e-34 .000447215292085668 5
48403133344577e-31 -1 -272385662257239e-31 -.78745950410863 -599734627357775e-31
 .616366392163777 .000208941807262119 133 306 548 0 305 303 308 0 +308 .001414 3
009265538105055e-51 6235e-7 .0013515 3009265538105055e-51 576e-6 0 .483439996149
341 141 307 301 307 307 303 16 305 62 309 ?54 310 300 306 0 0 1 31 308 549 0 1 3
06 311 312 +.00147908306680625 974857414229997e-35 .000472995964728621 370506643
401297e-31 -1 -487508741317495e-31 -.3969123875729 -594521743999966e-31 .9178565
01088912 .000163973382650585 133 311 552 0 310 308 313 0 +313 .0015015 451389830
715758e-50 64e-5 .001414 150463276905253e-50 6235e-7 754855231080284e-48 .414414
367642299 141 312 306 312 312 308 16 310 64 314 ?50 315 305 311 0 0 1 31 313 553
 0 1 311 316 317 +.001496993764424342 1296770395113086e-35 .000423639128052733 1
13466924880621e-31 -1 -601718541033597e-31 .0208228895257313 -599225367256423e-3
1 .999783180130472 .000216407793456809 133 316 556 0 315 313 318 0 +318 .001567
 3009265538105055e-51 632e-6 .0015015 0 64e-5 529832888711584e-48 .2865272866526
96 141 317 311 317 317 313 16 315 66 319 ?46 320 310 316 0 0 1 31 318 557 0 1 31
6 321 322 +.00150652072809524 1400509359921288e-35 .0004089665862797675 -7423593
15749128e-32 -1 -607806689769592e-31 .2617153723774785 -606050332793585e-31 .965
145099900174 .000231087961533764 133 321 560 0 320 318 323 0 +323 .0016125 60185
3107621011e-50 6135e-7 .001567 0 632e-6 3894730383284785e-49 .209276483899808 14
1 322 316 322 322 318 16 320 68 324 ?42 325 315 321 0 0 1 31 323 561 0 1 321 326
 327 +.001501673067088025 1431874554880978e-35 .0004061283541894705 -23063165923
1776e-31 -1 -567229215948423e-31 .471345393789062 -608974243167923e-31 .88194870
5851896 .0002351289189888025 133 326 564 0 325 323 328 0 +328 .0016455 0 5955e-7
 .0016125 0 6135e-7 -187949461292125e-19 187949461292125e-19 141 327 321 327 327
 323 16 325 70 329 ?36 23 320 326 0 0 1 30 328 565 0 1 326 330 331 +.001629 0 60
45e-7 -.877895572914385 0 .478852130680573 133 330 568 0 23 328 332 0 +332 .0016
74 -1128474576789396e-51 5875e-7 .0016455 1128474576789396e-51 5955e-7 940123272
818545e-48 .525307870001207 141 331 326 331 331 328 16 23 72 333 ?31 11 325 330
 0 0 1 31 332 569 0 1 330 18 334 +.00167462733802074 3370777723014455e-36 .00064
4500516698879 -1654843115598205e-32 1 -589537859931859e-31 -.01100516392348324 -
591323340290321e-31 -.999939441349834 570039687822827e-19 133 18 572 0 11 332 8
 0 +8 .0016975 -150463276905253e-50 5935e-7 .001674 -451389830715758e-50 5875e-7
 862331690765641e-31 .627544939034699 141 334 330 334 334 332 81 1 333 610 26 23
 0 0 21 329 335 80 7 CCCCCDI12 legal_owners0 17 1 lCZ1 26 336 337 9000 0 0 0 0 3
 5 0 0 0 FFTFTFTTFFFFFFFFF2 81 1 21 609 26 11 0 0 163 333 338 81 1 329 611 26 32
5 0 0 333 324 339 83 255 1 335 3140 81 1 324 612 26 320 0 0 329 319 340 83 1 339
 3141 81 1 319 613 26 315 0 0 324 314 341 83 1 340 3142 81 1 314 614 26 310 0 0
 319 309 342 83 1 341 3143 81 1 309 615 26 305 0 0 314 304 343 83 1 342 3144 81
 1 304 616 26 300 0 0 309 299 344 83 1 343 3145 81 1 299 617 26 295 0 0 304 294
 345 83 1 344 3146 81 1 294 618 26 290 0 0 299 289 346 83 1 345 3147 81 1 289 61
9 26 285 0 0 294 284 347 83 1 346 3148 81 1 284 620 26 280 0 0 289 279 348 83 1
 347 3149 81 1 279 621 26 275 0 0 284 274 349 83 1 348 3150 81 1 274 622 26 270
 0 0 279 269 350 83 1 349 3151 81 1 269 623 26 265 0 0 274 264 351 83 1 350 3152
 81 1 264 624 26 260 0 0 269 259 352 83 1 351 3153 81 1 259 625 26 255 0 0 264 2
54 353 83 1 352 3154 81 1 254 626 26 252 0 0 259 354 355 83 1 353 3155 81 1 354
 627 26 249 0 0 254 248 356 83 1 355 3156 16 249 38 354 ?102 252 244 182 0 0 1 8
1 1 248 628 26 244 0 0 354 243 357 83 1 356 3157 81 1 243 629 26 241 0 0 248 358
 359 83 1 357 3158 81 1 358 630 26 238 0 0 243 237 360 83 1 359 3159 16 238 32 3
58 ?114 241 233 361 0 0 1 81 1 237 631 26 233 0 0 358 232 362 83 1 360 3160 81 1
 232 632 26 228 0 0 237 227 363 83 1 362 3161 81 1 227 633 26 223 0 0 232 222 36
4 83 1 363 3162 81 1 222 634 26 218 0 0 227 217 365 83 1 364 3163 81 1 217 635 2
6 213 0 0 222 212 366 83 1 365 3164 81 1 212 636 26 208 0 0 217 207 367 83 1 366
 3165 81 1 207 637 26 203 0 0 212 202 368 83 1 367 3166 81 1 202 638 26 198 0 0
 207 197 369 83 1 368 3167 81 1 197 639 26 193 0 0 202 192 370 83 1 369 3168 81
 1 192 640 26 188 0 0 197 187 371 83 1 370 3169 81 1 187 641 26 172 0 0 192 171
 372 83 1 371 3170 81 1 171 642 26 167 0 0 187 176 373 83 1 372 3171 83 1 373 31
72 17 114 0 0 0 0 111 374 238 0 375 +133 361 359 0 238 376 377 0 +377 .001627 0
 299999999999994e-19 .0015455 0 649999999999924e-20 6.05187727771273 6.283185307
1796 30 376 190 0 1 174 361 378 +.001764 0 6775e-7 -.595227550625785 0 -.8035571
9334471 31 377 214 0 1 361 182 379 +.00148510725540216 0 .000369021646158466 0 1
 0 .164326104060792 0 -.986406068272191 .000367517656084037 133 182 365 0 249 37
7 180 0 +180 .001717 0 209e-6 .001772 0 .0001424999999999952 0 862974507155339e-
19 141 379 361 379 379 377 133 174 335 0 167 0 376 0 +376 .001764 0 6775e-7 .001
714 0 61e-5 0 840014880820572e-19 141 378 174 378 378 376 17 374 0 169 380 375 1
07 114 238 0 0 -17 375 0 169 374 381 111 118 233 0 0 -17 381 0 169 375 382 115 1
22 228 0 0 -17 118 0 0 0 0 115 375 233 0 381 +17 382 0 169 381 383 119 126 223 0
 0 -17 122 0 0 0 0 119 381 228 0 382 +17 383 0 169 382 384 123 130 218 0 0 -17 1
26 0 0 0 0 123 382 223 0 383 +17 384 0 169 383 385 127 134 213 0 0 -17 130 0 0 0
 0 127 383 218 0 384 +17 385 0 169 384 386 131 138 208 0 0 -17 134 0 0 0 0 131 3
84 213 0 385 +17 386 0 169 385 387 135 142 203 0 0 -17 138 0 0 0 0 135 385 208 0
 386 +17 387 0 169 386 388 139 146 198 0 0 -17 142 0 0 0 0 139 386 203 0 387 +17
 388 0 169 387 389 143 150 193 0 0 -17 146 0 0 0 0 143 387 198 0 388 +17 389 0 1
69 388 170 147 154 188 0 0 -17 150 0 0 0 0 147 388 193 0 389 +17 170 0 169 389 1
66 151 158 172 0 0 -17 154 0 0 0 0 151 389 188 0 170 +17 158 0 0 0 0 155 170 172
 0 166 +17 380 0 169 390 374 103 110 241 0 0 -17 390 0 169 391 380 99 106 244 0
 0 -17 110 0 0 0 0 107 380 241 0 374 +17 391 0 169 392 390 95 102 249 0 0 -17 10
6 0 0 0 0 103 390 244 0 380 +17 392 0 169 393 391 91 98 252 0 0 -17 102 0 0 0 0
 99 391 249 0 390 +17 393 0 169 394 392 87 94 255 0 0 -17 98 0 0 0 0 95 392 252
 0 391 +17 394 0 169 395 393 83 90 260 0 0 -17 94 0 0 0 0 91 393 255 0 392 +17 3
95 0 169 396 394 79 86 265 0 0 -17 90 0 0 0 0 87 394 260 0 393 +17 396 0 169 397
 395 75 82 270 0 0 -17 86 0 0 0 0 83 395 265 0 394 +17 397 0 169 398 396 71 78 2
75 0 0 -17 82 0 0 0 0 79 396 270 0 395 +17 398 0 169 399 397 67 74 280 0 0 -17 7
8 0 0 0 0 75 397 275 0 396 +17 399 0 169 400 398 63 70 285 0 0 -17 74 0 0 0 0 71
 398 280 0 397 +17 400 0 169 401 399 59 66 290 0 0 -17 70 0 0 0 0 67 399 285 0 3
98 +17 401 0 169 402 400 55 62 295 0 0 -17 66 0 0 0 0 63 400 290 0 399 +17 402 0
 169 403 401 51 58 300 0 0 -17 62 0 0 0 0 59 401 295 0 400 +17 403 0 169 404 402
 47 54 305 0 0 -17 58 0 0 0 0 55 402 300 0 401 +17 404 0 169 405 403 43 50 310 0
 0 -17 54 0 0 0 0 51 403 305 0 402 +17 405 0 169 406 404 37 46 315 0 0 -17 50 0
 0 0 0 47 404 310 0 403 +17 406 0 169 35 405 32 42 320 0 0 -17 46 0 0 0 0 43 405
 315 0 404 +17 35 0 169 30 406 25 36 325 0 0 -17 42 0 0 0 0 37 406 320 0 405 +17
 30 0 169 29 35 12 31 23 0 0 -17 36 0 0 0 0 32 35 325 0 406 +83 1 338 3139 79 25
5 13 337 BTI/importTag141 183 182 183 183 180 81 1 178 644 26 17 0 0 176 14 407
 83 1 179 3173 14 255 17 3 178 ?0 0 169 6 7 +0 0 0 0 6 81 1 14 645 26 1 408 2 17
8 0 409 83 1 407 3174 81 1 408 444 410 1 411 14 0 0 412 83 1 409 3175 80 1 410 4
13 414 9000 0 0 0 0 3 5 0 0 0 TTTFFFFFFFFFFFFFF1 81 1 411 332 415 1 416 408 0 0
 417 82 255 1 412 6 80 1 415 418 419 8038 0 0 0 0 0 0 0 0 0 TTTTTTTTTTTTTFTFT10
 81 1 416 331 418 1 0 411 0 0 420 98 255 19 417 72 67 45 48 52 83 104 97 112 101
 83 116 114 105 110 103 48 48 55 80 1 418 421 422 8017 0 0 0 0 0 0 0 0 0 TTTTTTT
TTTTTTFTFT3 84 255 19 420 HC-04ShapeString00779 13 422 SDL/TYSA_NAME79 14 419 SD
L/TYSA_UNAME79 23 414 ONSHAPE_ORIGINALBODY_ID81 1 161 607 26 159 0 0 157 163 423
 83 1 165 3138 81 1 157 606 26 155 0 0 153 161 424 83 1 423 3137 81 1 153 605 26
 151 0 0 149 157 425 83 1 424 3136 81 1 149 604 26 147 0 0 145 153 426 83 1 425
 3135 81 1 145 603 26 143 0 0 141 149 427 83 1 426 3134 81 1 141 602 26 139 0 0
 137 145 428 83 1 427 3133 81 1 137 601 26 135 0 0 133 141 429 83 1 428 3132 81
 1 133 600 26 131 0 0 129 137 430 83 1 429 3131 81 1 129 599 26 127 0 0 125 133
 431 83 1 430 3130 81 1 125 598 26 123 0 0 121 129 432 83 1 431 3129 81 1 121 59
7 26 119 0 0 117 125 433 83 1 432 3128 81 1 117 596 26 115 0 0 113 121 434 83 1
 433 3127 81 1 113 595 26 111 0 0 109 117 435 83 1 434 3126 81 1 109 594 26 107
 0 0 105 113 436 83 1 435 3125 81 1 105 593 26 103 0 0 101 109 437 83 1 436 3124
 81 1 101 592 26 99 0 0 97 105 438 83 1 437 3123 81 1 97 591 26 95 0 0 93 101 43
9 83 1 438 3122 81 1 93 590 26 91 0 0 89 97 440 83 1 439 3121 81 1 89 589 26 87
 0 0 85 93 441 83 1 440 3120 81 1 85 588 26 83 0 0 81 89 442 83 1 441 3119 81 1
 81 587 26 79 0 0 77 85 443 83 1 442 3118 81 1 77 586 26 75 0 0 73 81 444 83 1 4
43 3117 81 1 73 585 26 71 0 0 69 77 445 83 1 444 3116 81 1 69 584 26 67 0 0 65 7
3 446 83 1 445 3115 81 1 65 583 26 63 0 0 61 69 447 83 1 446 3114 81 1 61 582 26
 59 0 0 57 65 448 83 1 447 3113 81 1 57 581 26 55 0 0 53 61 449 83 1 448 3112 81
 1 53 580 26 51 0 0 49 57 450 83 1 449 3111 81 1 49 579 26 47 0 0 45 53 451 83 1
 450 3110 81 1 45 578 26 43 0 0 41 49 452 83 1 451 3109 81 1 41 577 26 37 0 0 33
 45 453 83 1 452 3108 81 1 33 576 26 32 0 0 27 41 454 83 1 453 3107 83 1 454 310
6 83 1 34 3105 83 1 28 3104 141 19 18 19 19 8 74 4 CI16 index_map_offset0 0 1 dC
CZ20 16 5 0 0 416 411 408 14 2 0 0 0 0 0 0 0 0 0 0 0 0 0 0 0 80 1 13 26 455 9000
 0 0 0 0 3 5 0 0 0 FFTFTFTTFFFFFFFFF2 83 1 15 17325 79 18 455 BTI/importMaxCount
1 0 
