**ABCDEFGHIJKLMNOPQRSTUVWXYZabcdefghijklmnopqrstuvwxyz**************************
**PARASOLID !"#$%&'()*+,-./:;<=>?@[\]^_`{|}~0123456789**************************
**PART1;
MC=unknown;
MC_MODEL=unknown;
MC_ID=unknown;
OS=unknown;
OS_RELEASE=unknown;
FRU=Parasolid 37.0.173;
APPL=Onshape;
SITE=unknown;
USER=unknown;
FORMAT=text;
GUISE=transmit;
KEY=BTGapi::writeModels_.xmt;
FILE=BTGapi::writeModels_.xmt;
DATE=2024-12-29T04:00:29 (UTC);
**PART2;
SCH=SCH_3700173_36001;
USFLD_SIZE=0;
**PART3;
**END_OF_HEADER*****************************************************************
T51 : TRANSMIT FILE created by modeller version 370017323 SCH_3700173_36001_1300
6231 0 12 36 CCCI7 lattice222 0 CCCI4 mesh1006 0 I8 polyline1008 0 CCCCCCCDI5 ow
ner1040 0 CCCI16 boundary_lattice222 0 CCCI13 boundary_mesh1006 0 I17 boundary_p
olyline1008 0 CCCA16 index_map_offset0 0 1 dA9 index_map82 0 A17 node_id_index_m
ap82 0 A20 schema_embedding_map82 0 A5 child12 0 A14 lowest_node_id0 0 1 dA16 me
sh_offset_data206 0 Z1 41 2 3 0 0 0 0 0 0 0 1e3 1e-8 0 4 5 1 0 2 2 6 0 0 7 8 0 0
 9 0 10 0 0 0 0 0 0 0 81 255 1 2 32 11 1 12 0 0 0 13 70 11 CI9 list_type0 0 1 uI
10 notransmit0 0 1 lCCCDCCDI12 finger_index0 0 1 dI12 finger_block1012 0 CZ3 0 4
 T1 0 0 3 20 1 14 14 13 255 6 3 0 1 15 0 16 0 9 0 30 255 7 4 0 16 17 0 0 +-.0260
577214641542 .0380355995352136 .00815 0 -1 0 29 255 8 8 0 10 18 0 -.026057721464
1542 -.0374874092332638 .00815 19 9 CCCCCCI5 frame230 0 CA5 owner12 0 Z9 2 0 1 0
 0 6 0 V0 18 255 10 7 19 20 0 21 8 ?1 81 1 19 25 22 10 0 0 0 23 24 17 255 20 0 0
 0 0 10 25 16 0 0 +18 21 10 23 25 10 26 18 ?1 81 1 23 26 22 21 0 0 19 27 28 17 2
5 0 0 0 0 21 20 16 0 0 -18 26 16 27 29 21 30 31 ?1 29 18 11 0 21 31 8 -.02605772
14641542 .0380355995352136 .00815 29 31 17 0 26 32 18 .0194263591076457 -.037487
4092332638 .00815 29 32 20 0 30 0 31 .0194263591076457 .0380355995352136 .00815
 18 30 19 33 34 26 0 32 ?1 81 1 33 28 22 30 0 0 27 35 36 17 34 0 0 0 0 30 29 37
 0 0 -17 29 0 0 0 0 26 34 37 0 0 +16 255 37 14 38 ?29 0 0 17 0 0 15 81 1 38 30 2
2 37 0 0 35 12 39 30 17 13 0 37 0 7 0 +.0194263591076457 .0380355995352136 .0081
5 0 -1 0 13 15 12 0 1 0 0 37 0 9 0 80 7 CCCCCDI12 legal_owners0 17 1 lCZ1 22 40
 41 9000 0 0 0 0 3 5 0 0 0 FFTFTFTTFFFFFFFFF2 81 1 35 29 22 16 0 0 33 38 42 81 1
 12 31 22 1 43 2 38 0 44 83 255 1 39 16607 81 1 43 21 45 1 0 12 0 0 46 83 1 44 1
6608 80 1 45 47 48 9000 0 0 0 0 3 5 0 0 0 TTTFFFFFFFFFFFFFF1 82 255 1 46 54930 7
9 255 23 48 ONSHAPE_ORIGINALBODY_ID16 16 5 35 ?20 0 0 7 0 0 6 83 1 42 16606 79 1
3 41 BTI/importTag81 1 27 27 22 26 0 0 23 33 49 83 1 36 16605 83 1 49 16604 83 1
 28 16603 83 1 24 16602 74 4 CI16 index_map_offset0 0 1 dCCZ20 14 3 0 0 43 12 2
 0 0 0 0 0 0 0 0 0 0 0 0 0 0 0 0 0 80 1 11 22 50 9000 0 0 0 0 3 5 0 0 0 FFTFTFTT
FFFFFFFFF2 83 1 13 16608 79 18 50 BTI/importMaxCount1 0 
