**ABCDEFGHIJKLMNOPQRSTUVWXYZabcdefghijklmnopqrstuvwxyz**************************
**PARASOLID !"#$%&'()*+,-./:;<=>?@[\]^_`{|}~0123456789**************************
**PART1;
MC=unknown;
MC_MODEL=unknown;
MC_ID=unknown;
OS=unknown;
OS_RELEASE=unknown;
FRU=Parasolid 37.0.173;
APPL=Onshape;
SITE=unknown;
USER=unknown;
FORMAT=text;
GUISE=transmit;
KEY=BTGapi::writeModels_.xmt;
FILE=BTGapi::writeModels_.xmt;
DATE=2024-12-29T04:00:27 (UTC);
**PART2;
SCH=SCH_3700173_36001;
USFLD_SIZE=0;
**PART3;
**END_OF_HEADER*****************************************************************
T51 : TRANSMIT FILE created by modeller version 370017323 SCH_3700173_36001_1300
6231 0 12 36 CCCI7 lattice222 0 CCCI4 mesh1006 0 I8 polyline1008 0 CCCCCCCDI5 ow
ner1040 0 CCCI16 boundary_lattice222 0 CCCI13 boundary_mesh1006 0 I17 boundary_p
olyline1008 0 CCCA16 index_map_offset0 0 1 dA9 index_map82 0 A17 node_id_index_m
ap82 0 A20 schema_embedding_map82 0 A5 child12 0 A14 lowest_node_id0 0 1 dA16 me
sh_offset_data206 0 Z1 1024 2 3 0 0 0 0 0 0 0 1e3 1e-8 0 4 5 1 0 1 2 6 0 7 8 9 0
 0 10 11 12 0 0 0 0 0 0 0 81 255 1 2 1024 13 1 14 0 0 0 15 70 11 CI9 list_type0
 0 1 uI10 notransmit0 0 1 lCCCDCCDI12 finger_index0 0 1 dI12 finger_block1012 0
 CZ3 0 4 T1 0 0 6 20 1 16 16 13 255 6 162 0 1 0 17 0 0 18 0 50 255 7 543 0 17 19
 0 0 +-.0225 -.001 .01 0 -1 0 1 0 0 31 255 8 538 0 20 21 0 0 +-.003811665 -.001
 -.0083767411396 0 -1 0 1 0 0 8e-4 29 255 9 436 0 22 23 0 -.0225 -.001 .01 19 9
 CCCCCCI5 frame230 0 CA5 owner12 0 Z10 1 0 1 18 0 24 0 V0 16 255 11 128 25 ?26 0
 20 27 0 0 1 18 255 12 25 28 29 0 30 31 5e-7 1 81 1 28 882 32 12 0 0 0 33 34 17
 255 29 0 35 36 37 12 38 39 0 40 -18 30 23 33 41 12 42 43 5e-7 1 29 31 452 0 12
 44 43 -.0225 0 -.01 29 44 444 0 45 46 31 .0225 -.001 -.01 29 43 450 0 30 31 23
 -.0225 -.001 -.01 29 23 435 0 47 43 9 -.0225 0 .01 18 47 6 48 38 22 0 23 5e-7 1
 81 1 48 889 32 47 0 0 49 25 50 17 38 0 51 52 40 47 29 39 0 53 +18 22 7 49 54 55
 47 9 5e-7 1 81 1 49 888 32 22 0 0 56 48 57 17 54 0 35 37 36 22 41 58 0 59 +18 5
5 9 56 60 61 22 62 5e-7 1 81 1 56 887 32 55 0 0 63 49 64 17 60 0 65 59 66 55 67
 68 0 69 -18 61 11 63 70 45 55 71 5e-7 1 29 62 438 0 55 71 46 .0225 -.001 .01 29
 71 440 0 61 0 62 .0225 0 .01 29 46 446 0 42 62 44 .0225 0 -.01 18 42 18 72 73 3
0 45 46 5e-7 1 81 1 72 884 32 42 0 0 33 74 75 17 73 0 76 77 78 42 40 79 0 80 -18
 45 16 74 66 42 61 44 5e-7 1 81 1 74 885 32 45 0 0 72 63 81 17 66 0 65 60 41 45
 82 83 0 77 -15 255 65 146 0 59 17 0 17 41 0 65 66 59 30 54 58 0 36 -17 82 0 76
 78 77 30 66 83 0 0 +16 83 22 84 ?82 85 86 87 0 0 1 17 77 0 76 82 73 45 88 89 0
 67 +15 76 21 0 77 90 0 17 88 0 91 70 67 42 77 89 0 0 -16 89 17 92 ?77 86 68 93
 0 0 1 17 67 0 91 88 69 45 60 68 0 0 +15 91 14 0 69 94 0 17 69 0 91 67 70 55 95
 96 0 97 +16 68 15 98 ?67 89 99 100 0 0 1 81 1 98 925 32 68 0 0 92 101 102 16 99
 12 101 ?52 68 96 103 0 0 1 133 255 100 777 0 68 104 105 0 +105 .0225 -.001 .01
 .0225 -.001 -.01 0 .02 30 255 104 451 0 1 87 100 106 +.0225 -.001 -.01 -1 0 0 3
0 105 445 0 1 100 107 108 +.0225 -.001 .01 0 0 -1 31 107 460 0 109 105 110 0 +-.
020987818 -.001 -.008502042 0 -1 0 1 0 0 .001 141 255 108 100 108 108 105 16 109
 33 111 ?112 113 39 107 0 0 1 31 110 466 0 114 107 115 0 +.021012182 -.001 -.008
425885 0 -1 0 1 0 0 .001 16 114 40 116 ?117 118 113 110 0 0 1 31 115 472 0 119 1
10 120 0 +.020969791 -.001 .008574115 0 -1 0 1 0 0 .001 16 119 47 121 ?122 123 1
18 115 0 0 1 31 120 478 0 124 115 125 0 +-.021030209 -.001 .008497958 0 -1 0 1 0
 0 .001 16 124 54 126 ?127 128 123 120 0 0 1 31 125 484 0 129 120 130 0 +.002 -.
001 .007466713 0 -1 0 1 0 0 8e-4 16 129 61 131 ?132 133 128 125 0 0 1 31 130 490
 0 134 125 135 0 +-.002 -.001 .007466713 0 -1 0 1 0 0 8e-4 16 134 68 136 ?137 13
8 133 130 0 0 1 31 135 496 0 139 130 140 0 +.013 -.001 -.005 0 -1 0 1 0 0 8e-4 1
6 139 75 141 ?142 143 138 135 0 0 1 31 140 502 0 144 135 145 0 +.013 -.001 .005
 0 -1 0 1 0 0 8e-4 16 144 82 146 ?147 148 143 140 0 0 1 31 145 508 0 149 140 150
 0 +-.013 -.001 -.005 0 -1 0 1 0 0 8e-4 16 149 89 151 ?152 153 148 145 0 0 1 31
 150 514 0 154 145 155 0 +-.013 -.001 .005 0 -1 0 1 0 0 8e-4 16 154 96 156 ?157
 158 153 150 0 0 1 31 155 520 0 159 150 160 0 +.003808335 -.001 -.008371305 0 -1
 0 1 0 0 8e-4 16 159 103 161 ?162 163 158 155 0 0 1 31 160 526 0 164 155 21 0 +.
001268335 -.001 -.008365166 0 -1 0 1 0 0 8e-4 16 164 110 165 ?166 167 163 160 0
 0 1 31 21 532 0 168 160 8 0 +-.001271665 -.001 -.008383294 0 -1 0 1 0 0 8e-4 16
 168 117 169 ?170 171 167 21 0 0 1 81 1 169 893 32 168 0 0 172 173 174 17 170 0
 175 170 170 0 176 168 0 0 +16 171 121 172 ?177 20 168 178 0 0 1 16 167 114 173
 ?179 168 164 180 0 0 1 81 1 173 894 32 167 0 0 169 165 181 17 179 0 182 179 179
 0 183 167 0 0 +31 180 529 0 167 184 178 0 +.001268335 0 -.008365166 0 -1 0 1 0
 0 8e-4 31 184 523 0 163 185 180 0 +.003808335 0 -.008371305 0 -1 0 1 0 0 8e-4 3
1 178 535 0 171 180 27 0 +-.001271665 0 -.008383294 0 -1 0 1 0 0 8e-4 31 27 541
 0 11 178 186 0 +-.003811665 0 -.0083767411396 0 -1 0 1 0 0 8e-4 133 186 771 0 1
87 27 188 0 +188 -.0225 -.001 .01 .0225 -.001 .01 0 .045 16 187 8 189 ?97 96 190
 186 0 0 1 30 188 439 0 1 186 191 192 +-.0225 -.001 .01 1 0 0 133 191 773 0 58 1
88 193 0 +193 -.0225 -.001 -.01 -.0225 -.001 .01 0 .02 141 192 186 192 192 188 1
6 58 29 194 ?54 39 79 191 0 0 1 30 193 456 0 1 191 87 195 +-.0225 -.001 -.01 0 0
 1 133 87 775 0 83 193 104 0 +104 .0225 -.001 -.01 -.0225 -.001 -.01 0 .045 141
 195 191 195 195 193 81 1 194 919 32 58 0 0 196 197 198 16 39 30 196 ?38 109 58
 199 0 0 1 16 79 26 197 ?40 58 85 200 0 0 1 81 1 197 920 32 79 0 0 194 201 202 1
7 40 0 51 38 80 12 73 79 0 78 +16 85 24 201 ?36 79 83 203 0 0 1 133 200 737 0 79
 204 205 0 +205 .0225 0 -.01 -.0225 0 -.01 0 .045 30 204 448 0 1 206 200 207 +.0
225 0 .01 0 0 -1 30 205 454 0 1 200 199 208 +.0225 0 -.01 -1 0 0 133 199 739 0 3
9 205 209 0 +209 -.0225 0 -.01 -.0225 0 .01 0 .02 141 208 200 208 208 205 30 209
 457 0 1 199 210 211 +-.0225 0 -.01 0 0 1 31 210 463 0 113 209 212 0 +-.02098781
8 0 -.008502042 0 -1 0 1 0 0 .001 141 211 199 211 211 209 16 113 37 213 ?214 114
 109 210 0 0 1 31 212 469 0 118 210 215 0 +.021012182 0 -.008425885 0 -1 0 1 0 0
 .001 16 118 44 216 ?217 119 114 212 0 0 1 31 215 475 0 123 212 218 0 +.02096979
1 0 .008574115 0 -1 0 1 0 0 .001 16 123 51 219 ?220 124 119 215 0 0 1 31 218 481
 0 128 215 221 0 +-.021030209 0 .008497958 0 -1 0 1 0 0 .001 16 128 58 222 ?223
 129 124 218 0 0 1 31 221 487 0 133 218 224 0 +.002 0 .007466713 0 -1 0 1 0 0 8e
-4 16 133 65 225 ?226 134 129 221 0 0 1 31 224 493 0 138 221 227 0 +-.002 0 .007
466713 0 -1 0 1 0 0 8e-4 16 138 72 228 ?229 139 134 224 0 0 1 31 227 499 0 143 2
24 230 0 +.013 0 -.005 0 -1 0 1 0 0 8e-4 16 143 79 231 ?232 144 139 227 0 0 1 31
 230 505 0 148 227 233 0 +.013 0 .005 0 -1 0 1 0 0 8e-4 16 148 86 234 ?235 149 1
44 230 0 0 1 31 233 511 0 153 230 185 0 +-.013 0 -.005 0 -1 0 1 0 0 8e-4 16 153
 93 236 ?237 154 149 233 0 0 1 31 185 517 0 158 233 184 0 +-.013 0 .005 0 -1 0 1
 0 0 8e-4 16 158 100 238 ?239 159 154 185 0 0 1 81 1 238 898 32 158 0 0 161 156
 240 17 239 0 241 239 239 0 242 158 0 0 +15 241 140 0 239 243 244 17 242 0 245 2
42 242 0 239 158 0 0 -15 245 864 0 242 246 247 14 255 246 94 248 ?249 250 245 6
 251 -0 0 249 250 24 15 247 95 0 157 246 0 17 157 0 247 157 157 0 252 154 0 0 +1
7 252 0 253 252 252 0 157 154 0 0 -15 253 156 0 252 17 254 14 17 145 255 ?243 0
 256 6 7 +0 0 243 0 24 15 254 155 0 257 17 258 17 257 0 254 257 257 0 152 149 0
 0 -15 258 154 0 259 17 260 17 259 0 258 259 259 0 147 144 0 0 -15 260 153 0 261
 17 262 17 261 0 260 261 261 0 142 139 0 0 -15 262 152 0 263 17 264 17 263 0 262
 263 263 0 137 134 0 0 -15 264 151 0 265 17 266 17 265 0 264 265 265 0 132 129 0
 0 -15 266 150 0 267 17 268 17 267 0 266 267 267 0 127 124 0 0 -15 268 149 0 269
 17 270 17 269 0 268 269 269 0 122 119 0 0 -15 270 148 0 271 17 272 17 271 0 270
 271 271 0 117 114 0 0 -15 272 147 0 273 17 65 17 273 0 272 273 273 0 112 109 0
 0 -17 112 0 274 112 112 0 273 109 0 0 +15 274 32 0 112 275 0 14 275 31 276 ?277
 278 279 6 280 -0 0 277 278 24 81 1 276 945 32 275 0 0 281 282 283 14 277 27 282
 ?90 275 35 6 284 +0 0 90 275 24 14 278 38 281 ?275 285 286 6 287 -0 0 275 285 2
4 15 279 873 0 288 275 274 51 255 280 458 0 275 284 287 0 +-.020987818 0 -.00850
2042 0 1 0 .001 1 0 0 13 24 2 0 0 0 0 0 0 10 17 50 284 455 0 277 289 280 0 +-.02
25 0 -.01 -1 0 0 0 0 1 51 287 464 0 278 280 290 0 +.021012182 0 -.008425885 0 1
 0 .001 1 0 0 51 290 470 0 285 287 291 0 +.020969791 0 .008574115 0 1 0 .001 1 0
 0 14 285 45 292 ?278 293 294 6 290 -0 0 278 293 24 51 291 476 0 293 290 295 0 +
-.021030209 0 .008497958 0 1 0 .001 1 0 0 14 293 52 296 ?285 297 298 6 291 -0 0
 285 297 24 51 295 482 0 297 291 299 0 +.002 0 .007466713 0 1 0 8e-4 1 0 0 14 29
7 59 300 ?293 301 302 6 295 -0 0 293 301 24 51 299 488 0 301 295 303 0 +-.002 0
 .007466713 0 1 0 8e-4 1 0 0 14 301 66 304 ?297 305 306 6 299 -0 0 297 305 24 51
 303 494 0 305 299 307 0 +.013 0 -.005 0 1 0 8e-4 1 0 0 14 305 73 308 ?301 309 3
10 6 303 -0 0 301 309 24 51 307 500 0 309 303 311 0 +.013 0 .005 0 1 0 8e-4 1 0
 0 14 309 80 312 ?305 249 313 6 307 -0 0 305 249 24 51 311 506 0 249 307 251 0 +
-.013 0 -.005 0 1 0 8e-4 1 0 0 14 249 87 314 ?309 246 315 6 311 -0 0 309 246 24
 51 251 512 0 246 311 316 0 +-.013 0 .005 0 1 0 8e-4 1 0 0 51 316 518 0 250 251
 317 0 +.003808335 0 -.008371305 0 1 0 8e-4 1 0 0 14 250 101 318 ?246 319 320 6
 316 -0 0 246 319 24 51 317 524 0 319 316 321 0 +.001268335 0 -.008365166 0 1 0
 8e-4 1 0 0 14 319 108 322 ?250 323 324 6 317 -0 0 250 323 24 51 321 530 0 323 3
17 325 0 +-.001271665 0 -.008383294 0 1 0 8e-4 1 0 0 14 323 115 326 ?319 327 328
 6 321 -0 0 319 327 24 51 325 536 0 327 321 19 0 +-.003811665 0 -.0083767411396
 0 1 0 8e-4 1 0 0 14 327 122 329 ?323 243 330 6 325 -0 0 323 243 24 50 19 542 0
 243 325 7 0 +-.0225 0 .01 0 -1 0 1 0 0 14 243 129 331 ?327 17 332 6 19 -0 0 327
 17 24 81 1 331 931 32 243 0 0 255 329 333 15 332 144 0 26 243 334 17 26 0 332 2
6 26 0 335 11 0 0 +15 334 143 0 177 243 182 17 177 0 334 177 177 0 336 171 0 0 +
15 182 142 0 179 243 337 15 337 141 0 338 243 241 17 338 0 337 338 338 0 339 163
 0 0 +17 339 0 320 339 339 0 338 163 0 0 -16 163 107 340 ?338 164 159 184 0 0 1
 81 1 340 896 32 163 0 0 165 161 341 80 7 CCCCCDI12 legal_owners0 17 1 lCZ1 32 3
42 343 9000 0 0 0 0 3 5 0 0 0 FFTFTFTTFFFFFFFFF2 81 1 165 895 32 164 0 0 173 340
 344 81 1 161 897 32 159 0 0 340 238 345 83 255 1 341 16575 83 1 345 16576 83 1
 344 16574 79 255 13 343 BTI/importTag15 320 877 0 339 250 346 15 346 102 0 162
 250 0 17 162 0 346 162 162 0 347 159 0 0 +17 347 0 348 347 347 0 162 159 0 0 -1
5 348 157 0 347 17 253 17 336 0 328 336 336 0 177 171 0 0 -15 328 875 0 336 323
 175 15 175 116 0 170 323 0 17 335 0 330 335 335 0 26 11 0 0 -15 330 874 0 335 3
27 349 15 349 123 0 350 327 0 17 350 0 349 350 350 0 351 20 0 0 +17 351 0 256 35
1 351 0 350 20 0 0 -16 20 124 352 ?350 11 171 8 0 0 1 81 1 352 891 32 20 0 0 25
 172 353 81 1 25 890 32 11 0 0 48 352 354 81 1 172 892 32 171 0 0 352 169 355 83
 1 353 16570 83 1 355 16571 83 1 354 16569 15 256 160 0 351 17 356 15 356 159 0
 176 17 357 17 176 0 356 176 176 0 170 168 0 0 -15 357 158 0 358 17 348 17 358 0
 357 358 358 0 166 164 0 0 -17 166 0 359 166 166 0 358 164 0 0 +15 359 109 0 166
 319 0 81 1 255 930 32 17 0 0 360 331 361 81 1 329 932 32 327 0 0 331 326 362 83
 1 333 16610 81 1 326 933 32 323 0 0 329 322 363 83 1 362 16611 81 1 322 934 32
 319 0 0 326 318 364 83 1 363 16612 81 1 318 935 32 250 0 0 322 248 365 83 1 364
 16613 81 1 248 936 32 246 0 0 318 314 366 83 1 365 16614 81 1 314 937 32 249 0
 0 248 312 367 83 1 366 16615 81 1 312 938 32 309 0 0 314 308 368 83 1 367 16616
 81 1 308 939 32 305 0 0 312 304 369 83 1 368 16617 81 1 304 940 32 301 0 0 308
 300 370 83 1 369 16618 81 1 300 941 32 297 0 0 304 296 371 83 1 370 16619 81 1
 296 942 32 293 0 0 300 292 372 83 1 371 16620 81 1 292 943 32 285 0 0 296 281 3
73 83 1 372 16621 81 1 281 944 32 278 0 0 292 276 374 83 1 373 16622 83 1 374 16
623 81 1 360 929 32 190 0 0 189 255 375 83 1 361 16609 16 190 5 360 ?376 187 0 3
77 0 0 1 81 1 189 928 32 187 0 0 378 360 379 83 1 375 16608 81 1 378 927 32 96 0
 0 101 189 380 83 1 379 16607 16 96 10 378 ?69 99 187 381 0 0 1 81 1 101 926 32
 99 0 0 98 378 382 83 1 380 16606 83 1 382 16605 133 381 663 0 96 0 383 0 +383 .
0225 0 .01 .0225 -.001 .01 0 .001 30 383 441 0 1 381 93 384 +.0225 0 .01 0 -1 0
 133 93 667 0 89 383 385 0 +385 .0225 0 -.01 .0225 -.001 -.01 0 .001 141 384 381
 384 384 383 30 385 447 0 1 93 203 386 +.0225 0 -.01 0 -1 0 133 203 671 0 85 385
 387 0 +387 -.0225 0 -.01 -.0225 -.001 -.01 0 .001 141 386 93 386 386 385 30 387
 453 0 1 203 377 388 +-.0225 0 -.01 0 -1 0 133 377 673 0 190 387 389 0 +389 -.02
25 0 .01 -.0225 -.001 .01 0 .001 141 388 203 388 388 387 30 389 437 0 1 377 103
 390 +-.0225 0 .01 0 -1 0 133 103 733 0 99 389 391 0 +391 -.0225 0 .01 .0225 0 .
01 0 .045 141 390 377 390 390 389 30 391 442 0 1 103 206 392 +-.0225 0 .01 1 0 0
 133 206 735 0 86 391 204 0 +204 .0225 0 .01 .0225 0 -.01 0 .02 141 392 103 392
 392 391 16 86 19 393 ?80 83 89 206 0 0 1 81 1 393 923 32 86 0 0 84 92 394 17 80
 0 51 40 52 42 70 86 0 88 +15 51 130 0 52 243 0 17 52 0 51 80 38 61 53 99 0 95 +
17 70 0 91 69 88 61 80 86 0 52 -17 53 0 395 376 95 47 52 99 0 37 -17 95 0 395 53
 97 61 69 96 0 0 -15 395 4 0 376 396 0 17 97 0 395 95 376 55 59 187 0 0 +17 376
 0 395 97 53 22 37 190 0 0 +17 59 0 65 41 60 22 97 187 0 376 -17 37 0 35 29 54 4
7 376 190 0 0 -15 35 28 0 36 277 0 17 36 0 35 54 29 30 78 85 0 82 +17 78 0 76 73
 82 12 36 85 0 0 -14 396 3 397 ?0 94 395 6 398 +0 0 0 94 24 81 1 397 949 32 396
 0 0 399 400 401 14 94 13 399 ?396 90 91 6 402 +0 0 396 90 24 50 398 434 0 396 0
 402 0 +-.0225 0 .01 0 0 1 1 0 0 50 402 443 0 94 398 289 0 +.0225 0 .01 1 0 0 0
 0 -1 50 289 449 0 90 402 284 0 +.0225 0 -.01 0 0 -1 -1 0 0 14 90 20 403 ?94 277
 76 6 289 +0 0 94 277 24 81 1 403 947 32 90 0 0 282 399 404 81 1 282 946 32 277
 0 0 276 403 405 81 1 399 948 32 94 0 0 403 397 406 83 1 404 16626 83 1 406 1662
7 83 1 405 16625 81 1 400 950 32 1 407 408 397 0 409 83 1 401 16628 81 1 407 880
 410 1 0 400 0 0 411 81 1 408 951 412 1 400 413 0 0 414 83 1 409 16629 80 1 412
 32 415 9000 0 0 0 0 3 5 0 0 0 FFTFTFTTFFFFFFFFF2 81 1 413 1022 416 1 408 14 0 0
 417 83 1 414 17325 80 1 416 418 419 8040 0 0 0 0 3 5 0 0 0 TTTFFFFFFFFFFFFFF2 8
1 1 14 1023 420 1 413 2 0 0 421 83 3 417 .0509803921568627 .36078431372549 .5607
8431372549 80 1 420 13 422 8038 0 0 0 0 0 0 0 0 0 TTTTTTTTTTTTTFTFT10 98 255 10
 421 72 67 45 48 52 80 108 97 99 97 79 14 422 SDL/TYSA_UNAME79 17 419 SDL/TYSA_C
OLOUR_279 18 415 BTI/importMaxCount80 1 410 423 424 9000 0 0 0 0 3 5 0 0 0 TTTFF
FFFFFFFFFFFF1 82 255 1 411 2 79 23 424 ONSHAPE_ORIGINALBODY_ID81 1 84 922 32 83
 0 0 201 393 425 81 1 92 924 32 89 0 0 393 98 426 83 1 394 16602 83 1 426 16603
 81 1 201 921 32 85 0 0 197 84 427 83 1 425 16601 83 1 427 166e2 15 324 876 0 18
3 319 359 17 183 0 324 183 183 0 179 167 0 0 -15 315 865 0 428 249 429 17 428 0
 315 428 428 0 237 153 0 0 -15 429 88 0 152 249 0 17 152 0 429 152 152 0 257 149
 0 0 +17 237 0 244 237 237 0 428 153 0 0 +15 244 139 0 237 243 430 15 430 138 0
 235 243 431 17 235 0 430 235 235 0 432 148 0 0 +15 431 137 0 232 243 433 17 232
 0 431 232 232 0 434 143 0 0 +15 433 136 0 229 243 435 17 229 0 433 229 229 0 43
6 138 0 0 +15 435 135 0 226 243 437 17 226 0 435 226 226 0 438 133 0 0 +15 437 1
34 0 223 243 439 17 223 0 437 223 223 0 440 128 0 0 +15 439 133 0 220 243 441 17
 220 0 439 220 220 0 442 123 0 0 +15 441 132 0 217 243 443 17 217 0 441 217 217
 0 444 118 0 0 +15 443 131 0 214 243 51 17 214 0 443 214 214 0 288 113 0 0 +17 2
88 0 279 288 288 0 214 113 0 0 -17 444 0 286 444 444 0 217 118 0 0 -15 286 872 0
 444 278 445 15 445 39 0 117 278 0 17 117 0 445 117 117 0 271 114 0 0 +17 442 0
 294 442 442 0 220 123 0 0 -15 294 871 0 442 285 446 15 446 46 0 122 285 0 17 12
2 0 446 122 122 0 269 119 0 0 +17 440 0 298 440 440 0 223 128 0 0 -15 298 870 0
 440 293 447 15 447 53 0 127 293 0 17 127 0 447 127 127 0 267 124 0 0 +17 438 0
 302 438 438 0 226 133 0 0 -15 302 869 0 438 297 448 15 448 60 0 132 297 0 17 13
2 0 448 132 132 0 265 129 0 0 +17 436 0 306 436 436 0 229 138 0 0 -15 306 868 0
 436 301 449 15 449 67 0 137 301 0 17 137 0 449 137 137 0 263 134 0 0 +17 434 0
 310 434 434 0 232 143 0 0 -15 310 867 0 434 305 450 15 450 74 0 142 305 0 17 14
2 0 450 142 142 0 261 139 0 0 +17 432 0 313 432 432 0 235 148 0 0 -15 313 866 0
 432 309 451 15 451 81 0 147 309 0 17 147 0 451 147 147 0 259 144 0 0 +83 1 283
 16624 81 1 156 899 32 154 0 0 238 236 452 83 1 240 16577 81 1 236 900 32 153 0
 0 156 151 453 83 1 452 16578 81 1 151 901 32 149 0 0 236 234 454 83 1 453 16579
 81 1 234 902 32 148 0 0 151 146 455 83 1 454 16580 81 1 146 903 32 144 0 0 234
 231 456 83 1 455 16581 81 1 231 904 32 143 0 0 146 141 457 83 1 456 16582 81 1
 141 905 32 139 0 0 231 228 458 83 1 457 16583 81 1 228 906 32 138 0 0 141 136 4
59 83 1 458 16584 81 1 136 907 32 134 0 0 228 225 460 83 1 459 16585 81 1 225 90
8 32 133 0 0 136 131 461 83 1 460 16586 81 1 131 909 32 129 0 0 225 222 462 83 1
 461 16587 81 1 222 910 32 128 0 0 131 126 463 83 1 462 16588 81 1 126 911 32 12
4 0 0 222 219 464 83 1 463 16589 81 1 219 912 32 123 0 0 126 121 465 83 1 464 16
590 81 1 121 913 32 119 0 0 219 216 466 83 1 465 16591 81 1 216 914 32 118 0 0 1
21 116 467 83 1 466 16592 81 1 116 915 32 114 0 0 216 213 468 83 1 467 16593 81
 1 213 916 32 113 0 0 116 111 469 83 1 468 16594 81 1 111 917 32 109 0 0 213 196
 470 83 1 469 16595 81 1 196 918 32 39 0 0 111 194 471 83 1 470 16596 83 1 471 1
6597 141 207 206 207 207 204 83 1 202 16599 83 1 198 16598 83 1 181 16573 83 1 1
74 16572 141 106 87 106 106 104 83 1 102 16604 81 1 63 886 32 61 0 0 74 56 472 8
3 1 81 16564 83 1 472 16565 81 1 33 883 32 30 0 0 28 72 473 83 1 75 16563 83 1 4
73 16562 83 1 64 16566 83 1 57 16567 83 1 50 16568 83 1 34 16561 19 18 161 0 1 0
 10 6 0 S0 74 4 CI16 index_map_offset0 0 1 dCCZ20 16 6 0 0 407 400 408 413 14 2
 0 0 0 0 0 0 0 0 0 0 0 0 0 0 80 1 13 474 475 8017 0 0 0 0 0 0 0 0 0 TTTTTTTTTTTT
TFTFT3 84 255 10 15 HC-04Placa79 13 475 SDL/TYSA_NAME1 0 
