**ABCDEFGHIJKLMNOPQRSTUVWXYZabcdefghijklmnopqrstuvwxyz**************************
**PARASOLID !"#$%&'()*+,-./:;<=>?@[\]^_`{|}~0123456789**************************
**PART1;
MC=unknown;
MC_MODEL=unknown;
MC_ID=unknown;
OS=unknown;
OS_RELEASE=unknown;
FRU=Parasolid 37.0.173;
APPL=Onshape;
SITE=unknown;
USER=unknown;
FORMAT=text;
GUISE=transmit;
KEY=BTGapi::writeModels_.xmt;
FILE=BTGapi::writeModels_.xmt;
DATE=2024-12-29T04:00:26 (UTC);
**PART2;
SCH=SCH_3700173_36001;
USFLD_SIZE=0;
**PART3;
**END_OF_HEADER*****************************************************************
T51 : TRANSMIT FILE created by modeller version 370017323 SCH_3700173_36001_1300
6231 0 12 36 CCCI7 lattice222 0 CCCI4 mesh1006 0 I8 polyline1008 0 CCCCCCCDI5 ow
ner1040 0 CCCI16 boundary_lattice222 0 CCCI13 boundary_mesh1006 0 I17 boundary_p
olyline1008 0 CCCA16 index_map_offset0 0 1 dA9 index_map82 0 A17 node_id_index_m
ap82 0 A20 schema_embedding_map82 0 A5 child12 0 A14 lowest_node_id0 0 1 dA16 me
sh_offset_data206 0 Z1 213 2 3 0 0 0 0 0 0 0 1e3 1e-8 0 4 5 1 0 1 2 6 0 7 8 0 0
 0 9 10 0 0 0 0 0 0 0 0 81 255 1 2 213 11 1 12 0 0 0 13 70 11 CI9 list_type0 0 1
 uI10 notransmit0 0 1 lCCCDCCDI12 finger_index0 0 1 dI12 finger_block1012 0 CZ3
 0 4 T1 0 0 3 20 1 14 14 13 255 6 149 0 1 0 15 0 0 16 0 51 255 7 148 0 15 17 0 0
 -.075 -.12 .033 0 0 -1 .0525 -1 0 0 31 255 8 143 0 18 19 0 0 +.075 -.12 .03 0 0
 1 1 0 0 .0525 19 9 CCCCCCI5 frame230 0 CA5 owner12 0 Z9 95 0 1 16 0 20 0 V0 16
 255 10 168 0 ?21 0 22 23 0 0 1 17 255 21 0 24 21 21 0 25 10 0 0 +16 22 44 0 ?26
 10 18 19 0 0 1 31 23 204 0 10 27 19 0 +.075 -.12 .033 0 0 1 1 0 0 .05 31 27 205
 0 28 0 23 0 +.075 -.12 .036 0 0 1 1 0 0 .05 31 19 46 0 22 23 8 0 +.075 -.12 .03
3 0 0 1 1 0 0 .0525 16 28 183 0 ?29 18 0 27 0 0 1 17 29 0 30 29 29 0 31 28 0 0 +
16 18 138 0 ?32 22 28 8 0 0 1 17 32 0 33 32 32 0 34 18 0 0 +15 255 33 146 0 32 1
5 0 17 34 0 35 34 34 0 32 18 0 0 -15 35 137 0 34 36 0 14 255 36 129 0 ?37 38 35
 6 17 -0 0 37 38 20 14 37 186 0 ?39 36 40 6 41 -0 0 39 36 20 14 38 1 0 ?36 15 42
 6 43 +0 0 36 15 20 50 255 17 142 0 36 43 7 0 +.075 -.12 .03 0 0 1 1 0 0 13 20 9
6 0 0 0 0 0 0 9 15 14 15 145 0 ?38 0 44 6 7 -0 0 38 0 20 15 44 144 0 45 15 33 17
 45 0 44 45 45 0 26 22 0 0 -17 26 0 46 26 26 0 45 22 0 0 +15 46 7 0 26 38 0 50 4
3 3 0 38 41 17 0 +.075 -.12 .033 0 0 1 1 0 0 51 41 201 0 37 47 43 0 -.075 -.12 .
036 0 0 -1 .05 -1 0 0 50 47 203 0 39 0 41 0 +.075 -.12 .036 0 0 1 1 0 0 14 39 19
1 0 ?0 37 30 6 47 +0 0 0 37 20 15 30 194 0 29 39 0 15 42 170 0 25 38 46 17 25 0
 42 25 25 0 21 10 0 0 -15 40 189 0 31 37 24 17 31 0 40 31 31 0 29 28 0 0 -15 24
 190 0 21 37 0 19 16 150 0 1 0 9 6 0 S0 74 4 CI16 index_map_offset0 0 1 dCCZ20 1
4 3 0 0 48 12 2 0 0 0 0 0 0 0 0 0 0 0 0 0 0 0 0 0 81 1 48 211 49 1 0 12 0 0 50 8
1 1 12 212 51 1 48 2 0 0 52 80 7 CCCCCDI12 legal_owners0 17 1 lCZ1 51 11 53 8038
 0 0 0 0 0 0 0 0 0 TTTTTTTTTTTTTFTFT10 98 255 6 52 80 97 114 116 32 50 79 255 14
 53 SDL/TYSA_UNAME80 1 49 54 55 8040 0 0 0 0 3 5 0 0 0 TTTFFFFFFFFFFFFFF2 83 255
 3 50 .647058823529412 .647058823529412 .647058823529412 79 17 55 SDL/TYSA_COLOU
R_280 1 11 56 57 8017 0 0 0 0 0 0 0 0 0 TTTTTTTTTTTTTFTFT3 84 255 6 13 Part 279
 13 57 SDL/TYSA_NAME1 0 
