**ABCDEFGHIJKLMNOPQRSTUVWXYZabcdefghijklmnopqrstuvwxyz**************************
**PARASOLID !"#$%&'()*+,-./:;<=>?@[\]^_`{|}~0123456789**************************
**PART1;
MC=unknown;
MC_MODEL=unknown;
MC_ID=unknown;
OS=unknown;
OS_RELEASE=unknown;
FRU=Parasolid 37.0.173;
APPL=Onshape;
SITE=unknown;
USER=unknown;
FORMAT=text;
GUISE=transmit;
KEY=BTGapi::writeModels_.xmt;
FILE=BTGapi::writeModels_.xmt;
DATE=2024-12-29T04:00:25 (UTC);
**PART2;
SCH=SCH_3700173_36001;
USFLD_SIZE=0;
**PART3;
**END_OF_HEADER*****************************************************************
T51 : TRANSMIT FILE created by modeller version 370017323 SCH_3700173_36001_1300
6231 0 12 36 CCCI7 lattice222 0 CCCI4 mesh1006 0 I8 polyline1008 0 CCCCCCCDI5 ow
ner1040 0 CCCI16 boundary_lattice222 0 CCCI13 boundary_mesh1006 0 I17 boundary_p
olyline1008 0 CCCA16 index_map_offset0 0 1 dA9 index_map82 0 A17 node_id_index_m
ap82 0 A20 schema_embedding_map82 0 A5 child12 0 A14 lowest_node_id0 0 1 dA16 me
sh_offset_data206 0 Z1 512 2 3 0 0 0 0 0 0 0 1e3 1e-8 0 4 5 1 0 1 2 6 0 7 8 9 0
 0 10 11 12 0 0 0 0 0 0 0 81 255 1 2 512 13 1 14 0 0 0 15 70 11 CI9 list_type0 0
 1 uI10 notransmit0 0 1 lCCCDCCDI12 finger_index0 0 1 dI12 finger_block1012 0 CZ
3 0 4 T1 0 0 6 20 1 16 16 13 255 6 64 0 1 0 17 0 0 18 0 50 255 7 364 0 19 20 0 0
 +.007995474 5981160271274e-31 .004883988 -1 0 0 0 1224646799147e-28 1 30 255 8
 400 0 21 22 0 0 +.007995474 7573201110166e-31 .006183988 0 -1 1224646799147e-28
 29 255 9 363 0 23 24 0 .007995474 7573201110166e-31 .006183988 19 9 CCCCCCI5 fr
ame230 0 CA5 owner12 0 Z10 1 0 1 18 0 25 0 V0 16 255 11 58 26 ?27 0 28 29 0 0 1
 18 255 12 53 30 31 0 32 33 5e-7 1 81 1 30 406 34 12 0 0 0 35 36 17 255 31 0 37
 38 39 12 27 11 0 40 -18 32 51 35 41 12 42 43 5e-7 1 29 33 220 0 12 43 44 .00713
3531 -9999999999999e-18 .005183988 29 43 218 0 32 45 33 .007133531 6348554311018
e-31 .005183988 29 44 179 0 46 33 47 .007133531 7573201110166e-31 .006183988 18
 46 6 48 49 50 0 44 5e-7 1 29 47 180 0 50 44 51 .007133531 -9999999999999e-18 .0
06183988 18 50 7 52 27 23 46 47 5e-7 1 29 51 360 0 53 47 54 .007995474 -99999999
99999e-18 .006183988 18 53 11 55 56 57 23 51 ?1 29 54 361 0 58 51 24 .007995474
 -999999999999899e-20 .006483988 18 58 18 59 60 61 57 54 ?1 29 24 362 0 57 54 9
 .007995474 794059514991003e-33 .006483988 18 57 16 62 63 58 53 24 ?1 81 1 62 41
7 34 57 0 0 59 55 64 17 63 0 65 66 67 57 68 69 0 70 -15 255 65 60 0 71 72 0 17 6
6 0 65 71 63 23 73 74 0 75 -17 67 0 65 63 76 61 77 78 0 79 -17 68 0 80 81 70 61
 63 69 0 0 +16 69 22 82 ?68 83 84 85 0 0 1 17 70 0 80 68 60 57 86 87 0 73 -15 80
 21 0 70 88 0 17 60 0 80 70 81 58 89 90 0 91 -17 86 0 92 56 73 58 70 87 0 0 +16
 87 17 93 ?86 84 74 22 0 0 1 17 73 0 92 86 75 57 66 74 0 0 +15 92 14 0 75 19 0 1
7 75 0 92 73 56 23 94 21 0 95 -16 74 15 96 ?73 87 97 98 0 0 1 81 1 96 441 34 74
 0 0 93 99 100 16 97 12 99 ?101 74 21 102 0 0 1 30 98 387 0 74 103 22 0 +.007995
474 59811602712749e-32 .004883988 0 1224646799147e-28 1 30 103 368 0 84 104 98 0
 +.007995474 -9999999999999e-18 .006183988 0 1224646799147e-28 1 30 22 396 0 87
 98 8 0 +.007995474 79405951499092e-32 .006483988 0 -1 1224646799147e-28 16 84 1
9 105 ?91 69 87 103 0 0 1 30 104 225 0 1 29 103 106 +.007133531 -9999999999999e-
18 .005183988 0 1224646799147e-28 1 133 255 29 349 0 11 107 104 0 +104 .00713353
1 -9999999999999e-18 .005183988 .007133531 -999999999999888e-20 .006183988 0 .00
1 141 255 106 29 106 106 104 30 107 222 0 1 108 29 109 +.007995474 -999999999999
9e-18 .005183988 -1 0 0 133 108 347 0 110 111 107 0 +107 .007995474 -99999999999
99e-18 .005183988 .007133531 -9999999999999e-18 .005183988 0 861943e-9 141 109 1
08 109 109 107 16 110 54 112 ?40 28 113 108 0 0 1 30 111 216 0 1 114 108 115 +.0
07995474 -9999999999999e-18 .004883988 0 1224646799147e-28 1 133 114 345 0 116 1
17 111 0 +111 .007995474 -9999999999999e-18 .004883988 .007995474 -9999999999998
96e-20 .005183988 0 3e-4 141 115 114 115 115 111 16 116 47 118 ?119 120 121 114
 0 0 1 30 117 210 0 1 122 114 123 +.006811124 -9999999999999e-18 .004883988 1 0
 0 133 122 343 0 124 125 117 0 +117 .006811124 -9999999999999e-18 .004883988 .00
7995474 -9999999999999e-18 .004883988 0 .00118435 141 123 122 123 123 117 16 124
 40 126 ?127 128 129 122 0 0 1 30 125 204 0 1 130 122 131 +.006811124 -999999999
9999e-18 .006483988 0 -1224646799147e-28 -1 133 130 341 0 132 133 125 0 +125 .00
6811124 -9999999999999e-18 .006483988 .006811124 -99999999999992e-19 .004883988
 0 .0016 141 131 130 131 131 125 16 132 33 134 ?135 136 137 130 0 0 1 30 133 198
 0 1 138 130 139 +.007995474 -9999999999999e-18 .006483988 -1 0 0 133 138 339 0
 90 140 133 0 +133 .007995474 -9999999999999e-18 .006483988 .006811124 -99999999
99999e-18 .006483988 0 .00118435 141 139 138 139 139 133 16 90 26 141 ?89 78 83
 138 0 0 1 30 140 186 0 1 102 138 142 +.007133531 -9999999999999e-18 .006183988
 1 0 0 133 102 335 0 97 143 140 0 +140 .007133531 -9999999999999e-18 .006183988
 .007995474 -9999999999999e-18 .006183988 0 861943e-9 141 142 102 142 142 140 30
 143 195 0 1 85 102 144 +.007995474 794059514991e-30 .006483988 -1 0 0 133 85 32
9 0 69 145 143 0 +143 .007995474 794059514991e-30 .006483988 .006811124 79405951
4991e-30 .006483988 0 .00118435 141 144 85 144 144 143 30 145 201 0 1 146 85 147
 +.006811124 794059514991e-30 .006483988 0 -1224646799147e-28 -1 133 146 327 0 7
8 148 145 0 +145 .006811124 794059514991e-30 .006483988 .006811124 5981160271274
8e-32 .004883988 0 .0016 141 147 146 147 147 145 16 78 29 149 ?77 137 90 146 0 0
 1 30 148 207 0 1 150 146 151 +.006811124 5981160271274e-31 .004883988 1 0 0 133
 150 325 0 136 152 148 0 +148 .006811124 5981160271274e-31 .004883988 .007995474
 5981160271274e-31 .004883988 0 .00118435 141 151 150 151 151 148 16 136 36 153
 ?154 129 132 150 0 0 1 30 152 213 0 1 155 150 156 +.007995474 5981160271274e-31
 .004883988 0 1224646799147e-28 1 133 155 323 0 128 157 152 0 +152 .007995474 59
81160271274e-31 .004883988 .007995474 63485543110181e-32 .005183988 0 3e-4 141 1
56 155 156 156 152 16 128 43 158 ?159 121 124 155 0 0 1 30 157 219 0 1 160 155 1
61 +.007995474 6348554311018e-31 .005183988 -1 0 0 133 160 321 0 120 162 157 0 +
157 .007995474 6348554311018e-31 .005183988 .007133531 6348554311018e-31 .005183
988 0 861943e-9 141 161 160 161 161 157 16 120 50 163 ?164 113 116 160 0 0 1 30
 162 224 0 1 165 160 166 +.007133531 6348554311018e-31 .005183988 0 122464679914
7e-28 1 133 165 319 0 28 167 162 0 +162 .007133531 6348554311018e-31 .005183988
 .007133531 7573201110165e-31 .006183988 0 .001 141 166 165 166 166 162 16 28 57
 168 ?49 11 110 165 0 0 1 30 167 183 0 1 169 165 170 +.007133531 7573201110166e-
31 .006183988 1 0 0 133 169 317 0 171 172 167 0 +167 .007133531 7573201110166e-3
1 .006183988 .007995474 7573201110166e-31 .006183988 0 861943e-9 141 170 169 170
 170 167 16 171 8 173 ?95 21 174 169 0 0 1 30 172 181 0 1 175 169 176 +.00713353
1 7573201110166e-31 .006183988 0 -1 1224646799147e-28 133 175 313 0 174 177 172
 0 +172 .007133531 7573201110166e-31 .006183988 .007133531 -9999999999999e-18 .0
06183988 0 999999999999976e-20 141 176 175 176 176 172 16 174 5 178 ?39 171 0 17
5 0 0 1 30 177 221 0 1 179 175 180 +.007133531 6348554311018e-31 .005183988 0 -1
 1224646799147e-28 133 179 311 0 113 181 177 0 +177 .007133531 6348554311018e-31
 .005183988 .007133531 -9999999999999e-18 .005183988 0 999999999999963e-20 141 1
80 179 180 180 177 16 113 52 182 ?183 110 120 179 0 0 1 30 181 215 0 1 184 179 1
85 +.007995474 6348554311018e-31 .005183988 0 -1 1224646799147e-28 133 184 307 0
 121 186 181 0 +181 .007995474 6348554311018e-31 .005183988 .007995474 -99999999
99999e-18 .005183988 0 999999999999963e-20 141 185 184 185 185 181 16 121 45 187
 ?188 116 128 184 0 0 1 30 186 209 0 1 189 184 190 +.007995474 5981160271274e-31
 .004883988 0 -1 1224646799147e-28 133 189 303 0 129 191 186 0 +186 .007995474 5
981160271274e-31 .004883988 .007995474 -9999999999999e-18 .004883988 0 999999999
99996e-19 141 190 189 190 190 186 16 129 38 192 ?193 124 136 189 0 0 1 30 191 20
3 0 1 194 189 195 +.006811124 5981160271274e-31 .004883988 0 -1 1224646799147e-2
8 133 194 299 0 137 196 191 0 +191 .006811124 5981160271274e-31 .004883988 .0068
11124 -9999999999999e-18 .004883988 0 99999999999996e-19 141 195 194 195 195 191
 16 137 31 197 ?198 132 78 194 0 0 1 30 196 197 0 1 199 194 200 +.006811124 7940
59514991e-30 .006483988 0 -1 1224646799147e-28 133 199 295 0 83 0 196 0 +196 .00
6811124 794059514991e-30 .006483988 .006811124 -9999999999999e-18 .006483988 0 9
99999999999979e-20 141 200 199 200 200 196 16 83 24 201 ?81 90 69 199 0 0 1 81 1
 201 437 34 83 0 0 141 82 202 17 81 0 80 60 68 203 79 83 0 0 +18 203 25 204 205
 206 61 207 5e-7 1 17 79 0 208 77 205 61 81 83 0 68 -15 208 28 0 79 209 0 17 77
 0 208 198 79 206 67 78 0 0 +17 205 0 208 79 198 203 135 132 0 89 -18 61 23 210
 67 203 58 211 5e-7 1 81 1 210 415 34 61 0 0 204 59 212 29 211 194 0 61 0 207 .0
06811124 794059514991e-30 .006483988 29 207 196 0 203 211 213 .006811124 -999999
9999999e-18 .006483988 29 213 200 0 206 207 214 .006811124 5981160271274e-31 .00
4883988 18 206 30 215 76 216 203 213 5e-7 1 29 214 202 0 216 213 217 .006811124
 -9999999999999e-18 .004883988 18 216 32 218 219 220 206 214 5e-7 1 29 217 206 0
 220 214 221 .007995474 5981160271274e-31 .004883988 18 220 37 222 223 224 216 2
17 5e-7 1 29 221 208 0 224 217 225 .007995474 -9999999999999e-18 .004883988 18 2
24 39 226 227 228 220 221 5e-7 1 29 225 212 0 228 221 45 .007995474 634855431101
8e-31 .005183988 18 228 44 229 230 42 224 225 5e-7 1 29 45 214 0 42 225 43 .0079
95474 -9999999999999e-18 .005183988 18 42 46 231 232 32 228 45 5e-7 1 81 1 231 4
08 34 42 0 0 35 229 233 17 232 0 234 235 183 42 40 110 0 119 -15 234 49 0 235 23
6 0 17 235 0 234 164 232 228 188 121 0 159 -17 183 0 234 232 164 12 38 113 0 0 +
17 40 0 237 27 119 12 232 110 0 183 +17 119 0 237 40 127 42 227 116 0 188 +15 23
7 62 0 101 17 0 17 127 0 237 119 135 224 219 124 0 193 +17 227 0 238 239 188 224
 119 116 0 127 -17 188 0 238 227 159 42 235 121 0 0 +15 238 42 0 239 240 0 17 15
9 0 238 188 239 228 223 128 0 0 +17 239 0 238 159 227 220 193 129 0 154 -17 223
 0 65 76 230 220 159 128 0 239 -17 76 0 65 67 223 206 154 136 0 241 -17 230 0 65
 223 41 228 164 120 0 235 -17 41 0 65 230 71 32 49 28 0 38 -17 164 0 234 183 235
 32 230 120 0 0 +17 71 0 65 41 66 46 95 171 0 242 -17 49 0 37 39 38 46 41 28 0 7
1 +17 38 0 37 49 31 32 183 113 0 164 -15 37 56 0 38 243 0 14 255 243 55 244 ?236
 72 37 6 245 -0 0 236 72 25 81 1 244 448 34 243 0 0 246 247 248 14 236 48 247 ?2
40 243 234 6 249 -0 0 240 243 25 14 72 59 246 ?243 17 65 6 250 +0 0 243 17 25 50
 245 223 0 243 249 250 0 +.007133531 6348554311018e-31 .005183988 -1 0 0 0 12246
46799147e-28 1 13 25 2 0 0 0 0 0 0 10 17 14 17 61 251 ?72 0 237 6 20 -0 0 72 0 2
5 81 1 251 446 34 17 0 0 178 246 252 50 20 227 0 17 250 7 0 +.007133531 -9999999
999999e-18 .006183988 0 1 -1224646799147e-28 1 0 0 50 250 226 0 72 245 20 0 +.00
7133531 7573201110166e-31 .006183988 0 1 -1224646799147e-28 1 0 0 80 7 CCCCCDI12
 legal_owners0 17 1 lCZ1 34 253 254 9000 0 0 0 0 3 5 0 0 0 FFTFTFTTFFFFFFFFF2 81
 1 178 445 34 174 0 0 173 251 255 81 1 246 447 34 72 0 0 251 244 256 83 255 1 25
2 4776 83 1 256 4777 81 1 173 444 34 171 0 0 257 178 258 83 1 255 4775 81 1 257
 443 34 21 0 0 99 173 259 83 1 258 4774 16 21 10 257 ?94 97 171 8 0 0 1 81 1 99
 442 34 97 0 0 96 257 260 83 1 259 4773 83 1 260 4772 17 94 0 261 262 95 53 75 2
1 0 0 +15 261 4 0 242 263 0 17 262 0 261 242 94 50 101 97 0 39 -17 95 0 261 94 2
42 23 71 171 0 0 +17 242 0 261 95 262 46 39 174 0 0 -18 23 9 264 66 53 50 9 ?1 8
1 1 264 419 34 23 0 0 55 52 265 81 1 55 418 34 53 0 0 62 264 266 81 1 52 420 34
 50 0 0 264 48 267 83 1 265 4749 81 1 48 421 34 46 0 0 52 26 268 83 1 267 4750 8
1 1 26 422 34 11 0 0 48 168 269 83 1 268 4751 81 1 168 423 34 28 0 0 26 112 270
 83 1 269 4752 81 1 112 424 34 110 0 0 168 182 271 83 1 270 4753 81 1 182 425 34
 113 0 0 112 163 272 83 1 271 4754 81 1 163 426 34 120 0 0 182 118 273 83 1 272
 4755 81 1 118 427 34 116 0 0 163 187 274 83 1 273 4756 81 1 187 428 34 121 0 0
 118 158 275 83 1 274 4757 81 1 158 429 34 128 0 0 187 126 276 83 1 275 4758 81
 1 126 430 34 124 0 0 158 192 277 83 1 276 4759 81 1 192 431 34 129 0 0 126 153
 278 83 1 277 4760 81 1 153 432 34 136 0 0 192 134 279 83 1 278 4761 81 1 134 43
3 34 132 0 0 153 197 280 83 1 279 4762 81 1 197 434 34 137 0 0 134 149 281 83 1
 280 4763 81 1 149 435 34 78 0 0 197 141 282 83 1 281 4764 81 1 141 436 34 90 0
 0 149 201 283 83 1 282 4765 83 1 283 4766 83 1 266 4748 17 39 0 37 31 49 50 242
 174 0 0 +17 101 0 237 91 27 53 262 97 0 94 +17 91 0 237 89 101 58 56 84 0 86 +1
7 27 0 237 101 40 50 31 11 0 262 +17 89 0 237 135 91 203 60 90 0 81 +17 56 0 92
 75 86 53 91 84 0 101 -17 135 0 237 127 89 216 205 132 0 198 +17 198 0 208 205 7
7 216 241 137 0 0 +17 241 0 284 154 219 206 198 137 0 77 -15 284 35 0 241 285 0
 17 154 0 284 193 241 220 76 136 0 0 +17 219 0 284 241 193 216 127 124 0 135 -17
 193 0 284 219 154 224 239 129 0 0 +14 285 34 286 ?209 240 284 6 287 -0 0 209 24
0 25 81 1 286 451 34 285 0 0 288 289 290 14 209 27 289 ?88 285 208 6 291 -0 0 88
 285 25 14 240 41 288 ?285 236 238 6 7 -19 19 285 236 25 50 287 205 0 285 291 24
9 0 +.006811124 5981160271274e-31 .004883988 0 1224646799147e-28 1 1 0 0 50 291
 199 0 209 292 287 0 +.006811124 794059514991e-30 .006483988 1 0 0 0 -1224646799
147e-28 -1 50 249 217 0 236 287 245 0 +.007995474 6348554311018e-31 .005183988 0
 -1224646799147e-28 -1 -1 0 0 50 292 193 0 88 293 291 0 +.007995474 794059514991
e-30 .006483988 0 -1224646799147e-28 -1 -1 0 0 14 88 20 294 ?19 209 80 6 292 -0
 0 19 209 25 50 293 178 0 263 0 292 0 +.007133531 7573201110166e-31 .006183988 0
 1224646799147e-28 1 1 0 0 14 263 3 295 ?0 19 261 6 293 -0 0 0 19 25 81 1 295 45
5 34 263 0 0 296 297 298 14 19 13 296 ?263 88 92 6 7 -240 240 263 88 25 81 1 296
 454 34 19 0 0 294 295 299 81 1 294 453 34 88 0 0 289 296 300 83 1 299 4784 81 1
 289 452 34 209 0 0 286 294 301 83 1 300 4783 83 1 301 4782 81 1 297 456 34 1 30
2 303 295 0 304 83 1 298 4785 81 1 302 404 305 1 0 297 0 0 306 81 1 303 457 307
 1 297 308 0 0 309 83 1 304 4786 80 1 307 34 310 9000 0 0 0 0 3 5 0 0 0 FFTFTFTT
FFFFFFFFF2 81 1 308 510 311 1 303 14 0 0 312 83 1 309 17325 80 1 311 313 314 804
0 0 0 0 0 3 5 0 0 0 TTTFFFFFFFFFFFFFF2 81 1 14 511 315 1 308 2 0 0 316 83 3 312
 1 1 1 80 1 315 13 317 8038 0 0 0 0 0 0 0 0 0 TTTTTTTTTTTTTFTFT10 98 255 11 316
 72 67 45 48 52 80 97 100 48 48 57 79 255 14 317 SDL/TYSA_UNAME79 17 314 SDL/TYS
A_COLOUR_279 18 310 BTI/importMaxCount80 1 305 318 319 9000 0 0 0 0 3 5 0 0 0 TT
TFFFFFFFFFFFFFF1 82 255 1 306 7 79 23 319 ONSHAPE_ORIGINALBODY_ID81 1 288 450 34
 240 0 0 247 286 320 81 1 247 449 34 236 0 0 244 288 321 83 1 320 4780 83 1 321
 4779 83 1 290 4781 79 13 254 BTI/importTag83 1 248 4778 81 1 35 407 34 32 0 0 3
0 231 322 81 1 229 409 34 228 0 0 231 226 323 83 1 233 4738 81 1 226 410 34 224
 0 0 229 222 324 83 1 323 4739 81 1 222 411 34 220 0 0 226 218 325 83 1 324 4740
 81 1 218 412 34 216 0 0 222 215 326 83 1 325 4741 81 1 215 413 34 206 0 0 218 2
04 327 83 1 326 4742 81 1 204 414 34 203 0 0 215 210 328 83 1 327 4743 83 1 328
 4744 83 1 322 4737 81 1 59 416 34 58 0 0 210 62 329 83 1 212 4745 83 1 329 4746
 81 1 82 438 34 69 0 0 201 105 330 83 1 202 4767 81 1 105 439 34 84 0 0 82 93 33
1 83 1 330 4768 81 1 93 440 34 87 0 0 105 96 332 83 1 331 4769 83 1 332 4770 83
 1 100 4771 83 1 64 4747 83 1 36 4736 19 18 63 0 1 0 10 6 0 S0 74 4 CI16 index_m
ap_offset0 0 1 dCCZ20 16 6 0 0 302 297 303 308 14 2 0 0 0 0 0 0 0 0 0 0 0 0 0 0
 80 1 13 333 334 8017 0 0 0 0 0 0 0 0 0 TTTTTTTTTTTTTFTFT3 84 255 11 15 HC-04Pad
00979 13 334 SDL/TYSA_NAME1 0 
