**ABCDEFGHIJKLMNOPQRSTUVWXYZabcdefghijklmnopqrstuvwxyz**************************
**PARASOLID !"#$%&'()*+,-./:;<=>?@[\]^_`{|}~0123456789**************************
**PART1;
MC=unknown;
MC_MODEL=unknown;
MC_ID=unknown;
OS=unknown;
OS_RELEASE=unknown;
FRU=Parasolid 37.0.173;
APPL=Onshape;
SITE=unknown;
USER=unknown;
FORMAT=text;
GUISE=transmit;
KEY=BTGapi::writeModels_.xmt;
FILE=BTGapi::writeModels_.xmt;
DATE=2024-12-29T04:00:28 (UTC);
**PART2;
SCH=SCH_3700173_36001;
USFLD_SIZE=0;
**PART3;
**END_OF_HEADER*****************************************************************
T51 : TRANSMIT FILE created by modeller version 370017323 SCH_3700173_36001_1300
6231 0 12 36 CCCI7 lattice222 0 CCCI4 mesh1006 0 I8 polyline1008 0 CCCCCCCDI5 ow
ner1040 0 CCCI16 boundary_lattice222 0 CCCI13 boundary_mesh1006 0 I17 boundary_p
olyline1008 0 CCCA16 index_map_offset0 0 1 dA9 index_map82 0 A17 node_id_index_m
ap82 0 A20 schema_embedding_map82 0 A5 child12 0 A14 lowest_node_id0 0 1 dA16 me
sh_offset_data206 0 Z1 644 2 3 0 0 0 0 0 0 0 1e3 1e-8 0 4 5 1 0 1 2 6 0 7 8 9 0
 0 10 11 12 0 0 0 0 0 0 0 81 255 1 2 644 13 1 14 0 0 0 15 70 11 CI9 list_type0 0
 1 uI10 notransmit0 0 1 lCCCDCCDI12 finger_index0 0 1 dI12 finger_block1012 0 CZ
3 0 4 T1 0 0 7 20 1 16 16 13 255 6 76 0 1 0 17 0 0 18 0 50 255 7 479 0 19 20 0 0
 +.015435516392655 -.00125 .016274542259161 -1 0 0 0 -1 0 30 255 8 563 0 21 22 0
 0 +.0158364217448965 -.001 .015906224618084 -1 0 0 29 255 9 471 0 23 24 0 .0154
35516392655 -.0015 .017674149295256 19 9 CCCCCCI5 frame230 0 CA5 owner12 0 Z10 1
 0 1 18 0 25 0 V0 16 255 11 72 26 ?27 0 28 29 0 0 1 18 255 12 68 30 31 0 23 32 ?
1 81 1 30 584 33 12 0 0 0 34 35 17 255 31 0 36 37 38 12 39 40 0 27 -18 23 63 34
 41 12 42 9 ?1 29 32 468 0 12 43 44 .016237327097138 -.0015 .017674149295256 29
 43 467 0 45 46 32 .016237327097138 -.0015 .015906224618084 29 44 469 0 47 32 24
 .016237327097138 -.001 .017674149295256 18 47 56 48 49 42 50 44 ?1 29 24 470 0
 42 44 9 .015435516392655 -.001 .017674149295256 18 42 58 51 52 23 47 24 ?1 81 1
 51 586 33 42 0 0 34 48 53 17 52 0 54 55 56 42 57 58 0 59 -15 255 54 14 0 60 61
 0 17 55 0 54 60 52 47 62 63 0 0 -17 56 0 54 52 60 64 65 21 0 0 +17 57 0 66 67 5
9 64 52 58 0 68 +16 58 17 69 ?57 70 71 72 0 0 1 17 59 0 66 57 41 42 73 74 0 62 -
15 66 21 0 41 19 0 17 41 0 66 59 67 23 75 70 0 37 -17 73 0 76 77 62 23 59 74 0 0
 +16 74 62 78 ?73 28 63 79 0 0 1 17 62 0 76 73 80 42 55 63 0 0 +15 76 74 0 62 17
 0 17 80 0 76 62 77 47 27 11 0 55 -16 63 59 81 ?62 74 40 82 0 0 1 81 1 81 595 33
 63 0 0 78 83 84 16 40 27 83 ?39 63 70 85 0 0 1 30 82 482 0 63 86 79 0 +.0162373
27097138 -.001 .017674149295256 -1 0 0 30 86 244 0 70 0 82 0 +.015435516392655 -
.0015 .017305831654178 0 0 -1 30 79 488 0 74 82 87 0 +.015435516392655 -.00125 .
017674149295256 0 -1 0 30 87 493 0 28 79 29 0 +.0158364217448965 -.0015 .0176741
49295256 -1 0 0 16 28 69 88 ?37 11 74 87 0 0 1 30 29 496 0 11 87 85 0 +.01623732
7097138 -.00125 .017674149295256 0 -1 0 30 85 532 0 40 29 89 0 +.016237327097138
 -.0015 .016274542259161 0 0 -1 30 89 537 0 90 85 91 0 +.016237327097138 -.00125
 .015906224618084 0 -1 0 16 90 8 92 ?93 94 21 89 0 0 1 30 91 540 0 71 89 95 0 +.
016237327097138 -.001 .017305831654178 0 0 -1 16 71 15 96 ?60 58 97 91 0 0 1 30
 95 548 0 94 91 72 0 +.016237327097138 -.0015 .015906224618084 -1 0 0 16 94 10 9
8 ?99 97 90 95 0 0 1 30 72 554 0 58 95 22 0 +.015435516392655 -.001 .01627454225
9161 0 0 -1 30 22 557 0 97 72 8 0 +.015435516392655 -.00125 .015906224618084 0 -
1 0 16 97 12 100 ?67 71 94 22 0 0 1 81 1 100 600 33 97 0 0 96 98 101 17 67 0 66
 41 57 50 68 97 0 99 +18 50 11 102 75 47 45 103 ?1 17 68 0 104 65 99 64 67 97 0
 56 -17 99 0 104 68 93 50 38 94 0 0 +15 104 4 0 65 105 0 17 93 0 104 99 65 45 10
6 90 0 0 +17 38 0 36 31 75 45 99 94 0 93 -15 36 26 0 31 107 0 17 75 0 36 38 37 5
0 41 70 0 67 +18 45 9 108 39 50 64 43 ?1 81 1 108 589 33 45 0 0 102 109 110 17 3
9 0 111 106 27 45 31 40 0 38 +18 64 7 109 57 45 112 113 ?1 81 1 109 590 33 64 0
 0 108 114 115 18 112 6 114 60 64 0 46 ?1 29 113 465 0 64 103 46 .01543551639265
5 -.001 .015906224618084 29 103 464 0 50 0 113 .015435516392655 -.0015 .01590622
4618084 29 46 466 0 112 113 43 .016237327097138 -.001 .015906224618084 81 1 114
 591 33 112 0 0 109 26 116 17 60 0 54 56 55 112 49 71 0 106 +17 49 0 111 27 106
 47 60 71 0 80 -17 106 0 111 49 39 112 93 90 0 65 -15 111 31 0 49 117 0 17 65 0
 104 93 68 112 56 21 0 0 -16 21 5 118 ?56 90 0 8 0 0 1 81 1 118 603 33 21 0 0 92
 119 120 80 7 CCCCCDI12 legal_owners0 17 1 lCZ1 33 121 122 9000 0 0 0 0 3 5 0 0
 0 FFTFTFTTFFFFFFFFF2 81 1 92 602 33 90 0 0 98 118 123 81 1 119 604 33 17 0 124
 118 125 126 83 255 1 120 6024 14 255 17 73 124 ?117 0 76 6 127 -0 0 117 0 25 81
 1 124 642 128 17 119 0 129 0 130 81 1 125 605 33 117 0 0 119 131 132 83 1 126 6
025 14 117 30 125 ?107 17 111 6 20 -0 0 107 17 25 81 1 131 606 33 107 0 0 125 13
3 134 83 1 132 6026 14 107 25 131 ?19 117 36 6 135 +0 0 19 117 25 81 1 133 607 3
3 19 0 0 131 136 137 83 1 134 6027 14 19 20 133 ?61 107 66 6 7 +0 0 61 107 25 81
 1 136 608 33 61 0 0 133 138 139 83 1 137 6028 14 61 13 136 ?105 19 54 6 140 -0
 0 105 19 25 81 1 138 609 33 105 0 129 136 141 142 83 1 139 6029 14 105 3 129 ?0
 61 104 6 143 +0 0 0 61 25 81 1 129 641 128 105 138 0 0 124 144 81 1 141 610 33
 1 145 146 138 0 147 83 1 142 6030 81 1 145 582 148 1 0 141 0 0 149 81 1 146 611
 150 1 141 151 0 0 152 83 1 147 6031 80 1 150 33 153 9000 0 0 0 0 3 5 0 0 0 FFTF
TFTTFFFFFFFFF2 81 1 151 640 154 1 146 14 0 0 155 83 1 152 17325 80 1 154 128 156
 8040 0 0 0 0 3 5 0 0 0 TTTFFFFFFFFFFFFFF2 81 1 14 643 157 1 151 2 0 0 158 83 3
 155 .749019607843137 .749019607843137 .749019607843137 80 1 157 13 159 8038 0 0
 0 0 0 0 0 0 0 TTTTTTTTTTTTTFTFT10 98 255 13 158 72 67 45 48 52 83 99 97 108 101
 48 51 54 79 255 14 159 SDL/TYSA_UNAME79 17 156 SDL/TYSA_COLOUR_279 18 153 BTI/i
mportMaxCount80 1 148 160 161 9000 0 0 0 0 3 5 0 0 0 TTTFFFFFFFFFFFFFF1 82 255 1
 149 21 79 23 161 ONSHAPE_ORIGINALBODY_ID80 1 128 0 162 8001 0 0 0 0 3 5 0 0 0 F
FFFTFTFFFFFFFFFF2 83 3 144 .776470588235294 .776470588235294 .776470588235294 79
 15 162 SDL/TYSA_COLOUR50 143 210 0 105 0 140 0 +.016237327097138 -.00125 .01590
6224618084 0 0 -1 0 1 0 13 25 2 0 0 0 0 0 0 10 17 50 140 235 0 61 143 135 0 +.01
58364217448965 -.001 .017305831654178 0 -1 0 1 0 0 50 135 245 0 107 140 127 0 +.
0158364217448965 -.0015 .017305831654178 0 -1 0 1 0 0 50 127 267 0 17 135 20 0 +
.016237327097138 -.00125 .017674149295256 0 0 -1 0 1 0 50 20 478 0 117 127 7 0 +
.016237327097138 -.00125 .016274542259161 -1 0 0 0 -1 0 83 3 130 .77647058823529
4 .776470588235294 .776470588235294 81 1 98 601 33 94 0 0 100 92 163 83 1 123 60
23 83 1 163 6022 79 13 122 BTI/importTag17 27 0 111 39 49 12 80 11 0 77 +17 77 0
 76 80 73 12 37 28 0 0 -17 37 0 36 75 31 23 77 28 0 73 +81 1 26 592 33 11 0 0 11
4 88 164 83 1 116 6012 81 1 88 593 33 28 0 0 26 78 165 83 1 164 6013 81 1 78 594
 33 74 0 0 88 81 166 83 1 165 6014 83 1 166 6015 83 1 115 6011 81 1 102 588 33 5
0 0 0 48 108 167 83 1 110 6010 81 1 48 587 33 47 0 0 51 102 168 83 1 167 6009 83
 1 168 6008 16 70 24 169 ?75 40 58 86 0 0 1 81 1 169 597 33 70 0 0 83 69 170 81
 1 83 596 33 40 0 0 81 169 171 81 1 69 598 33 58 0 0 169 96 172 83 1 170 6018 81
 1 96 599 33 71 0 0 69 100 173 83 1 172 6019 83 1 173 6020 83 1 171 6017 83 1 10
1 6021 83 1 84 6016 81 1 34 585 33 23 0 0 30 51 174 83 1 53 6007 83 1 174 6006 8
3 1 35 6005 19 18 75 0 1 0 10 6 0 S0 74 4 CI16 index_map_offset0 0 1 dCCZ20 16 7
 0 0 145 141 146 151 124 14 2 0 0 0 0 0 0 0 0 0 0 0 0 0 80 1 13 175 176 8017 0 0
 0 0 0 0 0 0 0 TTTTTTTTTTTTTFTFT3 84 255 13 15 HC-04Scale03679 13 176 SDL/TYSA_N
AME1 0 
