**ABCDEFGHIJKLMNOPQRSTUVWXYZabcdefghijklmnopqrstuvwxyz**************************
**PARASOLID !"#$%&'()*+,-./:;<=>?@[\]^_`{|}~0123456789**************************
**PART1;
MC=unknown;
MC_MODEL=unknown;
MC_ID=unknown;
OS=unknown;
OS_RELEASE=unknown;
FRU=Parasolid 37.0.173;
APPL=Onshape;
SITE=unknown;
USER=unknown;
FORMAT=text;
GUISE=transmit;
KEY=BTGapi::writeModels_.xmt;
FILE=BTGapi::writeModels_.xmt;
DATE=2024-12-29T04:00:26 (UTC);
**PART2;
SCH=SCH_3700173_36001;
USFLD_SIZE=0;
**PART3;
**END_OF_HEADER*****************************************************************
T51 : TRANSMIT FILE created by modeller version 370017323 SCH_3700173_36001_1300
6231 0 12 36 CCCI7 lattice222 0 CCCI4 mesh1006 0 I8 polyline1008 0 CCCCCCCDI5 ow
ner1040 0 CCCI16 boundary_lattice222 0 CCCI13 boundary_mesh1006 0 I17 boundary_p
olyline1008 0 CCCA16 index_map_offset0 0 1 dA9 index_map82 0 A17 node_id_index_m
ap82 0 A20 schema_embedding_map82 0 A5 child12 0 A14 lowest_node_id0 0 1 dA16 me
sh_offset_data206 0 Z1 719 2 3 0 0 0 0 0 0 0 1e3 1e-8 0 4 5 1 0 3 2 6 0 7 8 9 0
 0 10 11 12 0 0 0 0 0 0 0 81 255 1 2 646 13 1 14 0 0 0 15 70 11 CI9 list_type0 0
 1 uI10 notransmit0 0 1 lCCCDCCDI12 finger_index0 0 1 dI12 finger_block1012 0 CZ
3 0 4 T1 0 0 5 20 1 16 16 13 255 6 2 0 1 0 17 0 0 10 17 50 255 7 185 0 17 0 0 0
 +.001554 0 61e-5 0 -1 0 1 0 0 31 255 8 573 0 1 18 0 19 +.001516504783175975 228
837752912424e-35 .000626710432560756 151478549738736e-31 1 -593290986476715e-31
 .534360584590174 -582427304502376e-31 -.845256627088157 392903545461253e-19 29
 255 9 253 0 12 20 0 .001514 0 5875e-7 19 9 CCCCCCI5 frame230 0 CA5 owner12 0 Z1
0 1 0 1 0 0 6 0 V0 16 255 11 74 21 ?22 0 23 18 0 0 1 18 255 12 73 24 22 0 25 9 5
e-7 1 81 1 24 574 26 12 0 0 0 27 28 17 255 22 0 0 0 0 12 29 11 0 30 +18 25 71 27
 31 12 32 20 5e-7 1 81 1 27 575 26 25 0 0 24 33 34 17 31 0 0 0 0 25 30 23 0 35 +
18 32 69 33 36 25 37 38 5e-7 1 29 20 251 0 25 38 9 .0014855 0 5955e-7 29 38 249
 0 32 39 20 .0014525 0 6135e-7 29 39 247 0 37 40 38 .001407 0 632e-6 18 37 67 41
 42 32 43 39 5e-7 1 29 40 245 0 43 44 39 .0013415 0 64e-5 18 43 65 45 46 37 47 4
0 5e-7 1 29 44 243 0 47 48 40 .001254 0 6235e-7 18 47 63 49 50 43 51 44 5e-7 1 2
9 48 241 0 51 52 44 .0011915 0 576e-6 18 51 61 53 54 47 55 48 5e-7 1 29 52 239 0
 55 56 48 .001154 0 5005e-7 18 55 59 57 58 51 59 52 5e-7 1 29 56 237 0 59 60 52
 .001142 0 401e-6 18 59 57 61 62 55 63 56 5e-7 1 29 60 235 0 63 64 56 .001155 0
 298e-6 18 63 55 65 66 59 67 60 5e-7 1 29 64 233 0 67 68 60 .001194 0 222e-6 18
 67 53 69 70 63 71 64 5e-7 1 29 68 231 0 71 72 64 .0012555 0 1755e-7 18 71 51 73
 74 67 75 68 5e-7 1 29 72 229 0 75 76 68 .001337 0 16e-5 18 75 49 77 78 71 79 72
 5e-7 1 29 76 227 0 79 80 72 .00141 0 17e-5 18 79 47 81 82 75 83 76 5e-7 1 29 80
 225 0 83 84 76 .001457 0 193e-6 18 83 45 85 86 79 87 80 5e-7 1 29 84 223 0 87 8
8 80 .0014905 0 2155e-7 18 87 43 89 90 83 91 84 5e-7 1 29 88 221 0 91 92 84 .001
5225 0 226e-6 18 91 41 93 94 87 95 88 5e-7 1 29 92 219 0 95 96 88 .001557 0 209e
-6 18 95 39 97 98 91 99 92 5e-7 1 29 96 217 0 99 100 92 .001612 0 1425e-7 18 99
 37 101 102 95 103 96 5e-7 1 29 100 215 0 103 104 96 .0015435 0 74e-6 18 103 35
 105 106 99 107 100 5e-7 1 29 104 213 0 107 108 100 .001467 0 3e-5 18 107 33 109
 110 103 111 104 5e-7 1 29 108 211 0 111 112 104 .0013855 0 65e-7 18 111 31 113
 114 107 115 108 5e-7 1 29 112 209 0 115 116 108 .0013025 0 -222044604925e-30 18
 115 29 117 118 111 119 112 5e-7 1 29 116 207 0 119 120 112 .001165 0 265e-7 18
 119 27 121 122 115 123 116 5e-7 1 29 120 205 0 123 124 116 .001052 0 105e-6 18
 123 25 125 126 119 127 120 5e-7 1 29 124 203 0 127 128 120 9755e-7 0 231e-6 18
 127 23 129 130 123 131 124 5e-7 1 29 128 201 0 131 132 124 9475e-7 0 401e-6 18
 131 21 133 134 127 135 128 5e-7 1 29 132 199 0 135 136 128 9725e-7 0 5595e-7 18
 135 19 137 138 131 139 132 5e-7 1 29 136 197 0 139 140 132 .0010455 0 686e-6 18
 139 17 141 142 135 143 136 5e-7 1 29 140 195 0 143 144 136 .0011655 0 7695e-7 1
8 143 15 145 146 139 147 140 5e-7 1 29 144 193 0 147 148 140 .00133 0 8e-4 18 14
7 13 149 150 143 151 144 5e-7 1 29 148 191 0 151 152 144 .0014845 0 768e-6 18 15
1 11 153 154 147 155 148 5e-7 1 29 152 189 0 155 156 148 .001604 0 6775e-7 18 15
5 9 157 158 151 159 152 5e-7 1 29 156 187 0 159 160 152 .0015375 0 5935e-7 18 15
9 7 161 29 155 162 156 5e-7 1 29 160 186 0 162 0 156 .001554 0 61e-5 18 162 6 16
3 164 159 0 160 5e-7 1 81 1 163 608 26 162 0 0 161 21 165 17 164 0 0 0 0 162 166
 167 0 168 +17 166 0 169 170 168 155 164 167 0 0 -16 167 8 171 ?164 172 173 174
 0 0 1 17 168 0 169 166 29 162 175 173 0 0 -15 255 169 4 0 168 17 0 17 29 0 169
 168 30 159 22 11 0 175 -17 175 0 0 0 0 159 168 173 0 0 +16 173 5 176 ?175 167 0
 177 0 0 1 81 1 176 643 26 173 0 0 171 178 179 133 255 177 448 0 173 180 181 0 +
181 .001554 0 61e-5 .0015375 0 5935e-7 -1166726188957796e-20 1166726188957804e-2
0 30 255 180 220 0 1 182 177 183 +.001557 0 209e-6 .637330529974671 0 -.77059054
9878602 30 181 449 0 1 177 184 185 +.00154575 0 60175e-8 -.70710678118655 0 -.70
7106781186545 133 184 452 0 172 181 186 0 +186 .0014845 601853107621011e-50 768e
-6 .001604 0 6775e-7 0 .399377386099324 141 255 185 177 185 185 181 16 172 10 18
7 ?158 188 167 184 0 0 1 31 186 453 0 1 184 189 190 +.001320667293587434 2267654
33132641e-34 .0004275220064497065 3696775413959595e-32 1 48813774803113e-30 .433
598300450611 -600155540125528e-31 .901106272226723 .000377844438602051 133 189 4
56 0 188 186 191 0 +191 .00133 0 8e-4 .0014845 0 768e-6 815473184317708e-48 .450
02571931873 141 190 184 190 190 186 16 188 12 192 ?154 193 172 189 0 0 1 31 191
 457 0 1 189 194 195 +.001337347091855096 211045280634854e-34 .00044650002161288
55 1241884798507064e-32 1 599597504279192e-31 -.02077936622831565 -5968874846756
78e-31 .999784085660074 .0003535763205849875 133 194 460 0 193 191 196 0 +196 .0
011655 3009265538105055e-51 7695e-7 .00133 3009265538105055e-51 8e-4 73632223947
1693e-48 .4036396488632645 141 195 189 195 195 191 16 193 14 197 ?150 198 188 19
4 0 0 1 31 196 461 0 1 194 199 200 +.001322283733970232 250345174062744e-34 .000
3827565823572735 -1116285715099864e-32 1 602062295521073e-31 -.375696592504528 -
599895323727801e-31 .926742720705421 .000417314761693886 133 199 464 0 198 196 2
01 0 +201 .0010455 0 686e-6 .0011655 0 7695e-7 800357282218402e-48 .441090216724
2905 141 200 194 200 200 196 16 198 16 202 ?146 203 193 199 0 0 1 31 201 465 0 1
 199 204 205 +.001291724425512548 1996439466429975e-35 .000460122083095739 -3497
37505981658e-31 1 502616775063462e-31 -.736897390041433 -597491913779686e-31 .67
6004612817194 .000334136650285468 133 204 468 0 203 201 206 0 +206 9725e-7 90277
9661431517e-50 5595e-7 .0010455 902779661431517e-50 686e-6 0 .40432285633708 141
 205 199 205 205 201 16 203 18 207 ?142 208 198 204 0 0 1 31 206 469 0 1 204 209
 210 +.001317594887873542 2181660711516975e-35 .00044466757458681 -5303508005673
94e-31 1 306052240643634e-31 -.948847484874201 -599853359673733e-31 .31573477864
8001 .0003636990068212015 133 209 472 0 208 206 211 0 +211 9475e-7 -120370621524
2022e-50 401e-6 9725e-7 -601853107621011e-50 5595e-7 1739616195862325e-33 .33105
7660340001 141 210 204 210 210 206 16 208 20 212 ?138 213 203 209 0 0 1 31 211 4
73 0 1 209 214 215 +.00143438783378778 2940698885769065e-35 .000405425420538205
 -604845839489041e-31 1 954015519698806e-32 -.999958695787611 -60395376890839e-3
0 -.00908882383703966 .00048690794513696 133 214 476 0 213 211 216 0 +216 9755e-
7 0 231e-6 9475e-7 0 401e-6 655634815844989e-48 .3572806564548255 141 215 209 21
5 215 211 16 213 22 217 ?134 218 208 214 0 0 1 31 216 477 0 1 214 219 220 +.0014
32244134868226 292131281517185e-34 .0003935343280959435 -604183089990129e-31 1 -
995125089395507e-32 -.942125839281427 -602579010366801e-31 -.335259456180235 .00
0484801621847663 133 219 480 0 218 216 221 0 +221 .001052 3009265538105055e-51 1
05e-6 9755e-7 3009265538105055e-51 231e-6 0 .397934943859678 141 220 214 220 220
 216 16 218 24 222 ?130 223 213 219 0 0 1 31 221 481 0 1 219 224 225 +.001326195
284846922 223818850405889e-34 .0003576989229427745 -523406397233705e-31 1 -31778
24554633205e-32 -.735343766426758 -600242985748849e-31 -.677694285926413 .000372
8804096338715 133 224 484 0 223 221 226 0 +226 .001165 -3009265538105055e-51 265
e-7 .001052 0 105e-6 826926203849858e-31 .422909457541168 141 225 219 225 225 22
1 16 223 26 227 ?126 228 218 224 0 0 1 31 226 485 0 1 224 229 230 +.001291344112
984926 1962374205384565e-35 .000328952353723525 -3493500964276265e-32 1 -5028861
26067793e-31 -.385453046971458 -598684892309874e-31 -.922727450865324 .000327780
812676472 133 229 488 0 228 226 231 0 +231 .0013025 3009265538105055e-51 0 .0011
65 0 265e-7 717642364621658e-48 .3928294768836895 141 230 224 230 230 226 16 228
 28 232 ?122 233 223 229 0 0 1 31 231 489 0 1 229 234 235 +.001300339558314274 2
154583365914015e-35 .000358761859177838 -115878947973079e-31 1 -601258692313148e
-31 .00602182885019366 -600549987473856e-31 -.999981868624276 .00035876836414184
6 133 234 492 0 233 231 236 0 +236 .0013855 601853107621011e-50 65e-7 .0013025 6
01853107621011e-50 1084202172485504e-34 0 .1536916980825445 141 235 229 235 235
 231 16 233 30 237 ?118 238 228 234 0 0 1 31 236 493 0 1 234 239 240 +.001301790
822420068 3310397698878175e-35 .000542228729097603 478066630899568e-32 1 -610454
313302534e-31 .154379695305811 -61051631716949e-30 -.988011593898212 .0005422291
92861876 133 239 496 0 241 236 242 0 +242 .0015435 0 74e-6 .001467 0 3e-5 452782
266504429e-48 .2439345495611365 141 240 234 240 240 236 16 241 34 243 ?110 244 2
38 239 0 0 1 31 242 497 0 1 239 245 246 +.001325769062085044 2204278434779335e-3
5 .0003640520852385025 305290711227942e-31 1 -530789532021311e-31 .6003385347193
56 -607774576420455e-31 -.799745987005259 .000362680263422935 133 245 500 0 244
 242 247 0 +247 .001612 902779661431517e-50 1425e-7 .0015435 3009265538105055e-5
1 74e-6 0 .2622849903630865 141 246 239 246 246 242 16 244 36 248 ?106 249 241 2
45 0 0 1 31 247 501 0 1 245 250 251 +.00131808263143157 224860530418565e-34 .000
367917368568429 432978028117747e-31 1 -4329780281177465e-32 .793501124960093 -60
7065464403522e-31 -.608568783858543 .0003704057364546405 133 250 504 0 252 247 2
53 0 +253 .0015225 -601853107621011e-50 226e-6 .001557 -1128474576789396e-51 209
e-6 1602122483634105e-48 1.02478427076331 141 251 245 251 251 247 16 252 40 254
 ?98 255 249 250 0 0 1 31 253 505 0 1 250 256 257 +.001524638983490175 209337196
5220615e-36 .000186833525318297 2706505964192805e-32 1 549261504497951e-31 -.054
531351774274 -533685292823362e-31 .998512058852406 3922483893356005e-20 133 256
 508 0 255 253 258 0 +258 .0014905 -752316384526264e-51 2155e-7 .0015225 -300926
5538105055e-51 226e-6 0 .640121749237345 141 257 250 257 257 253 16 255 42 259 ?
94 260 252 256 0 0 1 31 258 509 0 1 256 261 262 +.001522339160229905 31108430696
473e-34 .0001724782735850445 -190904322173388e-31 1 581803648528422e-31 -.594880
221488821 -581227331665128e-31 .803814357971672 535219680866556e-19 133 261 512
 0 260 258 263 0 +263 .001457 0 193e-6 .0014905 0 2155e-7 -2017733877398095e-20
 2017733877398095e-20 141 262 256 262 262 258 16 260 44 264 ?90 265 255 261 0 0
 1 30 263 513 0 1 261 266 267 +.00147375 0 20425e-8 .830139206543892 0 .55755618
3499634 133 266 516 0 265 263 268 0 +268 .00141 -601853107621011e-50 17e-5 .0014
57 -3009265538105055e-51 193e-6 0 .2198487267711 141 267 261 267 267 263 16 265
 46 269 ?86 270 260 266 0 0 1 31 268 517 0 1 266 271 272 +.00132930432651345 145
1507980913432e-35 .000394421593646427 -269148503965085e-31 -1 549999116798219e-3
1 .338362720212524 -608627659466681e-31 -.941015764783131 .000238488665169332 13
3 271 520 0 270 268 273 0 +273 .001337 0 16e-5 .00141 150463276905253e-50 17e-5
 610149463468474e-48 .3315036401258735 141 272 266 272 272 268 16 270 48 274 ?82
 275 265 271 0 0 1 31 273 521 0 1 271 276 277 +.001343611179062414 1348495681851
162e-35 .0003831883928443775 -831038100393425e-32 -1 606657813287202e-31 -.02960
853137441525 -603931255339105e-31 -.999561571325074 .0002232862879557355 133 276
 524 0 275 273 278 0 +278 .0012555 0 1755e-7 .001337 150463276905253e-50 16e-5 6
61941951996019e-31 .4080276516710195 141 277 271 277 277 273 16 275 50 279 ?78 2
80 270 276 0 0 1 31 278 525 0 1 276 281 282 +.001333709117572638 122766481860161
2e-35 .0003647124569141925 1144035350248054e-32 -1 601541168033654e-31 -.3819944
085242835 -599624584451092e-31 -.92416463460586 .0002047389067153475 133 281 528
 0 280 278 283 0 +283 .001194 -3009265538105055e-51 222e-6 .0012555 -30092655381
05055e-51 1755e-7 834547376255e-45 .461356534916843 141 282 276 282 282 278 16 2
80 52 284 ?74 285 275 281 0 0 1 31 283 529 0 1 281 286 287 +.00132374559777805 1
005081898224234e-35 .000329679661577421 3692973091804825e-32 -1 488425473432252e
-31 -.769508002543971 -596103896502668e-31 -.638637169307259 .000168608510046828
 133 286 532 0 285 283 288 0 +288 .001155 451389830715758e-50 298e-6 .001194 451
389830715758e-50 222e-6 0 .397925497739807 141 287 281 287 287 283 16 285 54 289
 ?70 290 280 286 0 0 1 31 288 533 0 1 286 291 292 +.001362963654707786 129708084
4511072e-35 .0003567116122842585 544781404760378e-31 -1 279558878758615e-31 -.96
2382911094082 -600243557374934e-31 -.2716967655937055 .0002160924225798675 133 2
91 536 0 290 288 293 0 +293 .001142 601853107621011e-50 401e-6 .001155 601853107
621011e-50 298e-6 225261708374069e-32 .2769780065345575 141 292 286 292 292 288
 16 290 56 294 ?66 295 285 291 0 0 1 31 293 537 0 1 291 296 297 +.00151799024142
9425 2280424476404495e-35 .0003961346906658495 607503789223908e-31 -1 7667523553
31144e-32 -.999916288863588 -60646084079501e-30 .01293890510318 .000376021718634
8065 133 296 540 0 295 293 298 0 +298 .001154 0 5005e-7 .001142 0 401e-6 1785577
896290465e-31 .264860648484044 141 297 291 297 297 293 16 295 58 299 ?62 300 290
 296 0 0 1 31 298 541 0 1 296 301 302 +.001521470537382205 230341864933696e-34 .
0004057083271498855 607918248096338e-31 -1 -733167736397585e-32 -.96830245980185
9 -606961842436531e-31 .2497805964074655 .0003794997458308635 133 301 544 0 300
 298 303 0 +303 .0011915 -150463276905253e-50 576e-6 .001154 0 5005e-7 740819692
893501e-48 .4062497713551725 141 302 296 302 302 298 16 300 60 304 ?58 305 295 3
01 0 0 1 31 303 545 0 1 301 306 307 +.001356033211934186 125309636917805e-34 .00
0447215292085669 548403133344576e-31 -1 -2723856622572415e-32 -.787459504108624
 -599734627357774e-31 .616366392163784 .000208941807262116 133 306 548 0 305 303
 308 0 +308 .001254 752316384526264e-50 6235e-7 .0011915 902779661431517e-50 576
e-6 4132538749549885e-32 .483439996072844 141 307 301 307 307 303 16 305 62 309
 ?54 310 300 306 0 0 1 31 308 549 0 1 306 311 312 +.001319083066822102 974857414
390428e-35 .000472995964707761 370506643401298e-31 -1 -487508741317495e-31 -.396
912387608008 -594521744005572e-31 .91785650107373 .000163973382676024 133 311 55
2 0 310 308 313 0 +313 .0013415 0 64e-5 .001254 -150463276905253e-50 6235e-7 754
855231080263e-48 .414414367642287 141 312 306 312 312 308 16 310 64 314 ?50 315
 305 311 0 0 1 31 313 553 0 1 311 316 317 +.001336993764424342 129677039511312e-
34 .0004236391280527275 1134669248806212e-32 -1 -601718541033596e-31 .0208228895
2572475 -599225367256424e-31 .999783180130472 .0002164077934568145 133 316 556 0
 315 313 318 0 +318 .001407 601853107621011e-50 632e-6 .0013415 902779661431517e
-50 64e-5 529832888711576e-48 .286527286652692 141 317 311 317 317 313 16 315 66
 319 ?46 320 310 316 0 0 1 31 318 557 0 1 316 321 322 +.001346520728095238 14005
09359921312e-35 .0004089665862797635 -742359315749126e-32 -1 -607806689769592e-3
1 .261715372377476 -606050332793585e-31 .965145099900175 .000231087961533768 133
 321 560 0 320 318 323 0 +323 .0014525 902779661431517e-50 6135e-7 .001407 90277
9661431517e-50 632e-6 0 .209276483899807 141 322 316 322 322 318 16 320 68 324 ?
42 325 315 321 0 0 1 31 323 561 0 1 321 326 327 +.001341673067088026 14318745548
80982e-35 .0004061283541894705 -230631659231777e-31 -1 -567229215948422e-31 .471
345393789063 -608974243167924e-31 .881948705851896 .0002351289189888025 133 326
 564 0 325 323 328 0 +328 .0014855 0 5955e-7 .0014525 0 6135e-7 -187949461292127
e-19 187949461292125e-19 141 327 321 327 327 323 16 325 70 329 ?36 23 320 326 0
 0 1 30 328 565 0 1 326 330 331 +.001469 0 6045e-7 -.877895572914386 0 .47885213
068057 133 330 568 0 23 328 332 0 +332 .001514 1128474576789396e-51 5875e-7 .001
4855 -376158192263132e-51 5955e-7 185739906656626e-32 .525307870001187 141 331 3
26 331 331 328 16 23 72 333 ?31 11 325 330 0 0 1 31 332 569 0 1 330 18 334 +.001
51462733802074 337077772301458e-35 .000644500516698881 -1654843115598205e-32 1 -
589537859931859e-31 -.01100516392349046 -591323340290322e-31 -.999939441349833 5
70039687822847e-19 133 18 572 0 11 332 8 0 +8 .0015375 -489005649942072e-50 5935
e-7 .001514 -225694915357879e-50 5875e-7 1465963875324014e-30 .627544939487328 1
41 334 330 334 334 332 81 1 333 610 26 23 0 0 21 329 335 80 7 CCCCCDI12 legal_ow
ners0 17 1 lCZ1 26 336 337 9000 0 0 0 0 3 5 0 0 0 FFTFTFTTFFFFFFFFF2 81 1 21 609
 26 11 0 0 163 333 338 81 1 329 611 26 325 0 0 333 324 339 83 255 1 335 6946 81
 1 324 612 26 320 0 0 329 319 340 83 1 339 6947 81 1 319 613 26 315 0 0 324 314
 341 83 1 340 6948 81 1 314 614 26 310 0 0 319 309 342 83 1 341 6949 81 1 309 61
5 26 305 0 0 314 304 343 83 1 342 6950 81 1 304 616 26 300 0 0 309 299 344 83 1
 343 6951 81 1 299 617 26 295 0 0 304 294 345 83 1 344 6952 81 1 294 618 26 290
 0 0 299 289 346 83 1 345 6953 81 1 289 619 26 285 0 0 294 284 347 83 1 346 6954
 81 1 284 620 26 280 0 0 289 279 348 83 1 347 6955 81 1 279 621 26 275 0 0 284 2
74 349 83 1 348 6956 81 1 274 622 26 270 0 0 279 269 350 83 1 349 6957 81 1 269
 623 26 265 0 0 274 264 351 83 1 350 6958 81 1 264 624 26 260 0 0 269 259 352 83
 1 351 6959 81 1 259 625 26 255 0 0 264 254 353 83 1 352 6960 81 1 254 626 26 25
2 0 0 259 354 355 83 1 353 6961 81 1 354 627 26 249 0 0 254 248 356 83 1 355 696
2 16 249 38 354 ?102 252 244 182 0 0 1 81 1 248 628 26 244 0 0 354 243 357 83 1
 356 6963 81 1 243 629 26 241 0 0 248 358 359 83 1 357 6964 81 1 358 630 26 238
 0 0 243 237 360 83 1 359 6965 16 238 32 358 ?114 241 233 361 0 0 1 81 1 237 631
 26 233 0 0 358 232 362 83 1 360 6966 81 1 232 632 26 228 0 0 237 227 363 83 1 3
62 6967 81 1 227 633 26 223 0 0 232 222 364 83 1 363 6968 81 1 222 634 26 218 0
 0 227 217 365 83 1 364 6969 81 1 217 635 26 213 0 0 222 212 366 83 1 365 6970 8
1 1 212 636 26 208 0 0 217 207 367 83 1 366 6971 81 1 207 637 26 203 0 0 212 202
 368 83 1 367 6972 81 1 202 638 26 198 0 0 207 197 369 83 1 368 6973 81 1 197 63
9 26 193 0 0 202 192 370 83 1 369 6974 81 1 192 640 26 188 0 0 197 187 371 83 1
 370 6975 81 1 187 641 26 172 0 0 192 171 372 83 1 371 6976 81 1 171 642 26 167
 0 0 187 176 373 83 1 372 6977 83 1 373 6978 17 114 0 0 0 0 111 374 238 0 375 +1
33 361 359 0 238 376 377 0 +377 .001467 0 2999999999999825e-20 .0013855 0 649999
999999897e-20 6.05187727771272 6.2831853071796 30 376 190 0 1 174 361 378 +.0016
04 0 6775e-7 -.595227550625785 0 -.80355719334471 31 377 214 0 1 361 182 379 +.0
0132510725540217 0 .000369021646158447 0 1 0 .164326104060777 0 -.98640606827219
3 .000367517656084017 133 182 365 0 249 377 180 0 +180 .001557 0 209e-6 .001612
 0 .000142499999999995 0 86297450715534e-18 141 379 361 379 379 377 133 174 335
 0 167 0 376 0 +376 .001604 0 6775e-7 .001554 0 61e-5 0 840014880820573e-19 141
 378 174 378 378 376 17 374 0 169 380 375 107 114 238 0 0 -17 375 0 169 374 381
 111 118 233 0 0 -17 381 0 169 375 382 115 122 228 0 0 -17 118 0 0 0 0 115 375 2
33 0 381 +17 382 0 169 381 383 119 126 223 0 0 -17 122 0 0 0 0 119 381 228 0 382
 +17 383 0 169 382 384 123 130 218 0 0 -17 126 0 0 0 0 123 382 223 0 383 +17 384
 0 169 383 385 127 134 213 0 0 -17 130 0 0 0 0 127 383 218 0 384 +17 385 0 169 3
84 386 131 138 208 0 0 -17 134 0 0 0 0 131 384 213 0 385 +17 386 0 169 385 387 1
35 142 203 0 0 -17 138 0 0 0 0 135 385 208 0 386 +17 387 0 169 386 388 139 146 1
98 0 0 -17 142 0 0 0 0 139 386 203 0 387 +17 388 0 169 387 389 143 150 193 0 0 -
17 146 0 0 0 0 143 387 198 0 388 +17 389 0 169 388 170 147 154 188 0 0 -17 150 0
 0 0 0 147 388 193 0 389 +17 170 0 169 389 166 151 158 172 0 0 -17 154 0 0 0 0 1
51 389 188 0 170 +17 158 0 0 0 0 155 170 172 0 166 +17 380 0 169 390 374 103 110
 241 0 0 -17 390 0 169 391 380 99 106 244 0 0 -17 110 0 0 0 0 107 380 241 0 374
 +17 391 0 169 392 390 95 102 249 0 0 -17 106 0 0 0 0 103 390 244 0 380 +17 392
 0 169 393 391 91 98 252 0 0 -17 102 0 0 0 0 99 391 249 0 390 +17 393 0 169 394
 392 87 94 255 0 0 -17 98 0 0 0 0 95 392 252 0 391 +17 394 0 169 395 393 83 90 2
60 0 0 -17 94 0 0 0 0 91 393 255 0 392 +17 395 0 169 396 394 79 86 265 0 0 -17 9
0 0 0 0 0 87 394 260 0 393 +17 396 0 169 397 395 75 82 270 0 0 -17 86 0 0 0 0 83
 395 265 0 394 +17 397 0 169 398 396 71 78 275 0 0 -17 82 0 0 0 0 79 396 270 0 3
95 +17 398 0 169 399 397 67 74 280 0 0 -17 78 0 0 0 0 75 397 275 0 396 +17 399 0
 169 400 398 63 70 285 0 0 -17 74 0 0 0 0 71 398 280 0 397 +17 400 0 169 401 399
 59 66 290 0 0 -17 70 0 0 0 0 67 399 285 0 398 +17 401 0 169 402 400 55 62 295 0
 0 -17 66 0 0 0 0 63 400 290 0 399 +17 402 0 169 403 401 51 58 300 0 0 -17 62 0
 0 0 0 59 401 295 0 400 +17 403 0 169 404 402 47 54 305 0 0 -17 58 0 0 0 0 55 40
2 300 0 401 +17 404 0 169 405 403 43 50 310 0 0 -17 54 0 0 0 0 51 403 305 0 402
 +17 405 0 169 406 404 37 46 315 0 0 -17 50 0 0 0 0 47 404 310 0 403 +17 406 0 1
69 35 405 32 42 320 0 0 -17 46 0 0 0 0 43 405 315 0 404 +17 35 0 169 30 406 25 3
6 325 0 0 -17 42 0 0 0 0 37 406 320 0 405 +17 30 0 169 29 35 12 31 23 0 0 -17 36
 0 0 0 0 32 35 325 0 406 +83 1 338 6945 79 255 13 337 BTI/importTag141 183 182 1
83 183 180 81 1 178 644 26 17 0 0 176 14 407 83 1 179 6979 14 255 17 3 178 ?0 0
 169 6 7 +0 0 0 0 6 81 1 14 645 26 1 408 2 178 0 409 83 1 407 6980 81 1 408 444
 410 1 411 14 0 0 412 83 1 409 6981 80 1 410 413 414 9000 0 0 0 0 3 5 0 0 0 TTTF
FFFFFFFFFFFFF1 81 1 411 332 415 1 416 408 0 0 417 82 255 1 412 37 80 1 415 418 4
19 8038 0 0 0 0 0 0 0 0 0 TTTTTTTTTTTTTFTFT10 81 1 416 331 418 1 0 411 0 0 420 9
8 255 19 417 72 67 45 48 52 83 104 97 112 101 83 116 114 105 110 103 48 48 50 80
 1 418 421 422 8017 0 0 0 0 0 0 0 0 0 TTTTTTTTTTTTTFTFT3 84 255 19 420 HC-04Shap
eString00279 13 422 SDL/TYSA_NAME79 14 419 SDL/TYSA_UNAME79 23 414 ONSHAPE_ORIGI
NALBODY_ID81 1 161 607 26 159 0 0 157 163 423 83 1 165 6944 81 1 157 606 26 155
 0 0 153 161 424 83 1 423 6943 81 1 153 605 26 151 0 0 149 157 425 83 1 424 6942
 81 1 149 604 26 147 0 0 145 153 426 83 1 425 6941 81 1 145 603 26 143 0 0 141 1
49 427 83 1 426 6940 81 1 141 602 26 139 0 0 137 145 428 83 1 427 6939 81 1 137
 601 26 135 0 0 133 141 429 83 1 428 6938 81 1 133 600 26 131 0 0 129 137 430 83
 1 429 6937 81 1 129 599 26 127 0 0 125 133 431 83 1 430 6936 81 1 125 598 26 12
3 0 0 121 129 432 83 1 431 6935 81 1 121 597 26 119 0 0 117 125 433 83 1 432 693
4 81 1 117 596 26 115 0 0 113 121 434 83 1 433 6933 81 1 113 595 26 111 0 0 109
 117 435 83 1 434 6932 81 1 109 594 26 107 0 0 105 113 436 83 1 435 6931 81 1 10
5 593 26 103 0 0 101 109 437 83 1 436 6930 81 1 101 592 26 99 0 0 97 105 438 83
 1 437 6929 81 1 97 591 26 95 0 0 93 101 439 83 1 438 6928 81 1 93 590 26 91 0 0
 89 97 440 83 1 439 6927 81 1 89 589 26 87 0 0 85 93 441 83 1 440 6926 81 1 85 5
88 26 83 0 0 81 89 442 83 1 441 6925 81 1 81 587 26 79 0 0 77 85 443 83 1 442 69
24 81 1 77 586 26 75 0 0 73 81 444 83 1 443 6923 81 1 73 585 26 71 0 0 69 77 445
 83 1 444 6922 81 1 69 584 26 67 0 0 65 73 446 83 1 445 6921 81 1 65 583 26 63 0
 0 61 69 447 83 1 446 6920 81 1 61 582 26 59 0 0 57 65 448 83 1 447 6919 81 1 57
 581 26 55 0 0 53 61 449 83 1 448 6918 81 1 53 580 26 51 0 0 49 57 450 83 1 449
 6917 81 1 49 579 26 47 0 0 45 53 451 83 1 450 6916 81 1 45 578 26 43 0 0 41 49
 452 83 1 451 6915 81 1 41 577 26 37 0 0 33 45 453 83 1 452 6914 81 1 33 576 26
 32 0 0 27 41 454 83 1 453 6913 83 1 454 6912 83 1 34 6911 83 1 28 6910 141 19 1
8 19 19 8 74 4 CI16 index_map_offset0 0 1 dCCZ20 16 5 0 0 416 411 408 14 2 0 0 0
 0 0 0 0 0 0 0 0 0 0 0 0 80 1 13 26 455 9000 0 0 0 0 3 5 0 0 0 FFTFTFTTFFFFFFFFF
2 83 1 15 17325 79 18 455 BTI/importMaxCount1 0 
