**ABCDEFGHIJKLMNOPQRSTUVWXYZabcdefghijklmnopqrstuvwxyz**************************
**PARASOLID !"#$%&'()*+,-./:;<=>?@[\]^_`{|}~0123456789**************************
**PART1;
MC=unknown;
MC_MODEL=unknown;
MC_ID=unknown;
OS=unknown;
OS_RELEASE=unknown;
FRU=Parasolid 37.0.173;
APPL=Onshape;
SITE=unknown;
USER=unknown;
FORMAT=text;
GUISE=transmit;
KEY=BTGapi::writeModels_.xmt;
FILE=BTGapi::writeModels_.xmt;
DATE=2024-12-29T04:00:25 (UTC);
**PART2;
SCH=SCH_3700173_36001;
USFLD_SIZE=0;
**PART3;
**END_OF_HEADER*****************************************************************
T51 : TRANSMIT FILE created by modeller version 370017323 SCH_3700173_36001_1300
6231 0 12 36 CCCI7 lattice222 0 CCCI4 mesh1006 0 I8 polyline1008 0 CCCCCCCDI5 ow
ner1040 0 CCCI16 boundary_lattice222 0 CCCI13 boundary_mesh1006 0 I17 boundary_p
olyline1008 0 CCCA16 index_map_offset0 0 1 dA9 index_map82 0 A17 node_id_index_m
ap82 0 A20 schema_embedding_map82 0 A5 child12 0 A14 lowest_node_id0 0 1 dA16 me
sh_offset_data206 0 Z1 459 2 3 0 0 0 0 0 0 0 1e3 1e-8 0 4 5 1 0 3 2 6 0 7 8 9 0
 0 10 11 12 0 0 0 0 0 0 0 81 255 1 2 408 13 1 14 0 0 0 15 70 11 CI9 list_type0 0
 1 uI10 notransmit0 0 1 lCCCDCCDI12 finger_index0 0 1 dI12 finger_block1012 0 CZ
3 0 4 T1 0 0 5 20 1 16 16 13 255 6 2 0 1 0 17 0 0 10 17 50 255 7 130 0 17 0 0 0
 +.0047315 0 .001152 0 1 0 -1 0 0 31 255 8 357 0 1 18 0 19 +.00476966491840916 4
57424015190528e-35 .000556218997704146 -99058634539471e-31 -1 604257670690774e-3
1 -.04148825729839135 -599627629634338e-31 -.999138991585426 762846794550598e-19
 29 255 9 176 0 12 20 0 .0047665 0 48e-5 19 9 CCCCCCI5 frame230 0 CA5 owner12 0
 Z10 1 0 1 0 0 6 0 V0 16 255 11 52 21 ?22 0 23 24 0 0 1 18 255 12 51 25 22 0 26
 9 5e-7 1 81 1 25 358 27 12 0 0 0 28 29 17 255 22 0 0 0 0 12 30 11 0 31 +18 26 4
9 28 32 12 33 20 5e-7 1 81 1 28 359 27 26 0 0 25 34 35 17 32 0 0 0 0 26 31 23 0
 36 +18 33 47 34 37 26 38 39 5e-7 1 29 20 174 0 26 39 9 .004797 0 485e-6 29 39 1
72 0 33 40 20 .0048195 0 507e-6 29 40 170 0 38 41 39 .0050155 0 765e-6 18 38 45
 42 43 33 44 40 5e-7 1 29 41 168 0 44 45 40 .005043 0 791e-6 18 44 43 46 47 38 4
8 41 5e-7 1 29 45 166 0 48 49 41 .0050815 0 8e-4 18 48 41 50 51 44 52 45 5e-7 1
 29 49 164 0 52 53 45 .005255 0 8e-4 18 52 39 54 55 48 56 49 5e-7 1 29 53 162 0
 56 57 49 .00501 0 4895e-7 18 56 37 58 59 52 60 53 5e-7 1 29 57 160 0 60 61 53 .
0049535 0 4335e-7 18 60 35 62 63 56 64 57 5e-7 1 29 61 158 0 64 65 57 .004982 0
 407e-6 18 64 33 66 67 60 68 61 5e-7 1 29 65 156 0 68 69 61 .0050065 0 375e-6 18
 68 31 70 71 64 72 65 5e-7 1 29 69 154 0 72 73 65 .005269 0 0 18 72 29 74 75 68
 76 69 5e-7 1 29 73 152 0 76 77 69 .0050975 0 0 18 76 27 78 79 72 80 73 5e-7 1 2
9 77 150 0 80 81 73 .005059 0 7e-6 18 80 25 82 83 76 84 77 5e-7 1 29 81 148 0 84
 85 77 .0050325 0 33e-6 18 84 23 86 87 80 88 81 5e-7 1 29 85 146 0 88 89 81 .004
831 0 3245e-7 18 88 21 90 91 84 92 85 5e-7 1 29 89 144 0 92 93 85 .004809 0 3465
e-7 18 92 19 94 95 88 96 89 5e-7 1 29 93 142 0 96 97 89 .0047745 0 352e-6 18 96
 17 98 99 92 100 93 5e-7 1 29 97 140 0 100 101 93 .0047315 0 352e-6 18 100 15 10
2 103 96 104 97 5e-7 1 29 101 138 0 104 105 97 .0047315 0 0 18 104 13 106 107 10
0 108 101 5e-7 1 29 105 136 0 108 109 101 .0045415 0 0 18 108 11 110 111 104 112
 105 5e-7 1 29 109 134 0 112 113 105 .0045415 0 .001152 18 112 9 114 115 108 116
 109 5e-7 1 29 113 132 0 116 117 109 .0047315 0 48e-5 18 116 7 118 30 112 119 11
3 5e-7 1 29 117 131 0 119 0 113 .0047315 0 .001152 18 119 6 120 121 116 0 117 5e
-7 1 81 1 120 381 27 119 0 0 118 21 122 17 121 0 0 0 0 119 123 124 0 125 +17 123
 0 126 127 125 112 121 124 0 0 -16 124 8 128 ?121 129 130 131 0 0 1 17 125 0 126
 123 30 119 132 130 0 0 -15 255 126 4 0 125 17 0 17 30 0 126 125 31 116 22 11 0
 132 -17 132 0 0 0 0 116 125 130 0 0 +16 130 5 133 ?132 124 0 134 0 0 1 81 1 133
 405 27 130 0 0 128 135 136 133 255 134 234 0 130 0 137 0 +137 .0047315 0 .00115
2 .0047315 0 48e-5 0 672e-6 30 255 137 133 0 1 134 131 138 +.0047315 0 .001152 0
 0 -1 133 131 236 0 124 137 139 0 +139 .0045415 0 .001152 .0047315 0 .001152 0 1
9e-5 141 255 138 134 138 138 137 30 139 135 0 1 131 140 141 +.0045415 0 .001152
 1 0 0 133 140 238 0 129 139 142 0 +142 .0045415 0 0 .0045415 0 .001152 0 .00115
2 141 141 131 141 141 139 16 129 10 143 ?115 144 124 140 0 0 1 30 142 137 0 1 14
0 145 146 +.0045415 0 0 0 0 1 133 145 240 0 144 142 147 0 +147 .0047315 0 0 .004
5415 0 0 0 19e-5 141 146 140 146 146 142 16 144 12 148 ?111 149 129 145 0 0 1 30
 147 139 0 1 145 150 151 +.0047315 0 0 -1 0 0 133 150 242 0 149 147 152 0 +152 .
0047315 0 352e-6 .0047315 0 0 0 352e-6 141 151 145 151 151 147 16 149 14 153 ?10
7 154 144 150 0 0 1 30 152 141 0 1 150 155 156 +.0047315 0 352e-6 0 0 -1 133 155
 244 0 154 152 157 0 +157 .0047745 0 352e-6 .0047315 0 352e-6 0 430000000000005e
-19 141 156 150 156 156 152 16 154 16 158 ?103 159 149 155 0 0 1 30 157 143 0 1
 155 160 161 +.0047745 0 352e-6 -1 0 0 133 160 250 0 162 157 163 0 +163 .0050325
 0 33e-6 .004831 0 .0003244999999999715 0 .0003543649249008705 141 161 155 161 1
61 157 16 162 22 164 ?91 165 166 160 0 0 1 30 163 149 0 1 160 167 168 +.0050325
 0 33e-6 -.568622868237898 0 .822598342884853 133 167 256 0 169 163 170 0 +170 .
005269 0 0 .0050975 0 0 0 1715e-7 141 168 160 168 168 163 16 169 28 171 ?79 172
 173 167 0 0 1 30 170 155 0 1 167 174 175 +.005269 0 0 -1 0 0 133 174 258 0 172
 170 176 0 +176 .0050065 0 375e-6 .00526899999999991 0 -645642393715118e-31 0 .0
00457745835590014 141 175 167 175 175 170 16 172 30 177 ?75 178 169 174 0 0 1 30
 176 157 0 1 174 179 180 +.0050065 0 375e-6 .573462344363127 0 -.819231920519181
 133 179 266 0 181 176 182 0 +182 .005255 0 8e-4 .00500999999999994 0 .000489500
000000045 0 .0003955189628829445 141 180 174 180 180 176 16 181 38 183 ?59 184 1
85 179 0 0 1 30 182 165 0 1 179 186 187 +.005255 0 8e-4 -.619439326535061 0 -.78
5044534241077 133 186 268 0 184 182 188 0 +188 .0050815 0 8e-4 .005255 0 8e-4 0
 1735e-7 141 187 179 187 187 182 16 184 40 189 ?55 190 181 186 0 0 1 30 188 167
 0 1 186 191 192 +.0050815 0 8e-4 1 0 0 133 191 274 0 193 188 194 0 +194 .004819
5 0 507e-6 .00501549999999991 0 .00076500000000007 0 .000324006172780705 141 192
 186 192 192 188 16 193 46 195 ?43 196 197 191 0 0 1 30 194 173 0 1 191 24 198 +
.0048195 0 507e-6 .60492674666592 0 .796281125713894 133 24 280 0 11 194 199 0 +
199 .0047315 0 48e-5 .0047665 0 48e-5 0 35e-6 141 198 191 198 198 194 30 199 178
 0 1 24 200 201 +.0047315 0 48e-5 1 0 0 133 200 316 0 159 199 202 0 +202 .004809
 0 3465e-7 .0047745 -150463276905253e-50 352e-6 399655389379545e-31 .41506513285
8549 141 201 24 201 201 199 16 159 18 203 ?99 166 154 200 0 0 1 31 202 317 0 1 2
00 204 205 +.00477868985431167 507966509590827e-35 .0002673272679549895 -9639947
1664221e-31 -1 -604687594984653e-31 .3575307523895375 -599184346489597e-31 .9339
01365828197 847763317861718e-19 133 204 320 0 166 202 206 0 +206 .004831 -210648
587667354e-49 3245e-7 .004809 -1805559322863035e-50 3465e-7 882821066992021e-30
 .587469409023418 141 205 200 205 205 202 16 166 20 207 ?95 162 159 204 0 0 1 31
 206 321 0 1 204 208 209 +.00478363451520696 314909117944762e-35 .00029913451520
69555 -432978028117743e-31 -1 -4329780281177505e-32 .88154877140628 -58609712798
6349e-31 .472092960794883 537298517443168e-19 133 208 324 0 165 206 210 0 +210 .
005059 -3009265538105055e-51 7e-6 .0050325 752316384526264e-51 33e-6 23692546660
20255e-31 .660983153180457 141 209 204 209 209 206 16 165 24 211 ?87 173 162 208
 0 0 1 31 210 325 0 1 208 212 213 +.00508364267633502 3313040835992385e-36 58621
3816491576e-19 -4288349799925275e-32 1 -437081806530852e-31 -.430803607457321 -5
79186255743869e-31 -.902445705736228 572016480559839e-19 133 212 328 0 173 210 2
14 0 +214 .0050975 -752316384526264e-51 -271050543121376e-34 .005059 -2256949153
57879e-50 699999999999987e-20 4307714383186405e-33 .4006903089561415 141 213 208
 213 213 210 16 173 26 215 ?83 169 165 212 0 0 1 31 214 329 0 1 212 216 217 +.00
509548548715014 589969322896222e-35 982951793257849e-19 -1095357396528384e-32 1
 -602446568090623e-31 .0204902206143851 -60007567500578e-30 -.999790053390798 98
3158203989086e-19 133 216 332 0 178 214 218 0 +218 .004982 0 407e-6 .0050065 0 3
75e-6 -201509925313869e-19 2015099253138595e-20 141 217 212 217 217 214 16 178 3
2 219 ?71 220 172 216 0 0 1 30 218 333 0 1 216 221 222 +.00499425 0 391e-6 .6079
10502716903 0 -.794005554569036 133 221 336 0 220 218 223 0 +223 .0049535 -16550
9604595778e-49 4335e-7 .004982 -165509604595778e-49 407e-6 -888178419700125e-30
 .2537227794914645 141 222 216 222 222 218 16 220 34 224 ?67 185 178 221 0 0 1 3
1 223 337 0 1 221 225 226 +.00486386620492946 934151741546162e-35 .0003085259185
09041 416957789050444e-31 1 4484263014316065e-32 .582815471007528 -6074026953932
51e-31 .812604532816716 .0001537944675963885 133 225 340 0 185 223 227 0 +227 .0
0501 -150463276905253e-50 4895e-7 .0049535 -451389830715758e-50 4335e-7 0 .38187
3665051523 141 226 221 226 226 223 16 185 36 228 ?63 181 220 225 0 0 1 31 227 34
1 0 1 225 229 230 +.00483689106630501 1260027219525448e-35 .000607652317031546 4
310494240688765e-32 1 -434898079640914e-31 .825952982916776 -601195569927724e-31
 -.563739008771683 .0002095869102423575 133 229 344 0 190 227 231 0 +231 .005043
 0 791e-6 .0050815 -902779661431517e-50 8e-4 -888178419700125e-30 .5374949462717
86 141 230 225 230 230 227 16 190 42 232 ?51 197 184 229 0 0 1 31 231 345 0 1 22
9 233 234 +.00507858926778906 439526592254893e-35 .000725604243346789 -139382787
8676256e-32 1 596248592544849e-31 -.478011935640405 -590343578784616e-31 .878353
33971319 744526760432931e-19 133 233 348 0 197 231 235 0 +235 .0050155 300926553
8105055e-51 765e-6 .005043 -376158192263132e-50 791e-6 -177635683940025e-29 .396
3850368521365 141 234 229 234 234 231 16 197 44 236 ?47 193 190 233 0 0 1 31 235
 349 0 1 233 237 238 +.00509398169707603 576944339336086e-35 .000709533781938819
 -420673145219651e-31 1 4449427497515505e-32 -.816637443787626 -600336598260292e
-31 .577151007453 961034761178988e-19 133 237 352 0 196 235 239 0 +239 .004797 0
 485e-6 .0048195 451389830715758e-50 507e-6 406671828833625e-30 .476633981153362
 141 238 233 238 238 235 16 196 48 240 ?37 23 193 237 0 0 1 31 239 353 0 1 237 1
8 241 +.00476297014438455 3965844066378625e-36 .000542308943243078 -428086085081
528e-31 -1 437815314287926e-31 .510568378085994 -595017091930699e-31 -.859837153
941744 666509268416197e-19 133 18 356 0 23 239 8 0 +8 .0047665 0 48e-5 .004797 -
902779661431517e-50 485e-6 743795752469979e-48 .4079785557284255 141 241 237 241
 241 239 16 23 50 242 ?32 11 196 18 0 0 1 81 1 242 383 27 23 0 0 21 240 243 80 7
 CCCCCDI12 legal_owners0 17 1 lCZ1 27 244 245 9000 0 0 0 0 3 5 0 0 0 FFTFTFTTFFF
FFFFFF2 81 1 21 382 27 11 0 0 120 242 246 81 1 240 384 27 196 0 0 242 195 247 83
 255 1 243 881 81 1 195 385 27 193 0 0 240 236 248 83 1 247 882 81 1 236 386 27
 197 0 0 195 232 249 83 1 248 883 81 1 232 387 27 190 0 0 236 189 250 83 1 249 8
84 81 1 189 388 27 184 0 0 232 183 251 83 1 250 885 81 1 183 389 27 181 0 0 189
 228 252 83 1 251 886 81 1 228 390 27 185 0 0 183 224 253 83 1 252 887 81 1 224
 391 27 220 0 0 228 219 254 83 1 253 888 81 1 219 392 27 178 0 0 224 177 255 83
 1 254 889 81 1 177 393 27 172 0 0 219 171 256 83 1 255 890 81 1 171 394 27 169
 0 0 177 215 257 83 1 256 891 81 1 215 395 27 173 0 0 171 211 258 83 1 257 892 8
1 1 211 396 27 165 0 0 215 164 259 83 1 258 893 81 1 164 397 27 162 0 0 211 207
 260 83 1 259 894 81 1 207 398 27 166 0 0 164 203 261 83 1 260 895 81 1 203 399
 27 159 0 0 207 158 262 83 1 261 896 81 1 158 400 27 154 0 0 203 153 263 83 1 26
2 897 81 1 153 401 27 149 0 0 158 148 264 83 1 263 898 81 1 148 402 27 144 0 0 1
53 143 265 83 1 264 899 81 1 143 403 27 129 0 0 148 128 266 83 1 265 9e2 81 1 12
8 404 27 124 0 0 143 133 267 83 1 266 901 83 1 267 902 83 1 246 880 79 255 13 24
5 BTI/importTag17 37 0 0 0 0 33 36 196 0 268 +17 36 0 126 31 268 26 37 196 0 0 -
17 268 0 126 36 269 33 43 193 0 0 -17 269 0 126 268 270 38 47 197 0 0 -17 43 0 0
 0 0 38 268 193 0 269 +17 270 0 126 269 271 44 51 190 0 0 -17 47 0 0 0 0 44 269
 197 0 270 +17 271 0 126 270 272 48 55 184 0 0 -17 51 0 0 0 0 48 270 190 0 271 +
17 272 0 126 271 273 52 59 181 0 0 -17 55 0 0 0 0 52 271 184 0 272 +17 273 0 126
 272 274 56 63 185 0 0 -17 59 0 0 0 0 56 272 181 0 273 +17 274 0 126 273 275 60
 67 220 0 0 -17 63 0 0 0 0 60 273 185 0 274 +17 275 0 126 274 276 64 71 178 0 0
 -17 67 0 0 0 0 64 274 220 0 275 +17 276 0 126 275 277 68 75 172 0 0 -17 71 0 0
 0 0 68 275 178 0 276 +17 277 0 126 276 278 72 79 169 0 0 -17 75 0 0 0 0 72 276
 172 0 277 +17 278 0 126 277 279 76 83 173 0 0 -17 79 0 0 0 0 76 277 169 0 278 +
17 279 0 126 278 280 80 87 165 0 0 -17 83 0 0 0 0 80 278 173 0 279 +17 280 0 126
 279 281 84 91 162 0 0 -17 87 0 0 0 0 84 279 165 0 280 +17 281 0 126 280 282 88
 95 166 0 0 -17 91 0 0 0 0 88 280 162 0 281 +17 282 0 126 281 283 92 99 159 0 0
 -17 95 0 0 0 0 92 281 166 0 282 +17 283 0 126 282 284 96 103 154 0 0 -17 99 0 0
 0 0 96 282 159 0 283 +17 284 0 126 283 285 100 107 149 0 0 -17 103 0 0 0 0 100
 283 154 0 284 +17 285 0 126 284 127 104 111 144 0 0 -17 107 0 0 0 0 104 284 149
 0 285 +17 127 0 126 285 123 108 115 129 0 0 -17 111 0 0 0 0 108 285 144 0 127 +
17 115 0 0 0 0 112 127 129 0 123 +17 31 0 126 30 36 12 32 23 0 0 -81 1 135 406 2
7 17 0 0 133 14 286 83 1 136 903 14 255 17 3 135 ?0 0 126 6 7 -0 0 0 0 6 81 1 14
 407 27 1 287 2 135 0 288 83 1 286 904 81 1 287 312 289 1 290 14 0 0 291 83 1 28
8 905 80 1 289 292 293 9000 0 0 0 0 3 5 0 0 0 TTTFFFFFFFFFFFFFF1 81 1 290 233 29
4 1 295 287 0 0 296 82 255 1 291 1 80 1 294 297 298 8038 0 0 0 0 0 0 0 0 0 TTTTT
TTTTTTTTFTFT10 81 1 295 232 297 1 0 290 0 0 299 98 255 19 296 72 67 45 48 52 83
 104 97 112 101 83 116 114 105 110 103 48 49 49 80 1 297 300 301 8017 0 0 0 0 0
 0 0 0 0 TTTTTTTTTTTTTFTFT3 84 255 19 299 HC-04ShapeString01179 13 301 SDL/TYSA_
NAME79 14 298 SDL/TYSA_UNAME79 23 293 ONSHAPE_ORIGINALBODY_ID81 1 118 380 27 116
 0 0 114 120 302 83 1 122 879 81 1 114 379 27 112 0 0 110 118 303 83 1 302 878 8
1 1 110 378 27 108 0 0 106 114 304 83 1 303 877 81 1 106 377 27 104 0 0 102 110
 305 83 1 304 876 81 1 102 376 27 100 0 0 98 106 306 83 1 305 875 81 1 98 375 27
 96 0 0 94 102 307 83 1 306 874 81 1 94 374 27 92 0 0 90 98 308 83 1 307 873 81
 1 90 373 27 88 0 0 86 94 309 83 1 308 872 81 1 86 372 27 84 0 0 82 90 310 83 1
 309 871 81 1 82 371 27 80 0 0 78 86 311 83 1 310 870 81 1 78 370 27 76 0 0 74 8
2 312 83 1 311 869 81 1 74 369 27 72 0 0 70 78 313 83 1 312 868 81 1 70 368 27 6
8 0 0 66 74 314 83 1 313 867 81 1 66 367 27 64 0 0 62 70 315 83 1 314 866 81 1 6
2 366 27 60 0 0 58 66 316 83 1 315 865 81 1 58 365 27 56 0 0 54 62 317 83 1 316
 864 81 1 54 364 27 52 0 0 50 58 318 83 1 317 863 81 1 50 363 27 48 0 0 46 54 31
9 83 1 318 862 81 1 46 362 27 44 0 0 42 50 320 83 1 319 861 81 1 42 361 27 38 0
 0 34 46 321 83 1 320 860 81 1 34 360 27 33 0 0 28 42 322 83 1 321 859 83 1 322
 858 83 1 35 857 83 1 29 856 141 19 18 19 19 8 74 4 CI16 index_map_offset0 0 1 d
CCZ20 16 5 0 0 295 290 287 14 2 0 0 0 0 0 0 0 0 0 0 0 0 0 0 0 80 1 13 27 323 900
0 0 0 0 0 3 5 0 0 0 FFTFTFTTFFFFFFFFF2 83 1 15 17325 79 18 323 BTI/importMaxCoun
t1 0 
