**ABCDEFGHIJKLMNOPQRSTUVWXYZabcdefghijklmnopqrstuvwxyz**************************
**PARASOLID !"#$%&'()*+,-./:;<=>?@[\]^_`{|}~0123456789**************************
**PART1;
MC=unknown;
MC_MODEL=unknown;
MC_ID=unknown;
OS=unknown;
OS_RELEASE=unknown;
FRU=Parasolid 37.0.173;
APPL=Onshape;
SITE=unknown;
USER=unknown;
FORMAT=text;
GUISE=transmit;
KEY=BTGapi::writeModels_.xmt;
FILE=BTGapi::writeModels_.xmt;
DATE=2024-12-29T04:00:27 (UTC);
**PART2;
SCH=SCH_3700173_36001;
USFLD_SIZE=0;
**PART3;
**END_OF_HEADER*****************************************************************
T51 : TRANSMIT FILE created by modeller version 370017323 SCH_3700173_36001_1300
6231 0 12 36 CCCI7 lattice222 0 CCCI4 mesh1006 0 I8 polyline1008 0 CCCCCCCDI5 ow
ner1040 0 CCCI16 boundary_lattice222 0 CCCI13 boundary_mesh1006 0 I17 boundary_p
olyline1008 0 CCCA16 index_map_offset0 0 1 dA9 index_map82 0 A17 node_id_index_m
ap82 0 A20 schema_embedding_map82 0 A5 child12 0 A14 lowest_node_id0 0 1 dA16 me
sh_offset_data206 0 Z1 346 2 3 0 0 0 0 0 0 0 1e3 1e-8 0 4 5 1 0 1 2 6 0 7 8 9 0
 0 10 11 12 0 0 0 0 0 0 0 81 255 1 2 346 13 1 14 0 0 0 15 70 11 CI9 list_type0 0
 1 uI10 notransmit0 0 1 lCCCDCCDI12 finger_index0 0 1 dI12 finger_block1012 0 CZ
3 0 4 T1 0 0 6 20 1 16 16 13 255 6 36 0 1 0 17 0 0 18 0 51 255 7 197 0 19 20 0 2
1 +.003522748 0 .007482195957792 0 1 0 .001690531173452 1 0 0 31 255 8 278 0 1 2
2 0 23 -.003522748 0 .007482195957792 0 1 0 -1 0 0 .001690531173452 29 255 9 215
 0 24 25 0 .00357435723894155 0 .00579166478434 19 9 CCCCCCI5 frame230 0 CA5 own
er12 0 Z10 1 0 1 18 0 26 0 V0 16 255 11 30 27 ?28 0 29 30 0 0 1 18 255 12 24 31
 28 0 24 32 236277208623078e-20 1 81 1 31 288 33 12 0 0 0 34 35 17 255 28 0 36 3
7 38 12 39 11 0 40 +18 24 23 34 41 12 42 9 236277208623078e-20 1 29 32 212 0 12
 43 44 .00357435723894155 -2e-4 .00579166478434 29 43 211 0 45 46 32 -.003610141
331034 0 .00916898730927959 29 44 213 0 47 32 25 .003622606516429435 -2e-4 .0091
6898730928 18 47 16 48 37 42 49 44 236277208623078e-20 1 29 25 214 0 42 44 9 .00
3622606516429435 0 .00916898730928 18 42 18 50 51 24 47 25 236277208623078e-20 1
 81 1 50 290 33 42 0 0 34 48 52 17 51 0 53 54 55 42 56 57 0 58 +15 255 53 21 0 5
5 19 0 17 54 0 53 40 51 47 59 60 61 62 +17 55 0 53 51 40 24 63 64 65 0 -17 56 0
 66 67 58 24 51 57 0 55 -16 57 25 68 ?51 69 64 22 0 0 1 17 58 0 66 56 70 42 71 7
2 0 59 +15 66 32 0 70 73 0 17 70 0 66 58 67 45 74 75 0 76 -17 71 0 77 78 59 45 5
8 72 0 70 -16 72 19 79 ?58 64 60 80 0 0 1 17 59 0 77 71 62 42 54 60 81 0 -15 77
 14 0 78 82 0 17 62 0 77 59 78 47 83 84 0 0 +16 60 17 85 1179871927242344e-21 54
 72 84 0 0 0 1 133 255 81 250 0 59 86 87 0 +87 .003622606516434 -2e-4 .009168987
30928 .003622606516434 0 .00916898730928 0 1 137 255 86 249 0 1 61 81 88 +7 89 0
 ?137 87 251 0 1 81 90 91 +92 93 0 ?133 90 259 0 94 87 95 0 +95 -.00361014099251
298 -2e-4 .00916915291579081 -.003589945592195565 -2e-4 .00579183035906979 1.572
840452644445 -1.58479972468619 141 255 91 81 91 91 87 50 255 92 107 0 82 0 96 97
 +-.003610141331034 0 .00916898730928 0 0 1 1 0 0 134 255 93 0 0 0 0 0 0 +98 99
 136 255 98 1 2 2 2 5 FFF1 100 101 102 135 255 99 2 0 45 255 4 100 .007232747847
468 -2e-4 .007232747847468 0 127 255 2 101 2 2 128 255 2 102 0 1 14 255 82 13 10
3 ?104 19 77 6 92 +0 0 104 19 26 50 96 119 0 105 92 106 107 +-.003589943273431 0
 .00579166478434 0 0 1 1 0 0 141 97 108 109 109 92 137 108 217 0 1 110 111 112 +
92 113 0 ?141 109 87 97 97 92 133 110 216 0 78 0 108 0 +108 -.003610141331034 0
 .00916898730928 -.003610141331034 -2e-4 .00916898730928 0 1 133 111 218 0 76 10
8 114 0 +114 -.00361014099251298 -2e-4 .00916915291579081 -.00361014099251298 0
 .00916915291579081 0 1 141 112 110 112 112 108 134 113 0 0 0 0 0 0 +115 116 136
 115 1 2 2 2 5 FFF1 117 118 119 135 116 2 0 45 4 117 0 0 0 -2e-4 127 2 118 2 2 1
28 2 119 0 1 17 76 0 120 74 121 45 78 122 111 0 -137 114 219 0 1 111 123 124 +20
 125 0 ?133 123 224 0 126 114 127 0 +127 -.00358994559219139 0 .0057918303590698
5 -.00358994559219139 -2e-4 .00579183035906985 0 1 141 124 111 124 124 114 51 20
 194 0 104 128 7 129 +-.003613592999113 0 .00748041061415 0 1 0 .00168874582981
 -.999982117324558 0 -.00598038720274749 134 125 0 0 0 0 0 0 +130 131 136 130 1
 2 2 2 5 FFF1 132 133 134 135 131 2 0 45 4 132 1.578820875495885 -2e-4 1.5788208
75495885 0 127 2 133 2 2 128 2 134 0 1 14 104 3 135 ?0 82 120 6 20 +0 0 0 82 26
 50 128 123 0 17 106 20 0 +-.003610141331034 -2e-4 .00916898730928 0 1 0 -1 0 0
 141 129 114 136 136 20 141 136 127 129 129 20 137 127 225 0 1 123 137 138 +20 1
39 0 ?133 137 226 0 140 127 141 0 +141 -.003589943273431 -2e-4 .00579166478434 -
.003589943273431 0 .00579166478434 0 1 141 138 123 138 138 127 134 139 0 0 0 0 0
 0 +142 143 136 142 1 2 2 2 5 FFF1 144 145 146 135 143 2 0 45 4 144 4.7043660053
4237 0 4.70436600534237 -2e-4 127 2 145 2 2 128 2 146 0 1 17 140 0 147 41 39 148
 126 149 137 74 -137 141 227 0 1 137 150 151 +96 152 0 ?133 150 232 0 84 141 153
 0 +153 -.003610141331034 -2e-4 .00916898730928 .003622606516429435 -2e-4 .00916
898730928 -867361737988404e-33 .00723274784746344 141 151 137 151 151 141 134 15
2 0 0 0 0 0 0 +154 155 136 154 1 2 2 2 5 FFF1 156 157 158 135 155 2 0 45 4 156 0
 -2e-4 0 0 127 2 157 2 2 128 2 158 0 1 16 84 15 159 ?62 60 94 150 0 0 1 30 255 1
53 233 0 1 150 80 160 +-.003610141331034 -2e-4 .00916898730928 1 0 0 133 80 234
 0 72 153 161 0 +161 -.003610141331034 0 .00916898730928 .003622606516429435 0 .
00916898730928 -867361737988404e-33 .00723274784746343 141 160 150 160 160 153 3
0 161 235 0 1 80 30 162 +-.003610141331034 0 .00916898730928 1 0 0 133 30 236 0
 11 161 163 0 +163 -.003589943273435175 -2e-4 .00579166478434 .00357435723894155
 -2e-4 .00579166478434 -417591308754517e-29 .00716430051237255 141 162 80 162 16
2 161 30 163 237 0 1 30 164 165 +-.003589943273431 -2e-4 .00579166478434 1 0 0 1
33 164 238 0 29 163 166 0 +166 -.003589943273435175 0 .00579166478434 .003574357
23894155 0 .00579166478434 -4175479406676175e-30 .00716430051237255 141 165 30 1
65 165 163 16 29 29 167 ?41 11 69 164 0 0 1 30 166 239 0 1 164 168 169 +-.003589
943273431 0 .00579166478434 1 0 0 133 168 240 0 63 166 170 0 +170 .0035743572389
44 0 .00579166478434 .003574357238944 -2e-4 .00579166478434 0 1 141 169 164 169
 169 166 17 63 0 147 39 41 12 55 64 168 0 +137 170 241 0 1 168 65 171 +96 172 0
 ?133 65 242 0 55 170 173 0 +173 .00357433320624404 -2e-4 .00579245200828079 .00
357433320624404 0 .00579245200828079 0 1 141 171 168 171 171 170 134 172 0 0 0 0
 0 0 +174 175 136 174 1 2 2 2 5 FFF1 176 177 178 135 175 2 0 45 4 176 .007164300
512375 0 .007164300512375 -2e-4 127 2 177 2 2 128 2 178 0 1 137 173 243 0 1 65 6
1 179 +7 180 0 ?133 61 248 0 54 173 86 0 +86 .00362265300087934 0 .0091697725158
2198 .00362265300087934 -2e-4 .00916977251582198 0 1 141 179 65 179 179 173 134
 180 0 0 0 0 0 0 +181 182 136 181 1 2 2 2 5 FFF1 183 184 185 135 182 2 0 45 4 18
3 1.540277389483595 -2e-4 1.540277389483595 0 127 2 184 2 2 128 2 185 0 1 15 147
 28 0 140 105 0 17 39 0 147 140 63 49 28 11 0 38 -17 41 0 147 63 140 24 67 29 0
 56 +16 64 22 186 1181386043227604e-21 63 57 72 0 0 0 1 81 1 186 300 33 64 0 0 6
8 79 187 80 7 CCCCCDI12 legal_owners0 17 1 lCZ1 33 188 189 9000 0 0 0 0 3 5 0 0
 0 FFTFTFTTFFFFFFFFF2 81 1 68 299 33 57 0 0 190 186 191 81 1 79 301 33 72 0 0 18
6 85 192 83 255 1 187 16546 81 1 85 302 33 60 0 0 79 159 193 83 1 192 16547 81 1
 159 303 33 84 0 0 85 194 195 83 1 193 16548 81 1 194 304 33 94 0 0 159 196 197
 83 1 195 16549 16 94 12 194 ?38 84 149 90 0 0 1 81 1 196 305 33 149 0 0 194 198
 199 83 1 197 16550 16 149 10 196 5e-7 126 94 75 0 0 0 1 81 1 198 306 33 75 0 0
 196 200 201 83 1 199 16551 16 75 8 198 ?74 149 122 202 0 0 1 81 1 200 307 33 12
2 0 0 198 203 204 83 1 201 16552 16 122 5 200 5e-7 78 75 0 0 0 0 1 81 1 203 308
 33 17 0 0 200 205 206 83 1 204 16553 14 17 33 203 ?73 0 36 6 128 -0 0 73 0 26 8
1 1 205 309 33 73 0 0 203 207 208 83 1 206 16554 14 73 31 205 ?105 17 66 6 106 +
0 0 105 17 26 81 1 207 310 33 105 0 0 205 209 210 83 1 208 16555 14 105 27 207 ?
19 73 147 6 96 -0 0 19 73 26 81 1 209 311 33 19 0 0 207 103 211 83 1 210 16556 1
4 19 20 209 ?82 105 53 6 7 +0 0 82 105 26 81 1 103 312 33 82 0 0 209 135 212 83
 1 211 16557 81 1 135 313 33 104 0 0 103 213 214 83 1 212 16558 81 1 213 314 33
 1 215 216 135 0 217 83 1 214 16559 81 1 215 286 218 1 0 213 0 0 219 81 1 216 31
5 220 1 213 221 0 0 222 83 1 217 16560 80 1 220 33 223 9000 0 0 0 0 3 5 0 0 0 FF
TFTFTTFFFFFFFFF2 81 1 221 344 224 1 216 14 0 0 225 83 1 222 17325 80 1 224 226 2
27 8040 0 0 0 0 3 5 0 0 0 TTTFFFFFFFFFFFFFF2 81 1 14 345 228 1 221 2 0 0 229 83
 3 225 .8 .8 .8 80 1 228 13 230 8038 0 0 0 0 0 0 0 0 0 TTTTTTTTTTTTTFTFT10 98 25
5 11 229 72 67 45 48 52 80 97 100 48 48 51 79 255 14 230 SDL/TYSA_UNAME79 17 227
 SDL/TYSA_COLOUR_279 18 223 BTI/importMaxCount80 1 218 231 232 9000 0 0 0 0 3 5
 0 0 0 TTTFFFFFFFFFFFFFF1 82 255 1 219 47 79 23 232 ONSHAPE_ORIGINALBODY_ID13 26
 2 0 0 0 0 0 0 10 17 50 106 122 0 73 96 128 0 +-.003610141331034 0 .009168987309
28 0 1 0 -1 0 0 15 36 34 0 38 17 0 17 38 0 36 28 83 49 121 94 0 126 +17 83 0 36
 38 37 233 62 84 0 121 -18 49 11 234 39 47 148 235 5e-7 1 17 121 0 120 76 126 23
3 38 94 0 78 -17 126 0 120 121 74 49 140 149 123 0 +15 120 4 0 76 104 0 17 74 0
 120 126 76 148 70 75 0 0 +18 148 9 236 67 49 233 46 5e-7 1 81 1 236 293 33 148
 0 0 234 237 238 17 67 0 66 70 56 148 41 29 0 140 -18 233 7 237 83 148 45 239 5e
-7 1 29 46 210 0 148 235 43 -.003589943273435175 0 .00579166478434 29 235 209 0
 49 239 46 -.003589943273435175 -2e-4 .00579166478434 29 239 208 0 233 0 235 -.0
03610141331034 -2e-4 .00916898730927959 81 1 237 294 33 233 0 0 236 240 241 18 4
5 6 240 71 233 0 43 5e-7 1 81 1 240 295 33 45 0 0 237 27 242 81 1 27 296 33 11 0
 0 240 167 243 83 1 242 16541 81 1 167 297 33 29 0 0 27 190 244 83 1 243 16542 8
1 1 190 298 33 69 0 0 167 68 245 83 1 244 16543 16 69 26 190 ?37 29 57 246 0 0 1
 83 1 245 16544 17 37 0 36 83 28 47 40 69 0 54 +133 246 265 0 69 95 247 0 +247 .
003574333206241595 -2e-4 .00579245200828071 .003622653000874785 -2e-4 .009169772
51582224 4.68187004307484 1.62992759035712 31 95 260 0 1 90 246 248 --.003613592
999113 -2e-4 .00748041061415 0 1 0 -1 0 0 .00168874582981 31 247 266 0 1 246 202
 249 -.003522748 -2e-4 .007482195957792 0 1 0 -1 0 0 .001690531173452 133 202 27
1 0 75 247 250 0 +250 -.00361014099251298 0 .00916915291579081 -.003589945592195
565 0 .00579183035906979 1.572840452644445 -1.58479972468619 141 249 246 249 249
 247 31 250 272 0 1 202 22 251 --.003613592999113 0 .00748041061415 0 1 0 -1 0 0
 .00168874582981 133 22 277 0 57 250 8 0 +8 .003574333206241595 0 .0057924520082
8071 .003622653000874785 0 .00916977251582224 4.68187004307484 1.62992759035712
 141 251 202 251 251 250 141 248 90 248 248 95 17 40 0 53 55 54 12 37 69 0 63 -8
3 1 241 16540 81 1 234 292 33 49 0 0 48 236 252 83 1 238 16539 81 1 48 291 33 47
 0 0 50 234 253 83 1 252 16538 83 1 253 16537 17 78 0 77 62 71 233 76 122 110 0
 +83 1 191 16545 79 13 189 BTI/importTag141 107 141 254 254 96 141 254 170 107 1
07 96 141 88 61 88 88 86 134 89 0 0 0 0 0 0 +255 256 136 255 1 2 2 2 5 FFF1 257
 258 259 135 256 2 0 45 4 257 4.77152024394961 0 4.77152024394961 -2e-4 127 2 25
8 2 2 128 2 259 0 1 81 1 34 289 33 24 0 0 31 50 260 83 1 52 16536 83 1 260 16535
 83 1 35 16534 19 18 35 0 1 0 10 6 0 S0 141 23 22 23 23 8 141 21 173 261 261 7 1
41 261 86 21 21 7 74 4 CI16 index_map_offset0 0 1 dCCZ20 16 6 0 0 215 213 216 22
1 14 2 0 0 0 0 0 0 0 0 0 0 0 0 0 0 80 1 13 262 263 8017 0 0 0 0 0 0 0 0 0 TTTTTT
TTTTTTTFTFT3 84 255 11 15 HC-04Pad00379 13 263 SDL/TYSA_NAME1 0 
