**ABCDEFGHIJKLMNOPQRSTUVWXYZabcdefghijklmnopqrstuvwxyz**************************
**PARASOLID !"#$%&'()*+,-./:;<=>?@[\]^_`{|}~0123456789**************************
**PART1;
MC=unknown;
MC_MODEL=unknown;
MC_ID=unknown;
OS=unknown;
OS_RELEASE=unknown;
FRU=Parasolid 37.0.173;
APPL=Onshape;
SITE=unknown;
USER=unknown;
FORMAT=text;
GUISE=transmit;
KEY=BTGapi::writeModels_.xmt;
FILE=BTGapi::writeModels_.xmt;
DATE=2024-12-29T04:00:26 (UTC);
**PART2;
SCH=SCH_3700173_36001;
USFLD_SIZE=0;
**PART3;
**END_OF_HEADER*****************************************************************
T51 : TRANSMIT FILE created by modeller version 370017323 SCH_3700173_36001_1300
6231 0 12 36 CCCI7 lattice222 0 CCCI4 mesh1006 0 I8 polyline1008 0 CCCCCCCDI5 ow
ner1040 0 CCCI16 boundary_lattice222 0 CCCI13 boundary_mesh1006 0 I17 boundary_p
olyline1008 0 CCCA16 index_map_offset0 0 1 dA9 index_map82 0 A17 node_id_index_m
ap82 0 A20 schema_embedding_map82 0 A5 child12 0 A14 lowest_node_id0 0 1 dA16 me
sh_offset_data206 0 Z1 1031 2 3 0 0 0 0 0 0 0 1e3 1e-8 0 4 5 1 0 1 2 6 0 7 8 9 0
 0 10 11 12 0 0 0 0 0 0 0 81 255 1 2 1031 13 1 14 0 0 0 15 70 11 CI9 list_type0
 0 1 uI10 notransmit0 0 1 lCCCDCCDI12 finger_index0 0 1 dI12 finger_block1012 0
 CZ3 0 4 T1 0 0 6 20 1 16 16 13 255 6 116 0 1 0 17 0 0 18 0 50 255 7 730 0 19 20
 0 0 +.02267781 .000326054688661 .002575531243882 1 3086394816419e-28 1474690186
683e-28 -308112698450872e-30 .999993667068607 -.0035589075122686 30 255 8 856 0
 21 22 0 0 +.02324354 768558e-9 .001485 -1476497617469362e-31 .00058569425855026
 .999999828481103 29 255 9 783 0 23 24 0 .02324354 .00044398948015605 .002192249
18980473 19 9 CCCCCCI5 frame230 0 CA5 owner12 0 Z10 1 0 1 18 0 25 0 V0 16 255 11
 110 26 ?27 0 28 29 0 0 1 18 255 12 106 30 31 0 32 33 5e-7 1 81 1 30 877 34 12 0
 0 0 35 36 17 255 31 0 37 38 39 12 27 11 0 40 -18 32 101 35 38 12 41 42 5e-7 1 2
9 33 405 0 12 42 43 .02267781 .000365554019872 .002879903026342 29 42 401 0 32 4
4 33 .02267781 .000289079504183 .002880175193794 29 43 395 0 45 33 46 .02324354
 .000365554019872 .002879903026342 18 45 94 47 27 41 48 43 5e-7 1 29 46 676 0 49
 43 50 .02267781 .000286555357451335 .002271159461423 18 49 81 51 52 48 53 46 ?1
 29 50 677 0 54 46 55 .02267781 .000444579181640462 .00211577420295694 18 54 61
 56 57 58 59 50 ?1 29 55 678 0 60 50 61 .02267781 .000602504920611998 .002115774
203098795 18 60 41 62 63 64 65 55 ?1 29 61 679 0 66 55 67 .02267781 .00076882804
6358804 .001946070445464 18 66 16 68 69 70 71 61 ?1 29 67 680 0 70 61 72 .022677
81 768558e-9 .001485 18 70 18 73 74 75 66 67 ?1 29 72 681 0 76 67 77 .02267781 8
45033e-9 .001485 18 76 25 78 79 80 75 72 ?1 29 77 682 0 75 72 81 .02267781 .0008
45303046358944 .001946070445464 18 75 23 82 83 76 70 77 ?1 29 81 683 0 64 77 84
 .02267781 .000602460129643289 .00219224918998172 18 64 46 85 86 23 60 81 ?1 29
 84 686 0 80 81 87 .02324354 .000602460129642999 .00219224918998186 18 80 34 88
 89 65 76 84 ?1 29 87 687 0 90 84 91 .02324354 .000845303046358944 .001946070445
464 18 90 7 92 93 94 95 87 ?1 29 91 688 0 95 87 96 .02324354 845033e-9 .001485 1
8 95 6 97 98 90 0 91 ?1 29 96 689 0 71 91 99 .02324354 768558e-9 .001485 18 71 1
1 100 101 66 94 96 ?1 29 99 690 0 94 96 102 .02324354 .000768828046358804 .00194
6070445464 18 94 9 103 104 71 90 99 ?1 29 102 691 0 65 99 105 .02324354 .0006025
04920611711 .002115774203098595 18 65 36 106 107 60 80 102 ?1 29 105 692 0 59 10
2 108 .02324354 .0004445791816407785 .00211577420295694 18 59 56 109 110 54 23 1
05 ?1 29 108 693 0 53 105 111 .02324354 .000286555357451335 .002271159461423 18
 53 76 112 113 49 114 108 ?1 29 111 760 0 114 108 115 .02324354 .000363032197934
302 .00227144821074139 18 114 74 116 117 53 58 111 1156013746885176e-21 1 29 115
 761 0 48 111 24 .02267781 .000363032197934302 .00227144821074139 18 48 86 118 1
19 45 49 115 1156013746885176e-21 1 29 24 782 0 58 115 9 .02267781 .000443989480
1558915 .00219224918980473 18 58 66 120 121 114 54 24 1044910516329102e-21 1 81
 1 120 885 34 58 0 0 116 56 122 17 121 0 123 86 119 58 124 125 0 126 -15 255 123
 21 0 127 19 0 17 86 0 123 83 121 64 128 129 0 130 -17 119 0 123 121 131 48 40 2
8 0 132 -17 124 0 133 134 126 48 121 125 0 0 +16 125 87 135 ?124 136 137 138 0 0
 1 17 126 0 133 124 139 58 140 141 0 128 -15 133 89 0 124 142 0 17 139 0 133 126
 134 23 143 144 0 140 -17 140 0 145 89 128 23 126 141 0 146 +16 141 70 147 ?140
 144 129 148 0 0 1 17 128 0 145 140 130 58 86 129 0 0 +15 145 69 0 128 149 0 17
 130 0 145 128 89 64 150 151 0 152 -16 129 67 153 ?128 141 154 155 0 0 1 81 1 15
3 916 34 129 0 0 147 156 157 16 154 62 156 ?158 129 159 160 0 0 1 133 255 155 80
1 0 129 161 162 0 +162 .02267781 .000602460129643289 .002192249189982 .02267781
 .0004439894801558915 .002192249189982 -288939878967387e-30 .0001584706494871085
 31 255 161 792 0 163 164 155 0 +.02324354 .000442938568726 .002272151957719 -1
 -3086394816419e-28 -1474690186683e-28 3086394816419e-28 -1 0 .000156386360714 3
0 162 798 0 1 155 165 166 +.02267781 .000602460129643 .002192249189982 308639481
6419e-28 -1 -2536328859090995e-32 133 165 807 0 167 162 168 0 +168 .02324354 .00
0602460129642999 .002192249189982 .02324354 .00044398948015605 .002192249189982
 -.000276405440981999 -.00011793479149505 141 255 166 155 166 166 162 16 167 53
 169 ?146 170 151 165 0 0 1 30 168 804 0 1 165 160 171 +.02324354 .0003260546886
61 .002192249189982 3086394816419e-28 -1 -2536328859090995e-32 30 160 811 0 154
 168 172 0 +.02267781 .000326054688661 .002115774203099 3086394816419e-28 -1 -25
36328859090995e-32 141 171 165 171 171 168 30 172 816 0 170 160 173 0 +.02324354
 .000602504920612 .002115774203099 3086394816419e-28 -1 -2536328859090995e-32 16
 170 57 174 ?175 159 167 172 0 0 1 31 173 822 0 176 172 177 0 +.02267781 .000600
864287381 .001947809454402 1 3086394816419e-28 1474690186683e-28 -3086394816419e
-28 1 0 .000244444944809 16 176 47 178 ?152 151 179 173 0 0 1 31 177 828 0 180 1
73 181 0 +.02324354 .000600864287381 .001947809454402 1 3086394816419e-28 147469
0186683e-28 3086394816419e-28 -1 0 .000244444944809 16 180 33 182 ?183 184 185 1
77 0 0 1 31 181 832 0 179 177 186 0 +.02267781 .000600864287381 .001947809454402
 1 3086394816419e-28 1474690186683e-28 -3086394816419e-28 1 0 .000167972761131 1
6 179 42 187 ?188 176 189 181 0 0 1 31 186 839 0 184 181 190 0 +.02324354 .00060
0864287381 .001947809454402 1 3086394816419e-28 1474690186683e-28 3086394816419e
-28 -1 0 .000167972761131 16 184 37 191 ?192 189 180 186 0 0 1 30 190 844 0 193
 186 194 0 +.02267781 845033e-9 .001485 -1476497617469362e-31 .00058569425855026
 .999999828481103 16 193 24 195 ?196 197 198 190 0 0 1 30 194 848 0 199 190 22 0
 +.02324354 .0008456715397496 .002575226907223475 -1476497617469362e-31 .0005856
9425855026 .999999828481103 16 199 5 200 ?201 21 0 194 0 0 1 30 22 852 0 202 194
 8 0 +.02267781 .000769196565983412 .002575271698184215 -1476497617469362e-31 .0
0058569425855026 .999999828481103 16 202 17 203 ?127 198 204 22 0 0 1 81 1 203 9
32 34 202 0 0 205 206 207 17 127 0 123 188 74 66 208 202 0 209 +16 198 19 205 ?2
10 193 202 211 0 0 1 16 204 15 206 ?209 202 212 213 0 0 1 81 1 206 933 34 204 0
 0 203 214 215 17 209 0 216 208 217 66 218 204 0 0 +16 212 12 214 ?219 204 21 22
0 0 0 1 30 213 333 0 204 0 221 0 +.02324354 .000768828046359 .001946070445464 -1
 -3086402105486e-28 7421668226884e-29 30 221 344 0 222 213 223 0 +.02267781 .000
845303046359 .001946070445464 1 3086402105486e-28 -7421668226884e-29 16 222 29 2
24 ?225 185 197 221 0 0 1 30 223 354 0 189 221 226 0 +.02324354 .000602504920612
 .002115774203099 1 222044604925e-27 1478279226562e-28 16 189 40 227 ?228 179 18
4 223 0 0 1 30 226 361 0 151 223 229 0 +.02267781 .000602460129643 .002192249189
982 1 222044604925e-27 1478279226562e-28 16 151 50 230 ?150 167 176 226 0 0 1 30
 229 370 0 159 226 231 0 +.02324354 .000444579201956 .002115774203099 -1 -444038
4532162e-28 -2345535636772e-28 16 159 60 232 ?233 154 170 229 0 0 1 133 231 601
 0 234 229 235 0 +235 .02324354 .000286555357451 .002271159461423 .02324354 .000
289079504182744 .002880175193794 0 .00060902096317952 16 234 97 236 ?237 238 239
 231 0 0 1 30 235 399 0 1 231 240 241 +.02324354 .000286555357451 .0022711594614
23 -148746938483415e-30 .00414459745123741 .999991411119099 30 240 386 0 242 235
 243 0 +.02324354 .000286555357451 .002271159461423 -1 -222044604925e-27 -147827
9226562e-28 141 241 231 241 241 235 16 242 80 244 ?245 137 163 240 0 0 1 133 243
 607 0 246 240 247 0 +247 .02267781 .000286555357451 .002271159461423 .02267781
 .000289079504182744 .002880175193794 0 .00060902096317952 16 246 102 248 ?249 2
50 238 243 0 0 1 30 247 403 0 1 243 251 252 +.02267781 .000286555357451 .0022711
59461423 732469098077573e-31 .00414459745123741 .999991411119099 133 251 613 0 2
8 247 253 0 +253 .02267781 .0003630321979341845 .00227144821074139 .02267781 .00
0365554019871744 .002879903026342 560921588077682e-21 .00060902096317952 141 252
 243 252 252 247 16 28 107 254 ?40 11 250 251 0 0 1 30 253 407 0 1 251 255 256 +
.02267781 .00036302987314 .002270887293971 -148746938483415e-30 .004144597451237
41 .999991411119099 133 255 615 0 257 253 258 0 +258 .02324354 .0003630321979341
845 .00227144821074139 .02324354 .000365554019871744 .002879903026342 5609215880
77683e-21 .00060902096317952 141 256 251 256 256 253 16 257 93 259 ?260 239 136
 255 0 0 1 30 258 396 0 1 255 211 261 +.02324354 .00036302987314 .00227088729397
1 -148746938483415e-30 .00414459745123741 .999991411119099 30 211 336 0 198 258
 262 0 +.02324354 768558e-9 .001485 -1 -3086402105486e-28 7421668226884e-29 141
 261 255 261 261 258 30 262 345 0 185 211 263 0 +.02267781 845033e-9 .001485 1 3
086402105486e-28 -7421668226884e-29 16 185 30 264 ?98 180 222 262 0 0 1 133 263
 631 0 239 262 265 0 +265 .02324354 .000365554019872 .002879903026342 .02324354
 .000289079504183 .002880175193794 0 764749999999283e-19 16 239 95 266 ?267 234
 257 263 0 0 1 30 265 398 0 1 263 29 268 +.02324354 .000365554019872 .0028799030
26342 308112698450779e-30 -.999993667068607 .0035589075122686 133 29 633 0 11 26
5 269 0 +269 .02267781 .000365554019872 .002879903026342 .02324354 .000365554019
872 .002879903026342 0 56573e-8 141 268 263 268 268 265 30 269 409 0 1 29 270 27
1 +.02267781 .000365554019872 .002879903026342 1 307849425932e-27 -7452346182697
e-29 133 270 635 0 250 269 272 0 +272 .02267781 .000289079504183 .00288017519379
4 .02267781 .000365554019872 .002879903026342 0 764749999999283e-19 141 271 29 2
71 271 269 16 250 105 273 ?131 28 246 270 0 0 1 30 272 406 0 1 270 274 275 +.022
67781 .000289079504183 .002880175193794 -308112698450779e-30 .999993667068607 -.
0035589075122686 133 274 637 0 238 272 276 0 +276 .02324354 .000289079504183 .00
2880175193794 .02267781 .000289079504183 .002880175193794 0 56573e-8 141 275 270
 275 275 272 16 238 100 277 ?278 246 234 274 0 0 1 30 276 402 0 1 274 220 279 +.
02324354 .000289079504183 .002880175193794 -1 -307849425932e-27 7452346182697e-2
9 30 220 745 0 212 276 280 0 +.02324354 845033e-9 .001485 3086394816419e-28 -1 -
253632885909101e-31 141 279 274 279 279 276 30 280 750 0 197 220 281 0 +.0226778
1 845033e-9 .001485 -3086394816419e-28 1 253632885909101e-31 16 197 26 282 ?283
 222 193 280 0 0 1 133 281 758 0 136 280 284 0 +284 .02324354 .00036303655358112
 .002272499123303225 .02267781 .0003630365535811195 .002272499123303225 -56573e-
8 0 16 136 90 285 ?132 257 125 281 0 0 1 30 284 759 0 1 281 138 286 +.02267781 .
0003630365535811195 .002272499123303225 -1 -222044604925e-27 -1478279226562e-28
 133 138 770 0 125 284 287 0 +287 .02267781 .000443989393392119 .002192255889947
435 .02267781 .000363039107103361 .00227144827295679 4.72533779761522 3.15059716
9408085 141 286 281 286 286 284 31 287 771 0 1 138 288 289 -.02267781 .000442954
5696395625 .00227216789245266 1 3086394816419e-28 1474690186683e-28 -30863948164
19e-28 1 0 7991870247066e-17 133 288 775 0 144 287 290 0 +290 .02324354 .0004439
893933922775 .002192255889947435 .02324354 .000363039107103361 .0022714482729567
9 4.69944016315217 6.27418079136129 141 289 138 289 289 287 16 144 73 291 ?143 1
63 141 288 0 0 1 31 290 776 0 1 288 148 292 +.02324354 .0004429545696395625 .002
27216789245266 -1 -3086394816419e-28 -1474690186683e-28 3086394816419e-28 -1 0 7
991870247066e-17 133 148 780 0 141 290 293 0 +293 .02267781 .0004429545696395625
 .002192249189982 .02324354 .0004429545696395625 .002192249189982 0 -56573e-8 14
1 292 288 292 292 290 30 293 781 0 1 148 164 294 -.02267781 .0004429545696395625
 .002192249189982 -1 -222044604925e-27 -1478279226562e-28 31 164 788 0 137 293 1
61 0 +.02267781 .000442938568726 .002272151957719 -1 -3086394816419e-28 -1474690
186683e-28 -3086394816419e-28 1 0 .000156386360714 141 294 148 294 294 293 16 13
7 82 295 ?296 125 242 164 0 0 1 81 1 295 911 34 137 0 0 135 244 297 17 296 0 123
 249 158 49 57 137 0 245 +17 249 0 123 131 296 32 52 246 0 278 +17 158 0 123 296
 188 54 63 154 0 233 +17 57 0 298 299 245 54 296 137 0 158 -17 245 0 298 57 300
 49 301 242 0 0 +15 298 79 0 300 302 0 17 300 0 298 245 299 53 110 163 0 0 +17 3
01 0 303 237 52 53 245 242 0 300 -15 303 99 0 237 304 0 17 237 0 303 278 301 41
 113 234 0 267 +17 52 0 303 301 278 49 249 246 0 296 -17 278 0 303 52 237 32 305
 238 0 0 +17 305 0 37 39 38 41 278 238 0 237 -15 37 114 0 39 17 0 17 39 0 37 31
 305 45 267 239 0 260 -17 38 0 37 305 31 32 131 250 0 249 -18 41 96 306 305 32 4
5 44 5e-7 1 81 1 306 879 34 41 0 0 35 47 307 29 44 397 0 41 0 42 .02324354 .0002
89079504183 .002880175193794 80 7 CCCCCDI12 legal_owners0 17 1 lCZ1 34 308 309 9
000 0 0 0 0 3 5 0 0 0 FFTFTFTTFFFFFFFFF2 81 1 35 878 34 32 0 0 30 306 310 81 1 4
7 880 34 45 0 0 306 118 311 83 255 1 307 7825 81 1 118 881 34 48 0 0 47 51 312 8
3 1 311 7826 81 1 51 882 34 49 0 0 118 112 313 83 1 312 7827 81 1 112 883 34 53
 0 0 51 116 314 83 1 313 7828 81 1 116 884 34 114 0 0 112 120 315 83 1 314 7829
 83 1 315 7830 83 1 310 7824 79 255 13 309 BTI/importTag17 131 0 123 119 249 12
 38 250 0 0 +17 267 0 316 113 260 41 39 239 0 0 +17 260 0 316 267 143 45 117 257
 0 0 +15 316 4 0 201 317 0 17 143 0 316 260 146 114 139 144 0 0 +17 117 0 318 13
2 27 114 260 257 0 134 -15 318 109 0 40 319 0 17 132 0 318 40 117 48 134 136 0 1
24 +17 27 0 318 117 40 45 31 11 0 39 +17 134 0 133 139 124 114 132 136 0 143 -17
 40 0 318 27 132 12 119 28 0 131 +14 255 319 108 320 ?304 321 318 6 322 -0 0 304
 321 25 81 1 320 939 34 319 0 0 323 324 325 14 304 98 324 ?142 319 303 6 326 -0
 0 142 319 25 14 321 111 323 ?319 17 327 6 328 -0 0 319 17 25 50 322 408 0 319 3
26 328 0 +.02267781 .00036302987314 .002270887293971 308155651599931e-30 -.99999
1411119099 .00414459745123741 1 30784942593204e-29 -745234618269702e-31 13 25 2
 0 0 0 0 0 0 10 17 14 17 113 329 ?321 0 37 6 330 +0 0 321 0 25 81 1 329 937 34 1
7 0 0 200 323 331 50 330 411 0 17 328 20 0 +.02324354 .000365554019872 .00287990
3026342 -933622647015433e-30 .0035589075122706 .999993667068607 -221517092827213
e-30 .999993667068607 -.0035589075122706 50 328 410 0 321 322 330 0 +.02324354 8
45033e-9 .001485 244664264297e-27 -2536328859091e-29 1 -1 -222044604925e-27 2446
64264297e-27 51 255 20 652 0 142 330 7 0 +.02267781 .0004429545696395625 .002272
16789245266 -1 -222044604925e-27 -1478279226562e-28 7991870247066e-17 2249522074
97802e-30 -.999800613211325 -.0199683204666665 14 142 88 332 ?302 304 133 6 20 -
0 0 302 304 25 81 1 332 941 34 142 0 0 324 333 334 14 302 78 333 ?149 142 298 6
 335 +0 0 149 142 25 81 1 333 942 34 302 0 0 332 336 337 14 149 68 336 ?338 302
 145 6 339 -0 0 338 302 25 51 335 384 0 302 339 340 0 +.02324354 .00044293856872
6 .002272151957719 -1 -222044604925e-27 -1478279226562e-28 .000156386360714 2235
83233130615e-30 -.999944969023973 -.0104908971801797 50 339 376 0 149 341 335 0
 +.02267781 .000602460129643 .002192249189982 2345535636772e-28 2536328859091e-2
9 -1 1 4440384532162e-28 2345535636772e-28 50 340 394 0 317 335 326 0 +.02324354
 .000326054688661 .002575531243882 -1 -3086394816419e-28 -1474690186683e-28 3081
12698450872e-30 -.999993667068607 .0035589075122686 14 317 3 342 ?0 343 316 6 34
0 -0 0 0 343 25 50 326 400 0 304 340 322 0 +.02324354 .000286555357451 .00227115
9461423 -308155651599931e-30 .999991411119099 -.00414459745123741 -1 -3078494259
3204e-29 745234618269702e-31 81 1 342 950 34 317 0 0 344 345 346 14 343 13 344 ?
317 19 216 6 347 -0 0 317 19 25 81 1 344 949 34 343 0 0 348 342 349 14 19 20 348
 ?343 350 123 6 7 -0 0 343 350 25 15 216 14 0 217 343 0 50 347 331 0 343 0 351 0
 +.02324354 768558e-9 .001485 -308683625895632e-30 .999999828481103 -.0005856942
5855026 -1 -308640210548567e-30 7421668226884e-29 50 351 343 0 350 347 352 0 +.0
2267781 845033e-9 .001485 308683625895632e-30 -.999999828481103 .000585694258550
26 1 308640210548567e-30 -7421668226884e-29 14 350 27 353 ?19 354 355 6 351 -0 0
 19 354 25 51 352 352 0 354 351 356 0 +.02324354 .000600864287381 .0019478094544
02 1 222044604925e-27 1478279226562e-28 .000167972761131 -26205408217449e-29 .71
4184556883541 .699957440641258 14 354 38 357 ?350 358 359 6 352 -0 0 350 358 25
 51 356 360 0 358 352 341 0 +.02267781 .000600864287381 .001947809454402 1 22204
4604925e-27 1478279226562e-28 .000244444944809 -261891262066961e-30 .71191369854
5834 .702266961933132 14 358 48 360 ?354 338 361 6 356 +0 0 354 338 25 50 341 36
8 0 338 356 339 0 +.02324354 .000602504920612 .002115774203099 -2345535636772e-2
8 -2536328859091e-29 1 -1 -4440384532162e-28 -2345535636772e-28 14 338 58 362 ?3
58 149 363 6 341 -0 0 358 149 25 81 1 362 944 34 338 0 0 336 360 364 15 363 59 0
 175 338 0 17 175 0 363 233 228 59 107 170 0 0 +17 233 0 363 63 175 54 299 159 0
 0 +17 228 0 363 175 63 65 365 189 0 192 +17 107 0 316 104 110 65 175 170 0 228
 -17 104 0 316 366 107 94 192 184 0 218 -17 110 0 316 107 113 59 300 163 0 299 -
17 113 0 316 110 267 53 237 234 0 301 -16 163 77 367 ?300 242 144 161 0 0 1 17 2
99 0 298 300 57 59 233 159 0 175 -81 1 367 913 34 163 0 0 244 291 368 81 1 244 9
12 34 242 0 0 295 367 369 81 1 291 914 34 144 0 0 367 147 370 83 1 368 7859 81 1
 147 915 34 141 0 0 291 153 371 83 1 370 7860 83 1 371 7861 83 1 369 7858 17 366
 0 316 372 104 71 217 21 0 0 -17 192 0 359 365 218 65 104 184 0 0 +17 218 0 359
 192 69 94 209 204 0 217 -15 359 39 0 192 354 0 17 69 0 359 218 365 66 188 179 0
 127 -17 217 0 216 209 101 94 366 21 0 0 +17 101 0 216 217 208 71 210 198 0 219
 -16 21 10 373 ?217 212 199 8 0 0 1 81 1 373 935 34 21 0 0 214 200 374 81 1 214
 934 34 212 0 0 206 373 375 81 1 200 936 34 199 0 0 373 329 376 83 1 374 7881 83
 1 376 7882 83 1 375 7880 17 208 0 216 101 209 70 127 202 0 0 -17 210 0 327 283
 219 70 101 198 0 208 +17 219 0 327 210 98 71 372 212 0 366 +15 327 112 0 219 32
1 0 17 98 0 327 219 283 95 79 185 0 372 +17 372 0 316 201 366 95 219 212 0 377 -
17 201 0 316 183 372 90 377 199 0 0 +17 377 0 355 79 225 95 201 199 0 0 -15 355
 28 0 196 350 0 17 79 0 355 196 377 76 98 185 0 283 -17 225 0 355 377 196 90 378
 222 0 201 +17 196 0 355 225 79 75 379 193 0 0 +17 378 0 361 152 93 75 225 222 0
 196 -15 361 49 0 152 358 0 17 152 0 361 150 378 64 83 176 0 0 +17 93 0 361 378
 150 90 183 180 0 225 -17 150 0 361 93 152 80 130 151 0 183 +17 183 0 316 146 20
1 80 93 180 0 0 +17 146 0 316 143 183 23 89 167 0 0 +18 23 54 380 139 59 64 9 10
44910516487422e-21 1 17 89 0 145 130 140 80 146 167 0 150 -81 1 380 888 34 23 0
 0 109 85 381 81 1 109 887 34 59 0 0 56 380 382 81 1 85 889 34 64 0 0 380 62 383
 83 1 381 7834 81 1 62 890 34 60 0 0 85 106 384 83 1 383 7835 81 1 106 891 34 65
 0 0 62 88 385 83 1 384 7836 81 1 88 892 34 80 0 0 106 78 386 83 1 385 7837 81 1
 78 893 34 76 0 0 88 82 387 83 1 386 7838 81 1 82 894 34 75 0 0 78 73 388 83 1 3
87 7839 81 1 73 895 34 70 0 0 82 68 389 83 1 388 7840 81 1 68 896 34 66 0 0 73 1
00 390 83 1 389 7841 81 1 100 897 34 71 0 0 68 103 391 83 1 390 7842 81 1 103 89
8 34 94 0 0 100 92 392 83 1 391 7843 81 1 92 899 34 90 0 0 103 97 393 83 1 392 7
844 81 1 97 900 34 95 0 0 92 26 394 83 1 393 7845 81 1 26 901 34 11 0 0 97 254 3
95 83 1 394 7846 81 1 254 902 34 28 0 0 26 273 396 83 1 395 7847 81 1 273 903 34
 250 0 0 254 248 397 83 1 396 7848 81 1 248 904 34 246 0 0 273 277 398 83 1 397
 7849 81 1 277 905 34 238 0 0 248 236 399 83 1 398 7850 81 1 236 906 34 234 0 0
 277 266 400 83 1 399 7851 81 1 266 907 34 239 0 0 236 259 401 83 1 400 7852 81
 1 259 908 34 257 0 0 266 285 402 83 1 401 7853 81 1 285 909 34 136 0 0 259 135
 403 83 1 402 7854 81 1 135 910 34 125 0 0 285 295 404 83 1 403 7855 83 1 404 78
56 81 1 56 886 34 54 0 0 120 109 405 83 1 382 7833 83 1 405 7832 17 83 0 123 379
 86 75 152 176 0 378 -17 379 0 123 74 83 76 196 193 0 0 -17 74 0 123 127 379 70
 283 197 0 210 -17 283 0 327 98 210 76 74 197 0 379 +17 365 0 359 69 192 60 228
 189 0 0 -17 188 0 123 158 127 60 69 179 0 365 +17 63 0 363 228 233 60 158 154 0
 188 -81 1 336 943 34 149 0 0 333 362 406 81 1 360 945 34 358 0 0 362 357 407 83
 1 364 7890 81 1 357 946 34 354 0 0 360 353 408 83 1 407 7891 81 1 353 947 34 35
0 0 0 357 348 409 83 1 408 7892 81 1 348 948 34 19 0 0 353 344 410 83 1 409 7893
 83 1 410 7894 83 1 406 7889 83 1 349 7895 81 1 345 951 34 1 411 412 342 0 413 8
3 1 346 7896 81 1 411 875 414 1 0 345 0 0 415 81 1 412 952 416 1 345 417 0 0 418
 83 1 413 7897 80 1 416 34 419 9000 0 0 0 0 3 5 0 0 0 FFTFTFTTFFFFFFFFF2 81 1 41
7 1029 420 1 412 14 0 0 421 83 1 418 17325 80 1 420 422 423 8040 0 0 0 0 3 5 0 0
 0 TTTFFFFFFFFFFFFFF2 81 1 14 1030 424 1 417 2 0 0 425 83 3 421 .690196078431373
 .690196078431373 .690196078431373 80 1 424 13 426 8038 0 0 0 0 0 0 0 0 0 TTTTTT
TTTTTTTFTFT10 98 255 25 425 72 67 45 48 52 67 108 111 110 101 95 111 102 95 65 1
14 114 97 121 48 48 50 48 48 51 79 14 426 SDL/TYSA_UNAME79 17 423 SDL/TYSA_COLOU
R_279 18 419 BTI/importMaxCount80 1 414 427 428 9000 0 0 0 0 3 5 0 0 0 TTTFFFFFF
FFFFFFFF1 82 255 1 415 40 79 23 428 ONSHAPE_ORIGINALBODY_ID83 1 337 7888 81 1 32
4 940 34 304 0 0 320 332 429 83 1 334 7887 83 1 429 7886 81 1 323 938 34 321 0 0
 329 320 430 83 1 331 7883 83 1 430 7884 83 1 325 7885 83 1 297 7857 81 1 282 92
9 34 197 0 0 224 195 431 81 1 224 928 34 222 0 0 264 282 432 81 1 195 930 34 193
 0 0 282 205 433 83 1 431 7875 81 1 205 931 34 198 0 0 195 203 434 83 1 433 7876
 83 1 434 7877 81 1 264 927 34 185 0 0 182 224 435 83 1 432 7874 81 1 182 926 34
 180 0 0 191 264 436 83 1 435 7873 81 1 191 925 34 184 0 0 227 182 437 83 1 436
 7872 81 1 227 924 34 189 0 0 187 191 438 83 1 437 7871 81 1 187 923 34 179 0 0
 178 227 439 83 1 438 7870 81 1 178 922 34 176 0 0 230 187 440 83 1 439 7869 81
 1 230 921 34 151 0 0 169 178 441 83 1 440 7868 81 1 169 920 34 167 0 0 174 230
 442 83 1 441 7867 81 1 174 919 34 170 0 0 232 169 443 83 1 442 7866 81 1 232 91
8 34 159 0 0 156 174 444 83 1 443 7865 81 1 156 917 34 154 0 0 153 232 445 83 1
 444 7864 83 1 445 7863 83 1 215 7879 83 1 207 7878 83 1 157 7862 83 1 122 7831
 83 1 36 7823 19 18 115 0 1 0 10 6 0 S0 74 4 CI16 index_map_offset0 0 1 dCCZ20 1
6 6 0 0 411 345 412 417 14 2 0 0 0 0 0 0 0 0 0 0 0 0 0 0 80 1 13 446 447 8017 0
 0 0 0 0 0 0 0 0 TTTTTTTTTTTTTFTFT3 84 255 25 15 HC-04Clone_of_Array00200379 13
 447 SDL/TYSA_NAME1 0 
