**ABCDEFGHIJKLMNOPQRSTUVWXYZabcdefghijklmnopqrstuvwxyz**************************
**PARASOLID !"#$%&'()*+,-./:;<=>?@[\]^_`{|}~0123456789**************************
**PART1;
MC=unknown;
MC_MODEL=unknown;
MC_ID=unknown;
OS=unknown;
OS_RELEASE=unknown;
FRU=Parasolid 37.0.173;
APPL=Onshape;
SITE=unknown;
USER=unknown;
FORMAT=text;
GUISE=transmit;
KEY=BTGapi::writeModels_.xmt;
FILE=BTGapi::writeModels_.xmt;
DATE=2024-12-29T04:00:28 (UTC);
**PART2;
SCH=SCH_3700173_36001;
USFLD_SIZE=0;
**PART3;
**END_OF_HEADER*****************************************************************
T51 : TRANSMIT FILE created by modeller version 370017323 SCH_3700173_36001_1300
6231 0 12 36 CCCI7 lattice222 0 CCCI4 mesh1006 0 I8 polyline1008 0 CCCCCCCDI5 ow
ner1040 0 CCCI16 boundary_lattice222 0 CCCI13 boundary_mesh1006 0 I17 boundary_p
olyline1008 0 CCCA16 index_map_offset0 0 1 dA9 index_map82 0 A17 node_id_index_m
ap82 0 A20 schema_embedding_map82 0 A5 child12 0 A14 lowest_node_id0 0 1 dA16 me
sh_offset_data206 0 Z1 159 2 3 0 0 0 0 0 0 0 1e3 1e-8 0 4 5 1 0 3 2 6 0 7 8 9 0
 0 10 11 12 0 0 0 0 0 0 0 81 255 1 2 140 13 1 14 0 0 0 15 70 11 CI9 list_type0 0
 1 uI10 notransmit0 0 1 lCCCDCCDI12 finger_index0 0 1 dI12 finger_block1012 0 CZ
3 0 4 T1 0 0 5 20 1 16 16 13 255 6 2 0 1 0 17 0 0 10 17 50 255 7 50 0 17 0 0 0 +
8995e-7 0 96e-5 0 1 0 -1 0 0 30 255 8 66 0 1 18 0 19 +5645e-7 0 96e-5 0 0 -1 29
 255 9 64 0 12 20 0 5645e-7 0 -1110223024625e-31 19 9 CCCCCCI5 frame230 0 CA5 ow
ner12 0 Z10 1 0 1 0 0 6 0 V0 16 255 11 20 21 ?22 0 23 18 0 0 1 18 255 12 19 24 2
2 0 25 9 5e-7 1 81 1 24 122 26 12 0 0 0 27 28 17 255 22 0 0 0 0 12 29 11 0 30 +1
8 25 17 27 31 12 32 20 5e-7 1 81 1 27 123 26 25 0 0 24 33 34 17 31 0 0 0 0 25 30
 23 0 35 +18 32 15 33 36 25 37 38 5e-7 1 29 20 62 0 25 38 9 358e-6 0 -1110223024
625e-31 29 38 60 0 32 39 20 358e-6 0 96e-5 29 39 58 0 37 40 38 23e-6 0 96e-5 18
 37 13 41 42 32 43 39 5e-7 1 29 40 56 0 43 44 39 23e-6 0 .00112 18 43 11 45 46 3
7 47 40 5e-7 1 29 44 54 0 47 48 40 8995e-7 0 .00112 18 47 9 49 50 43 51 44 5e-7
 1 29 48 52 0 51 52 44 5645e-7 0 96e-5 18 51 7 53 29 47 54 48 5e-7 1 29 52 51 0
 54 0 48 8995e-7 0 96e-5 18 54 6 55 56 51 0 52 5e-7 1 81 1 55 129 26 54 0 0 53 2
1 57 17 56 0 0 0 0 54 58 59 0 60 +17 58 0 61 62 60 47 56 59 0 0 -16 59 8 63 ?56
 64 65 66 0 0 1 17 60 0 61 58 29 54 67 65 0 0 -15 255 61 4 0 60 17 0 17 29 0 61
 60 30 51 22 11 0 67 -17 67 0 0 0 0 51 60 65 0 0 +16 65 5 68 ?67 59 0 69 0 0 1 8
1 1 68 137 26 65 0 0 63 70 71 133 255 69 90 0 65 0 72 0 +72 8995e-7 0 96e-5 5645
e-7 0 96e-5 0 335e-6 30 72 53 0 1 69 66 73 +8995e-7 0 96e-5 -1 0 0 133 66 92 0 5
9 72 74 0 +74 8995e-7 0 .00112 8995e-7 0 96e-5 0 16e-5 141 255 73 69 73 73 72 30
 74 55 0 1 66 75 76 +8995e-7 0 .00112 0 0 -1 133 75 94 0 64 74 77 0 +77 23e-6 0
 .00112 8995e-7 0 .00112 0 8765e-7 141 76 66 76 76 74 16 64 10 78 ?50 79 59 75 0
 0 1 30 77 57 0 1 75 80 81 +23e-6 0 .00112 1 0 0 133 80 96 0 79 77 82 0 +82 23e-
6 0 96e-5 23e-6 0 .00112 0 16e-5 141 81 75 81 81 77 16 79 12 83 ?46 84 64 80 0 0
 1 30 82 59 0 1 80 85 86 +23e-6 0 96e-5 0 0 1 133 85 98 0 84 82 87 0 +87 358e-6
 0 96e-5 23e-6 0 96e-5 0 335e-6 141 86 80 86 86 82 16 84 14 88 ?42 89 79 85 0 0
 1 30 87 61 0 1 85 90 91 +358e-6 0 96e-5 -1 0 0 133 90 100 0 89 87 92 0 +92 358e
-6 0 -1110223024625e-31 358e-6 0 96e-5 -1110223024625e-31 96e-5 141 91 85 91 91
 87 16 89 16 93 ?36 23 84 90 0 0 1 30 92 63 0 1 90 94 95 +358e-6 0 0 0 0 1 133 9
4 102 0 23 92 96 0 +96 5645e-7 0 0 358e-6 0 0 0 2065e-7 141 95 90 95 95 92 16 23
 18 97 ?31 11 89 94 0 0 1 30 96 65 0 1 94 18 98 +5645e-7 0 0 -1 0 0 133 18 104 0
 11 96 8 0 +8 5645e-7 0 96e-5 5645e-7 0 -1084202172485504e-34 0 96e-5 141 98 94
 98 98 96 81 1 97 131 26 23 0 0 21 93 99 80 7 CCCCCDI12 legal_owners0 17 1 lCZ1
 26 100 101 9000 0 0 0 0 3 5 0 0 0 FFTFTFTTFFFFFFFFF2 81 1 21 130 26 11 0 0 55 9
7 102 81 1 93 132 26 89 0 0 97 88 103 83 255 1 99 3023 81 1 88 133 26 84 0 0 93
 83 104 83 1 103 3024 81 1 83 134 26 79 0 0 88 78 105 83 1 104 3025 81 1 78 135
 26 64 0 0 83 63 106 83 1 105 3026 81 1 63 136 26 59 0 0 78 68 107 83 1 106 3027
 83 1 107 3028 83 1 102 3022 79 255 13 101 BTI/importTag17 36 0 0 0 0 32 35 89 0
 108 +17 35 0 61 30 108 25 36 89 0 0 -17 108 0 61 35 109 32 42 84 0 0 -17 109 0
 61 108 62 37 46 79 0 0 -17 42 0 0 0 0 37 108 84 0 109 +17 62 0 61 109 58 43 50
 64 0 0 -17 46 0 0 0 0 43 109 79 0 62 +17 50 0 0 0 0 47 62 64 0 58 +17 30 0 61 2
9 35 12 31 23 0 0 -81 1 70 138 26 17 0 0 68 14 110 83 1 71 3029 14 255 17 3 70 ?
0 0 61 6 7 -0 0 0 0 6 81 1 14 139 26 1 111 2 70 0 112 83 1 110 3030 81 1 111 120
 113 1 114 14 0 0 115 83 1 112 3031 80 1 113 116 117 9000 0 0 0 0 3 5 0 0 0 TTTF
FFFFFFFFFFFFF1 81 1 114 89 118 1 119 111 0 0 120 82 255 1 115 5 80 1 118 121 122
 8038 0 0 0 0 0 0 0 0 0 TTTTTTTTTTTTTFTFT10 81 1 119 88 121 1 0 114 0 0 123 98 2
55 19 120 72 67 45 48 52 83 104 97 112 101 83 116 114 105 110 103 48 48 56 80 1
 121 124 125 8017 0 0 0 0 0 0 0 0 0 TTTTTTTTTTTTTFTFT3 84 255 19 123 HC-04ShapeS
tring00879 13 125 SDL/TYSA_NAME79 14 122 SDL/TYSA_UNAME79 23 117 ONSHAPE_ORIGINA
LBODY_ID81 1 53 128 26 51 0 0 49 55 126 83 1 57 3021 81 1 49 127 26 47 0 0 45 53
 127 83 1 126 3020 81 1 45 126 26 43 0 0 41 49 128 83 1 127 3019 81 1 41 125 26
 37 0 0 33 45 129 83 1 128 3018 81 1 33 124 26 32 0 0 27 41 130 83 1 129 3017 83
 1 130 3016 83 1 34 3015 83 1 28 3014 141 19 18 19 19 8 74 4 CI16 index_map_offs
et0 0 1 dCCZ20 16 5 0 0 119 114 111 14 2 0 0 0 0 0 0 0 0 0 0 0 0 0 0 0 80 1 13 2
6 131 9000 0 0 0 0 3 5 0 0 0 FFTFTFTTFFFFFFFFF2 83 1 15 17325 79 18 131 BTI/impo
rtMaxCount1 0 
