**ABCDEFGHIJKLMNOPQRSTUVWXYZabcdefghijklmnopqrstuvwxyz**************************
**PARASOLID !"#$%&'()*+,-./:;<=>?@[\]^_`{|}~0123456789**************************
**PART1;
MC=unknown;
MC_MODEL=unknown;
MC_ID=unknown;
OS=unknown;
OS_RELEASE=unknown;
FRU=Parasolid 37.0.173;
APPL=Onshape;
SITE=unknown;
USER=unknown;
FORMAT=text;
GUISE=transmit;
KEY=BTGapi::writeModels_.xmt;
FILE=BTGapi::writeModels_.xmt;
DATE=2024-12-29T04:00:27 (UTC);
**PART2;
SCH=SCH_3700173_36001;
USFLD_SIZE=0;
**PART3;
**END_OF_HEADER*****************************************************************
T51 : TRANSMIT FILE created by modeller version 370017323 SCH_3700173_36001_1300
6231 0 12 36 CCCI7 lattice222 0 CCCI4 mesh1006 0 I8 polyline1008 0 CCCCCCCDI5 ow
ner1040 0 CCCI16 boundary_lattice222 0 CCCI13 boundary_mesh1006 0 I17 boundary_p
olyline1008 0 CCCA16 index_map_offset0 0 1 dA9 index_map82 0 A17 node_id_index_m
ap82 0 A20 schema_embedding_map82 0 A5 child12 0 A14 lowest_node_id0 0 1 dA16 me
sh_offset_data206 0 Z1 351 2 3 0 0 0 0 0 0 0 1e3 1e-8 0 4 5 1 0 3 2 6 0 7 8 9 0
 0 10 11 12 0 0 0 0 0 0 0 81 255 1 2 316 13 1 14 0 0 0 15 70 11 CI9 list_type0 0
 1 uI10 notransmit0 0 1 lCCCDCCDI12 finger_index0 0 1 dI12 finger_block1012 0 CZ
3 0 4 T1 0 0 5 20 1 16 16 13 255 6 2 0 1 0 17 0 0 10 17 50 255 7 90 0 17 0 0 0 +
.0018205 0 .001023 0 -1 0 1 0 0 31 255 8 281 0 1 18 0 19 +.001680669637632555 85
6293222166398e-35 .001030734490068434 51046339735265e-30 1 -33818200074613e-30 .
915031274834206 -603506810289293e-31 -.403382902556973 .0001418862567194446 29 2
55 9 120 0 12 20 0 .001784 0 9335e-7 19 9 CCCCCCI5 frame230 0 CA5 owner12 0 Z10
 1 0 1 0 0 6 0 V0 16 255 11 36 21 ?22 0 23 18 0 0 1 18 255 12 35 24 22 0 25 9 5e
-7 1 81 1 24 282 26 12 0 0 0 27 28 17 255 22 0 0 0 0 12 29 11 0 30 +18 25 33 27
 31 12 32 20 5e-7 1 81 1 27 283 26 25 0 0 24 33 34 17 31 0 0 0 0 25 30 23 0 35 +
18 32 31 33 36 25 37 38 5e-7 1 29 20 118 0 25 38 9 .001745 0 906e-6 29 38 116 0
 32 39 20 .0016975 0 896e-6 29 39 114 0 37 40 38 .001651 0 906e-6 18 37 29 41 42
 32 43 39 5e-7 1 29 40 112 0 43 44 39 .001613 0 9335e-7 18 43 27 45 46 37 47 40
 5e-7 1 29 44 110 0 47 48 40 .001587 0 9735e-7 18 47 25 49 50 43 51 44 5e-7 1 29
 48 108 0 51 52 44 .0015775 0 .001023 18 51 23 53 54 47 55 48 5e-7 1 29 52 106 0
 55 56 48 .001587 0 .0010735 18 55 21 57 58 51 59 52 5e-7 1 29 56 104 0 59 60 52
 .001613 0 .001114 18 59 19 61 62 55 63 56 5e-7 1 29 60 102 0 63 64 56 .001651 0
 .0011415 18 63 17 65 66 59 67 60 5e-7 1 29 64 100 0 67 68 60 .0016975 0 .001152
 18 67 15 69 70 63 71 64 5e-7 1 29 68 98 0 71 72 64 .001745 0 .0011415 18 71 13
 73 74 67 75 68 5e-7 1 29 72 96 0 75 76 68 .001784 0 .001114 18 75 11 77 78 71 7
9 72 5e-7 1 29 76 94 0 79 80 72 .0018105 0 .0010735 18 79 9 81 82 75 83 76 5e-7
 1 29 80 92 0 83 84 76 .0018105 0 9735e-7 18 83 7 85 29 79 86 80 5e-7 1 29 84 91
 0 86 0 80 .0018205 0 .001023 18 86 6 87 88 83 0 84 5e-7 1 81 1 87 297 26 86 0 0
 85 21 89 17 88 0 0 0 0 86 90 91 0 92 +17 90 0 93 94 92 79 88 91 0 0 -16 91 8 95
 ?88 96 97 98 0 0 1 17 92 0 93 90 29 86 99 97 0 0 -15 255 93 4 0 92 17 0 17 29 0
 93 92 30 83 22 11 0 99 -17 99 0 0 0 0 83 92 97 0 0 +16 97 5 100 ?99 91 0 101 0
 0 1 81 1 100 313 26 97 0 0 95 102 103 133 255 101 220 0 97 0 104 0 +104 .001820
5 -150463276905253e-50 .001023 .0018105 -150463276905253e-50 9735e-7 75338169945
3159e-48 .41355583358347 31 104 221 0 1 101 98 105 +.00169751716778485 737031165
681263e-35 .00102208491559902 600198183740534e-31 1 -121252158331422e-31 .999972
31877566 -599279387603357e-31 .0074405431542007 .0001229862366247576 133 98 224
 0 91 104 106 0 +106 .0018105 0 .0010735 .0018205 0 .001023 739596980597701e-48
 .4055398741293095 141 255 105 101 105 105 104 31 106 225 0 1 98 107 108 +.00169
2685980447955 766621235427345e-35 .00102393039216791 600660139451169e-31 1 11894
2601871519e-31 .921736901333309 -599778434456139e-31 .3878157870954575 .00012781
740579294 133 107 228 0 96 106 109 0 +109 .001784 150463276905253e-50 .001114 .0
018105 150463276905253e-50 .0010735 678528984628588e-48 .3703482445967525 141 10
8 98 108 108 106 16 96 10 110 ?82 111 91 107 0 0 1 31 109 229 0 1 107 112 113 +.
001689146259058165 791054409350607e-35 .001023015453457812 512384613192895e-31 1
 33526400616325e-30 .721672502397341 -601855245201748e-31 .692234641782366 .0001
31435991570604 133 112 232 0 111 109 114 0 +114 .001745 0 .0011415 .001784 0 .00
1114 729858587784198e-48 .3998935152334645 141 113 107 113 113 109 16 111 12 115
 ?78 116 96 112 0 0 1 31 114 233 0 1 112 117 118 +.001696650567526155 7209410205
07743e-35 .00103152716849164 3528646838164215e-32 1 500426278866929e-31 .4024693
06663785 -60012417483123e-30 .915433480485378 .000120131974471865 133 117 236 0
 116 114 119 0 +119 .0016975 -601853107621011e-50 .001152 .001745 -3009265538105
055e-51 .0011415 815195954247245e-48 .4498614945780395 141 118 112 118 118 114 1
6 116 14 120 ?74 121 111 117 0 0 1 31 119 237 0 1 117 122 123 +.0016983044456101
1 650943607726634e-35 .001042948682521924 1321651340314304e-32 1 597889892046954
e-31 -.00737656125576413 -596898700931163e-31 .999972792801904 .0001090542845395
98 133 122 240 0 121 119 124 0 +124 .001651 -376158192263132e-50 .0011415 .00169
75 -601853107621011e-50 .001152 634386481714016e-31 .45007760823874 141 123 117
 123 123 119 16 121 16 125 ?70 126 116 122 0 0 1 31 124 241 0 1 122 127 128 +.00
1697184155949795 637567637232285e-35 .00104518445222234 -1348708855899202e-32 1
 597285350469652e-31 -.432371082773319 -596883939918747e-31 .901695761763039 .00
0106816014737987 133 127 244 0 126 124 129 0 +129 .001613 -150463276905253e-50 .
001114 .001651 -3009265538105055e-51 .0011415 58395621019725e-30 .40703161207581
4 141 128 122 128 128 124 16 126 18 130 ?66 131 121 127 0 0 1 31 129 245 0 1 127
 132 133 +.001698626953321475 695879642394418e-35 .001035683664501234 -358986019
0801495e-32 1 496053408183485e-31 -.737905050128661 -599686293259472e-31 .674904
539171739 .0001160406116024608 133 132 248 0 131 129 134 0 +134 .001587 75231638
4526264e-50 .0010735 .001613 902779661431517e-50 .001114 0 .3544724701784435 141
 133 127 133 133 129 16 131 20 135 ?62 136 126 132 0 0 1 31 134 249 0 1 132 137
 138 +.001713055431392795 822640298725821e-35 .001021171204537956 -5152798540170
84e-31 1 330796943319609e-31 -.923581546926222 -602731188387694e-31 .38340204247
93895 .0001364854373848454 133 137 252 0 136 134 139 0 +139 .0015775 0 .001023 .
001587 -150463276905253e-50 .0010735 70729620545176e-47 .3868629499986245 141 13
8 132 138 138 134 16 136 22 140 ?58 141 131 137 0 0 1 31 139 253 0 1 137 142 143
 +.001711155060027755 803160847453194e-35 .001024000533262104 -601768081151727e-
31 1 113203896454285e-31 -.999971981556642 -600903807135842e-31 -.00748572653001
756 .0001336588049394118 133 142 256 0 141 139 144 0 +144 .001587 0 9735e-7 .001
5775 0 .001023 0 .3945734912930775 141 143 137 143 143 139 16 141 24 145 ?54 146
 136 142 0 0 1 31 144 257 0 1 142 147 148 +.001706070060057775 772015939400944e-
35 .001022013445869674 -601348809279512e-31 1 -1154103775384924e-32 -.9260830615
00844 -600445556457247e-31 -.377319709531882 .0001285738450553282 133 147 260 0
 146 144 149 0 +149 .001613 902779661431517e-50 9335e-7 .001587 752316384526264e
-50 9735e-7 550040087899208e-30 .3241243543911395 141 148 142 148 148 144 16 146
 26 150 ?50 151 141 147 0 0 1 31 149 261 0 1 147 152 153 +.00172232711336735 893
366619542292e-35 .00103301262368878 -513398645484053e-31 1 -333709119564636e-31
 -.73952130051524 -604299906923284e-31 -.673133156280575 .0001478349755323896 13
3 152 264 0 151 149 154 0 +154 .001651 -601853107621011e-50 906e-6 .001613 -6018
53107621011e-50 9335e-7 3749750071204895e-31 .372966740382191 141 153 147 153 15
3 149 16 151 28 155 ?46 156 146 152 0 0 1 31 154 265 0 1 152 157 158 +.001704876
412572745 761151596943329e-35 .0010204519519187 -3589860190801515e-32 1 -4960534
08183483e-31 -.4259049243930555 -601707125377171e-31 -.90476792349074 .000126498
6843003086 133 157 268 0 156 154 159 0 +159 .0016975 0 896e-6 .001651 3009265538
105055e-51 906e-6 333063914858812e-32 .430807429098474 141 158 152 158 158 154 1
6 156 30 160 ?42 161 151 157 0 0 1 31 159 269 0 1 157 162 163 +.0016971021057600
1 66554493062592e-34 .00100726229178405 -1287391263568334e-32 1 -598636937559272
e-31 .003576159445239735 -598172717945473e-31 -.999993605521366 .000111263003252
948 133 162 272 0 161 159 164 0 +164 .001745 451389830715758e-50 906e-6 .0016975
 0 896e-6 0 .4305294384055915 141 163 157 163 163 159 16 161 32 165 ?36 23 156 1
62 0 0 1 31 164 273 0 1 162 166 167 +.00169838267239835 679683854183141e-35 .001
009619806107842 126145038104248e-31 1 -599188930995177e-31 .4102798846421435 -59
8190903756374e-31 -.911959657143905 .0001136232346421564 133 166 276 0 23 164 16
8 0 +168 .001784 0 9335e-7 .001745 0 906e-6 671096436272801e-48 .366098728572486
5 141 167 162 167 167 164 16 23 34 169 ?31 11 161 166 0 0 1 31 168 277 0 1 166 1
8 170 +.001690224506990965 789221777931482e-35 .001025086153721902 3528646838164
23e-31 1 -500426278866928e-31 .71540864538694 -60209343074895e-30 -.698706283144
515 .0001310796194786182 133 18 280 0 11 168 8 0 +8 .0018105 0 9735e-7 .001784 0
 9335e-7 0 .339803113291113 141 170 166 170 170 168 81 1 169 299 26 23 0 0 21 16
5 171 80 7 CCCCCDI12 legal_owners0 17 1 lCZ1 26 172 173 9000 0 0 0 0 3 5 0 0 0 F
FTFTFTTFFFFFFFFF2 81 1 21 298 26 11 0 0 87 169 174 81 1 165 300 26 161 0 0 169 1
60 175 83 255 1 171 2947 81 1 160 301 26 156 0 0 165 155 176 83 1 175 2948 81 1
 155 302 26 151 0 0 160 150 177 83 1 176 2949 81 1 150 303 26 146 0 0 155 145 17
8 83 1 177 2950 81 1 145 304 26 141 0 0 150 140 179 83 1 178 2951 81 1 140 305 2
6 136 0 0 145 135 180 83 1 179 2952 81 1 135 306 26 131 0 0 140 130 181 83 1 180
 2953 81 1 130 307 26 126 0 0 135 125 182 83 1 181 2954 81 1 125 308 26 121 0 0
 130 120 183 83 1 182 2955 81 1 120 309 26 116 0 0 125 115 184 83 1 183 2956 81
 1 115 310 26 111 0 0 120 110 185 83 1 184 2957 81 1 110 311 26 96 0 0 115 95 18
6 83 1 185 2958 81 1 95 312 26 91 0 0 110 100 187 83 1 186 2959 83 1 187 2960 83
 1 174 2946 79 255 13 173 BTI/importTag17 36 0 0 0 0 32 35 161 0 188 +17 35 0 93
 30 188 25 36 161 0 0 -17 188 0 93 35 189 32 42 156 0 0 -17 189 0 93 188 190 37
 46 151 0 0 -17 42 0 0 0 0 37 188 156 0 189 +17 190 0 93 189 191 43 50 146 0 0 -
17 46 0 0 0 0 43 189 151 0 190 +17 191 0 93 190 192 47 54 141 0 0 -17 50 0 0 0 0
 47 190 146 0 191 +17 192 0 93 191 193 51 58 136 0 0 -17 54 0 0 0 0 51 191 141 0
 192 +17 193 0 93 192 194 55 62 131 0 0 -17 58 0 0 0 0 55 192 136 0 193 +17 194
 0 93 193 195 59 66 126 0 0 -17 62 0 0 0 0 59 193 131 0 194 +17 195 0 93 194 196
 63 70 121 0 0 -17 66 0 0 0 0 63 194 126 0 195 +17 196 0 93 195 197 67 74 116 0
 0 -17 70 0 0 0 0 67 195 121 0 196 +17 197 0 93 196 94 71 78 111 0 0 -17 74 0 0
 0 0 71 196 116 0 197 +17 94 0 93 197 90 75 82 96 0 0 -17 78 0 0 0 0 75 197 111
 0 94 +17 82 0 0 0 0 79 94 96 0 90 +17 30 0 93 29 35 12 31 23 0 0 -81 1 102 314
 26 17 0 0 100 14 198 83 1 103 2961 14 255 17 3 102 ?0 0 93 6 7 +0 0 0 0 6 81 1
 14 315 26 1 199 2 102 0 200 83 1 198 2962 81 1 199 216 201 1 202 14 0 0 203 83
 1 200 2963 80 1 201 204 205 9000 0 0 0 0 3 5 0 0 0 TTTFFFFFFFFFFFFFF1 81 1 202
 161 206 1 207 199 0 0 208 82 255 1 203 5 80 1 206 209 210 8038 0 0 0 0 0 0 0 0
 0 TTTTTTTTTTTTTFTFT10 81 1 207 160 209 1 0 202 0 0 211 98 255 19 208 72 67 45 4
8 52 83 104 97 112 101 83 116 114 105 110 103 48 48 56 80 1 209 212 213 8017 0 0
 0 0 0 0 0 0 0 TTTTTTTTTTTTTFTFT3 84 255 19 211 HC-04ShapeString00879 13 213 SDL
/TYSA_NAME79 14 210 SDL/TYSA_UNAME79 23 205 ONSHAPE_ORIGINALBODY_ID81 1 85 296 2
6 83 0 0 81 87 214 83 1 89 2945 81 1 81 295 26 79 0 0 77 85 215 83 1 214 2944 81
 1 77 294 26 75 0 0 73 81 216 83 1 215 2943 81 1 73 293 26 71 0 0 69 77 217 83 1
 216 2942 81 1 69 292 26 67 0 0 65 73 218 83 1 217 2941 81 1 65 291 26 63 0 0 61
 69 219 83 1 218 2940 81 1 61 290 26 59 0 0 57 65 220 83 1 219 2939 81 1 57 289
 26 55 0 0 53 61 221 83 1 220 2938 81 1 53 288 26 51 0 0 49 57 222 83 1 221 2937
 81 1 49 287 26 47 0 0 45 53 223 83 1 222 2936 81 1 45 286 26 43 0 0 41 49 224 8
3 1 223 2935 81 1 41 285 26 37 0 0 33 45 225 83 1 224 2934 81 1 33 284 26 32 0 0
 27 41 226 83 1 225 2933 83 1 226 2932 83 1 34 2931 83 1 28 2930 141 19 18 19 19
 8 74 4 CI16 index_map_offset0 0 1 dCCZ20 16 5 0 0 207 202 199 14 2 0 0 0 0 0 0
 0 0 0 0 0 0 0 0 0 80 1 13 26 227 9000 0 0 0 0 3 5 0 0 0 FFTFTFTTFFFFFFFFF2 83 1
 15 17325 79 18 227 BTI/importMaxCount1 0 
