**ABCDEFGHIJKLMNOPQRSTUVWXYZabcdefghijklmnopqrstuvwxyz**************************
**PARASOLID !"#$%&'()*+,-./:;<=>?@[\]^_`{|}~0123456789**************************
**PART1;
MC=unknown;
MC_MODEL=unknown;
MC_ID=unknown;
OS=unknown;
OS_RELEASE=unknown;
FRU=Parasolid 37.0.173;
APPL=Onshape;
SITE=unknown;
USER=unknown;
FORMAT=text;
GUISE=transmit;
KEY=BTGapi::writeModels_.xmt;
FILE=BTGapi::writeModels_.xmt;
DATE=2024-12-29T04:00:26 (UTC);
**PART2;
SCH=SCH_3700173_36001;
USFLD_SIZE=0;
**PART3;
**END_OF_HEADER*****************************************************************
T51 : TRANSMIT FILE created by modeller version 370017323 SCH_3700173_36001_1300
6231 0 12 36 CCCI7 lattice222 0 CCCI4 mesh1006 0 I8 polyline1008 0 CCCCCCCDI5 ow
ner1040 0 CCCI16 boundary_lattice222 0 CCCI13 boundary_mesh1006 0 I17 boundary_p
olyline1008 0 CCCA16 index_map_offset0 0 1 dA9 index_map82 0 A17 node_id_index_m
ap82 0 A20 schema_embedding_map82 0 A5 child12 0 A14 lowest_node_id0 0 1 dA16 me
sh_offset_data206 0 Z1 512 2 3 0 0 0 0 0 0 0 1e3 1e-8 0 4 5 1 0 1 2 6 0 7 8 9 0
 0 10 11 12 0 0 0 0 0 0 0 81 255 1 2 512 13 1 14 0 0 0 15 70 11 CI9 list_type0 0
 1 uI10 notransmit0 0 1 lCCCDCCDI12 finger_index0 0 1 dI12 finger_block1012 0 CZ
3 0 4 T1 0 0 6 20 1 16 16 13 255 6 64 0 1 0 17 0 0 18 0 50 255 7 364 0 19 20 0 0
 +.007990367 -8370384944071e-31 -.006834938 -1 0 0 0 1224646799147e-28 1 30 255
 8 400 0 21 22 0 0 +.007990367 -6778344105179e-31 -.005534938 0 -1 1224646799147
e-28 29 255 9 363 0 23 24 0 .007990367 -6778344105179e-31 -.005534938 19 9 CCCCC
CI5 frame230 0 CA5 owner12 0 Z10 1 0 1 18 0 25 0 V0 16 255 11 58 26 ?27 0 28 29
 0 0 1 18 255 12 53 30 31 0 32 33 5e-7 1 81 1 30 406 34 12 0 0 0 35 36 17 255 31
 0 37 38 39 12 27 11 0 40 -18 32 51 35 41 12 42 43 5e-7 1 29 33 220 0 12 43 44 .
007128424 -1e-5 -.006534938 29 43 218 0 32 45 33 .007128424 -8002990904326e-31 -
.006534938 29 44 179 0 46 33 47 .007128424 -6778344105179e-31 -.005534938 18 46
 6 48 49 50 0 44 5e-7 1 29 47 180 0 50 44 51 .007128424 -1e-5 -.005534938 18 50
 7 52 27 23 46 47 5e-7 1 29 51 360 0 53 47 54 .007990367 -1e-5 -.005534938 18 53
 11 55 56 57 23 51 ?1 29 54 361 0 58 51 24 .007990367 -1e-5 -.005234938 18 58 18
 59 60 61 57 54 ?1 29 24 362 0 57 54 9 .007990367 -641095006543497e-33 -.0052349
38 18 57 16 62 63 58 53 24 ?1 81 1 62 417 34 57 0 0 59 55 64 17 63 0 65 66 67 57
 68 69 0 70 -15 255 65 60 0 71 72 0 17 66 0 65 71 63 23 73 74 0 75 -17 67 0 65 6
3 76 61 77 78 0 79 -17 68 0 80 81 70 61 63 69 0 0 +16 69 22 82 ?68 83 84 85 0 0
 1 17 70 0 80 68 60 57 86 87 0 73 -15 80 21 0 70 88 0 17 60 0 80 70 81 58 89 90
 0 91 -17 86 0 92 56 73 58 70 87 0 0 +16 87 17 93 ?86 84 74 22 0 0 1 17 73 0 92
 86 75 57 66 74 0 0 +15 92 14 0 75 19 0 17 75 0 92 73 56 23 94 21 0 95 -16 74 15
 96 ?73 87 97 98 0 0 1 81 1 96 441 34 74 0 0 93 99 100 16 97 12 99 ?101 74 21 10
2 0 0 1 30 98 387 0 74 103 22 0 +.007990367 -83703849440701e-32 -.006834938 0 12
24646799147e-28 1 30 103 368 0 84 104 98 0 +.007990367 -1e-5 -.005534938 0 12246
46799147e-28 1 30 22 396 0 87 98 8 0 +.007990367 -64109500654358e-32 -.005234938
 0 -1 1224646799147e-28 16 84 19 105 ?91 69 87 103 0 0 1 30 104 225 0 1 29 103 1
06 +.007128424 -1e-5 -.006534938 0 1224646799147e-28 1 133 255 29 349 0 11 107 1
04 0 +104 .007128424 -1e-5 -.006534938 .007128424 -999999999999988e-20 -.0055349
38 0 .001 141 255 106 29 106 106 104 30 107 222 0 1 108 29 109 +.007990367 -1e-5
 -.006534938 -1 0 0 133 108 347 0 110 111 107 0 +107 .007990367 -1e-5 -.00653493
8 .007128424 -1e-5 -.006534938 0 861943e-9 141 109 108 109 109 107 16 110 54 112
 ?40 28 113 108 0 0 1 30 111 216 0 1 114 108 115 +.007990367 -1e-5 -.006834938 0
 1224646799147e-28 1 133 114 345 0 116 117 111 0 +111 .007990367 -1e-5 -.0068349
38 .007990367 -1e-5 -.006534938 0 3e-4 141 115 114 115 115 111 16 116 47 118 ?11
9 120 121 114 0 0 1 30 117 210 0 1 122 114 123 +.006806017 -1e-5 -.006834938 1 0
 0 133 122 343 0 124 125 117 0 +117 .006806017 -1e-5 -.006834938 .007990367 -1e-
5 -.006834938 0 .00118435 141 123 122 123 123 117 16 124 40 126 ?127 128 129 122
 0 0 1 30 125 204 0 1 130 122 131 +.006806017 -1e-5 -.005234938 0 -1224646799147
e-28 -1 133 130 341 0 132 133 125 0 +125 .006806017 -1e-5 -.005234938 .006806017
 -100000000000002e-19 -.006834938 0 .0016 141 131 130 131 131 125 16 132 33 134
 ?135 136 137 130 0 0 1 30 133 198 0 1 138 130 139 +.007990367 -1e-5 -.005234938
 -1 0 0 133 138 339 0 90 140 133 0 +133 .007990367 -1e-5 -.005234938 .006806017
 -1e-5 -.005234938 0 .00118435 141 139 138 139 139 133 16 90 26 141 ?89 78 83 13
8 0 0 1 30 140 186 0 1 102 138 142 +.007128424 -1e-5 -.005534938 1 0 0 133 102 3
35 0 97 143 140 0 +140 .007128424 -1e-5 -.005534938 .007990367 -1e-5 -.005534938
 0 861943e-9 141 142 102 142 142 140 30 143 195 0 1 85 102 144 +.007990367 -6410
950065435e-31 -.005234938 -1 0 0 133 85 329 0 69 145 143 0 +143 .007990367 -6410
950065435e-31 -.005234938 .006806017 -6410950065435e-31 -.005234938 0 .00118435
 141 144 85 144 144 143 30 145 201 0 1 146 85 147 +.006806017 -6410950065435e-31
 -.005234938 0 -1224646799147e-28 -1 133 146 327 0 78 148 145 0 +145 .006806017
 -6410950065435e-31 -.005234938 .006806017 -83703849440702e-32 -.006834938 0 .00
16 141 147 146 147 147 145 16 78 29 149 ?77 137 90 146 0 0 1 30 148 207 0 1 150
 146 151 +.006806017 -8370384944071e-31 -.006834938 1 0 0 133 150 325 0 136 152
 148 0 +148 .006806017 -8370384944071e-31 -.006834938 .007990367 -8370384944071e
-31 -.006834938 0 .00118435 141 151 150 151 151 148 16 136 36 153 ?154 129 132 1
50 0 0 1 30 152 213 0 1 155 150 156 +.007990367 -8370384944071e-31 -.006834938 0
 1224646799147e-28 1 133 155 323 0 128 157 152 0 +152 .007990367 -8370384944071e
-31 -.006834938 .007990367 -80029909043269e-32 -.006534938 0 3e-4 141 156 155 15
6 156 152 16 128 43 158 ?159 121 124 155 0 0 1 30 157 219 0 1 160 155 161 +.0079
90367 -8002990904326e-31 -.006534938 -1 0 0 133 160 321 0 120 162 157 0 +157 .00
7990367 -8002990904326e-31 -.006534938 .007128424 -8002990904326e-31 -.006534938
 0 861943e-9 141 161 160 161 161 157 16 120 50 163 ?164 113 116 160 0 0 1 30 162
 224 0 1 165 160 166 +.007128424 -8002990904326e-31 -.006534938 0 1224646799147e
-28 1 133 165 319 0 28 167 162 0 +162 .007128424 -8002990904326e-31 -.006534938
 .007128424 -6778344105179e-31 -.005534938 0 .001 141 166 165 166 166 162 16 28
 57 168 ?49 11 110 165 0 0 1 30 167 183 0 1 169 165 170 +.007128424 -67783441051
79e-31 -.005534938 1 0 0 133 169 317 0 171 172 167 0 +167 .007128424 -6778344105
179e-31 -.005534938 .007990367 -6778344105179e-31 -.005534938 0 861943e-9 141 17
0 169 170 170 167 16 171 8 173 ?95 21 174 169 0 0 1 30 172 181 0 1 175 169 176 +
.007128424 -6778344105179e-31 -.005534938 0 -1 1224646799147e-28 133 175 313 0 1
74 177 172 0 +172 .007128424 -6778344105179e-31 -.005534938 .007128424 -1e-5 -.0
05534938 0 999999999999932e-20 141 176 175 176 176 172 16 174 5 178 ?39 171 0 17
5 0 0 1 30 177 221 0 1 179 175 180 +.007128424 -8002990904326e-31 -.006534938 0
 -1 1224646799147e-28 133 179 311 0 113 181 177 0 +177 .007128424 -8002990904326
e-31 -.006534938 .007128424 -1e-5 -.006534938 0 99999999999992e-19 141 180 179 1
80 180 177 16 113 52 182 ?183 110 120 179 0 0 1 30 181 215 0 1 184 179 185 +.007
990367 -8002990904326e-31 -.006534938 0 -1 1224646799147e-28 133 184 307 0 121 1
86 181 0 +181 .007990367 -8002990904326e-31 -.006534938 .007990367 -1e-5 -.00653
4938 0 99999999999992e-19 141 185 184 185 185 181 16 121 45 187 ?188 116 128 184
 0 0 1 30 186 209 0 1 189 184 190 +.007990367 -8370384944071e-31 -.006834938 0 -
1 1224646799147e-28 133 189 303 0 129 191 186 0 +186 .007990367 -8370384944071e-
31 -.006834938 .007990367 -1e-5 -.006834938 0 999999999999916e-20 141 190 189 19
0 190 186 16 129 38 192 ?193 124 136 189 0 0 1 30 191 203 0 1 194 189 195 +.0068
06017 -8370384944071e-31 -.006834938 0 -1 1224646799147e-28 133 194 299 0 137 19
6 191 0 +191 .006806017 -8370384944071e-31 -.006834938 .006806017 -1e-5 -.006834
938 0 999999999999916e-20 141 195 194 195 195 191 16 137 31 197 ?198 132 78 194
 0 0 1 30 196 197 0 1 199 194 200 +.006806017 -6410950065435e-31 -.005234938 0 -
1 1224646799147e-28 133 199 295 0 83 0 196 0 +196 .006806017 -6410950065435e-31
 -.005234938 .006806017 -1e-5 -.005234938 0 999999999999936e-20 141 200 199 200
 200 196 16 83 24 201 ?81 90 69 199 0 0 1 81 1 201 437 34 83 0 0 141 82 202 17 8
1 0 80 60 68 203 79 83 0 0 +18 203 25 204 205 206 61 207 5e-7 1 17 79 0 208 77 2
05 61 81 83 0 68 -15 208 28 0 79 209 0 17 77 0 208 198 79 206 67 78 0 0 +17 205
 0 208 79 198 203 135 132 0 89 -18 61 23 210 67 203 58 211 5e-7 1 81 1 210 415 3
4 61 0 0 204 59 212 29 211 194 0 61 0 207 .006806017 -6410950065435e-31 -.005234
938 29 207 196 0 203 211 213 .006806017 -1e-5 -.005234938 29 213 200 0 206 207 2
14 .006806017 -8370384944071e-31 -.006834938 18 206 30 215 76 216 203 213 5e-7 1
 29 214 202 0 216 213 217 .006806017 -1e-5 -.006834938 18 216 32 218 219 220 206
 214 5e-7 1 29 217 206 0 220 214 221 .007990367 -8370384944071e-31 -.006834938 1
8 220 37 222 223 224 216 217 5e-7 1 29 221 208 0 224 217 225 .007990367 -1e-5 -.
006834938 18 224 39 226 227 228 220 221 5e-7 1 29 225 212 0 228 221 45 .00799036
7 -8002990904326e-31 -.006534938 18 228 44 229 230 42 224 225 5e-7 1 29 45 214 0
 42 225 43 .007990367 -1e-5 -.006534938 18 42 46 231 232 32 228 45 5e-7 1 81 1 2
31 408 34 42 0 0 35 229 233 17 232 0 234 235 183 42 40 110 0 119 -15 234 49 0 23
5 236 0 17 235 0 234 164 232 228 188 121 0 159 -17 183 0 234 232 164 12 38 113 0
 0 +17 40 0 237 27 119 12 232 110 0 183 +17 119 0 237 40 127 42 227 116 0 188 +1
5 237 62 0 101 17 0 17 127 0 237 119 135 224 219 124 0 193 +17 227 0 238 239 188
 224 119 116 0 127 -17 188 0 238 227 159 42 235 121 0 0 +15 238 42 0 239 240 0 1
7 159 0 238 188 239 228 223 128 0 0 +17 239 0 238 159 227 220 193 129 0 154 -17
 223 0 65 76 230 220 159 128 0 239 -17 76 0 65 67 223 206 154 136 0 241 -17 230
 0 65 223 41 228 164 120 0 235 -17 41 0 65 230 71 32 49 28 0 38 -17 164 0 234 18
3 235 32 230 120 0 0 +17 71 0 65 41 66 46 95 171 0 242 -17 49 0 37 39 38 46 41 2
8 0 71 +17 38 0 37 49 31 32 183 113 0 164 -15 37 56 0 38 243 0 14 255 243 55 244
 ?236 72 37 6 245 -0 0 236 72 25 81 1 244 448 34 243 0 0 246 247 248 14 236 48 2
47 ?240 243 234 6 249 -0 0 240 243 25 14 72 59 246 ?243 17 65 6 250 +0 0 243 17
 25 50 245 223 0 243 249 250 0 +.007128424 -8002990904326e-31 -.006534938 -1 0 0
 0 1224646799147e-28 1 13 25 2 0 0 0 0 0 0 10 17 14 17 61 251 ?72 0 237 6 20 -0
 0 72 0 25 81 1 251 446 34 17 0 0 178 246 252 50 20 227 0 17 250 7 0 +.007128424
 -1e-5 -.005534938 0 1 -1224646799147e-28 1 0 0 50 250 226 0 72 245 20 0 +.00712
8424 -6778344105179e-31 -.005534938 0 1 -1224646799147e-28 1 0 0 80 7 CCCCCDI12
 legal_owners0 17 1 lCZ1 34 253 254 9000 0 0 0 0 3 5 0 0 0 FFTFTFTTFFFFFFFFF2 81
 1 178 445 34 174 0 0 173 251 255 81 1 246 447 34 72 0 0 251 244 256 83 255 1 25
2 4980 83 1 256 4981 81 1 173 444 34 171 0 0 257 178 258 83 1 255 4979 81 1 257
 443 34 21 0 0 99 173 259 83 1 258 4978 16 21 10 257 ?94 97 171 8 0 0 1 81 1 99
 442 34 97 0 0 96 257 260 83 1 259 4977 83 1 260 4976 17 94 0 261 262 95 53 75 2
1 0 0 +15 261 4 0 242 263 0 17 262 0 261 242 94 50 101 97 0 39 -17 95 0 261 94 2
42 23 71 171 0 0 +17 242 0 261 95 262 46 39 174 0 0 -18 23 9 264 66 53 50 9 ?1 8
1 1 264 419 34 23 0 0 55 52 265 81 1 55 418 34 53 0 0 62 264 266 81 1 52 420 34
 50 0 0 264 48 267 83 1 265 4953 81 1 48 421 34 46 0 0 52 26 268 83 1 267 4954 8
1 1 26 422 34 11 0 0 48 168 269 83 1 268 4955 81 1 168 423 34 28 0 0 26 112 270
 83 1 269 4956 81 1 112 424 34 110 0 0 168 182 271 83 1 270 4957 81 1 182 425 34
 113 0 0 112 163 272 83 1 271 4958 81 1 163 426 34 120 0 0 182 118 273 83 1 272
 4959 81 1 118 427 34 116 0 0 163 187 274 83 1 273 4960 81 1 187 428 34 121 0 0
 118 158 275 83 1 274 4961 81 1 158 429 34 128 0 0 187 126 276 83 1 275 4962 81
 1 126 430 34 124 0 0 158 192 277 83 1 276 4963 81 1 192 431 34 129 0 0 126 153
 278 83 1 277 4964 81 1 153 432 34 136 0 0 192 134 279 83 1 278 4965 81 1 134 43
3 34 132 0 0 153 197 280 83 1 279 4966 81 1 197 434 34 137 0 0 134 149 281 83 1
 280 4967 81 1 149 435 34 78 0 0 197 141 282 83 1 281 4968 81 1 141 436 34 90 0
 0 149 201 283 83 1 282 4969 83 1 283 4970 83 1 266 4952 17 39 0 37 31 49 50 242
 174 0 0 +17 101 0 237 91 27 53 262 97 0 94 +17 91 0 237 89 101 58 56 84 0 86 +1
7 27 0 237 101 40 50 31 11 0 262 +17 89 0 237 135 91 203 60 90 0 81 +17 56 0 92
 75 86 53 91 84 0 101 -17 135 0 237 127 89 216 205 132 0 198 +17 198 0 208 205 7
7 216 241 137 0 0 +17 241 0 284 154 219 206 198 137 0 77 -15 284 35 0 241 285 0
 17 154 0 284 193 241 220 76 136 0 0 +17 219 0 284 241 193 216 127 124 0 135 -17
 193 0 284 219 154 224 239 129 0 0 +14 285 34 286 ?209 240 284 6 287 -0 0 209 24
0 25 81 1 286 451 34 285 0 0 288 289 290 14 209 27 289 ?88 285 208 6 291 -0 0 88
 285 25 14 240 41 288 ?285 236 238 6 7 -19 19 285 236 25 50 287 205 0 285 291 24
9 0 +.006806017 -8370384944071e-31 -.006834938 0 1224646799147e-28 1 1 0 0 50 29
1 199 0 209 292 287 0 +.006806017 -6410950065435e-31 -.005234938 1 0 0 0 -122464
6799147e-28 -1 50 249 217 0 236 287 245 0 +.007990367 -8002990904326e-31 -.00653
4938 0 -1224646799147e-28 -1 -1 0 0 50 292 193 0 88 293 291 0 +.007990367 -64109
50065435e-31 -.005234938 0 -1224646799147e-28 -1 -1 0 0 14 88 20 294 ?19 209 80
 6 292 -0 0 19 209 25 50 293 178 0 263 0 292 0 +.007128424 -6778344105179e-31 -.
005534938 0 1224646799147e-28 1 1 0 0 14 263 3 295 ?0 19 261 6 293 -0 0 0 19 25
 81 1 295 455 34 263 0 0 296 297 298 14 19 13 296 ?263 88 92 6 7 -240 240 263 88
 25 81 1 296 454 34 19 0 0 294 295 299 81 1 294 453 34 88 0 0 289 296 300 83 1 2
99 4988 81 1 289 452 34 209 0 0 286 294 301 83 1 300 4987 83 1 301 4986 81 1 297
 456 34 1 302 303 295 0 304 83 1 298 4989 81 1 302 404 305 1 0 297 0 0 306 81 1
 303 457 307 1 297 308 0 0 309 83 1 304 4990 80 1 307 34 310 9000 0 0 0 0 3 5 0
 0 0 FFTFTFTTFFFFFFFFF2 81 1 308 510 311 1 303 14 0 0 312 83 1 309 17325 80 1 31
1 313 314 8040 0 0 0 0 3 5 0 0 0 TTTFFFFFFFFFFFFFF2 81 1 14 511 315 1 308 2 0 0
 316 83 3 312 1 1 1 80 1 315 13 317 8038 0 0 0 0 0 0 0 0 0 TTTTTTTTTTTTTFTFT10 9
8 255 11 316 72 67 45 48 52 80 97 100 48 48 57 79 255 14 317 SDL/TYSA_UNAME79 17
 314 SDL/TYSA_COLOUR_279 18 310 BTI/importMaxCount80 1 305 318 319 9000 0 0 0 0
 3 5 0 0 0 TTTFFFFFFFFFFFFFF1 82 255 1 306 7 79 23 319 ONSHAPE_ORIGINALBODY_ID81
 1 288 450 34 240 0 0 247 286 320 81 1 247 449 34 236 0 0 244 288 321 83 1 320 4
984 83 1 321 4983 83 1 290 4985 79 13 254 BTI/importTag83 1 248 4982 81 1 35 407
 34 32 0 0 30 231 322 81 1 229 409 34 228 0 0 231 226 323 83 1 233 4942 81 1 226
 410 34 224 0 0 229 222 324 83 1 323 4943 81 1 222 411 34 220 0 0 226 218 325 83
 1 324 4944 81 1 218 412 34 216 0 0 222 215 326 83 1 325 4945 81 1 215 413 34 20
6 0 0 218 204 327 83 1 326 4946 81 1 204 414 34 203 0 0 215 210 328 83 1 327 494
7 83 1 328 4948 83 1 322 4941 81 1 59 416 34 58 0 0 210 62 329 83 1 212 4949 83
 1 329 4950 81 1 82 438 34 69 0 0 201 105 330 83 1 202 4971 81 1 105 439 34 84 0
 0 82 93 331 83 1 330 4972 81 1 93 440 34 87 0 0 105 96 332 83 1 331 4973 83 1 3
32 4974 83 1 100 4975 83 1 64 4951 83 1 36 4940 19 18 63 0 1 0 10 6 0 S0 74 4 CI
16 index_map_offset0 0 1 dCCZ20 16 6 0 0 302 297 303 308 14 2 0 0 0 0 0 0 0 0 0
 0 0 0 0 0 80 1 13 333 334 8017 0 0 0 0 0 0 0 0 0 TTTTTTTTTTTTTFTFT3 84 255 11 1
5 HC-04Pad00979 13 334 SDL/TYSA_NAME1 0 
