**ABCDEFGHIJKLMNOPQRSTUVWXYZabcdefghijklmnopqrstuvwxyz**************************
**PARASOLID !"#$%&'()*+,-./:;<=>?@[\]^_`{|}~0123456789**************************
**PART1;
MC=unknown;
MC_MODEL=unknown;
MC_ID=unknown;
OS=unknown;
OS_RELEASE=unknown;
FRU=Parasolid 37.0.173;
APPL=Onshape;
SITE=unknown;
USER=unknown;
FORMAT=text;
GUISE=transmit;
KEY=BTGapi::writeModels_.xmt;
FILE=BTGapi::writeModels_.xmt;
DATE=2024-12-29T04:00:27 (UTC);
**PART2;
SCH=SCH_3700173_36001;
USFLD_SIZE=0;
**PART3;
**END_OF_HEADER*****************************************************************
T51 : TRANSMIT FILE created by modeller version 370017323 SCH_3700173_36001_1300
6231 0 12 36 CCCI7 lattice222 0 CCCI4 mesh1006 0 I8 polyline1008 0 CCCCCCCDI5 ow
ner1040 0 CCCI16 boundary_lattice222 0 CCCI13 boundary_mesh1006 0 I17 boundary_p
olyline1008 0 CCCA16 index_map_offset0 0 1 dA9 index_map82 0 A17 node_id_index_m
ap82 0 A20 schema_embedding_map82 0 A5 child12 0 A14 lowest_node_id0 0 1 dA16 me
sh_offset_data206 0 Z1 162 2 3 0 0 0 0 0 0 0 1e3 1e-8 0 4 5 1 0 3 2 6 0 7 8 9 0
 0 10 11 12 0 0 0 0 0 0 0 81 255 1 2 162 13 1 14 0 0 0 15 70 11 CI9 list_type0 0
 1 uI10 notransmit0 0 1 lCCCDCCDI12 finger_index0 0 1 dI12 finger_block1012 0 CZ
3 0 4 T1 0 0 6 20 1 16 16 13 255 6 2 0 1 0 17 0 0 10 17 50 255 7 50 0 17 0 0 0 +
.001873958333333 0 .002 0 1 0 -1 0 0 30 255 8 66 0 1 18 0 19 +.001176041666667 0
 .002 0 0 -1 29 255 9 64 0 12 20 0 .001176041666667 0 0 19 9 CCCCCCI5 frame230 0
 CA5 owner12 0 Z10 1 0 1 0 0 6 0 V0 16 255 11 20 21 ?22 0 23 18 0 0 1 18 255 12
 19 24 22 0 25 9 5e-7 1 81 1 24 122 26 12 0 0 0 27 28 17 255 22 0 0 0 0 12 29 11
 0 30 +18 25 17 27 31 12 32 20 5e-7 1 81 1 27 123 26 25 0 0 24 33 34 17 31 0 0 0
 0 25 30 23 0 35 +18 32 15 33 36 25 37 38 5e-7 1 29 20 62 0 25 38 9 .00074583333
3333 0 0 29 38 60 0 32 39 20 .000745833333333 0 .002 29 39 58 0 37 40 38 4791666
66667e-16 0 .002 18 37 13 41 42 32 43 39 5e-7 1 29 40 56 0 43 44 39 479166666667
e-16 0 .002333333333333 18 43 11 45 46 37 47 40 5e-7 1 29 44 54 0 47 48 40 .0018
73958333333 0 .002333333333333 18 47 9 49 50 43 51 44 5e-7 1 29 48 52 0 51 52 44
 .001176041666667 0 .002 18 51 7 53 29 47 54 48 5e-7 1 29 52 51 0 54 0 48 .00187
3958333333 0 .002 18 54 6 55 56 51 0 52 5e-7 1 81 1 55 129 26 54 0 0 53 21 57 17
 56 0 0 0 0 54 58 59 0 60 +17 58 0 61 62 60 47 56 59 0 0 -16 59 8 63 ?56 64 65 6
6 0 0 1 17 60 0 61 58 29 54 67 65 0 0 -15 255 61 4 0 60 17 0 17 29 0 61 60 30 51
 22 11 0 67 -17 67 0 0 0 0 51 60 65 0 0 +16 65 5 68 ?67 59 0 69 0 0 1 81 1 68 13
7 26 65 0 0 63 70 71 133 255 69 90 0 65 0 72 0 +72 .001873958333333 0 .002 .0011
76041666667 0 .002 0 .000697916666666 30 72 53 0 1 69 66 73 +.001873958333333 0
 .002 -1 0 0 133 66 92 0 59 72 74 0 +74 .001873958333333 0 .002333333333333 .001
873958333333 0 .002 0 .000333333333333 141 255 73 69 73 73 72 30 74 55 0 1 66 75
 76 +.001873958333333 0 .002333333333333 0 0 -1 133 75 94 0 64 74 77 0 +77 47916
6666667e-16 0 .002333333333333 .001873958333333 0 .002333333333333 2999851885995
83e-31 .00182604166666633 141 76 66 76 76 74 16 64 10 78 ?50 79 59 75 0 0 1 30 7
7 57 0 1 75 80 81 +4791666666667e-17 0 .002333333333333 1 0 0 133 80 96 0 79 77
 82 0 +82 4791666666667e-17 0 .002 4791666666667e-17 0 .002333333333333 0 .00033
3333333333 141 81 75 81 81 77 16 79 12 83 ?46 84 64 80 0 0 1 30 82 59 0 1 80 85
 86 +4791666666667e-17 0 .002 0 0 1 133 85 98 0 84 82 87 0 +87 .000745833333333
 0 .002 479166666667e-16 0 .002 0 .0006979166666663 141 86 80 86 86 82 16 84 14
 88 ?42 89 79 85 0 0 1 30 87 61 0 1 85 90 91 +.000745833333333 0 .002 -1 0 0 133
 90 100 0 89 87 92 0 +92 .000745833333333 0 0 .000745833333333 0 .002 0 .002 141
 91 85 91 91 87 16 89 16 93 ?36 23 84 90 0 0 1 30 92 63 0 1 90 94 95 +.000745833
333333 0 0 0 0 1 133 94 102 0 23 92 96 0 +96 .001176041666667 0 0 .0007458333333
33 0 0 0 .000430208333334 141 95 90 95 95 92 16 23 18 97 ?31 11 89 94 0 0 1 30 9
6 65 0 1 94 18 98 +.001176041666667 0 0 -1 0 0 133 18 104 0 11 96 8 0 +8 .001176
041666667 0 .002 .001176041666667 0 0 0 .002 141 98 94 98 98 96 81 1 97 131 26 2
3 0 0 21 93 99 80 7 CCCCCDI12 legal_owners0 17 1 lCZ1 26 100 101 9000 0 0 0 0 3
 5 0 0 0 FFTFTFTTFFFFFFFFF2 81 1 21 130 26 11 0 0 55 97 102 81 1 93 132 26 89 0
 0 97 88 103 83 255 1 99 6627 81 1 88 133 26 84 0 0 93 83 104 83 1 103 6628 81 1
 83 134 26 79 0 0 88 78 105 83 1 104 6629 81 1 78 135 26 64 0 0 83 63 106 83 1 1
05 6630 81 1 63 136 26 59 0 0 78 68 107 83 1 106 6631 83 1 107 6632 83 1 102 662
6 79 255 13 101 BTI/importTag17 36 0 0 0 0 32 35 89 0 108 +17 35 0 61 30 108 25
 36 89 0 0 -17 108 0 61 35 109 32 42 84 0 0 -17 109 0 61 108 62 37 46 79 0 0 -17
 42 0 0 0 0 37 108 84 0 109 +17 62 0 61 109 58 43 50 64 0 0 -17 46 0 0 0 0 43 10
9 79 0 62 +17 50 0 0 0 0 47 62 64 0 58 +17 30 0 61 29 35 12 31 23 0 0 -81 1 70 1
38 26 17 0 0 68 110 111 83 1 71 6633 14 255 17 3 70 ?0 0 61 6 7 -0 0 0 0 6 81 1
 110 139 26 1 112 113 70 0 114 83 1 111 6634 81 1 112 120 115 1 0 110 0 0 116 81
 1 113 140 117 1 110 118 0 0 119 83 1 114 6635 80 1 117 26 120 9000 0 0 0 0 3 5
 0 0 0 FFTFTFTTFFFFFFFFF2 81 1 118 160 121 1 113 14 0 0 122 83 1 119 17325 80 1
 121 123 124 8040 0 0 0 0 3 5 0 0 0 TTTFFFFFFFFFFFFFF2 81 1 14 161 125 1 118 2 0
 0 126 83 3 122 1 1 1 80 1 125 13 127 8038 0 0 0 0 0 0 0 0 0 TTTTTTTTTTTTTFTFT10
 98 255 19 126 72 67 45 48 52 83 104 97 112 101 83 116 114 105 110 103 48 48 52
 79 14 127 SDL/TYSA_UNAME79 17 124 SDL/TYSA_COLOUR_279 18 120 BTI/importMaxCount
80 1 115 128 129 9000 0 0 0 0 3 5 0 0 0 TTTFFFFFFFFFFFFFF1 82 255 1 116 35 79 23
 129 ONSHAPE_ORIGINALBODY_ID81 1 53 128 26 51 0 0 49 55 130 83 1 57 6625 81 1 49
 127 26 47 0 0 45 53 131 83 1 130 6624 81 1 45 126 26 43 0 0 41 49 132 83 1 131
 6623 81 1 41 125 26 37 0 0 33 45 133 83 1 132 6622 81 1 33 124 26 32 0 0 27 41
 134 83 1 133 6621 83 1 134 6620 83 1 34 6619 83 1 28 6618 141 19 18 19 19 8 74
 4 CI16 index_map_offset0 0 1 dCCZ20 16 6 0 0 112 110 113 118 14 2 0 0 0 0 0 0 0
 0 0 0 0 0 0 0 80 1 13 135 136 8017 0 0 0 0 0 0 0 0 0 TTTTTTTTTTTTTFTFT3 84 255
 19 15 HC-04ShapeString00479 13 136 SDL/TYSA_NAME1 0 
