**ABCDEFGHIJKLMNOPQRSTUVWXYZabcdefghijklmnopqrstuvwxyz**************************
**PARASOLID !"#$%&'()*+,-./:;<=>?@[\]^_`{|}~0123456789**************************
**PART1;
MC=unknown;
MC_MODEL=unknown;
MC_ID=unknown;
OS=unknown;
OS_RELEASE=unknown;
FRU=Parasolid 37.0.173;
APPL=Onshape;
SITE=unknown;
USER=unknown;
FORMAT=text;
GUISE=transmit;
KEY=BTGapi::writeModels_.xmt;
FILE=BTGapi::writeModels_.xmt;
DATE=2024-12-29T04:00:26 (UTC);
**PART2;
SCH=SCH_3700173_36001;
USFLD_SIZE=0;
**PART3;
**END_OF_HEADER*****************************************************************
T51 : TRANSMIT FILE created by modeller version 370017323 SCH_3700173_36001_1300
6231 0 12 36 CCCI7 lattice222 0 CCCI4 mesh1006 0 I8 polyline1008 0 CCCCCCCDI5 ow
ner1040 0 CCCI16 boundary_lattice222 0 CCCI13 boundary_mesh1006 0 I17 boundary_p
olyline1008 0 CCCA16 index_map_offset0 0 1 dA9 index_map82 0 A17 node_id_index_m
ap82 0 A20 schema_embedding_map82 0 A5 child12 0 A14 lowest_node_id0 0 1 dA16 me
sh_offset_data206 0 Z1 1763 2 3 0 0 0 0 0 0 0 1e3 1e-8 0 4 5 1 0 1 2 6 0 7 8 9 0
 0 10 11 12 0 0 0 0 0 0 0 81 255 1 2 1599 13 1 14 0 0 0 15 70 11 CI9 list_type0
 0 1 uI10 notransmit0 0 1 lCCCDCCDI12 finger_index0 0 1 dI12 finger_block1012 0
 CZ3 0 4 T1 0 0 6 20 1 16 16 13 255 6 190 0 1 0 17 0 0 18 0 50 255 7 1184 0 19 2
0 0 0 -.0320046588128405 .0107306600138304 .0021805804294656 0 1 444089209850063
e-30 0 444089209850063e-30 -1 38 12 CCCCCCCCCCCA17 intersection_data204 0 Z8 143
0 0 21 22 0 0 +23 24 25 26 27 28 29 255 9 1432 0 29 30 0 .0257546588128405 .0109
816872222886 .00123840436833575 19 9 CCCCCCI5 frame230 0 CA5 owner12 0 Z10 1 0 1
 18 0 31 0 V0 16 255 11 186 32 ?33 0 34 35 0 0 1 18 255 12 182 36 33 0 37 38 5e-
7 1 81 1 36 1440 39 12 0 0 0 40 41 17 255 33 0 42 43 44 12 45 11 0 46 +18 37 177
 40 45 12 47 48 5e-7 1 29 38 690 0 12 48 49 .00700465881284051 .0198418648140324
 .00520134040700735 29 48 686 0 37 50 38 .00700465881284051 .00331945521362828 .
00596984591662133 29 49 1143 0 51 38 52 .0255046588128405 .0121655781994509 .021
19609951586545 18 51 79 53 54 55 56 49 ?1 29 52 1144 0 57 49 58 .025504658812840
5 .0124306600138303 .02118399136818475 18 57 108 59 60 61 62 52 ?1 29 58 1145 0
 63 52 64 .0255046588128405 .0107306600138303 .0211394098318005 18 63 102 65 66
 67 68 58 ?1 29 64 1146 0 68 58 69 .0255046588128405 .0109816872222886 .02116427
6445679 18 68 97 70 71 63 72 64 ?1 29 69 1150 0 73 64 74 .0265046588128405 .0124
3066001383032 .0211839913681847 18 73 145 75 76 77 78 69 ?1 29 74 1151 0 77 69 7
9 .0265046588128405 .01243066001383036 .0202221003845491 18 77 147 80 81 82 73 7
4 ?1 29 79 1152 0 62 74 83 .0255046588128405 .0124306600138303 .0202221003845491
 18 62 106 84 85 57 67 79 ?1 29 83 1153 0 67 79 86 .0255046588128405 .0107306600
138303 .0202221003845491 18 67 104 87 88 62 63 83 ?1 29 86 1154 0 82 83 89 .0265
046588128405 .0107306600138303 .0202221003845491 18 82 149 90 91 92 77 86 ?1 29
 89 1155 0 92 86 93 .0265046588128405 .0107306600138303 .0211394098318005 18 92
 151 94 95 96 82 89 ?1 29 93 1156 0 96 89 97 .0265046588128405 .0033194552136282
75 .01643283489739345 18 96 153 98 99 100 92 93 ?1 29 97 1157 0 47 93 101 .00700
465881284051 .003319455213628275 .01643283489739345 18 47 172 102 103 37 104 97
 ?1 29 101 1158 0 104 97 105 .00700465881284051 .0198418648140324 .0172013404070
074 18 104 170 106 107 47 100 101 ?1 29 105 1159 0 78 101 108 .0265046588128405
 .0198418648140324 .0172013404070074 18 78 143 109 110 73 111 105 ?1 29 108 1160
 0 112 105 113 .0255046588128405 .0121655781994509 .0208960995158654 18 112 57 1
14 115 116 117 108 ?1 29 113 1161 0 116 108 118 .0258046588128405 .0121655781994
509 .0205960995158654 18 116 59 119 120 121 112 113 ?1 29 118 1162 0 122 113 123
 .0258046588128405 .0109816872222886 .0205960995158654 18 122 54 124 125 117 126
 118 ?1 29 123 1163 0 117 118 127 .0255046588128405 .0109816872222886 .020896099
5158654 18 117 55 128 129 112 122 123 ?1 29 127 1164 0 130 123 131 .026054658812
8405 .01216557819945088 .02009999955073 18 130 74 132 133 56 134 127 ?1 29 131 1
165 0 55 127 135 .0260546588128405 .0109816872222886 .02009999955073 18 55 84 13
6 137 72 51 131 ?1 29 135 1166 0 72 131 138 .0258046588128405 .0109816872222886
 .02009999955073 18 72 89 139 140 68 55 135 ?1 29 138 1167 0 56 135 141 .0258046
588128405 .01216557819945088 .02009999955073 18 56 76 142 143 51 130 138 ?1 29 1
41 1342 0 121 138 144 .0257546588128405 .0109816872222886 .02116427644567905 18
 121 64 145 146 147 116 141 ?1 29 144 1343 0 147 141 148 .0260546588128405 .0109
816872222886 .0208631256721984 18 147 65 149 150 151 121 144 ?1 29 148 1403 0 15
1 144 152 .0260546588128405 .0121655781994509 .02089593733746825 18 151 67 153 1
54 134 147 148 ?1 29 152 1404 0 134 148 155 .0257546588128405 .0121655781994509
 .02119609951586545 18 134 69 156 157 130 151 152 ?1 29 155 1415 0 158 152 159 .
0257546588128405 .0121655781994509 .001206581298149328 18 158 26 160 161 162 29
 155 ?1 29 159 1416 0 162 155 30 .0260546588128405 .0121655781994509 .0015067434
76546525 18 162 28 163 164 165 158 159 ?1 29 30 1431 0 166 159 9 .02605465881284
05 .0109816872222886 .00153955514181638 18 166 23 167 168 29 169 30 ?1 81 1 167
 1485 39 166 0 0 170 171 172 17 168 0 173 174 175 166 176 177 0 178 -18 29 24 17
0 179 158 166 9 ?1 18 169 18 171 180 166 181 182 5e-7 1 81 1 171 1486 39 169 0 0
 167 183 184 17 180 0 185 186 187 169 188 189 0 190 -18 181 16 183 191 169 192 1
93 5e-7 1 29 182 550 0 169 194 195 .0258046588128405 .0121655781994509 .00230268
126328471 29 194 563 0 165 196 182 .0260546588128405 .0109816872222886 .00230268
126328471 29 195 570 0 197 182 198 .0260546588128405 .0121655781994509 .00230268
126328471 18 197 41 199 188 126 200 195 5e-7 1 29 198 544 0 192 195 201 .0255046
588128405 .0121655781994509 .0015065812981493 18 192 11 202 203 181 204 198 5e-7
 1 29 201 632 0 205 198 206 .0265046588128405 .0124306600138304 .002180580429465
6 18 205 114 207 208 209 61 201 5e-7 1 29 206 636 0 210 201 211 .025504658812840
5 .0124306600138304 .0021805804294656 18 210 118 212 213 214 209 206 5e-7 1 29 2
11 631 0 61 206 215 .0265046588128405 .0107306600138304 .0021805804294656 18 61
 113 216 217 205 57 211 5e-7 1 29 215 634 0 209 211 218 .0255046588128405 .01073
06600138304 .0021805804294656 18 209 116 219 220 210 205 215 5e-7 1 29 218 576 0
 126 215 221 .0255046588128405 .0121655781994509 .0012065812981493 18 126 49 222
 223 122 197 218 5e-7 1 29 221 642 0 224 218 225 .0255046588128405 .012430660013
8303 .00121868944583 18 224 125 226 227 228 214 221 5e-7 1 29 225 648 0 229 221
 230 .0255046588128405 .0107306600138304 .00126327098221422 18 229 132 231 232 1
11 228 225 5e-7 1 29 230 566 0 200 225 233 .0255046588128405 .0109816872222886 .
00123840436833572 18 200 36 234 235 197 165 230 5e-7 1 29 233 646 0 228 230 236
 .0265046588128405 .0107306600138304 .00126327098221422 18 228 130 237 238 229 2
24 233 5e-7 1 29 236 640 0 214 233 239 .0265046588128405 .0124306600138303 .0012
1868944583001 18 214 123 240 241 224 210 236 5e-7 1 29 239 669 0 100 236 50 .026
5046588128405 .00331945521362828 .00596984591662133 18 100 155 242 243 104 96 23
9 5e-7 1 29 50 655 0 111 239 48 .0265046588128405 .0198418648140324 .00520134040
700735 18 111 141 244 43 78 229 50 5e-7 1 81 1 244 1451 39 111 0 0 109 231 245 1
7 43 0 42 241 33 111 46 34 0 246 +15 255 42 185 0 247 248 0 17 241 0 42 249 43 2
14 250 251 0 252 -17 46 0 253 107 246 12 43 34 0 254 -16 34 183 255 ?43 11 256 2
57 0 0 1 17 246 0 253 46 110 111 258 259 0 250 -15 253 180 0 107 260 0 17 110 0
 253 246 107 78 261 262 0 263 +17 258 0 264 265 250 78 246 259 0 0 +16 259 142 2
66 ?258 267 251 268 0 0 1 17 250 0 264 258 269 111 241 251 0 0 +15 264 139 0 217
 270 0 17 269 0 264 250 271 214 208 272 0 0 +16 251 140 273 ?250 259 274 275 0 0
 1 81 1 273 1512 39 251 0 0 266 276 277 16 274 137 276 ?232 251 278 279 0 0 1 13
3 255 275 1057 0 251 280 281 0 +281 .0265046588128405 .0124306600138303 .0012186
89445830054 .0265046588128405 .0198418648140324 .00520134040700737 1.07916765227
5154 1.94754927654733 30 255 280 692 0 1 257 275 282 +.00700465881284051 .019841
8648140324 .00520134040700735 1 0 0 31 255 281 656 0 1 275 283 284 +.02650465881
28405 .0118418648140324 .0112013404070074 1 0 0 0 -.852240960040414 -.5231494490
38602 .01 133 283 1059 0 285 281 286 0 +286 .0265046588128405 .0124306600138303
 .00121868944583001 .0255046588128405 .0124306600138303 .00121868944583001 -.019
5 -.0185 141 255 284 275 287 287 281 141 287 288 284 284 281 133 288 1051 0 289
 290 291 0 +281 .0265046588128405 .003319455213628285 .00596984591662133 .026504
6588128405 .0107306600138304 .00126327098221427 520417042793042e-29 .90890361691
6871 16 289 156 292 ?238 293 294 288 0 0 1 30 290 649 0 1 295 288 296 +.00700465
881284051 .0107306600138304 .00126327098221423 1 0 0 133 291 1053 0 297 288 298
 0 +298 .00700465881284051 .00331945521362828 .00596984591662133 .02650465881284
05 .00331945521362828 .00596984591662133 0 .0195 16 297 178 299 ?243 256 300 291
 0 0 1 30 298 688 0 1 291 257 301 +.00700465881284051 .00331945521362828 .005969
84591662133 1 0 0 133 257 1055 0 34 298 280 0 +280 .00700465881284051 .019841864
8140324 .00520134040700735 .0265046588128405 .0198418648140324 .0052013404070073
5 0 .0195 141 301 291 301 301 298 81 1 299 1495 39 297 0 0 302 303 304 17 243 0
 305 306 307 100 44 297 0 308 +16 256 181 302 ?107 34 297 309 0 0 1 16 300 176 3
03 ?103 297 310 311 0 0 1 81 1 303 1496 39 300 0 0 299 312 313 17 103 0 314 315
 45 47 307 300 0 316 +16 310 173 312 ?99 300 317 318 0 0 1 133 311 1069 0 300 31
9 320 0 +320 .00700465881284051 .00331945521362828 .00596984591662133 .007004658
81284051 .003319455213628275 .01643283489739345 0 .0104629889807721 31 319 694 0
 1 35 311 321 +.00700465881284051 .0118418648140324 .0112013404070074 1 0 0 0 -.
852240960040414 -.523149449038602 .01 30 320 687 0 1 311 309 322 +.0070046588128
4051 .00331945521362828 .00596984591662133 0 -434263699614976e-30 1 133 309 1073
 0 256 320 323 0 +323 .00700465881284051 .0198418648140324 .00520134040700735 .0
0700465881284051 .0198418648140324 .0172013404070074 0 .012 141 322 311 322 322
 320 30 323 691 0 1 309 324 325 +.00700465881284051 .0198418648140324 .005201340
40700735 0 -37007434154172e-30 1 31 324 1201 0 317 323 326 0 +.00700465881284051
 .0118418648140324 .0112013404070074 1 0 0 0 1 0 .01 141 325 309 325 325 323 16
 317 171 327 ?328 310 262 324 0 0 1 30 326 1217 0 262 324 318 0 +.00700465881284
051 .0198418648140324 .0172013404070074 1 0 0 16 262 169 329 ?110 317 330 326 0
 0 1 30 318 1227 0 310 326 331 0 +.00700465881284051 .00331945521362827 .0164328
3489739345 1 0 0 31 331 1231 0 332 318 333 0 +.0257546588128405 .011841864814032
4 .0112013404070074 1 0 0 0 1 0 .01 16 332 70 334 ?335 336 337 331 0 0 1 30 333
 1239 0 338 331 339 0 +.00700465881284051 .0121655781994509 .02119609951586545 1
 0 0 16 338 80 340 ?157 341 342 333 0 0 1 31 339 1245 0 343 333 344 0 +.02550465
88128405 .0118418648140324 .0112013404070074 -1 0 0 0 -1 0 .01 16 343 109 345 ?3
46 347 348 339 349 349 1 30 344 1251 0 350 339 351 0 +.00700465881284051 .012430
66001383038 .02118399136818475 1 0 0 16 350 163 352 ?76 330 353 344 0 0 1 31 351
 1259 0 354 344 355 0 +.0265046588128405 .0118418648140324 .0112013404070074 1 0
 0 0 1 0 .01 16 354 152 356 ?357 294 358 351 267 267 1 30 355 1267 0 353 351 359
 0 +.00700465881284051 .0107306600138304 .02113940983180055 -1 0 0 16 353 160 36
0 ?66 350 293 355 0 0 1 30 359 1274 0 361 355 362 0 +.00700465881284051 .0109816
872222886 .02116427644567905 1 0 0 16 361 96 363 ?146 364 365 359 0 0 1 30 362 1
283 0 330 359 366 0 +.0320046588128405 .01243066001383034 .0202221003845491 -1 0
 0 16 330 164 367 ?85 262 350 362 0 0 1 31 366 1287 0 368 362 369 0 +.0255046588
128405 .0115806600138303 .0202221003845491 -1 0 0 0 -1 0 85e-5 16 368 105 370 ?3
71 348 372 366 0 0 1 30 369 1291 0 293 366 373 0 +.0320046588128405 .01073066001
383034 .0202221003845491 -1 0 0 16 293 159 374 ?88 353 289 369 0 0 1 30 373 1295
 0 375 369 376 0 +.0265046588128405 .01243066001383034 .0112013404070074 0 -4172
745934727e-27 -1 16 375 146 377 ?378 379 267 373 0 0 1 30 376 1299 0 348 373 380
 0 +.0255046588128405 .0124306600138303 .00121868944583 0 -4172745934727e-27 -1
 16 348 107 381 ?382 343 368 376 0 0 1 30 380 1303 0 358 376 383 0 +.02650465881
28405 .0107306600138304 .0112013404070074 0 -444089209850063e-30 1 16 358 150 38
4 ?385 354 379 380 0 0 1 30 383 1307 0 372 380 386 0 +.0255046588128405 .0107306
600138304 .0021805804294656 0 -444089209850063e-30 1 16 372 103 387 ?388 368 349
 383 0 0 1 30 386 1324 0 342 383 389 0 +.0255046588128405 .0121655781994509 .002
11596041823647 0 444089209850063e-30 -1 16 342 78 390 ?115 338 391 386 0 0 1 30
 389 1331 0 392 386 393 0 +.0255046588128405 .0112776599665792 .0208960995158654
 0 -1 0 16 392 56 394 ?395 396 397 389 0 0 1 30 393 1336 0 364 389 398 0 +.02550
46588128405 .0109816872222886 .00211596041823647 0 -444089209850063e-30 1 16 364
 98 399 ?400 349 361 393 0 0 1 38 398 1341 0 401 393 402 0 +24 403 404 405 406 4
07 16 401 63 408 ?409 410 411 398 0 0 1 31 402 1348 0 397 398 412 0 +.0255046588
128405 .0109816872222886 .0205960995158654 0 -1 -444089209850063e-30 0 -44408920
9850063e-30 1 3e-4 54 255 24 1170 0 413 414 415 416 +.0257546588128405 .01184186
48140324 .0112013404070074 -1 0 0 .0097 3e-4 0 -1 0 50 403 1178 0 417 415 418 41
9 -.0255046588128405 .0109816872222886 .00123840436833572 0 1 444089209850063e-3
0 0 -444089209850063e-30 1 40 255 6 404 0 1 6 1689912220071095e-20 .337549259804
6265 ??.0257546588128405 .0109816872222886 .02116427644567905 .02585368234538445
 .0109816872222886 .021147399840669 .02594153999229195 .0109816872222886 .021098
713381329 .026008506366421 .0109816872222886 .02102362711163985 .026047095863443
05 .0109816872222886 .02093032567032335 .0260546588128422 .0109816872222886 .020
8631256721988 41 3 CI8 term_use0 0 1 cCZ1 405 L?.0257546588128405 .0109816872222
886 .02116427644567905 41 1 406 L?.0260546588128422 .0109816872222886 .020863125
6721988 204 2 17 INTERSECTION_DATA17 Intersection data7 uv_type0 0 1 u6 values0
 1 1 fT24 407 4 1.484672137852118 0 .0199258720773433 25e-5 1.484526724579942 -.
3363866731806025 .0199089954723333 .0003490235325439505 1.484104471122114 -.6724
91903374141 .0198603090129933 .0004368811794514505 1.483445110309486 -1.00873527
866753 .01978522274330415 .000503847553580503 1.482611723666358 -1.3457786749365
26 .01969192130198765 .00054243705060255 1.48200158676971 -1.570796326793595 .01
962472130386305 .000550000000001702 14 255 417 94 420 ?421 422 423 6 403 +0 0 42
1 422 31 50 415 1173 0 424 24 403 425 -.0255046588128405 .0121655781994509 .0015
065812981493 0 -1 -444089209850063e-30 0 444089209850063e-30 -1 51 255 418 1179
 0 426 403 427 0 +.00700465881284051 .0118418648140324 .0112013404070074 1 0 0 .
01 0 -.852240960040414 -.523149449038602 141 419 398 419 419 403 14 426 167 428
 ?429 430 431 6 418 +248 248 429 430 31 50 427 1180 0 422 418 432 0 -.0255046588
128405 .0115806600138304 .00211596041823647 -1 0 0 0 1 444089209850063e-30 14 42
2 99 433 ?417 434 435 6 427 +0 0 417 434 31 50 432 1181 0 436 427 437 0 -.026054
6588128405 .0115736327108697 .00204798357943659 -1 0 0 0 1 444089209850063e-30 1
4 436 81 438 ?424 439 440 6 432 +0 0 424 439 31 50 437 1182 0 421 432 20 0 -.025
8046588128405 .0115736327108697 .00204798357943659 -1 0 0 0 1 444089209850063e-3
0 14 421 91 441 ?439 417 442 6 437 -0 0 439 417 31 50 20 1183 0 443 437 7 0 -.03
20046588128405 .0124306600138303 .00121868944583 0 -1 4172745934727e-27 0 417274
5934727e-27 1 14 443 161 444 ?19 429 445 6 20 -0 0 19 429 31 81 1 444 1576 39 44
3 0 0 446 447 448 14 19 157 447 ?270 443 449 6 7 -0 0 270 443 31 14 429 165 450
 ?443 426 451 6 452 -0 0 443 426 31 15 445 162 0 453 443 0 13 31 2 0 0 0 0 0 0 1
0 17 14 17 187 454 ?248 0 314 6 414 -0 0 248 0 31 81 1 454 1570 39 17 0 0 455 45
6 457 14 248 184 456 ?260 17 42 6 418 +426 426 260 17 31 15 314 188 0 45 17 0 50
 414 695 0 17 458 24 0 +.00700465881284051 .0115806600138303 .0112013404070074 1
 0 0 0 -222044604925031e-30 1 50 458 689 0 260 459 414 0 +.00700465881284051 .01
98418648140324 .00520134040700735 0 1 37007434154172e-30 0 -37007434154172e-30 1
 14 260 179 460 ?430 248 253 6 458 +0 0 430 248 31 50 459 685 0 430 452 458 0 +.
00700465881284051 .00331945521362827 .0164328348973934 0 -1 -434263699614976e-30
 0 434263699614976e-30 -1 14 430 174 461 ?426 260 305 6 459 +0 0 426 260 31 51 4
52 678 0 429 462 459 0 +.0320046588128405 .0115806600138303 .0202221003845491 -1
 0 0 85e-5 0 1 0 50 462 654 0 270 463 452 0 +.0265046588128405 .0115806600138303
 .0112013404070074 1 0 0 0 -222044604925031e-30 1 14 270 138 464 ?465 19 264 6 4
62 +0 0 465 19 31 50 463 651 0 465 466 462 0 +.0255046588128405 .011580660013830
4 .00211596041823647 -1 0 0 0 1 444089209850063e-30 14 465 134 467 ?468 270 469
 6 463 -0 0 468 270 31 50 466 645 0 468 470 463 0 +.0320046588128405 .0107306600
138304 .0021805804294656 0 1 444089209850063e-30 0 444089209850063e-30 -1 14 468
 127 471 ?472 465 473 6 466 +0 0 472 465 31 50 470 639 0 472 474 466 0 +.0320046
588128405 .0124306600138303 .00121868944583 0 -1 4172745934727e-27 0 41727459347
27e-27 1 14 472 120 475 ?434 468 476 6 470 +0 0 434 468 31 51 474 630 0 434 477
 470 0 +.0320046588128405 .0115806600138304 .0021805804294656 1 0 0 85e-5 0 1 44
4089209850063e-30 14 434 110 478 ?422 472 479 6 474 -0 0 422 472 31 51 477 610 0
 439 480 474 0 +.0258046588128405 .0115736327108697 .02009999955073 1 0 0 .00059
1945488581118 0 -1 0 14 439 86 481 ?436 421 482 6 477 +0 0 436 421 31 51 480 579
 0 483 484 477 0 +.0255046588128405 .0112776599665792 .0205960995158654 0 1 0 3e
-4 .707106781186558 0 .707106781186537 14 483 51 485 ?486 413 487 6 480 -0 0 486
 413 31 50 484 575 0 486 488 480 489 +.0255046588128405 .0121655781994509 .00150
65812981493 0 -1 -444089209850063e-30 0 444089209850063e-30 -1 14 486 46 490 ?49
1 483 492 6 484 -0 0 491 483 31 51 488 573 0 491 493 484 0 +.0258046588128405 .0
115736327108697 .00230268126328471 -1 0 0 .000591945488581118 0 -1 -444089209850
063e-30 141 489 22 489 489 484 38 22 1414 0 494 495 8 0 +484 24 496 497 498 499
 16 494 27 500 ?501 502 503 22 0 0 1 31 495 1409 0 396 504 22 0 +.02550465881284
05 .0121655781994509 .0205960995158654 0 1 444089209850063e-30 0 444089209850063
e-30 -1 3e-4 40 6 496 0 1 6 169096671187041e-19 .3373943293769535 ??.02575465881
28405 .0121655781994509 .001206581298149356 .02585392114478815 .0121655781994509
 .001223487737300832 .02594199217048 .0121655781994509 .001272295217486616 .0260
089681184825 .0121655781994509 .001347512326159354 .0260473069118513 .0121655781
994509 .00144069867899804 .02605465881284195 .0121655781994509 .0015067434765461
75 41 1 497 L?.0257546588128405 .0121655781994509 .001206581298149356 41 1 498 L
?.02605465881284195 .0121655781994509 .001506743476546175 204 24 499 4 .00029999
99999999445 25e-5 4.68001198550167 0 .000283093560848468 .0003492623319476495 4.
67995716446091 -.3372300574079545 .000234286080662684 .0004373333576394995 4.679
79785434969 -.674420158566426 .000159068971989946 .000504309305642003 4.67954925
504217 -1.011630062654436 658826191512602e-19 .000542648099010803 4.679235957716
9 -1.348953637648726 -1621783968727435e-22 .000550000000001456 4.67901026868524
 -1.570796326793625 16 396 58 505 ?506 411 392 495 0 0 1 38 504 1402 0 337 507 4
95 0 +24 415 508 509 510 511 16 337 68 512 ?513 332 410 504 0 0 1 30 507 1394 0
 336 514 504 0 +.0260546588128405 .0121655781994509 .00204798357943659 0 -444089
209850063e-30 1 40 6 508 0 1 6 169336528556416e-19 .337549964868179 ??.026054658
8128405 .0121655781994509 .0208959373374682 .02603773342030345 .0121655781994509
 .0209953338076434 .0259888586386492 .0121655781994509 .02108352435515015 .02591
355813419095 .0121655781994509 .0211505377172451 .02582036204321035 .01216557819
94509 .02118881242655415 .0257546588128408 .0121655781994509 .02119609951586685
 41 1 509 L?.0260546588128405 .0121655781994509 .0208959373374682 41 1 510 L?.02
57546588128408 .0121655781994509 .02119609951586685 204 24 511 4 1.6041750384943
45 -1.570796326795025 -.0193893560393189 55e-5 1.60383653512698 -1.2332860246007
7 -.0194887525094941 .000533074607462949 1.60354188950906 -.895730934556554 -.01
957694305700085 .0004841998258087 1.60332148602724 -.558204863754399 -.019643956
4190958 .0004088993213504505 1.603196928154655 -.22080050913651 -.01968223112840
485 .0003157032303698485 1.60317332167791 -1040834085581294e-27 -.01968951821771
755 .0002500000000003125 16 336 73 515 ?154 516 332 507 0 0 1 31 514 1388 0 410
 517 507 0 +.0260546588128405 .0118418648140324 .0112013404070074 -1 0 0 0 -1 0
 .0097 16 410 66 518 ?519 337 401 514 0 0 1 31 517 1385 0 520 521 514 0 +.026054
6588128405 .0115736327108697 .02009999955073 1 0 0 0 -1 0 .000591945488581118 16
 520 85 522 ?133 523 341 517 0 0 1 30 521 1379 0 516 524 517 0 +.025804658812840
5 .01216557819945086 .02009999955073 1 0 0 16 516 75 525 ?526 391 336 521 0 0 1
 31 524 1376 0 523 527 521 0 +.0258046588128405 .0115736327108697 .0200999995507
3 1 0 0 0 -1 0 .000591945488581118 16 523 88 528 ?143 529 520 524 0 0 1 30 527 1
371 0 391 530 524 0 +.0258046588128405 .0121655781994509 .0015065812981493 0 -44
4089209850063e-30 1 16 391 77 531 ?120 342 516 527 0 0 1 30 530 1366 0 411 532 5
27 0 +.0258046588128405 .0112776599665792 .0205960995158654 0 -1 0 16 411 60 533
 ?534 401 396 530 0 0 1 30 532 1360 0 341 535 530 0 +.0260546588128405 .01098168
72222886 .00204798357943659 0 444089209850063e-30 -1 16 341 83 536 ?537 520 338
 532 0 0 1 30 535 1356 0 529 412 532 0 +.0258046588128405 .0109816872222886 .020
09999955073 1 0 0 16 529 90 538 ?137 365 523 535 0 0 1 30 412 1353 0 365 402 535
 0 +.0258046588128405 .0109816872222886 .00123840436833572 0 444089209850063e-30
 -1 16 365 93 539 ?140 361 529 412 0 0 1 81 1 539 1532 39 365 0 0 363 538 540 17
 140 0 423 137 541 72 125 365 0 542 +15 423 95 0 543 417 0 17 137 0 423 150 140
 55 542 529 0 544 +17 541 0 423 140 129 122 545 397 0 0 -17 125 0 442 546 547 12
2 140 365 0 534 -17 542 0 482 143 544 72 137 529 0 547 -15 482 87 0 143 439 0 17
 143 0 482 526 542 56 547 523 0 548 +17 544 0 482 542 526 55 133 520 0 537 -17 5
47 0 442 125 548 72 143 523 0 0 -15 442 92 0 546 421 0 17 548 0 442 547 546 56 1
20 391 0 549 -17 546 0 442 548 125 116 534 411 0 506 -17 120 0 550 551 549 116 5
48 391 0 546 +17 549 0 550 120 552 56 526 516 0 0 -15 550 72 0 553 424 0 17 552
 0 550 549 553 130 154 336 0 0 -17 526 0 482 544 143 130 549 516 0 552 +17 553 0
 550 552 157 151 513 337 0 519 -17 154 0 440 554 133 151 552 336 0 553 +15 440 8
2 0 554 436 0 17 554 0 440 537 154 147 519 410 0 409 -17 133 0 440 154 537 130 5
44 520 0 526 +17 537 0 440 133 554 55 150 341 0 0 +17 150 0 423 543 137 147 537
 341 0 554 -17 543 0 423 555 150 121 409 401 0 0 -17 555 0 423 129 543 68 146 36
1 0 0 -17 409 0 556 519 335 147 543 401 0 0 +15 556 62 0 409 413 0 17 519 0 556
 513 409 151 554 410 0 0 +17 335 0 556 409 513 121 557 332 0 543 +17 513 0 556 3
35 519 134 553 337 0 0 +17 557 0 431 558 146 134 335 332 0 513 -15 431 168 0 557
 426 0 17 558 0 431 346 557 51 157 338 0 559 -17 146 0 431 557 71 121 555 361 0
 335 +17 71 0 431 146 66 68 560 349 0 400 +17 66 0 431 71 561 63 95 353 0 388 +1
7 560 0 435 562 400 63 71 349 0 0 -16 349 101 563 ?71 372 364 339 343 343 1 17 4
00 0 435 560 395 68 129 364 0 555 +15 435 100 0 115 422 0 17 395 0 435 400 115 1
17 564 392 0 545 +17 129 0 423 541 555 117 400 364 0 395 -17 115 0 435 395 54 11
2 559 342 0 551 +17 564 0 487 506 545 112 395 392 0 0 -17 545 0 487 564 534 117
 541 397 0 0 +15 487 52 0 545 483 0 17 534 0 487 545 506 122 546 411 0 541 +16 3
97 53 565 ?545 392 566 402 0 0 1 81 1 565 1549 39 397 0 0 394 567 568 16 566 50
 567 ?569 397 570 571 0 0 1 81 1 567 1550 39 566 0 0 565 572 573 17 569 0 469 22
7 574 126 203 566 0 575 +16 570 48 572 ?161 566 189 576 0 0 1 133 571 965 0 566
 577 578 0 +578 .0255046588128405 .0121655781994509 .0015065812981493 .025504658
8128405 .0121655781994509 .0012065812981493 .00030468956004359 .0006046895600435
9 30 577 635 0 1 579 571 580 +.0320046588128405 .0107306600138304 .0021805804294
656 -1 0 0 30 578 578 0 1 571 581 582 +.0255046588128405 .0121655781994509 .0018
1127085819289 0 444089209850063e-30 -1 133 581 967 0 583 578 584 0 +584 .0255046
588128405 .0124306600138304 .00121868944583 .0255046588128405 .0124306600138304
 .0021805804294656 -.0009618909836356 0 141 582 571 582 582 578 16 583 124 585 ?
213 285 272 581 0 0 1 30 584 643 0 1 581 586 587 +.0255046588128405 .01243066001
38304 .0021805804294656 0 4172745934727e-27 1 133 586 969 0 588 584 589 0 +589 .
0255046588128405 .0124306600138304 .0021805804294656 .0255046588128405 .01073066
00138304 .0021805804294656 -888178419700125e-30 3.141592653589795 141 587 581 58
7 587 584 16 588 117 590 ?591 592 593 586 0 0 1 31 589 637 0 1 586 594 595 +.025
5046588128405 .0115806600138304 .0021805804294656 1 0 0 0 1 444089209850063e-30
 85e-5 133 594 971 0 596 589 597 0 +597 .0255046588128405 .0107306600138304 .002
1805804294656 .0255046588128405 .0107306600138304 .00126327098221422 0 .00091730
944725138 141 595 586 595 595 589 16 596 133 598 ?599 278 600 594 0 0 1 30 597 6
50 0 1 594 601 602 +.0255046588128405 .0107306600138304 .0021805804294656 0 4440
89209850063e-30 -1 133 601 973 0 603 597 604 0 +604 .0255046588128405 .010981687
2222886 .00123840436833572 .0255046588128405 .0109816872222886 .0015065812981493
 -.00043877802495038 -.0001706010951368 141 602 594 602 602 597 16 603 35 605 ?6
06 607 608 601 0 0 1 30 604 567 0 1 601 609 610 +.0255046588128405 .010981687222
2886 .0016771823932861 0 -444089209850063e-30 1 133 609 975 0 611 604 612 0 +612
 .0255046588128405 .0109816872222886 .0015065812981493 .0255046588128405 .012165
5781994509 .0015065812981493 -.0002994863957708985 .0008844045813914 141 610 601
 610 610 604 16 611 12 613 ?574 614 615 609 0 0 1 30 612 546 0 1 609 616 617 +.0
255046588128405 .0112811736180595 .0015065812981493 0 1 444089209850063e-30 133
 616 980 0 618 612 619 0 +619 .0265046588128405 .0107306600138304 .0012632709822
1422 .0265046588128405 .0107306600138304 .0021805804294656 -.00542768943602226 -
.00451037998877088 141 617 609 617 617 612 16 618 129 620 ?217 600 285 616 0 0 1
 30 619 647 0 1 616 621 622 +.0265046588128405 .0107306600138304 .00669096041823
648 0 -444089209850063e-30 1 133 621 982 0 347 619 623 0 +623 .0265046588128405
 .0107306600138304 .0021805804294656 .0265046588128405 .0124306600138304 .002180
5804294656 3.141592653589795 6.28318530717959 141 622 616 622 622 619 16 347 112
 624 ?271 593 343 621 0 0 1 31 623 633 0 1 621 625 626 +.0265046588128405 .01158
06600138304 .0021805804294656 -1 0 0 0 1 444089209850063e-30 85e-5 133 625 984 0
 272 623 627 0 +627 .0265046588128405 .01243066001383038 .0021805804294656 .0265
046588128405 .01243066001383038 .00121868944583001 .00402943449695307 .004991325
48058866 141 626 621 626 626 623 16 272 122 628 ?269 583 592 625 0 0 1 30 627 64
1 0 1 625 629 630 +.0265046588128405 .0124306600138304 .00621001492641867 0 -417
2745934727e-27 -1 31 629 664 0 379 627 631 0 +.0265046588128405 .011580660013830
3 .0202221003845491 -1 0 0 0 1 0 85e-5 141 630 625 630 630 627 16 379 148 632 ?6
33 358 375 629 0 0 1 133 631 1031 0 294 629 634 0 +634 .0265046588128405 .003319
455213628275 .01643283489739345 .0265046588128405 .00331945521362828 .0059698459
1662133 -.0104629889807721 0 16 294 154 635 ?636 289 354 631 0 0 1 30 634 670 0
 1 631 268 637 +.0265046588128405 .00331945521362828 .00596984591662133 0 434263
699614976e-30 -1 133 268 1039 0 259 634 638 0 +638 .0265046588128405 .0198418648
140324 .00520134040700735 .0265046588128405 .0198418648140324 .0172013404070074
 0 .012 141 637 631 637 637 634 30 638 658 0 1 268 639 640 +.0265046588128405 .0
198418648140324 .00520134040700735 0 -37007434154172e-30 1 31 639 558 0 503 638
 641 0 +.0257546588128405 .0118418648140324 .0112013404070074 1 0 0 0 -.02687036
25052011 -.999638926622428 .01 141 640 268 640 640 638 16 503 25 642 ?643 494 21
 639 0 0 1 133 641 1045 0 607 639 644 0 +644 .0255046588128405 .0109816872222886
 .00123840436833572 .0257546588128405 .0109816872222886 .00123840436833575 0 25e
-5 16 607 37 645 ?179 646 603 641 0 0 1 30 644 568 0 1 641 279 647 +.02550465881
28405 .0109816872222886 .00123840436833572 1 0 0 133 279 1047 0 274 644 648 0 +6
48 .0255046588128405 .0109816872222886 .001238404368335774 .0255046588128405 .01
07306600138304 .00126327098221427 5.34905543757664 5.37428169026272 141 647 641
 647 647 644 31 648 653 0 1 279 295 649 +.0255046588128405 .0118418648140324 .01
12013404070074 -1 0 0 0 -.852240960040414 -.523149449038602 .01 133 295 1049 0 6
00 648 290 0 +290 .0255046588128405 .0107306600138304 .00126327098221423 .026504
6588128405 .0107306600138304 .00126327098221423 .0185 .0195 141 649 279 650 650
 648 141 650 651 649 649 648 133 651 1061 0 278 286 576 0 +648 .0255046588128405
 .0124306600138303 .001218689445830054 .0255046588128405 .0121655781994509 .0012
06581298149354 5.20401765490443 5.23055425375085 16 278 136 652 ?223 274 596 651
 0 0 1 30 286 644 0 1 283 651 653 +.00700465881284051 .0124306600138303 .0012186
8944583001 -1 0 0 133 576 1063 0 570 651 654 0 +654 .0255046588128405 .012165578
1994509 .0012065812981493 .0257546588128405 .0121655781994509 .00120658129814932
8 0 25e-5 30 654 577 0 1 576 35 655 +.0255046588128405 .0121655781994509 .001206
5812981493 1 0 0 133 35 1067 0 11 654 319 0 +319 .00700465881284051 .00331945521
3628285 .00596984591662133 .00700465881284051 .0198418648140324 .005201340407007
37 520417042793042e-29 1.94754927654733 141 655 576 655 655 654 141 653 283 653
 653 286 81 1 652 1514 39 278 0 0 276 598 656 17 223 0 42 161 249 126 227 278 0
 569 +17 161 0 42 247 223 158 575 570 0 657 +17 249 0 42 223 241 224 252 285 0 6
58 +17 227 0 469 213 569 224 223 278 0 249 -15 469 135 0 569 465 0 17 213 0 469
 591 227 210 658 583 0 659 +17 591 0 469 599 213 209 660 588 0 661 +17 658 0 476
 252 659 224 213 583 0 0 -17 659 0 476 658 208 210 662 592 0 660 +15 476 121 0 2
08 472 0 17 208 0 476 659 252 205 269 272 0 662 -17 662 0 479 663 660 205 659 59
2 0 271 -16 592 119 664 ?659 272 588 665 0 0 1 17 660 0 479 662 661 210 591 588
 0 0 -15 479 111 0 663 434 0 17 661 0 479 660 663 209 666 593 0 0 +17 663 0 479
 661 662 61 271 347 0 0 -17 666 0 473 667 220 61 661 593 0 663 -16 593 115 668 ?
661 588 347 579 0 0 1 81 1 668 1523 39 593 0 0 590 624 669 133 579 961 0 593 670
 577 0 +577 .0265046588128405 .0107306600138304 .0021805804294656 .0255046588128
405 .0107306600138304 .0021805804294656 .0055 .0065 30 670 638 0 1 665 579 671 +
.0320046588128405 .0124306600138304 .0021805804294656 -1 0 0 133 665 957 0 592 6
72 670 0 +670 .0265046588128405 .0124306600138304 .0021805804294656 .02550465881
28405 .0124306600138304 .0021805804294656 .0055 .0065 141 671 665 671 671 670 30
 672 571 0 1 673 665 674 +.0260546588128405 .0121655781994509 .00230268126328471
 0 444089209850063e-30 -1 133 673 899 0 646 675 672 0 +672 .0260546588128405 .01
21655781994509 .00230268126328471 .0260546588128405 .0121655781994509 .001506743
476546525 0 .000795937786738183 141 674 673 674 674 672 16 646 40 676 ?164 677 6
07 673 0 0 1 30 675 574 0 1 678 673 679 +.0258046588128405 .0121655781994509 .00
230268126328471 1 0 0 133 678 897 0 189 680 675 0 +675 .0258046588128405 .012165
5781994509 .00230268126328471 .0260546588128405 .0121655781994509 .0023026812632
8471 0 25e-5 141 679 678 679 679 675 16 189 45 681 ?188 570 677 678 0 0 1 30 680
 552 0 1 682 678 683 +.0258046588128405 .0121655781994509 .00230268126328471 0 4
44089209850063e-30 -1 133 682 895 0 684 685 680 0 +680 .0258046588128405 .012165
5781994509 .00230268126328471 .0258046588128405 .0121655781994509 .0018065812981
493 0 .00049609996513541 141 683 682 683 683 680 16 684 19 686 ?687 21 688 682 0
 0 1 31 685 545 0 1 689 682 690 +.0255046588128405 .0121655781994509 .0018065812
981493 0 1 444089209850063e-30 .70710678118655 0 -.707106781186545 3e-4 133 689
 893 0 615 691 685 0 +685 .0258046588128405 .0121655781994509 .0018065812981493
 .0255046588128405 .0121655781994509 .0015065812981493 5.49778714378214 7.068583
47057704 141 690 689 690 690 685 16 615 10 692 ?693 611 694 689 0 0 1 31 691 572
 0 1 695 689 696 +.0260546588128405 .0115736327108697 .00230268126328471 -1 0 0
 0 -1 -444089209850063e-30 .000591945488581118 133 695 887 0 677 697 691 0 +691
 .0260546588128405 .01098168722228858 .00230268126328471 .0260546588128405 .0121
6557819945082 .00230268126328471 444089209850063e-30 3.141592653589795 141 696 6
95 696 696 691 16 677 42 698 ?187 189 646 695 0 0 1 30 697 565 0 1 699 695 700 +
.0258046588128405 .0109816872222886 .00230268126328471 1 0 0 133 699 885 0 608 7
01 697 0 +697 .0258046588128405 .0109816872222886 .00230268126328471 .0260546588
128405 .0109816872222886 .00230268126328471 0 25e-5 141 700 699 700 700 697 16 6
08 34 702 ?703 603 177 699 0 0 1 31 701 551 0 1 704 699 705 +.0258046588128405 .
0115736327108697 .00230268126328471 -1 0 0 0 -1 -444089209850063e-30 .0005919454
88581118 133 704 883 0 688 706 701 0 +701 .0258046588128405 .01098168722228858 .
00230268126328471 .0258046588128405 .01216557819945082 .00230268126328471 444089
209850063e-30 3.141592653589795 141 705 704 705 705 701 16 688 17 707 ?708 684 6
14 704 0 0 1 30 706 564 0 1 709 704 710 +.0260546588128405 .0109816872222886 .00
123840436833572 0 -444089209850063e-30 1 133 709 879 0 177 711 706 0 +706 .02605
46588128405 .0109816872222886 .00153955514181638 .0260546588128405 .010981687222
2886 .00230268126328471 .0003011507734806585 .00106427689494899 141 710 709 710
 710 706 16 177 32 712 ?176 608 502 709 0 0 1 31 711 561 0 502 713 709 0 +.02605
46588128405 .0118418648140324 .0112013404070074 -1 0 0 0 -.0268703625052011 -.99
9638926622428 .0097 16 502 29 714 ?178 177 494 711 0 0 1 31 713 541 0 1 715 711
 716 +.0255046588128405 .0109816872222886 .0018065812981493 0 -1 -44408920985006
3e-30 .70710678118655 0 -.707106781186545 3e-4 133 715 873 0 717 718 713 0 +713
 .0255046588128405 .0109816872222886 .0015065812981493 .0258046588128405 .010981
6872222886 .0018065812981493 5.49778714378213 7.06858347057703 141 716 715 716 7
16 713 16 717 5 455 ?719 694 0 715 0 0 1 30 718 549 0 1 720 715 721 +.0258046588
128405 .0109816872222886 .00123840436833572 0 -444089209850063e-30 1 133 720 871
 0 614 722 718 0 +718 .0258046588128405 .0109816872222886 .0018065812981493 .025
8046588128405 .0109816872222886 .00230268126328471 .00056817692981358 .001064276
89494899 141 721 720 721 721 718 16 614 15 723 ?724 688 611 720 0 0 1 30 722 543
 0 1 725 720 726 +.0258046588128405 .0112776599665792 .0018065812981493 0 1 4440
89209850063e-30 133 725 863 0 694 0 722 0 +722 .0258046588128405 .01098168722228
86 .0018065812981493 .0258046588128405 .0121655781994509 .0018065812981493 -.000
2959727442906 .000887918232871699 141 726 725 726 726 722 16 694 8 727 ?728 615
 717 725 0 0 1 81 1 727 1568 39 694 0 0 692 455 729 17 728 0 730 693 719 204 731
 694 0 0 +15 730 4 0 719 732 0 17 693 0 730 733 728 192 734 615 0 0 +17 719 0 73
0 728 733 735 736 717 0 0 +18 204 9 737 687 192 735 738 5e-7 1 17 731 0 739 724
 687 735 728 694 0 719 -15 739 14 0 731 740 0 17 724 0 739 708 731 181 741 614 0
 0 +17 687 0 739 731 708 204 190 684 0 734 +18 735 7 742 741 204 743 744 5e-7 1
 81 1 742 1490 39 735 0 0 737 745 746 17 741 0 747 736 191 735 724 614 0 731 -18
 743 6 745 606 735 0 196 5e-7 1 29 744 540 0 735 0 738 .0258046588128405 .010981
6872222886 .0018065812981493 29 738 542 0 204 744 193 .0258046588128405 .0121655
781994509 .0018065812981493 29 193 548 0 181 738 196 .0258046588128405 .01098168
72222886 .00230268126328471 29 196 539 0 743 193 194 .0255046588128405 .01098168
72222886 .0015065812981493 81 1 745 1491 39 743 0 0 742 32 748 17 606 0 469 574
 235 743 749 603 0 733 +17 574 0 469 569 606 192 733 611 0 693 +17 235 0 469 606
 599 200 232 274 0 750 -17 749 0 747 179 736 200 606 603 0 0 -17 733 0 730 719 6
93 743 574 611 0 736 -17 736 0 747 749 741 743 719 717 0 0 -15 747 31 0 751 752
 0 17 751 0 747 176 179 166 753 21 0 0 -14 752 30 754 ?755 756 747 6 23 -0 0 755
 756 31 81 1 754 1594 39 752 0 0 757 758 759 14 755 20 758 ?740 752 760 6 24 +41
3 413 740 752 31 14 756 38 757 ?752 491 173 6 493 -0 0 752 491 31 50 23 562 0 75
2 761 493 762 +.0255046588128405 .0109816872222886 .00123840436833572 0 1 444089
209850063e-30 0 -444089209850063e-30 1 50 761 547 0 740 763 23 0 +.0258046588128
405 .0115736327108697 .00204798357943659 -1 0 0 0 1 444089209850063e-30 50 493 5
69 0 756 23 488 0 +.0260546588128405 .0115736327108697 .00204798357943659 -1 0 0
 0 1 444089209850063e-30 141 762 8 762 762 23 14 740 13 764 ?732 755 739 6 761 +
0 0 732 755 31 51 763 538 0 732 0 761 0 +.0255046588128405 .0112776599665792 .00
18065812981493 0 1 444089209850063e-30 3e-4 .70710678118655 0 -.707106781186545
 14 732 3 765 ?0 740 730 6 763 -0 0 0 740 31 81 1 765 1597 39 732 0 0 764 14 766
 80 7 CCCCCDI12 legal_owners0 17 1 lCZ1 39 767 768 9000 0 0 0 0 3 5 0 0 0 FFTFTF
TTFFFFFFFFF2 81 1 764 1596 39 740 0 0 758 765 769 81 1 14 1598 39 1 770 2 765 0
 771 83 255 1 766 410 81 1 770 1438 772 1 773 14 0 0 774 83 1 771 411 80 1 772 7
75 776 9000 0 0 0 0 3 5 0 0 0 TTTFFFFFFFFFFFFFF1 81 1 773 859 777 1 778 770 0 0
 779 82 255 1 774 0 80 1 777 780 781 8038 0 0 0 0 0 0 0 0 0 TTTTTTTTTTTTTFTFT10
 81 1 778 858 780 1 0 773 0 0 782 98 255 20 779 79 110 101 32 115 105 100 101 32
 84 84 32 77 111 116 111 114 32 118 49 80 1 780 783 784 8017 0 0 0 0 0 0 0 0 0 T
TTTTTTTTTTTTFTFT3 84 255 20 782 One side TT Motor v179 255 13 784 SDL/TYSA_NAME7
9 14 781 SDL/TYSA_UNAME79 23 776 ONSHAPE_ORIGINALBODY_ID81 1 758 1595 39 755 0 0
 754 764 785 83 1 769 409 83 1 785 408 79 13 768 BTI/importTag81 1 757 1593 39 7
56 0 0 786 754 787 14 491 43 786 ?756 486 185 6 488 +0 0 756 486 31 15 173 39 0
 174 756 0 17 174 0 173 788 168 162 178 502 0 501 -17 788 0 173 175 174 197 164
 646 0 0 -17 178 0 760 753 501 166 174 502 0 751 +17 501 0 760 178 643 162 657 4
94 0 0 +15 760 21 0 753 755 0 17 643 0 760 501 753 158 247 503 0 0 +17 657 0 492
 575 164 158 501 494 0 643 -15 492 47 0 657 486 0 17 575 0 492 203 657 126 161 5
70 0 0 -17 164 0 492 657 188 162 788 646 0 174 +17 188 0 492 164 190 197 180 189
 0 187 +17 190 0 492 188 734 169 687 684 0 708 -17 187 0 185 180 703 197 175 677
 0 788 +15 185 44 0 186 491 0 17 703 0 185 187 186 165 191 608 0 176 +17 175 0 1
73 168 788 165 187 677 0 703 -18 165 33 789 175 200 162 194 5e-7 1 81 1 789 1481
 39 165 0 0 234 163 790 81 1 234 1480 39 200 0 0 199 789 791 81 1 163 1482 39 16
2 0 0 789 160 792 83 1 790 294 81 1 160 1483 39 158 0 0 163 170 793 83 1 792 295
 81 1 170 1484 39 29 0 0 160 167 794 83 1 793 296 83 1 794 297 81 1 199 1479 39
 197 0 0 222 234 795 83 1 791 293 81 1 222 1478 39 126 0 0 124 199 796 83 1 795
 292 81 1 124 1477 39 122 0 0 128 222 797 83 1 796 291 81 1 128 1476 39 117 0 0
 114 124 798 83 1 797 290 81 1 114 1475 39 112 0 0 119 128 799 83 1 798 289 81 1
 119 1474 39 116 0 0 145 114 800 83 1 799 288 81 1 145 1473 39 121 0 0 149 119 8
01 83 1 800 287 81 1 149 1472 39 147 0 0 153 145 802 83 1 801 286 81 1 153 1471
 39 151 0 0 156 149 803 83 1 802 285 81 1 156 1470 39 134 0 0 132 153 804 83 1 8
03 284 81 1 132 1469 39 130 0 0 142 156 805 83 1 804 283 81 1 142 1468 39 56 0 0
 53 132 806 83 1 805 282 81 1 53 1467 39 51 0 0 136 142 807 83 1 806 281 81 1 13
6 1466 39 55 0 0 139 53 808 83 1 807 280 81 1 139 1465 39 72 0 0 70 136 809 83 1
 808 279 81 1 70 1464 39 68 0 0 65 139 810 83 1 809 278 81 1 65 1463 39 63 0 0 8
7 70 811 83 1 810 277 81 1 87 1462 39 67 0 0 84 65 812 83 1 811 276 81 1 84 1461
 39 62 0 0 59 87 813 83 1 812 275 81 1 59 1460 39 57 0 0 216 84 814 83 1 813 274
 81 1 216 1459 39 61 0 0 207 59 815 83 1 814 273 81 1 207 1458 39 205 0 0 219 21
6 816 83 1 815 272 81 1 219 1457 39 209 0 0 212 207 817 83 1 816 271 81 1 212 14
56 39 210 0 0 240 219 818 83 1 817 270 81 1 240 1455 39 214 0 0 226 212 819 83 1
 818 269 81 1 226 1454 39 224 0 0 237 240 820 83 1 819 268 81 1 237 1453 39 228
 0 0 231 226 821 83 1 820 267 81 1 231 1452 39 229 0 0 244 237 822 83 1 821 266
 83 1 822 265 17 186 0 185 703 180 181 708 688 0 724 -17 191 0 747 741 176 181 7
03 608 0 186 -17 176 0 747 191 751 165 168 177 0 0 +17 708 0 739 687 724 169 186
 688 0 0 +17 734 0 492 190 203 204 693 615 0 728 -17 203 0 492 734 575 192 569 5
66 0 574 -17 753 0 760 643 178 29 751 21 0 0 +17 247 0 42 750 161 29 643 503 0 7
53 -17 750 0 42 232 247 200 179 607 0 749 -17 232 0 42 823 750 229 235 274 0 599
 +17 179 0 747 751 749 29 750 607 0 247 +17 823 0 42 308 232 228 824 600 0 667 +
17 599 0 469 235 591 229 220 596 0 824 +17 220 0 473 666 824 209 599 596 0 591 -
17 824 0 473 220 667 229 823 600 0 0 -15 473 128 0 667 468 0 17 667 0 473 824 66
6 228 217 618 0 0 -16 600 131 825 ?823 596 618 295 0 0 1 81 1 825 1516 39 600 0
 0 598 620 826 81 1 598 1515 39 596 0 0 652 825 827 81 1 620 1517 39 618 0 0 825
 828 829 83 1 826 329 81 1 828 1518 39 285 0 0 620 585 830 83 1 829 330 16 285 1
26 828 ?249 618 583 283 0 0 1 81 1 585 1519 39 583 0 0 828 628 831 83 1 830 331
 81 1 628 1520 39 272 0 0 585 664 832 83 1 831 332 81 1 664 1521 39 592 0 0 628
 590 833 83 1 832 333 81 1 590 1522 39 588 0 0 664 668 834 83 1 833 334 83 1 834
 335 83 1 827 328 17 217 0 264 271 238 61 667 618 0 666 +17 271 0 264 269 217 20
5 663 347 0 0 +17 238 0 264 217 636 228 308 289 0 823 +17 636 0 264 238 357 100
 306 294 0 0 +17 308 0 42 44 823 100 238 289 0 636 -17 44 0 42 33 308 37 243 297
 0 307 -17 307 0 305 243 316 37 103 300 0 0 -15 305 175 0 307 430 0 17 316 0 305
 307 306 47 99 310 0 328 -17 306 0 305 316 243 96 636 294 0 357 -17 99 0 431 561
 328 96 316 310 0 306 +17 328 0 431 99 261 47 315 317 0 0 +17 261 0 431 328 263
 104 110 262 0 0 -17 315 0 314 254 103 104 328 317 0 261 -17 254 0 314 45 315 12
 107 256 0 0 -17 45 0 314 103 254 37 33 11 0 44 -17 107 0 253 110 46 104 254 256
 0 315 +17 263 0 431 261 76 78 265 267 0 258 -17 76 0 431 263 346 73 60 350 0 45
3 +17 265 0 264 378 258 73 263 267 0 0 +16 267 144 835 ?265 375 259 351 354 354
 1 81 1 835 1510 39 267 0 0 377 266 836 81 1 377 1509 39 375 0 0 632 835 837 81
 1 266 1511 39 259 0 0 835 273 838 83 1 836 323 83 1 838 324 81 1 632 1508 39 37
9 0 0 384 377 839 83 1 837 322 81 1 384 1507 39 358 0 0 356 632 840 83 1 839 321
 81 1 356 1506 39 354 0 0 635 384 841 83 1 840 320 81 1 635 1505 39 294 0 0 292
 356 842 83 1 841 319 81 1 292 1504 39 289 0 0 374 635 843 83 1 842 318 81 1 374
 1503 39 293 0 0 360 292 844 83 1 843 317 81 1 360 1502 39 353 0 0 352 374 845 8
3 1 844 316 81 1 352 1501 39 350 0 0 367 360 846 83 1 845 315 81 1 367 1500 39 3
30 0 0 329 352 847 83 1 846 314 81 1 329 1499 39 262 0 0 327 367 848 83 1 847 31
3 81 1 327 1498 39 317 0 0 312 329 849 83 1 848 312 81 1 312 1497 39 310 0 0 303
 327 850 83 1 849 311 83 1 850 310 17 378 0 264 633 265 77 453 375 0 0 +17 633 0
 264 385 378 82 851 379 0 0 +17 453 0 445 60 81 73 378 375 0 265 -17 60 0 445 38
2 453 57 76 350 0 346 -17 81 0 445 453 382 77 85 330 0 851 -17 382 0 445 81 60 6
2 852 348 0 853 +17 85 0 451 371 851 62 81 330 0 382 +17 851 0 451 85 91 77 633
 379 0 378 -15 451 166 0 851 429 0 17 91 0 451 851 371 82 88 293 0 854 -17 371 0
 451 91 85 67 853 368 0 562 +17 88 0 449 388 854 67 91 293 0 371 +17 854 0 449 8
8 95 82 385 358 0 633 -15 449 158 0 854 19 0 17 95 0 449 854 388 92 66 353 0 561
 -17 385 0 264 357 633 92 854 358 0 0 +17 357 0 264 636 385 96 561 354 0 0 +17 5
61 0 431 66 99 92 357 354 0 385 -17 388 0 449 95 88 63 562 372 0 560 +17 562 0 4
35 853 560 67 388 372 0 0 -17 853 0 435 852 562 62 371 368 0 0 -17 852 0 435 54
 853 57 382 348 0 0 -17 54 0 435 115 852 51 346 343 0 558 -17 346 0 431 76 558 5
7 54 343 0 852 +16 21 22 855 ?753 503 684 8 0 0 1 81 1 855 1562 39 21 0 0 642 68
6 856 81 1 642 1561 39 503 0 0 500 855 857 81 1 686 1563 39 684 0 0 855 707 858
 83 1 856 375 81 1 707 1564 39 688 0 0 686 723 859 83 1 858 376 81 1 723 1565 39
 614 0 0 707 613 860 83 1 859 377 81 1 613 1566 39 611 0 0 723 692 861 83 1 860
 378 81 1 692 1567 39 615 0 0 613 727 862 83 1 861 379 83 1 862 380 81 1 500 156
0 39 494 0 0 714 642 863 83 1 857 374 81 1 714 1559 39 502 0 0 712 500 864 83 1
 863 373 81 1 712 1558 39 177 0 0 702 714 865 83 1 864 372 81 1 702 1557 39 608
 0 0 605 712 866 83 1 865 371 81 1 605 1556 39 603 0 0 645 702 867 83 1 866 370
 81 1 645 1555 39 607 0 0 676 605 868 83 1 867 369 81 1 676 1554 39 646 0 0 698
 645 869 83 1 868 368 81 1 698 1553 39 677 0 0 681 676 870 83 1 869 367 81 1 681
 1552 39 189 0 0 572 698 871 83 1 870 366 81 1 572 1551 39 570 0 0 567 681 872 8
3 1 871 365 83 1 872 364 81 1 786 1592 39 491 0 0 490 757 873 81 1 490 1591 39 4
86 0 0 485 786 874 83 1 873 405 81 1 485 1590 39 483 0 0 875 490 876 83 1 874 40
4 81 1 875 1589 39 413 0 0 877 485 878 83 1 876 403 14 413 61 875 ?483 424 556 6
 24 +755 755 483 424 31 81 1 877 1588 39 424 0 0 438 875 879 83 1 878 402 14 424
 71 877 ?413 436 550 6 415 +0 0 413 436 31 81 1 438 1587 39 436 0 0 481 877 880
 83 1 879 401 81 1 481 1586 39 439 0 0 441 438 881 83 1 880 4e2 81 1 441 1585 39
 421 0 0 420 481 882 83 1 881 399 81 1 420 1584 39 417 0 0 883 441 884 83 1 882
 398 81 1 883 1583 39 422 0 433 885 420 886 83 1 884 397 81 1 433 1760 887 422 8
83 0 0 478 888 81 1 885 1582 39 434 0 478 475 883 889 83 1 886 396 81 1 478 1761
 887 434 885 0 433 467 890 81 1 475 1581 39 472 0 0 471 885 891 83 1 889 395 81
 1 471 1580 39 468 0 0 892 475 893 83 1 891 394 81 1 892 1579 39 465 0 467 464 4
71 894 83 1 893 393 81 1 467 1762 887 465 892 0 478 450 895 81 1 464 1578 39 270
 0 0 447 892 896 83 1 894 392 81 1 447 1577 39 19 0 0 444 464 897 83 1 896 391 8
3 1 897 390 80 1 887 0 898 8001 0 0 0 0 3 5 0 0 0 FFFFTFTFFFFFFFFFF2 81 1 450 17
63 887 429 446 0 467 0 899 83 3 895 .0980392156862745 .0980392156862745 .0980392
156862745 81 1 446 1575 39 429 0 450 428 444 900 83 3 899 .0980392156862745 .098
0392156862745 .0980392156862745 81 1 428 1574 39 426 0 0 461 446 901 83 1 900 38
8 81 1 461 1573 39 430 0 0 460 428 902 83 1 901 387 81 1 460 1572 39 260 0 0 456
 461 903 83 1 902 386 81 1 456 1571 39 248 0 0 454 460 904 83 1 903 385 83 1 904
 384 79 15 898 SDL/TYSA_COLOUR83 3 890 .0980392156862745 .0980392156862745 .0980
392156862745 83 3 888 .0980392156862745 .0980392156862745 .0980392156862745 83 1
 787 406 83 1 759 407 81 1 32 1492 39 11 0 0 745 255 905 83 1 748 304 81 1 255 1
493 39 34 0 0 32 302 906 83 1 905 305 81 1 302 1494 39 256 0 0 255 299 907 83 1
 906 306 83 1 907 307 81 1 737 1489 39 204 0 0 202 742 908 83 1 746 303 81 1 202
 1488 39 192 0 0 183 737 909 83 1 908 302 81 1 183 1487 39 181 0 0 171 202 910 8
3 1 909 301 83 1 910 3e2 81 1 455 1569 39 717 0 0 727 454 911 83 1 729 381 83 1
 911 382 81 1 624 1524 39 347 0 0 668 345 912 83 1 669 336 81 1 345 1525 39 343
 0 0 624 381 913 83 1 912 337 81 1 381 1526 39 348 0 0 345 370 914 83 1 913 338
 81 1 370 1527 39 368 0 0 381 387 915 83 1 914 339 81 1 387 1528 39 372 0 0 370
 563 916 83 1 915 340 81 1 563 1529 39 349 0 0 387 399 917 83 1 916 341 81 1 399
 1530 39 364 0 0 563 363 918 83 1 917 342 81 1 363 1531 39 361 0 0 399 539 919 8
3 1 918 343 83 1 919 344 17 252 0 476 208 658 214 249 285 0 269 -81 1 276 1513 3
9 274 0 0 273 652 920 83 1 656 327 83 1 920 326 141 580 579 580 580 577 83 1 573
 363 81 1 394 1548 39 392 0 0 505 565 921 83 1 568 362 81 1 505 1547 39 396 0 0
 533 394 922 83 1 921 361 81 1 533 1546 39 411 0 0 408 505 923 83 1 922 360 81 1
 408 1545 39 401 0 0 518 533 924 83 1 923 359 81 1 518 1544 39 410 0 0 512 408 9
25 83 1 924 358 81 1 512 1543 39 337 0 0 334 518 926 83 1 925 357 81 1 334 1542
 39 332 0 0 515 512 927 83 1 926 356 81 1 515 1541 39 336 0 0 525 334 928 83 1 9
27 355 81 1 525 1540 39 516 0 0 531 515 929 83 1 928 354 81 1 531 1539 39 391 0
 0 390 525 930 83 1 929 353 81 1 390 1538 39 342 0 0 340 531 931 83 1 930 352 81
 1 340 1537 39 338 0 0 536 390 932 83 1 931 351 81 1 536 1536 39 341 0 0 522 340
 933 83 1 932 350 81 1 522 1535 39 520 0 0 528 536 934 83 1 933 349 81 1 528 153
4 39 523 0 0 538 522 935 83 1 934 348 81 1 538 1533 39 529 0 0 539 528 936 83 1
 935 347 83 1 936 346 17 506 0 487 534 564 116 551 396 0 0 +17 551 0 550 559 120
 112 506 396 0 564 -17 559 0 550 157 551 51 115 342 0 0 -17 157 0 550 553 559 13
4 558 338 0 557 +83 1 540 345 83 1 457 383 83 1 448 389 141 425 504 425 425 415
 141 416 398 937 938 24 141 937 8 939 416 24 141 938 504 416 939 24 141 939 22 9
38 937 24 141 321 35 321 321 319 83 1 313 309 83 1 304 308 141 296 295 296 296 2
90 141 282 257 282 282 280 83 1 277 325 81 1 109 1450 39 78 0 0 75 244 940 83 1
 245 264 81 1 75 1449 39 73 0 0 80 109 941 83 1 940 263 81 1 80 1448 39 77 0 0 9
0 75 942 83 1 941 262 81 1 90 1447 39 82 0 0 94 80 943 83 1 942 261 81 1 94 1446
 39 92 0 0 98 90 944 83 1 943 260 81 1 98 1445 39 96 0 0 242 94 945 83 1 944 259
 81 1 242 1444 39 100 0 0 106 98 946 83 1 945 258 81 1 106 1443 39 104 0 0 102 2
42 947 83 1 946 257 81 1 102 1442 39 47 0 0 40 106 948 83 1 947 256 81 1 40 1441
 39 37 0 0 36 102 949 83 1 948 255 83 1 949 254 83 1 184 299 83 1 172 298 83 1 4
1 253 19 18 189 0 1 0 10 6 0 S0 40 6 25 0 1 6 1707041316046415e-20 .338656714138
921 ??.0260546588128405 .0109816872222886 .00153955514181635 .0260376474763796 .
0109816872222886 .001439579054588752 .02598848272386835 .0109816872222886 .00135
0872824789792 .0259128044425646 .0109816872222886 .00128364151114001 .0258194337
7812965 .0109816872222886 .001245507166676852 .02575465881284075 .01098168722228
86 .001238404368334582 41 1 26 L?.0260546588128405 .0109816872222886 .0015395551
4181635 41 1 27 L?.02575465881284075 .0109816872222886 .001238404368334582 204 2
4 28 4 .00030115077348063 55e-5 4.80118372040988 -1.57079632679471 .000201174686
253032 .0005329886635391 4.80027901987556 -1.232421953526366 .000112468456454072
 .000483823911027848 4.79949156050908 -.893728393435957 452371428042899e-19 .000
4081456297241015 4.79890405075531 -.555245693229186 710279834113207e-20 .0003147
74965289151 4.79857430927262 -.217630425598441 -1136677557633802e-30 .0002500000
000002675 4.79851316932746 -890491384331229e-27 74 4 CI16 index_map_offset0 0 1
 dCCZ20 16 6 0 0 778 773 770 14 2 450 0 0 0 0 0 0 0 0 0 0 0 0 0 0 80 1 13 39 950
 9000 0 0 0 0 3 5 0 0 0 FFTFTFTTFFFFFFFFF2 83 1 15 1237 79 18 950 BTI/importMaxC
ount1 0 
