**ABCDEFGHIJKLMNOPQRSTUVWXYZabcdefghijklmnopqrstuvwxyz**************************
**PARASOLID !"#$%&'()*+,-./:;<=>?@[\]^_`{|}~0123456789**************************
**PART1;
MC=unknown;
MC_MODEL=unknown;
MC_ID=unknown;
OS=unknown;
OS_RELEASE=unknown;
FRU=Parasolid 37.0.173;
APPL=Onshape;
SITE=unknown;
USER=unknown;
FORMAT=text;
GUISE=transmit;
KEY=BTGapi::writeModels_.xmt;
FILE=BTGapi::writeModels_.xmt;
DATE=2024-12-29T04:00:27 (UTC);
**PART2;
SCH=SCH_3700173_36001;
USFLD_SIZE=0;
**PART3;
**END_OF_HEADER*****************************************************************
T51 : TRANSMIT FILE created by modeller version 370017323 SCH_3700173_36001_1300
6231 0 12 36 CCCI7 lattice222 0 CCCI4 mesh1006 0 I8 polyline1008 0 CCCCCCCDI5 ow
ner1040 0 CCCI16 boundary_lattice222 0 CCCI13 boundary_mesh1006 0 I17 boundary_p
olyline1008 0 CCCA16 index_map_offset0 0 1 dA9 index_map82 0 A17 node_id_index_m
ap82 0 A20 schema_embedding_map82 0 A5 child12 0 A14 lowest_node_id0 0 1 dA16 me
sh_offset_data206 0 Z1 359 2 3 0 0 0 0 0 0 0 1e3 1e-8 0 4 5 1 0 3 2 6 0 7 8 9 0
 0 10 11 12 0 0 0 0 0 0 0 81 255 1 2 320 13 1 14 0 0 0 15 70 11 CI9 list_type0 0
 1 uI10 notransmit0 0 1 lCCCDCCDI12 finger_index0 0 1 dI12 finger_block1012 0 CZ
3 0 4 T1 0 0 5 20 1 16 16 13 255 6 2 0 1 0 17 0 0 10 17 50 255 7 100 0 17 0 0 0
 +.0019155 0 6945e-7 0 -1 0 1 0 0 31 255 8 281 0 1 18 0 19 +.002140314777714475
 1627391595928345e-35 .000526066233800613 -1355052441942386e-32 1 59714175407630
3e-31 -.451872836560734 -593930765149096e-31 .892082361432259 .00027400358617890
75 29 255 9 134 0 12 20 0 .0021465 0 8e-4 19 9 CCCCCCI5 frame230 0 CA5 owner12 0
 Z10 1 0 1 0 0 6 0 V0 16 255 11 40 21 ?22 0 23 18 0 0 1 18 255 12 39 24 22 0 25
 9 5e-7 1 81 1 24 282 26 12 0 0 0 27 28 17 255 22 0 0 0 0 12 29 11 0 30 +18 25 3
7 27 31 12 32 20 5e-7 1 81 1 27 283 26 25 0 0 24 33 34 17 31 0 0 0 0 25 30 23 0
 35 +18 32 35 33 36 25 37 38 5e-7 1 29 20 132 0 25 38 9 .002261 0 778e-6 29 38 1
30 0 32 39 20 .002344 0 7165e-7 29 39 128 0 37 40 38 .002395 0 622e-6 18 37 33 4
1 42 32 43 39 5e-7 1 29 40 126 0 43 44 39 .0024125 0 5015e-7 18 43 31 45 46 37 4
7 40 5e-7 1 29 44 124 0 47 48 40 .0024125 0 -4440892098501e-31 18 47 29 49 50 43
 51 44 5e-7 1 29 48 122 0 51 52 44 .0022225 0 -4440892098501e-31 18 51 27 53 54
 47 55 48 5e-7 1 29 52 120 0 55 56 48 .0022225 0 4915e-7 18 55 25 57 58 51 59 52
 5e-7 1 29 56 118 0 59 60 52 .0021895 0 601e-6 18 59 23 61 62 55 63 56 5e-7 1 29
 60 116 0 63 64 56 .002089 0 64e-5 18 63 21 65 66 59 67 60 5e-7 1 29 64 114 0 67
 68 60 .001997 0 616e-6 18 67 19 69 70 63 71 64 5e-7 1 29 68 112 0 71 72 64 .001
9155 0 552e-6 18 71 17 73 74 67 75 68 5e-7 1 29 72 110 0 75 76 68 .0019155 0 -44
40892098501e-31 18 75 15 77 78 71 79 72 5e-7 1 29 76 108 0 79 80 72 .0017255 0 -
4440892098501e-31 18 79 13 81 82 75 83 76 5e-7 1 29 80 106 0 83 84 76 .0017255 0
 .001152 18 83 11 85 86 79 87 80 5e-7 1 29 84 104 0 87 88 80 .0019155 0 .001152
 18 87 9 89 90 83 91 84 5e-7 1 29 88 102 0 91 92 84 .0020165 0 7705e-7 18 91 7 9
3 29 87 94 88 5e-7 1 29 92 101 0 94 0 88 .0019155 0 6945e-7 18 94 6 95 96 91 0 9
2 5e-7 1 81 1 95 299 26 94 0 0 93 21 97 17 96 0 0 0 0 94 98 99 0 100 +17 98 0 10
1 102 100 87 96 99 0 0 -16 99 8 103 ?96 104 105 106 0 0 1 17 100 0 101 98 29 94
 107 105 0 0 -15 255 101 4 0 100 17 0 17 29 0 101 100 30 91 22 11 0 107 -17 107
 0 0 0 0 91 100 105 0 0 +16 105 5 108 ?107 99 0 109 0 0 1 81 1 108 317 26 105 0
 0 103 110 111 133 255 109 244 0 105 112 113 0 +113 .0019155 0 6945e-7 .0020165
 601853107621011e-50 7705e-7 576015810170907e-48 .312309922984827 30 255 112 127
 0 1 114 109 115 +.0024125 0 5015e-7 0 0 -1 31 113 245 0 1 109 116 117 +.0022073
668298097 2458059932599685e-35 .000411736186700265 -3681686717808475e-32 1 48927
6787498233e-31 -.718218305619025 -604872996720056e-31 .695817839289664 .00040637
6205571847 133 116 248 0 118 113 119 0 +119 .001997 3009265538105055e-51 616e-6
 .0019155 3009265538105055e-51 552e-6 573489184758653e-48 .310893987195588 141 2
55 117 109 117 117 113 16 118 18 120 ?74 121 122 116 0 0 1 31 119 249 0 1 116 12
3 124 +.002160447175138325 2024498070432705e-35 .000323967659784786 378176096433
828e-31 -1 -481583622802454e-31 -.48839650074407 -604940264354927e-31 .872621829
924594 .000334660823509824 133 123 252 0 121 119 125 0 +125 .002089 300926553810
5055e-51 64e-5 .001997 0 616e-6 0 .516231061429041 141 124 116 124 124 119 16 12
1 20 126 ?70 127 118 123 0 0 1 31 125 253 0 1 123 128 129 +.002088453732452885 1
1026136913413e-33 .00045376069226394 15456383418789e-30 -1 -592494697720244e-31
 .00293313588791857 -592038792285022e-31 .999995698347679 .000186240108876257 13
3 128 256 0 127 125 130 0 +130 .0021895 -752316384526264e-50 601e-6 .002089 -105
324293833677e-49 64e-5 1452990505308826e-48 .886798000152841 141 129 123 129 129
 125 16 127 22 131 ?66 132 121 128 0 0 1 31 130 257 0 1 128 133 134 +.0020981921
41847435 694926640510529e-35 .000514697057837625 -221523110605648e-31 -1 -570848
015791473e-31 .726743944864134 -553110913270967e-31 .686908464501142 .0001256396
545135762 133 133 260 0 132 130 135 0 +135 .0022225 -1354169492147274e-50 4915e-
7 .0021895 -150463276905253e-49 601e-6 1218764863544714e-48 .70773187897859 141
 134 128 134 134 130 16 132 24 136 ?62 137 127 133 0 0 1 31 135 261 0 1 133 138
 139 +.002057793007227065 947822147738451e-35 .000501584878890347 -5862779420180
88e-31 -1 -176686503073947e-31 .998130746238138 -574383887226595e-31 -.061114756
107658 .000165015448520849 133 138 264 0 140 135 141 0 +141 .002395 0 622e-6 .00
24125 0 5015e-7 573369430816903e-48 .310826892391978 141 139 133 139 139 135 16
 140 32 142 ?46 143 144 138 0 0 1 31 141 265 0 1 138 145 146 +.00201920066394056
 237938761100164e-34 .000505902586049458 605966453305695e-31 1 880034268286286e-
32 .955444769425155 -604943444340452e-31 .295169938472927 .0003933239765240865 1
33 145 268 0 143 141 147 0 +147 .002344 601853107621011e-50 7165e-7 .002395 9027
79661431517e-50 622e-6 725832239587837e-48 .3975629663414345 141 146 138 146 146
 141 16 143 34 148 ?42 149 140 145 0 0 1 31 147 269 0 1 145 150 151 +.0021349408
9065828 163207286922542e-34 .000542662544164784 538858168469304e-31 1 2908123448
881975e-32 .768905421800955 -600265485619393e-31 .639362535909867 .0002718918392
486515 133 150 272 0 149 147 152 0 +152 .002261 0 778e-6 .002344 150463276905253
e-50 7165e-7 840983260630231e-48 .465194057821446 141 151 145 151 151 147 16 149
 36 153 ?36 23 143 150 0 0 1 31 152 273 0 1 150 154 155 +.00217268987057529 1335
1251301828e-33 .000572059093621938 364542631795595e-31 1 491984364862346e-31 .39
41068268917665 -595834172124509e-31 .919064638095332 .000224076629479352 133 154
 276 0 23 152 156 0 +156 .0021465 -601853107621011e-50 8e-4 .002261 -30092655381
05055e-51 778e-6 756904436221149e-48 .415608849799079 141 155 150 155 155 152 16
 23 38 157 ?31 11 149 154 0 0 1 31 156 277 0 1 154 18 158 +.00215157976442146 16
9300639761953e-34 .000517477637557133 115538283379653e-31 1 601324247589558e-31
 -.01797713808721285 -599150024831397e-31 .999838398195525 .0002825680259457465
 133 18 280 0 11 156 8 0 +8 .0020165 -902779661431517e-50 7705e-7 .0021465 -6018
53107621011e-50 8e-4 884661656577259e-48 .491439050267705 141 158 154 158 158 15
6 81 1 157 301 26 23 0 0 21 153 159 80 7 CCCCCDI12 legal_owners0 17 1 lCZ1 26 16
0 161 9000 0 0 0 0 3 5 0 0 0 FFTFTFTTFFFFFFFFF2 81 1 21 300 26 11 0 0 95 157 162
 81 1 153 302 26 149 0 0 157 148 163 83 255 1 159 2667 81 1 148 303 26 143 0 0 1
53 142 164 83 1 163 2668 81 1 142 304 26 140 0 0 148 165 166 83 1 164 2669 81 1
 165 305 26 144 0 0 142 167 168 83 1 166 2670 16 144 30 165 ?50 140 169 114 0 0
 1 81 1 167 306 26 169 0 0 165 170 171 83 1 168 2671 16 169 28 167 ?54 144 137 1
72 0 0 1 81 1 170 307 26 137 0 0 167 136 173 83 1 171 2672 16 137 26 170 ?58 169
 132 174 0 0 1 81 1 136 308 26 132 0 0 170 131 175 83 1 173 2673 81 1 131 309 26
 127 0 0 136 126 176 83 1 175 2674 81 1 126 310 26 121 0 0 131 120 177 83 1 176
 2675 81 1 120 311 26 118 0 0 126 178 179 83 1 177 2676 81 1 178 312 26 122 0 0
 120 180 181 83 1 179 2677 16 122 16 178 ?78 118 182 183 0 0 1 81 1 180 313 26 1
82 0 0 178 184 185 83 1 181 2678 16 182 14 180 ?82 122 186 187 0 0 1 81 1 184 31
4 26 186 0 0 180 188 189 83 1 185 2679 16 186 12 184 ?86 182 104 190 0 0 1 81 1
 188 315 26 104 0 0 184 103 191 83 1 189 2680 16 104 10 188 ?90 186 99 192 0 0 1
 81 1 103 316 26 99 0 0 188 108 193 83 1 191 2681 83 1 193 2682 17 90 0 0 0 0 87
 102 104 0 98 +133 192 184 0 104 194 195 0 +195 .0017255 0 .001152 .0019155 0 .0
01152 0 19e-5 30 194 105 0 1 106 192 196 +.0019155 0 .001152 0 0 -1 30 195 107 0
 1 192 190 197 +.0017255 0 .001152 1 0 0 133 190 186 0 186 195 198 0 +198 .00172
55 0 -4440892098501e-31 .0017255 0 .001152 -4440892098501e-31 .001152 141 197 19
2 197 197 195 30 198 109 0 1 190 187 199 +.0017255 0 0 0 0 1 133 187 188 0 182 1
98 200 0 +200 .0019155 0 0 .0017255 0 0 0 19e-5 141 199 190 199 199 198 30 200 1
11 0 1 187 183 201 +.0019155 0 0 -1 0 0 133 183 190 0 122 200 202 0 +202 .001915
5 0 552e-6 .0019155 0 -433680868994202e-33 0 552e-6 141 201 187 201 201 200 30 2
02 113 0 1 183 174 203 +.0019155 0 552e-6 0 0 -1 133 174 200 0 137 202 204 0 +20
4 .0022225 0 -4440892098501e-31 .0022225 0 4915e-7 -4440892098501e-31 4915e-7 14
1 203 183 203 203 202 30 204 123 0 1 174 172 205 +.0022225 0 0 0 0 1 133 172 202
 0 169 204 206 0 +206 .0024125 0 0 .0022225 0 0 0 19e-5 141 205 174 205 205 204
 30 206 125 0 1 172 114 207 +.0024125 0 0 -1 0 0 133 114 204 0 144 206 112 0 +11
2 .0024125 0 5015e-7 .0024125 0 -433680868994202e-33 0 5015e-7 141 207 172 207 2
07 206 133 106 182 0 99 0 194 0 +194 .0019155 0 .001152 .0019155 0 6945e-7 0 457
5e-7 141 196 106 196 196 194 17 102 0 101 208 98 83 90 104 0 0 -17 208 0 101 209
 102 79 86 186 0 0 -17 209 0 101 210 208 75 82 182 0 0 -17 86 0 0 0 0 83 208 186
 0 102 +17 210 0 101 211 209 71 78 122 0 0 -17 82 0 0 0 0 79 209 182 0 208 +17 2
11 0 101 212 210 67 74 118 0 0 -17 78 0 0 0 0 75 210 122 0 209 +17 212 0 101 213
 211 63 70 121 0 0 -17 74 0 0 0 0 71 211 118 0 210 +17 213 0 101 214 212 59 66 1
27 0 0 -17 70 0 0 0 0 67 212 121 0 211 +17 214 0 101 215 213 55 62 132 0 0 -17 6
6 0 0 0 0 63 213 127 0 212 +17 215 0 101 216 214 51 58 137 0 0 -17 62 0 0 0 0 59
 214 132 0 213 +17 216 0 101 217 215 47 54 169 0 0 -17 58 0 0 0 0 55 215 137 0 2
14 +17 217 0 101 218 216 43 50 144 0 0 -17 54 0 0 0 0 51 216 169 0 215 +17 218 0
 101 219 217 37 46 140 0 0 -17 50 0 0 0 0 47 217 144 0 216 +17 219 0 101 35 218
 32 42 143 0 0 -17 46 0 0 0 0 43 218 140 0 217 +17 35 0 101 30 219 25 36 149 0 0
 -17 42 0 0 0 0 37 219 143 0 218 +17 30 0 101 29 35 12 31 23 0 0 -17 36 0 0 0 0
 32 35 149 0 219 +83 1 162 2666 79 255 13 161 BTI/importTag141 115 114 115 115 1
12 81 1 110 318 26 17 0 0 108 14 220 83 1 111 2683 14 255 17 3 110 ?0 0 101 6 7
 +0 0 0 0 6 81 1 14 319 26 1 221 2 110 0 222 83 1 220 2684 81 1 221 240 223 1 22
4 14 0 0 225 83 1 222 2685 80 1 223 226 227 9000 0 0 0 0 3 5 0 0 0 TTTFFFFFFFFFF
FFFF1 81 1 224 179 228 1 229 221 0 0 230 82 255 1 225 4 80 1 228 231 232 8038 0
 0 0 0 0 0 0 0 0 TTTTTTTTTTTTTFTFT10 81 1 229 178 231 1 0 224 0 0 233 98 255 19
 230 72 67 45 48 52 83 104 97 112 101 83 116 114 105 110 103 48 48 57 80 1 231 2
34 235 8017 0 0 0 0 0 0 0 0 0 TTTTTTTTTTTTTFTFT3 84 255 19 233 HC-04ShapeString0
0979 13 235 SDL/TYSA_NAME79 14 232 SDL/TYSA_UNAME79 23 227 ONSHAPE_ORIGINALBODY_
ID81 1 93 298 26 91 0 0 89 95 236 83 1 97 2665 81 1 89 297 26 87 0 0 85 93 237 8
3 1 236 2664 81 1 85 296 26 83 0 0 81 89 238 83 1 237 2663 81 1 81 295 26 79 0 0
 77 85 239 83 1 238 2662 81 1 77 294 26 75 0 0 73 81 240 83 1 239 2661 81 1 73 2
93 26 71 0 0 69 77 241 83 1 240 2660 81 1 69 292 26 67 0 0 65 73 242 83 1 241 26
59 81 1 65 291 26 63 0 0 61 69 243 83 1 242 2658 81 1 61 290 26 59 0 0 57 65 244
 83 1 243 2657 81 1 57 289 26 55 0 0 53 61 245 83 1 244 2656 81 1 53 288 26 51 0
 0 49 57 246 83 1 245 2655 81 1 49 287 26 47 0 0 45 53 247 83 1 246 2654 81 1 45
 286 26 43 0 0 41 49 248 83 1 247 2653 81 1 41 285 26 37 0 0 33 45 249 83 1 248
 2652 81 1 33 284 26 32 0 0 27 41 250 83 1 249 2651 83 1 250 2650 83 1 34 2649 8
3 1 28 2648 141 19 18 19 19 8 74 4 CI16 index_map_offset0 0 1 dCCZ20 16 5 0 0 22
9 224 221 14 2 0 0 0 0 0 0 0 0 0 0 0 0 0 0 0 80 1 13 26 251 9000 0 0 0 0 3 5 0 0
 0 FFTFTFTTFFFFFFFFF2 83 1 15 17325 79 18 251 BTI/importMaxCount1 0 
