**ABCDEFGHIJKLMNOPQRSTUVWXYZabcdefghijklmnopqrstuvwxyz**************************
**PARASOLID !"#$%&'()*+,-./:;<=>?@[\]^_`{|}~0123456789**************************
**PART1;
MC=unknown;
MC_MODEL=unknown;
MC_ID=unknown;
OS=unknown;
OS_RELEASE=unknown;
FRU=Parasolid 37.0.173;
APPL=Onshape;
SITE=unknown;
USER=unknown;
FORMAT=text;
GUISE=transmit;
KEY=BTGapi::writeModels_.xmt;
FILE=BTGapi::writeModels_.xmt;
DATE=2024-12-29T04:00:25 (UTC);
**PART2;
SCH=SCH_3700173_36001;
USFLD_SIZE=0;
**PART3;
**END_OF_HEADER*****************************************************************
T51 : TRANSMIT FILE created by modeller version 370017323 SCH_3700173_36001_1300
6231 0 12 36 CCCI7 lattice222 0 CCCI4 mesh1006 0 I8 polyline1008 0 CCCCCCCDI5 ow
ner1040 0 CCCI16 boundary_lattice222 0 CCCI13 boundary_mesh1006 0 I17 boundary_p
olyline1008 0 CCCA16 index_map_offset0 0 1 dA9 index_map82 0 A17 node_id_index_m
ap82 0 A20 schema_embedding_map82 0 A5 child12 0 A14 lowest_node_id0 0 1 dA16 me
sh_offset_data206 0 Z1 512 2 3 0 0 0 0 0 0 0 1e3 1e-8 0 4 5 1 0 1 2 6 0 7 8 9 0
 0 10 11 12 0 0 0 0 0 0 0 81 255 1 2 512 13 1 14 0 0 0 15 70 11 CI9 list_type0 0
 1 uI10 notransmit0 0 1 lCCCDCCDI12 finger_index0 0 1 dI12 finger_block1012 0 CZ
3 0 4 T1 0 0 6 20 1 16 16 13 255 6 64 0 1 0 17 0 0 18 0 50 255 7 364 0 19 20 0 0
 +-.008095794 3602614518566e-31 .002941758 -1 0 0 0 1224646799147e-28 1 30 255 8
 400 0 21 22 0 0 +-.008095794 555725980357e-30 .004537847 0 -1 1224646799147e-28
 29 255 9 363 0 23 24 0 -.008095794 -9999999999999e-18 .004237847 19 9 CCCCCCI5
 frame230 0 CA5 owner12 0 Z10 1 0 1 18 0 25 0 V0 16 255 11 58 26 ?27 0 28 29 0 0
 1 18 255 12 53 30 31 0 32 33 5e-7 1 81 1 30 406 34 12 0 0 0 35 36 17 255 31 0 3
7 38 39 12 27 11 0 40 -18 32 51 35 41 12 42 43 5e-7 1 29 33 220 0 12 44 43 -.007
233851 5189865763826e-31 .004237847 29 44 212 0 45 46 33 -.007233851 -1e-5 .0032
37847 29 43 218 0 32 33 47 -.007233851 -9999999999999e-18 .004237847 29 47 360 0
 48 43 49 -.008095794 5189865763826e-31 .004237847 18 48 6 50 27 23 0 47 ?1 29 4
9 361 0 51 47 24 -.008095794 555725980357003e-33 .004537847 18 51 11 52 53 54 55
 49 ?1 29 24 362 0 55 49 9 -.008095794 -999999999999899e-20 .004537847 18 55 9 5
6 57 51 23 24 ?1 81 1 56 419 34 55 0 0 52 58 59 17 57 0 60 61 62 55 63 64 0 65 -
18 23 7 58 66 55 48 9 ?1 81 1 58 420 34 23 0 0 56 50 67 17 66 0 37 39 38 23 41 2
8 0 61 +15 255 37 56 0 38 68 0 17 39 0 37 31 66 48 69 70 0 0 -17 38 0 37 66 31 3
2 71 72 0 73 +17 41 0 60 74 61 32 66 28 0 38 -16 28 57 75 ?66 11 76 77 0 0 1 17
 61 0 60 41 57 23 78 79 0 69 -15 60 62 0 61 17 0 17 78 0 80 81 69 55 61 79 0 0 +
16 79 8 82 ?78 21 70 83 0 0 1 17 69 0 80 78 84 23 39 70 0 0 +15 80 4 0 69 19 0 1
7 84 0 80 69 81 48 85 86 0 39 -16 70 5 87 ?69 79 0 22 0 0 1 81 1 87 445 34 70 0
 0 82 88 89 30 22 391 0 70 90 8 0 +-.008095794 518986576382564e-33 .004237847 0
 -1 1224646799147e-28 30 90 380 0 86 83 22 0 +-.008095794 5189865763826e-31 .004
237847 0 1224646799147e-28 1 16 86 12 91 ?85 64 21 90 0 0 1 30 83 367 0 79 92 90
 0 +-.008095794 -999999999999916e-20 .002941758 0 1224646799147e-28 1 30 92 189
 0 1 93 83 94 +-.008095794 -9999999999999e-18 .004537847 1 0 0 133 255 93 349 0
 64 95 92 0 +92 -.008095794 -9999999999999e-18 .004537847 -.006911444 -999999999
9999e-18 .004537847 0 .00118435 141 255 94 93 94 94 92 16 64 15 96 ?63 97 86 93
 0 0 1 30 95 195 0 1 98 93 99 +-.006911444 -9999999999999e-18 .004537847 0 -1224
646799147e-28 -1 133 98 347 0 100 101 95 0 +95 -.006911444 -9999999999999e-18 .0
04537847 -.006911444 -999999999999919e-20 .002941758 0 .001596089 141 99 98 99 9
9 95 16 100 22 102 ?103 104 105 98 0 0 1 30 101 201 0 1 106 98 107 +-.006911444
 -1e-5 .002941758 -1 0 0 133 106 345 0 108 109 101 0 +101 -.006911444 -1e-5 .002
941758 -.008095794 -1e-5 .002941758 0 .00118435 141 107 106 107 107 101 16 108 2
9 110 ?111 112 113 106 0 0 1 30 109 207 0 1 114 106 115 +-.008095794 -1e-5 .0029
41758 0 1224646799147e-28 1 133 114 343 0 116 117 109 0 +109 -.008095794 -1e-5 .
002941758 -.008095794 -1e-5 .003237847 0 296089e-9 141 115 114 115 115 109 16 11
6 36 118 ?119 120 121 114 0 0 1 30 117 213 0 1 122 114 123 +-.008095794 -1e-5 .0
03237847 1 0 0 133 122 341 0 124 125 117 0 +117 -.008095794 -1e-5 .003237847 -.0
07233851 -1e-5 .003237847 0 861943e-9 141 123 122 123 123 117 16 124 43 126 ?127
 128 129 122 0 0 1 30 125 219 0 1 130 122 131 +-.007233851 -1e-5 .003237847 0 12
24646799147e-28 1 133 130 339 0 132 133 125 0 +125 -.007233851 -1e-5 .003237847
 -.007233851 -999999999999988e-20 .004237847 0 .001 141 131 130 131 131 125 16 1
32 50 134 ?73 72 135 130 0 0 1 30 133 224 0 1 77 130 136 +-.007233851 -999999999
9999e-18 .004237847 -1 0 0 133 77 337 0 28 137 133 0 +133 -.007233851 -999999999
9999e-18 .004237847 -.008095794 -9999999999999e-18 .004237847 0 861943e-9 141 13
6 77 136 136 133 30 137 225 0 1 29 77 138 +-.007233851 5189865763826e-31 .004237
847 -1 0 0 133 29 331 0 11 139 137 0 +137 -.007233851 5189865763826e-31 .0042378
47 -.008095794 5189865763826e-31 .004237847 0 861943e-9 141 138 29 138 138 137 3
0 139 222 0 1 140 29 141 +-.007233851 3965218964679e-31 .003237847 0 12246467991
47e-28 1 133 140 329 0 76 142 139 0 +139 -.007233851 3965218964679e-31 .00323784
7 -.007233851 5189865763826e-31 .004237847 0 .001 141 141 140 141 141 139 16 76
 54 143 ?40 28 72 140 0 0 1 30 142 216 0 1 144 140 145 +-.008095794 396521896467
9e-31 .003237847 1 0 0 133 144 327 0 135 146 142 0 +142 -.008095794 396521896467
9e-31 .003237847 -.007233851 3965218964679e-31 .003237847 0 861943e-9 141 145 14
4 145 145 142 16 135 47 147 ?148 132 128 144 0 0 1 30 146 210 0 1 149 144 150 +-
.008095794 3602614518566e-31 .002941758 0 1224646799147e-28 1 133 149 325 0 129
 151 146 0 +146 -.008095794 3602614518566e-31 .002941758 -.008095794 39652189646
78635e-34 .003237847 0 296089e-9 141 150 149 150 150 146 16 129 40 152 ?153 124
 120 149 0 0 1 30 151 204 0 1 154 149 155 +-.006911444 3602614518566e-31 .002941
758 -1 0 0 133 154 323 0 121 156 151 0 +151 -.006911444 3602614518566e-31 .00294
1758 -.008095794 3602614518566e-31 .002941758 0 .00118435 141 155 154 155 155 15
1 16 121 33 157 ?158 116 112 154 0 0 1 30 156 198 0 1 159 154 160 +-.006911444 5
55725980357e-30 .004537847 0 -1224646799147e-28 -1 133 159 321 0 113 161 156 0 +
156 -.006911444 555725980357e-30 .004537847 -.006911444 3602614518566265e-34 .00
2941758 0 .001596089 141 160 159 160 160 156 16 113 26 162 ?163 108 104 159 0 0
 1 30 161 192 0 1 164 159 165 +-.008095794 555725980357e-30 .004537847 1 0 0 133
 164 319 0 105 166 161 0 +161 -.008095794 555725980357e-30 .004537847 -.00691144
4 555725980357e-30 .004537847 0 .00118435 141 165 164 165 165 161 16 105 19 167
 ?168 100 97 164 0 0 1 30 166 221 0 1 169 164 170 +-.007233851 5189865763826e-31
 .004237847 0 -1 1224646799147e-28 133 169 311 0 72 171 166 0 +166 -.007233851 5
189865763826e-31 .004237847 -.007233851 -9999999999999e-18 .004237847 0 99999999
9999952e-20 141 170 169 170 170 166 16 72 52 172 ?38 76 132 169 0 0 1 30 171 215
 0 1 173 169 174 +-.007233851 3965218964679e-31 .003237847 0 -1 1224646799147e-2
8 133 173 307 0 128 175 171 0 +171 -.007233851 3965218964679e-31 .003237847 -.00
7233851 -1e-5 .003237847 0 100000000000004e-19 141 174 173 174 174 171 16 128 45
 176 ?177 135 124 173 0 0 1 30 175 209 0 1 178 173 179 +-.008095794 396521896467
9e-31 .003237847 0 -1 1224646799147e-28 133 178 303 0 120 180 175 0 +175 -.00809
5794 3965218964679e-31 .003237847 -.008095794 -1e-5 .003237847 0 100000000000004
e-19 141 179 178 179 179 175 16 120 38 181 ?182 129 116 178 0 0 1 30 180 203 0 1
 183 178 184 +-.008095794 3602614518566e-31 .002941758 0 -1 1224646799147e-28 13
3 183 299 0 112 185 180 0 +180 -.008095794 3602614518566e-31 .002941758 -.008095
794 -1e-5 .002941758 0 1000000000000036e-20 141 184 183 184 184 180 16 112 31 18
6 ?187 121 108 183 0 0 1 30 185 197 0 1 188 183 189 +-.006911444 3602614518566e-
31 .002941758 0 -1 1224646799147e-28 133 188 295 0 104 190 185 0 +185 -.00691144
4 3602614518566e-31 .002941758 -.006911444 -1e-5 .002941758 0 1000000000000036e-
20 141 189 188 189 189 185 16 104 24 191 ?192 113 100 188 0 0 1 30 190 191 0 1 1
93 188 194 +-.006911444 555725980357e-30 .004537847 0 -1 1224646799147e-28 133 1
93 291 0 97 0 190 0 +190 -.006911444 555725980357e-30 .004537847 -.006911444 -99
99999999999e-18 .004537847 0 999999999999956e-20 141 194 193 194 194 190 16 97 1
7 195 ?196 105 64 193 0 0 1 81 1 195 440 34 97 0 0 167 96 197 17 196 0 198 103 1
99 54 200 97 0 63 +15 198 21 0 196 201 0 17 103 0 198 202 196 203 62 100 0 0 +17
 199 0 198 196 202 204 163 113 0 168 -18 54 16 205 62 204 51 206 5e-7 1 17 200 0
 207 53 63 204 196 97 0 0 -17 63 0 207 200 65 54 57 64 0 0 +15 207 14 0 65 208 0
 17 65 0 207 63 53 55 81 21 0 78 +17 53 0 207 65 200 51 168 105 0 85 -17 81 0 80
 84 78 51 65 21 0 0 -16 21 10 209 ?65 86 79 8 0 0 1 81 1 209 443 34 21 0 0 91 82
 210 80 7 CCCCCDI12 legal_owners0 17 1 lCZ1 34 211 212 9000 0 0 0 0 3 5 0 0 0 FF
TFTFTTFFFFFFFFF2 81 1 91 442 34 86 0 0 96 209 213 81 1 82 444 34 79 0 0 209 87 2
14 83 255 1 210 36e2 83 1 214 3601 81 1 96 441 34 64 0 0 195 91 215 83 1 213 359
9 83 1 215 3598 79 255 13 212 BTI/importTag17 168 0 216 163 85 204 53 105 0 200
 +17 85 0 216 168 27 51 84 86 0 81 +15 216 60 0 85 217 0 17 27 0 216 85 40 48 31
 11 0 84 +17 40 0 216 27 148 12 218 76 0 71 +17 148 0 216 40 153 42 219 135 0 22
0 +17 218 0 221 177 71 42 40 76 0 148 -17 71 0 221 218 73 12 38 72 0 0 -15 221 4
9 0 177 222 0 17 73 0 221 71 177 32 74 132 0 0 +17 177 0 221 73 218 45 220 128 0
 127 +17 74 0 60 223 41 45 73 132 0 177 -17 223 0 60 224 74 225 127 124 0 182 -1
8 45 44 226 74 42 227 44 5e-7 1 81 1 226 409 34 45 0 0 228 229 230 18 42 46 228
 218 32 45 46 5e-7 1 18 227 39 229 219 45 225 231 5e-7 1 81 1 229 410 34 227 0 0
 226 232 233 17 219 0 234 182 220 227 148 135 0 153 -18 225 37 232 223 227 235 2
36 5e-7 1 29 231 208 0 227 237 236 -.008095794 3965218964679e-31 .003237847 29 2
37 200 0 238 239 231 -.008095794 -1e-5 .002941758 29 236 206 0 225 231 46 -.0080
95794 -1e-5 .003237847 29 46 214 0 42 236 44 -.007233851 3965218964679e-31 .0032
37847 18 238 30 240 224 235 241 237 5e-7 1 29 239 202 0 235 242 237 -.008095794
 3602614518566e-31 .002941758 18 235 32 243 244 225 238 239 5e-7 1 29 242 194 0
 203 245 239 -.006911444 -1e-5 .002941758 18 203 23 246 247 241 204 242 5e-7 1 2
9 245 196 0 241 206 242 -.006911444 3602614518566e-31 .002941758 18 241 25 248 2
49 238 203 245 5e-7 1 29 206 188 0 54 250 245 -.006911444 -9999999999999e-18 .00
4537847 29 250 190 0 204 0 206 -.006911444 555725980357e-30 .004537847 18 204 18
 251 199 203 54 250 5e-7 1 81 1 251 416 34 204 0 0 246 205 252 81 1 246 415 34 2
03 0 0 248 251 253 81 1 205 417 34 54 0 0 251 52 254 83 1 252 3573 81 1 52 418 3
4 51 0 0 205 56 255 83 1 254 3574 83 1 255 3575 81 1 248 414 34 241 0 0 240 246
 256 83 1 253 3572 81 1 240 413 34 238 0 0 243 248 257 83 1 256 3571 81 1 243 41
2 34 235 0 0 232 240 258 83 1 257 3570 81 1 232 411 34 225 0 0 229 243 259 83 1
 258 3569 83 1 259 3568 17 249 0 260 192 261 241 158 121 0 163 -15 260 28 0 192
 262 0 17 192 0 260 111 249 203 202 104 0 103 +17 261 0 260 249 111 235 187 112
 0 0 -17 158 0 216 153 163 235 249 121 0 261 +17 163 0 216 158 168 241 199 113 0
 202 +17 202 0 198 199 103 241 192 104 0 0 -17 153 0 216 148 158 227 244 129 0 2
63 +17 244 0 264 187 263 235 153 129 0 158 -17 263 0 264 244 119 227 182 120 0 0
 -15 264 35 0 187 265 0 17 119 0 264 263 187 225 224 116 0 0 +17 182 0 234 127 2
19 225 263 120 0 119 +15 234 42 0 182 266 0 17 127 0 234 220 182 45 223 124 0 0
 +17 220 0 234 219 127 42 177 128 0 0 -14 255 266 41 267 ?265 222 234 6 268 +0 0
 265 222 25 81 1 267 450 34 266 0 0 269 270 271 14 265 34 270 ?262 266 264 6 7 +
19 19 262 266 25 14 222 48 269 ?266 68 221 6 272 +0 0 266 68 25 50 268 211 0 266
 273 272 0 +-.008095794 3965218964679e-31 .003237847 0 1224646799147e-28 1 1 0 0
 13 25 2 0 0 0 0 0 0 10 17 14 17 61 88 ?217 0 60 6 20 +0 0 217 0 25 81 1 88 446
 34 17 0 0 87 274 275 14 217 59 274 ?68 17 216 6 276 -0 0 68 17 25 50 20 227 0 1
7 276 7 0 +-.008095794 -9999999999999e-18 .004237847 0 -1 1224646799147e-28 -1 0
 0 50 276 226 0 217 277 20 0 +-.008095794 5189865763826e-31 .004237847 0 -1 1224
646799147e-28 -1 0 0 50 277 223 0 68 272 276 0 +-.007233851 5189865763826e-31 .0
04237847 0 -1224646799147e-28 -1 -1 0 0 14 68 55 278 ?222 217 37 6 277 +0 0 222
 217 25 50 272 217 0 222 268 277 0 +-.007233851 3965218964679e-31 .003237847 -1
 0 0 0 1224646799147e-28 1 81 1 278 448 34 68 0 0 274 269 279 81 1 274 447 34 21
7 0 0 88 278 280 81 1 269 449 34 222 0 0 278 267 281 83 1 279 3605 83 1 281 3606
 83 1 280 3604 83 1 275 3603 50 273 199 0 262 282 268 0 +-.006911444 36026145185
66e-31 .002941758 0 -1224646799147e-28 -1 -1 0 0 14 262 27 283 ?201 265 260 6 27
3 +0 0 201 265 25 50 282 193 0 201 284 273 0 +-.006911444 555725980357e-30 .0045
37847 1 0 0 0 -1224646799147e-28 -1 14 201 20 285 ?208 262 198 6 282 +0 0 208 26
2 25 50 284 187 0 208 0 282 0 +-.008095794 555725980357e-30 .004537847 0 1224646
799147e-28 1 1 0 0 14 208 13 286 ?19 201 207 6 284 +0 0 19 201 25 81 1 286 454 3
4 208 0 0 285 287 288 14 19 3 287 ?0 208 80 6 7 +265 265 0 208 25 81 1 287 455 3
4 19 0 0 286 289 290 81 1 289 456 34 1 291 292 287 0 293 83 1 290 3612 81 1 291
 404 294 1 0 289 0 0 295 81 1 292 457 296 1 289 297 0 0 298 83 1 293 3613 80 1 2
96 34 299 9000 0 0 0 0 3 5 0 0 0 FFTFTFTTFFFFFFFFF2 81 1 297 510 300 1 292 14 0
 0 301 83 1 298 17325 80 1 300 302 303 8040 0 0 0 0 3 5 0 0 0 TTTFFFFFFFFFFFFFF2
 81 1 14 511 304 1 297 2 0 0 305 83 3 301 1 1 1 80 1 304 13 306 8038 0 0 0 0 0 0
 0 0 0 TTTTTTTTTTTTTFTFT10 98 255 11 305 72 67 45 48 52 80 97 100 48 48 57 79 14
 306 SDL/TYSA_UNAME79 17 303 SDL/TYSA_COLOUR_279 18 299 BTI/importMaxCount80 1 2
94 307 308 9000 0 0 0 0 3 5 0 0 0 TTTFFFFFFFFFFFFFF1 82 255 1 295 7 79 23 308 ON
SHAPE_ORIGINALBODY_ID81 1 285 453 34 201 0 0 283 286 309 83 1 288 3611 81 1 283
 452 34 262 0 0 270 285 310 83 1 309 3610 81 1 270 451 34 265 0 0 267 283 311 83
 1 310 3609 83 1 311 3608 83 1 271 3607 17 187 0 264 119 244 238 261 112 0 111 +
17 224 0 60 247 223 238 119 116 0 187 -17 247 0 60 62 224 203 111 108 0 192 -17
 62 0 60 57 247 54 103 100 0 196 -17 111 0 260 261 192 238 247 108 0 0 +83 1 233
 3567 81 1 228 408 34 42 0 0 35 226 312 81 1 35 407 34 32 0 0 30 228 313 83 1 31
2 3565 83 1 313 3564 83 1 230 3566 81 1 167 439 34 105 0 0 102 195 314 83 1 197
 3597 81 1 102 438 34 100 0 0 191 167 315 83 1 314 3596 81 1 191 437 34 104 0 0
 162 102 316 83 1 315 3595 81 1 162 436 34 113 0 0 110 191 317 83 1 316 3594 81
 1 110 435 34 108 0 0 186 162 318 83 1 317 3593 81 1 186 434 34 112 0 0 157 110
 319 83 1 318 3592 81 1 157 433 34 121 0 0 118 186 320 83 1 319 3591 81 1 118 43
2 34 116 0 0 181 157 321 83 1 320 3590 81 1 181 431 34 120 0 0 152 118 322 83 1
 321 3589 81 1 152 430 34 129 0 0 126 181 323 83 1 322 3588 81 1 126 429 34 124
 0 0 176 152 324 83 1 323 3587 81 1 176 428 34 128 0 0 147 126 325 83 1 324 3586
 81 1 147 427 34 135 0 0 134 176 326 83 1 325 3585 81 1 134 426 34 132 0 0 172 1
47 327 83 1 326 3584 81 1 172 425 34 72 0 0 143 134 328 83 1 327 3583 81 1 143 4
24 34 76 0 0 75 172 329 83 1 328 3582 81 1 75 423 34 28 0 0 26 143 330 83 1 329
 3581 81 1 26 422 34 11 0 0 50 75 331 83 1 330 3580 81 1 50 421 34 48 0 0 58 26
 332 83 1 331 3579 83 1 332 3578 83 1 89 3602 83 1 67 3577 83 1 59 3576 83 1 36
 3563 19 18 63 0 1 0 10 6 0 S0 74 4 CI16 index_map_offset0 0 1 dCCZ20 16 6 0 0 2
91 289 292 297 14 2 0 0 0 0 0 0 0 0 0 0 0 0 0 0 80 1 13 333 334 8017 0 0 0 0 0 0
 0 0 0 TTTTTTTTTTTTTFTFT3 84 255 11 15 HC-04Pad00979 13 334 SDL/TYSA_NAME1 0 
