**ABCDEFGHIJKLMNOPQRSTUVWXYZabcdefghijklmnopqrstuvwxyz**************************
**PARASOLID !"#$%&'()*+,-./:;<=>?@[\]^_`{|}~0123456789**************************
**PART1;
MC=unknown;
MC_MODEL=unknown;
MC_ID=unknown;
OS=unknown;
OS_RELEASE=unknown;
FRU=Parasolid 37.0.173;
APPL=Onshape;
SITE=unknown;
USER=unknown;
FORMAT=text;
GUISE=transmit;
KEY=BTGapi::writeModels_.xmt;
FILE=BTGapi::writeModels_.xmt;
DATE=2024-12-29T04:00:25 (UTC);
**PART2;
SCH=SCH_3700173_36001;
USFLD_SIZE=0;
**PART3;
**END_OF_HEADER*****************************************************************
T51 : TRANSMIT FILE created by modeller version 370017323 SCH_3700173_36001_1300
6231 0 12 36 CCCI7 lattice222 0 CCCI4 mesh1006 0 I8 polyline1008 0 CCCCCCCDI5 ow
ner1040 0 CCCI16 boundary_lattice222 0 CCCI13 boundary_mesh1006 0 I17 boundary_p
olyline1008 0 CCCA16 index_map_offset0 0 1 dA9 index_map82 0 A17 node_id_index_m
ap82 0 A20 schema_embedding_map82 0 A5 child12 0 A14 lowest_node_id0 0 1 dA16 me
sh_offset_data206 0 Z1 1782 2 3 0 0 0 0 0 0 0 1e3 1e-8 0 4 0 1 0 1 2 5 0 6 7 8 0
 0 9 10 11 0 0 0 0 0 0 0 81 255 1 2 1782 12 1 13 0 0 0 14 70 11 CI9 list_type0 0
 1 uI10 notransmit0 0 1 lCCCDCCDI12 finger_index0 0 1 dI12 finger_block1012 0 CZ
3 0 4 T1 0 0 3 20 1 15 15 13 255 5 369 0 1 0 16 0 0 17 0 50 255 6 356 0 18 19 0
 0 +0 .025 .005 -1 0 0 0 0 1 30 255 7 368 0 10 20 0 0 +0 0 .005 0 0 -1 29 255 8
 825 0 11 21 0 .005 .035 .005 19 9 CCCCCCI5 frame230 0 CA5 owner12 0 Z9 128 0 1
 17 0 22 0 V0 16 255 10 320 0 ?23 0 24 7 0 0 1 18 255 11 823 0 25 0 26 8 ?1 17 2
55 25 0 27 28 29 11 30 31 0 32 +18 26 812 0 33 11 34 21 ?1 17 33 0 35 36 37 26 3
8 39 0 40 +18 34 807 0 41 26 42 43 ?1 29 21 814 0 26 43 8 .13 .035 .005 29 43 81
1 0 34 44 21 .145 .05 .005 29 44 297 0 45 46 43 -693889390390723e-32 .05 0 18 45
 236 0 47 48 49 44 ?1 29 46 298 0 49 50 44 .15 .05 0 18 49 240 0 51 45 52 46 ?1
 29 50 299 0 52 53 46 .15 0 0 18 52 244 0 54 49 55 50 ?1 29 53 300 0 55 56 50 .1
2 0 0 18 55 248 0 57 52 58 53 ?1 29 56 301 0 58 59 53 .12 -.07 0 18 58 252 0 60
 55 61 56 ?1 29 59 302 0 61 62 56 .09 -.07 0 18 61 256 0 63 58 64 59 ?1 29 62 30
3 0 64 65 59 .09 -.17 0 18 64 260 0 66 61 67 62 ?1 29 65 304 0 67 68 62 .06 -.17
 0 18 67 264 0 69 64 70 65 ?1 29 68 305 0 70 71 65 .06 -.07 0 18 70 268 0 72 67
 73 68 ?1 29 71 306 0 73 74 68 .03 -.07 0 18 73 272 0 75 70 76 71 ?1 29 74 307 0
 76 77 71 .03 0 0 18 76 276 0 78 73 79 74 ?1 29 77 308 0 79 80 74 0 0 0 18 79 28
0 0 23 76 81 77 ?1 29 80 124 0 42 82 77 -693889390390723e-32 .05 .005 18 42 122
 0 83 34 84 80 ?1 29 82 119 0 84 85 80 .15 .05 .005 18 84 117 0 86 42 87 82 ?1 2
9 85 114 0 87 88 82 .15 0 .005 18 87 112 0 89 84 90 85 ?1 29 88 109 0 90 91 85 .
12 0 .005 18 90 107 0 92 87 93 88 ?1 29 91 104 0 93 94 88 .12 -.07 .005 18 93 10
2 0 95 90 96 91 ?1 29 94 99 0 96 97 91 .09 -.07 .005 18 96 97 0 98 93 99 94 ?1 2
9 97 79 0 99 100 94 .03 -.07 .005 18 99 77 0 101 96 102 97 ?1 29 100 74 0 102 10
3 97 .03 0 .005 18 102 72 0 104 99 48 100 ?1 29 103 69 0 48 105 100 0 0 .005 18
 48 67 0 106 102 45 103 ?1 29 105 670 0 107 108 103 .06 -.07 .005 18 107 613 0 1
09 110 111 105 ?1 29 108 671 0 81 112 105 .09 -.07 .03 18 81 621 0 113 79 114 10
8 ?1 29 112 672 0 114 115 108 .09 -.17 .03 18 114 619 0 116 81 117 112 ?1 29 115
 673 0 117 118 112 .06 -.17 .03 18 117 617 0 119 114 110 115 ?1 29 118 674 0 110
 120 115 .06 -.07 .03 18 110 607 0 121 117 107 118 ?1 29 120 1280 0 122 123 118
 .145 .035 .005 18 122 1179 0 37 124 125 120 ?1 29 123 1283 0 126 127 120 .13 .0
35 .02 18 126 1191 0 128 129 124 123 ?1 29 127 1284 0 124 130 123 .145 .035 .02
 18 124 1187 0 131 126 122 127 ?1 29 130 1285 0 132 133 127 .02 .05 .005 18 132
 1094 0 134 135 129 130 ?1 29 133 1286 0 129 136 130 .02 .035 .005 18 129 1102 0
 137 132 126 133 ?1 29 136 1290 0 111 138 133 .02 .035 .02 18 111 1106 0 139 107
 135 136 ?1 29 138 1291 0 135 140 136 .005 .035 .02 18 135 1104 0 141 111 132 13
8 ?1 29 140 1706 0 142 143 138 .005 .05 .005 18 142 1629 0 144 145 0 140 ?1 29 1
43 1707 0 146 147 140 .02 .0505 .005 18 146 1637 0 148 149 150 143 ?1 29 147 170
8 0 150 151 143 .02 .0505 .02 18 150 1635 0 152 146 153 147 ?1 29 151 1709 0 153
 154 147 .005 .0505 .02 18 153 1627 0 155 150 145 151 ?1 29 154 1710 0 145 156 1
51 .005 .0505 .005 18 145 1623 0 157 153 142 154 ?1 29 156 1712 0 149 158 154 .1
3 .05 .005 18 149 1542 0 159 160 146 156 ?1 29 158 1715 0 125 161 156 .145 .0505
 .005 18 125 1538 0 162 122 163 158 ?1 29 161 1716 0 163 164 158 .13 .0505 .005
 18 163 1548 0 165 125 166 161 ?1 29 164 1717 0 166 167 161 .13 .0505 .02 18 166
 1540 0 168 163 160 164 ?1 29 167 1718 0 160 0 164 .145 .0505 .02 18 160 1550 0
 169 166 149 167 ?1 17 169 0 170 171 172 160 173 174 0 175 -15 255 170 1212 0 16
9 176 0 17 171 0 170 128 169 166 175 177 0 178 -17 172 0 170 169 128 124 179 180
 0 173 -17 173 0 181 182 183 124 169 174 0 0 +16 174 1133 0 ?173 184 185 186 0 0
 1 17 175 0 187 188 178 160 171 177 0 183 +15 187 1573 0 188 189 0 17 188 0 187
 165 175 125 183 190 0 191 +17 178 0 187 175 165 166 192 193 0 0 -16 177 1530 0
 ?175 193 194 195 0 0 1 17 183 0 181 173 191 160 188 190 0 0 -15 181 1196 0 196
 197 0 17 191 0 181 183 196 125 198 199 0 0 -16 190 1524 0 ?188 200 201 202 0 0
 1 16 200 1513 0 ?203 199 190 204 0 0 1 16 201 1527 0 ?165 190 193 205 0 0 1 30
 202 1699 0 190 205 206 0 +.145 .0505 .02 0 0 -1 30 205 1700 0 201 207 202 0 +.1
375 .0505 .005 -1 0 0 30 206 1696 0 194 202 208 0 +.1375 .05 .005 -1 0 0 16 194
 1502 0 ?209 177 210 206 0 0 1 30 208 1694 0 199 206 204 0 +.145 .0505 .005 0 -1
 0 16 199 1507 0 ?198 39 200 208 0 0 1 30 204 1693 0 200 208 211 0 +.13 .0505 .0
05 0 -1 0 30 211 1690 0 212 204 213 0 +.0125 .0505 .005 1 0 0 16 212 1579 0 ?214
 215 216 211 0 0 1 30 213 1689 0 215 211 217 0 +.005 .0505 .02 0 0 -1 16 215 158
5 0 ?218 219 212 213 0 0 1 30 217 1688 0 219 213 220 0 +.075 .0505 .02 1 0 0 16
 219 1607 0 ?221 222 215 217 0 0 1 30 220 1687 0 222 217 223 0 +.02 .0505 .02 0
 0 -1 16 222 1610 0 ?148 224 219 220 0 0 1 30 223 1686 0 216 220 225 0 +.0125 .0
5 .005 1 0 0 16 216 1613 0 ?226 212 0 223 0 0 1 30 225 1682 0 224 223 227 0 +.02
 .0505 .005 0 -1 0 16 224 1582 0 ?134 210 222 225 0 0 1 30 227 1679 0 210 225 22
8 0 +.005 .0505 .005 0 -1 0 16 210 1588 0 ?144 194 224 227 0 0 1 30 228 1263 0 2
29 227 230 0 +.005 .0425 .02 0 -1 0 16 229 1076 0 ?141 231 232 228 0 0 1 30 230
 1262 0 231 228 233 0 +.0125 .035 .02 1 0 0 16 231 1079 0 ?139 234 229 230 0 0 1
 30 233 1261 0 234 230 235 0 +.02 .0425 .02 0 -1 0 16 234 1070 0 ?236 237 231 23
3 0 0 1 30 235 1259 0 238 233 239 0 +.005 .0425 .005 0 -1 0 16 238 1054 0 ?32 24
0 241 235 0 0 1 30 239 1258 0 240 235 242 0 +.0125 .035 .005 1 0 0 16 240 1062 0
 ?28 232 238 239 0 0 1 30 242 1257 0 232 239 243 0 +.02 .0425 .005 0 -1 0 16 232
 1087 0 ?244 229 240 242 0 0 1 30 243 1255 0 237 242 245 0 +.02 .035 .02 0 0 -1
 16 237 1073 0 ?137 31 234 243 0 0 1 30 245 1254 0 31 243 246 0 +.005 .035 .02 0
 0 -1 16 31 1067 0 ?25 247 237 245 0 0 1 30 246 1252 0 180 245 248 0 +.1375 .035
 .02 -1 0 0 16 180 1153 0 ?179 185 249 246 0 0 1 30 248 1251 0 185 246 186 0 +.1
3 .0425 .02 0 -1 0 16 185 1159 0 ?128 174 180 248 0 0 1 30 186 1250 0 174 248 25
0 0 +.145 .0425 .02 0 -1 0 30 250 1248 0 39 186 251 0 +.1375 .035 .005 -1 0 0 16
 39 1167 0 ?33 252 199 250 0 0 1 30 251 1247 0 252 250 253 0 +.13 .0425 .005 0 -
1 0 16 252 1145 0 ?254 249 39 251 0 0 1 30 253 1246 0 249 251 255 0 +.145 .0425
 .005 0 -1 0 16 249 1162 0 ?37 180 252 253 0 0 1 30 255 1242 0 241 253 256 0 +.1
3 .035 .02 0 0 -1 16 241 1156 0 ?40 238 184 255 0 0 1 30 256 1241 0 184 255 257
 0 +.145 .035 .02 0 0 -1 16 184 1136 0 ?182 241 174 256 0 0 1 30 257 666 0 258 2
56 259 0 +.075 -.07 .03 1 0 0 16 258 563 0 ?260 261 247 257 0 0 1 30 259 665 0 2
61 257 262 0 +.06 -.12 .03 0 -1 0 16 261 593 0 ?263 264 258 259 0 0 1 30 262 664
 0 264 259 265 0 +.075 -.17 .03 1 0 0 16 264 596 0 ?266 267 261 262 0 0 1 30 265
 663 0 267 262 268 0 +.09 -.12 .03 0 1 0 16 267 599 0 ?113 269 264 265 0 0 1 30
 268 662 0 247 265 270 0 +.075 -.07 .005 1 0 0 16 247 602 0 ?271 258 31 268 0 0
 1 30 270 658 0 269 268 272 0 +.09 -.07 .03 0 0 -1 16 269 566 0 ?98 273 267 270
 0 0 1 30 272 655 0 273 270 274 0 +.06 -.07 .03 0 0 -1 16 273 574 0 ?109 275 269
 272 0 0 1 30 274 9 0 276 272 277 0 +0 .025 .005 0 1 0 16 276 7 0 ?278 279 280 2
74 0 0 1 30 277 14 0 279 274 281 0 +.015 0 .005 1 0 0 16 279 12 0 ?104 282 276 2
77 0 0 1 30 281 19 0 282 277 283 0 +.03 -.035 .005 0 -1 0 16 282 17 0 ?101 284 2
79 281 0 0 1 30 283 24 0 284 281 285 0 +.045 -.07 .005 1 0 0 16 284 22 0 ?286 28
7 282 283 0 0 1 30 285 44 0 287 283 288 0 +.105 -.07 .005 1 0 0 16 287 42 0 ?95
 289 284 285 0 0 1 30 288 49 0 289 285 290 0 +.12 -.035 .005 0 1 0 16 289 47 0 ?
92 291 287 288 0 0 1 30 290 54 0 291 288 292 0 +.135 0 .005 1 0 0 16 291 52 0 ?8
9 293 289 290 0 0 1 30 292 59 0 293 290 294 0 +.15 .025 .005 0 1 0 16 293 57 0 ?
295 296 291 292 0 0 1 30 294 64 0 297 292 298 0 +.075 .05 .005 1 0 0 16 297 62 0
 ?299 300 301 294 296 301 1 30 298 296 0 275 294 302 0 +0 .025 0 0 1 0 16 275 23
2 0 ?303 304 273 298 0 0 1 30 302 295 0 304 298 305 0 +.015 0 0 1 0 0 16 304 228
 0 ?78 306 275 302 0 0 1 30 305 294 0 306 302 307 0 +.03 -.035 0 0 -1 0 16 306 2
24 0 ?75 308 304 305 0 0 1 30 307 293 0 308 305 309 0 +.045 -.07 0 1 0 0 16 308
 220 0 ?72 310 306 307 0 0 1 30 309 292 0 310 307 311 0 +.06 -.12 0 0 -1 0 16 31
0 216 0 ?312 313 308 309 0 0 1 30 311 291 0 313 309 314 0 +.075 -.17 0 1 0 0 16
 313 212 0 ?315 316 310 311 0 0 1 30 314 290 0 316 311 317 0 +.09 -.12 0 0 1 0 1
6 316 208 0 ?63 318 313 314 0 0 1 30 317 289 0 318 314 319 0 +.105 -.07 0 1 0 0
 16 318 204 0 ?60 320 316 317 0 0 1 30 319 288 0 320 317 321 0 +.12 -.035 0 0 1
 0 16 320 200 0 ?57 322 318 319 0 0 1 30 321 287 0 322 319 323 0 +.135 0 0 1 0 0
 16 322 196 0 ?54 324 320 321 0 0 1 30 323 286 0 324 321 325 0 +.15 .025 0 0 1 0
 16 324 192 0 ?326 280 322 323 0 0 1 30 325 285 0 280 323 327 0 +.075 .05 0 1 0
 0 16 280 188 0 ?328 276 324 325 0 0 1 30 327 357 0 300 325 329 0 +-693889390390
723e-32 .05 .005 0 0 -1 16 300 309 0 ?47 330 297 327 0 0 1 30 329 358 0 330 327
 331 0 +.15 .05 .005 0 0 -1 16 330 310 0 ?51 332 300 329 0 0 1 30 331 359 0 332
 329 333 0 +.15 0 .005 0 0 -1 16 332 311 0 ?334 335 330 331 0 0 1 30 333 360 0 3
35 331 336 0 +.12 0 .005 0 0 -1 16 335 312 0 ?337 338 332 333 0 0 1 30 336 361 0
 338 333 339 0 +.12 -.07 .005 0 0 -1 16 338 313 0 ?340 341 335 336 0 0 1 30 339
 362 0 341 336 342 0 +.09 -.07 .005 0 0 -1 16 341 314 0 ?343 344 338 339 0 0 1 3
0 342 363 0 344 339 345 0 +.09 -.17 .005 0 0 -1 16 344 315 0 ?66 346 341 342 0 0
 1 30 345 364 0 346 342 347 0 +.06 -.17 .005 0 0 -1 16 346 316 0 ?69 348 344 345
 0 0 1 30 347 365 0 348 345 349 0 +.06 -.07 .005 0 0 -1 16 348 317 0 ?350 351 34
6 347 0 0 1 30 349 366 0 351 347 20 0 +.03 -.07 .005 0 0 -1 16 351 318 0 ?352 24
 348 349 0 0 1 30 20 367 0 24 349 7 0 +.03 0 .005 0 0 -1 16 24 319 0 ?353 10 351
 20 0 0 1 17 353 0 354 75 355 76 356 24 0 357 +15 354 339 0 75 358 0 17 75 0 354
 359 353 73 357 306 0 352 +17 355 0 354 353 359 102 101 282 0 0 -17 356 0 360 36
1 78 102 353 24 0 355 -17 357 0 362 363 364 76 75 306 0 0 -15 362 187 0 303 365
 0 17 363 0 362 303 357 79 78 304 0 366 -17 364 0 362 357 367 73 72 308 0 0 -17
 367 0 362 364 368 70 312 310 0 0 -17 72 0 369 370 352 70 364 308 0 350 +15 369
 337 0 72 371 0 17 370 0 369 372 72 107 350 348 0 0 -17 352 0 369 72 372 73 359
 351 0 364 +17 350 0 373 312 109 70 370 348 0 367 +15 373 335 0 109 374 0 17 312
 0 373 119 350 67 367 310 0 368 +17 109 0 373 350 375 107 121 273 0 376 +17 375
 0 373 109 119 110 263 261 0 377 -17 121 0 378 260 376 110 109 273 0 375 -17 376
 0 378 121 98 107 271 247 0 286 -15 378 849 0 98 379 0 17 98 0 378 376 260 96 38
0 269 0 271 +17 271 0 35 95 286 96 376 247 0 381 +17 286 0 35 271 101 107 372 28
4 0 370 +15 35 6 0 382 383 0 17 101 0 35 286 104 99 355 282 0 359 +17 372 0 369
 352 370 99 286 284 0 0 -17 104 0 35 101 384 102 361 279 0 356 +17 359 0 354 355
 75 99 352 351 0 372 -17 384 0 35 104 385 48 278 276 0 0 -17 361 0 360 23 356 48
 104 279 0 384 -15 360 341 0 78 386 0 17 23 0 360 78 361 79 106 10 0 363 +17 78
 0 360 356 23 76 363 304 0 353 +17 106 0 387 278 366 48 23 10 0 361 -15 387 343
 0 366 18 0 17 278 0 387 47 106 42 384 276 0 385 +17 366 0 387 106 47 79 303 275
 0 0 -17 47 0 387 366 278 45 83 300 0 303 +17 303 0 362 328 363 45 366 275 0 388
 +17 328 0 362 389 303 49 388 280 0 0 +17 388 0 390 83 51 45 328 280 0 0 -15 390
 1471 0 41 16 0 17 83 0 390 299 388 42 47 300 0 278 -17 51 0 390 388 86 49 391 3
30 0 326 +17 86 0 390 51 41 84 392 296 0 295 +17 391 0 393 394 326 84 51 330 0 0
 -17 326 0 393 391 334 49 389 324 0 328 +15 393 323 0 326 395 0 17 334 0 393 326
 394 52 396 332 0 389 +17 389 0 362 397 328 52 326 324 0 0 -17 397 0 362 398 389
 55 54 322 0 0 -17 398 0 362 399 397 58 57 320 0 0 -17 54 0 400 396 337 52 397 3
22 0 334 +15 400 325 0 54 401 0 17 396 0 400 402 54 87 334 332 0 394 -17 337 0 4
00 54 402 55 403 335 0 397 +17 402 0 400 337 396 90 89 291 0 0 -17 403 0 404 405
 57 90 337 335 0 402 -15 404 327 0 57 406 0 17 405 0 404 340 403 93 92 289 0 0 -
17 57 0 404 403 340 55 398 320 0 337 +17 340 0 404 57 405 58 407 338 0 398 +17 4
07 0 408 409 60 93 340 338 0 405 -15 408 329 0 60 410 0 17 409 0 408 343 407 96
 95 287 0 0 -17 60 0 408 407 343 58 399 318 0 340 +17 343 0 408 60 409 61 381 34
1 0 399 +17 399 0 362 411 398 61 60 318 0 0 -17 411 0 362 368 399 64 63 316 0 0
 -17 368 0 362 367 411 67 315 313 0 0 -17 63 0 412 381 66 61 411 316 0 343 +15 4
12 331 0 66 413 0 17 381 0 412 380 63 96 343 341 0 409 -17 66 0 412 63 414 64 11
6 344 0 315 +17 414 0 412 66 380 114 113 267 0 0 -17 116 0 415 416 315 114 66 34
4 0 266 -17 315 0 415 116 69 64 368 313 0 411 +15 415 333 0 69 417 0 17 69 0 415
 315 416 67 119 346 0 312 +17 416 0 415 69 116 117 266 264 0 0 -17 119 0 373 375
 312 117 69 346 0 263 -17 263 0 418 266 377 117 375 261 0 416 +15 418 642 0 377
 419 0 17 266 0 418 113 263 114 416 264 0 414 +17 377 0 418 263 113 110 260 258
 0 0 -17 113 0 418 377 266 81 414 267 0 380 +17 260 0 378 98 121 81 377 258 0 0
 +17 380 0 412 414 381 81 98 269 0 260 -14 255 419 639 0 ?197 379 418 5 420 +0 0
 197 379 22 14 197 1193 0 ?421 419 181 5 422 +0 0 421 419 22 14 379 623 0 ?419 3
65 378 5 423 +0 0 419 365 22 50 420 654 0 419 424 423 0 +.075 -.06 .03 0 0 1 1 0
 0 13 22 129 0 0 0 0 0 0 9 16 14 16 322 0 ?383 0 390 5 425 +0 0 383 0 22 14 383
 1 0 ?18 16 35 5 426 +0 0 18 16 22 50 425 345 0 16 427 428 0 +.075 .05 .005 0 1
 0 0 0 1 50 427 284 0 365 426 425 0 +.075 -.06 0 0 0 1 1 0 0 50 428 346 0 395 42
5 429 0 +.15 .025 .005 -1 0 0 0 0 1 14 395 324 0 ?365 401 393 5 428 -0 0 365 401
 22 50 429 347 0 401 428 430 0 +.135 0 .005 0 1 0 0 0 1 14 401 326 0 ?395 406 40
0 5 429 -0 0 395 406 22 50 430 348 0 406 429 431 0 +.12 -.035 .005 -1 0 0 0 0 1
 14 406 328 0 ?401 410 404 5 430 -0 0 401 410 22 50 431 349 0 410 430 432 0 +.10
5 -.07 .005 0 1 0 0 0 1 14 410 330 0 ?406 413 408 5 431 -0 0 406 413 22 50 432 3
50 0 413 431 433 0 +.09 -.12 .005 -1 0 0 0 0 1 14 413 332 0 ?410 417 412 5 432 -
0 0 410 417 22 50 433 351 0 417 432 434 0 +.075 -.17 .005 0 1 0 0 0 1 14 417 334
 0 ?413 374 415 5 433 -0 0 413 374 22 50 434 352 0 374 433 435 0 +.06 -.12 .005
 1 0 0 0 0 -1 14 374 336 0 ?417 371 373 5 434 -0 0 417 371 22 50 435 353 0 371 4
34 436 0 +.045 -.07 .005 0 1 0 0 0 1 14 371 338 0 ?374 358 369 5 435 -0 0 374 35
8 22 50 436 354 0 358 435 19 0 +.03 -.035 .005 1 0 0 0 0 -1 14 358 340 0 ?371 38
6 354 5 436 -0 0 371 386 22 50 19 355 0 386 436 6 0 +.015 0 .005 0 1 0 0 0 1 14
 386 342 0 ?358 18 360 5 19 -0 0 358 18 22 14 18 344 0 ?386 383 387 5 6 +0 0 386
 383 22 14 365 172 0 ?379 395 362 5 427 -0 0 379 395 22 50 426 3 0 383 423 427 0
 +.075 -.06 .005 0 0 1 1 0 0 50 423 649 0 379 420 426 0 +.075 -.07 .03 0 1 0 0 0
 1 50 424 1223 0 437 438 420 0 +.1375 .035 .02 0 -1 0 0 0 -1 14 437 1205 0 ?176
 421 439 5 424 +0 0 176 421 22 50 438 1224 0 421 422 424 0 +.13 .0425 .02 1 0 0
 0 0 -1 14 421 1201 0 ?437 197 440 5 438 -0 0 437 197 22 50 422 1226 0 197 441 4
38 0 +.145 .0425 .02 1 0 0 0 0 -1 50 441 1228 0 176 442 422 0 +.075 -.06 .02 0 0
 1 1 0 0 14 176 1209 0 ?443 437 170 5 441 +0 0 443 437 22 50 442 1230 0 443 444
 441 0 +.005 .0425 .02 1 0 0 0 0 -1 14 443 1112 0 ?445 176 446 5 442 -0 0 445 17
6 22 50 444 1231 0 445 447 442 0 +.0125 .035 .02 0 1 0 0 0 1 14 445 1116 0 ?448
 443 27 5 444 -0 0 448 443 22 50 447 1232 0 448 449 444 0 +.02 .0425 .02 1 0 0 0
 0 -1 14 448 1120 0 ?450 445 451 5 447 +0 0 450 445 22 50 449 1234 0 450 452 447
 0 +.075 -.06 .02 0 0 1 1 0 0 14 450 1124 0 ?453 448 454 5 449 +0 0 453 448 22 5
0 452 1667 0 453 455 449 0 +.0125 .0505 .005 0 0 -1 -1 0 0 14 453 1639 0 ?456 45
0 457 5 452 +0 0 456 450 22 50 455 1672 0 456 458 452 0 +.075 .0505 .01 0 1 0 -1
 0 0 14 456 1655 0 ?459 453 460 5 455 +0 0 459 453 22 50 458 1675 0 459 461 455
 0 +.1375 .0505 .005 0 0 1 1 0 0 14 459 1558 0 ?189 456 462 5 458 -0 0 189 456 2
2 50 461 1678 0 189 0 458 0 +.075 .0505 .01 0 1 0 -1 0 0 14 189 1570 0 ?0 459 18
7 5 461 +0 0 0 459 22 15 462 1561 0 209 459 0 17 209 0 462 463 198 149 41 194 0
 0 +17 463 0 462 162 209 163 203 200 0 192 -17 198 0 462 209 162 34 191 199 0 0
 +17 41 0 390 86 159 34 209 194 0 392 -17 159 0 390 41 226 149 382 301 0 36 +17
 392 0 35 37 295 34 86 296 0 196 -17 37 0 35 33 392 122 196 249 0 182 +17 295 0
 35 392 89 84 394 293 0 391 +16 296 808 0 ?86 301 293 294 301 297 1 17 196 0 181
 191 182 34 37 249 0 198 -17 182 0 181 196 173 122 131 184 0 38 +17 131 0 439 17
9 38 124 182 184 0 172 -17 38 0 439 131 40 122 33 39 0 0 -15 439 1208 0 38 437 0
 17 40 0 439 38 179 26 464 241 0 254 +17 179 0 439 40 131 126 172 180 0 0 +17 46
4 0 440 168 254 126 40 241 0 179 -17 254 0 440 464 203 26 36 252 0 0 +15 440 120
4 0 254 421 0 17 203 0 440 254 192 149 463 200 0 209 +17 36 0 35 382 33 149 254
 252 0 203 -17 382 0 35 244 36 132 159 301 0 0 -17 244 0 35 465 382 129 466 232
 0 0 +16 301 798 0 ?159 297 296 294 297 296 1 17 465 0 35 467 244 11 28 240 0 0
 -17 466 0 451 468 137 132 244 232 0 382 -15 451 1123 0 466 448 0 17 468 0 451 4
69 466 146 134 224 0 214 -17 137 0 451 466 236 129 470 237 0 28 +17 236 0 451 13
7 469 111 152 234 0 0 +17 470 0 27 29 28 111 137 237 0 236 -17 28 0 27 470 25 12
9 465 240 0 244 +15 27 1119 0 28 445 0 17 29 0 27 25 470 135 139 231 0 0 -17 139
 0 454 152 141 111 29 231 0 470 +15 454 1127 0 152 450 0 17 152 0 454 471 139 15
0 236 234 0 221 -17 141 0 454 139 471 135 155 229 0 30 +17 471 0 454 141 152 153
 221 219 0 472 -17 155 0 446 218 30 153 141 229 0 471 -17 30 0 446 155 32 135 25
 31 0 29 -15 446 1115 0 32 443 0 17 32 0 446 30 144 11 467 238 0 465 +17 144 0 4
46 32 218 142 157 210 0 473 +17 467 0 35 385 465 142 32 238 0 299 -17 385 0 35 3
84 467 42 299 297 0 0 -17 299 0 390 226 83 142 385 297 0 0 +17 226 0 390 159 299
 132 473 216 0 466 +17 473 0 457 157 134 142 226 216 0 467 -15 457 1642 0 473 45
3 0 17 157 0 457 214 473 145 144 210 0 474 -17 134 0 457 473 214 132 468 224 0 2
26 +17 214 0 457 134 157 146 474 212 0 0 +17 474 0 460 472 148 145 214 212 0 218
 -15 460 1658 0 474 456 0 17 472 0 460 221 474 153 218 215 0 0 -17 148 0 460 474
 221 146 469 222 0 468 +17 218 0 446 144 155 145 472 215 0 0 +17 221 0 460 148 4
72 150 471 219 0 469 +17 469 0 451 236 468 150 148 222 0 0 -17 192 0 440 203 168
 163 178 193 0 0 +17 168 0 440 192 464 166 128 185 0 171 -16 193 1510 0 ?192 201
 177 207 0 0 1 30 207 1701 0 193 195 205 0 +.13 .0505 .02 0 0 -1 30 195 1702 0 1
77 0 207 0 +.075 .0505 .02 1 0 0 17 128 0 170 172 171 126 168 185 0 464 +17 89 0
 35 295 92 87 402 291 0 396 +17 394 0 393 334 391 87 295 293 0 0 -17 92 0 35 89
 95 90 405 289 0 403 +17 95 0 35 92 271 93 409 287 0 407 +17 162 0 462 198 463 1
25 165 201 0 188 -17 165 0 187 178 188 163 162 201 0 463 +19 17 370 0 1 0 9 5 0
 S0 74 4 CI16 index_map_offset0 0 1 dCCZ20 15 3 0 0 475 13 2 0 0 0 0 0 0 0 0 0 0
 0 0 0 0 0 0 0 81 1 475 1780 476 1 0 13 0 0 477 81 1 13 1781 478 1 475 2 0 0 479
 80 7 CCCCCDI12 legal_owners0 17 1 lCZ1 478 12 480 8038 0 0 0 0 0 0 0 0 0 TTTTTT
TTTTTTTFTFT10 98 255 6 479 80 97 114 116 32 49 79 255 14 480 SDL/TYSA_UNAME80 1
 476 481 482 8040 0 0 0 0 3 5 0 0 0 TTTFFFFFFFFFFFFFF2 83 255 3 477 .61568627450
9804 .811764705882353 .929411764705882 79 17 482 SDL/TYSA_COLOUR_280 1 12 483 48
4 8017 0 0 0 0 0 0 0 0 0 TTTTTTTTTTTTTFTFT3 84 255 6 14 Part 179 13 484 SDL/TYSA
_NAME1 0 
