**ABCDEFGHIJKLMNOPQRSTUVWXYZabcdefghijklmnopqrstuvwxyz**************************
**PARASOLID !"#$%&'()*+,-./:;<=>?@[\]^_`{|}~0123456789**************************
**PART1;
MC=unknown;
MC_MODEL=unknown;
MC_ID=unknown;
OS=unknown;
OS_RELEASE=unknown;
FRU=Parasolid 37.0.173;
APPL=Onshape;
SITE=unknown;
USER=unknown;
FORMAT=text;
GUISE=transmit;
KEY=BTGapi::writeModels_.xmt;
FILE=BTGapi::writeModels_.xmt;
DATE=2024-12-29T04:00:26 (UTC);
**PART2;
SCH=SCH_3700173_36001;
USFLD_SIZE=0;
**PART3;
**END_OF_HEADER*****************************************************************
T51 : TRANSMIT FILE created by modeller version 370017323 SCH_3700173_36001_1300
6231 0 12 36 CCCI7 lattice222 0 CCCI4 mesh1006 0 I8 polyline1008 0 CCCCCCCDI5 ow
ner1040 0 CCCI16 boundary_lattice222 0 CCCI13 boundary_mesh1006 0 I17 boundary_p
olyline1008 0 CCCA16 index_map_offset0 0 1 dA9 index_map82 0 A17 node_id_index_m
ap82 0 A20 schema_embedding_map82 0 A5 child12 0 A14 lowest_node_id0 0 1 dA16 me
sh_offset_data206 0 Z1 512 2 3 0 0 0 0 0 0 0 1e3 1e-8 0 4 5 1 0 1 2 6 0 7 8 9 0
 0 10 11 12 0 0 0 0 0 0 0 81 255 1 2 512 13 1 14 0 0 0 15 70 11 CI9 list_type0 0
 1 uI10 notransmit0 0 1 lCCCDCCDI12 finger_index0 0 1 dI12 finger_block1012 0 CZ
3 0 4 T1 0 0 6 20 1 16 16 13 255 6 64 0 1 0 17 0 0 18 0 50 255 7 364 0 19 20 0 0
 +.020850308 -6654739279094e-31 -.005434007 -1 0 0 0 1224646799147e-28 1 30 255
 8 400 0 21 22 0 0 +.020850308 -5062698440203e-31 -.004134007 0 -1 1224646799147
e-28 29 255 9 363 0 23 24 0 .020850308 -5062698440203e-31 -.004134007 19 9 CCCCC
CI5 frame230 0 CA5 owner12 0 Z10 1 0 1 18 0 25 0 V0 16 255 11 58 26 ?27 0 28 29
 0 0 1 18 255 12 53 30 31 0 32 33 5e-7 1 81 1 30 406 34 12 0 0 0 35 36 17 255 31
 0 37 38 39 12 27 11 0 40 -18 32 51 35 41 12 42 43 5e-7 1 29 33 220 0 12 43 44 .
019988365 -1e-5 -.005134007 29 43 218 0 32 45 33 .019988365 -628734523935e-30 -.
005134007 29 44 179 0 46 33 47 .019988365 -5062698440203e-31 -.004134007 18 46 6
 48 49 50 0 44 5e-7 1 29 47 180 0 50 44 51 .019988365 -1e-5 -.004134007 18 50 7
 52 27 23 46 47 5e-7 1 29 51 360 0 53 47 54 .020850308 -1e-5 -.004134007 18 53 1
1 55 56 57 23 51 ?1 29 54 361 0 58 51 24 .020850308 -1e-5 -.003834007 18 58 18 5
9 60 61 57 54 ?1 29 24 362 0 57 54 9 .020850308 -469530440045897e-33 -.003834007
 18 57 16 62 63 58 53 24 ?1 81 1 62 417 34 57 0 0 59 55 64 17 63 0 65 66 67 57 6
8 69 0 70 -15 255 65 60 0 71 72 0 17 66 0 65 71 63 23 73 74 0 75 -17 67 0 65 63
 76 61 77 78 0 79 -17 68 0 80 81 70 61 63 69 0 0 +16 69 22 82 ?68 83 84 85 0 0 1
 17 70 0 80 68 60 57 86 87 0 73 -15 80 21 0 70 88 0 17 60 0 80 70 81 58 89 90 0
 91 -17 86 0 92 56 73 58 70 87 0 0 +16 87 17 93 ?86 84 74 22 0 0 1 17 73 0 92 86
 75 57 66 74 0 0 +15 92 14 0 75 19 0 17 75 0 92 73 56 23 94 21 0 95 -16 74 15 96
 ?73 87 97 98 0 0 1 81 1 96 441 34 74 0 0 93 99 100 16 97 12 99 ?101 74 21 102 0
 0 1 30 98 387 0 74 103 22 104 +.020850308 -66547392790941e-32 -.005434007 0 122
4646799147e-28 1 30 103 368 0 84 105 98 0 +.020850308 -1e-5 -.004134007 0 122464
6799147e-28 1 30 22 396 0 87 98 8 0 +.020850308 -46953044004588e-32 -.003834007
 0 -1 1224646799147e-28 141 255 104 106 104 104 98 133 255 106 323 0 107 108 109
 0 +98 .020850308 -6654739279094e-31 -.005434007 .020850308 -62873452393499e-32
 -.005134007 0 3e-4 16 107 43 110 ?111 112 113 106 0 0 1 30 108 219 0 1 114 106
 115 +.020850308 -628734523935e-30 -.005134007 -1 0 0 133 109 325 0 116 106 117
 0 +117 .019665958 -6654739279094e-31 -.005434007 .020850308 -6654739279094e-31
 -.005434007 0 .00118435 16 116 36 118 ?119 120 121 109 0 0 1 30 117 207 0 1 109
 122 123 +.019665958 -6654739279094e-31 -.005434007 1 0 0 133 122 327 0 78 117 1
24 0 +124 .019665958 -4695304400459e-31 -.003834007 .019665958 -66547392790942e-
32 -.005434007 0 .0016 141 123 109 123 123 117 16 78 29 125 ?77 126 90 122 0 0 1
 30 124 201 0 1 122 85 127 +.019665958 -4695304400459e-31 -.003834007 0 -1224646
799147e-28 -1 133 85 329 0 69 124 128 0 +128 .020850308 -4695304400459e-31 -.003
834007 .019665958 -4695304400459e-31 -.003834007 0 .00118435 141 127 122 127 127
 124 30 128 195 0 1 85 102 129 +.020850308 -4695304400459e-31 -.003834007 -1 0 0
 133 102 335 0 97 128 130 0 +130 .019988365 -1e-5 -.004134007 .020850308 -1e-5 -
.004134007 0 861943e-9 141 129 85 129 129 128 30 130 186 0 1 102 131 132 +.01998
8365 -1e-5 -.004134007 1 0 0 133 131 339 0 90 130 133 0 +133 .020850308 -1e-5 -.
003834007 .019665958 -1e-5 -.003834007 0 .00118435 141 132 102 132 132 130 16 90
 26 134 ?89 78 83 131 0 0 1 30 133 198 0 1 131 135 136 +.020850308 -1e-5 -.00383
4007 -1 0 0 133 135 341 0 121 133 137 0 +137 .019665958 -1e-5 -.003834007 .01966
5958 -100000000000002e-19 -.005434007 0 .0016 141 136 131 136 136 133 16 121 33
 138 ?139 116 126 135 0 0 1 30 137 204 0 1 135 140 141 +.019665958 -1e-5 -.00383
4007 0 -1224646799147e-28 -1 133 140 343 0 113 137 142 0 +142 .019665958 -1e-5 -
.005434007 .020850308 -1e-5 -.005434007 0 .00118435 141 141 135 141 141 137 16 1
13 40 143 ?144 107 120 140 0 0 1 30 142 210 0 1 140 145 146 +.019665958 -1e-5 -.
005434007 1 0 0 133 145 345 0 147 142 148 0 +148 .020850308 -1e-5 -.005434007 .0
20850308 -1e-5 -.005134007 0 3e-4 141 146 140 146 146 142 16 147 47 149 ?150 151
 112 145 0 0 1 30 148 216 0 1 145 152 153 +.020850308 -1e-5 -.005434007 0 122464
6799147e-28 1 133 152 347 0 154 148 155 0 +155 .020850308 -1e-5 -.005134007 .019
988365 -1e-5 -.005134007 0 861943e-9 141 153 145 153 153 148 16 154 54 156 ?40 2
8 157 152 0 0 1 30 155 222 0 1 152 29 158 +.020850308 -1e-5 -.005134007 -1 0 0 1
33 29 349 0 11 155 105 0 +105 .019988365 -1e-5 -.005134007 .019988365 -999999999
999988e-20 -.004134007 0 .001 141 158 152 158 158 155 30 105 225 0 1 29 103 159
 +.019988365 -1e-5 -.005134007 0 1224646799147e-28 1 141 159 29 159 159 105 81 1
 156 424 34 154 0 0 160 161 162 17 40 0 163 27 150 12 164 154 0 165 +16 28 57 16
0 ?49 11 154 166 0 0 1 16 157 52 161 ?165 154 151 167 0 0 1 81 1 161 425 34 157
 0 0 156 168 169 17 165 0 170 164 171 12 38 157 0 0 +16 151 50 168 ?171 157 147
 114 0 0 1 133 167 311 0 157 172 173 0 +173 .019988365 -628734523935e-30 -.00513
4007 .019988365 -1e-5 -.005134007 0 999999999999937e-20 30 172 215 0 1 174 167 1
75 +.020850308 -628734523935e-30 -.005134007 0 -1 1224646799147e-28 30 173 221 0
 1 167 176 177 +.019988365 -628734523935e-30 -.005134007 0 -1 1224646799147e-28
 133 176 313 0 178 173 179 0 +179 .019988365 -5062698440203e-31 -.004134007 .019
988365 -1e-5 -.004134007 0 999999999999949e-20 141 177 167 177 177 173 16 178 5
 180 ?39 181 0 176 0 0 1 30 179 181 0 1 176 182 183 +.019988365 -5062698440203e-
31 -.004134007 0 -1 1224646799147e-28 133 182 317 0 181 179 184 0 +184 .01998836
5 -5062698440203e-31 -.004134007 .020850308 -5062698440203e-31 -.004134007 0 861
943e-9 141 183 176 183 183 179 16 181 8 185 ?95 21 178 182 0 0 1 30 184 183 0 1
 182 166 186 +.019988365 -5062698440203e-31 -.004134007 1 0 0 133 166 319 0 28 1
84 187 0 +187 .019988365 -628734523935e-30 -.005134007 .019988365 -5062698440203
e-31 -.004134007 0 .001 141 186 182 186 186 184 30 187 224 0 1 166 114 188 +.019
988365 -628734523935e-30 -.005134007 0 1224646799147e-28 1 133 114 321 0 151 187
 108 0 +108 .020850308 -628734523935e-30 -.005134007 .019988365 -628734523935e-3
0 -.005134007 0 861943e-9 141 188 166 188 188 187 81 1 185 444 34 181 0 0 189 18
0 190 17 95 0 191 94 192 23 71 181 0 0 +16 21 10 189 ?94 97 181 8 0 0 1 81 1 189
 443 34 21 0 0 99 185 193 17 94 0 191 194 95 53 75 21 0 0 +15 191 4 0 192 195 0
 17 194 0 191 192 94 50 101 97 0 39 -17 192 0 191 95 194 46 39 178 0 0 -17 101 0
 163 91 27 53 194 97 0 94 +17 39 0 37 31 49 50 192 178 0 0 +15 37 56 0 38 196 0
 17 49 0 37 39 38 46 41 28 0 71 +17 38 0 37 49 31 32 165 157 0 171 -17 41 0 65 1
97 71 32 49 28 0 38 -17 71 0 65 41 66 46 95 181 0 192 -17 197 0 65 198 41 199 17
1 151 0 200 -17 198 0 65 76 197 201 111 107 0 202 -18 199 44 203 197 42 204 205
 5e-7 1 17 171 0 170 165 200 32 197 151 0 0 +17 200 0 170 171 164 199 206 112 0
 111 -15 170 49 0 200 207 0 17 164 0 170 200 165 42 40 154 0 150 -17 206 0 208 2
09 111 42 200 112 0 0 +16 112 45 210 ?206 147 107 174 0 0 1 17 111 0 208 206 202
 199 198 107 0 0 +15 208 42 0 202 211 0 17 202 0 208 111 209 201 212 120 0 119 -
17 209 0 208 202 206 204 150 147 0 144 -18 201 37 213 198 204 214 215 5e-7 1 17
 212 0 216 217 119 204 202 120 0 0 +16 120 38 218 ?212 113 116 219 0 0 1 17 119
 0 216 212 220 201 76 116 0 0 +15 216 35 0 220 221 0 17 220 0 216 119 217 222 22
3 126 0 77 -17 76 0 65 67 198 222 119 116 0 220 -18 222 30 224 76 214 225 226 5e
-7 1 81 1 224 413 34 222 0 0 227 228 229 18 214 32 227 217 201 222 230 5e-7 1 18
 225 25 228 231 222 61 232 5e-7 1 29 226 200 0 222 232 230 .019665958 -665473927
9094e-31 -.005434007 29 232 196 0 225 233 226 .019665958 -1e-5 -.003834007 29 23
0 202 0 214 226 215 .019665958 -1e-5 -.005434007 29 215 206 0 201 230 234 .02085
0308 -6654739279094e-31 -.005434007 29 234 208 0 204 215 205 .020850308 -1e-5 -.
005434007 18 204 39 235 209 199 201 234 5e-7 1 29 205 212 0 199 234 45 .02085030
8 -628734523935e-30 -.005134007 29 45 214 0 42 205 43 .020850308 -1e-5 -.0051340
07 18 42 46 236 164 32 199 45 5e-7 1 81 1 236 408 34 42 0 0 35 203 237 80 7 CCCC
CDI12 legal_owners0 17 1 lCZ1 34 238 239 9000 0 0 0 0 3 5 0 0 0 FFTFTFTTFFFFFFFF
F2 81 1 35 407 34 32 0 0 30 236 240 81 1 203 409 34 199 0 0 236 235 241 83 255 1
 237 4483 81 1 235 410 34 204 0 0 203 213 242 83 1 241 4484 81 1 213 411 34 201
 0 0 235 227 243 83 1 242 4485 81 1 227 412 34 214 0 0 213 224 244 83 1 243 4486
 83 1 244 4487 83 1 240 4482 79 255 13 239 BTI/importTag29 233 194 0 61 0 232 .0
19665958 -4695304400459e-31 -.003834007 18 61 23 245 67 225 58 233 5e-7 1 81 1 2
45 415 34 61 0 0 228 59 246 81 1 228 414 34 225 0 0 224 245 247 81 1 59 416 34 5
8 0 0 245 62 248 83 1 246 4490 83 1 248 4491 83 1 247 4489 17 231 0 249 79 223 2
25 139 121 0 89 -15 249 28 0 79 250 0 17 79 0 249 77 231 61 81 83 0 68 -17 223 0
 249 231 77 214 220 126 0 0 +17 139 0 163 144 89 214 231 121 0 223 +17 89 0 163
 139 91 225 60 90 0 81 +15 163 62 0 101 17 0 17 91 0 163 89 101 58 56 84 0 86 +1
7 81 0 80 60 68 225 79 83 0 0 +16 83 24 251 ?81 90 69 252 0 0 1 81 1 251 437 34
 83 0 0 134 82 253 133 252 295 0 83 0 254 0 +254 .019665958 -4695304400459e-31 -
.003834007 .019665958 -1e-5 -.003834007 0 999999999999953e-20 30 254 197 0 1 252
 255 256 +.019665958 -4695304400459e-31 -.003834007 0 -1 1224646799147e-28 133 2
55 299 0 126 254 257 0 +257 .019665958 -6654739279094e-31 -.005434007 .019665958
 -1e-5 -.005434007 0 999999999999934e-20 141 256 252 256 256 254 16 126 31 258 ?
223 121 78 255 0 0 1 30 257 203 0 1 255 219 259 +.019665958 -6654739279094e-31 -
.005434007 0 -1 1224646799147e-28 133 219 303 0 120 257 260 0 +260 .020850308 -6
654739279094e-31 -.005434007 .020850308 -1e-5 -.005434007 0 999999999999934e-20
 141 259 255 259 259 257 30 260 209 0 1 219 174 261 +.020850308 -6654739279094e-
31 -.005434007 0 -1 1224646799147e-28 133 174 307 0 112 260 172 0 +172 .02085030
8 -628734523935e-30 -.005134007 .020850308 -1e-5 -.005134007 0 999999999999937e-
20 141 261 219 261 261 260 81 1 258 434 34 126 0 0 138 125 262 81 1 138 433 34 1
21 0 0 118 258 263 81 1 125 435 34 78 0 0 258 134 264 83 1 262 4509 81 1 134 436
 34 90 0 0 125 251 265 83 1 264 4510 83 1 265 4511 81 1 118 432 34 116 0 0 218 1
38 266 83 1 263 4508 81 1 218 431 34 120 0 0 143 118 267 83 1 266 4507 81 1 143
 430 34 113 0 0 110 218 268 83 1 267 4506 81 1 110 429 34 107 0 0 210 143 269 83
 1 268 4505 81 1 210 428 34 112 0 0 149 110 270 83 1 269 4504 81 1 149 427 34 14
7 0 0 168 210 271 83 1 270 4503 81 1 168 426 34 151 0 0 161 149 272 83 1 271 450
2 83 1 272 4501 81 1 82 438 34 69 0 0 251 273 274 83 1 253 4512 81 1 273 439 34
 84 0 0 82 93 275 83 1 274 4513 16 84 19 273 ?91 69 87 103 0 0 1 81 1 93 440 34
 87 0 0 273 96 276 83 1 275 4514 83 1 276 4515 17 56 0 92 75 86 53 91 84 0 101 -
14 255 17 61 277 ?72 0 163 6 20 -0 0 72 0 25 81 1 277 446 34 17 0 0 180 278 279
 14 72 59 278 ?196 17 65 6 280 +0 0 196 17 25 50 20 227 0 17 280 7 0 +.019988365
 -1e-5 -.004134007 0 1 -1224646799147e-28 1 0 0 13 25 2 0 0 0 0 0 0 10 17 50 280
 226 0 72 281 20 0 +.019988365 -5062698440203e-31 -.004134007 0 1 -1224646799147
e-28 1 0 0 50 281 223 0 196 282 280 0 +.019988365 -628734523935e-30 -.005134007
 -1 0 0 0 1224646799147e-28 1 14 196 55 283 ?207 72 37 6 281 -0 0 207 72 25 50 2
82 217 0 207 284 281 0 +.020850308 -628734523935e-30 -.005134007 0 -122464679914
7e-28 -1 -1 0 0 14 207 48 285 ?211 196 170 6 282 -0 0 211 196 25 50 284 205 0 22
1 286 282 0 +.019665958 -6654739279094e-31 -.005434007 0 1224646799147e-28 1 1 0
 0 14 221 34 287 ?250 211 216 6 284 -0 0 250 211 25 50 286 199 0 250 288 284 0 +
.019665958 -4695304400459e-31 -.003834007 1 0 0 0 -1224646799147e-28 -1 14 250 2
7 289 ?88 221 249 6 286 -0 0 88 221 25 50 288 193 0 88 290 286 0 +.020850308 -46
95304400459e-31 -.003834007 0 -1224646799147e-28 -1 -1 0 0 14 88 20 291 ?19 250
 80 6 288 -0 0 19 250 25 50 290 178 0 195 0 288 0 +.019988365 -5062698440203e-31
 -.004134007 0 1224646799147e-28 1 1 0 0 14 195 3 292 ?0 19 191 6 290 -0 0 0 19
 25 81 1 292 455 34 195 0 0 293 294 295 14 19 13 293 ?195 88 92 6 7 -211 211 195
 88 25 81 1 293 454 34 19 0 0 291 292 296 14 211 41 297 ?221 207 208 6 7 -19 19
 221 207 25 81 1 297 450 34 211 0 0 285 287 298 81 1 285 449 34 207 0 0 283 297
 299 81 1 287 451 34 221 0 0 297 289 300 83 1 298 4525 81 1 289 452 34 250 0 0 2
87 291 301 83 1 300 4526 81 1 291 453 34 88 0 0 289 293 302 83 1 301 4527 83 1 3
02 4528 81 1 283 448 34 196 0 0 278 285 303 83 1 299 4524 81 1 278 447 34 72 0 0
 277 283 304 83 1 303 4523 83 1 304 4522 83 1 296 4529 81 1 294 456 34 1 305 306
 292 0 307 83 1 295 4530 81 1 305 404 308 1 0 294 0 0 309 81 1 306 457 310 1 294
 311 0 0 312 83 1 307 4531 80 1 310 34 313 9000 0 0 0 0 3 5 0 0 0 FFTFTFTTFFFFFF
FFF2 81 1 311 510 314 1 306 14 0 0 315 83 1 312 17325 80 1 314 316 317 8040 0 0
 0 0 3 5 0 0 0 TTTFFFFFFFFFFFFFF2 81 1 14 511 318 1 311 2 0 0 319 83 3 315 1 1 1
 80 1 318 13 320 8038 0 0 0 0 0 0 0 0 0 TTTTTTTTTTTTTFTFT10 98 255 11 319 72 67
 45 48 52 80 97 100 48 48 57 79 14 320 SDL/TYSA_UNAME79 17 317 SDL/TYSA_COLOUR_2
79 18 313 BTI/importMaxCount80 1 308 321 322 9000 0 0 0 0 3 5 0 0 0 TTTFFFFFFFFF
FFFFF1 82 255 1 309 7 79 23 322 ONSHAPE_ORIGINALBODY_ID81 1 180 445 34 178 0 0 1
85 277 323 83 1 279 4521 83 1 323 4520 17 144 0 163 150 139 204 217 113 0 212 +1
7 150 0 163 40 144 42 209 147 0 206 +17 217 0 216 220 212 214 144 113 0 139 -17
 77 0 249 223 79 222 67 78 0 0 +83 1 229 4488 17 27 0 163 101 40 50 31 11 0 194
 +81 1 99 442 34 97 0 0 96 189 324 83 1 193 4518 83 1 324 4517 18 23 9 325 66 53
 50 9 ?1 81 1 325 419 34 23 0 0 55 52 326 81 1 55 418 34 53 0 0 62 325 327 81 1
 52 420 34 50 0 0 325 48 328 83 1 326 4494 81 1 48 421 34 46 0 0 52 26 329 83 1
 328 4495 81 1 26 422 34 11 0 0 48 160 330 83 1 329 4496 81 1 160 423 34 28 0 0
 26 156 331 83 1 330 4497 83 1 331 4498 83 1 327 4493 83 1 190 4519 141 175 174
 175 175 172 83 1 169 45e2 83 1 162 4499 141 115 114 115 115 108 83 1 100 4516 8
3 1 64 4492 83 1 36 4481 19 18 63 0 1 0 10 6 0 S0 74 4 CI16 index_map_offset0 0
 1 dCCZ20 16 6 0 0 305 294 306 311 14 2 0 0 0 0 0 0 0 0 0 0 0 0 0 0 80 1 13 332
 333 8017 0 0 0 0 0 0 0 0 0 TTTTTTTTTTTTTFTFT3 84 255 11 15 HC-04Pad00979 13 333
 SDL/TYSA_NAME1 0 
