**ABCDEFGHIJKLMNOPQRSTUVWXYZabcdefghijklmnopqrstuvwxyz**************************
**PARASOLID !"#$%&'()*+,-./:;<=>?@[\]^_`{|}~0123456789**************************
**PART1;
MC=unknown;
MC_MODEL=unknown;
MC_ID=unknown;
OS=unknown;
OS_RELEASE=unknown;
FRU=Parasolid 37.0.173;
APPL=Onshape;
SITE=unknown;
USER=unknown;
FORMAT=text;
GUISE=transmit;
KEY=BTGapi::writeModels_.xmt;
FILE=BTGapi::writeModels_.xmt;
DATE=2024-12-29T04:00:25 (UTC);
**PART2;
SCH=SCH_3700173_36001;
USFLD_SIZE=0;
**PART3;
**END_OF_HEADER*****************************************************************
T51 : TRANSMIT FILE created by modeller version 370017323 SCH_3700173_36001_1300
6231 0 12 36 CCCI7 lattice222 0 CCCI4 mesh1006 0 I8 polyline1008 0 CCCCCCCDI5 ow
ner1040 0 CCCI16 boundary_lattice222 0 CCCI13 boundary_mesh1006 0 I17 boundary_p
olyline1008 0 CCCA16 index_map_offset0 0 1 dA9 index_map82 0 A17 node_id_index_m
ap82 0 A20 schema_embedding_map82 0 A5 child12 0 A14 lowest_node_id0 0 1 dA16 me
sh_offset_data206 0 Z1 673 2 3 0 0 0 0 0 0 0 1e3 1e-8 0 4 5 1 0 3 2 6 0 7 8 9 0
 0 10 11 12 0 0 0 0 0 0 0 81 255 1 2 606 13 1 14 0 0 0 15 70 11 CI9 list_type0 0
 1 uI10 notransmit0 0 1 lCCCDCCDI12 finger_index0 0 1 dI12 finger_block1012 0 CZ
3 0 4 T1 0 0 5 20 1 16 16 13 255 6 2 0 1 0 17 0 0 10 17 50 255 7 172 0 17 0 0 0
 +.004545625 0 7e-4 0 -1 0 1 0 0 31 255 8 539 0 1 18 0 19 +.003894834316709745 3
81116044259012e-34 .000554833624716114 549243417094565e-31 1 -270687300115373e-3
1 .965097897125142 -60096379687981e-30 -.261889383069701 .000634174714413343 29
 255 9 234 0 12 20 0 .004219375 0 .001096875 19 9 CCCCCCI5 frame230 0 CA5 owner1
2 0 Z10 1 0 1 0 0 6 0 V0 16 255 11 69 21 ?22 0 23 24 0 0 1 18 255 12 68 25 22 0
 26 9 5e-7 1 81 1 25 540 27 12 0 0 0 28 29 17 255 22 0 0 0 0 12 30 11 0 31 +18 2
6 66 28 32 12 33 20 5e-7 1 81 1 28 541 27 26 0 0 25 34 35 17 32 0 0 0 0 26 31 23
 0 36 +18 33 64 34 37 26 38 39 5e-7 1 29 20 232 0 26 39 9 .004134375 0 .00117687
5 29 39 230 0 33 40 20 .004035 0 .0012 29 40 228 0 38 41 39 .00393625 0 .0011768
75 18 38 62 42 43 33 44 40 5e-7 1 29 41 226 0 44 45 40 .0038525 0 .001096875 18
 44 60 46 47 38 48 41 5e-7 1 29 45 224 0 48 49 41 .003794375 0 943125e-9 18 48 5
8 50 51 44 52 45 5e-7 1 29 49 222 0 52 53 45 .0037725 0 7e-4 18 52 56 54 55 48 5
6 49 5e-7 1 29 53 220 0 56 57 49 .003794375 0 45625e-8 18 56 54 58 59 52 60 53 5
e-7 1 29 57 218 0 60 61 53 .0038525 0 3025e-7 18 60 52 62 63 56 64 57 5e-7 1 29
 61 216 0 64 65 57 .00393625 0 2225e-7 18 64 50 66 67 60 68 61 5e-7 1 29 65 214
 0 68 69 61 .004035 0 2e-4 18 68 48 70 71 64 72 65 5e-7 1 29 69 212 0 72 73 65 .
004134375 0 2225e-7 18 72 46 74 75 68 76 69 5e-7 1 29 73 210 0 76 77 69 .0042193
75 0 3025e-7 18 76 44 78 79 72 80 73 5e-7 1 29 77 208 0 80 81 73 .00427875 0 456
25e-8 18 80 42 82 83 76 84 77 5e-7 1 29 81 206 0 84 85 77 .00427875 0 943125e-9
 18 84 40 86 30 80 87 81 5e-7 1 29 85 205 0 87 88 81 .004300625 0 7e-4 18 87 39
 89 90 84 91 85 5e-7 1 29 88 202 0 91 92 85 .004399375 0 170625e-9 18 91 35 93 9
4 87 95 88 5e-7 1 29 92 200 0 95 96 88 .004236875 0 41875e-9 18 95 33 97 98 91 9
9 92 5e-7 1 29 96 198 0 99 100 92 .004035 0 0 18 99 31 101 102 95 103 96 5e-7 1
 29 100 196 0 103 104 96 .00383375 0 41875e-9 18 103 29 105 106 99 107 100 5e-7
 1 29 104 194 0 107 108 100 .003673125 0 170625e-9 18 107 27 109 110 103 111 104
 5e-7 1 29 108 192 0 111 112 104 .00356625 0 38875e-8 18 111 25 113 114 107 115
 108 5e-7 1 29 112 190 0 115 116 108 .003528125 0 7e-4 18 115 23 117 118 111 119
 112 5e-7 1 29 116 188 0 119 120 112 .00356625 0 .00101125 18 119 21 121 122 115
 123 116 5e-7 1 29 120 186 0 123 124 116 .003673125 0 .001229375 18 123 19 125 1
26 119 127 120 5e-7 1 29 124 184 0 127 128 120 .00383375 0 .0013575 18 127 17 12
9 130 123 131 124 5e-7 1 29 128 182 0 131 132 124 .004035 0 .0014 18 131 15 133
 134 127 135 128 5e-7 1 29 132 180 0 135 136 128 .004236875 0 .0013575 18 135 13
 137 138 131 139 132 5e-7 1 29 136 178 0 139 140 132 .004399375 0 .001229375 18
 139 11 141 142 135 143 136 5e-7 1 29 140 176 0 143 144 136 .004506875 0 .001011
25 18 143 9 145 146 139 147 140 5e-7 1 29 144 174 0 147 148 140 .004506875 0 388
75e-8 18 147 7 149 150 143 151 144 5e-7 1 29 148 173 0 151 0 144 .004545625 0 7e
-4 18 151 6 152 153 147 0 148 5e-7 1 81 1 152 571 27 151 0 0 149 21 154 17 153 0
 0 0 0 151 155 156 0 157 +17 155 0 158 159 157 143 153 156 0 0 -16 156 8 160 ?15
3 161 162 163 0 0 1 17 157 0 158 155 150 151 164 162 0 0 -15 255 158 4 0 157 17
 0 17 150 0 158 157 165 147 94 166 0 164 -17 164 0 0 0 0 147 157 162 0 0 +16 162
 5 167 ?164 156 0 168 0 0 1 81 1 167 603 27 162 0 0 160 169 170 133 255 168 478
 0 162 171 172 0 +172 .004545625 1203706215242022e-50 7e-4 .004506875 0 38875e-8
 520446948950802e-48 .2813118436876505 31 171 475 0 1 24 168 173 +.0038159942745
44575 2842644399998915e-35 .000852758205616808 -571209599490386e-31 -1 -22058907
2973928e-31 .981461480976836 -602898209410091e-31 .1916594932654155 .00047149657
3655496 31 172 479 0 1 168 163 174 +.003427132791083775 678210913753694e-34 .000
681212885447404 607632431495626e-31 1 -756490175757618e-32 .999858963227853 -606
276249105614e-31 .01679445304031485 .001118649979698526 133 163 482 0 156 172 17
5 0 +175 .004506875 -1203706215242022e-50 .00101125 .004545625 0 7e-4 0 .2833124
104527605 141 255 174 168 174 174 172 31 175 483 0 1 163 176 177 +.0034349977257
60495 673357851231844e-34 .000719766283126806 607632431495626e-31 1 756490175757
618e-32 .964956995140259 -606190078280917e-31 .2624080744372815 .001110803154583
802 133 176 486 0 161 175 178 0 +178 .004399375 601853107621011e-50 .001229375 .
004506875 601853107621011e-50 .00101125 705523832014384e-48 .385842300210607 141
 177 163 177 177 175 16 161 10 179 ?146 180 156 176 0 0 1 31 178 487 0 1 176 181
 182 +.00389483431670979 3811160442589815e-35 .000845166375283908 54924341709456
5e-31 1 270687300115373e-31 .795586250639125 -600963796879808e-31 .6058403401837
65 .000634174714413295 133 181 490 0 180 178 183 0 +183 .004236875 6018531076210
11e-50 .0013575 .004399375 -3009265538105055e-51 .001229375 0 .483060749172909 1
41 182 176 182 182 178 16 180 12 184 ?142 185 161 181 0 0 1 31 183 491 0 1 181 1
86 187 +.004058067059660285 2571887198721155e-35 .00096360791713012 379122809388
097e-31 1 480838685077585e-31 .4133547397706655 -594549527122299e-31 .9105700736
95114 .0004325774525747995 133 186 494 0 185 183 188 0 +188 .004035 601853107621
011e-50 .0014 .004236875 601853107621011e-50 .0013575 0 .4295432073351565 141 18
7 181 187 187 183 16 185 14 189 ?138 190 180 186 0 0 1 31 188 495 0 1 186 191 19
2 +.004038521181118245 289549790125476e-34 .00091602248531166 126145038104248e-3
1 1 599188930995177e-31 -.00727531305024166 -598255328554412e-31 .99997353455980
1 .000483990323705309 133 191 498 0 190 188 193 0 +193 .00383375 -60185310762101
1e-50 .0013575 .004035 -601853107621011e-50 .0014 1704464100147755e-31 .43455946
11416755 141 192 186 192 192 188 16 190 16 194 ?134 195 185 191 0 0 1 31 193 499
 0 1 191 196 197 +.004030631264270335 2852536525548075e-35 .000922948278014 -126
5200924589244e-32 1 599109849584907e-31 -.4126869267948275 -597926134140436e-31
 .91087293320893 .000477071725531585 133 196 502 0 195 193 198 0 +198 .003673125
 -3009265538105055e-51 .001229375 .00383375 -150463276905253e-49 .0013575 0 .482
332139000684 141 197 191 197 197 193 16 195 18 199 ?130 200 190 196 0 0 1 31 198
 503 0 1 196 201 202 +.004013903976014775 2557640157359995e-35 .0009669014788497
7 -3818335667104115e-32 1 478688910461346e-31 -.792246508076188 -594602844130865
e-31 .61020117210727 .000430142604026477 133 201 506 0 200 198 203 0 +203 .00356
625 601853107621011e-50 .00101125 .003673125 0 .001229375 697455464475424e-48 .3
812013226540805 141 202 196 202 202 198 16 200 20 204 ?126 205 195 201 0 0 1 31
 203 507 0 1 201 206 207 +.00418494573740202 3854350390535795e-35 .0008433521601
84111 -549866699558177e-31 1 269418927290683e-31 -.965094625984014 -601234601063
433e-31 .2619014373705795 .000641072616865101 133 206 510 0 205 203 208 0 +208 .
003528125 1203706215242022e-50 7e-4 .00356625 0 .00101125 516106475520121e-48 .2
789026570452255 141 207 201 207 207 203 16 205 22 209 ?122 210 200 206 0 0 1 31
 208 511 0 1 206 211 212 +.00465592482935516 683979929049394e-34 .00071981580905
489 -607780866616152e-31 1 744470539429423e-32 -.999845677577671 -60637921536212
5e-31 -.01756761307772585 .001127973901019888 133 211 514 0 210 208 213 0 +213 .
00356625 -1203706215242022e-50 38875e-8 .003528125 -1203706215242022e-50 7e-4 0
 .2769327667692135 141 212 206 212 212 208 16 210 24 214 ?118 215 205 211 0 0 1
 31 213 515 0 1 211 216 217 +.00466391436451396 68890867235619e-33 .000681162828
785846 -607780866616152e-31 1 -744470539429423e-32 -.966300147952621 -6064627526
81596e-31 -.257417994838635 .001135945561883302 133 216 518 0 215 213 218 0 +218
 .003673125 0 170625e-9 .00356625 0 38875e-8 0 .3812013262490665 141 217 211 217
 217 213 16 215 26 219 ?114 220 210 216 0 0 1 31 218 519 0 1 216 221 222 +.00418
494573193992 385435035329117e-34 .000556647837139618 -549866699558177e-31 1 -269
418927290683e-31 -.798381841999414 -601234600854916e-31 -.602151504495025 .00064
1072610892742 133 221 522 0 220 218 223 0 +223 .00383375 0 41875e-9 .003673125 0
 170625e-9 860017999693608e-48 .476587624279215 141 222 216 222 222 218 16 220 2
8 224 ?110 225 215 221 0 0 1 31 223 523 0 1 221 226 227 +.00401845434163332 2594
60921547037e-34 .000436877807280401 -3829686552023415e-32 1 -477781283432048e-31
 -.4235815489313995 -595020442206205e-31 -.905857975294625 .0004360537943621115
 133 226 526 0 225 223 228 0 +228 .004035 -601853107621011e-50 -1084202172485504
e-34 .00383375 -1203706215242022e-50 41875e-9 175328880421299e-32 .4287700941552
4 141 227 221 227 227 223 16 225 30 229 ?106 230 220 226 0 0 1 31 228 527 0 1 22
6 231 232 +.004030537227650605 2890480247834485e-35 .000483090295574548 -1247372
661944316e-32 1 -599483577829955e-31 .00923757313255665 -5983057298721e-29 -.999
957332711062 .000483110908607275 133 231 530 0 230 228 233 0 +233 .004236875 120
3706215242022e-50 41875e-9 .004035 601853107621011e-50 0 0 .423815408259847 141
 232 226 232 232 228 16 230 32 234 ?102 235 225 231 0 0 1 31 233 531 0 1 231 236
 237 +.00403861607773943 293403216286292e-34 .000490113908808429 124367037404454
8e-32 1 -599560493755804e-31 .4045049992775245 -598626616339235e-31 -.9145357869
21152 .000490127248401571 133 236 534 0 235 233 238 0 +238 .004399375 0 170625e-
9 .004236875 -3009265538105055e-51 41875e-9 0 .477359737341011 141 237 231 237 2
37 233 16 235 34 239 ?98 166 230 236 0 0 1 31 238 535 0 1 236 18 240 +.004053553
49548256 260869977065229e-34 .000440175199876377 380260030856653e-31 1 -47993984
4770532e-31 .788713040201417 -594964598848467e-31 -.614761531177934 .00043846302
3800296 133 18 538 0 166 238 8 0 +8 .004506875 0 38875e-8 .004399375 0 170625e-9
 4274067334458725e-32 .385842300210577 141 240 236 240 240 238 16 166 36 241 ?94
 242 235 18 0 0 1 81 1 241 588 27 166 0 0 243 239 244 17 94 0 0 0 0 91 150 166 0
 165 +16 242 38 243 ?245 246 166 247 0 0 1 81 1 243 587 27 242 0 0 248 241 249 1
7 245 0 0 0 0 84 250 242 0 0 +16 246 41 248 ?90 251 242 252 0 0 1 133 247 414 0
 242 0 253 0 +253 .004300625 361111864572607e-49 7e-4 .00427875 2407412430484045
e-50 943125e-9 4017442384263005e-49 .2159729870513605 31 253 415 0 1 247 252 254
 +.00316834712206067 689396584812082e-34 .000720670692216255 -60985985373233e-30
 -1 -548717092047088e-32 .999833403657613 -608756690642976e-31 -.018252806097519
15 .001132466542723222 133 252 418 0 246 253 255 0 +255 .00427875 24074124304840
45e-50 45625e-8 .004300625 1203706215242022e-50 7e-4 3997077113e-43 .21486096341
116 141 254 247 254 254 253 31 255 419 0 1 252 256 257 +.003159600663685455 6947
59592609056e-34 .000679543049412845 -609872395448104e-31 -1 547321380530354e-32
 .980671031861086 -608793290109959e-31 -.1956638118521455 .001141207703658444 13
3 256 422 0 251 255 258 0 +258 .004219375 -2407412430484045e-50 3025e-7 .0042787
5 -2407412430484045e-50 45625e-8 0 .34588065430486 141 257 252 257 257 255 16 25
1 43 259 ?83 260 246 256 0 0 1 31 258 423 0 1 256 261 262 +.0038089854680862 288
864995584088e-34 .000549323447283783 -571209599490386e-31 -1 220589072973928e-31
 .856949168577477 -603189405544866e-31 -.515400933715074 .000478896003359267 133
 261 426 0 260 258 263 0 +263 .004134375 601853107621011e-50 2225e-7 .004219375
 -150463276905253e-50 3025e-7 0 .548907509565102 141 262 256 262 262 258 16 260
 45 264 ?79 265 251 261 0 0 1 31 263 427 0 1 261 266 267 +.004034808848806635 12
69257503185684e-35 .0004134452856429485 -4196648424425255e-32 -1 445893895095183
5e-32 .46235619984508 -589406207595684e-31 -.886694279030161 .000215345119686346
5 133 266 430 0 265 263 268 0 +268 .004035 -3009265538105055e-51 2e-4 .004134375
 -902779661431517e-50 2225e-7 810430942122603e-48 .4470408397202275 141 267 261
 267 267 263 16 265 47 269 ?75 270 260 266 0 0 1 31 268 431 0 1 266 271 272 +.00
403519753474298 1372298164387414e-35 .0004298306798851655 -135216714311758e-31 -
1 597207154876929e-31 -.000859479117931457 -597090718354779e-31 -.99999963064775
5 .0002298307647736745 133 271 434 0 270 268 273 0 +273 .00393625 60185310762101
1e-50 2225e-7 .004035 3009265538105055e-51 2e-4 0 .4469910312852165 141 272 266
 272 272 268 16 270 49 274 ?71 275 265 271 0 0 1 31 273 435 0 1 271 276 277 +.00
403512066799385 1364246681472686e-35 .000428480987306335 1360304065263054e-32 -1
 597022339754345e-31 -.432730335118205 -597094098417848e-31 -.901523409051859 .0
002284810191706135 133 276 438 0 275 273 278 0 +278 .0038525 150463276905253e-50
 3025e-7 .00393625 -601853107621011e-50 2225e-7 -888178419700125e-30 .5512864244
05574 141 277 271 277 277 273 16 275 51 279 ?67 280 270 276 0 0 1 31 278 439 0 1
 276 281 282 +.004035796133224915 1253676094858136e-35 .0004105502488448305 4229
51607873623e-31 -1 442777464492697e-31 -.861463509602022 -589208397132656e-31 -.
507819477397398 .000212772951125454 133 281 442 0 280 278 283 0 +283 .003794375
 -601853107621011e-50 45625e-8 .0038525 0 3025e-7 0 .3301111088788715 141 282 27
6 282 282 278 16 280 53 284 ?63 285 275 281 0 0 1 31 283 443 0 1 281 286 287 +.0
0428495252474268 302116735806743e-34 .00055385019228077 572760121476707e-31 -1 2
16531265436316e-31 -.980778296398821 -604001452397419e-31 -.1951254296933805 .00
0500192068425619 133 286 446 0 285 283 288 0 +288 .0037725 -1203706215242022e-50
 7e-4 .003794375 -1203706215242022e-50 45625e-8 593780041644596e-32 .21486096341
11615 141 287 281 287 287 283 16 285 55 289 ?59 290 280 286 0 0 1 31 288 447 0 1
 286 291 292 +.00491352433631454 694759592609051e-34 .000679543049412844 6098723
95448104e-31 -1 547321380530354e-32 -.999839321673602 -608793290109959e-31 .0179
257032015958 .001141207703658436 133 291 450 0 290 288 293 0 +293 .003794375 0 9
43125e-9 .0037725 0 7e-4 4017442384262955e-49 .215972987051358 141 292 286 292 2
92 288 16 290 57 294 ?55 295 285 291 0 0 1 31 293 451 0 1 291 296 297 +.00490477
787793934 689396584812091e-34 .000720670692216254 60985985373233e-30 -1 -5487170
92047088e-32 -.980517159711546 -608756690642976e-31 .1964334480459015 .001132466
542723238 133 296 454 0 295 293 298 0 +298 .0038525 601853107621011e-50 .0010968
75 .003794375 1203706215242022e-50 943125e-9 0 .335514521425299 141 297 291 297
 297 293 16 295 59 299 ?51 300 290 296 0 0 1 31 298 455 0 1 296 301 302 +.004277
382035782815 2971609460915725e-35 .000848386821838205 572760121476707e-31 -1 -21
6531265436316e-31 -.863212154193412 -603727432121844e-31 .504841338296271 .00049
2210441800167 133 301 458 0 300 298 303 0 +303 .00393625 -451389830715758e-50 .0
01176875 .0038525 -451389830715758e-50 .001096875 0 .566566108928363 141 302 296
 302 302 298 16 300 61 304 ?47 305 295 301 0 0 1 31 303 459 0 1 301 306 307 +.00
4031779057053265 1218065346642676e-35 .000993030127772362 422951607873623e-31 -1
 -442777464492697e-31 -.461085712932165 -587918007440958e-31 .887355602523496 .0
00207182860743554 133 306 462 0 305 303 308 0 +308 .004035 601853107621011e-50 .
0012 .00393625 -451389830715758e-50 .001176875 0 .458000086047537 141 307 301 30
7 307 303 16 305 63 309 ?43 310 300 306 0 0 1 31 308 463 0 1 306 311 312 +.00403
5230551420045 133216979737296e-34 .000976608388530626 1396151060534e-29 -1 -5961
94236660472e-31 -.001032049931249266 -596338008909684e-31 .999999467436328 .0002
23391730439694 133 311 466 0 310 308 313 0 +313 .004134375 -1805559322863035e-50
 .001176875 .004035 -752316384526264e-50 .0012 4221950803966855e-31 .45806489450
9348 141 312 306 312 312 308 16 310 65 314 ?37 23 305 311 0 0 1 31 313 467 0 1 3
11 315 316 +.004035089218454135 133996781856544e-34 .000975298938762355 -1387822
65739911e-31 -1 -596388655476914e-31 .441857164237278 -596333504417267e-31 .8970
85417567464 .0002247010789499155 133 315 470 0 23 313 317 0 +317 .004219375 -150
463276905253e-50 .001096875 .004134375 -902779661431517e-50 .001176875 0 .564174
550432353 141 316 311 316 316 313 16 23 67 318 ?32 11 310 315 0 0 1 31 317 471 0
 1 315 24 319 +.00403885618221337 123309752946048e-34 .000990230006101707 -41966
48424425255e-32 -1 -4458938950951835e-32 .860979199232591 -588122244820735e-31 .
508640166019954 .00020966687458597 133 24 474 0 11 317 171 0 +171 .00427875 -180
5559322863035e-50 943125e-9 .004219375 -1805559322863035e-50 .001096875 64523333
4985784e-48 .351364821666938 141 319 315 319 319 317 81 1 318 573 27 23 0 0 21 3
14 320 80 7 CCCCCDI12 legal_owners0 17 1 lCZ1 27 321 322 9000 0 0 0 0 3 5 0 0 0
 FFTFTFTTFFFFFFFFF2 81 1 21 572 27 11 0 0 152 318 323 81 1 314 574 27 310 0 0 31
8 309 324 83 255 1 320 6411 81 1 309 575 27 305 0 0 314 304 325 83 1 324 6412 81
 1 304 576 27 300 0 0 309 299 326 83 1 325 6413 81 1 299 577 27 295 0 0 304 294
 327 83 1 326 6414 81 1 294 578 27 290 0 0 299 289 328 83 1 327 6415 81 1 289 57
9 27 285 0 0 294 284 329 83 1 328 6416 81 1 284 580 27 280 0 0 289 279 330 83 1
 329 6417 81 1 279 581 27 275 0 0 284 274 331 83 1 330 6418 81 1 274 582 27 270
 0 0 279 269 332 83 1 331 6419 81 1 269 583 27 265 0 0 274 264 333 83 1 332 6420
 81 1 264 584 27 260 0 0 269 259 334 83 1 333 6421 81 1 259 585 27 251 0 0 264 2
48 335 83 1 334 6422 81 1 248 586 27 246 0 0 259 243 336 83 1 335 6423 83 1 336
 6424 83 1 323 6410 79 255 13 322 BTI/importTag17 37 0 0 0 0 33 36 310 0 337 +17
 36 0 338 31 337 26 37 310 0 0 -17 337 0 338 36 339 33 43 305 0 0 -15 338 37 0 2
50 17 158 17 339 0 338 337 340 38 47 300 0 0 -17 43 0 0 0 0 38 337 305 0 339 +17
 340 0 338 339 341 44 51 295 0 0 -17 47 0 0 0 0 44 339 300 0 340 +17 341 0 338 3
40 342 48 55 290 0 0 -17 51 0 0 0 0 48 340 295 0 341 +17 342 0 338 341 343 52 59
 285 0 0 -17 55 0 0 0 0 52 341 290 0 342 +17 343 0 338 342 344 56 63 280 0 0 -17
 59 0 0 0 0 56 342 285 0 343 +17 344 0 338 343 345 60 67 275 0 0 -17 63 0 0 0 0
 60 343 280 0 344 +17 345 0 338 344 346 64 71 270 0 0 -17 67 0 0 0 0 64 344 275
 0 345 +17 346 0 338 345 347 68 75 265 0 0 -17 71 0 0 0 0 68 345 270 0 346 +17 3
47 0 338 346 348 72 79 260 0 0 -17 75 0 0 0 0 72 346 265 0 347 +17 348 0 338 347
 349 76 83 251 0 0 -17 79 0 0 0 0 76 347 260 0 348 +17 349 0 338 348 250 80 90 2
46 0 0 -17 83 0 0 0 0 80 348 251 0 349 +17 250 0 338 349 30 87 245 242 0 0 -17 9
0 0 0 0 0 87 349 246 0 250 +17 30 0 338 250 31 84 22 11 0 245 -17 31 0 338 30 36
 12 32 23 0 0 -14 255 17 3 169 ?0 0 338 6 7 +0 0 0 0 6 81 1 169 604 27 17 0 0 16
7 14 350 81 1 14 605 27 1 351 2 169 0 352 83 1 350 6442 81 1 351 410 353 1 354 1
4 0 0 355 83 1 352 6443 80 1 353 356 357 9000 0 0 0 0 3 5 0 0 0 TTTFFFFFFFFFFFFF
F1 81 1 354 307 358 1 359 351 0 0 360 82 255 1 355 33 80 1 358 361 362 8038 0 0
 0 0 0 0 0 0 0 TTTTTTTTTTTTTFTFT10 81 1 359 306 361 1 0 354 0 0 363 98 255 19 36
0 72 67 45 48 52 83 104 97 112 101 83 116 114 105 110 103 48 48 54 80 1 361 364
 365 8017 0 0 0 0 0 0 0 0 0 TTTTTTTTTTTTTFTFT3 84 255 19 363 HC-04ShapeString006
79 13 365 SDL/TYSA_NAME79 14 362 SDL/TYSA_UNAME79 23 357 ONSHAPE_ORIGINALBODY_ID
83 1 249 6425 17 165 0 158 150 366 91 98 235 0 0 -17 366 0 158 165 367 95 102 23
0 0 0 -17 98 0 0 0 0 95 165 235 0 366 +17 367 0 158 366 368 99 106 225 0 0 -17 1
02 0 0 0 0 99 366 230 0 367 +17 368 0 158 367 369 103 110 220 0 0 -17 106 0 0 0
 0 103 367 225 0 368 +17 369 0 158 368 370 107 114 215 0 0 -17 110 0 0 0 0 107 3
68 220 0 369 +17 370 0 158 369 371 111 118 210 0 0 -17 114 0 0 0 0 111 369 215 0
 370 +17 371 0 158 370 372 115 122 205 0 0 -17 118 0 0 0 0 115 370 210 0 371 +17
 372 0 158 371 373 119 126 200 0 0 -17 122 0 0 0 0 119 371 205 0 372 +17 373 0 1
58 372 374 123 130 195 0 0 -17 126 0 0 0 0 123 372 200 0 373 +17 374 0 158 373 3
75 127 134 190 0 0 -17 130 0 0 0 0 127 373 195 0 374 +17 375 0 158 374 376 131 1
38 185 0 0 -17 134 0 0 0 0 131 374 190 0 375 +17 376 0 158 375 159 135 142 180 0
 0 -17 138 0 0 0 0 135 375 185 0 376 +17 159 0 158 376 155 139 146 161 0 0 -17 1
42 0 0 0 0 139 376 180 0 159 +17 146 0 0 0 0 143 159 161 0 155 +81 1 239 589 27
 235 0 0 241 234 377 83 1 244 6426 81 1 234 590 27 230 0 0 239 229 378 83 1 377
 6427 81 1 229 591 27 225 0 0 234 224 379 83 1 378 6428 81 1 224 592 27 220 0 0
 229 219 380 83 1 379 6429 81 1 219 593 27 215 0 0 224 214 381 83 1 380 6430 81
 1 214 594 27 210 0 0 219 209 382 83 1 381 6431 81 1 209 595 27 205 0 0 214 204
 383 83 1 382 6432 81 1 204 596 27 200 0 0 209 199 384 83 1 383 6433 81 1 199 59
7 27 195 0 0 204 194 385 83 1 384 6434 81 1 194 598 27 190 0 0 199 189 386 83 1
 385 6435 81 1 189 599 27 185 0 0 194 184 387 83 1 386 6436 81 1 184 600 27 180
 0 0 189 179 388 83 1 387 6437 81 1 179 601 27 161 0 0 184 160 389 83 1 388 6438
 81 1 160 602 27 156 0 0 179 167 390 83 1 389 6439 83 1 390 6440 141 173 24 173
 173 171 83 1 170 6441 81 1 149 570 27 147 0 0 145 152 391 83 1 154 6409 81 1 14
5 569 27 143 0 0 141 149 392 83 1 391 6408 81 1 141 568 27 139 0 0 137 145 393 8
3 1 392 6407 81 1 137 567 27 135 0 0 133 141 394 83 1 393 6406 81 1 133 566 27 1
31 0 0 129 137 395 83 1 394 6405 81 1 129 565 27 127 0 0 125 133 396 83 1 395 64
04 81 1 125 564 27 123 0 0 121 129 397 83 1 396 6403 81 1 121 563 27 119 0 0 117
 125 398 83 1 397 6402 81 1 117 562 27 115 0 0 113 121 399 83 1 398 6401 81 1 11
3 561 27 111 0 0 109 117 400 83 1 399 64e2 81 1 109 560 27 107 0 0 105 113 401 8
3 1 400 6399 81 1 105 559 27 103 0 0 101 109 402 83 1 401 6398 81 1 101 558 27 9
9 0 0 97 105 403 83 1 402 6397 81 1 97 557 27 95 0 0 93 101 404 83 1 403 6396 81
 1 93 556 27 91 0 0 89 97 405 83 1 404 6395 81 1 89 555 27 87 0 0 86 93 406 83 1
 405 6394 81 1 86 554 27 84 0 0 82 89 407 83 1 406 6393 81 1 82 553 27 80 0 0 78
 86 408 83 1 407 6392 81 1 78 552 27 76 0 0 74 82 409 83 1 408 6391 81 1 74 551
 27 72 0 0 70 78 410 83 1 409 6390 81 1 70 550 27 68 0 0 66 74 411 83 1 410 6389
 81 1 66 549 27 64 0 0 62 70 412 83 1 411 6388 81 1 62 548 27 60 0 0 58 66 413 8
3 1 412 6387 81 1 58 547 27 56 0 0 54 62 414 83 1 413 6386 81 1 54 546 27 52 0 0
 50 58 415 83 1 414 6385 81 1 50 545 27 48 0 0 46 54 416 83 1 415 6384 81 1 46 5
44 27 44 0 0 42 50 417 83 1 416 6383 81 1 42 543 27 38 0 0 34 46 418 83 1 417 63
82 81 1 34 542 27 33 0 0 28 42 419 83 1 418 6381 83 1 419 6380 83 1 35 6379 83 1
 29 6378 141 19 18 19 19 8 74 4 CI16 index_map_offset0 0 1 dCCZ20 16 5 0 0 359 3
54 351 14 2 0 0 0 0 0 0 0 0 0 0 0 0 0 0 0 80 1 13 27 420 9000 0 0 0 0 3 5 0 0 0
 FFTFTFTTFFFFFFFFF2 83 1 15 17325 79 18 420 BTI/importMaxCount1 0 
