**ABCDEFGHIJKLMNOPQRSTUVWXYZabcdefghijklmnopqrstuvwxyz**************************
**PARASOLID !"#$%&'()*+,-./:;<=>?@[\]^_`{|}~0123456789**************************
**PART1;
MC=unknown;
MC_MODEL=unknown;
MC_ID=unknown;
OS=unknown;
OS_RELEASE=unknown;
FRU=Parasolid 37.0.173;
APPL=Onshape;
SITE=unknown;
USER=unknown;
FORMAT=text;
GUISE=transmit;
KEY=BTGapi::writeModels_.xmt;
FILE=BTGapi::writeModels_.xmt;
DATE=2024-12-29T04:00:26 (UTC);
**PART2;
SCH=SCH_3700173_36001;
USFLD_SIZE=0;
**PART3;
**END_OF_HEADER*****************************************************************
T51 : TRANSMIT FILE created by modeller version 370017323 SCH_3700173_36001_1300
6231 0 12 36 CCCI7 lattice222 0 CCCI4 mesh1006 0 I8 polyline1008 0 CCCCCCCDI5 ow
ner1040 0 CCCI16 boundary_lattice222 0 CCCI13 boundary_mesh1006 0 I17 boundary_p
olyline1008 0 CCCA16 index_map_offset0 0 1 dA9 index_map82 0 A17 node_id_index_m
ap82 0 A20 schema_embedding_map82 0 A5 child12 0 A14 lowest_node_id0 0 1 dA16 me
sh_offset_data206 0 Z1 1031 2 3 0 0 0 0 0 0 0 1e3 1e-8 0 4 5 1 0 1 2 6 0 7 8 9 0
 0 10 11 12 0 0 0 0 0 0 0 81 255 1 2 1031 13 1 14 0 0 0 15 70 11 CI9 list_type0
 0 1 uI10 notransmit0 0 1 lCCCDCCDI12 finger_index0 0 1 dI12 finger_block1012 0
 CZ3 0 4 T1 0 0 6 20 1 16 16 13 255 6 116 0 1 0 17 0 0 18 0 50 255 7 730 0 19 20
 0 0 +-.02042446875611 .000523945311339 74354e-8 444448113838e-27 8659487671686e
-29 -1 .0035589075122676 .999993667068607 88176078048598e-30 30 255 8 856 0 21 2
2 0 0 +-.021515 8144199999999e-17 74354e-8 .999999828481103 -.00058569425854986
 444397319484637e-30 29 255 9 783 0 23 24 0 -.02080775081018955 .000406010519843
952 74354e-8 19 9 CCCCCCI5 frame230 0 CA5 owner12 0 Z10 1 0 1 18 0 25 0 V0 16 25
5 11 110 26 ?27 0 28 29 0 0 1 18 255 12 106 30 31 0 32 33 5e-7 1 81 1 30 877 34
 12 0 0 0 35 36 17 255 31 0 37 38 39 12 27 11 0 40 -18 32 101 35 38 12 41 42 5e-
7 1 29 33 405 0 12 42 43 -.02012009697365 .000484445980128 17781e-8 29 42 401 0
 32 44 33 -.0201198248062 .000560920495817 17781e-8 29 43 395 0 45 33 46 -.02012
009697365 .000484445980128 74354e-8 18 45 94 47 27 41 48 43 5e-7 1 29 46 676 0 4
9 43 50 -.02072884053857 .000563444642548842 17781e-8 18 49 81 51 52 48 53 46 ?1
 29 50 677 0 54 46 55 -.02088422579704205 .000405420818359535 17781e-8 18 54 61
 56 57 58 59 50 ?1 29 55 678 0 60 50 61 -.02088422579689845 .000247495079387985
 17781e-8 18 60 41 62 63 64 65 55 ?1 29 61 679 0 66 55 67 -.02105392955453 81171
9536411983e-19 17781e-8 18 66 16 68 69 70 71 61 ?1 29 67 680 0 70 61 72 -.021515
 814419999999967e-19 17781e-8 18 70 18 73 74 75 66 67 ?1 29 72 681 0 76 67 77 -.
021515 496699999999767e-20 17781e-8 18 76 25 78 79 80 75 72 ?1 29 77 682 0 75 72
 81 -.02105392955453 469695364111246e-20 17781e-8 18 75 23 82 83 76 70 77 ?1 29
 81 683 0 64 77 84 -.0208077508100103 .000247539870356713 17781e-8 18 64 46 85 8
6 23 60 81 ?1 29 84 686 0 80 81 87 -.02080775081001015 .000247539870357001 74354
e-8 18 80 34 88 89 65 76 84 ?1 29 87 687 0 90 84 91 -.02105392955453 46969536411
1442e-20 74354e-8 18 90 7 92 93 94 95 87 ?1 29 91 688 0 95 87 96 -.021515 496699
999999832e-20 74354e-8 18 95 6 97 98 90 0 91 ?1 29 96 689 0 71 91 99 -.021515 81
4419999999967e-19 74354e-8 18 71 11 100 101 66 94 96 ?1 29 99 690 0 94 96 102 -.
02105392955453 811719536411983e-19 74354e-8 18 94 9 103 104 71 90 99 ?1 29 102 6
91 0 65 99 105 -.0208842257968969 .0002474950793882885 74354e-8 18 65 36 106 107
 60 80 102 ?1 29 105 692 0 59 102 108 -.02088422579704205 .0004054208183592195 7
4354e-8 18 59 56 109 110 54 23 105 ?1 29 108 693 0 53 105 111 -.020728840538569
 .00056344464254869 74354e-8 18 53 76 112 113 49 114 108 ?1 29 111 760 0 114 108
 115 -.0207285517892501 .000486967802065742 74354e-8 18 114 74 116 117 53 58 111
 11560137463358e-19 1 29 115 761 0 48 111 24 -.02072855178925085 .00048696780206
5732 17781e-8 18 48 86 118 119 45 49 115 1156013747160086e-21 1 29 24 782 0 58 1
15 9 -.02080775081018955 .0004060105198441095 17781e-8 18 58 66 120 121 114 54 2
4 1044910516332164e-21 1 81 1 120 885 34 58 0 0 116 56 122 17 121 0 123 86 119 5
8 124 125 0 126 -15 255 123 21 0 127 128 0 17 86 0 123 83 121 64 129 130 0 131 -
17 119 0 123 121 132 48 40 28 0 133 -17 124 0 134 135 126 48 121 125 0 0 +16 125
 87 136 ?124 137 138 139 0 0 1 17 126 0 134 124 140 58 141 142 0 129 -15 134 89
 0 124 143 0 17 140 0 134 126 135 23 144 145 0 141 -17 141 0 146 89 129 23 126 1
42 0 147 +16 142 70 148 ?141 145 130 149 0 0 1 17 129 0 146 141 131 58 86 130 0
 0 +15 146 69 0 129 150 0 17 131 0 146 129 89 64 151 152 0 153 -16 130 67 154 ?1
29 142 155 156 0 0 1 81 1 154 916 34 130 0 0 148 157 158 16 155 62 157 ?159 130
 160 161 0 0 1 133 255 156 801 0 130 162 163 0 +163 -.02080775081001 .0002475398
70356713 17781e-8 -.02080775081001 .0004060105198441095 17781e-8 -28693410494828
9e-30 .0001584706494871095 31 255 162 792 0 164 165 156 0 +-.02072784804228 .000
407061431274 74354e-8 444448113838e-27 8659487671686e-29 -1 1 0 444448113838e-27
 .000156386360714 30 163 798 0 1 156 166 167 +-.02080775081001 .000247539870357
 17781e-8 -4440892098501e-28 1 865948767168598e-31 133 166 807 0 168 163 169 0 +
169 -.02080775081001 .000247539870357001 74354e-8 -.02080775081001 .000406010519
843952 74354e-8 -.000276405440981999 -.000117934791495048 141 255 167 156 167 16
7 163 16 168 53 170 ?147 171 152 166 0 0 1 30 169 804 0 1 166 161 172 +-.0208077
5081001 .000523945311339 74354e-8 -4440892098501e-28 1 865948767168598e-31 30 16
1 811 0 155 169 173 0 +-.0208842257969 .000523945311339 17781e-8 -4440892098501e
-28 1 865948767168598e-31 141 172 166 172 172 169 30 173 816 0 171 161 174 0 +-.
0208842257969 .000247495079388 74354e-8 -4440892098501e-28 1 865948767168598e-31
 16 171 57 175 ?176 160 168 173 0 0 1 31 174 822 0 177 173 178 0 +-.021052190545
59 .000249135712619 17781e-8 -444448113838e-27 -8659487671686e-29 1 -1 0 -444448
113838e-27 .000244444944809 16 177 47 179 ?153 152 180 174 0 0 1 31 178 828 0 18
1 174 182 0 +-.02105219054559 .000249135712619 74354e-8 -444448113838e-27 -86594
87671686e-29 1 1 0 444448113838e-27 .000244444944809 16 181 33 183 ?184 185 186
 178 0 0 1 31 182 832 0 180 178 187 0 +-.02105219054559 .000249135712619 17781e-
8 -444448113838e-27 -8659487671686e-29 1 -1 0 -444448113838e-27 .000167972761131
 16 180 42 188 ?189 177 190 182 0 0 1 31 187 839 0 185 182 191 0 +-.021052190545
59 .000249135712619 74354e-8 -444448113838e-27 -8659487671686e-29 1 1 0 44444811
3838e-27 .000167972761131 16 185 37 192 ?193 190 181 187 0 0 1 30 191 844 0 194
 187 195 0 +-.021515 4966999999992e-18 17781e-8 .999999828481103 -.0005856942585
4986 444397319484637e-30 16 194 24 196 ?197 198 199 191 0 0 1 30 195 848 0 200 1
91 22 0 +-.02042477309276855 4328460250388205e-21 74354e-8 .999999828481103 -.00
058569425854986 444397319484637e-30 16 200 5 201 ?202 21 0 195 0 0 1 30 22 852 0
 203 195 8 0 +-.0204247283018078 808034340165733e-19 17781e-8 .999999828481103 -
.00058569425854986 444397319484637e-30 16 203 17 204 ?127 199 205 22 0 0 1 81 1
 204 932 34 203 0 0 206 207 208 17 127 0 123 189 74 66 209 203 0 210 +16 199 19
 206 ?211 194 203 212 0 0 1 16 205 15 207 ?210 203 213 214 0 0 1 81 1 207 933 34
 205 0 0 204 215 216 17 210 0 217 209 218 66 219 205 0 0 +16 213 12 215 ?220 205
 21 221 0 0 1 30 214 333 0 205 0 222 0 +-.02105392955453 8117195364098e-17 74354
e-8 6661338147751e-28 8659560562355e-29 -1 30 222 344 0 223 214 224 0 +-.0210539
2955453 4696953640979e-18 17781e-8 -6661338147751e-28 -8659560562355e-29 1 16 22
3 29 225 ?226 186 198 222 0 0 1 30 224 354 0 190 222 227 0 +-.0208842257969 .000
247495079388 74354e-8 -4440892098501e-28 -1972152263053e-43 1 16 190 40 228 ?229
 180 185 224 0 0 1 30 227 361 0 152 224 230 0 +-.02080775081001 .000247539870357
 17781e-8 -4440892098501e-28 -1972152263053e-43 1 16 152 50 231 ?151 168 177 227
 0 0 1 30 230 370 0 160 227 232 0 +-.0208842257969 .000405420798044 74354e-8 357
3635688291e-28 2219938482912e-28 -1 16 160 60 233 ?234 155 171 230 0 0 1 133 232
 601 0 235 230 236 0 +236 -.020728840538569 .000563444642548996 74354e-8 -.02011
98248062 .00056092049581726 74354e-8 999209215756573e-30 .000609020963178518 16
 235 97 237 ?238 239 240 232 0 0 1 30 236 399 0 1 232 241 242 +-.02072884053857
 .000563444642549 74354e-8 .999991411119099 -.00414459745123741 444085395620744e
-30 30 241 386 0 243 236 244 0 +-.02072884053857 .000563444642549 74354e-8 44408
92098501e-28 1972152263053e-43 -1 141 242 232 242 242 236 16 243 80 245 ?246 138
 164 241 0 0 1 133 244 607 0 247 241 248 0 +248 -.02072884053857 .00056344464254
9 17781e-8 -.0201198248062 .00056092049581726 17781e-8 0 .000609020963178518 16
 247 102 249 ?250 251 239 244 0 0 1 30 248 403 0 1 244 252 253 +-.02072884053857
 .000563444642549 17781e-8 .999991411119099 -.00414459745123741 666079243911966e
-30 133 252 613 0 28 248 254 0 +254 -.02072855178925085 .000486967802065821 1778
1e-8 -.02012009697365 .00048444598012826 17781e-8 560921586828987e-21 .000609020
963178518 141 253 244 253 253 248 16 28 107 255 ?40 11 251 252 0 0 1 30 254 407
 0 1 252 256 257 +-.02072911270602 .00048697012686 17781e-8 .999991411119099 -.0
0414459745123741 444085395620744e-30 133 256 615 0 258 254 259 0 +259 -.02072855
17892501 .000486967802065818 74354e-8 -.02012009697365 .00048444598012826 74354e
-8 56092158757834e-20 .000609020963178518 141 257 252 257 257 254 16 258 93 260
 ?261 240 137 256 0 0 1 30 259 396 0 1 256 212 262 +-.02072911270602 .0004869701
2686 74354e-8 .999991411119099 -.00414459745123741 444085395620744e-30 30 212 33
6 0 199 259 263 0 +-.021515 8144199999999e-17 74354e-8 6661338147751e-28 8659560
562355e-29 -1 141 262 256 262 262 259 30 263 345 0 186 212 264 0 +-.021515 49669
99999992e-18 17781e-8 -6661338147751e-28 -8659560562355e-29 1 16 186 30 265 ?98
 181 223 263 0 0 1 133 264 631 0 240 263 266 0 +266 -.02012009697365 .0004844459
80128 74354e-8 -.020119824806198 .000560920495816993 74354e-8 0 764749999999212e
-19 16 240 95 267 ?268 235 258 264 0 0 1 30 266 398 0 1 264 29 269 +-.0201200969
7365 .000484445980128 74354e-8 .0035589075122676 .999993667068607 88176078048565
3e-31 133 29 633 0 11 266 270 0 +270 -.02012009697365 .000484445980128 17781e-8
 -.02012009697365 .000484445980128 74354e-8 0 56573e-8 141 269 264 269 269 266 3
0 270 409 0 1 29 271 272 +-.02012009697365 .000484445980128 17781e-8 -6664405943
332e-28 -8580482100699e-29 1 133 271 635 0 251 270 273 0 +273 -.0201198248062 .0
00560920495817 17781e-8 -.020120096973652 .000484445980128007 17781e-8 0 7647499
99999212e-19 141 272 29 272 272 270 16 251 105 274 ?132 28 247 271 0 0 1 30 273
 406 0 1 271 275 276 +-.0201198248062 .000560920495817 17781e-8 -.00355890751226
76 -.999993667068607 -881760780485653e-31 133 275 637 0 239 273 277 0 +277 -.020
1198248062 .000560920495817 74354e-8 -.0201198248062 .000560920495817 17781e-8 0
 56573e-8 141 276 271 276 276 273 16 239 100 278 ?279 247 235 275 0 0 1 30 277 4
02 0 1 275 221 280 +-.0201198248062 .000560920495817 74354e-8 6664405943332e-28
 8580482100699e-29 -1 30 221 745 0 213 277 281 0 +-.021515 4966999999992e-18 743
54e-8 -4440892098501e-28 1 865948767168598e-31 141 280 275 280 280 277 30 281 75
0 0 198 221 282 0 +-.021515 496699999999205e-20 17781e-8 4440892098501e-28 -1 -8
65948767168598e-31 16 198 26 283 ?284 223 194 281 0 0 1 133 282 758 0 137 281 28
5 0 +285 -.02072750087668875 .000486963446418885 74354e-8 -.02072750087668875 .0
00486963446418885 17781e-8 -56573e-8 0 16 137 90 286 ?133 258 125 282 0 0 1 30 2
85 759 0 1 282 139 287 +-.02072750087668875 .000486963446418885 17781e-8 4440892
098501e-28 1972152263053e-43 -1 133 139 770 0 125 285 288 0 +288 -.0208077441100
4455 .000406010606607912 17781e-8 -.02072855172703545 .000486960892896641 17781e
-8 .0129488172302014 -1.56179181097348 141 287 282 287 287 285 31 288 771 0 1 13
9 289 290 --.02072783210753935 .000407045430360442 17781e-8 -444448113838e-27 -8
659487671686e-29 1 -1 0 -444448113838e-27 7991870247066e-17 133 289 775 0 145 28
8 291 0 +291 -.02080774411004455 .000406010606607754 74354e-8 -.0207285517270347
 .000486960892896648 74354e-8 3.12864383635762 4.70338446457265 141 290 139 290
 290 288 16 145 73 292 ?144 164 142 289 0 0 1 31 291 776 0 1 289 149 293 +-.0207
2783210753935 .000407045430360442 74354e-8 444448113838e-27 8659487671686e-29 -1
 1 0 444448113838e-27 7991870247066e-17 133 149 780 0 142 291 294 0 +294 -.02080
775081001 .000407045430360442 17781e-8 -.02080775081001 .000407045430360442 7435
4e-8 -271050543121376e-34 -56573e-8 141 293 289 293 293 291 30 294 781 0 1 149 1
65 295 --.02080775081001 .000407045430360442 17781e-8 4440892098501e-28 19721522
63053e-43 -1 31 165 788 0 138 294 162 0 +-.02072784804228 .000407061431274 17781
e-8 444448113838e-27 8659487671686e-29 -1 -1 0 -444448113838e-27 .00015638636071
4 141 295 149 295 295 294 16 138 82 296 ?297 125 243 165 0 0 1 81 1 296 911 34 1
38 0 0 136 245 298 17 297 0 123 250 159 49 57 138 0 246 +17 250 0 123 132 297 32
 52 247 0 279 +17 159 0 123 297 189 54 63 155 0 234 +17 57 0 299 300 246 54 297
 138 0 159 -17 246 0 299 57 301 49 302 243 0 0 +15 299 79 0 301 303 0 17 301 0 2
99 246 300 53 110 164 0 0 +17 302 0 304 238 52 53 246 243 0 301 -15 304 99 0 238
 305 0 17 238 0 304 279 302 41 113 235 0 268 +17 52 0 304 302 279 49 250 247 0 2
97 -17 279 0 304 52 238 32 306 239 0 0 +17 306 0 37 39 38 41 279 239 0 238 -15 3
7 114 0 39 17 0 17 39 0 37 31 306 45 268 240 0 261 -17 38 0 37 306 31 32 132 251
 0 250 -18 41 96 307 306 32 45 44 5e-7 1 81 1 307 879 34 41 0 0 35 47 308 29 44
 397 0 41 0 42 -.0201198248062 .000560920495817 74354e-8 80 7 CCCCCDI12 legal_ow
ners0 17 1 lCZ1 34 309 310 9000 0 0 0 0 3 5 0 0 0 FFTFTFTTFFFFFFFFF2 81 1 35 878
 34 32 0 0 30 307 311 81 1 47 880 34 45 0 0 307 118 312 83 255 1 308 1664 81 1 1
18 881 34 48 0 0 47 51 313 83 1 312 1665 81 1 51 882 34 49 0 0 118 112 314 83 1
 313 1666 81 1 112 883 34 53 0 0 51 116 315 83 1 314 1667 81 1 116 884 34 114 0
 0 112 120 316 83 1 315 1668 83 1 316 1669 83 1 311 1663 79 255 13 310 BTI/impor
tTag17 132 0 123 119 250 12 38 251 0 0 +17 268 0 317 113 261 41 39 240 0 0 +17 2
61 0 317 268 144 45 117 258 0 0 +15 317 4 0 202 19 0 17 144 0 317 261 147 114 14
0 145 0 0 +17 117 0 318 133 27 114 261 258 0 135 -15 318 109 0 40 319 0 17 133 0
 318 40 117 48 135 137 0 124 +17 27 0 318 117 40 45 31 11 0 39 +17 135 0 134 140
 124 114 133 137 0 144 -17 40 0 318 27 133 12 119 28 0 132 +14 255 319 108 320 ?
305 321 318 6 322 -0 0 305 321 25 81 1 320 939 34 319 0 0 323 324 325 14 305 98
 324 ?143 319 304 6 326 -0 0 143 319 25 14 321 111 323 ?319 17 327 6 328 -0 0 31
9 17 25 50 322 408 0 319 326 328 0 +-.02072911270602 .00048697012686 17781e-8 .0
0414459745123741 .999991411119099 885662120282888e-31 -6664405943332e-28 -858048
210070026e-31 1 13 25 2 0 0 0 0 0 0 10 17 14 17 113 329 ?321 0 37 6 330 +0 0 321
 0 25 81 1 329 937 34 17 0 0 201 323 331 50 330 411 0 17 328 332 0 +-.0201200969
7365 .000484445980128 74354e-8 .999993667068607 -.0035589075122696 -340919026867
466e-30 -.0035589075122696 -.999993667068607 -158047242505338e-32 50 328 410 0 3
21 322 330 0 +-.021515 4966999999992e-18 74354e-8 1 4440892098501e-28 8365813968
033e-28 8365813968033e-28 3715167714816e-43 -1 51 255 332 652 0 143 330 20 0 +-.
02072783210753935 .000407045430360442 17781e-8 4440892098501e-28 1972152263053e-
43 -1 7991870247066e-17 -.0199683204666765 .999800613211324 -886771565807974e-32
 14 143 88 333 ?303 305 134 6 332 -0 0 303 305 25 50 20 729 0 128 332 7 0 +-.020
42446875611 .000523945311339 17781e-8 -444448113838e-27 -8659487671686e-29 1 -.0
035589075122676 -.999993667068607 -88176078048598e-30 14 128 20 334 ?335 336 123
 6 20 -0 0 335 336 25 81 1 334 948 34 128 0 0 337 338 339 14 335 13 338 ?19 128
 217 6 340 -0 0 19 128 25 14 336 27 337 ?128 341 342 6 343 -0 0 128 341 25 81 1
 337 947 34 336 0 0 344 334 345 14 341 38 344 ?336 346 347 6 348 -0 0 336 346 25
 15 342 28 0 197 336 0 50 343 343 0 336 340 348 0 +-.021515 4966999999992e-18 17
781e-8 .00058569425854986 .999999828481103 86985741521519e-30 -6661338147751e-28
 -86595605623562e-30 1 50 340 331 0 335 0 343 0 +-.021515 8144199999999e-17 7435
4e-8 -.00058569425854986 -.999999828481103 -86985741521519e-30 6661338147751e-28
 86595605623562e-30 -1 51 348 352 0 341 343 349 0 +-.02105219054559 .00024913571
2619 74354e-8 -4440892098501e-28 -1972152263053e-43 1 .000167972761131 .69995744
0636869 -.714184556887843 310843546741125e-30 51 349 360 0 346 348 350 0 +-.0210
5219054559 .000249135712619 17781e-8 -4440892098501e-28 -1972152263053e-43 1 .00
0244444944809 .702266961930216 -.71191369854871 31186918022742e-29 14 346 48 351
 ?341 352 353 6 349 +0 0 341 352 25 50 350 368 0 352 349 354 0 +-.0208842257969
 .000247495079388 74354e-8 1 4440892098501e-28 3573635688291e-28 3573635688291e-
28 2219938482912e-28 -1 14 352 58 355 ?346 150 356 6 350 -0 0 346 150 25 50 354
 376 0 150 350 357 0 +-.02080775081001 .000247539870357 17781e-8 -1 -44408920985
01e-28 -3573635688291e-28 -3573635688291e-28 -2219938482912e-28 1 14 150 68 358
 ?352 303 146 6 354 -0 0 352 303 25 51 357 384 0 303 354 326 0 +-.02072784804228
 .000407061431274 74354e-8 4440892098501e-28 1972152263053e-43 -1 .0001563863607
14 -.0104908971801797 .999944969023973 -465889423936446e-32 14 303 78 359 ?150 1
43 299 6 357 +0 0 150 143 25 50 326 400 0 305 357 322 0 +-.02072884053857 .00056
3444642549 74354e-8 -.00414459745123741 -.999991411119099 -885662120282888e-31 6
664405943332e-28 858048210070026e-31 -1 81 1 359 942 34 303 0 0 333 358 360 81 1
 333 941 34 143 0 0 324 359 361 81 1 358 943 34 150 0 0 359 355 362 83 1 360 172
7 81 1 355 944 34 352 0 0 358 351 363 83 1 362 1728 81 1 351 945 34 346 0 0 355
 344 364 83 1 363 1729 81 1 344 946 34 341 0 0 351 337 365 83 1 364 1730 83 1 36
5 1731 81 1 324 940 34 305 0 0 320 333 366 83 1 361 1726 83 1 366 1725 15 356 59
 0 176 352 0 17 176 0 356 234 229 59 107 171 0 0 +17 234 0 356 63 176 54 300 160
 0 0 +17 229 0 356 176 63 65 367 190 0 193 +17 107 0 317 104 110 65 176 171 0 22
9 -17 104 0 317 368 107 94 193 185 0 219 -17 110 0 317 107 113 59 301 164 0 300
 -17 113 0 317 110 268 53 238 235 0 302 -16 164 77 369 ?301 243 145 162 0 0 1 17
 300 0 299 301 57 59 234 160 0 176 -81 1 369 913 34 164 0 0 245 292 370 81 1 245
 912 34 243 0 0 296 369 371 81 1 292 914 34 145 0 0 369 148 372 83 1 370 1698 81
 1 148 915 34 142 0 0 292 154 373 83 1 372 1699 83 1 373 17e2 83 1 371 1697 17 3
68 0 317 374 104 71 218 21 0 0 -17 193 0 347 367 219 65 104 185 0 0 +17 219 0 34
7 193 69 94 210 205 0 218 -15 347 39 0 193 341 0 17 69 0 347 219 367 66 189 180
 0 127 -17 218 0 217 210 101 94 368 21 0 0 +15 217 14 0 218 335 0 17 101 0 217 2
18 209 71 211 199 0 220 -16 21 10 375 ?218 213 200 8 0 0 1 81 1 375 935 34 21 0
 0 215 201 376 81 1 215 934 34 213 0 0 207 375 377 81 1 201 936 34 200 0 0 375 3
29 378 83 1 376 1720 83 1 378 1721 83 1 377 1719 17 209 0 217 101 210 70 127 203
 0 0 -17 211 0 327 284 220 70 101 199 0 209 +17 220 0 327 211 98 71 374 213 0 36
8 +15 327 112 0 220 321 0 17 98 0 327 220 284 95 79 186 0 374 +17 374 0 317 202
 368 95 220 213 0 379 -17 202 0 317 184 374 90 379 200 0 0 +17 379 0 342 79 226
 95 202 200 0 0 -17 79 0 342 197 379 76 98 186 0 284 -17 226 0 342 379 197 90 38
0 223 0 202 +17 197 0 342 226 79 75 381 194 0 0 +17 380 0 353 153 93 75 226 223
 0 197 -15 353 49 0 153 346 0 17 153 0 353 151 380 64 83 177 0 0 +17 93 0 353 38
0 151 90 184 181 0 226 -17 151 0 353 93 153 80 131 152 0 184 +17 184 0 317 147 2
02 80 93 181 0 0 +17 147 0 317 144 184 23 89 168 0 0 +18 23 54 382 140 59 64 9 1
044910516489916e-21 1 17 89 0 146 131 141 80 147 168 0 151 -81 1 382 888 34 23 0
 0 109 85 383 81 1 109 887 34 59 0 0 56 382 384 81 1 85 889 34 64 0 0 382 62 385
 83 1 383 1673 81 1 62 890 34 60 0 0 85 106 386 83 1 385 1674 81 1 106 891 34 65
 0 0 62 88 387 83 1 386 1675 81 1 88 892 34 80 0 0 106 78 388 83 1 387 1676 81 1
 78 893 34 76 0 0 88 82 389 83 1 388 1677 81 1 82 894 34 75 0 0 78 73 390 83 1 3
89 1678 81 1 73 895 34 70 0 0 82 68 391 83 1 390 1679 81 1 68 896 34 66 0 0 73 1
00 392 83 1 391 1680 81 1 100 897 34 71 0 0 68 103 393 83 1 392 1681 81 1 103 89
8 34 94 0 0 100 92 394 83 1 393 1682 81 1 92 899 34 90 0 0 103 97 395 83 1 394 1
683 81 1 97 900 34 95 0 0 92 26 396 83 1 395 1684 81 1 26 901 34 11 0 0 97 255 3
97 83 1 396 1685 81 1 255 902 34 28 0 0 26 274 398 83 1 397 1686 81 1 274 903 34
 251 0 0 255 249 399 83 1 398 1687 81 1 249 904 34 247 0 0 274 278 400 83 1 399
 1688 81 1 278 905 34 239 0 0 249 237 401 83 1 400 1689 81 1 237 906 34 235 0 0
 278 267 402 83 1 401 1690 81 1 267 907 34 240 0 0 237 260 403 83 1 402 1691 81
 1 260 908 34 258 0 0 267 286 404 83 1 403 1692 81 1 286 909 34 137 0 0 260 136
 405 83 1 404 1693 81 1 136 910 34 125 0 0 286 296 406 83 1 405 1694 83 1 406 16
95 81 1 56 886 34 54 0 0 120 109 407 83 1 384 1672 83 1 407 1671 17 83 0 123 381
 86 75 153 177 0 380 -17 381 0 123 74 83 76 197 194 0 0 -17 74 0 123 127 381 70
 284 198 0 211 -17 284 0 327 98 211 76 74 198 0 381 +17 367 0 347 69 193 60 229
 190 0 0 -17 189 0 123 159 127 60 69 180 0 367 +17 63 0 356 229 234 60 159 155 0
 189 -83 1 345 1732 81 1 338 949 34 335 0 0 334 408 409 14 19 3 408 ?0 335 317 6
 7 -0 0 0 335 25 81 1 408 950 34 19 0 0 338 410 411 81 1 410 951 34 1 412 413 40
8 0 414 83 1 411 1735 81 1 412 875 415 1 0 410 0 0 416 81 1 413 952 417 1 410 41
8 0 0 419 83 1 414 1736 80 1 417 34 420 9000 0 0 0 0 3 5 0 0 0 FFTFTFTTFFFFFFFFF
2 81 1 418 1029 421 1 413 14 0 0 422 83 1 419 17325 80 1 421 423 424 8040 0 0 0
 0 3 5 0 0 0 TTTFFFFFFFFFFFFFF2 81 1 14 1030 425 1 418 2 0 0 426 83 3 422 .69019
6078431373 .690196078431373 .690196078431373 80 1 425 13 427 8038 0 0 0 0 0 0 0
 0 0 TTTTTTTTTTTTTFTFT10 98 255 14 426 72 67 45 48 52 70 117 115 105 111 110 48
 48 50 79 14 427 SDL/TYSA_UNAME79 17 424 SDL/TYSA_COLOUR_279 18 420 BTI/importMa
xCount80 1 415 428 429 9000 0 0 0 0 3 5 0 0 0 TTTFFFFFFFFFFFFFF1 82 255 1 416 2
 79 23 429 ONSHAPE_ORIGINALBODY_ID83 1 409 1734 83 1 339 1733 81 1 323 938 34 32
1 0 0 329 320 430 83 1 331 1722 83 1 430 1723 83 1 325 1724 83 1 298 1696 81 1 2
83 929 34 198 0 0 225 196 431 81 1 225 928 34 223 0 0 265 283 432 81 1 196 930 3
4 194 0 0 283 206 433 83 1 431 1714 81 1 206 931 34 199 0 0 196 204 434 83 1 433
 1715 83 1 434 1716 81 1 265 927 34 186 0 0 183 225 435 83 1 432 1713 81 1 183 9
26 34 181 0 0 192 265 436 83 1 435 1712 81 1 192 925 34 185 0 0 228 183 437 83 1
 436 1711 81 1 228 924 34 190 0 0 188 192 438 83 1 437 1710 81 1 188 923 34 180
 0 0 179 228 439 83 1 438 1709 81 1 179 922 34 177 0 0 231 188 440 83 1 439 1708
 81 1 231 921 34 152 0 0 170 179 441 83 1 440 1707 81 1 170 920 34 168 0 0 175 2
31 442 83 1 441 1706 81 1 175 919 34 171 0 0 233 170 443 83 1 442 1705 81 1 233
 918 34 160 0 0 157 175 444 83 1 443 1704 81 1 157 917 34 155 0 0 154 233 445 83
 1 444 1703 83 1 445 1702 83 1 216 1718 83 1 208 1717 83 1 158 1701 83 1 122 167
0 83 1 36 1662 19 18 115 0 1 0 10 6 0 S0 74 4 CI16 index_map_offset0 0 1 dCCZ20
 16 6 0 0 412 410 413 418 14 2 0 0 0 0 0 0 0 0 0 0 0 0 0 0 80 1 13 446 447 8017
 0 0 0 0 0 0 0 0 0 TTTTTTTTTTTTTFTFT3 84 255 14 15 HC-04Fusion00279 13 447 SDL/T
YSA_NAME1 0 
