**ABCDEFGHIJKLMNOPQRSTUVWXYZabcdefghijklmnopqrstuvwxyz**************************
**PARASOLID !"#$%&'()*+,-./:;<=>?@[\]^_`{|}~0123456789**************************
**PART1;
MC=unknown;
MC_MODEL=unknown;
MC_ID=unknown;
OS=unknown;
OS_RELEASE=unknown;
FRU=Parasolid 37.0.173;
APPL=Onshape;
SITE=unknown;
USER=unknown;
FORMAT=text;
GUISE=transmit;
KEY=BTGapi::writeModels_.xmt;
FILE=BTGapi::writeModels_.xmt;
DATE=2024-12-29T04:00:26 (UTC);
**PART2;
SCH=SCH_3700173_36001;
USFLD_SIZE=0;
**PART3;
**END_OF_HEADER*****************************************************************
T51 : TRANSMIT FILE created by modeller version 370017323 SCH_3700173_36001_1300
6231 0 12 36 CCCI7 lattice222 0 CCCI4 mesh1006 0 I8 polyline1008 0 CCCCCCCDI5 ow
ner1040 0 CCCI16 boundary_lattice222 0 CCCI13 boundary_mesh1006 0 I17 boundary_p
olyline1008 0 CCCA16 index_map_offset0 0 1 dA9 index_map82 0 A17 node_id_index_m
ap82 0 A20 schema_embedding_map82 0 A5 child12 0 A14 lowest_node_id0 0 1 dA16 me
sh_offset_data206 0 Z1 152 2 3 0 0 0 0 0 0 0 1e3 1e-8 0 4 5 1 0 1 2 6 0 7 8 0 0
 0 9 10 0 0 0 0 0 0 0 0 81 255 1 2 152 11 1 12 0 0 0 13 70 11 CI9 list_type0 0 1
 uI10 notransmit0 0 1 lCCCDCCDI12 finger_index0 0 1 dI12 finger_block1012 0 CZ3
 0 4 T1 0 0 6 20 1 14 14 13 255 6 24 0 1 0 15 0 0 16 0 50 255 7 75 0 15 17 0 0 +
.02227285 -.00102 -.008435772 0 1 0 -1 0 0 31 255 8 70 0 18 19 0 0 +.021009512 -
.00102 -.008435772 0 -1 0 1 0 0 .000909905720317 19 9 CCCCCCI5 frame230 0 CA5 ow
ner12 0 Z9 1 0 1 16 0 20 0 V0 16 255 10 16 21 ?22 0 18 23 0 0 1 81 1 21 130 24 1
0 0 0 0 25 26 17 255 22 0 27 22 22 0 28 10 0 0 +16 18 12 25 ?29 10 30 8 0 0 1 31
 23 73 0 10 31 19 0 +.021009512 0 -.008435772 0 -1 0 1 0 0 .000909905720317 31 3
1 64 0 32 0 23 0 +.021009512 0 -.008435772 0 -1 0 1 0 0 .001263338 31 19 67 0 30
 23 8 0 +.021009512 -.00102 -.008435772 0 -1 0 1 0 0 .001263338 16 30 9 33 ?34 1
8 32 19 0 0 1 81 1 33 132 24 30 0 0 25 35 36 17 34 0 37 34 34 0 38 30 0 0 +16 32
 5 35 ?39 30 0 31 0 0 1 81 1 35 133 24 32 0 0 33 40 41 17 39 0 42 39 39 0 43 32
 0 0 +15 255 42 4 0 39 44 0 17 43 0 45 43 43 0 39 32 0 0 -15 45 18 0 43 46 0 14
 255 46 17 47 ?48 15 27 6 17 +0 0 48 15 20 81 1 47 135 24 46 0 0 40 49 50 14 48
 10 49 ?44 46 51 6 52 -0 0 44 46 20 14 15 20 40 ?46 0 53 6 7 -0 0 46 0 20 15 27
 19 0 22 46 45 50 17 74 0 46 52 7 0 +.02227285 0 -.008435772 0 1 0 -1 0 0 13 20
 2 0 0 0 0 0 0 9 15 51 255 52 68 0 48 54 17 0 +.021009512 0 -.008435772 0 1 0 .0
00909905720317 1 0 0 51 54 62 0 44 0 52 0 +.021009512 0 -.008435772 0 1 0 .00126
3338 1 0 0 14 44 3 55 ?0 48 56 6 54 +0 0 0 48 20 81 1 55 137 24 44 0 0 49 57 58
 15 56 125 0 38 44 42 17 38 0 56 38 38 0 34 30 0 0 -80 7 CCCCCDI12 legal_owners0
 17 1 lCZ1 24 59 60 9000 0 0 0 0 3 5 0 0 0 FFTFTFTTFFFFFFFFF2 81 1 49 136 24 48
 0 0 47 55 61 81 1 57 138 24 1 62 63 55 0 64 83 255 1 58 6336 81 1 62 128 65 1 0
 57 0 0 66 81 1 63 139 67 1 57 68 0 0 69 83 1 64 6337 80 1 67 24 70 9000 0 0 0 0
 3 5 0 0 0 FFTFTFTTFFFFFFFFF2 81 1 68 150 71 1 63 12 0 0 72 83 1 69 17325 80 1 7
1 73 74 8040 0 0 0 0 3 5 0 0 0 TTTFFFFFFFFFFFFFF2 81 1 12 151 75 1 68 2 0 0 76 8
3 3 72 .690196078431373 .690196078431373 .690196078431373 80 1 75 11 77 8038 0 0
 0 0 0 0 0 0 0 TTTTTTTTTTTTTFTFT10 98 255 11 76 72 67 45 48 52 80 97 100 48 48 5
6 79 255 14 77 SDL/TYSA_UNAME79 17 74 SDL/TYSA_COLOUR_279 18 70 BTI/importMaxCou
nt80 1 65 78 79 9000 0 0 0 0 3 5 0 0 0 TTTFFFFFFFFFFFFFF1 82 255 1 66 32 79 23 7
9 ONSHAPE_ORIGINALBODY_ID83 1 61 6335 79 13 60 BTI/importTag81 1 40 134 24 15 0
 0 35 47 80 15 53 22 0 81 15 37 17 81 0 53 81 81 0 29 18 0 0 -15 37 21 0 34 15 0
 17 29 0 82 29 29 0 81 18 0 0 +15 82 11 0 29 48 0 83 1 80 6333 15 51 124 0 28 48
 82 17 28 0 51 28 28 0 22 10 0 0 -83 1 50 6334 83 1 41 6332 81 1 25 131 24 18 0
 0 21 33 83 83 1 36 6331 83 1 83 6330 83 1 26 6329 19 16 23 0 1 0 9 6 0 S0 74 4
 CI16 index_map_offset0 0 1 dCCZ20 14 6 0 0 62 57 63 68 12 2 0 0 0 0 0 0 0 0 0 0
 0 0 0 0 80 1 11 84 85 8017 0 0 0 0 0 0 0 0 0 TTTTTTTTTTTTTFTFT3 84 255 11 13 HC
-04Pad00879 13 85 SDL/TYSA_NAME1 0 
