**ABCDEFGHIJKLMNOPQRSTUVWXYZabcdefghijklmnopqrstuvwxyz**************************
**PARASOLID !"#$%&'()*+,-./:;<=>?@[\]^_`{|}~0123456789**************************
**PART1;
MC=unknown;
MC_MODEL=unknown;
MC_ID=unknown;
OS=unknown;
OS_RELEASE=unknown;
FRU=Parasolid 37.0.173;
APPL=Onshape;
SITE=unknown;
USER=unknown;
FORMAT=text;
GUISE=transmit;
KEY=BTGapi::writeModels_.xmt;
FILE=BTGapi::writeModels_.xmt;
DATE=2024-12-29T04:00:25 (UTC);
**PART2;
SCH=SCH_3700173_36001;
USFLD_SIZE=0;
**PART3;
**END_OF_HEADER*****************************************************************
T51 : TRANSMIT FILE created by modeller version 370017323 SCH_3700173_36001_1300
6231 0 12 36 CCCI7 lattice222 0 CCCI4 mesh1006 0 I8 polyline1008 0 CCCCCCCDI5 ow
ner1040 0 CCCI16 boundary_lattice222 0 CCCI13 boundary_mesh1006 0 I17 boundary_p
olyline1008 0 CCCA16 index_map_offset0 0 1 dA9 index_map82 0 A17 node_id_index_m
ap82 0 A20 schema_embedding_map82 0 A5 child12 0 A14 lowest_node_id0 0 1 dA16 me
sh_offset_data206 0 Z1 459 2 3 0 0 0 0 0 0 0 1e3 1e-8 0 4 5 1 0 1 2 6 0 7 8 0 0
 0 9 10 0 0 0 0 0 0 0 0 81 255 1 2 459 11 1 12 0 0 0 13 70 11 CI9 list_type0 0 1
 uI10 notransmit0 0 1 lCCCDCCDI12 finger_index0 0 1 dI12 finger_block1012 0 CZ3
 0 4 T1 0 0 7 20 1 14 14 13 255 6 80 0 1 0 15 0 0 16 0 54 255 7 237 0 15 17 0 0
 +0 -.0614924003551423 0 0 1 0 .00895591093222974 .001 -1 0 0 31 255 8 218 0 18
 19 0 0 +0 -.0623962001775712 0 0 -1 0 1 0 0 .00852795546611487 19 9 CCCCCCI5 fr
ame230 0 CA5 owner12 0 Z9 1 0 1 16 0 20 0 V0 16 255 10 74 21 ?22 0 23 19 0 0 1 8
1 1 21 386 24 10 0 0 0 25 26 17 255 22 0 27 22 22 0 28 10 0 0 +16 23 65 25 ?29 1
0 30 31 0 0 1 31 19 236 0 10 32 8 0 +0 -.0617860571099492 0 0 -1 0 1 0 0 .008 31
 32 221 0 33 31 19 0 +0 -.0608930285549745 0 0 1 0 -1 0 0 .00855 16 33 48 34 ?35
 36 18 32 0 0 1 31 31 232 0 23 37 32 0 +0 0 0 0 -1 0 1 0 0 .007 31 37 194 0 38 3
9 31 0 +0 -499999999999988e-19 0 0 -1 0 1 0 0 .007 16 38 5 40 ?41 42 0 37 0 0 1
 31 39 229 0 30 43 37 0 +0 0 0 0 -1 0 1 0 0 .0081 16 30 60 44 ?45 23 46 39 0 0 1
 31 43 226 0 46 47 39 0 +0 -.001 0 0 -1 0 1 0 0 .0091 16 46 55 48 ?49 30 36 43 0
 0 1 31 47 223 0 36 50 43 0 +0 -.06 0 0 -1 0 1 0 0 .0091 16 36 51 51 ?52 46 33 4
7 0 0 1 31 50 215 0 53 54 47 0 +0 -.0633 0 0 -1 0 1 0 0 .0091 16 53 38 55 ?56 18
 57 50 0 0 1 31 54 212 0 57 58 50 0 +0 -.0638 0 0 -1 0 1 0 0 .0091 16 57 33 59 ?
60 53 61 54 0 0 1 31 58 209 0 61 62 54 0 +0 -.0648 0 0 -1 0 1 0 0 .0081 16 61 28
 63 ?64 57 65 58 0 0 1 31 62 206 0 65 66 58 0 +0 -.0648 0 0 -1 0 1 0 0 .0055 16
 65 23 67 ?68 61 69 62 0 0 1 31 66 203 0 69 70 62 0 +0 -.06475 0 0 -1 0 1 0 0 .0
055 16 69 18 71 ?72 65 73 66 0 0 1 31 70 200 0 73 74 66 0 +0 -.06475 0 0 -1 0 1
 0 0 .005 16 73 13 75 ?76 69 42 70 0 0 1 31 74 197 0 42 0 70 0 +0 -.065 0 0 -1 0
 1 0 0 .005 16 42 9 77 ?78 73 38 74 0 0 1 81 1 77 399 24 42 0 0 75 40 79 17 78 0
 80 78 78 0 81 42 0 0 +15 255 80 8 0 78 82 0 17 81 0 83 81 81 0 78 42 0 0 -15 83
 15 0 81 84 85 14 255 84 11 86 ?82 87 83 6 88 +0 0 82 87 20 15 85 12 0 76 84 0 1
7 76 0 85 76 76 0 89 73 0 0 +17 89 0 90 89 89 0 76 73 0 0 -15 90 20 0 89 87 91 1
4 87 16 92 ?84 93 90 6 94 +0 0 84 93 20 15 91 17 0 72 87 0 17 72 0 91 72 72 0 95
 69 0 0 +17 95 0 96 95 95 0 72 69 0 0 -15 96 25 0 95 93 97 14 93 21 98 ?87 99 96
 6 100 -0 0 87 99 20 15 97 22 0 68 93 0 17 68 0 97 68 68 0 101 65 0 0 +17 101 0
 102 101 101 0 68 65 0 0 -15 102 30 0 101 99 103 14 99 26 104 ?93 105 102 6 106
 +0 0 93 105 20 15 103 27 0 64 99 0 17 64 0 103 64 64 0 107 61 0 0 +17 107 0 108
 107 107 0 64 61 0 0 -15 108 35 0 107 105 109 14 105 31 110 ?99 111 108 6 112 +0
 0 99 111 20 15 109 32 0 60 105 0 17 60 0 109 60 60 0 113 57 0 0 +17 113 0 114 1
13 113 0 60 57 0 0 -15 114 40 0 113 111 115 14 111 36 116 ?105 117 114 6 118 +11
9 119 105 117 20 15 115 37 0 56 111 0 17 56 0 115 56 56 0 120 53 0 0 +17 120 0 1
21 120 120 0 56 53 0 0 -15 121 45 0 120 117 122 14 117 41 123 ?111 124 121 6 125
 +0 0 111 124 20 15 122 42 0 126 117 0 17 126 0 122 126 126 0 127 18 0 0 +17 127
 0 128 127 127 0 126 18 0 0 -16 18 43 129 ?126 33 53 8 0 0 1 81 1 129 392 24 18
 0 0 34 55 130 80 7 CCCCCDI12 legal_owners0 17 1 lCZ1 24 131 132 9000 0 0 0 0 3
 5 0 0 0 FFTFTFTTFFFFFFFFF2 81 1 34 391 24 33 0 0 51 129 133 81 1 55 393 24 53 0
 0 129 59 134 83 255 1 130 6 81 1 59 394 24 57 0 0 55 63 135 83 1 134 7 81 1 63
 395 24 61 0 0 59 67 136 83 1 135 8 81 1 67 396 24 65 0 0 63 71 137 83 1 136 9 8
1 1 71 397 24 69 0 0 67 75 138 83 1 137 10 81 1 75 398 24 73 0 0 71 77 139 83 1
 138 11 83 1 139 12 81 1 51 390 24 36 0 0 48 34 140 83 1 133 5 81 1 48 389 24 46
 0 0 44 51 141 83 1 140 4 81 1 44 388 24 30 0 0 25 48 142 83 1 141 3 81 1 25 387
 24 23 0 0 21 44 143 83 1 142 2 83 1 143 1 79 255 13 132 BTI/importTag15 128 78
 0 127 15 27 14 15 76 144 ?145 0 128 6 7 -0 0 145 0 20 15 27 77 0 22 15 0 81 1 1
44 401 24 15 0 0 40 146 147 14 145 71 146 ?148 15 149 6 17 -0 0 148 15 20 13 20
 2 0 0 0 0 0 0 9 15 81 1 146 402 24 145 0 0 144 150 151 14 148 68 152 ?153 145 1
54 6 155 -0 0 153 145 20 15 149 73 0 28 145 156 54 17 234 0 145 155 7 0 +0 -.061
7860571099492 0 0 -1 0 .009 .001 1 0 0 51 255 155 233 0 148 157 17 0 +0 .006445
 0 0 -1 0 .007 1 0 0 50 255 157 230 0 153 158 155 0 +.007 0 0 0 1 0 -1 0 0 14 15
3 63 159 ?160 148 161 6 157 +0 0 160 148 20 54 158 227 0 160 118 157 0 +0 -.001
 0 0 -1 0 .0081 .001 1 0 0 14 160 58 162 ?119 153 163 6 158 +0 0 119 153 20 51 1
18 224 0 119 164 158 0 +0 .006445 0 0 -1 0 .0091 1 0 0 14 119 53 165 ?124 160 16
6 6 118 +111 111 124 160 20 54 164 219 0 124 125 118 0 +0 -.06 0 0 -1 0 .0081 .0
01 1 0 0 14 124 46 167 ?117 119 168 6 164 +0 0 117 119 20 54 125 216 0 117 112 1
64 0 +0 -.0633 0 0 -1 0 .0081 .001 1 0 0 54 112 210 0 105 106 125 0 +0 -.0638 0
 0 -1 0 .0081 .001 1 0 0 50 106 207 0 99 100 112 0 +.0055 -.0648 0 0 -1 0 1 0 0
 51 100 204 0 93 94 106 0 +0 .006445 0 0 -1 0 .0055 1 0 0 50 94 201 0 87 88 100
 0 +.0055 -.06475 0 0 -1 0 1 0 0 51 88 198 0 84 169 94 0 +0 .006445 0 0 -1 0 .00
5 1 0 0 50 169 195 0 82 170 88 0 +.005 -.065 0 0 -1 0 1 0 0 14 82 7 171 ?172 84
 80 6 169 +0 0 172 84 20 50 170 192 0 172 0 169 0 +0 -49999999999999e-18 0 0 1 0
 -1 0 0 14 172 3 173 ?0 82 174 6 170 +0 0 0 82 20 81 1 173 454 175 172 176 0 86
 98 177 15 174 4 0 178 172 0 17 178 0 174 178 178 0 41 38 0 0 -17 41 0 179 41 41
 0 178 38 0 0 +15 179 69 0 41 148 0 80 1 175 0 180 8001 0 0 0 0 3 5 0 0 0 FFFFTF
TFFFFFFFFFF2 81 1 176 416 24 172 0 173 181 182 183 81 1 86 453 175 84 184 0 171
 173 185 81 1 98 456 175 93 186 0 173 152 187 83 3 177 .501960784313726 .5019607
84313726 .501960784313726 81 1 186 412 24 93 0 98 104 92 188 81 1 152 457 175 14
8 150 0 98 0 189 83 3 187 .501960784313726 .501960784313726 .501960784313726 81
 1 150 403 24 148 0 152 146 159 190 83 3 189 .501960784313726 .501960784313726 .
501960784313726 81 1 159 404 24 153 0 0 150 162 191 83 1 190 17 81 1 162 405 24
 160 0 0 159 165 192 83 1 191 18 81 1 165 406 24 119 0 0 162 167 193 83 1 192 19
 81 1 167 407 24 124 0 0 165 123 194 83 1 193 20 81 1 123 408 24 117 0 0 167 116
 195 83 1 194 21 81 1 116 409 24 111 0 0 123 110 196 83 1 195 22 81 1 110 410 24
 105 0 0 116 104 197 83 1 196 23 81 1 104 411 24 99 0 0 110 186 198 83 1 197 24
 83 1 198 25 81 1 92 413 24 87 0 0 186 184 199 83 1 188 26 81 1 184 414 24 84 0
 86 92 181 200 83 1 199 27 81 1 181 415 24 82 0 171 184 176 201 83 1 200 28 81 1
 171 452 175 82 181 0 0 86 202 83 1 201 29 83 3 202 .501960784313726 .5019607843
13726 .501960784313726 83 3 185 .501960784313726 .501960784313726 .5019607843137
26 81 1 182 417 24 1 203 204 176 0 205 83 1 183 30 81 1 203 384 206 1 0 182 0 0
 207 81 1 204 418 208 1 182 209 0 0 210 83 1 205 31 80 1 208 24 211 9000 0 0 0 0
 3 5 0 0 0 FFTFTFTTFFFFFFFFF2 81 1 209 455 212 1 204 12 0 0 213 83 1 210 1349 80
 1 212 175 214 8040 0 0 0 0 3 5 0 0 0 TTTFFFFFFFFFFFFFF2 81 1 12 458 215 1 209 2
 0 0 216 83 3 213 .392156862745098 .6 .392156862745098 80 1 215 11 217 8038 0 0
 0 0 0 0 0 0 0 TTTTTTTTTTTTTFTFT10 98 255 13 216 66 97 116 101 114 105 97 32 49
 56 54 53 48 79 14 217 SDL/TYSA_UNAME79 17 214 SDL/TYSA_COLOUR_279 18 211 BTI/im
portMaxCount80 1 206 218 219 9000 0 0 0 0 3 5 0 0 0 TTTFFFFFFFFFFFFFF1 82 255 1
 207 0 79 23 219 ONSHAPE_ORIGINALBODY_ID79 15 180 SDL/TYSA_COLOUR15 168 50 0 52
 124 220 17 52 0 168 52 52 0 221 36 0 0 +15 220 47 0 35 124 0 17 35 0 220 35 35
 0 222 33 0 0 +17 222 0 156 222 222 0 35 33 0 0 -15 156 72 0 222 145 0 17 221 0
 166 221 221 0 52 36 0 0 -15 166 57 0 221 119 223 15 223 54 0 49 119 0 17 49 0 2
23 49 49 0 224 46 0 0 +17 224 0 163 224 224 0 49 46 0 0 -15 163 62 0 224 160 225
 15 225 59 0 45 160 0 17 45 0 225 45 45 0 226 30 0 0 +17 226 0 161 226 226 0 45
 30 0 0 -15 161 67 0 226 153 227 15 227 64 0 29 153 0 17 29 0 227 29 29 0 228 23
 0 0 +17 228 0 154 228 228 0 29 23 0 0 -15 154 70 0 228 148 179 17 28 0 149 28 2
8 0 22 10 0 0 -83 1 151 16 81 1 40 400 24 38 0 0 77 144 229 83 1 147 15 83 1 229
 14 83 1 79 13 83 1 26 0 19 16 79 0 1 0 9 6 0 S0 74 4 CI16 index_map_offset0 0 1
 dCCZ20 14 7 0 0 203 182 204 152 209 12 2 0 0 0 0 0 0 0 0 0 0 0 0 0 80 1 11 230
 231 8017 0 0 0 0 0 0 0 0 0 TTTTTTTTTTTTTFTFT3 84 255 13 13 Bateria 1865079 13 2
31 SDL/TYSA_NAME1 0 
