**ABCDEFGHIJKLMNOPQRSTUVWXYZabcdefghijklmnopqrstuvwxyz**************************
**PARASOLID !"#$%&'()*+,-./:;<=>?@[\]^_`{|}~0123456789**************************
**PART1;
MC=unknown;
MC_MODEL=unknown;
MC_ID=unknown;
OS=unknown;
OS_RELEASE=unknown;
FRU=Parasolid 37.0.173;
APPL=Onshape;
SITE=unknown;
USER=unknown;
FORMAT=text;
GUISE=transmit;
KEY=BTGapi::writeModels_.xmt;
FILE=BTGapi::writeModels_.xmt;
DATE=2024-12-29T04:00:25 (UTC);
**PART2;
SCH=SCH_3700173_36001;
USFLD_SIZE=0;
**PART3;
**END_OF_HEADER*****************************************************************
T51 : TRANSMIT FILE created by modeller version 370017323 SCH_3700173_36001_1300
6231 0 12 36 CCCI7 lattice222 0 CCCI4 mesh1006 0 I8 polyline1008 0 CCCCCCCDI5 ow
ner1040 0 CCCI16 boundary_lattice222 0 CCCI13 boundary_mesh1006 0 I17 boundary_p
olyline1008 0 CCCA16 index_map_offset0 0 1 dA9 index_map82 0 A17 node_id_index_m
ap82 0 A20 schema_embedding_map82 0 A5 child12 0 A14 lowest_node_id0 0 1 dA16 me
sh_offset_data206 0 Z1 481 2 3 0 0 0 0 0 0 0 1e3 1e-8 0 4 5 1 0 3 2 6 0 7 8 9 0
 0 10 11 12 0 0 0 0 0 0 0 81 255 1 2 430 13 1 14 0 0 0 15 70 11 CI9 list_type0 0
 1 uI10 notransmit0 0 1 lCCCDCCDI12 finger_index0 0 1 dI12 finger_block1012 0 CZ
3 0 4 T1 0 0 5 20 1 16 16 13 255 6 2 0 1 0 17 0 0 10 17 50 255 7 132 0 17 0 0 0
 +.0014665 0 8e-4 0 -1 0 1 0 0 31 255 8 379 0 1 18 0 19 +.001501850058151355 208
854272001493e-34 .0004457915994039845 332385392318901e-31 1 514256644719808e-31
 .3544430254384995 -598681559709735e-31 .935077612670736 .0003488570319465895 29
 255 9 178 0 12 20 0 .001659 0 3995e-7 19 9 CCCCCCI5 frame230 0 CA5 owner12 0 Z1
0 1 0 1 0 0 6 0 V0 16 255 11 53 21 ?22 0 23 24 0 0 1 18 255 12 52 25 22 0 26 9 5
e-7 1 81 1 25 380 27 12 0 0 0 28 29 17 255 22 0 0 0 0 12 30 11 0 31 +18 26 50 28
 32 12 33 20 5e-7 1 81 1 28 381 27 26 0 0 25 34 35 17 32 0 0 0 0 26 31 23 0 36 +
18 33 48 34 37 26 38 39 5e-7 1 29 20 176 0 26 39 9 .0016115 0 5785e-7 29 39 174
 0 33 40 20 .0014665 0 64e-5 29 40 172 0 38 41 39 .0013185 0 578e-6 18 38 46 42
 43 33 44 40 5e-7 1 29 41 170 0 44 45 40 .0012705 0 3995e-7 18 44 44 46 47 38 48
 41 5e-7 1 29 45 168 0 48 49 41 .0013185 0 221e-6 18 48 42 50 51 44 52 45 5e-7 1
 29 49 166 0 52 53 45 .0016115 0 221e-6 18 52 40 54 30 48 55 49 5e-7 1 29 53 165
 0 55 56 49 .0014665 0 16e-5 18 55 39 57 58 52 59 53 5e-7 1 29 56 162 0 59 60 53
 .0017485 0 6925e-7 18 59 35 61 62 55 63 56 5e-7 1 29 60 160 0 63 64 56 .001827
 0 5665e-7 18 63 33 65 66 59 67 60 5e-7 1 29 64 158 0 67 68 60 .001855 0 401e-6
 18 67 31 69 70 63 71 64 5e-7 1 29 68 156 0 71 72 64 .001827 0 2345e-7 18 71 29
 73 74 67 75 68 5e-7 1 29 72 154 0 75 76 68 .0017485 0 108e-6 18 75 27 77 78 71
 79 72 5e-7 1 29 76 152 0 79 80 72 .0016255 0 28e-6 18 79 25 81 82 75 83 76 5e-7
 1 29 80 150 0 83 84 76 .0014665 0 0 18 83 23 85 86 79 87 80 5e-7 1 29 84 148 0
 87 88 80 .0013055 0 28e-6 18 87 21 89 90 83 91 84 5e-7 1 29 88 146 0 91 92 84 .
0011825 0 108e-6 18 91 19 93 94 87 95 88 5e-7 1 29 92 144 0 95 96 88 .0011035 0
 2345e-7 18 95 17 97 98 91 99 92 5e-7 1 29 96 142 0 99 100 92 .0010755 0 401e-6
 18 99 15 101 102 95 103 96 5e-7 1 29 100 140 0 103 104 96 .0011035 0 5665e-7 18
 103 13 105 106 99 107 100 5e-7 1 29 104 138 0 107 108 100 .0011825 0 6925e-7 18
 107 11 109 110 103 111 104 5e-7 1 29 108 136 0 111 112 104 .0013055 0 772e-6 18
 111 9 113 114 107 115 108 5e-7 1 29 112 134 0 115 116 108 .0016255 0 772e-6 18
 115 7 117 118 111 119 112 5e-7 1 29 116 133 0 119 0 112 .0014665 0 8e-4 18 119
 6 120 121 115 0 116 5e-7 1 81 1 120 403 27 119 0 0 117 21 122 17 121 0 0 0 0 11
9 123 124 0 125 +17 123 0 126 127 125 111 121 124 0 0 -16 124 8 128 ?121 129 130
 131 0 0 1 17 125 0 126 123 118 119 132 130 0 0 -15 255 126 4 0 125 17 0 17 118
 0 126 125 133 115 62 134 0 132 -17 132 0 0 0 0 115 125 130 0 0 +16 130 5 135 ?1
32 124 0 136 0 0 1 81 1 135 427 27 130 0 0 128 137 138 133 255 136 318 0 130 139
 140 0 +140 .0014665 3009265538105055e-51 8e-4 .0016255 3009265538105055e-51 772
e-6 0 .374537280997152 134 255 139 180 0 1 24 136 141 +142 143 31 140 319 0 1 13
6 131 144 +.00147211705738388 2608530226957975e-35 .000366450433001325 106196455
781145e-31 1 603044159614359e-31 -.01295488783460012 -601617790132935e-31 .99991
6081919474 .0004335859526995685 133 131 322 0 124 140 145 0 +145 .0013055 0 772e
-6 .0014665 3009265538105055e-51 8e-4 0 .3697767146700815 141 255 144 136 144 14
4 140 31 145 323 0 1 131 146 147 +.001460856586512022 2675156138042535e-35 .0003
555746275558775 -1049162106106316e-32 1 603268211011131e-31 -.349539140714861 -6
01887437644698e-31 .936921762533199 .000444461201667697 133 146 326 0 129 145 14
8 0 +148 .0011825 902779661431517e-50 6925e-7 .0013055 902779661431517e-50 772e-
6 2330902217473345e-31 .4229613172309145 141 147 131 147 147 145 16 129 10 149 ?
114 150 124 146 0 0 1 31 148 327 0 1 146 151 152 +.001429149941853088 2088542720
06505e-34 .0004457915993971105 -332385392318901e-31 1 514256644719808e-31 -.7070
22990109002 -598681559710368e-31 .707190562336154 .000348857031954592 133 151 33
0 0 150 148 153 0 +153 .0011035 3009265538105055e-51 5665e-7 .0011825 3009265538
105055e-51 6925e-7 383642773083275e-31 .424160634434302 141 152 146 152 152 148
 16 150 12 154 ?110 155 129 151 0 0 1 31 153 331 0 1 151 156 157 +.0014355901710
76956 2114623979731155e-35 .0004460506070231775 -518786053205498e-31 1 325270620
6605915e-32 -.940075549589371 -598604377080454e-31 .3409662168958115 .0003532590
23939102 133 156 334 0 155 153 158 0 +158 .0010755 1203706215242022e-50 401e-6 .
0011035 1203706215242022e-50 5665e-7 0 .3624614986891425 141 157 151 157 157 153
 16 155 14 159 ?106 160 150 156 0 0 1 31 158 335 0 1 156 161 162 +.0015410902914
6807 2804488326113885e-35 .0004073480171534385 -603743783739371e-31 1 1021439634
12099e-31 -.999907065319291 -602295138724786e-31 -.01363307465556622 .0004656335
64974758 133 161 338 0 160 158 163 0 +163 .0011035 1203706215242022e-50 2345e-7
 .0010755 1203706215242022e-50 401e-6 660784043941654e-48 .36021410327699 141 16
2 156 162 162 158 16 160 16 164 ?102 165 155 161 0 0 1 31 163 339 0 1 161 166 16
7 +.001546716287609065 2838954002736345e-35 .000394639225543867 -603844408427457
e-31 1 -1015474080238366e-32 -.940493622336527 -602418775736722e-31 -.3398113393
40402 .000471259216524995 133 166 342 0 165 163 168 0 +168 .0011825 0 108e-6 .00
11035 0 2345e-7 75119491434009e-47 .412282327368101 141 167 161 167 167 163 16 1
65 18 169 ?98 170 160 166 0 0 1 31 168 343 0 1 166 171 172 +.00144547007212141 2
183593847467075e-35 .0003601443533406435 -519364498751365e-31 1 -324346208706387
5e-32 -.721808053024146 -59935931527145e-30 -.692093299049695 .00036432133310185
2 133 171 346 0 170 168 173 0 +173 .0013055 3009265538105055e-51 28e-6 .0011825
 3009265538105055e-51 108e-6 3923021122190845e-32 .427988410643474 141 172 166 1
72 172 168 16 170 20 174 ?94 175 165 171 0 0 1 31 173 347 0 1 171 176 177 +.0014
28058944339044 206709161246555e-34 .0003509906269212805 -333855791265149e-31 1 -
513303279070167e-31 -.3547687614410575 -598356599018108e-31 -.934954076896603 .0
00345461488326127 133 176 350 0 175 173 178 0 +178 .0014665 -601853107621011e-50
 -1084202172485504e-34 .0013055 -601853107621011e-50 28e-6 3811504551809175e-33
 .369776714394171 141 177 171 177 177 173 16 175 22 179 ?90 180 170 176 0 0 1 31
 178 351 0 1 176 181 182 +.00146085658656917 267515614008484e-34 .00044442537277
27235 -1049162106106318e-32 1 -603268211011131e-31 .01269720147786258 -601887437
660227e-31 -.999919387288111 .000444461201995546 133 181 354 0 180 178 183 0 +18
3 .0016255 902779661431517e-50 28e-6 .0014665 601853107621011e-50 54210108624275
2e-34 0 .374537280997148 141 182 176 182 182 178 16 180 24 184 ?86 185 175 181 0
 0 1 31 183 355 0 1 181 186 187 +.00147211705738388 2608530226958005e-35 .000433
5495669986795 1061964557811452e-32 1 -603044159614359e-31 .353754409387883 -6016
17790132935e-31 -.935338344043817 .000433585952699573 133 186 358 0 185 183 188
 0 +188 .0017485 -3009265538105055e-51 108e-6 .0016255 -3009265538105055e-51 28e
-6 784604224452787e-31 .427988410651572 141 187 181 187 187 183 16 185 26 189 ?8
2 190 180 186 0 0 1 31 188 359 0 1 186 191 192 +.001502941055664545 206709161242
522e-34 .000350990626915759 333855791265149e-31 1 -513303279070167e-31 .71081423
7297017 -598356599017582e-31 -.703379783655929 .0003454614883196905 133 191 362
 0 190 188 193 0 +193 .001827 -601853107621011e-50 2345e-7 .0017485 -60185310762
1011e-50 108e-6 761679916679228e-48 .418394927903177 141 192 186 192 192 188 16
 190 28 194 ?78 195 185 191 0 0 1 31 193 363 0 1 191 196 197 +.00148982758048529
2 214695274808829e-34 .000356126758354977 520286326212031e-31 1 -322865427728415
5e-32 .94066966012385 -59897346133855e-30 -.3393237252572825 .000358438710004014
 133 196 366 0 195 193 198 0 +198 .001855 -601853107621011e-50 401e-6 .001827 -6
01853107621011e-50 2345e-7 539214672659491e-32 .3602141032769945 141 197 191 197
 197 193 16 195 30 199 ?74 200 190 196 0 0 1 31 198 367 0 1 196 201 202 +.001383
78371239094 2838954002736305e-35 .0003946392255438655 603844408427457e-31 1 -101
547408023836e-31 .999908905938763 -602418775736722e-31 .0134974006514677 .000471
259216524989 133 201 370 0 200 198 203 0 +203 .001827 601853107621011e-50 5665e-
7 .001855 601853107621011e-50 401e-6 582111263849177e-31 .362461498522401 141 20
2 196 202 202 198 16 200 32 204 ?70 205 195 201 0 0 1 31 203 371 0 1 201 206 207
 +.001389409708319568 280448832743271e-34 .0004073480171175105 603743783739371e-
31 1 1021439634120982e-32 .939773943283191 -602295138733987e-31 .34179662889789
 .000465633565186611 133 206 374 0 205 203 208 0 +208 .0017485 -902779661431517e
-50 6925e-7 .001827 -601853107621011e-50 5665e-7 0 .430255585803142 141 207 201
 207 207 203 16 205 34 209 ?66 134 200 206 0 0 1 31 208 375 0 1 206 18 210 +.001
499432493447 208003133270153e-34 .0004498736169491225 519712124244697e-31 1 3237
88902803245e-31 .716308325524556 -598208807558361e-31 .697783908372934 .00034770
9914401186 133 18 378 0 134 208 8 0 +8 .0016255 902779661431517e-50 772e-6 .0017
485 0 6925e-7 776967405842272e-31 .422961317240765 141 210 206 210 210 208 16 13
4 36 211 ?62 212 205 18 0 0 1 81 1 211 412 27 134 0 0 213 209 214 17 62 0 0 0 0
 59 118 134 0 133 +16 212 38 213 ?215 216 134 217 0 0 1 81 1 213 411 27 212 0 0
 218 211 219 17 215 0 0 0 0 52 220 212 0 0 +16 216 41 218 ?58 221 212 222 0 0 1
 133 217 268 0 212 0 223 0 +223 .0014665 0 16e-5 .0016115 0 221e-6 0 1 134 223 1
67 0 1 217 222 224 +225 226 133 222 270 0 216 223 227 0 +227 .0013185 0 221e-6 .
0014665 0 16e-5 0 1 141 224 217 224 224 223 136 255 225 3 4 3 2 1 FFF1 228 229 2
30 135 255 226 2 0 45 255 12 228 .0014665 0 16e-5 .00153183333333333 0 16e-5 .00
158016666666667 0 .000180333333333333 .0016115 0 221e-6 127 255 2 229 4 4 128 25
5 2 230 0 1 134 227 169 0 1 222 231 232 +233 234 133 231 272 0 221 227 235 0 +23
5 .0012705 0 3995e-7 .0013185 0 221e-6 0 1 141 232 222 232 232 227 136 233 3 4 3
 2 1 FFF1 236 237 238 135 234 2 0 45 12 236 .0013185 0 221e-6 .0013505 0 .000180
333333333333 .00139983333333333 0 16e-5 .0014665 0 16e-5 127 2 237 4 4 128 2 238
 0 1 16 221 43 239 ?51 240 216 231 0 0 1 134 235 171 0 1 231 241 242 +243 244 13
3 241 274 0 240 235 245 0 +245 .0013185 0 578e-6 .0012705 0 3995e-7 0 1 141 242
 231 242 242 235 136 243 3 4 3 2 1 FFF1 246 247 248 135 244 2 0 45 12 246 .00127
05 0 3995e-7 .0012705 0 3215e-7 .0012865 0 262e-6 .0013185 0 221e-6 127 2 247 4
 4 128 2 248 0 1 16 240 45 249 ?47 250 221 241 0 0 1 134 245 173 0 1 241 251 252
 +253 254 133 251 276 0 250 245 255 0 +255 .0014665 0 64e-5 .0013185 0 578e-6 0
 1 141 252 241 252 252 245 136 253 3 4 3 2 1 FFF1 256 257 258 135 254 2 0 45 12
 256 .0013185 0 578e-6 .0012865 0 .000536666666666667 .0012705 0 .00047716666666
6667 .0012705 0 3995e-7 127 2 257 4 4 128 2 258 0 1 16 250 47 259 ?43 260 240 25
1 0 0 1 134 255 175 0 1 251 261 262 +263 264 133 261 278 0 260 255 265 0 +265 .0
016115 0 5785e-7 .0014665 0 64e-5 0 1 141 262 251 262 262 255 136 263 3 4 3 2 1
 FFF1 266 267 268 135 264 2 0 45 12 266 .0014665 0 64e-5 .00139983333333333 0 64
e-5 .0013505 0 .000619333333333334 .0013185 0 578e-6 127 2 267 4 4 128 2 268 0 1
 16 260 49 269 ?37 23 250 261 0 0 1 134 265 177 0 1 261 270 271 +272 273 133 270
 280 0 23 265 274 0 +274 .001659 0 3995e-7 .0016115 0 5785e-7 0 1 141 271 261 27
1 271 265 136 272 3 4 3 2 1 FFF1 275 276 277 135 273 2 0 45 12 275 .0016115 0 57
85e-7 .00158016666666667 0 6195e-7 .00153183333333333 0 64e-5 .0014665 0 64e-5 1
27 2 276 4 4 128 2 277 0 1 16 23 51 278 ?32 11 260 270 0 0 1 134 274 179 0 1 270
 24 279 +280 281 133 24 282 0 11 274 139 0 +139 .0016115 0 221e-6 .001659 0 3995
e-7 0 1 141 279 270 279 279 274 136 280 3 4 3 2 1 FFF1 282 283 284 135 281 2 0 4
5 12 282 .001659 0 3995e-7 .001659 0 .000477833333333333 .00164316666666667 0 53
75e-7 .0016115 0 5785e-7 127 2 283 4 4 128 2 284 0 1 81 1 278 405 27 23 0 0 21 2
69 285 80 7 CCCCCDI12 legal_owners0 17 1 lCZ1 27 286 287 9000 0 0 0 0 3 5 0 0 0
 FFTFTFTTFFFFFFFFF2 81 1 21 404 27 11 0 0 120 278 288 81 1 269 406 27 260 0 0 27
8 259 289 83 255 1 285 1117 81 1 259 407 27 250 0 0 269 249 290 83 1 289 1118 81
 1 249 408 27 240 0 0 259 239 291 83 1 290 1119 81 1 239 409 27 221 0 0 249 218
 292 83 1 291 1120 81 1 218 410 27 216 0 0 239 213 293 83 1 292 1121 83 1 293 11
22 83 1 288 1116 79 255 13 287 BTI/importTag17 37 0 0 0 0 33 36 260 0 294 +17 36
 0 295 31 294 26 37 260 0 0 -17 294 0 295 36 296 33 43 250 0 0 -15 295 37 0 220
 17 126 17 296 0 295 294 297 38 47 240 0 0 -17 43 0 0 0 0 38 294 250 0 296 +17 2
97 0 295 296 298 44 51 221 0 0 -17 47 0 0 0 0 44 296 240 0 297 +17 298 0 295 297
 220 48 58 216 0 0 -17 51 0 0 0 0 48 297 221 0 298 +17 220 0 295 298 30 55 215 2
12 0 0 -17 58 0 0 0 0 55 298 216 0 220 +17 30 0 295 220 31 52 22 11 0 215 -17 31
 0 295 30 36 12 32 23 0 0 -14 255 17 3 137 ?0 0 295 6 7 +0 0 0 0 6 81 1 137 428
 27 17 0 0 135 14 299 81 1 14 429 27 1 300 2 137 0 301 83 1 299 1140 81 1 300 31
4 302 1 303 14 0 0 304 83 1 301 1141 80 1 302 305 306 9000 0 0 0 0 3 5 0 0 0 TTT
FFFFFFFFFFFFFF1 81 1 303 235 307 1 308 300 0 0 309 82 255 1 304 1 80 1 307 310 3
11 8038 0 0 0 0 0 0 0 0 0 TTTTTTTTTTTTTFTFT10 81 1 308 234 310 1 0 303 0 0 312 9
8 255 19 309 72 67 45 48 52 83 104 97 112 101 83 116 114 105 110 103 48 49 49 80
 1 310 313 314 8017 0 0 0 0 0 0 0 0 0 TTTTTTTTTTTTTFTFT3 84 255 19 312 HC-04Shap
eString01179 13 314 SDL/TYSA_NAME79 14 311 SDL/TYSA_UNAME79 23 306 ONSHAPE_ORIGI
NALBODY_ID83 1 219 1123 17 133 0 126 118 315 59 66 205 0 0 -17 315 0 126 133 316
 63 70 200 0 0 -17 66 0 0 0 0 63 133 205 0 315 +17 316 0 126 315 317 67 74 195 0
 0 -17 70 0 0 0 0 67 315 200 0 316 +17 317 0 126 316 318 71 78 190 0 0 -17 74 0
 0 0 0 71 316 195 0 317 +17 318 0 126 317 319 75 82 185 0 0 -17 78 0 0 0 0 75 31
7 190 0 318 +17 319 0 126 318 320 79 86 180 0 0 -17 82 0 0 0 0 79 318 185 0 319
 +17 320 0 126 319 321 83 90 175 0 0 -17 86 0 0 0 0 83 319 180 0 320 +17 321 0 1
26 320 322 87 94 170 0 0 -17 90 0 0 0 0 87 320 175 0 321 +17 322 0 126 321 323 9
1 98 165 0 0 -17 94 0 0 0 0 91 321 170 0 322 +17 323 0 126 322 324 95 102 160 0
 0 -17 98 0 0 0 0 95 322 165 0 323 +17 324 0 126 323 325 99 106 155 0 0 -17 102
 0 0 0 0 99 323 160 0 324 +17 325 0 126 324 127 103 110 150 0 0 -17 106 0 0 0 0
 103 324 155 0 325 +17 127 0 126 325 123 107 114 129 0 0 -17 110 0 0 0 0 107 325
 150 0 127 +17 114 0 0 0 0 111 127 129 0 123 +81 1 209 413 27 205 0 0 211 204 32
6 83 1 214 1124 81 1 204 414 27 200 0 0 209 199 327 83 1 326 1125 81 1 199 415 2
7 195 0 0 204 194 328 83 1 327 1126 81 1 194 416 27 190 0 0 199 189 329 83 1 328
 1127 81 1 189 417 27 185 0 0 194 184 330 83 1 329 1128 81 1 184 418 27 180 0 0
 189 179 331 83 1 330 1129 81 1 179 419 27 175 0 0 184 174 332 83 1 331 1130 81
 1 174 420 27 170 0 0 179 169 333 83 1 332 1131 81 1 169 421 27 165 0 0 174 164
 334 83 1 333 1132 81 1 164 422 27 160 0 0 169 159 335 83 1 334 1133 81 1 159 42
3 27 155 0 0 164 154 336 83 1 335 1134 81 1 154 424 27 150 0 0 159 149 337 83 1
 336 1135 81 1 149 425 27 129 0 0 154 128 338 83 1 337 1136 81 1 128 426 27 124
 0 0 149 135 339 83 1 338 1137 83 1 339 1138 141 141 24 141 141 139 136 142 3 4
 3 2 1 FFF1 340 341 342 135 143 2 0 45 12 340 .0016115 0 221e-6 .001643166666666
67 0 .000261666666666667 .001659 0 .000321166666666667 .001659 0 3995e-7 127 2 3
41 4 4 128 2 342 0 1 83 1 138 1139 81 1 117 402 27 115 0 0 113 120 343 83 1 122
 1115 81 1 113 401 27 111 0 0 109 117 344 83 1 343 1114 81 1 109 400 27 107 0 0
 105 113 345 83 1 344 1113 81 1 105 399 27 103 0 0 101 109 346 83 1 345 1112 81
 1 101 398 27 99 0 0 97 105 347 83 1 346 1111 81 1 97 397 27 95 0 0 93 101 348 8
3 1 347 1110 81 1 93 396 27 91 0 0 89 97 349 83 1 348 1109 81 1 89 395 27 87 0 0
 85 93 350 83 1 349 1108 81 1 85 394 27 83 0 0 81 89 351 83 1 350 1107 81 1 81 3
93 27 79 0 0 77 85 352 83 1 351 1106 81 1 77 392 27 75 0 0 73 81 353 83 1 352 11
05 81 1 73 391 27 71 0 0 69 77 354 83 1 353 1104 81 1 69 390 27 67 0 0 65 73 355
 83 1 354 1103 81 1 65 389 27 63 0 0 61 69 356 83 1 355 1102 81 1 61 388 27 59 0
 0 57 65 357 83 1 356 1101 81 1 57 387 27 55 0 0 54 61 358 83 1 357 11e2 81 1 54
 386 27 52 0 0 50 57 359 83 1 358 1099 81 1 50 385 27 48 0 0 46 54 360 83 1 359
 1098 81 1 46 384 27 44 0 0 42 50 361 83 1 360 1097 81 1 42 383 27 38 0 0 34 46
 362 83 1 361 1096 81 1 34 382 27 33 0 0 28 42 363 83 1 362 1095 83 1 363 1094 8
3 1 35 1093 83 1 29 1092 141 19 18 19 19 8 74 4 CI16 index_map_offset0 0 1 dCCZ2
0 16 5 0 0 308 303 300 14 2 0 0 0 0 0 0 0 0 0 0 0 0 0 0 0 80 1 13 27 364 9000 0
 0 0 0 3 5 0 0 0 FFTFTFTTFFFFFFFFF2 83 1 15 17325 79 18 364 BTI/importMaxCount1
 0 
