**ABCDEFGHIJKLMNOPQRSTUVWXYZabcdefghijklmnopqrstuvwxyz**************************
**PARASOLID !"#$%&'()*+,-./:;<=>?@[\]^_`{|}~0123456789**************************
**PART1;
MC=unknown;
MC_MODEL=unknown;
MC_ID=unknown;
OS=unknown;
OS_RELEASE=unknown;
FRU=Parasolid 37.0.173;
APPL=Onshape;
SITE=unknown;
USER=unknown;
FORMAT=text;
GUISE=transmit;
KEY=BTGapi::writeModels_.xmt;
FILE=BTGapi::writeModels_.xmt;
DATE=2024-12-29T04:00:25 (UTC);
**PART2;
SCH=SCH_3700173_36001;
USFLD_SIZE=0;
**PART3;
**END_OF_HEADER*****************************************************************
T51 : TRANSMIT FILE created by modeller version 370017323 SCH_3700173_36001_1300
6231 0 12 36 CCCI7 lattice222 0 CCCI4 mesh1006 0 I8 polyline1008 0 CCCCCCCDI5 ow
ner1040 0 CCCI16 boundary_lattice222 0 CCCI13 boundary_mesh1006 0 I17 boundary_p
olyline1008 0 CCCA16 index_map_offset0 0 1 dA9 index_map82 0 A17 node_id_index_m
ap82 0 A20 schema_embedding_map82 0 A5 child12 0 A14 lowest_node_id0 0 1 dA16 me
sh_offset_data206 0 Z1 763 2 3 0 0 0 0 0 0 0 1e3 1e-8 0 4 5 1 0 3 2 6 0 7 8 9 0
 0 10 11 12 0 0 0 0 0 0 0 81 255 1 2 686 13 1 14 0 0 0 15 70 11 CI9 list_type0 0
 1 uI10 notransmit0 0 1 lCCCDCCDI12 finger_index0 0 1 dI12 finger_block1012 0 CZ
3 0 4 T1 0 0 5 20 1 16 16 13 255 6 2 0 1 0 17 0 0 10 17 50 255 7 195 0 17 0 0 0
 +.002588125 0 32625e-8 0 -1 0 1 0 0 31 255 8 609 0 1 18 0 19 +.0023126063539079
95 3313228854289645e-35 .000566154331110031 3510432894191525e-32 1 -501705645393
039e-31 .745359399074423 -596121934673501e-31 -.666662857981015 .000555797171950
117 29 255 9 267 0 12 20 0 .002726875 0 195625e-9 19 9 CCCCCCI5 frame230 0 CA5 o
wner12 0 Z10 1 0 1 0 0 6 0 V0 16 255 11 78 21 ?22 0 23 24 0 0 1 18 255 12 77 25
 22 0 26 9 5e-7 1 81 1 25 610 27 12 0 0 0 28 29 17 255 22 0 0 0 0 12 30 11 0 31
 +18 26 75 28 32 12 33 20 5e-7 1 81 1 28 611 27 26 0 0 25 34 35 17 32 0 0 0 0 26
 31 23 0 36 +18 33 73 34 37 26 38 39 5e-7 1 29 20 265 0 26 39 9 .00251875 0 5e-5
 29 39 263 0 33 40 20 .002223125 0 0 29 40 261 0 38 41 39 .001945 0 51875e-9 18
 38 71 42 43 33 44 40 5e-7 1 29 41 259 0 44 45 40 .001734375 0 196875e-9 18 44 6
9 46 47 38 48 41 5e-7 1 29 45 257 0 48 49 41 .0016 0 41875e-8 18 48 67 50 51 44
 52 45 5e-7 1 29 49 255 0 52 53 45 .00155375 0 7e-4 18 52 65 54 55 48 56 49 5e-7
 1 29 53 253 0 56 57 49 .00160375 0 9825e-7 18 56 63 58 59 52 60 53 5e-7 1 29 57
 251 0 60 61 53 .001744375 0 .00120375 18 60 61 62 63 56 64 57 5e-7 1 29 61 249
 0 64 65 57 .001960625 0 .001348125 18 64 59 66 67 60 68 61 5e-7 1 29 65 247 0 6
8 69 61 .002239375 0 .0014 18 68 57 70 71 64 72 65 5e-7 1 29 69 245 0 72 73 65 .
00250875 0 .001354375 18 72 55 74 75 68 76 69 5e-7 1 29 73 243 0 76 77 69 .00270
875 0 .001235625 18 76 53 78 79 72 80 73 5e-7 1 29 77 241 0 80 81 73 .0026225 0
 .001116875 18 80 51 82 83 76 84 77 5e-7 1 29 81 239 0 84 85 77 .0026025 0 .0010
9625 18 84 49 86 87 80 88 81 5e-7 1 29 85 237 0 88 89 81 .002569375 0 .001088125
 18 88 47 90 91 84 92 85 5e-7 1 29 89 235 0 92 93 85 .002539375 0 .00109625 18 9
2 45 94 95 88 96 89 5e-7 1 29 93 233 0 96 97 89 .00250625 0 .001116875 18 96 43
 98 99 92 100 93 5e-7 1 29 97 231 0 100 101 93 .00246375 0 .00114375 18 100 41 1
02 103 96 104 97 5e-7 1 29 101 229 0 104 105 97 .002408125 0 .001170625 18 104 3
9 106 107 100 108 101 5e-7 1 29 105 227 0 108 109 101 .002335 0 .00119125 18 108
 37 110 111 104 112 105 5e-7 1 29 109 225 0 112 113 105 .002238125 0 .0012 18 11
2 35 114 115 108 116 109 5e-7 1 29 113 223 0 116 117 109 .0020675 0 .00116625 18
 116 33 118 119 112 120 113 5e-7 1 29 117 221 0 120 121 113 .001935 0 .001068125
 18 120 31 122 123 116 124 117 5e-7 1 29 121 219 0 124 125 117 .00184875 0 91125
e-8 18 124 29 126 127 120 128 121 5e-7 1 29 125 217 0 128 129 121 .001818125 0 7
00625e-9 18 128 27 130 131 124 132 125 5e-7 1 29 129 215 0 132 133 125 .00185125
 0 488125e-9 18 132 25 134 135 128 136 129 5e-7 1 29 133 213 0 136 137 129 .0019
40625 0 33125e-8 18 136 23 138 139 132 140 133 5e-7 1 29 137 211 0 140 141 133 .
002074375 0 23375e-8 18 140 21 142 143 136 144 137 5e-7 1 29 141 209 0 144 145 1
37 .002239375 0 2e-4 18 144 19 146 147 140 148 141 5e-7 1 29 145 207 0 148 149 1
41 .002334375 0 205625e-9 18 148 17 150 151 144 152 145 5e-7 1 29 149 205 0 152
 153 145 .002413125 0 224375e-9 18 152 15 154 155 148 156 149 5e-7 1 29 153 203
 0 156 157 149 .00248125 0 2575e-7 18 156 13 158 159 152 160 153 5e-7 1 29 157 2
01 0 160 161 153 .002545625 0 306875e-9 18 160 11 162 163 156 164 157 5e-7 1 29
 161 199 0 164 165 157 .002565625 0 320625e-9 18 164 9 166 167 160 168 161 5e-7
 1 29 165 197 0 168 169 161 .002625 0 309375e-9 18 168 7 170 30 164 171 165 5e-7
 1 29 169 196 0 171 0 165 .002588125 0 32625e-8 18 171 6 172 173 168 0 169 5e-7
 1 81 1 172 646 27 171 0 0 170 21 174 17 173 0 0 0 0 171 175 176 0 177 +17 175 0
 178 179 177 164 173 176 0 0 -16 176 8 180 ?173 181 182 183 0 0 1 17 177 0 178 1
75 30 171 184 182 0 0 -15 255 178 4 0 177 17 0 17 30 0 178 177 31 168 22 11 0 18
4 -17 184 0 0 0 0 168 177 182 0 0 +16 182 5 185 ?184 176 0 186 0 0 1 81 1 185 68
3 27 182 0 0 180 187 188 133 255 186 472 0 182 189 190 0 +190 .002588125 1504632
76905253e-50 32625e-8 .002625 -1128474576789396e-51 309375e-9 1382901189999616e-
48 .829606032427486 30 255 189 269 0 1 24 186 191 +.002625 0 309375e-9 .66715370
3902115 0 -.744920086566129 31 190 473 0 1 186 183 192 +.00258740175845275 28194
8931238979e-35 .0002759427314337835 2548024340105485e-32 1 556790503948985e-31 .
014374996665354 -560395757373838e-31 .999896674397345 503124671322042e-19 133 18
3 476 0 176 190 193 0 +193 .002565625 1128474576789396e-51 320625e-9 .002588125
 -752316384526264e-51 32625e-8 -888178419700125e-30 .493141475880657 141 255 192
 186 192 192 190 31 193 477 0 1 183 194 195 +.002588049360553705 282116181541588
5e-36 .000278740057785189 -148510238439974e-31 1 594040953759896e-31 -.471992410
194512 -593803761591317e-31 .881602611565311 475100024266525e-19 133 194 480 0 1
81 193 196 0 +196 .002545625 0 306875e-9 .002565625 0 320625e-9 -121353048993422
6e-20 1213530489934226e-20 141 195 183 195 195 193 16 181 10 197 ?167 198 176 19
4 0 0 1 30 196 481 0 1 194 199 200 +.002555625 0 31375e-8 .824041924199369 0 .56
6528822887064 133 199 484 0 198 196 201 0 +201 .00248125 -3009265538105055e-51 2
575e-7 .002545625 -601853107621011e-50 306875e-9 642485576544743e-31 .1926036689
41276 141 200 194 200 200 196 16 198 12 202 ?163 203 181 199 0 0 1 31 201 485 0
 1 199 204 205 +.002257875025406255 25712884682388e-33 .000615389207381713 -3726
558942021075e-32 -1 485867811428059e-31 .529477630573361 -609486236387833e-31 -.
848323899652968 .0004218780203270445 133 204 488 0 203 201 206 0 +206 .002413125
 -3009265538105055e-51 224375e-9 .00248125 0 2575e-7 762355916828409e-31 .213463
32849906 141 205 199 205 205 201 16 203 14 207 ?159 208 198 204 0 0 1 31 206 489
 0 1 204 209 210 +.00229259831682882 216468639081245e-34 .000558866197465259 -26
77600791721e-29 -1 550676389240737e-31 .3389929752330595 -60883902282934e-30 -.9
40788904453405 .000355543306135819 133 209 492 0 208 206 211 0 +211 .002334375 0
 205625e-9 .002413125 0 224375e-9 3595584706846785e-49 .192991012465247 141 210
 204 210 210 206 16 208 16 212 ?155 213 203 209 0 0 1 31 211 493 0 1 209 214 215
 +.00227689695248562 2560454723199665e-35 .000621782799560386 -141826668691082e-
31 -1 595672008502544e-31 .1368171929434542 -60947482219078e-30 -.99059631319477
1 .000420108367068555 133 214 496 0 213 211 216 0 +216 .002239375 0 2e-4 .002334
375 -1203706215242022e-50 205625e-9 2438776075452855e-49 .1304586314396912 141 2
15 209 215 215 211 16 213 18 217 ?151 218 208 214 0 0 1 31 216 497 0 1 214 219 2
20 +.00224381905341519 446041264525597e-34 .000929979597876774 -3619260269619505
e-33 -1 61125284553574e-30 -.00608780173595123 -611021185119565e-31 -.9999814691
63316 .000729993125260159 133 219 500 0 218 216 221 0 +221 .002074375 3009265538
105055e-51 23375e-8 .002239375 -3009265538105055e-51 2e-4 0 .417281864127896 141
 220 214 220 220 216 16 218 20 222 ?147 223 213 219 0 0 1 31 221 501 0 1 219 224
 225 +.002236578556622775 243539268437929e-34 .00060653683237801 122707304580345
2e-32 -1 599902377948355e-31 -.398979148730446 -599044139517698e-31 -.9169599985
15927 .000406546450206502 133 224 504 0 223 221 226 0 +226 .001940625 3009265538
105055e-51 33125e-8 .002074375 601853107621011e-50 23375e-8 211006147805459e-30
 .432870216302793 141 225 219 225 225 221 16 223 22 227 ?143 228 218 224 0 0 1 3
1 226 505 0 1 224 229 230 +.002229212618525965 2304648944969315e-35 .00058664423
3106128 360700996674264e-31 -1 494807777489054e-31 -.748861091714624 -5980374119
18077e-31 -.662726991540243 .0003853686908278275 133 229 508 0 228 226 231 0 +23
1 .00185125 -601853107621011e-50 488125e-9 .001940625 -1203706215242022e-50 3312
5e-8 699115654283793e-48 .382155565676834 141 230 224 230 230 226 16 228 24 232
 ?139 233 223 229 0 0 1 31 231 509 0 1 229 234 235 +.00230142977656792 285760957
025192e-34 .000640705012148256 532036474565479e-31 -1 303112413796269e-31 -.9470
80783379831 -601179184685028e-31 -.320995311106947 .000475334083921933 133 234 5
12 0 233 231 236 0 +236 .001818125 1203706215242022e-50 700625e-9 .00185125 6018
53107621011e-50 488125e-9 534630447544613e-32 .341013959934627 141 235 229 235 2
35 231 16 233 26 237 ?135 238 228 234 0 0 1 31 236 513 0 1 234 239 240 +.0024517
7861950553 382422637377471e-34 .000690568615687627 605016775169792e-31 -1 943114
384823497e-32 -.999874087786807 -603444017245902e-31 .01586847732143375 .0006337
33414282297 133 239 516 0 238 236 241 0 +241 .00184875 0 91125e-8 .001818125 0 7
00625e-9 587374993661413e-48 .3186837310615575 141 240 234 240 240 236 16 238 28
 242 ?131 243 233 239 0 0 1 31 241 517 0 1 239 244 245 +.00248875616670582 40548
6428176066e-34 .000710653776947819 605951588548748e-31 -1 -881057205901736e-32 -
.954227373328258 -604566439211446e-31 .2990821291736645 .000670706148864224 133
 244 520 0 243 241 246 0 +246 .001935 902779661431517e-50 .001068125 .00184875 6
01853107621011e-50 91125e-8 731930557729834e-48 .4010937164674695 141 245 239 24
5 245 241 16 243 30 247 ?127 248 238 244 0 0 1 31 246 521 0 1 244 249 250 +.0022
77735491374855 2696270792824285e-35 .000777541094383546 536572632302239e-31 -1 -
2950080607876855e-32 -.762752775417864 -600051083783305e-31 .646690191353128 .00
0449340208807619 133 249 524 0 248 246 251 0 +251 .0020675 601853107621011e-50 .
00116625 .001935 3009265538105055e-51 .001068125 814131594871374e-48 .4492311133
80173 141 250 244 250 250 246 16 248 32 252 ?123 253 243 249 0 0 1 31 251 525 0
 1 249 254 255 +.002215992955706975 2209443545824825e-35 .000827216120319245 364
416245425072e-31 -1 -492077987452963e-31 -.4011944101417595 -59694171746295e-30
 .915992928614084 .000370127180123235 133 254 528 0 253 251 256 0 +256 .00223812
5 -601853107621011e-50 .0012 .0020675 -601853107621011e-50 .00116625 99978495431
3774e-32 .4135347089549405 141 255 249 255 255 251 16 253 34 257 ?119 258 248 25
4 0 0 1 31 256 529 0 1 254 259 260 +.00223325956892574 2538598467669095e-35 .000
776420373764316 118816819737773e-31 -1 -600685033118744e-31 .01148570383257146 -
599280715407067e-31 .999934037128185 .0004236075686074315 133 259 532 0 258 256
 261 0 +261 .002335 0 .00119125 .002238125 601853107621011e-50 .0012 37876389615
18305e-49 .2034401932142975 141 260 254 260 260 256 16 258 36 262 ?115 263 253 2
59 0 0 1 31 261 533 0 1 259 264 265 +.002243700760938065 291755225495318e-34 .00
0721084317528553 -550824002816982e-32 -1 -609840860261652e-31 .1906244780857135
 -609158281714649e-31 .981663031979176 .000478948139183284 133 264 536 0 263 261
 266 0 +266 .002408125 -3009265538105055e-51 .001170625 .002335 -601853107621011
e-50 .00119125 348084264402053e-48 .1867584330786565 141 265 259 265 265 261 16
 263 38 267 ?111 268 258 264 0 0 1 31 266 537 0 1 264 269 270 +.0022614468977385
3 2483839937157255e-35 .000790527637436606 -1662214110949815e-32 -1 -58933045751
8579e-31 .3600197454661585 -609655707407486e-31 .932944683716287 .00040741682673
9733 133 269 540 0 268 266 271 0 +271 .00246375 0 .00114375 .002408125 300926553
8105055e-51 .001170625 382371384897358e-48 .205405414906807 141 270 264 270 270
 266 16 268 40 272 ?107 273 263 269 0 0 1 31 271 541 0 1 269 274 275 +.002305559
03661495 183512453049697e-34 .000887334401365825 -2663802546647845e-32 -1 -55134
5178259672e-31 .525052236635049 -609096890633346e-31 .851070002293896 .000301286
143258552 133 274 544 0 273 271 276 0 +276 .00250625 0 .001116875 .00246375 0 .0
0114375 -2514217385688835e-20 2514217385688835e-20 141 275 269 275 275 271 16 27
3 42 277 ?103 278 268 274 0 0 1 30 276 545 0 1 274 279 280 +.002485 0 .001130312
5 -.845193423645745 0 .534460547305397 133 279 548 0 278 276 281 0 +281 .0025393
75 0 .00109625 .00250625 0 .001116875 -195106140984851e-19 195106140984846e-19 1
41 280 274 280 280 276 16 278 44 282 ?99 283 273 279 0 0 1 30 281 549 0 1 279 28
4 285 +.0025228125 0 .0011065625 -.848896908954089 0 .528558452745004 133 284 55
2 0 283 281 286 0 +286 .002569375 -451389830715758e-50 .001088125 .002539375 -37
6158192263132e-50 .00109625 866859574242785e-48 .480699095860492 141 285 279 285
 285 281 16 283 46 287 ?95 288 278 284 0 0 1 31 286 553 0 1 284 289 290 +.002570
950731998725 3882596674738765e-36 .001153390202764516 -160070812799131e-31 1 -59
1030693412187e-31 -.0241364904711616 -594722057552689e-31 -.999708672478005 6528
42218550939e-19 133 289 556 0 288 286 291 0 +291 .0026025 376158192263132e-50 .0
0109625 .002569375 -150463276905253e-50 .001088125 1042121516756448e-48 .5894298
41673195 141 290 284 290 290 286 16 288 48 292 ?91 293 283 289 0 0 1 31 291 557
 0 1 289 294 295 +.00257255441596235 34399810925878e-34 .00114674930415349 14586
86157526886e-32 1 -594695125760973e-31 .510055375686696 -585923068432765e-31 -.8
60141566100083 587104566780261e-19 133 294 560 0 293 291 296 0 +296 .0026225 451
389830715758e-50 .001116875 .0026025 225694915357879e-50 .00109625 7291336321025
41e-48 .39947372407558 141 295 289 295 295 291 16 293 50 297 ?87 298 288 294 0 0
 1 31 296 561 0 1 294 299 300 +.0025615579989057 434502886134351e-35 .0011559608
0409144 4395872094732295e-32 1 -4262663849437385e-32 .841750979135769 -600149688
6769e-29 -.539865991820169 723990854835337e-19 133 299 564 0 301 296 302 0 +302
 .00250875 0 .001354375 .00270875 0 .001235625 668953021509528e-48 .364874532657
276 141 300 294 300 300 296 16 301 54 303 ?79 304 298 299 0 0 1 31 302 565 0 1 2
99 305 306 +.00228691443544697 3859989969161615e-35 .000752961154437001 31261482
55585665e-32 1 526509179888111e-31 .3460652666086505 -602161542706693e-31 .93821
0440811167 .000641022332945926 133 305 568 0 304 302 307 0 +307 .002239375 0 .00
14 .00250875 -601853107621011e-50 .001354375 0 .3700558591824865 141 306 299 306
 306 302 16 304 56 308 ?75 309 301 305 0 0 1 31 307 569 0 1 305 310 311 +.002252
180507663265 4469063452909405e-35 .000657582860313242 1022550430663144e-32 1 603
72498029564e-30 -.0172458346363225 -601871720472362e-31 .99985127953496 .0007425
27568732085 133 310 572 0 309 307 312 0 +312 .001960625 -1805559322863035e-50 .0
01348125 .002239375 -1805559322863035e-50 .0014 716050784357681e-48 .39191067401
9347 141 311 305 311 311 307 16 309 58 313 ?71 314 304 310 0 0 1 31 312 573 0 1
 310 315 316 +.00223066579577386 437313256200113e-34 .0006719306335525 -11202913
6261463e-31 1 601987888826656e-31 -.3708732850555505 -600604821432592e-31 .92868
3480219232 .000728121454564771 133 315 576 0 314 312 317 0 +317 .001744375 18055
59322863035e-50 .00120375 .001960625 1805559322863035e-50 .001348125 75626869599
6682e-48 .4152382093929495 141 316 310 316 316 312 16 314 60 318 ?67 319 309 315
 0 0 1 31 317 577 0 1 315 320 321 +.002195181741076025 377902287128269e-34 .0007
62656623756255 -339995490252169e-31 1 509257314403683e-31 -.714765241464724 -599
173425988668e-31 .69936446120308 .000630706020556085 133 320 580 0 319 317 322 0
 +322 .00160375 -601853107621011e-50 9825e-7 .001744375 -601853107621011e-50 .00
120375 209416480983501e-30 .4079146559163485 141 321 315 321 321 317 16 319 62 3
23 ?63 324 314 320 0 0 1 31 322 581 0 1 320 325 326 +.002208913500926125 3880555
819997365e-35 .000753177329919835 -516773922418406e-31 1 3284580015371225e-32 -.
9351112845906 -599631592488628e-31 .354354180773019 .000647156665627313 133 325
 584 0 324 322 327 0 +327 .00155375 1805559322863035e-50 7e-4 .00160375 12037062
15242022e-50 9825e-7 0 .37366147700189 141 326 320 326 326 322 16 324 64 328 ?59
 329 319 325 0 0 1 31 327 585 0 1 325 330 331 +.002325964757223595 4646481922949
64e-34 .000708999600491399 -602952223035873e-31 1 1067172076169684e-32 -.9999320
95894159 -601667653238599e-31 -.0116534801975681 .000772267197337102 133 330 588
 0 329 327 332 0 +332 .0016 -601853107621011e-50 41875e-8 .00155375 -12037062152
42022e-50 7e-4 635977114885202e-48 .346111126883931 141 331 325 331 331 327 16 3
29 66 333 ?55 334 324 330 0 0 1 31 332 589 0 1 330 335 336 +.002381347062165545
 499213037974885e-34 .00069166596133389 -60420840068866e-30 1 -993587147799131e-
32 -.944067449476319 -603177259283562e-31 -.3297524083904145 .000827639023672474
 133 335 592 0 334 332 337 0 +337 .001734375 0 196875e-9 .0016 601853107621011e-
50 41875e-8 0 .4082233638516045 141 336 330 336 336 332 16 334 68 338 ?51 339 32
9 335 0 0 1 31 337 593 0 1 335 340 341 +.002203132295054005 3836649942707125e-35
 .000632398784328481 -523756702691122e-31 1 -317204763601665e-31 -.7325993001392
68 -599612441782435e-31 -.68066016883277 .00063985495886345 133 340 596 0 339 33
7 342 0 +342 .001945 -601853107621011e-50 51875e-9 .001734375 -601853107621011e-
50 196875e-9 753453540279864e-48 .4135976832015145 141 341 335 341 341 337 16 33
9 70 343 ?47 344 334 340 0 0 1 31 342 597 0 1 340 345 346 +.002185257789118885 3
73162431221151e-34 .00062634563548735 -347216371706634e-31 1 -504361712349723e-3
1 -.385839775500214 -599276756918114e-31 -.92256580667286 .000622687976654066 13
3 345 600 0 344 342 347 0 +347 .002223125 0 0 .001945 -601853107621011e-50 51875
e-9 237007150410242e-32 .3984498727843275 141 346 340 346 346 342 16 344 72 348
 ?43 349 339 345 0 0 1 31 347 601 0 1 345 350 351 +.002212527494940935 429015895
249441e-34 .000714695605406213 -1122724326917136e-32 1 -601942560817018e-31 .014
8263682283493 -60021180488533e-30 -.999890083361745 .000714774170980199 133 350
 604 0 349 347 352 0 +352 .00251875 601853107621011e-50 5e-5 .002223125 0 0 6875
72997059414e-31 .3826101539832775 141 351 345 351 351 347 16 349 74 353 ?37 23 3
44 350 0 0 1 31 352 605 0 1 350 18 354 +.00224185429211643 473965023486859e-34 .
0007882044666116 1021139716051876e-32 1 -603748857115671e-31 .351200203382619 -6
01152736953314e-31 -.93630038830709 .000788426957662953 133 18 608 0 23 352 8 0
 +8 .002726875 601853107621011e-50 195625e-9 .00251875 0 5e-5 0 .46109877663197
 141 354 350 354 354 352 16 23 76 355 ?32 11 349 18 0 0 1 81 1 355 648 27 23 0 0
 21 353 356 80 7 CCCCCDI12 legal_owners0 17 1 lCZ1 27 357 358 9000 0 0 0 0 3 5 0
 0 0 FFTFTFTTFFFFFFFFF2 81 1 21 647 27 11 0 0 172 355 359 81 1 353 649 27 349 0
 0 355 348 360 83 255 1 356 6492 81 1 348 650 27 344 0 0 353 343 361 83 1 360 64
93 81 1 343 651 27 339 0 0 348 338 362 83 1 361 6494 81 1 338 652 27 334 0 0 343
 333 363 83 1 362 6495 81 1 333 653 27 329 0 0 338 328 364 83 1 363 6496 81 1 32
8 654 27 324 0 0 333 323 365 83 1 364 6497 81 1 323 655 27 319 0 0 328 318 366 8
3 1 365 6498 81 1 318 656 27 314 0 0 323 313 367 83 1 366 6499 81 1 313 657 27 3
09 0 0 318 308 368 83 1 367 65e2 81 1 308 658 27 304 0 0 313 303 369 83 1 368 65
01 81 1 303 659 27 301 0 0 308 370 371 83 1 369 6502 81 1 370 660 27 298 0 0 303
 297 372 83 1 371 6503 16 298 52 370 ?83 301 293 373 0 0 1 81 1 297 661 27 293 0
 0 370 292 374 83 1 372 6504 81 1 292 662 27 288 0 0 297 287 375 83 1 374 6505 8
1 1 287 663 27 283 0 0 292 282 376 83 1 375 6506 81 1 282 664 27 278 0 0 287 277
 377 83 1 376 6507 81 1 277 665 27 273 0 0 282 272 378 83 1 377 6508 81 1 272 66
6 27 268 0 0 277 267 379 83 1 378 6509 81 1 267 667 27 263 0 0 272 262 380 83 1
 379 6510 81 1 262 668 27 258 0 0 267 257 381 83 1 380 6511 81 1 257 669 27 253
 0 0 262 252 382 83 1 381 6512 81 1 252 670 27 248 0 0 257 247 383 83 1 382 6513
 81 1 247 671 27 243 0 0 252 242 384 83 1 383 6514 81 1 242 672 27 238 0 0 247 2
37 385 83 1 384 6515 81 1 237 673 27 233 0 0 242 232 386 83 1 385 6516 81 1 232
 674 27 228 0 0 237 227 387 83 1 386 6517 81 1 227 675 27 223 0 0 232 222 388 83
 1 387 6518 81 1 222 676 27 218 0 0 227 217 389 83 1 388 6519 81 1 217 677 27 21
3 0 0 222 212 390 83 1 389 6520 81 1 212 678 27 208 0 0 217 207 391 83 1 390 652
1 81 1 207 679 27 203 0 0 212 202 392 83 1 391 6522 81 1 202 680 27 198 0 0 207
 197 393 83 1 392 6523 81 1 197 681 27 181 0 0 202 180 394 83 1 393 6524 81 1 18
0 682 27 176 0 0 197 185 395 83 1 394 6525 83 1 395 6526 17 83 0 0 0 0 80 396 29
8 0 397 +133 373 397 0 298 0 398 0 +398 .00270875 0 .001235625 .0026225 0 .00111
6874999999986 0 .0001467672477087444 30 398 244 0 1 373 24 399 +.00270875 0 .001
235625 -.587665172894299 0 -.809104223550411 133 24 423 0 11 398 189 0 +189 .002
625 0 309375e-9 .002726874999999955 0 .000195624999999961 0 .000152700943431925
 141 399 373 399 399 398 17 396 0 178 400 397 76 83 298 0 0 -17 397 0 178 396 40
1 80 87 293 0 0 -17 401 0 178 397 402 84 91 288 0 0 -17 87 0 0 0 0 84 397 293 0
 401 +17 402 0 178 401 403 88 95 283 0 0 -17 91 0 0 0 0 88 401 288 0 402 +17 403
 0 178 402 404 92 99 278 0 0 -17 95 0 0 0 0 92 402 283 0 403 +17 404 0 178 403 4
05 96 103 273 0 0 -17 99 0 0 0 0 96 403 278 0 404 +17 405 0 178 404 406 100 107
 268 0 0 -17 103 0 0 0 0 100 404 273 0 405 +17 406 0 178 405 407 104 111 263 0 0
 -17 107 0 0 0 0 104 405 268 0 406 +17 407 0 178 406 408 108 115 258 0 0 -17 111
 0 0 0 0 108 406 263 0 407 +17 408 0 178 407 409 112 119 253 0 0 -17 115 0 0 0 0
 112 407 258 0 408 +17 409 0 178 408 410 116 123 248 0 0 -17 119 0 0 0 0 116 408
 253 0 409 +17 410 0 178 409 411 120 127 243 0 0 -17 123 0 0 0 0 120 409 248 0 4
10 +17 411 0 178 410 412 124 131 238 0 0 -17 127 0 0 0 0 124 410 243 0 411 +17 4
12 0 178 411 413 128 135 233 0 0 -17 131 0 0 0 0 128 411 238 0 412 +17 413 0 178
 412 414 132 139 228 0 0 -17 135 0 0 0 0 132 412 233 0 413 +17 414 0 178 413 415
 136 143 223 0 0 -17 139 0 0 0 0 136 413 228 0 414 +17 415 0 178 414 416 140 147
 218 0 0 -17 143 0 0 0 0 140 414 223 0 415 +17 416 0 178 415 417 144 151 213 0 0
 -17 147 0 0 0 0 144 415 218 0 416 +17 417 0 178 416 418 148 155 208 0 0 -17 151
 0 0 0 0 148 416 213 0 417 +17 418 0 178 417 419 152 159 203 0 0 -17 155 0 0 0 0
 152 417 208 0 418 +17 419 0 178 418 179 156 163 198 0 0 -17 159 0 0 0 0 156 418
 203 0 419 +17 179 0 178 419 175 160 167 181 0 0 -17 163 0 0 0 0 160 419 198 0 1
79 +17 167 0 0 0 0 164 179 181 0 175 +17 400 0 178 420 396 72 79 301 0 0 -17 420
 0 178 421 400 68 75 304 0 0 -17 79 0 0 0 0 76 400 301 0 396 +17 421 0 178 422 4
20 64 71 309 0 0 -17 75 0 0 0 0 72 420 304 0 400 +17 422 0 178 423 421 60 67 314
 0 0 -17 71 0 0 0 0 68 421 309 0 420 +17 423 0 178 424 422 56 63 319 0 0 -17 67
 0 0 0 0 64 422 314 0 421 +17 424 0 178 425 423 52 59 324 0 0 -17 63 0 0 0 0 60
 423 319 0 422 +17 425 0 178 426 424 48 55 329 0 0 -17 59 0 0 0 0 56 424 324 0 4
23 +17 426 0 178 427 425 44 51 334 0 0 -17 55 0 0 0 0 52 425 329 0 424 +17 427 0
 178 428 426 38 47 339 0 0 -17 51 0 0 0 0 48 426 334 0 425 +17 428 0 178 36 427
 33 43 344 0 0 -17 47 0 0 0 0 44 427 339 0 426 +17 36 0 178 31 428 26 37 349 0 0
 -17 43 0 0 0 0 38 428 344 0 427 +17 31 0 178 30 36 12 32 23 0 0 -17 37 0 0 0 0
 33 36 349 0 428 +83 1 359 6491 79 255 13 358 BTI/importTag141 191 24 191 191 18
9 81 1 187 684 27 17 0 0 185 14 429 83 1 188 6527 14 255 17 3 187 ?0 0 178 6 7 +
0 0 0 0 6 81 1 14 685 27 1 430 2 187 0 431 83 1 429 6528 81 1 430 468 432 1 433
 14 0 0 434 83 1 431 6529 80 1 432 435 436 9000 0 0 0 0 3 5 0 0 0 TTTFFFFFFFFFFF
FFF1 81 1 433 350 437 1 438 430 0 0 439 82 255 1 434 33 80 1 437 440 441 8038 0
 0 0 0 0 0 0 0 0 TTTTTTTTTTTTTFTFT10 81 1 438 349 440 1 0 433 0 0 442 98 255 19
 439 72 67 45 48 52 83 104 97 112 101 83 116 114 105 110 103 48 48 54 80 1 440 4
43 444 8017 0 0 0 0 0 0 0 0 0 TTTTTTTTTTTTTFTFT3 84 255 19 442 HC-04ShapeString0
0679 13 444 SDL/TYSA_NAME79 14 441 SDL/TYSA_UNAME79 23 436 ONSHAPE_ORIGINALBODY_
ID81 1 170 645 27 168 0 0 166 172 445 83 1 174 6490 81 1 166 644 27 164 0 0 162
 170 446 83 1 445 6489 81 1 162 643 27 160 0 0 158 166 447 83 1 446 6488 81 1 15
8 642 27 156 0 0 154 162 448 83 1 447 6487 81 1 154 641 27 152 0 0 150 158 449 8
3 1 448 6486 81 1 150 640 27 148 0 0 146 154 450 83 1 449 6485 81 1 146 639 27 1
44 0 0 142 150 451 83 1 450 6484 81 1 142 638 27 140 0 0 138 146 452 83 1 451 64
83 81 1 138 637 27 136 0 0 134 142 453 83 1 452 6482 81 1 134 636 27 132 0 0 130
 138 454 83 1 453 6481 81 1 130 635 27 128 0 0 126 134 455 83 1 454 6480 81 1 12
6 634 27 124 0 0 122 130 456 83 1 455 6479 81 1 122 633 27 120 0 0 118 126 457 8
3 1 456 6478 81 1 118 632 27 116 0 0 114 122 458 83 1 457 6477 81 1 114 631 27 1
12 0 0 110 118 459 83 1 458 6476 81 1 110 630 27 108 0 0 106 114 460 83 1 459 64
75 81 1 106 629 27 104 0 0 102 110 461 83 1 460 6474 81 1 102 628 27 100 0 0 98
 106 462 83 1 461 6473 81 1 98 627 27 96 0 0 94 102 463 83 1 462 6472 81 1 94 62
6 27 92 0 0 90 98 464 83 1 463 6471 81 1 90 625 27 88 0 0 86 94 465 83 1 464 647
0 81 1 86 624 27 84 0 0 82 90 466 83 1 465 6469 81 1 82 623 27 80 0 0 78 86 467
 83 1 466 6468 81 1 78 622 27 76 0 0 74 82 468 83 1 467 6467 81 1 74 621 27 72 0
 0 70 78 469 83 1 468 6466 81 1 70 620 27 68 0 0 66 74 470 83 1 469 6465 81 1 66
 619 27 64 0 0 62 70 471 83 1 470 6464 81 1 62 618 27 60 0 0 58 66 472 83 1 471
 6463 81 1 58 617 27 56 0 0 54 62 473 83 1 472 6462 81 1 54 616 27 52 0 0 50 58
 474 83 1 473 6461 81 1 50 615 27 48 0 0 46 54 475 83 1 474 6460 81 1 46 614 27
 44 0 0 42 50 476 83 1 475 6459 81 1 42 613 27 38 0 0 34 46 477 83 1 476 6458 81
 1 34 612 27 33 0 0 28 42 478 83 1 477 6457 83 1 478 6456 83 1 35 6455 83 1 29 6
454 141 19 18 19 19 8 74 4 CI16 index_map_offset0 0 1 dCCZ20 16 5 0 0 438 433 43
0 14 2 0 0 0 0 0 0 0 0 0 0 0 0 0 0 0 80 1 13 27 479 9000 0 0 0 0 3 5 0 0 0 FFTFT
FTTFFFFFFFFF2 83 1 15 17325 79 18 479 BTI/importMaxCount1 0 
