**ABCDEFGHIJKLMNOPQRSTUVWXYZabcdefghijklmnopqrstuvwxyz**************************
**PARASOLID !"#$%&'()*+,-./:;<=>?@[\]^_`{|}~0123456789**************************
**PART1;
MC=unknown;
MC_MODEL=unknown;
MC_ID=unknown;
OS=unknown;
OS_RELEASE=unknown;
FRU=Parasolid 37.0.173;
APPL=Onshape;
SITE=unknown;
USER=unknown;
FORMAT=text;
GUISE=transmit;
KEY=BTGapi::writeModels_.xmt;
FILE=BTGapi::writeModels_.xmt;
DATE=2024-12-29T04:00:27 (UTC);
**PART2;
SCH=SCH_3700173_36001;
USFLD_SIZE=0;
**PART3;
**END_OF_HEADER*****************************************************************
T51 : TRANSMIT FILE created by modeller version 370017323 SCH_3700173_36001_1300
6231 0 12 36 CCCI7 lattice222 0 CCCI4 mesh1006 0 I8 polyline1008 0 CCCCCCCDI5 ow
ner1040 0 CCCI16 boundary_lattice222 0 CCCI13 boundary_mesh1006 0 I17 boundary_p
olyline1008 0 CCCA16 index_map_offset0 0 1 dA9 index_map82 0 A17 node_id_index_m
ap82 0 A20 schema_embedding_map82 0 A5 child12 0 A14 lowest_node_id0 0 1 dA16 me
sh_offset_data206 0 Z1 512 2 3 0 0 0 0 0 0 0 1e3 1e-8 0 4 5 1 0 1 2 6 0 7 8 9 0
 0 10 11 12 0 0 0 0 0 0 0 81 255 1 2 512 13 1 14 0 0 0 15 70 11 CI9 list_type0 0
 1 uI10 notransmit0 0 1 lCCCDCCDI12 finger_index0 0 1 dI12 finger_block1012 0 CZ
3 0 4 T1 0 0 6 20 1 16 16 13 255 6 64 0 1 0 17 0 0 18 0 50 255 7 364 0 19 20 0 0
 +-.008376705 5968648054927e-31 .004873771 -1 0 0 0 1224646799147e-28 1 30 255 8
 400 0 21 22 0 0 +-.008376705 7560688893819e-31 .006173771 0 -1 1224646799147e-2
8 29 255 9 363 0 23 24 0 -.008376705 7560688893819e-31 .006173771 19 9 CCCCCCI5
 frame230 0 CA5 owner12 0 Z10 1 0 1 18 0 25 0 V0 16 255 11 58 26 ?27 0 28 29 0 0
 1 18 255 12 53 30 31 0 32 33 5e-7 1 81 1 30 406 34 12 0 0 0 35 36 17 255 31 0 3
7 38 39 12 27 11 0 40 -18 32 51 35 41 12 42 43 5e-7 1 29 33 220 0 12 43 44 -.009
238648 -9999999999999e-18 .005173771 29 43 218 0 32 45 33 -.009238648 6336042094
671e-31 .005173771 29 44 179 0 46 33 47 -.009238648 7560688893819e-31 .006173771
 18 46 6 48 49 50 0 44 5e-7 1 29 47 180 0 50 44 51 -.009238648 -9999999999999e-1
8 .006173771 18 50 7 52 27 23 46 47 5e-7 1 29 51 360 0 53 47 54 -.008376705 -999
9999999999e-18 .006173771 18 53 11 55 56 57 23 51 ?1 29 54 361 0 58 51 24 -.0083
76705 -999999999999899e-20 .006473771 18 58 18 59 60 61 57 54 ?1 29 24 362 0 57
 54 9 -.008376705 792808293356303e-33 .006473771 18 57 16 62 63 58 53 24 ?1 81 1
 62 417 34 57 0 0 59 55 64 17 63 0 65 66 67 57 68 69 0 70 -15 255 65 60 0 71 72
 0 17 66 0 65 71 63 23 73 74 0 75 -17 67 0 65 63 76 61 77 78 0 79 -17 68 0 80 81
 70 61 63 69 0 0 +16 69 22 82 ?68 83 84 85 0 0 1 17 70 0 80 68 60 57 86 87 0 73
 -15 80 21 0 70 88 0 17 60 0 80 70 81 58 89 90 0 91 -17 86 0 92 56 73 58 70 87 0
 0 +16 87 17 93 ?86 84 74 22 0 0 1 17 73 0 92 86 75 57 66 74 0 0 +15 92 14 0 75
 19 0 17 75 0 92 73 56 23 94 21 0 95 -16 74 15 96 ?73 87 97 98 0 0 1 81 1 96 441
 34 74 0 0 93 99 100 16 97 12 99 ?101 74 21 102 0 0 1 30 98 387 0 74 103 22 0 +-
.008376705 59686480549279e-32 .004873771 0 1224646799147e-28 1 30 103 368 0 84 1
04 98 0 +-.008376705 -9999999999999e-18 .006173771 0 1224646799147e-28 1 30 22 3
96 0 87 98 8 0 +-.008376705 79280829335622e-32 .006473771 0 -1 1224646799147e-28
 16 84 19 105 ?91 69 87 103 0 0 1 30 104 225 0 1 29 103 106 +-.009238648 -999999
9999999e-18 .005173771 0 1224646799147e-28 1 133 255 29 349 0 11 107 104 0 +104
 -.009238648 -9999999999999e-18 .005173771 -.009238648 -999999999999888e-20 .006
173771 0 .001 141 255 106 29 106 106 104 30 107 222 0 1 108 29 109 +-.008376705
 -9999999999999e-18 .005173771 -1 0 0 133 108 347 0 110 111 107 0 +107 -.0083767
05 -9999999999999e-18 .005173771 -.009238648 -9999999999999e-18 .005173771 0 861
943e-9 141 109 108 109 109 107 16 110 54 112 ?40 28 113 108 0 0 1 30 111 216 0 1
 114 108 115 +-.008376705 -9999999999999e-18 .004873771 0 1224646799147e-28 1 13
3 114 345 0 116 117 111 0 +111 -.008376705 -9999999999999e-18 .004873771 -.00837
6705 -999999999999896e-20 .005173771 0 3e-4 141 115 114 115 115 111 16 116 47 11
8 ?119 120 121 114 0 0 1 30 117 210 0 1 122 114 123 +-.009561055 -9999999999999e
-18 .004873771 1 0 0 133 122 343 0 124 125 117 0 +117 -.009561055 -9999999999999
e-18 .004873771 -.008376705 -9999999999999e-18 .004873771 0 .00118435 141 123 12
2 123 123 117 16 124 40 126 ?127 128 129 122 0 0 1 30 125 204 0 1 130 122 131 +-
.009561055 -9999999999999e-18 .006473771 0 -1224646799147e-28 -1 133 130 341 0 1
32 133 125 0 +125 -.009561055 -9999999999999e-18 .006473771 -.009561055 -9999999
9999992e-19 .004873771 0 .0016 141 131 130 131 131 125 16 132 33 134 ?135 136 13
7 130 0 0 1 30 133 198 0 1 138 130 139 +-.008376705 -9999999999999e-18 .00647377
1 -1 0 0 133 138 339 0 90 140 133 0 +133 -.008376705 -9999999999999e-18 .0064737
71 -.009561055 -9999999999999e-18 .006473771 0 .00118435 141 139 138 139 139 133
 16 90 26 141 ?89 78 83 138 0 0 1 30 140 186 0 1 102 138 142 +-.009238648 -99999
99999999e-18 .006173771 1 0 0 133 102 335 0 97 143 140 0 +140 -.009238648 -99999
99999999e-18 .006173771 -.008376705 -9999999999999e-18 .006173771 0 861943e-9 14
1 142 102 142 142 140 30 143 195 0 1 85 102 144 +-.008376705 7928082933563e-31 .
006473771 -1 0 0 133 85 329 0 69 145 143 0 +143 -.008376705 7928082933563e-31 .0
06473771 -.009561055 7928082933563e-31 .006473771 0 .00118435 141 144 85 144 144
 143 30 145 201 0 1 146 85 147 +-.009561055 7928082933563e-31 .006473771 0 -1224
646799147e-28 -1 133 146 327 0 78 148 145 0 +145 -.009561055 7928082933563e-31 .
006473771 -.009561055 59686480549278e-32 .004873771 0 .0016 141 147 146 147 147
 145 16 78 29 149 ?77 137 90 146 0 0 1 30 148 207 0 1 150 146 151 +-.009561055 5
968648054927e-31 .004873771 1 0 0 133 150 325 0 136 152 148 0 +148 -.009561055 5
968648054927e-31 .004873771 -.008376705 5968648054927e-31 .004873771 0 .00118435
 141 151 150 151 151 148 16 136 36 153 ?154 129 132 150 0 0 1 30 152 213 0 1 155
 150 156 +-.008376705 5968648054927e-31 .004873771 0 1224646799147e-28 1 133 155
 323 0 128 157 152 0 +152 -.008376705 5968648054927e-31 .004873771 -.008376705 6
3360420946711e-32 .005173771 0 3e-4 141 156 155 156 156 152 16 128 43 158 ?159 1
21 124 155 0 0 1 30 157 219 0 1 160 155 161 +-.008376705 6336042094671e-31 .0051
73771 -1 0 0 133 160 321 0 120 162 157 0 +157 -.008376705 6336042094671e-31 .005
173771 -.009238648 6336042094671e-31 .005173771 0 861943e-9 141 161 160 161 161
 157 16 120 50 163 ?164 113 116 160 0 0 1 30 162 224 0 1 165 160 166 +-.00923864
8 6336042094671e-31 .005173771 0 1224646799147e-28 1 133 165 319 0 28 167 162 0
 +162 -.009238648 6336042094671e-31 .005173771 -.009238648 7560688893818e-31 .00
6173771 0 .001 141 166 165 166 166 162 16 28 57 168 ?49 11 110 165 0 0 1 30 167
 183 0 1 169 165 170 +-.009238648 7560688893819e-31 .006173771 1 0 0 133 169 317
 0 171 172 167 0 +167 -.009238648 7560688893819e-31 .006173771 -.008376705 75606
88893819e-31 .006173771 0 861943e-9 141 170 169 170 170 167 16 171 8 173 ?95 21
 174 169 0 0 1 30 172 181 0 1 175 169 176 +-.009238648 7560688893819e-31 .006173
771 0 -1 1224646799147e-28 133 175 313 0 174 177 172 0 +172 -.009238648 75606888
93819e-31 .006173771 -.009238648 -9999999999999e-18 .006173771 0 999999999999976
e-20 141 176 175 176 176 172 16 174 5 178 ?39 171 0 175 0 0 1 30 177 221 0 1 179
 175 180 +-.009238648 6336042094671e-31 .005173771 0 -1 1224646799147e-28 133 17
9 311 0 113 181 177 0 +177 -.009238648 6336042094671e-31 .005173771 -.009238648
 -9999999999999e-18 .005173771 0 999999999999963e-20 141 180 179 180 180 177 16
 113 52 182 ?183 110 120 179 0 0 1 30 181 215 0 1 184 179 185 +-.008376705 63360
42094671e-31 .005173771 0 -1 1224646799147e-28 133 184 307 0 121 186 181 0 +181
 -.008376705 6336042094671e-31 .005173771 -.008376705 -9999999999999e-18 .005173
771 0 999999999999963e-20 141 185 184 185 185 181 16 121 45 187 ?188 116 128 184
 0 0 1 30 186 209 0 1 189 184 190 +-.008376705 5968648054927e-31 .004873771 0 -1
 1224646799147e-28 133 189 303 0 129 191 186 0 +186 -.008376705 5968648054927e-3
1 .004873771 -.008376705 -9999999999999e-18 .004873771 0 99999999999996e-19 141
 190 189 190 190 186 16 129 38 192 ?193 124 136 189 0 0 1 30 191 203 0 1 194 189
 195 +-.009561055 5968648054927e-31 .004873771 0 -1 1224646799147e-28 133 194 29
9 0 137 196 191 0 +191 -.009561055 5968648054927e-31 .004873771 -.009561055 -999
9999999999e-18 .004873771 0 99999999999996e-19 141 195 194 195 195 191 16 137 31
 197 ?198 132 78 194 0 0 1 30 196 197 0 1 199 194 200 +-.009561055 7928082933563
e-31 .006473771 0 -1 1224646799147e-28 133 199 295 0 83 0 196 0 +196 -.009561055
 7928082933563e-31 .006473771 -.009561055 -9999999999999e-18 .006473771 0 999999
999999979e-20 141 200 199 200 200 196 16 83 24 201 ?81 90 69 199 0 0 1 81 1 201
 437 34 83 0 0 141 82 202 17 81 0 80 60 68 203 79 83 0 0 +18 203 25 204 205 206
 61 207 5e-7 1 17 79 0 208 77 205 61 81 83 0 68 -15 208 28 0 79 209 0 17 77 0 20
8 198 79 206 67 78 0 0 +17 205 0 208 79 198 203 135 132 0 89 -18 61 23 210 67 20
3 58 211 5e-7 1 81 1 210 415 34 61 0 0 204 59 212 29 211 194 0 61 0 207 -.009561
055 7928082933563e-31 .006473771 29 207 196 0 203 211 213 -.009561055 -999999999
9999e-18 .006473771 29 213 200 0 206 207 214 -.009561055 5968648054927e-31 .0048
73771 18 206 30 215 76 216 203 213 5e-7 1 29 214 202 0 216 213 217 -.009561055 -
9999999999999e-18 .004873771 18 216 32 218 219 220 206 214 5e-7 1 29 217 206 0 2
20 214 221 -.008376705 5968648054927e-31 .004873771 18 220 37 222 223 224 216 21
7 5e-7 1 29 221 208 0 224 217 225 -.008376705 -9999999999999e-18 .004873771 18 2
24 39 226 227 228 220 221 5e-7 1 29 225 212 0 228 221 45 -.008376705 63360420946
71e-31 .005173771 18 228 44 229 230 42 224 225 5e-7 1 29 45 214 0 42 225 43 -.00
8376705 -9999999999999e-18 .005173771 18 42 46 231 232 32 228 45 5e-7 1 81 1 231
 408 34 42 0 0 35 229 233 17 232 0 234 235 183 42 40 110 0 119 -15 234 49 0 235
 236 0 17 235 0 234 164 232 228 188 121 0 159 -17 183 0 234 232 164 12 38 113 0
 0 +17 40 0 237 27 119 12 232 110 0 183 +17 119 0 237 40 127 42 227 116 0 188 +1
5 237 62 0 101 17 0 17 127 0 237 119 135 224 219 124 0 193 +17 227 0 238 239 188
 224 119 116 0 127 -17 188 0 238 227 159 42 235 121 0 0 +15 238 42 0 239 240 0 1
7 159 0 238 188 239 228 223 128 0 0 +17 239 0 238 159 227 220 193 129 0 154 -17
 223 0 65 76 230 220 159 128 0 239 -17 76 0 65 67 223 206 154 136 0 241 -17 230
 0 65 223 41 228 164 120 0 235 -17 41 0 65 230 71 32 49 28 0 38 -17 164 0 234 18
3 235 32 230 120 0 0 +17 71 0 65 41 66 46 95 171 0 242 -17 49 0 37 39 38 46 41 2
8 0 71 +17 38 0 37 49 31 32 183 113 0 164 -15 37 56 0 38 243 0 14 255 243 55 244
 ?236 72 37 6 245 -0 0 236 72 25 81 1 244 448 34 243 0 0 246 247 248 14 236 48 2
47 ?240 243 234 6 249 -0 0 240 243 25 14 72 59 246 ?243 17 65 6 250 +0 0 243 17
 25 50 245 223 0 243 249 250 0 +-.009238648 6336042094671e-31 .005173771 -1 0 0
 0 1224646799147e-28 1 13 25 2 0 0 0 0 0 0 10 17 14 17 61 251 ?72 0 237 6 20 -0
 0 72 0 25 81 1 251 446 34 17 0 0 178 246 252 50 20 227 0 17 250 7 0 +-.00923864
8 -9999999999999e-18 .006173771 0 1 -1224646799147e-28 1 0 0 50 250 226 0 72 245
 20 0 +-.009238648 7560688893819e-31 .006173771 0 1 -1224646799147e-28 1 0 0 80
 7 CCCCCDI12 legal_owners0 17 1 lCZ1 34 253 254 9000 0 0 0 0 3 5 0 0 0 FFTFTFTTF
FFFFFFFF2 81 1 178 445 34 174 0 0 173 251 255 81 1 246 447 34 72 0 0 251 244 256
 83 255 1 252 5541 83 1 256 5542 81 1 173 444 34 171 0 0 257 178 258 83 1 255 55
40 81 1 257 443 34 21 0 0 99 173 259 83 1 258 5539 16 21 10 257 ?94 97 171 8 0 0
 1 81 1 99 442 34 97 0 0 96 257 260 83 1 259 5538 83 1 260 5537 17 94 0 261 262
 95 53 75 21 0 0 +15 261 4 0 242 263 0 17 262 0 261 242 94 50 101 97 0 39 -17 95
 0 261 94 242 23 71 171 0 0 +17 242 0 261 95 262 46 39 174 0 0 -18 23 9 264 66 5
3 50 9 ?1 81 1 264 419 34 23 0 0 55 52 265 81 1 55 418 34 53 0 0 62 264 266 81 1
 52 420 34 50 0 0 264 48 267 83 1 265 5514 81 1 48 421 34 46 0 0 52 26 268 83 1
 267 5515 81 1 26 422 34 11 0 0 48 168 269 83 1 268 5516 81 1 168 423 34 28 0 0
 26 112 270 83 1 269 5517 81 1 112 424 34 110 0 0 168 182 271 83 1 270 5518 81 1
 182 425 34 113 0 0 112 163 272 83 1 271 5519 81 1 163 426 34 120 0 0 182 118 27
3 83 1 272 5520 81 1 118 427 34 116 0 0 163 187 274 83 1 273 5521 81 1 187 428 3
4 121 0 0 118 158 275 83 1 274 5522 81 1 158 429 34 128 0 0 187 126 276 83 1 275
 5523 81 1 126 430 34 124 0 0 158 192 277 83 1 276 5524 81 1 192 431 34 129 0 0
 126 153 278 83 1 277 5525 81 1 153 432 34 136 0 0 192 134 279 83 1 278 5526 81
 1 134 433 34 132 0 0 153 197 280 83 1 279 5527 81 1 197 434 34 137 0 0 134 149
 281 83 1 280 5528 81 1 149 435 34 78 0 0 197 141 282 83 1 281 5529 81 1 141 436
 34 90 0 0 149 201 283 83 1 282 5530 83 1 283 5531 83 1 266 5513 17 39 0 37 31 4
9 50 242 174 0 0 +17 101 0 237 91 27 53 262 97 0 94 +17 91 0 237 89 101 58 56 84
 0 86 +17 27 0 237 101 40 50 31 11 0 262 +17 89 0 237 135 91 203 60 90 0 81 +17
 56 0 92 75 86 53 91 84 0 101 -17 135 0 237 127 89 216 205 132 0 198 +17 198 0 2
08 205 77 216 241 137 0 0 +17 241 0 284 154 219 206 198 137 0 77 -15 284 35 0 24
1 285 0 17 154 0 284 193 241 220 76 136 0 0 +17 219 0 284 241 193 216 127 124 0
 135 -17 193 0 284 219 154 224 239 129 0 0 +14 285 34 286 ?209 240 284 6 287 -0
 0 209 240 25 81 1 286 451 34 285 0 0 288 289 290 14 209 27 289 ?88 285 208 6 29
1 -0 0 88 285 25 14 240 41 288 ?285 236 238 6 7 -19 19 285 236 25 50 287 205 0 2
85 291 249 0 +-.009561055 5968648054927e-31 .004873771 0 1224646799147e-28 1 1 0
 0 50 291 199 0 209 292 287 0 +-.009561055 7928082933563e-31 .006473771 1 0 0 0
 -1224646799147e-28 -1 50 249 217 0 236 287 245 0 +-.008376705 6336042094671e-31
 .005173771 0 -1224646799147e-28 -1 -1 0 0 50 292 193 0 88 293 291 0 +-.00837670
5 7928082933563e-31 .006473771 0 -1224646799147e-28 -1 -1 0 0 14 88 20 294 ?19 2
09 80 6 292 -0 0 19 209 25 50 293 178 0 263 0 292 0 +-.009238648 7560688893819e-
31 .006173771 0 1224646799147e-28 1 1 0 0 14 263 3 295 ?0 19 261 6 293 -0 0 0 19
 25 81 1 295 455 34 263 0 0 296 297 298 14 19 13 296 ?263 88 92 6 7 -240 240 263
 88 25 81 1 296 454 34 19 0 0 294 295 299 81 1 294 453 34 88 0 0 289 296 300 83
 1 299 5549 81 1 289 452 34 209 0 0 286 294 301 83 1 300 5548 83 1 301 5547 81 1
 297 456 34 1 302 303 295 0 304 83 1 298 5550 81 1 302 404 305 1 0 297 0 0 306 8
1 1 303 457 307 1 297 308 0 0 309 83 1 304 5551 80 1 307 34 310 9000 0 0 0 0 3 5
 0 0 0 FFTFTFTTFFFFFFFFF2 81 1 308 510 311 1 303 14 0 0 312 83 1 309 17325 80 1
 311 313 314 8040 0 0 0 0 3 5 0 0 0 TTTFFFFFFFFFFFFFF2 81 1 14 511 315 1 308 2 0
 0 316 83 3 312 1 1 1 80 1 315 13 317 8038 0 0 0 0 0 0 0 0 0 TTTTTTTTTTTTTFTFT10
 98 255 11 316 72 67 45 48 52 80 97 100 48 48 57 79 255 14 317 SDL/TYSA_UNAME79
 17 314 SDL/TYSA_COLOUR_279 18 310 BTI/importMaxCount80 1 305 318 319 9000 0 0 0
 0 3 5 0 0 0 TTTFFFFFFFFFFFFFF1 82 255 1 306 7 79 23 319 ONSHAPE_ORIGINALBODY_ID
81 1 288 450 34 240 0 0 247 286 320 81 1 247 449 34 236 0 0 244 288 321 83 1 320
 5545 83 1 321 5544 83 1 290 5546 79 13 254 BTI/importTag83 1 248 5543 81 1 35 4
07 34 32 0 0 30 231 322 81 1 229 409 34 228 0 0 231 226 323 83 1 233 5503 81 1 2
26 410 34 224 0 0 229 222 324 83 1 323 5504 81 1 222 411 34 220 0 0 226 218 325
 83 1 324 5505 81 1 218 412 34 216 0 0 222 215 326 83 1 325 5506 81 1 215 413 34
 206 0 0 218 204 327 83 1 326 5507 81 1 204 414 34 203 0 0 215 210 328 83 1 327
 5508 83 1 328 5509 83 1 322 5502 81 1 59 416 34 58 0 0 210 62 329 83 1 212 5510
 83 1 329 5511 81 1 82 438 34 69 0 0 201 105 330 83 1 202 5532 81 1 105 439 34 8
4 0 0 82 93 331 83 1 330 5533 81 1 93 440 34 87 0 0 105 96 332 83 1 331 5534 83
 1 332 5535 83 1 100 5536 83 1 64 5512 83 1 36 5501 19 18 63 0 1 0 10 6 0 S0 74
 4 CI16 index_map_offset0 0 1 dCCZ20 16 6 0 0 302 297 303 308 14 2 0 0 0 0 0 0 0
 0 0 0 0 0 0 0 80 1 13 333 334 8017 0 0 0 0 0 0 0 0 0 TTTTTTTTTTTTTFTFT3 84 255
 11 15 HC-04Pad00979 13 334 SDL/TYSA_NAME1 0 
