**ABCDEFGHIJKLMNOPQRSTUVWXYZabcdefghijklmnopqrstuvwxyz**************************
**PARASOLID !"#$%&'()*+,-./:;<=>?@[\]^_`{|}~0123456789**************************
**PART1;
MC=unknown;
MC_MODEL=unknown;
MC_ID=unknown;
OS=unknown;
OS_RELEASE=unknown;
FRU=Parasolid 37.0.173;
APPL=Onshape;
SITE=unknown;
USER=unknown;
FORMAT=text;
GUISE=transmit;
KEY=BTGapi::writeModels_.xmt;
FILE=BTGapi::writeModels_.xmt;
DATE=2024-12-29T04:00:28 (UTC);
**PART2;
SCH=SCH_3700173_36001;
USFLD_SIZE=0;
**PART3;
**END_OF_HEADER*****************************************************************
T51 : TRANSMIT FILE created by modeller version 370017323 SCH_3700173_36001_1300
6231 0 12 36 CCCI7 lattice222 0 CCCI4 mesh1006 0 I8 polyline1008 0 CCCCCCCDI5 ow
ner1040 0 CCCI16 boundary_lattice222 0 CCCI13 boundary_mesh1006 0 I17 boundary_p
olyline1008 0 CCCA16 index_map_offset0 0 1 dA9 index_map82 0 A17 node_id_index_m
ap82 0 A20 schema_embedding_map82 0 A5 child12 0 A14 lowest_node_id0 0 1 dA16 me
sh_offset_data206 0 Z1 865 2 3 0 0 0 0 0 0 0 1e3 1e-8 0 4 5 1 0 3 2 6 0 7 8 9 0
 0 10 11 12 0 0 0 0 0 0 0 81 255 1 2 776 13 1 14 0 0 0 15 70 11 CI9 list_type0 0
 1 uI10 notransmit0 0 1 lCCCDCCDI12 finger_index0 0 1 dI12 finger_block1012 0 CZ
3 0 4 T1 0 0 5 20 1 16 16 13 255 6 2 0 1 0 17 0 0 10 17 50 255 7 227 0 17 0 0 0
 +.0053555 0 678e-6 0 -1 0 1 0 0 31 255 8 687 0 1 18 0 19 +.00568765641852478 19
33405522336425e-35 .000478114119458257 1097503556195976e-32 1 602407507512013e-3
1 -.0160173444711632 -600572317876623e-31 .999871714109411 .000321927179256639 2
9 255 9 311 0 12 20 0 .0055615 -3191891195797e-31 3135e-7 19 9 CCCCCCI5 frame230
 0 CA5 owner12 0 Z10 1 0 1 0 0 6 0 V0 16 255 11 91 21 ?22 0 23 24 0 0 1 18 255 1
2 90 25 22 0 26 9 5e-7 1 81 1 25 688 27 12 0 0 0 28 29 17 255 22 0 0 0 0 12 30 1
1 0 31 +18 26 88 28 32 12 33 20 5e-7 1 81 1 28 689 27 26 0 0 25 34 35 17 32 0 0
 0 0 26 31 23 0 36 +18 33 86 34 37 26 38 39 5e-7 1 29 20 309 0 26 39 9 .0055135
 -3191891195797e-31 274e-6 29 39 307 0 33 40 20 .005499 -3191891195797e-31 225e-
6 29 40 305 0 38 41 39 .0055285 -3191891195797e-31 1505e-7 18 38 84 42 43 33 44
 40 5e-7 1 29 41 303 0 44 45 40 .0056055 -3053113317719e-31 128e-6 18 44 82 46 4
7 38 48 41 5e-7 1 29 45 301 0 48 49 41 .0057065 -2914335439641e-31 1495e-7 18 48
 80 50 51 44 52 45 5e-7 1 29 49 299 0 52 53 45 .00579 -2914335439641e-31 2155e-7
 18 52 78 54 55 48 56 49 5e-7 1 29 53 297 0 56 57 49 .0056515 -3053113317719e-31
 341e-6 18 56 76 58 30 52 59 53 5e-7 1 29 57 296 0 59 60 53 .00579 -291433543964
1e-31 352e-6 18 59 75 61 62 56 63 57 5e-7 1 29 60 293 0 63 64 57 .005806 -291433
5439641e-31 7775e-7 18 63 71 65 66 59 67 60 5e-7 1 29 64 291 0 67 68 60 .005898
 -2775557561563e-31 7145e-7 18 67 69 69 70 63 71 64 5e-7 1 29 68 289 0 71 72 64
 .0059555 -2636779683485e-31 6185e-7 18 71 67 73 74 67 75 68 5e-7 1 29 72 287 0
 75 76 68 .005975 -2636779683485e-31 496e-6 18 75 65 77 78 71 79 72 5e-7 1 29 76
 285 0 79 80 72 .005975 -2636779683485e-31 0 18 79 63 81 82 75 83 76 5e-7 1 29 8
0 283 0 83 84 76 .005889 -2775557561563e-31 0 18 83 61 85 86 79 87 80 5e-7 1 29
 84 281 0 87 88 80 .0058475 -2775557561563e-31 85e-7 18 87 59 89 90 83 91 84 5e-
7 1 29 88 279 0 91 92 84 .0058245 -2775557561563e-31 44e-6 18 91 57 93 94 87 95
 88 5e-7 1 29 92 277 0 95 96 88 .0058075 -2914335439641e-31 105e-6 18 95 55 97 9
8 91 99 92 5e-7 1 29 96 275 0 99 100 92 .005749 -2914335439641e-31 6e-5 18 99 53
 101 102 95 103 96 5e-7 1 29 100 273 0 103 104 96 .00569 -3053113317719e-31 27e-
6 18 103 51 105 106 99 107 100 5e-7 1 29 104 271 0 107 108 100 .0056245 -3053113
317719e-31 7e-6 18 107 49 109 110 103 111 104 5e-7 1 29 108 269 0 111 112 104 .0
055475 -3191891195797e-31 0 18 111 47 113 114 107 115 108 5e-7 1 29 112 267 0 11
5 116 108 .005455 -3330669073875e-31 14e-6 18 115 45 117 118 111 119 112 5e-7 1
 29 116 265 0 119 120 112 .005382 -3330669073875e-31 56e-6 18 119 43 121 122 115
 123 116 5e-7 1 29 120 263 0 123 124 116 .0053345 -3469446951954e-31 1255e-7 18
 123 41 125 126 119 127 120 5e-7 1 29 124 261 0 127 128 120 .0053175 -3469446951
954e-31 222e-6 18 127 39 129 130 123 131 124 5e-7 1 29 128 259 0 131 132 124 .00
53275 -3469446951954e-31 2835e-7 18 131 37 133 134 127 135 128 5e-7 1 29 132 257
 0 135 136 128 .00536 -3469446951954e-31 3425e-7 18 135 35 137 138 131 139 132 5
e-7 1 29 136 255 0 139 140 132 .005419 -3330669073875e-31 395e-6 18 139 33 141 1
42 135 143 136 5e-7 1 29 140 253 0 143 144 136 .0055075 -3191891195797e-31 4385e
-7 18 143 31 145 146 139 147 140 5e-7 1 29 144 251 0 147 148 140 .00563 -3053113
317719e-31 4685e-7 18 147 29 149 150 143 151 144 5e-7 1 29 148 249 0 151 152 144
 .00579 -2914335439641e-31 48e-5 18 151 27 153 154 147 155 148 5e-7 1 29 152 247
 0 155 156 148 .00579 -2914335439641e-31 5165e-7 18 155 25 157 158 151 159 152 5
e-7 1 29 156 245 0 159 160 152 .005756 -2914335439641e-31 6095e-7 18 159 23 161
 162 155 163 156 5e-7 1 29 160 243 0 163 164 156 .0056585 -3053113317719e-31 64e
-5 18 163 21 165 166 159 167 160 5e-7 1 29 164 241 0 167 168 160 .005582 -319189
1195797e-31 6315e-7 18 167 19 169 170 163 171 164 5e-7 1 29 168 239 0 171 172 16
4 .005529 -3191891195797e-31 6125e-7 18 171 17 173 174 167 175 168 5e-7 1 29 172
 237 0 175 176 168 .005487 -3191891195797e-31 5935e-7 18 175 15 177 178 171 179
 172 5e-7 1 29 176 235 0 179 180 172 .005445 -3330669073875e-31 585e-6 18 179 13
 181 182 175 183 176 5e-7 1 29 180 233 0 183 184 176 .005411 -3330669073875e-31
 595e-6 18 183 11 185 186 179 187 180 5e-7 1 29 184 231 0 187 188 180 .005389 -3
330669073875e-31 619e-6 18 187 9 189 190 183 191 184 5e-7 1 29 188 229 0 191 192
 184 .0056825 -3053113317719e-31 8e-4 18 191 7 193 194 187 195 188 5e-7 1 29 192
 228 0 195 0 188 .0053555 -3469446951954e-31 678e-6 18 195 6 196 197 191 0 192 5
e-7 1 81 1 196 730 27 195 0 0 193 21 198 17 197 0 0 0 0 195 199 200 0 201 +17 19
9 0 202 203 201 187 197 200 0 0 -16 200 8 204 ?197 205 206 207 0 0 1 17 201 0 20
2 199 194 195 208 206 0 0 -15 255 202 4 0 201 17 0 17 194 0 202 201 209 191 66 2
10 0 208 -17 208 0 0 0 0 191 201 206 0 0 +16 206 5 211 ?208 200 0 212 0 0 1 81 1
 211 773 27 206 0 0 204 213 214 133 255 212 578 0 206 215 216 0 +216 .0053555 21
0648587667354e-49 678e-6 .0056825 3009265538105055e-51 8e-4 0 .754257022740865 3
1 215 575 0 1 24 212 217 +.00570813499622802 2129689900691185e-35 -5373624018980
51e-20 1789322471364325e-32 -1 -585596445173783e-31 -.161365571270815 -606795533
403229e-31 .986894701783551 .0003509732329021545 31 216 579 0 1 212 218 219 +.00
567300658949705 2697783836871355e-35 .0003262118461841435 -214039470134538e-31 1
 573695956836015e-31 -.670010147070918 -569292923391289e-31 .742351940000163 .00
047388325517918 133 218 582 0 205 216 220 0 +220 .005411 -150463276905253e-49 59
5e-6 .005389 -225694915357879e-49 619e-6 -177635683940025e-29 .349699087896068 1
41 255 219 212 219 219 216 16 205 10 221 ?190 222 200 218 0 0 1 31 220 583 0 1 2
18 223 224 +.00546792960568628 564263087150172e-35 .000669268805212419 -45137672
9137534e-31 1 -4137620017093955e-32 -.608365505904097 -602987135320821e-31 -.793
656985873653 93577964453579e-18 133 223 586 0 222 220 225 0 +225 .005445 3761581
92263132e-51 585e-6 .005411 -150463276905253e-50 595e-6 0 .62975147316321 141 22
4 218 224 224 220 16 222 12 226 ?186 227 205 223 0 0 1 31 225 587 0 1 223 228 22
9 +.00544335098530031 333128609145157e-35 .00064219335002105 -1727770427517115e-
32 1 -587441945355826e-31 .02882030363403055 -582218440293015e-31 -.999584608774
286 572171175096246e-19 133 228 590 0 227 225 230 0 +230 .005487 451389830715758
e-50 5935e-7 .005445 752316384526264e-51 585e-6 -888178419700125e-30 .4236775984
208295 141 229 223 229 229 225 16 227 14 231 ?182 232 222 228 0 0 1 31 230 591 0
 1 228 233 234 +.00544623858174792 610022627970186e-35 .000686894654892634 12146
01679672424e-32 1 -600156124073423e-31 .400005351083349 -598635488983617e-31 -.9
16512803568334 .0001019021824125232 133 233 594 0 232 230 235 0 +235 .005529 0 6
125e-7 .005487 0 5935e-7 -230488611432324e-19 2304886114323235e-20 141 234 228 2
34 234 230 16 232 16 236 ?178 237 227 233 0 0 1 30 255 235 595 0 1 233 238 239 +
.005508 0 603e-6 -.911107922838357 0 -.4121678698554445 133 238 598 0 237 235 24
0 0 +240 .005582 -601853107621011e-50 6315e-7 .005529 -601853107621011e-50 6125e
-7 281643955000576e-48 .150805125304959 141 239 233 239 239 235 16 237 18 241 ?1
74 242 232 238 0 0 1 31 240 599 0 1 238 243 244 +.00568125154753434 228176137647
4e-32 .00027121936740422 206635447886892e-31 -1 -576404144105547e-31 -.265590261
263089 -610583527584911e-31 .964085998820751 .000373701757972284 133 243 602 0 2
42 240 245 0 +245 .0056585 0 64e-5 .005582 -3009265538105055e-51 6315e-7 4893734
61857238e-48 .264100419644684 141 244 238 244 244 240 16 242 20 246 ?170 247 237
 243 0 0 1 31 245 603 0 1 243 248 249 +.00565224743839318 177420171131946e-34 .0
00347773054461381 676198074662602e-32 -1 -608578267196332e-31 .02139135690005235
 -606992532118689e-31 .999771178745404 .0002922938285791855 133 248 606 0 247 24
5 250 0 +250 .005756 361111864572607e-49 6095e-7 .0056585 496528813787334e-49 64
e-5 861388123527068e-30 .738103201533837 141 249 243 249 249 245 16 247 22 251 ?
166 252 242 248 0 0 1 31 250 607 0 1 248 253 254 +.00566782113557383 80867259341
147e-34 .000498706908801593 -1828113924726095e-32 -1 -584397074297682e-31 .62273
1143203893 -571095592861066e-31 .782435890845999 .000141600216061937 133 253 610
 0 252 250 255 0 +255 .00579 331019209191556e-49 5165e-7 .005756 346065536882081
5e-50 6095e-7 1417283965048786e-48 .857189431394321 141 254 248 254 254 250 16 2
52 24 256 ?162 257 247 253 0 0 1 31 255 611 0 1 253 258 259 +.00567123191756682
 663488344320889e-35 .000525794464486794 -57509554801646e-30 -1 -210249985296341
e-31 .996951894054506 -55693916075974e-30 -.078018721734812 .000119131206973451
 133 258 614 0 260 255 261 0 +261 .00563 0 4685e-7 .00579 1203706215242022e-50 4
8e-5 0 .160926333808076 141 259 253 259 259 255 16 260 28 262 ?154 263 257 258 0
 0 1 31 261 615 0 1 258 264 265 +.00578130698114096 60905140201624e-33 -.0005178
47128917648 -4389750281511585e-33 1 61074786525379e-30 -.151627674581268 -610342
279594836e-31 .988437680534831 .000997884994007865 133 264 618 0 263 261 266 0 +
266 .0055075 -1203706215242022e-50 4385e-7 .00563 -1203706215242022e-50 4685e-7
 317294661242421e-48 .170069578330685 141 265 258 265 265 261 16 263 30 267 ?150
 268 260 264 0 0 1 31 266 619 0 1 264 269 270 +.00574472301209672 45299099751981
2e-34 -.000265056466061588 -1456525890257792e-32 1 594748071855262e-31 -.3195038
027946 -610110903913031e-31 .94758499354928 .000742473203829815 133 269 622 0 26
8 266 271 0 +271 .005419 -902779661431517e-50 395e-6 .0055075 -601853107621011e-
50 4385e-7 2912071732012095e-31 .265645922201962 141 270 264 270 270 266 16 268
 32 272 ?146 273 263 269 0 0 1 31 271 623 0 1 269 274 275 +.00562603770687048 22
59679495978125e-35 855612170565957e-19 -270107393892183e-31 1 549528835849619e-3
1 -.556085081674384 -606930049638248e-31 .831125370770977 .000372313003339508 13
3 274 626 0 273 271 276 0 +276 .00536 -451389830715758e-49 3425e-7 .005419 -4513
89830715758e-49 395e-6 526281551145331e-48 .284552996571895 141 275 269 275 275
 271 16 273 34 277 ?142 278 268 274 0 0 1 31 276 627 0 1 274 279 280 +.005572753
29943306 1687990240216295e-35 .000162808196827607 -4070460864966005e-32 1 457442
268634269e-31 -.7639706833161 -606136337572842e-31 .645250955081455 .00027848359
1162928 133 279 630 0 278 276 281 0 +281 .0053275 -1203706215242022e-50 2835e-7
 .00536 -105324293833677e-49 3425e-7 256755571727693e-30 .3666598830404095 141 2
80 274 280 280 276 16 278 36 282 ?138 283 273 279 0 0 1 31 281 631 0 1 279 284 2
85 +.00550285527117927 111226883097988e-34 .000225357265875825 -536335461980806e
-31 1 295439025667396e-31 -.949183918428012 -602062133767002e-31 .31472192328728
05 .000184743196523687 133 284 634 0 283 281 286 0 +286 .0053175 752316384526264
e-50 222e-6 .0053275 752316384526264e-50 2835e-7 269425006158841e-33 .3184460897
57016 141 285 279 285 285 281 16 283 38 287 ?134 288 278 284 0 0 1 31 286 635 0
 1 284 289 290 +.00551399050937653 1187940650927696e-35 .000221613331808696 -604
385758876243e-31 1 982741071343445e-32 -.999998063745323 -604577979130612e-31 .0
0196786828963341 .000196490889832932 133 289 638 0 288 286 291 0 +291 .0053345 -
3009265538105055e-51 1255e-7 .0053175 -3009265538105055e-51 222e-6 0 .3880985455
229545 141 290 284 290 290 286 16 288 40 292 ?130 293 283 289 0 0 1 31 291 639 0
 1 289 294 295 +.00557151936570468 152652241314946e-34 .00021700211623813 -60303
7445399894e-31 1 -1062345758735542e-32 -.932895417754982 -600830974335558e-31 -.
360147385846069 .000254068528147637 133 294 642 0 293 291 296 0 +296 .005382 601
853107621011e-50 56e-6 .0053345 451389830715758e-50 1255e-7 0 .443229061912591 1
41 295 289 295 295 291 16 293 42 297 ?126 298 288 294 0 0 1 31 296 643 0 1 294 2
99 300 +.00551247831786415 1143868417169508e-35 .0001961578431445595 -5055332960
68697e-31 1 -3455083678167345e-32 -.681380854636489 -597348319966981e-31 -.73192
9047746329 .0001914910244047795 133 299 646 0 298 296 301 0 +301 .005455 -315972
881501031e-49 1400000000000026e-20 .005382 225694915357879e-49 56e-6 23278276516
6715e-30 .4163113548838125 141 300 294 300 300 296 16 298 44 302 ?122 303 293 29
9 0 0 1 31 301 647 0 1 299 304 305 +.00551792471427409 122078981457067e-34 .0002
078096224287755 -3053621231337165e-32 1 -530748452113366e-31 -.308804588195808 -
599105614242511e-31 -.951125505025082 .000203768715490039 133 304 650 0 303 301
 306 0 +306 .0055475 0 0 .005455 601853107621011e-50 1400000000000012e-20 0 .319
023256756794 141 305 299 305 305 301 16 303 46 307 ?118 308 298 304 0 0 1 31 306
 651 0 1 304 309 310 +.00554476112129543 178038100827554e-34 .000294484194273368
5 -916323942938099e-32 1 -605428319441243e-31 .00930019439924944 -60454993695260
8e-31 -.999956752256884 .0002944969306009715 133 309 654 0 308 306 311 0 +311 .0
056245 0 7e-6 .0055475 3009265538105055e-51 542101086242752e-34 344035275309156e
-31 .196589454512188 141 310 304 310 310 306 16 308 48 312 ?114 313 303 309 0 0
 1 31 311 655 0 1 309 314 315 +.00555050755124179 240047250205667e-34 .000393916
936340373 554371557996946e-32 1 -609808713796634e-31 .187832218937353 -609367691
063665e-31 -.982201128857563 .0003939284174824885 133 314 658 0 313 311 316 0 +3
16 .00569 -3009265538105055e-51 27e-6 .0056245 -3009265538105055e-51 7e-6 162552
3533054505e-31 .205720263049065 141 315 309 315 315 311 16 313 50 317 ?110 318 3
08 314 0 0 1 31 316 659 0 1 314 319 320 +.00556037371182143 203126388439675e-34
 .0003342698437848195 178818668046827e-31 1 -585631137853362e-31 .38869241786100
25 -609087000510463e-31 -.921367572848843 .000333493225548138 133 319 662 0 321
 316 322 0 +322 .0058075 0 105e-6 .005749 0 6e-5 -369027438004273e-19 3690274380
042825e-20 141 320 314 320 320 316 16 321 54 323 ?102 324 318 319 0 0 1 30 322 6
63 0 1 319 325 326 +.00577825 0 825e-7 -.792623989104603 0 -.609710760849689 133
 325 666 0 327 322 328 0 +328 .0058475 -293403389965243e-49 850000000000025e-20
 .0058245 -2858802261199805e-50 44e-6 857264413384265e-30 .682057563052937 141 3
26 319 326 326 322 16 327 58 329 ?94 330 324 325 0 0 1 31 328 667 0 1 325 331 33
2 +.00588601481952174 364910804105771e-35 586539675774641e-19 -513894176411189e-
31 1 -3329455227452835e-32 -.609063235654861 -577060357114342e-31 -.793121664672
975 632361588535644e-19 133 331 670 0 330 328 333 0 +333 .005889 752316384526264
e-51 135525271560688e-34 .0058475 526621469168385e-50 85e-7 0 .50984951692439 14
1 332 325 332 332 328 16 330 60 334 ?90 335 327 331 0 0 1 31 333 671 0 1 331 336
 337 +.00588455886807779 497688357581499e-35 838756500268592e-19 -12286496193455
3e-31 1 -599870108268686e-31 .0528749334190797 -592534498670831e-31 -.9986011423
06541 839931444832174e-19 133 336 674 0 338 333 339 0 +339 .0059555 601853107621
011e-50 6185e-7 .005975 601853107621011e-50 496e-6 3654499152226395e-32 .3360648
859268135 141 337 331 337 337 333 16 338 66 340 ?78 341 342 336 0 0 1 31 339 675
 0 1 336 343 344 +.00560417419622845 223878853725511e-34 .000499772627154735 604
70982406049e-30 1 962599311769737e-32 .947365636868278 -603699274474372e-31 .320
1536351209555 .000370844993843064 133 343 678 0 341 339 345 0 +345 .005898 -2106
48587667354e-49 7145e-7 .0059555 -210648587667354e-49 6185e-7 -888178419700125e-
30 .428288476763679 141 344 336 344 344 339 16 341 68 346 ?74 347 338 343 0 0 1
 31 345 679 0 1 343 348 349 +.00570603884144264 1575342894682335e-35 .0005343032
12322411 525304237424114e-31 1 314635350540486e-31 .72909510667424 -598337082605
016e-31 .684412394265094 .00026328685626899 133 348 682 0 347 345 350 0 +350 .00
5806 -601853107621011e-50 7775e-7 .005898 -1805559322863035e-50 7145e-7 0 .43622
6366848439 141 349 343 349 349 345 16 347 70 351 ?70 210 341 348 0 0 1 31 350 68
3 0 1 348 18 352 +.005709877053759 154025446121009e-34 .000538455380092503 34596
60145996455e-32 1 505220211796304e-31 .3730800851914525 -597815909807853e-31 .92
7799143151975 .000257646950497713 133 18 686 0 210 350 8 0 +8 .0056825 0 8e-4 .0
05806 601853107621011e-50 7775e-7 2631132137429905e-33 .392455562886793 141 352
 348 352 352 350 16 210 72 353 ?66 354 347 18 0 0 1 81 1 353 740 27 210 0 0 355
 351 356 17 66 0 0 0 0 63 194 210 0 209 +16 354 74 355 ?357 358 210 359 0 0 1 81
 1 355 739 27 354 0 0 360 353 361 17 357 0 0 0 0 56 362 354 0 0 +16 358 77 360 ?
62 363 354 364 0 0 1 133 359 546 0 354 365 366 0 +366 .00579 481482486096809e-49
 352e-6 .0056515 481482486096809e-49 341e-6 0 .187129506962004 30 365 300 0 1 36
4 359 367 +.00579 0 2155e-7 0 0 1 31 366 547 0 1 359 368 369 +.0057793611837579
 453298081921561e-34 -.000391468086406309 484795213790004e-32 -1 -61040124645377
9e-31 .01430824988944484 -609645103641754e-31 .999897631752922 .0007435442017228
65 133 368 550 0 363 366 370 0 +370 .0057065 -1203706215242022e-50 1495e-7 .0057
9 -1805559322863035e-50 2155e-7 0 .340953435397931 141 369 359 369 369 366 16 36
3 79 371 ?55 372 358 368 0 0 1 31 370 551 0 1 368 373 374 +.00555655406690602 18
9291552055036e-34 .0004250244002022335 -379702432349703e-31 -1 480381107593944e-
31 .478016301735436 -603447161227087e-31 -.878350963610319 .0003136837228136405
 133 373 554 0 372 370 375 0 +375 .0056055 -3009265538105055e-51 128e-6 .0057065
 105324293833677e-49 1495e-7 762564372651656e-32 .469116425809713 141 374 368 37
4 374 370 16 372 81 376 ?51 377 363 373 0 0 1 31 375 555 0 1 373 378 379 +.00561
101275900942 1323050895541592e-35 .0003500854111650725 -1274895300663722e-32 -1
 598904304032723e-31 -.02481505370730145 -595556217391144e-31 -.999692059140966
 .000222153821403673 133 378 558 0 377 375 380 0 +380 .0055285 451389830715758e-
50 1505e-7 .0056055 -150463276905253e-50 128e-6 0 .656693261523845 141 379 373 3
79 379 375 16 377 83 381 ?47 382 372 378 0 0 1 31 380 559 0 1 378 383 384 +.0056
000223301533 720922806469092e-35 .000252259752080184 171743639711811e-31 -1 5877
44900347084e-31 -.575028815539172 -579611132090566e-31 -.818133156215794 .000124
3804279377514 133 383 562 0 382 380 385 0 +385 .005499 376158192263132e-49 225e-
6 .0055285 4062508476441825e-50 1505e-7 0 .933921412844348 141 384 378 384 384 3
80 16 382 85 386 ?43 387 377 383 0 0 1 31 385 563 0 1 383 388 389 +.005587636995
25127 486605500724633e-35 .0002170072665760065 569315101116624e-31 -1 2254334964
15314e-31 -.995958971690855 -546768437656264e-31 .0898093909816514 8899663316530
79e-19 133 388 566 0 387 385 390 0 +390 .0055135 2858802261199805e-50 274e-6 .00
5499 2407412430484045e-50 225e-6 -177635683940025e-29 .582668041008361 141 389 3
83 389 389 385 16 387 87 391 ?37 23 382 388 0 0 1 31 390 567 0 1 388 392 393 +.0
0558795311134801 521732147968205e-35 .000225322548682731 587154927079385e-31 -1
 -1737499274010395e-32 -.83698727071111 -58652104480761e-30 .547222357609379 889
536961353773e-19 133 392 570 0 23 390 394 0 +394 .0055615 105324293833677e-49 31
35e-7 .0055135 210648587667354e-49 274e-6 562612526123454e-30 .522028560101551 1
41 393 388 393 393 390 16 23 89 395 ?32 11 387 392 0 0 1 31 394 571 0 1 392 24 3
96 +.00561144015862475 71251948637158e-34 .000203898668000309 389085766600356e-3
1 -1 -472813083463728e-31 -.4146379265699115 -591583228018385e-31 .9099864778389
87 .000120442813897597 133 24 574 0 11 394 215 0 +215 .0056515 -601853107621011e
-50 341e-6 .0055615 -54166779685891e-48 3135e-7 0 .268943214063203 141 396 392 3
96 396 394 81 1 395 732 27 23 0 0 21 391 397 80 7 CCCCCDI12 legal_owners0 17 1 l
CZ1 27 398 399 9000 0 0 0 0 3 5 0 0 0 FFTFTFTTFFFFFFFFF2 81 1 21 731 27 11 0 0 1
96 395 400 81 1 391 733 27 387 0 0 395 386 401 83 255 1 397 206 81 1 386 734 27
 382 0 0 391 381 402 83 1 401 207 81 1 381 735 27 377 0 0 386 376 403 83 1 402 2
08 81 1 376 736 27 372 0 0 381 371 404 83 1 403 209 81 1 371 737 27 363 0 0 376
 360 405 83 1 404 210 81 1 360 738 27 358 0 0 371 355 406 83 1 405 211 83 1 406
 212 83 1 400 205 79 255 13 399 BTI/importTag17 37 0 0 0 0 33 36 387 0 407 +17 3
6 0 408 31 407 26 37 387 0 0 -17 407 0 408 36 409 33 43 382 0 0 -15 408 73 0 362
 17 202 17 409 0 408 407 410 38 47 377 0 0 -17 43 0 0 0 0 38 407 382 0 409 +17 4
10 0 408 409 411 44 51 372 0 0 -17 47 0 0 0 0 44 409 377 0 410 +17 411 0 408 410
 412 48 55 363 0 0 -17 51 0 0 0 0 48 410 372 0 411 +17 412 0 408 411 362 52 62 3
58 0 0 -17 55 0 0 0 0 52 411 363 0 412 +17 362 0 408 412 30 59 357 354 0 0 -17 6
2 0 0 0 0 59 412 358 0 362 +17 30 0 408 362 31 56 22 11 0 357 -17 31 0 408 30 36
 12 32 23 0 0 -14 255 17 3 213 ?0 0 408 6 7 +0 0 0 0 6 81 1 213 774 27 17 0 0 21
1 14 413 81 1 14 775 27 1 414 2 213 0 415 83 1 413 248 81 1 414 542 416 1 417 14
 0 0 418 83 1 415 249 80 1 416 419 420 9000 0 0 0 0 3 5 0 0 0 TTTFFFFFFFFFFFFFF1
 81 1 417 406 421 1 422 414 0 0 423 82 255 1 418 0 80 1 421 424 425 8038 0 0 0 0
 0 0 0 0 0 TTTTTTTTTTTTTFTFT10 81 1 422 405 424 1 0 417 0 0 426 98 255 19 423 72
 67 45 48 52 83 104 97 112 101 83 116 114 105 110 103 48 49 50 80 1 424 427 428
 8017 0 0 0 0 0 0 0 0 0 TTTTTTTTTTTTTFTFT3 84 255 19 426 HC-04ShapeString01279 1
3 428 SDL/TYSA_NAME79 14 425 SDL/TYSA_UNAME79 23 420 ONSHAPE_ORIGINALBODY_ID133
 364 477 0 358 429 365 0 +365 .00579 0 2155e-7 .00579 0 352e-6 0 1365e-7 141 367
 364 367 367 365 30 429 288 0 1 430 364 431 +.005975 0 496e-6 0 0 -1 133 430 465
 0 342 432 429 0 +429 .005975 0 496e-6 .005975 0 0 0 496e-6 141 431 430 431 431
 429 16 342 64 433 ?82 338 335 430 0 0 1 30 432 286 0 1 434 430 435 +.005975 0 0
 -1 0 0 133 434 463 0 335 436 432 0 +432 .005975 0 0 .005889 0 0 0 86e-6 141 435
 434 435 435 432 16 335 62 437 ?86 342 330 434 0 0 1 30 436 280 0 1 438 434 439
 +.0058245 0 44e-6 -.268458237787938 0 .963291323828776 133 438 457 0 324 440 43
6 0 +436 .0058245 0 44e-6 .0058075 0 .0001050000000000066 0 633245607959502e-19
 141 439 438 439 439 436 16 324 56 441 ?98 327 321 438 0 0 1 31 440 276 0 1 442
 438 443 +.00555345281456956 0 .00034037224061806 0 1 0 .399460113565502 0 -.916
750575494903 .000341829336129828 133 442 453 0 318 444 440 0 +440 .005749 0 5999
99999999986e-19 .00569 0 26999999999999e-18 6.08509690245954 6.28318530717959 14
1 443 442 443 443 440 16 318 52 445 ?106 321 313 442 0 0 1 30 444 250 0 1 446 44
2 447 +.00579 0 48e-5 0 0 1 133 446 427 0 257 448 444 0 +444 .00579 0 48e-5 .005
79 0 5165e-7 0 365e-7 141 447 446 447 447 444 16 257 26 449 ?158 260 252 446 0 0
 1 30 448 232 0 1 207 446 450 +.005389 0 619e-6 -.493756159187101 0 .86960039976
1179 133 207 409 0 200 0 448 0 +448 .005389 0 619e-6 .0053555 0 .000677999999999
981 0 678472549186777e-19 141 450 207 450 450 448 81 1 449 763 27 257 0 0 262 25
6 451 17 158 0 0 0 0 155 452 257 0 453 +17 452 0 202 454 453 151 158 257 0 0 -17
 453 0 202 452 455 155 162 252 0 0 -17 455 0 202 453 456 159 166 247 0 0 -17 162
 0 0 0 0 159 453 252 0 455 +17 456 0 202 455 457 163 170 242 0 0 -17 166 0 0 0 0
 163 455 247 0 456 +17 457 0 202 456 458 167 174 237 0 0 -17 170 0 0 0 0 167 456
 242 0 457 +17 458 0 202 457 459 171 178 232 0 0 -17 174 0 0 0 0 171 457 237 0 4
58 +17 459 0 202 458 460 175 182 227 0 0 -17 178 0 0 0 0 175 458 232 0 459 +17 4
60 0 202 459 203 179 186 222 0 0 -17 182 0 0 0 0 179 459 227 0 460 +17 203 0 202
 460 199 183 190 205 0 0 -17 186 0 0 0 0 183 460 222 0 203 +17 190 0 0 0 0 187 2
03 205 0 199 +17 454 0 202 461 452 147 154 260 0 0 -17 461 0 202 462 454 143 150
 263 0 0 -17 154 0 0 0 0 151 454 260 0 452 +17 462 0 202 463 461 139 146 268 0 0
 -17 150 0 0 0 0 147 461 263 0 454 +17 463 0 202 464 462 135 142 273 0 0 -17 146
 0 0 0 0 143 462 268 0 461 +17 464 0 202 465 463 131 138 278 0 0 -17 142 0 0 0 0
 139 463 273 0 462 +17 465 0 202 466 464 127 134 283 0 0 -17 138 0 0 0 0 135 464
 278 0 463 +17 466 0 202 467 465 123 130 288 0 0 -17 134 0 0 0 0 131 465 283 0 4
64 +17 467 0 202 468 466 119 126 293 0 0 -17 130 0 0 0 0 127 466 288 0 465 +17 4
68 0 202 469 467 115 122 298 0 0 -17 126 0 0 0 0 123 467 293 0 466 +17 469 0 202
 470 468 111 118 303 0 0 -17 122 0 0 0 0 119 468 298 0 467 +17 470 0 202 471 469
 107 114 308 0 0 -17 118 0 0 0 0 115 469 303 0 468 +17 471 0 202 472 470 103 110
 313 0 0 -17 114 0 0 0 0 111 470 308 0 469 +17 472 0 202 473 471 99 106 318 0 0
 -17 110 0 0 0 0 107 471 313 0 470 +17 473 0 202 474 472 95 102 321 0 0 -17 106
 0 0 0 0 103 472 318 0 471 +17 474 0 202 475 473 91 98 324 0 0 -17 102 0 0 0 0 9
9 473 321 0 472 +17 475 0 202 476 474 87 94 327 0 0 -17 98 0 0 0 0 95 474 324 0
 473 +17 476 0 202 477 475 83 90 330 0 0 -17 94 0 0 0 0 91 475 327 0 474 +17 477
 0 202 478 476 79 86 335 0 0 -17 90 0 0 0 0 87 476 330 0 475 +17 478 0 202 479 4
77 75 82 342 0 0 -17 86 0 0 0 0 83 477 335 0 476 +17 479 0 202 480 478 71 78 338
 0 0 -17 82 0 0 0 0 79 478 342 0 477 +17 480 0 202 209 479 67 74 341 0 0 -17 78
 0 0 0 0 75 479 338 0 478 +17 209 0 202 194 480 63 70 347 0 0 -17 74 0 0 0 0 71
 480 341 0 479 +17 70 0 0 0 0 67 209 347 0 480 +81 1 262 762 27 260 0 0 267 449
 481 81 1 256 764 27 252 0 0 449 251 482 83 1 451 237 81 1 251 765 27 247 0 0 25
6 246 483 83 1 482 238 81 1 246 766 27 242 0 0 251 241 484 83 1 483 239 81 1 241
 767 27 237 0 0 246 236 485 83 1 484 240 81 1 236 768 27 232 0 0 241 231 486 83
 1 485 241 81 1 231 769 27 227 0 0 236 226 487 83 1 486 242 81 1 226 770 27 222
 0 0 231 221 488 83 1 487 243 81 1 221 771 27 205 0 0 226 204 489 83 1 488 244 8
1 1 204 772 27 200 0 0 221 211 490 83 1 489 245 83 1 490 246 81 1 267 761 27 263
 0 0 272 262 491 83 1 481 236 81 1 272 760 27 268 0 0 277 267 492 83 1 491 235 8
1 1 277 759 27 273 0 0 282 272 493 83 1 492 234 81 1 282 758 27 278 0 0 287 277
 494 83 1 493 233 81 1 287 757 27 283 0 0 292 282 495 83 1 494 232 81 1 292 756
 27 288 0 0 297 287 496 83 1 495 231 81 1 297 755 27 293 0 0 302 292 497 83 1 49
6 230 81 1 302 754 27 298 0 0 307 297 498 83 1 497 229 81 1 307 753 27 303 0 0 3
12 302 499 83 1 498 228 81 1 312 752 27 308 0 0 317 307 500 83 1 499 227 81 1 31
7 751 27 313 0 0 445 312 501 83 1 500 226 81 1 445 750 27 318 0 0 323 317 502 83
 1 501 225 81 1 323 749 27 321 0 0 441 445 503 83 1 502 224 81 1 441 748 27 324
 0 0 329 323 504 83 1 503 223 81 1 329 747 27 327 0 0 334 441 505 83 1 504 222 8
1 1 334 746 27 330 0 0 437 329 506 83 1 505 221 81 1 437 745 27 335 0 0 433 334
 507 83 1 506 220 81 1 433 744 27 342 0 0 340 437 508 83 1 507 219 81 1 340 743
 27 338 0 0 346 433 509 83 1 508 218 81 1 346 742 27 341 0 0 351 340 510 83 1 50
9 217 81 1 351 741 27 347 0 0 353 346 511 83 1 510 216 83 1 511 215 83 1 361 213
 83 1 356 214 141 217 24 217 217 215 83 1 214 247 81 1 193 729 27 191 0 0 189 19
6 512 83 1 198 204 81 1 189 728 27 187 0 0 185 193 513 83 1 512 203 81 1 185 727
 27 183 0 0 181 189 514 83 1 513 202 81 1 181 726 27 179 0 0 177 185 515 83 1 51
4 201 81 1 177 725 27 175 0 0 173 181 516 83 1 515 2e2 81 1 173 724 27 171 0 0 1
69 177 517 83 1 516 199 81 1 169 723 27 167 0 0 165 173 518 83 1 517 198 81 1 16
5 722 27 163 0 0 161 169 519 83 1 518 197 81 1 161 721 27 159 0 0 157 165 520 83
 1 519 196 81 1 157 720 27 155 0 0 153 161 521 83 1 520 195 81 1 153 719 27 151
 0 0 149 157 522 83 1 521 194 81 1 149 718 27 147 0 0 145 153 523 83 1 522 193 8
1 1 145 717 27 143 0 0 141 149 524 83 1 523 192 81 1 141 716 27 139 0 0 137 145
 525 83 1 524 191 81 1 137 715 27 135 0 0 133 141 526 83 1 525 190 81 1 133 714
 27 131 0 0 129 137 527 83 1 526 189 81 1 129 713 27 127 0 0 125 133 528 83 1 52
7 188 81 1 125 712 27 123 0 0 121 129 529 83 1 528 187 81 1 121 711 27 119 0 0 1
17 125 530 83 1 529 186 81 1 117 710 27 115 0 0 113 121 531 83 1 530 185 81 1 11
3 709 27 111 0 0 109 117 532 83 1 531 184 81 1 109 708 27 107 0 0 105 113 533 83
 1 532 183 81 1 105 707 27 103 0 0 101 109 534 83 1 533 182 81 1 101 706 27 99 0
 0 97 105 535 83 1 534 181 81 1 97 705 27 95 0 0 93 101 536 83 1 535 180 81 1 93
 704 27 91 0 0 89 97 537 83 1 536 179 81 1 89 703 27 87 0 0 85 93 538 83 1 537 1
78 81 1 85 702 27 83 0 0 81 89 539 83 1 538 177 81 1 81 701 27 79 0 0 77 85 540
 83 1 539 176 81 1 77 700 27 75 0 0 73 81 541 83 1 540 175 81 1 73 699 27 71 0 0
 69 77 542 83 1 541 174 81 1 69 698 27 67 0 0 65 73 543 83 1 542 173 81 1 65 697
 27 63 0 0 61 69 544 83 1 543 172 81 1 61 696 27 59 0 0 58 65 545 83 1 544 171 8
1 1 58 695 27 56 0 0 54 61 546 83 1 545 170 81 1 54 694 27 52 0 0 50 58 547 83 1
 546 169 81 1 50 693 27 48 0 0 46 54 548 83 1 547 168 81 1 46 692 27 44 0 0 42 5
0 549 83 1 548 167 81 1 42 691 27 38 0 0 34 46 550 83 1 549 166 81 1 34 690 27 3
3 0 0 28 42 551 83 1 550 165 83 1 551 164 83 1 35 163 83 1 29 162 141 19 18 19 1
9 8 74 4 CI16 index_map_offset0 0 1 dCCZ20 16 5 0 0 422 417 414 14 2 0 0 0 0 0 0
 0 0 0 0 0 0 0 0 0 80 1 13 27 552 9000 0 0 0 0 3 5 0 0 0 FFTFTFTTFFFFFFFFF2 83 1
 15 17325 79 18 552 BTI/importMaxCount1 0 
