**ABCDEFGHIJKLMNOPQRSTUVWXYZabcdefghijklmnopqrstuvwxyz**************************
**PARASOLID !"#$%&'()*+,-./:;<=>?@[\]^_`{|}~0123456789**************************
**PART1;
MC=unknown;
MC_MODEL=unknown;
MC_ID=unknown;
OS=unknown;
OS_RELEASE=unknown;
FRU=Parasolid 37.0.173;
APPL=Onshape;
SITE=unknown;
USER=unknown;
FORMAT=text;
GUISE=transmit;
KEY=BTGapi::writeModels_.xmt;
FILE=BTGapi::writeModels_.xmt;
DATE=2024-12-29T04:00:29 (UTC);
**PART2;
SCH=SCH_3700173_36001;
USFLD_SIZE=0;
**PART3;
**END_OF_HEADER*****************************************************************
T51 : TRANSMIT FILE created by modeller version 370017323 SCH_3700173_36001_1300
6231 0 12 36 CCCI7 lattice222 0 CCCI4 mesh1006 0 I8 polyline1008 0 CCCCCCCDI5 ow
ner1040 0 CCCI16 boundary_lattice222 0 CCCI13 boundary_mesh1006 0 I17 boundary_p
olyline1008 0 CCCA16 index_map_offset0 0 1 dA9 index_map82 0 A17 node_id_index_m
ap82 0 A20 schema_embedding_map82 0 A5 child12 0 A14 lowest_node_id0 0 1 dA16 me
sh_offset_data206 0 Z1 1031 2 3 0 0 0 0 0 0 0 1e3 1e-8 0 4 5 1 0 1 2 6 0 7 8 9 0
 0 10 11 12 0 0 0 0 0 0 0 81 255 1 2 1031 13 1 14 0 0 0 15 70 11 CI9 list_type0
 0 1 uI10 notransmit0 0 1 lCCCDCCDI12 finger_index0 0 1 dI12 finger_block1012 0
 CZ3 0 4 T1 0 0 6 20 1 16 16 13 255 6 116 0 1 0 17 0 0 18 0 50 255 7 729 0 19 20
 0 0 +-.01690553124388 .000523945311339 -.00282354 -5669127937527e-28 8659487671
686e-29 1 -.0035589075122676 .999993667068607 -886119185179338e-31 30 255 8 856
 0 21 22 0 0 +-.015815 8144199999999e-17 -.00282354 -.999999828481103 -.00058569
425854986 -56686197839433e-29 29 255 9 783 0 23 24 0 -.01652224918980045 .000406
010519843952 -.00282354 19 9 CCCCCCI5 frame230 0 CA5 owner12 0 Z10 1 0 1 18 0 25
 0 V0 16 255 11 110 26 ?27 0 28 29 0 0 1 18 255 12 106 30 31 0 32 33 5e-7 1 81 1
 30 877 34 12 0 0 0 35 36 17 255 31 0 37 38 39 12 27 11 0 40 -18 32 101 35 38 12
 41 42 5e-7 1 29 33 405 0 12 42 43 -.01720990302634 .000484445980128 -.00225781
 29 42 401 0 32 44 33 -.01721017519379 .000560920495817 -.00225781 29 43 395 0 4
5 33 46 -.01720990302634 .000484445980128 -.00282354 18 45 94 47 27 41 48 43 5e-
7 1 29 46 676 0 49 43 50 -.01660115946142 .000563444642548684 -.00225781 18 49 8
1 51 52 48 53 46 ?1 29 50 677 0 54 46 55 -.01644577420294795 .000405420818359535
 -.00225781 18 54 61 56 57 58 59 50 ?1 29 55 678 0 60 50 61 -.01644577420309155
 .000247495079387985 -.00225781 18 60 41 62 63 64 65 55 ?1 29 61 679 0 66 55 67
 -.01627607044546 811719536410948e-19 -.00225781 18 66 16 68 69 70 71 61 ?1 29 6
7 680 0 70 61 72 -.015815 814419999999934e-19 -.00225781 18 70 18 73 74 75 66 67
 ?1 29 72 681 0 76 67 77 -.015815 496699999999534e-20 -.00225781 18 76 25 78 79
 80 75 72 ?1 29 77 682 0 75 72 81 -.01627607044546 469695364111542e-20 -.0022578
1 18 75 23 82 83 76 70 77 ?1 29 81 683 0 64 77 84 -.0165222491899797 .0002475398
70356713 -.00225781 18 64 46 85 86 23 60 81 ?1 29 84 686 0 80 81 87 -.0165222491
8997985 .000247539870357001 -.00282354 18 80 34 88 89 65 76 84 ?1 29 87 687 0 90
 84 91 -.01627607044546 469695364111591e-20 -.00282354 18 90 7 92 93 94 95 87 ?1
 29 91 688 0 95 87 96 -.015815 496699999999598e-20 -.00282354 18 95 6 97 98 90 0
 91 ?1 29 96 689 0 71 91 99 -.015815 814419999999933e-19 -.00282354 18 71 11 100
 101 66 94 96 ?1 29 99 690 0 94 96 102 -.01627607044546 811719536410948e-19 -.00
282354 18 94 9 103 104 71 90 99 ?1 29 102 691 0 65 99 105 -.0164457742030931 .00
02474950793882885 -.00282354 18 65 36 106 107 60 80 102 ?1 29 105 692 0 59 102 1
08 -.01644577420294795 .0004054208183592195 -.00282354 18 59 56 109 110 54 23 10
5 ?1 29 108 693 0 53 105 111 -.016601159461421 .00056344464254869 -.00282354 18
 53 76 112 113 49 114 108 ?1 29 111 760 0 114 108 115 -.0166014482107399 .000486
967802065742 -.00282354 18 114 74 116 117 53 58 111 11560137463358e-19 1 29 115
 761 0 48 111 24 -.01660144821073915 .000486967802065732 -.00225781 18 48 86 118
 119 45 49 115 1156013747160086e-21 1 29 24 782 0 58 115 9 -.01652224918980045 .
0004060105198441095 -.00225781 18 58 66 120 121 114 54 24 1044910516332138e-21 1
 81 1 120 885 34 58 0 0 116 56 122 17 121 0 123 86 119 58 124 125 0 126 -15 255
 123 21 0 127 128 0 17 86 0 123 83 121 64 129 130 0 131 -17 119 0 123 121 132 48
 40 28 0 133 -17 124 0 134 135 126 48 121 125 0 0 +16 125 87 136 ?124 137 138 13
9 0 0 1 17 126 0 134 124 140 58 141 142 0 129 -15 134 89 0 124 143 0 17 140 0 13
4 126 135 23 144 145 0 141 -17 141 0 146 89 129 23 126 142 0 147 +16 142 70 148
 ?141 145 130 149 0 0 1 17 129 0 146 141 131 58 86 130 0 0 +15 146 69 0 129 150
 0 17 131 0 146 129 89 64 151 152 0 153 -16 130 67 154 ?129 142 155 156 0 0 1 81
 1 154 916 34 130 0 0 148 157 158 16 155 62 157 ?159 130 160 161 0 0 1 133 255 1
56 801 0 130 162 163 0 +163 -.01652224918998 .000247539870356713 -.00225781 -.01
652224918998 .0004060105198441095 -.00225781 -286934104948289e-30 .0001584706494
871095 31 255 162 792 0 164 165 156 0 +-.01660215195771 .000407061431274 -.00282
354 -5669127937527e-28 8659487671686e-29 1 -1 0 -5669127937527e-28 .000156386360
714 30 163 798 0 1 156 166 167 +-.01652224918998 .000247539870357 -.00225781 444
0892098501e-28 1 -865948767168598e-31 133 166 807 0 168 163 169 0 +169 -.0165222
4918998 .000247539870357001 -.00282354 -.01652224918998 .000406010519843952 -.00
282354 -.000276405440981999 -.000117934791495048 141 255 167 156 167 167 163 16
 168 53 170 ?147 171 152 166 0 0 1 30 169 804 0 1 166 161 172 +-.01652224918998
 .000523945311339 -.00282354 4440892098501e-28 1 -865948767168598e-31 30 161 811
 0 155 169 173 0 +-.01644577420309 .000523945311339 -.00225781 4440892098501e-28
 1 -865948767168598e-31 141 172 166 172 172 169 30 173 816 0 171 161 174 0 +-.01
644577420309 .000247495079388 -.00282354 4440892098501e-28 1 -865948767168598e-3
1 16 171 57 175 ?176 160 168 173 0 0 1 31 174 822 0 177 173 178 0 +-.01627780945
44 .000249135712619 -.00225781 5669127937527e-28 -8659487671686e-29 -1 1 0 56691
27937527e-28 .000244444944809 16 177 47 179 ?153 152 180 174 0 0 1 31 178 828 0
 181 174 182 0 +-.0162778094544 .000249135712619 -.00282354 5669127937527e-28 -8
659487671686e-29 -1 -1 0 -5669127937527e-28 .000244444944809 16 181 33 183 ?184
 185 186 178 0 0 1 31 182 832 0 180 178 187 0 +-.0162778094544 .000249135712619
 -.00225781 5669127937527e-28 -8659487671686e-29 -1 1 0 5669127937527e-28 .00016
7972761131 16 180 42 188 ?189 177 190 182 0 0 1 31 187 839 0 185 182 191 0 +-.01
62778094544 .000249135712619 -.00282354 5669127937527e-28 -8659487671686e-29 -1
 -1 0 -5669127937527e-28 .000167972761131 16 185 37 192 ?193 190 181 187 0 0 1 3
0 191 844 0 194 187 195 0 +-.015815 4966999999992e-18 -.00225781 -.9999998284811
03 -.00058569425854986 -56686197839433e-29 16 194 24 196 ?197 198 199 191 0 0 1
 30 195 848 0 200 191 22 0 +-.01690522690722145 432846025039406e-20 -.00282354 -
.999999828481103 -.00058569425854986 -56686197839433e-29 16 200 5 201 ?202 21 0
 195 0 0 1 30 22 852 0 203 195 8 0 +-.0169052716981822 808034340165792e-19 -.002
25781 -.999999828481103 -.00058569425854986 -56686197839433e-29 16 203 17 204 ?1
27 199 205 22 0 0 1 81 1 204 932 34 203 0 0 206 207 208 17 127 0 123 189 74 66 2
09 203 0 210 +16 199 19 206 ?211 194 203 212 0 0 1 16 205 15 207 ?210 203 213 21
4 0 0 1 81 1 207 933 34 205 0 0 204 215 216 17 210 0 217 209 218 66 219 205 0 0
 +16 213 12 215 ?220 205 21 221 0 0 1 30 214 333 0 205 0 222 0 +-.01627607044546
 8117195364098e-17 -.00282354 -7885984946898e-28 8659560562355e-29 1 30 222 344
 0 223 214 224 0 +-.01627607044546 4696953640979e-18 -.00225781 7885984946898e-2
8 -8659560562355e-29 -1 16 223 29 225 ?226 186 198 222 0 0 1 30 224 354 0 190 22
2 227 0 +-.01644577420309 .000247495079388 -.00282354 5665538897648e-28 -1972152
263053e-43 -1 16 190 40 228 ?229 180 185 224 0 0 1 30 227 361 0 152 224 230 0 +-
.01652224918998 .000247539870357 -.00225781 5665538897648e-28 -1972152263053e-43
 -1 16 152 50 231 ?151 168 177 227 0 0 1 30 230 370 0 160 227 232 0 +-.016445774
20309 .000405420798044 -.00282354 -4798282487438e-28 2219938482912e-28 1 16 160
 60 233 ?234 155 171 230 0 0 1 133 232 601 0 235 230 236 0 +236 -.01660115946142
1 .000563444642548996 -.00282354 -.01721017519379 .00056092049581726 -.00282354
 995739798603286e-30 .000609020963178518 16 235 97 237 ?238 239 240 232 0 0 1 30
 236 399 0 1 232 241 242 +-.01660115946142 .000563444642549 -.00282354 -.9999914
11119099 -.00414459745123741 -566549023700956e-30 30 241 386 0 243 236 244 0 +-.
01660115946142 .000563444642549 -.00282354 -5665538897648e-28 1972152263053e-43
 1 141 242 232 242 242 236 16 243 80 245 ?246 138 164 241 0 0 1 133 244 607 0 24
7 241 248 0 +248 -.01660115946142 .000563444642549 -.00225781 -.01721017519379 .
00056092049581726 -.00225781 -346941715328695e-32 .000609020963178518 16 247 102
 249 ?250 251 239 244 0 0 1 30 248 403 0 1 244 252 253 +-.01660115946142 .000563
444642549 -.00225781 -.999991411119099 -.00414459745123741 -788542871992178e-30
 133 252 613 0 28 248 254 0 +254 -.01660144821073915 .000486967802065821 -.00225
781 -.01720990302634 .00048444598012826 -.00225781 560921586828987e-21 .00060902
0963178521 141 253 244 253 253 248 16 28 107 255 ?40 11 251 252 0 0 1 30 254 407
 0 1 252 256 257 +-.01660088729397 .00048697012686 -.00225781 -.999991411119099
 -.00414459745123741 -566549023700956e-30 133 256 615 0 258 254 259 0 +259 -.016
6014482107399 .000486967802065818 -.00282354 -.01720990302634 .00048444598012826
 -.00282354 56092158757834e-20 .000609020963178521 141 257 252 257 257 254 16 25
8 93 260 ?261 240 137 256 0 0 1 30 259 396 0 1 256 212 262 +-.01660088729397 .00
048697012686 -.00282354 -.999991411119099 -.00414459745123741 -566549023700956e-
30 30 212 336 0 199 259 263 0 +-.015815 8144199999999e-17 -.00282354 -7885984946
898e-28 8659560562355e-29 1 141 262 256 262 262 259 30 263 345 0 186 212 264 0 +
-.015815 4966999999992e-18 -.00225781 7885984946898e-28 -8659560562355e-29 -1 16
 186 30 265 ?98 181 223 263 0 0 1 133 264 631 0 240 263 266 0 +266 -.01720990302
634 .000484445980128 -.00282354 -.017210175193792 .000560920495816993 -.00282354
 0 764749999999212e-19 16 240 95 267 ?268 235 258 264 0 0 1 30 266 398 0 1 264 2
9 269 +-.01720990302634 .000484445980128 -.00282354 -.0035589075122676 .99999366
7068607 -886119185179051e-31 133 29 633 0 11 266 270 0 +270 -.01720990302634 .00
0484445980128 -.00225781 -.01720990302634 .000484445980128 -.00282354 0 56573e-8
 141 269 264 269 269 266 30 270 409 0 1 29 271 272 +-.01720990302634 .0004844459
80128 -.00225781 788905274248e-27 -8580482100699e-29 -1 133 271 635 0 251 270 27
3 0 +273 -.01721017519379 .000560920495817 -.00225781 -.017209903026338 .0004844
45980128007 -.00225781 0 764749999999212e-19 141 272 29 272 272 270 16 251 105 2
74 ?132 28 247 271 0 0 1 30 273 406 0 1 271 275 276 +-.01721017519379 .000560920
495817 -.00225781 .0035589075122676 -.999993667068607 886119185179051e-31 133 27
5 637 0 239 273 277 0 +277 -.01721017519379 .000560920495817 -.00282354 -.017210
17519379 .000560920495817 -.00225781 0 56573e-8 141 276 271 276 276 273 16 239 1
00 278 ?279 247 235 275 0 0 1 30 277 402 0 1 275 221 280 +-.01721017519379 .0005
60920495817 -.00282354 -788905274248e-27 8580482100699e-29 1 30 221 745 0 213 27
7 281 0 +-.015815 4966999999992e-18 -.00282354 4440892098501e-28 1 -865948767168
598e-31 141 280 275 280 280 277 30 281 750 0 198 221 282 0 +-.015815 49669999999
9205e-20 -.00225781 -4440892098501e-28 -1 865948767168598e-31 16 198 26 283 ?284
 223 194 281 0 0 1 133 282 758 0 137 281 285 0 +285 -.01660249912330125 .0004869
63446418885 -.00282354 -.01660249912330125 .000486963446418885 -.00225781 -56573
e-8 0 16 137 90 286 ?133 258 125 282 0 0 1 30 285 759 0 1 282 139 287 +-.0166024
9912330125 .000486963446418885 -.00225781 -5665538897648e-28 1972152263053e-43 1
 133 139 770 0 125 285 288 0 +288 -.01652225588994545 .000406010606607912 -.0022
5781 -.01660144827295455 .000486960892896641 -.00225781 .0129488172302014 -1.561
79181097348 141 287 282 287 287 285 31 288 771 0 1 139 289 290 --.01660216789245
065 .000407045430360442 -.00225781 5669127937527e-28 -8659487671686e-29 -1 1 0 5
669127937527e-28 7991870247066e-17 133 289 775 0 145 288 291 0 +291 -.0165222558
8994545 .000406010606607754 -.00282354 -.0166014482729553 .000486960892896648 -.
00282354 3.12864383635762 4.70338446457265 141 290 139 290 290 288 16 145 73 292
 ?144 164 142 289 0 0 1 31 291 776 0 1 289 149 293 +-.01660216789245065 .0004070
45430360442 -.00282354 -5669127937527e-28 8659487671686e-29 1 -1 0 -566912793752
7e-28 7991870247066e-17 133 149 780 0 142 291 294 0 +294 -.01652224918998 .00040
70454303604415 -.00225781 -.01652224918998 .0004070454303604415 -.00282354 0 -56
573e-8 141 293 289 293 293 291 30 294 781 0 1 149 165 295 --.01652224918998 .000
4070454303604415 -.00225781 -5665538897648e-28 1972152263053e-43 1 31 165 788 0
 138 294 162 0 +-.01660215195771 .000407061431274 -.00225781 -5669127937527e-28
 8659487671686e-29 1 1 0 5669127937527e-28 .000156386360714 141 295 149 295 295
 294 16 138 82 296 ?297 125 243 165 0 0 1 81 1 296 911 34 138 0 0 136 245 298 17
 297 0 123 250 159 49 57 138 0 246 +17 250 0 123 132 297 32 52 247 0 279 +17 159
 0 123 297 189 54 63 155 0 234 +17 57 0 299 300 246 54 297 138 0 159 -17 246 0 2
99 57 301 49 302 243 0 0 +15 299 79 0 301 303 0 17 301 0 299 246 300 53 110 164
 0 0 +17 302 0 304 238 52 53 246 243 0 301 -15 304 99 0 238 305 0 17 238 0 304 2
79 302 41 113 235 0 268 +17 52 0 304 302 279 49 250 247 0 297 -17 279 0 304 52 2
38 32 306 239 0 0 +17 306 0 37 39 38 41 279 239 0 238 -15 37 114 0 39 17 0 17 39
 0 37 31 306 45 268 240 0 261 -17 38 0 37 306 31 32 132 251 0 250 -18 41 96 307
 306 32 45 44 5e-7 1 81 1 307 879 34 41 0 0 35 47 308 29 44 397 0 41 0 42 -.0172
1017519379 .000560920495817 -.00282354 80 7 CCCCCDI12 legal_owners0 17 1 lCZ1 34
 309 310 9000 0 0 0 0 3 5 0 0 0 FFTFTFTTFFFFFFFFF2 81 1 35 878 34 32 0 0 30 307
 311 81 1 47 880 34 45 0 0 307 118 312 83 255 1 308 2264 81 1 118 881 34 48 0 0
 47 51 313 83 1 312 2265 81 1 51 882 34 49 0 0 118 112 314 83 1 313 2266 81 1 11
2 883 34 53 0 0 51 116 315 83 1 314 2267 81 1 116 884 34 114 0 0 112 120 316 83
 1 315 2268 83 1 316 2269 83 1 311 2263 79 255 13 310 BTI/importTag17 132 0 123
 119 250 12 38 251 0 0 +17 268 0 317 113 261 41 39 240 0 0 +17 261 0 317 268 144
 45 117 258 0 0 +15 317 4 0 202 19 0 17 144 0 317 261 147 114 140 145 0 0 +17 11
7 0 318 133 27 114 261 258 0 135 -15 318 109 0 40 319 0 17 133 0 318 40 117 48 1
35 137 0 124 +17 27 0 318 117 40 45 31 11 0 39 +17 135 0 134 140 124 114 133 137
 0 144 -17 40 0 318 27 133 12 119 28 0 132 +14 255 319 108 320 ?305 321 318 6 32
2 -0 0 305 321 25 81 1 320 939 34 319 0 0 323 324 325 14 305 98 324 ?143 319 304
 6 326 -0 0 143 319 25 14 321 111 323 ?319 17 327 6 328 -0 0 319 17 25 50 322 40
8 0 319 329 328 0 +-.01660088729397 .00048697012686 -.00225781 -.004144597451237
41 .999991411119099 -890737788285288e-31 788905274248e-27 -858048210070012e-31 -
1 13 25 2 0 0 0 0 0 0 10 17 14 17 113 330 ?321 0 37 6 331 +0 0 321 0 25 81 1 330
 937 34 17 0 0 201 323 332 50 331 411 0 17 328 20 0 +-.01720990302634 .000484445
980128 -.00282354 -.999993667068607 -.0035589075122696 218455122513214e-30 .0035
589075122696 -.999993667068607 201631289439021e-32 50 328 410 0 321 322 331 0 +-
.015815 4966999999992e-18 -.00282354 -1 4440892098501e-28 -959046076718e-27 -959
046076718e-27 3715167714816e-43 1 51 255 20 652 0 143 331 7 0 +-.016602167892450
65 .000407045430360442 -.00225781 -5665538897648e-28 1972152263053e-43 1 7991870
247066e-17 .0199683204666765 .999800613211324 113131296324654e-31 14 143 88 333
 ?303 305 134 6 20 -0 0 303 305 25 81 1 333 941 34 143 0 0 324 334 335 14 303 78
 334 ?150 143 299 6 336 +0 0 150 143 25 81 1 334 942 34 303 0 0 333 337 338 14 1
50 68 337 ?339 303 146 6 340 -0 0 339 303 25 51 336 384 0 303 340 326 0 +-.01660
215195771 .000407061431274 -.00282354 -5665538897648e-28 1972152263053e-43 1 .00
0156386360714 .0104908971801797 .999944969023973 594365860455319e-32 50 340 376
 0 150 341 336 0 +-.01652224918998 .000247539870357 -.00225781 1 -4440892098501e
-28 4798282487438e-28 4798282487438e-28 -2219938482912e-28 -1 50 326 400 0 305 3
36 329 0 +-.01660115946142 .000563444642549 -.00282354 .00414459745123741 -.9999
91411119099 890737788285288e-31 -788905274248e-27 858048210070012e-31 1 50 329 4
04 0 128 326 322 0 +-.01690553124388 .000523945311339 -.00225781 5669127937527e-
28 -8659487671686e-29 -1 .0035589075122676 -.999993667068607 886119185179338e-31
 14 128 20 342 ?343 344 123 6 329 -0 0 343 344 25 81 1 342 948 34 128 0 0 345 34
6 347 14 343 13 346 ?19 128 217 6 348 -0 0 19 128 25 14 344 27 345 ?128 349 350
 6 351 -0 0 128 349 25 81 1 345 947 34 344 0 0 352 342 353 14 349 38 352 ?344 35
4 355 6 356 -0 0 344 354 25 15 350 28 0 197 344 0 50 351 343 0 344 348 356 0 +-.
015815 4966999999992e-18 -.00225781 -.00058569425854986 .999999828481103 -870574
68381419e-30 7885984946898e-28 -865956056235608e-31 -1 50 348 331 0 343 0 351 0
 +-.015815 8144199999999e-17 -.00282354 .00058569425854986 -.999999828481103 870
57468381419e-30 -7885984946898e-28 865956056235608e-31 1 51 356 352 0 349 351 35
7 0 +-.0162778094544 .000249135712619 -.00282354 5665538897648e-28 -197215226305
3e-43 -1 .000167972761131 -.699957440636859 -.714184556887852 -396563610662627e-
30 51 357 360 0 354 356 341 0 +-.0162778094544 .000249135712619 -.00225781 56655
38897648e-28 -1972152263053e-43 -1 .000244444944809 -.702266961930219 -.71191369
8548708 -397872078934874e-30 14 354 48 358 ?349 339 359 6 357 +0 0 349 339 25 50
 341 368 0 339 357 340 0 +-.01644577420309 .000247495079388 -.00282354 -1 444089
2098501e-28 -4798282487438e-28 -4798282487438e-28 2219938482912e-28 1 14 339 58
 360 ?354 150 361 6 341 -0 0 354 150 25 81 1 360 944 34 339 0 0 337 358 362 15 3
61 59 0 176 339 0 17 176 0 361 234 229 59 107 171 0 0 +17 234 0 361 63 176 54 30
0 160 0 0 +17 229 0 361 176 63 65 363 190 0 193 +17 107 0 317 104 110 65 176 171
 0 229 -17 104 0 317 364 107 94 193 185 0 219 -17 110 0 317 107 113 59 301 164 0
 300 -17 113 0 317 110 268 53 238 235 0 302 -16 164 77 365 ?301 243 145 162 0 0
 1 17 300 0 299 301 57 59 234 160 0 176 -81 1 365 913 34 164 0 0 245 292 366 81
 1 245 912 34 243 0 0 296 365 367 81 1 292 914 34 145 0 0 365 148 368 83 1 366 2
298 81 1 148 915 34 142 0 0 292 154 369 83 1 368 2299 83 1 369 23e2 83 1 367 229
7 17 364 0 317 370 104 71 218 21 0 0 -17 193 0 355 363 219 65 104 185 0 0 +17 21
9 0 355 193 69 94 210 205 0 218 -15 355 39 0 193 349 0 17 69 0 355 219 363 66 18
9 180 0 127 -17 218 0 217 210 101 94 364 21 0 0 +15 217 14 0 218 343 0 17 101 0
 217 218 209 71 211 199 0 220 -16 21 10 371 ?218 213 200 8 0 0 1 81 1 371 935 34
 21 0 0 215 201 372 81 1 215 934 34 213 0 0 207 371 373 81 1 201 936 34 200 0 0
 371 330 374 83 1 372 2320 83 1 374 2321 83 1 373 2319 17 209 0 217 101 210 70 1
27 203 0 0 -17 211 0 327 284 220 70 101 199 0 209 +17 220 0 327 211 98 71 370 21
3 0 364 +15 327 112 0 220 321 0 17 98 0 327 220 284 95 79 186 0 370 +17 370 0 31
7 202 364 95 220 213 0 375 -17 202 0 317 184 370 90 375 200 0 0 +17 375 0 350 79
 226 95 202 200 0 0 -17 79 0 350 197 375 76 98 186 0 284 -17 226 0 350 375 197 9
0 376 223 0 202 +17 197 0 350 226 79 75 377 194 0 0 +17 376 0 359 153 93 75 226
 223 0 197 -15 359 49 0 153 354 0 17 153 0 359 151 376 64 83 177 0 0 +17 93 0 35
9 376 151 90 184 181 0 226 -17 151 0 359 93 153 80 131 152 0 184 +17 184 0 317 1
47 202 80 93 181 0 0 +17 147 0 317 144 184 23 89 168 0 0 +18 23 54 378 140 59 64
 9 1044910516489862e-21 1 17 89 0 146 131 141 80 147 168 0 151 -81 1 378 888 34
 23 0 0 109 85 379 81 1 109 887 34 59 0 0 56 378 380 81 1 85 889 34 64 0 0 378 6
2 381 83 1 379 2273 81 1 62 890 34 60 0 0 85 106 382 83 1 381 2274 81 1 106 891
 34 65 0 0 62 88 383 83 1 382 2275 81 1 88 892 34 80 0 0 106 78 384 83 1 383 227
6 81 1 78 893 34 76 0 0 88 82 385 83 1 384 2277 81 1 82 894 34 75 0 0 78 73 386
 83 1 385 2278 81 1 73 895 34 70 0 0 82 68 387 83 1 386 2279 81 1 68 896 34 66 0
 0 73 100 388 83 1 387 2280 81 1 100 897 34 71 0 0 68 103 389 83 1 388 2281 81 1
 103 898 34 94 0 0 100 92 390 83 1 389 2282 81 1 92 899 34 90 0 0 103 97 391 83
 1 390 2283 81 1 97 900 34 95 0 0 92 26 392 83 1 391 2284 81 1 26 901 34 11 0 0
 97 255 393 83 1 392 2285 81 1 255 902 34 28 0 0 26 274 394 83 1 393 2286 81 1 2
74 903 34 251 0 0 255 249 395 83 1 394 2287 81 1 249 904 34 247 0 0 274 278 396
 83 1 395 2288 81 1 278 905 34 239 0 0 249 237 397 83 1 396 2289 81 1 237 906 34
 235 0 0 278 267 398 83 1 397 2290 81 1 267 907 34 240 0 0 237 260 399 83 1 398
 2291 81 1 260 908 34 258 0 0 267 286 400 83 1 399 2292 81 1 286 909 34 137 0 0
 260 136 401 83 1 400 2293 81 1 136 910 34 125 0 0 286 296 402 83 1 401 2294 83
 1 402 2295 81 1 56 886 34 54 0 0 120 109 403 83 1 380 2272 83 1 403 2271 17 83
 0 123 377 86 75 153 177 0 376 -17 377 0 123 74 83 76 197 194 0 0 -17 74 0 123 1
27 377 70 284 198 0 211 -17 284 0 327 98 211 76 74 198 0 377 +17 363 0 355 69 19
3 60 229 190 0 0 -17 189 0 123 159 127 60 69 180 0 363 +17 63 0 361 229 234 60 1
59 155 0 189 -81 1 337 943 34 150 0 0 334 360 404 81 1 358 945 34 354 0 0 360 35
2 405 83 1 362 2329 81 1 352 946 34 349 0 0 358 345 406 83 1 405 2330 83 1 406 2
331 83 1 404 2328 83 1 353 2332 81 1 346 949 34 343 0 0 342 407 408 14 19 3 407
 ?0 343 317 6 7 -0 0 0 343 25 81 1 407 950 34 19 0 0 346 409 410 81 1 409 951 34
 1 411 412 407 0 413 83 1 410 2335 81 1 411 875 414 1 0 409 0 0 415 81 1 412 952
 416 1 409 417 0 0 418 83 1 413 2336 80 1 416 34 419 9000 0 0 0 0 3 5 0 0 0 FFTF
TFTTFFFFFFFFF2 81 1 417 1029 420 1 412 14 0 0 421 83 1 418 17325 80 1 420 422 42
3 8040 0 0 0 0 3 5 0 0 0 TTTFFFFFFFFFFFFFF2 81 1 14 1030 424 1 417 2 0 0 425 83
 3 421 .690196078431373 .690196078431373 .690196078431373 80 1 424 13 426 8038 0
 0 0 0 0 0 0 0 0 TTTTTTTTTTTTTFTFT10 98 255 14 425 72 67 45 48 52 70 117 115 105
 111 110 48 48 50 79 14 426 SDL/TYSA_UNAME79 17 423 SDL/TYSA_COLOUR_279 18 419 B
TI/importMaxCount80 1 414 427 428 9000 0 0 0 0 3 5 0 0 0 TTTFFFFFFFFFFFFFF1 82 2
55 1 415 2 79 23 428 ONSHAPE_ORIGINALBODY_ID83 1 408 2334 83 1 347 2333 83 1 338
 2327 81 1 324 940 34 305 0 0 320 333 429 83 1 335 2326 83 1 429 2325 81 1 323 9
38 34 321 0 0 330 320 430 83 1 332 2322 83 1 430 2323 83 1 325 2324 83 1 298 229
6 81 1 283 929 34 198 0 0 225 196 431 81 1 225 928 34 223 0 0 265 283 432 81 1 1
96 930 34 194 0 0 283 206 433 83 1 431 2314 81 1 206 931 34 199 0 0 196 204 434
 83 1 433 2315 83 1 434 2316 81 1 265 927 34 186 0 0 183 225 435 83 1 432 2313 8
1 1 183 926 34 181 0 0 192 265 436 83 1 435 2312 81 1 192 925 34 185 0 0 228 183
 437 83 1 436 2311 81 1 228 924 34 190 0 0 188 192 438 83 1 437 2310 81 1 188 92
3 34 180 0 0 179 228 439 83 1 438 2309 81 1 179 922 34 177 0 0 231 188 440 83 1
 439 2308 81 1 231 921 34 152 0 0 170 179 441 83 1 440 2307 81 1 170 920 34 168
 0 0 175 231 442 83 1 441 2306 81 1 175 919 34 171 0 0 233 170 443 83 1 442 2305
 81 1 233 918 34 160 0 0 157 175 444 83 1 443 2304 81 1 157 917 34 155 0 0 154 2
33 445 83 1 444 2303 83 1 445 2302 83 1 216 2318 83 1 208 2317 83 1 158 2301 83
 1 122 2270 83 1 36 2262 19 18 115 0 1 0 10 6 0 S0 74 4 CI16 index_map_offset0 0
 1 dCCZ20 16 6 0 0 411 409 412 417 14 2 0 0 0 0 0 0 0 0 0 0 0 0 0 0 80 1 13 446
 447 8017 0 0 0 0 0 0 0 0 0 TTTTTTTTTTTTTFTFT3 84 255 14 15 HC-04Fusion00279 13
 447 SDL/TYSA_NAME1 0 
