**ABCDEFGHIJKLMNOPQRSTUVWXYZabcdefghijklmnopqrstuvwxyz**************************
**PARASOLID !"#$%&'()*+,-./:;<=>?@[\]^_`{|}~0123456789**************************
**PART1;
MC=unknown;
MC_MODEL=unknown;
MC_ID=unknown;
OS=unknown;
OS_RELEASE=unknown;
FRU=Parasolid 37.0.173;
APPL=Onshape;
SITE=unknown;
USER=unknown;
FORMAT=text;
GUISE=transmit;
KEY=BTGapi::writeModels_.xmt;
FILE=BTGapi::writeModels_.xmt;
DATE=2024-12-29T04:00:25 (UTC);
**PART2;
SCH=SCH_3700173_36001;
USFLD_SIZE=0;
**PART3;
**END_OF_HEADER*****************************************************************
T51 : TRANSMIT FILE created by modeller version 370017323 SCH_3700173_36001_1300
6231 0 12 36 CCCI7 lattice222 0 CCCI4 mesh1006 0 I8 polyline1008 0 CCCCCCCDI5 ow
ner1040 0 CCCI16 boundary_lattice222 0 CCCI13 boundary_mesh1006 0 I17 boundary_p
olyline1008 0 CCCA16 index_map_offset0 0 1 dA9 index_map82 0 A17 node_id_index_m
ap82 0 A20 schema_embedding_map82 0 A5 child12 0 A14 lowest_node_id0 0 1 dA16 me
sh_offset_data206 0 Z1 865 2 3 0 0 0 0 0 0 0 1e3 1e-8 0 4 5 1 0 3 2 6 0 7 8 9 0
 0 10 11 12 0 0 0 0 0 0 0 81 255 1 2 776 13 1 14 0 0 0 15 70 11 CI9 list_type0 0
 1 uI10 notransmit0 0 1 lCCCDCCDI12 finger_index0 0 1 dI12 finger_block1012 0 CZ
3 0 4 T1 0 0 5 20 1 16 16 13 255 6 2 0 1 0 17 0 0 10 17 50 255 7 227 0 17 0 0 0
 +.0037555 0 678e-6 0 -1 0 1 0 0 31 255 8 687 0 1 18 0 19 +.00408765641850384 19
33405523051915e-35 .000478114119343301 1097503556195968e-32 1 602407507512014e-3
1 -.0160173444004077 -600572317885071e-31 .999871714110545 .0003219271793712445
 29 255 9 311 0 12 20 0 .0039615 0 3135e-7 19 9 CCCCCCI5 frame230 0 CA5 owner12
 0 Z10 1 0 1 0 0 6 0 V0 16 255 11 91 21 ?22 0 23 24 0 0 1 18 255 12 90 25 22 0 2
6 9 5e-7 1 81 1 25 688 27 12 0 0 0 28 29 17 255 22 0 0 0 0 12 30 11 0 31 +18 26
 88 28 32 12 33 20 5e-7 1 81 1 28 689 27 26 0 0 25 34 35 17 32 0 0 0 0 26 31 23
 0 36 +18 33 86 34 37 26 38 39 5e-7 1 29 20 309 0 26 39 9 .0039135 0 274e-6 29 3
9 307 0 33 40 20 .003899 0 225e-6 29 40 305 0 38 41 39 .0039285 0 1505e-7 18 38
 84 42 43 33 44 40 5e-7 1 29 41 303 0 44 45 40 .0040055 0 128e-6 18 44 82 46 47
 38 48 41 5e-7 1 29 45 301 0 48 49 41 .0041065 0 1495e-7 18 48 80 50 51 44 52 45
 5e-7 1 29 49 299 0 52 53 45 .00419 0 2155e-7 18 52 78 54 55 48 56 49 5e-7 1 29
 53 297 0 56 57 49 .0040515 0 341e-6 18 56 76 58 30 52 59 53 5e-7 1 29 57 296 0
 59 60 53 .00419 0 352e-6 18 59 75 61 62 56 63 57 5e-7 1 29 60 293 0 63 64 57 .0
04206 0 7775e-7 18 63 71 65 66 59 67 60 5e-7 1 29 64 291 0 67 68 60 .004298 0 71
45e-7 18 67 69 69 70 63 71 64 5e-7 1 29 68 289 0 71 72 64 .0043555 0 6185e-7 18
 71 67 73 74 67 75 68 5e-7 1 29 72 287 0 75 76 68 .004375 0 496e-6 18 75 65 77 7
8 71 79 72 5e-7 1 29 76 285 0 79 80 72 .004375 0 0 18 79 63 81 82 75 83 76 5e-7
 1 29 80 283 0 83 84 76 .004289 0 0 18 83 61 85 86 79 87 80 5e-7 1 29 84 281 0 8
7 88 80 .0042475 0 85e-7 18 87 59 89 90 83 91 84 5e-7 1 29 88 279 0 91 92 84 .00
42245 0 44e-6 18 91 57 93 94 87 95 88 5e-7 1 29 92 277 0 95 96 88 .0042075 0 105
e-6 18 95 55 97 98 91 99 92 5e-7 1 29 96 275 0 99 100 92 .004149 0 6e-5 18 99 53
 101 102 95 103 96 5e-7 1 29 100 273 0 103 104 96 .00409 0 27e-6 18 103 51 105 1
06 99 107 100 5e-7 1 29 104 271 0 107 108 100 .0040245 0 7e-6 18 107 49 109 110
 103 111 104 5e-7 1 29 108 269 0 111 112 104 .0039475 0 0 18 111 47 113 114 107
 115 108 5e-7 1 29 112 267 0 115 116 108 .003855 0 14e-6 18 115 45 117 118 111 1
19 112 5e-7 1 29 116 265 0 119 120 112 .003782 0 56e-6 18 119 43 121 122 115 123
 116 5e-7 1 29 120 263 0 123 124 116 .0037345 0 1255e-7 18 123 41 125 126 119 12
7 120 5e-7 1 29 124 261 0 127 128 120 .0037175 0 222e-6 18 127 39 129 130 123 13
1 124 5e-7 1 29 128 259 0 131 132 124 .0037275 0 2835e-7 18 131 37 133 134 127 1
35 128 5e-7 1 29 132 257 0 135 136 128 .00376 0 3425e-7 18 135 35 137 138 131 13
9 132 5e-7 1 29 136 255 0 139 140 132 .003819 0 395e-6 18 139 33 141 142 135 143
 136 5e-7 1 29 140 253 0 143 144 136 .0039075 0 4385e-7 18 143 31 145 146 139 14
7 140 5e-7 1 29 144 251 0 147 148 140 .00403 0 4685e-7 18 147 29 149 150 143 151
 144 5e-7 1 29 148 249 0 151 152 144 .00419 0 48e-5 18 151 27 153 154 147 155 14
8 5e-7 1 29 152 247 0 155 156 148 .00419 0 5165e-7 18 155 25 157 158 151 159 152
 5e-7 1 29 156 245 0 159 160 152 .004156 0 6095e-7 18 159 23 161 162 155 163 156
 5e-7 1 29 160 243 0 163 164 156 .0040585 0 64e-5 18 163 21 165 166 159 167 160
 5e-7 1 29 164 241 0 167 168 160 .003982 0 6315e-7 18 167 19 169 170 163 171 164
 5e-7 1 29 168 239 0 171 172 164 .003929 0 6125e-7 18 171 17 173 174 167 175 168
 5e-7 1 29 172 237 0 175 176 168 .003887 0 5935e-7 18 175 15 177 178 171 179 172
 5e-7 1 29 176 235 0 179 180 172 .003845 0 585e-6 18 179 13 181 182 175 183 176
 5e-7 1 29 180 233 0 183 184 176 .003811 0 595e-6 18 183 11 185 186 179 187 180
 5e-7 1 29 184 231 0 187 188 180 .003789 0 619e-6 18 187 9 189 190 183 191 184 5
e-7 1 29 188 229 0 191 192 184 .0040825 0 8e-4 18 191 7 193 194 187 195 188 5e-7
 1 29 192 228 0 195 0 188 .0037555 0 678e-6 18 195 6 196 197 191 0 192 5e-7 1 81
 1 196 730 27 195 0 0 193 21 198 17 197 0 0 0 0 195 199 200 0 201 +17 199 0 202
 203 201 187 197 200 0 0 -16 200 8 204 ?197 205 206 207 0 0 1 17 201 0 202 199 1
94 195 208 206 0 0 -15 255 202 4 0 201 17 0 17 194 0 202 201 209 191 66 210 0 20
8 -17 208 0 0 0 0 191 201 206 0 0 +16 206 5 211 ?208 200 0 212 0 0 1 81 1 211 77
3 27 206 0 0 204 213 214 133 255 212 578 0 206 215 216 0 +216 .0037555 -60185310
7621011e-50 678e-6 .0040825 601853107621011e-50 8e-4 228790986099569e-30 .754257
022740629 31 215 575 0 1 24 212 217 +.004108134996227825 2129689900687065e-35 -5
37362401833655e-20 1789322471364345e-32 -1 -585596445173782e-31 -.16136557127056
55 -606795533403208e-31 .986894701783592 .0003509732329014875 31 216 579 0 1 212
 218 219 +.0040730065894971 269778383687228e-34 .0003262118461840015 -2140394701
345385e-32 1 573695956836015e-31 -.67001014707083 -569292923391316e-31 .74235194
0000243 .00047388325517932 133 218 582 0 205 216 220 0 +220 .003811 -67708474607
3638e-50 595e-6 .003789 -677084746073638e-50 619e-6 -888178419700125e-30 .349699
087896116 141 255 219 212 219 219 216 16 205 10 221 ?190 222 200 218 0 0 1 31 22
0 583 0 1 218 223 224 +.00386792960568627 564263087150099e-35 .00066926880521241
2 -45137672913753e-30 1 -4137620017093995e-32 -.608365505904074 -602987135320819
e-31 -.793656985873671 935779644535674e-19 133 223 586 0 222 220 225 0 +225 .003
845 -225694915357879e-50 585e-6 .003811 -413774011489445e-50 595e-6 110409301287
7822e-48 .629751473163193 141 224 218 224 224 220 16 222 12 226 ?186 227 205 223
 0 0 1 31 225 587 0 1 223 228 229 +.00384335098530031 333128609145167e-35 .00064
2193350021052 -1727770427517115e-32 1 -587441945355826e-31 .0288203036340222 -58
2218440293017e-31 -.999584608774286 57217117509626e-18 133 228 590 0 227 225 230
 0 +230 .003887 150463276905253e-50 5935e-7 .003845 -376158192263132e-50 585e-6
 0 .4236775987105995 141 229 223 229 229 225 16 227 14 231 ?182 232 222 228 0 0
 1 31 230 591 0 1 228 233 234 +.00384623858176185 610022627540219e-35 .000686894
65482381 1214601679672424e-32 1 -600156124073423e-31 .4000053512161385 -59863548
8964963e-31 -.916512803510379 .000101902182343874 133 233 594 0 232 230 235 0 +2
35 .003929 0 6125e-7 .003887 0 5935e-7 -230488611432324e-19 2304886114323235e-20
 141 234 228 234 234 230 16 232 16 236 ?178 237 227 233 0 0 1 30 255 235 595 0 1
 233 238 239 +.003908 0 603e-6 -.911107922838357 0 -.4121678698554445 133 238 59
8 0 237 235 240 0 +240 .003982 -1203706215242022e-50 6315e-7 .003929 -1203706215
242022e-50 6125e-7 28164395433217e-47 .1508051249443265 141 239 233 239 239 235
 16 237 18 241 ?174 242 232 238 0 0 1 31 240 599 0 1 238 243 244 +.0040812515478
362 228176138195129e-34 .0002712193665621825 206635447886892e-31 -1 -57640414410
5547e-31 -.26559026143693 -610583527593229e-31 .96408599877286 .0003737017588642
525 133 243 602 0 242 240 245 0 +245 .0040585 3009265538105055e-51 64e-5 .003982
 0 6315e-7 289788173554978e-32 .2641004196444455 141 244 238 244 244 240 16 242
 20 246 ?170 247 237 243 0 0 1 31 245 603 0 1 243 248 249 +.00405224743839321 17
7420171132108e-34 .0003477730544611175 676198074662602e-32 -1 -608578267196332e-
31 .0213913568999322 -606992532118699e-31 .999771178745407 .000292293828579448 1
33 248 606 0 247 245 250 0 +250 .004156 -752316384526264e-50 6095e-7 .0040585 0
 64e-5 382839166012031e-30 .738103201533839 141 249 243 249 249 245 16 247 22 25
1 ?166 252 242 248 0 0 1 31 250 607 0 1 248 253 254 +.00406782113557383 80867259
3411466e-35 .000498706908801593 -1828113924726095e-32 -1 -584397074297682e-31 .6
22731143203894 -571095592861065e-31 .782435890845998 .0001416002160619366 133 25
3 610 0 252 250 255 0 +255 .00419 -25578757073893e-48 5165e-7 .004156 -323496045
3462935e-50 6095e-7 1422016898380412e-32 .857189431339518 141 254 248 254 254 25
0 16 252 24 256 ?162 257 247 253 0 0 1 31 255 611 0 1 253 258 259 +.004071231917
559445 663488344368975e-35 .000525794464484097 -57509554801646e-30 -1 -210249985
296341e-31 .996951894056643 -556939160766713e-31 -.0780187217074967 .00011913120
69805942 133 258 614 0 260 255 261 0 +261 .00403 -1203706215242022e-50 4685e-7 .
00419 -2407412430484045e-50 48e-5 271625033515966e-31 .1609263348916195 141 259
 253 259 259 255 16 260 28 262 ?154 263 257 258 0 0 1 31 261 615 0 1 258 264 265
 +.004181306980658755 609051397897638e-34 -.000517847122208767 -438975028151161e
-32 1 61074786525379e-30 -.151627675116777 -610342279568172e-31 .988437680452683
 .00099788498730344 133 264 618 0 263 261 266 0 +266 .0039075 -601853107621011e-
50 4385e-7 .00403 0 4685e-7 365064413355293e-31 .170069579253236 141 265 258 265
 265 261 16 263 30 267 ?150 268 260 264 0 0 1 31 266 619 0 1 264 269 270 +.00414
4723011137525 452990995050657e-34 -.000265056462144894 -1456525890257784e-32 1 5
94748071855262e-31 -.3195038032316965 -610110903889042e-31 .947584993401901 .000
742473199811949 133 269 622 0 268 266 271 0 +271 .003819 3009265538105055e-51 39
5e-6 .0039075 0 4385e-7 0 .2656459227278525 141 270 264 270 270 266 16 268 32 27
2 ?146 273 263 269 0 0 1 31 271 623 0 1 269 274 275 +.0040260377065444 225967949
1451655e-35 85561217720016e-18 -270107393892184e-31 1 549528835849619e-31 -.5560
85081892927 -606930049616925e-31 .831125370624756 .00037231300260679 133 274 626
 0 273 271 276 0 +276 .00376 3009265538105055e-51 3425e-7 .003819 30092655381050
55e-51 395e-6 0 .2845529965718935 141 275 269 275 275 271 16 273 34 277 ?142 278
 268 274 0 0 1 31 276 627 0 1 274 279 280 +.003972753299433065 168799024021632e-
34 .000162808196827603 -4070460864965975e-32 1 457442268634272e-31 -.76397068331
6095 -606136337572842e-31 .645250955081462 .000278483591162932 133 279 630 0 278
 276 281 0 +281 .0037275 165509604595778e-49 2835e-7 .00376 1354169492147274e-50
 3425e-7 0 .366659883050558 141 280 274 280 280 276 16 278 36 282 ?138 283 273 2
79 0 0 1 31 281 631 0 1 279 284 285 +.003902855271174765 1112268830948386e-35 .0
002253572658783075 -536335461980807e-31 1 295439025667393e-31 -.949183918429611
 -602062133766436e-31 .314721923282458 .00018474319651863 133 284 634 0 283 281
 286 0 +286 .0037175 -105324293833677e-49 222e-6 .0037275 -1203706215242022e-50
 2835e-7 586951902823966e-48 .31844608975706 141 285 279 285 285 281 16 283 38 2
87 ?134 288 278 284 0 0 1 31 286 635 0 1 284 289 290 +.0039139905093765 11879406
50927532e-35 .000221613331808699 -604385758876242e-31 1 982741071343486e-32 -.99
9998063745323 -60457797913061e-30 .001967868289618775 .0001964908898329055 133 2
89 638 0 288 286 291 0 +291 .0037345 -1203706215242022e-50 1255e-7 .0037175 -902
779661431517e-50 222e-6 0 .3880985455229515 141 290 284 290 290 286 16 288 40 29
2 ?130 293 283 289 0 0 1 31 291 639 0 1 289 294 295 +.003971519365704685 1526522
41314947e-34 .000217002116238131 -603037445399894e-31 1 -106234575873557e-31 -.9
32895417754981 -600830974335558e-31 -.3601473858460715 .000254068528147639 133 2
94 642 0 293 291 296 0 +296 .003782 -451389830715758e-50 56e-6 .0037345 -9027796
61431517e-50 1255e-7 0 .44322906191282 141 295 289 295 295 291 16 293 42 297 ?12
6 298 288 294 0 0 1 31 296 643 0 1 294 299 300 +.003912478317864065 114386841716
8902e-35 .000196157843144504 -505533296068695e-31 1 -3455083678167365e-32 -.6813
80854636401 -597348319966965e-31 -.731929047746411 .000191491024404683 133 299 6
46 0 298 296 301 0 +301 .003855 902779661431517e-50 14e-6 .003782 15046327690525
3e-50 56e-6 0 .416311354808727 141 300 294 300 300 296 16 298 44 302 ?122 303 29
3 299 0 0 1 31 301 647 0 1 299 304 305 +.00391792471429255 1220789814797334e-35
 .000207809622460861 -305362123133718e-31 1 -530748452113365e-31 -.3088045882315
145 -59910561424726e-30 -.951125505013489 .0002037687155262565 133 304 650 0 303
 301 306 0 +306 .0039475 0 0 .003855 0 1400000000000012e-20 0 .3190232566148085
 141 305 299 305 305 301 16 303 46 307 ?118 308 298 304 0 0 1 31 306 651 0 1 304
 309 310 +.003944761121315125 1780381009081505e-35 .0002944841944035105 -9163239
42938107e-32 1 -605428319441243e-31 .00930019432825931 -604549936959513e-31 -.99
9956752257545 .0002944969307309245 133 309 654 0 308 306 311 0 +311 .0040245 601
853107621011e-50 700000000000017e-20 .0039475 0 0 0 .196589454512168 141 310 304
 310 310 306 16 308 48 312 ?114 313 303 309 0 0 1 31 311 655 0 1 309 314 315 +.0
0395050755124178 240047250205692e-34 .0003939169363404135 554371557996946e-32 1
 -609808713796634e-31 .1878322189373445 -609367691063665e-31 -.982201128857564 .
0003939284174825285 133 314 658 0 313 311 316 0 +316 .00409 902779661431517e-50
 27e-6 .0040245 902779661431517e-50 700000000000017e-20 0 .205720263048183 141 3
15 309 315 315 311 16 313 50 317 ?110 318 308 314 0 0 1 31 316 659 0 1 314 319 3
20 +.00396037371182101 2031263884405515e-35 .0003342698437861895 178818668046827
e-31 1 -585631137853362e-31 .388692417860598 -609087000510491e-31 -.921367572849
014 .0003334932255495625 133 319 662 0 321 316 322 0 +322 .0042075 0 105e-6 .004
149 0 6e-5 -369027438004274e-19 3690274380042745e-20 141 320 314 320 320 316 16
 321 54 323 ?102 324 318 319 0 0 1 30 322 663 0 1 319 325 326 +.00417825 0 825e-
7 -.792623989104599 0 -.609710760849695 133 325 666 0 327 322 328 0 +328 .004247
5 -233218079203142e-49 850000000000018e-20 .0042245 -2633107345841925e-50 44e-6
 107158051872593e-30 .682057564374767 141 326 319 326 326 322 16 327 58 329 ?94
 330 324 325 0 0 1 31 328 667 0 1 325 331 332 +.004286014819416865 3649108033406
055e-36 58653967509517e-18 -513894176411195e-31 1 -332945522745275e-31 -.6090632
35130687 -577060356978989e-31 -.793121665075505 632361587358001e-19 133 331 670
 0 330 328 333 0 +333 .004289 752316384526264e-51 0 .0042475 -150463276905253e-5
0 850000000000013e-20 914939531743137e-48 .509849517204042 141 332 325 332 332 3
28 16 330 60 334 ?90 335 327 331 0 0 1 31 333 671 0 1 331 336 337 +.004284558868
068445 497688357296321e-35 838756499812333e-19 -122864961934553e-31 1 -599870108
268686e-31 .0528749335587092 -59253449864924e-30 -.998601142299147 8399314443814
95e-19 133 336 674 0 338 333 339 0 +339 .0043555 0 6185e-7 .004375 0 496e-6 6182
28488755616e-48 .3360648857959335 141 337 331 337 337 333 16 338 66 340 ?78 341
 342 336 0 0 1 31 339 675 0 1 336 343 344 +.00400417419608515 223878853814363e-3
4 .000499772627131921 604709824060489e-31 1 962599311769779e-32 .947365636889227
 -603699274481073e-31 .3201536350589665 .0003708449939861275 133 343 678 0 341 3
39 345 0 +345 .004298 0 7145e-7 .0043555 -3009265538105055e-51 6185e-7 -88817841
9700125e-30 .428288476763674 141 344 336 344 344 339 16 341 68 346 ?74 347 338 3
43 0 0 1 31 345 679 0 1 343 348 349 +.004106038841442635 1575342894682355e-35 .0
0053430321232241 525304237424114e-31 1 314635350540486e-31 .729095106674242 -598
337082605016e-31 .684412394265092 .000263286856268993 133 348 682 0 347 345 350
 0 +350 .004206 3009265538105055e-51 7775e-7 .004298 902779661431517e-50 7145e-7
 79210232790543e-47 .436226366973375 141 349 343 349 349 345 16 347 70 351 ?70 2
10 341 348 0 0 1 31 350 683 0 1 348 18 352 +.00410987705380102 1540254460754655e
-35 .000538455380153872 3459660145996455e-32 1 505220211796304e-31 .373080085133
497 -597815909799577e-31 .92779914317528 .0002576469504250965 133 18 686 0 210 3
50 8 0 +8 .0040825 -3009265538105055e-51 8e-4 .004206 601853107621011e-50 7775e-
7 716994731396554e-48 .392455562745261 141 352 348 352 352 350 16 210 72 353 ?66
 354 347 18 0 0 1 81 1 353 740 27 210 0 0 355 351 356 17 66 0 0 0 0 63 194 210 0
 209 +16 354 74 355 ?357 358 210 359 0 0 1 81 1 355 739 27 354 0 0 360 353 361 1
7 357 0 0 0 0 56 362 354 0 0 +16 358 77 360 ?62 363 354 364 0 0 1 133 359 546 0
 354 365 366 0 +366 .00419 601853107621011e-50 352e-6 .0040515 0 341e-6 22783660
8850398e-32 .187129506962065 30 365 300 0 1 364 359 367 +.00419 0 2155e-7 0 0 1
 31 366 547 0 1 359 368 369 +.004179361183757885 453298081921416e-34 -.000391468
086406073 484795213790001e-32 -1 -61040124645378e-30 .01430824988947504 -6096451
03641753e-31 .999897631752921 .000743544201722629 133 368 550 0 363 366 370 0 +3
70 .0041065 -601853107621011e-50 1495e-7 .00419 601853107621011e-50 2155e-7 1728
17727964149e-30 .340953433185923 141 369 359 369 369 366 16 363 79 371 ?55 372 3
58 368 0 0 1 31 370 551 0 1 368 373 374 +.003956554065637925 189291553307226e-34
 .000425024401806566 -379702432349703e-31 -1 480381107593944e-31 .47801630270689
7 -603447161341981e-31 -.87835096308163 .000313683724828978 133 373 554 0 372 37
0 375 0 +375 .0040055 150463276905253e-50 128e-6 .0041065 3009265538105055e-51 1
495e-7 0 .469116421223108 141 374 368 374 374 370 16 372 81 376 ?51 377 363 373
 0 0 1 31 375 555 0 1 373 378 379 +.004011012758553015 132305090896415e-34 .0003
500854133091035 -1274895300663712e-32 -1 598904304032723e-31 -.0248150514147088
 -595556217717508e-31 -.999692059197874 .0002221538235357185 133 378 558 0 377 3
75 380 0 +380 .0039285 -105324293833677e-49 1505e-7 .0040055 -150463276905253e-5
0 128e-6 490321292615417e-30 .656693261525938 141 379 373 379 379 375 16 377 83
 381 ?47 382 372 378 0 0 1 31 380 559 0 1 378 383 384 +.004000022330153185 72092
280646662e-34 .0002522597520797965 171743639711811e-31 -1 587744900347084e-31 -.
575028815540026 -57961113209036e-30 -.818133156215194 .0001243804279373694 133 3
83 562 0 382 380 385 0 +385 .003899 1203706215242022e-50 225e-6 .0039285 1504632
76905253e-49 1505e-7 0 .933921412844288 141 384 378 384 384 380 16 382 85 386 ?4
3 387 377 383 0 0 1 31 385 563 0 1 383 388 389 +.003987636995251275 486605500724
664e-35 .000217007266576007 569315101116627e-31 -1 2254334964153055e-32 -.995958
971690856 -546768437656272e-31 .0898093909816372 889966331653125e-19 133 388 566
 0 387 385 390 0 +390 .0039135 1429401130599902e-50 274e-6 .003899 1278937853694
65e-49 225e-6 1031560462386222e-48 .58266804100843 141 389 383 389 389 385 16 38
7 87 391 ?37 23 382 388 0 0 1 31 390 567 0 1 388 392 393 +.003987953111348005 52
1732147968137e-35 .000225322548682733 587154927079384e-31 -1 -173749927401044e-3
1 -.836987270711087 -586521044807605e-31 .547222357609414 889536961353669e-19 13
3 392 570 0 23 390 394 0 +394 .0039615 3009265538105055e-51 3135e-7 .0039135 -15
0463276905253e-50 274e-6 0 .522028560104269 141 393 388 393 393 390 16 23 89 395
 ?32 11 387 392 0 0 1 31 394 571 0 1 392 24 396 +.00401144015862434 712519486367
686e-35 .0002038986680008005 38908576660036e-30 -1 -472813083463724e-31 -.414637
926568678 -591583228018169e-31 .909986477839549 .0001204428138969826 133 24 574
 0 11 394 215 0 +215 .0040515 -3009265538105055e-51 341e-6 .0039615 -30092655381
05055e-51 3135e-7 0 .268943214063715 141 396 392 396 396 394 81 1 395 732 27 23
 0 0 21 391 397 80 7 CCCCCDI12 legal_owners0 17 1 lCZ1 27 398 399 9000 0 0 0 0 3
 5 0 0 0 FFTFTFTTFFFFFFFFF2 81 1 21 731 27 11 0 0 196 395 400 81 1 391 733 27 38
7 0 0 395 386 401 83 255 1 397 950 81 1 386 734 27 382 0 0 391 381 402 83 1 401
 951 81 1 381 735 27 377 0 0 386 376 403 83 1 402 952 81 1 376 736 27 372 0 0 38
1 371 404 83 1 403 953 81 1 371 737 27 363 0 0 376 360 405 83 1 404 954 81 1 360
 738 27 358 0 0 371 355 406 83 1 405 955 83 1 406 956 83 1 400 949 79 255 13 399
 BTI/importTag17 37 0 0 0 0 33 36 387 0 407 +17 36 0 408 31 407 26 37 387 0 0 -1
7 407 0 408 36 409 33 43 382 0 0 -15 408 73 0 362 17 202 17 409 0 408 407 410 38
 47 377 0 0 -17 43 0 0 0 0 38 407 382 0 409 +17 410 0 408 409 411 44 51 372 0 0
 -17 47 0 0 0 0 44 409 377 0 410 +17 411 0 408 410 412 48 55 363 0 0 -17 51 0 0
 0 0 48 410 372 0 411 +17 412 0 408 411 362 52 62 358 0 0 -17 55 0 0 0 0 52 411
 363 0 412 +17 362 0 408 412 30 59 357 354 0 0 -17 62 0 0 0 0 59 412 358 0 362 +
17 30 0 408 362 31 56 22 11 0 357 -17 31 0 408 30 36 12 32 23 0 0 -14 255 17 3 2
13 ?0 0 408 6 7 +0 0 0 0 6 81 1 213 774 27 17 0 0 211 14 413 81 1 14 775 27 1 41
4 2 213 0 415 83 1 413 992 81 1 414 542 416 1 417 14 0 0 418 83 1 415 993 80 1 4
16 419 420 9000 0 0 0 0 3 5 0 0 0 TTTFFFFFFFFFFFFFF1 81 1 417 406 421 1 422 414
 0 0 423 82 255 1 418 1 80 1 421 424 425 8038 0 0 0 0 0 0 0 0 0 TTTTTTTTTTTTTFTF
T10 81 1 422 405 424 1 0 417 0 0 426 98 255 19 423 72 67 45 48 52 83 104 97 112
 101 83 116 114 105 110 103 48 49 49 80 1 424 427 428 8017 0 0 0 0 0 0 0 0 0 TTT
TTTTTTTTTTFTFT3 84 255 19 426 HC-04ShapeString01179 13 428 SDL/TYSA_NAME79 14 42
5 SDL/TYSA_UNAME79 23 420 ONSHAPE_ORIGINALBODY_ID133 364 477 0 358 429 365 0 +36
5 .00419 0 2155e-7 .00419 0 352e-6 0 1365e-7 141 367 364 367 367 365 30 429 288
 0 1 430 364 431 +.004375 0 496e-6 0 0 -1 133 430 465 0 342 432 429 0 +429 .0043
75 0 496e-6 .004375 0 0 0 496e-6 141 431 430 431 431 429 16 342 64 433 ?82 338 3
35 430 0 0 1 30 432 286 0 1 434 430 435 +.004375 0 0 -1 0 0 133 434 463 0 335 43
6 432 0 +432 .004375 0 0 .004289 0 0 0 86000000000001e-18 141 435 434 435 435 43
2 16 335 62 437 ?86 342 330 434 0 0 1 30 436 280 0 1 438 434 439 +.0042245 0 44e
-6 -.268458237787938 0 .963291323828776 133 438 457 0 324 440 436 0 +436 .004224
5 0 44e-6 .0042075 0 .000105000000000007 0 633245607959505e-19 141 439 438 439 4
39 436 16 324 56 441 ?98 327 321 438 0 0 1 31 440 276 0 1 442 438 443 +.00395345
281456953 0 .000340372240618109 0 1 0 .399460113565511 0 -.916750575494899 .0003
41829336129882 133 442 453 0 318 444 440 0 +440 .004149 0 600000000000019e-19 .0
0409 0 2700000000000145e-20 6.08509690245955 6.28318530717958 141 443 442 443 44
3 440 16 318 52 445 ?106 321 313 442 0 0 1 30 444 250 0 1 446 442 447 +.00419 0
 48e-5 0 0 1 133 446 427 0 257 448 444 0 +444 .00419 0 48e-5 .00419 0 5165e-7 0
 365e-7 141 447 446 447 447 444 16 257 26 449 ?158 260 252 446 0 0 1 30 448 232
 0 1 207 446 450 +.003789 0 619e-6 -.493756159187101 0 .869600399761179 133 207
 409 0 200 0 448 0 +448 .003789 0 619e-6 .0037555 0 .000677999999999981 0 678472
549186776e-19 141 450 207 450 450 448 81 1 449 763 27 257 0 0 262 256 451 17 158
 0 0 0 0 155 452 257 0 453 +17 452 0 202 454 453 151 158 257 0 0 -17 453 0 202 4
52 455 155 162 252 0 0 -17 455 0 202 453 456 159 166 247 0 0 -17 162 0 0 0 0 159
 453 252 0 455 +17 456 0 202 455 457 163 170 242 0 0 -17 166 0 0 0 0 163 455 247
 0 456 +17 457 0 202 456 458 167 174 237 0 0 -17 170 0 0 0 0 167 456 242 0 457 +
17 458 0 202 457 459 171 178 232 0 0 -17 174 0 0 0 0 171 457 237 0 458 +17 459 0
 202 458 460 175 182 227 0 0 -17 178 0 0 0 0 175 458 232 0 459 +17 460 0 202 459
 203 179 186 222 0 0 -17 182 0 0 0 0 179 459 227 0 460 +17 203 0 202 460 199 183
 190 205 0 0 -17 186 0 0 0 0 183 460 222 0 203 +17 190 0 0 0 0 187 203 205 0 199
 +17 454 0 202 461 452 147 154 260 0 0 -17 461 0 202 462 454 143 150 263 0 0 -17
 154 0 0 0 0 151 454 260 0 452 +17 462 0 202 463 461 139 146 268 0 0 -17 150 0 0
 0 0 147 461 263 0 454 +17 463 0 202 464 462 135 142 273 0 0 -17 146 0 0 0 0 143
 462 268 0 461 +17 464 0 202 465 463 131 138 278 0 0 -17 142 0 0 0 0 139 463 273
 0 462 +17 465 0 202 466 464 127 134 283 0 0 -17 138 0 0 0 0 135 464 278 0 463 +
17 466 0 202 467 465 123 130 288 0 0 -17 134 0 0 0 0 131 465 283 0 464 +17 467 0
 202 468 466 119 126 293 0 0 -17 130 0 0 0 0 127 466 288 0 465 +17 468 0 202 469
 467 115 122 298 0 0 -17 126 0 0 0 0 123 467 293 0 466 +17 469 0 202 470 468 111
 118 303 0 0 -17 122 0 0 0 0 119 468 298 0 467 +17 470 0 202 471 469 107 114 308
 0 0 -17 118 0 0 0 0 115 469 303 0 468 +17 471 0 202 472 470 103 110 313 0 0 -17
 114 0 0 0 0 111 470 308 0 469 +17 472 0 202 473 471 99 106 318 0 0 -17 110 0 0
 0 0 107 471 313 0 470 +17 473 0 202 474 472 95 102 321 0 0 -17 106 0 0 0 0 103
 472 318 0 471 +17 474 0 202 475 473 91 98 324 0 0 -17 102 0 0 0 0 99 473 321 0
 472 +17 475 0 202 476 474 87 94 327 0 0 -17 98 0 0 0 0 95 474 324 0 473 +17 476
 0 202 477 475 83 90 330 0 0 -17 94 0 0 0 0 91 475 327 0 474 +17 477 0 202 478 4
76 79 86 335 0 0 -17 90 0 0 0 0 87 476 330 0 475 +17 478 0 202 479 477 75 82 342
 0 0 -17 86 0 0 0 0 83 477 335 0 476 +17 479 0 202 480 478 71 78 338 0 0 -17 82
 0 0 0 0 79 478 342 0 477 +17 480 0 202 209 479 67 74 341 0 0 -17 78 0 0 0 0 75
 479 338 0 478 +17 209 0 202 194 480 63 70 347 0 0 -17 74 0 0 0 0 71 480 341 0 4
79 +17 70 0 0 0 0 67 209 347 0 480 +81 1 262 762 27 260 0 0 267 449 481 81 1 256
 764 27 252 0 0 449 251 482 83 1 451 981 81 1 251 765 27 247 0 0 256 246 483 83
 1 482 982 81 1 246 766 27 242 0 0 251 241 484 83 1 483 983 81 1 241 767 27 237
 0 0 246 236 485 83 1 484 984 81 1 236 768 27 232 0 0 241 231 486 83 1 485 985 8
1 1 231 769 27 227 0 0 236 226 487 83 1 486 986 81 1 226 770 27 222 0 0 231 221
 488 83 1 487 987 81 1 221 771 27 205 0 0 226 204 489 83 1 488 988 81 1 204 772
 27 200 0 0 221 211 490 83 1 489 989 83 1 490 990 81 1 267 761 27 263 0 0 272 26
2 491 83 1 481 980 81 1 272 760 27 268 0 0 277 267 492 83 1 491 979 81 1 277 759
 27 273 0 0 282 272 493 83 1 492 978 81 1 282 758 27 278 0 0 287 277 494 83 1 49
3 977 81 1 287 757 27 283 0 0 292 282 495 83 1 494 976 81 1 292 756 27 288 0 0 2
97 287 496 83 1 495 975 81 1 297 755 27 293 0 0 302 292 497 83 1 496 974 81 1 30
2 754 27 298 0 0 307 297 498 83 1 497 973 81 1 307 753 27 303 0 0 312 302 499 83
 1 498 972 81 1 312 752 27 308 0 0 317 307 500 83 1 499 971 81 1 317 751 27 313
 0 0 445 312 501 83 1 500 970 81 1 445 750 27 318 0 0 323 317 502 83 1 501 969 8
1 1 323 749 27 321 0 0 441 445 503 83 1 502 968 81 1 441 748 27 324 0 0 329 323
 504 83 1 503 967 81 1 329 747 27 327 0 0 334 441 505 83 1 504 966 81 1 334 746
 27 330 0 0 437 329 506 83 1 505 965 81 1 437 745 27 335 0 0 433 334 507 83 1 50
6 964 81 1 433 744 27 342 0 0 340 437 508 83 1 507 963 81 1 340 743 27 338 0 0 3
46 433 509 83 1 508 962 81 1 346 742 27 341 0 0 351 340 510 83 1 509 961 81 1 35
1 741 27 347 0 0 353 346 511 83 1 510 960 83 1 511 959 83 1 361 957 83 1 356 958
 141 217 24 217 217 215 83 1 214 991 81 1 193 729 27 191 0 0 189 196 512 83 1 19
8 948 81 1 189 728 27 187 0 0 185 193 513 83 1 512 947 81 1 185 727 27 183 0 0 1
81 189 514 83 1 513 946 81 1 181 726 27 179 0 0 177 185 515 83 1 514 945 81 1 17
7 725 27 175 0 0 173 181 516 83 1 515 944 81 1 173 724 27 171 0 0 169 177 517 83
 1 516 943 81 1 169 723 27 167 0 0 165 173 518 83 1 517 942 81 1 165 722 27 163
 0 0 161 169 519 83 1 518 941 81 1 161 721 27 159 0 0 157 165 520 83 1 519 940 8
1 1 157 720 27 155 0 0 153 161 521 83 1 520 939 81 1 153 719 27 151 0 0 149 157
 522 83 1 521 938 81 1 149 718 27 147 0 0 145 153 523 83 1 522 937 81 1 145 717
 27 143 0 0 141 149 524 83 1 523 936 81 1 141 716 27 139 0 0 137 145 525 83 1 52
4 935 81 1 137 715 27 135 0 0 133 141 526 83 1 525 934 81 1 133 714 27 131 0 0 1
29 137 527 83 1 526 933 81 1 129 713 27 127 0 0 125 133 528 83 1 527 932 81 1 12
5 712 27 123 0 0 121 129 529 83 1 528 931 81 1 121 711 27 119 0 0 117 125 530 83
 1 529 930 81 1 117 710 27 115 0 0 113 121 531 83 1 530 929 81 1 113 709 27 111
 0 0 109 117 532 83 1 531 928 81 1 109 708 27 107 0 0 105 113 533 83 1 532 927 8
1 1 105 707 27 103 0 0 101 109 534 83 1 533 926 81 1 101 706 27 99 0 0 97 105 53
5 83 1 534 925 81 1 97 705 27 95 0 0 93 101 536 83 1 535 924 81 1 93 704 27 91 0
 0 89 97 537 83 1 536 923 81 1 89 703 27 87 0 0 85 93 538 83 1 537 922 81 1 85 7
02 27 83 0 0 81 89 539 83 1 538 921 81 1 81 701 27 79 0 0 77 85 540 83 1 539 920
 81 1 77 700 27 75 0 0 73 81 541 83 1 540 919 81 1 73 699 27 71 0 0 69 77 542 83
 1 541 918 81 1 69 698 27 67 0 0 65 73 543 83 1 542 917 81 1 65 697 27 63 0 0 61
 69 544 83 1 543 916 81 1 61 696 27 59 0 0 58 65 545 83 1 544 915 81 1 58 695 27
 56 0 0 54 61 546 83 1 545 914 81 1 54 694 27 52 0 0 50 58 547 83 1 546 913 81 1
 50 693 27 48 0 0 46 54 548 83 1 547 912 81 1 46 692 27 44 0 0 42 50 549 83 1 54
8 911 81 1 42 691 27 38 0 0 34 46 550 83 1 549 910 81 1 34 690 27 33 0 0 28 42 5
51 83 1 550 909 83 1 551 908 83 1 35 907 83 1 29 906 141 19 18 19 19 8 74 4 CI16
 index_map_offset0 0 1 dCCZ20 16 5 0 0 422 417 414 14 2 0 0 0 0 0 0 0 0 0 0 0 0
 0 0 0 80 1 13 27 552 9000 0 0 0 0 3 5 0 0 0 FFTFTFTTFFFFFFFFF2 83 1 15 17325 79
 18 552 BTI/importMaxCount1 0 
