**ABCDEFGHIJKLMNOPQRSTUVWXYZabcdefghijklmnopqrstuvwxyz**************************
**PARASOLID !"#$%&'()*+,-./:;<=>?@[\]^_`{|}~0123456789**************************
**PART1;
MC=unknown;
MC_MODEL=unknown;
MC_ID=unknown;
OS=unknown;
OS_RELEASE=unknown;
FRU=Parasolid 37.0.173;
APPL=Onshape;
SITE=unknown;
USER=unknown;
FORMAT=text;
GUISE=transmit;
KEY=BTGapi::writeModels_.xmt;
FILE=BTGapi::writeModels_.xmt;
DATE=2024-12-29T04:00:28 (UTC);
**PART2;
SCH=SCH_3700173_36001;
USFLD_SIZE=0;
**PART3;
**END_OF_HEADER*****************************************************************
T51 : TRANSMIT FILE created by modeller version 370017323 SCH_3700173_36001_1300
6231 0 12 36 CCCI7 lattice222 0 CCCI4 mesh1006 0 I8 polyline1008 0 CCCCCCCDI5 ow
ner1040 0 CCCI16 boundary_lattice222 0 CCCI13 boundary_mesh1006 0 I17 boundary_p
olyline1008 0 CCCA16 index_map_offset0 0 1 dA9 index_map82 0 A17 node_id_index_m
ap82 0 A20 schema_embedding_map82 0 A5 child12 0 A14 lowest_node_id0 0 1 dA16 me
sh_offset_data206 0 Z1 224 2 3 0 0 0 0 0 0 0 1e3 1e-8 0 4 5 1 0 1 2 6 0 7 8 9 0
 0 10 11 12 0 0 0 0 0 0 0 81 255 1 2 224 13 1 14 0 0 0 15 70 11 CI9 list_type0 0
 1 uI10 notransmit0 0 1 lCCCDCCDI12 finger_index0 0 1 dI12 finger_block1012 0 CZ
3 0 4 T1 0 0 3 20 1 16 16 13 255 6 59 0 1 0 17 0 0 18 0 50 255 7 98 0 17 19 0 0
 +.0105 0 .001 0 0 1 1 0 0 31 255 8 181 0 11 20 0 0 -0 0 .0259980197250843 0 0 -
1 -1 0 0 .00999215992639866 29 255 9 217 0 12 0 0 0 0 .03197096003592015 19 9 CC
CCCCI5 frame230 0 CA5 owner12 0 Z10 68 0 1 18 0 21 0 V0 16 255 11 178 0 ?22 0 23
 8 0 0 1 18 255 12 195 0 24 0 0 9 ?1 17 255 24 0 25 24 24 12 0 0 0 0 ?15 255 25
 200 0 24 26 27 14 255 26 206 0 ?0 28 25 6 29 -0 0 0 28 21 15 27 201 0 22 26 0 1
7 22 0 27 22 22 0 30 11 0 0 +17 30 0 31 30 30 0 22 11 0 0 -15 31 180 0 30 32 33
 14 32 144 0 ?28 34 31 6 35 -0 0 28 34 21 15 33 147 0 36 32 0 17 36 0 33 36 36 0
 37 38 0 0 +17 37 0 39 37 37 0 36 38 0 0 -16 38 136 0 ?36 40 0 41 0 0 1 16 40 70
 0 1e-5 42 43 38 44 0 0 1 31 41 169 0 38 45 46 0 +0 0 .0259980197250843 0 0 1 1
 0 0 .014 134 255 45 170 0 1 47 41 48 +49 50 133 255 46 166 0 42 41 51 0 +51 .01
6 -1959434878635765e-33 .0209980197250843 .016 -1959434878635765e-33 .0209980197
250843 0 1 17 42 0 52 42 42 0 53 40 46 0 +137 255 51 165 0 1 46 54 55 +56 57 0 ?
134 54 29 0 1 51 58 59 +60 61 141 255 55 46 55 55 51 68 255 56 161 0 28 29 35 62
 +45 0 0 .0234980197250843 0 0 1 ????-1 0 0 .00780848897034505 134 57 0 0 0 0 0
 0 +63 64 136 255 63 1 2 2 2 5 FFF1 65 66 67 135 255 64 1 0 45 255 4 65 1 3.1415
92653589795 1 9.42477796076938 127 255 2 66 2 2 128 255 2 67 0 1 14 28 148 0 ?26
 32 52 6 56 +0 0 26 32 21 68 29 214 0 26 0 56 0 +47 0 0 .02897096003592015 0 0 -
1 0 0 .03197096003592015 ?0 ?1 0 0 0 50 35 160 0 32 56 68 0 +-.007 0 .0259980197
250843 0 0 -1 -1 0 0 141 62 51 62 62 56 68 68 96 0 34 35 19 69 +54 0 0 .0105 0 0
 1 ????1 0 0 .0107632182612303 14 34 75 0 ?32 70 71 6 68 +0 0 32 70 21 51 255 19
 97 0 70 68 7 0 -0 0 .0105 0 0 1 .021 1 0 0 141 69 20 69 69 68 137 20 131 0 1 72
 8 73 +68 74 0 ?133 72 130 0 53 75 20 0 +20 .016 0 .021 .016 0 .021 0 1 141 73 7
2 73 73 20 134 74 0 0 0 0 0 0 +76 77 136 76 1 2 2 2 5 FFF1 78 79 80 135 77 1 0 4
5 4 78 0 6.28318530717959 0 0 127 2 79 2 2 128 2 80 0 1 17 53 0 81 53 53 0 42 40
 72 0 -31 75 127 0 1 44 72 82 +0 0 .021 0 0 1 1 0 0 .016 133 44 126 0 40 83 75 0
 +75 .016 0 .021 .016 0 .021 0 6.28318530717959 141 82 44 82 82 75 31 83 102 0 2
3 58 44 0 +0 0 .001 0 0 1 1 0 0 .021 16 23 77 0 ?84 11 43 83 0 0 1 31 58 101 0 4
3 54 83 0 +0 0 .011 0 0 1 1 0 0 .021 16 43 72 0 ?85 23 40 58 0 0 1 17 85 0 71 85
 85 0 86 43 0 0 +15 71 110 0 85 34 81 17 86 0 87 86 86 0 85 43 0 0 -15 87 111 0
 86 70 88 14 70 80 0 ?34 17 87 6 19 -0 0 34 17 21 15 88 79 0 84 70 0 17 84 0 88
 84 84 0 89 23 0 0 +17 89 0 90 89 89 0 84 23 0 0 -15 90 112 0 89 17 0 14 17 85 0
 ?70 0 90 6 7 -0 0 70 0 21 13 21 67 0 0 0 0 0 0 10 17 15 81 74 0 53 34 0 134 47
 216 0 1 0 45 91 +92 93 141 91 29 91 91 47 136 92 2 3 4 2 5 FFT2 94 95 96 135 93
 2 0 45 12 94 0 0 .03197096003592015 1 .00827095098793507 0 .03197096003592015 1
 .01 0 .02597096003592015 1 127 4 95 3 3 0 0 128 4 96 0 1 ??15 52 151 0 42 28 39
 15 39 152 0 37 28 0 141 59 68 59 59 54 136 60 2 3 4 2 5 FFT2 97 98 99 135 61 2
 0 45 12 97 .016 0 .021 1 .021 0 .0174922147447822 1 .021 0 .011 1 127 4 98 3 3
 0 0 128 4 99 0 1 ??141 48 56 48 48 45 136 49 2 3 4 2 5 FFT2 100 101 102 135 50
 2 0 45 12 100 -.014 0 .0259980197250843 1 -.016 0 .0234980197250843 1 -.016 0 .
0209980197250843 1 127 4 101 3 3 0 0 128 4 102 0 1 ??19 18 58 0 1 0 10 6 0 S0 74
 4 CI16 index_map_offset0 0 1 dCCZ20 16 3 0 0 103 14 2 0 0 0 0 0 0 0 0 0 0 0 0 0
 0 0 0 0 81 1 103 222 104 1 0 14 0 0 105 81 1 14 223 106 1 103 2 0 0 107 80 7 CC
CCCDI12 legal_owners0 17 1 lCZ1 106 13 108 8038 0 0 0 0 0 0 0 0 0 TTTTTTTTTTTTTF
TFT10 98 255 6 107 80 97 114 116 32 50 79 255 14 108 SDL/TYSA_UNAME80 1 104 109
 110 8040 0 0 0 0 3 5 0 0 0 TTTFFFFFFFFFFFFFF2 83 255 3 105 .647058823529412 .64
7058823529412 .647058823529412 79 17 110 SDL/TYSA_COLOUR_280 1 13 111 112 8017 0
 0 0 0 0 0 0 0 0 TTTTTTTTTTTTTFTFT3 84 255 6 15 Part 279 13 112 SDL/TYSA_NAME1 0
 
