**ABCDEFGHIJKLMNOPQRSTUVWXYZabcdefghijklmnopqrstuvwxyz**************************
**PARASOLID !"#$%&'()*+,-./:;<=>?@[\]^_`{|}~0123456789**************************
**PART1;
MC=unknown;
MC_MODEL=unknown;
MC_ID=unknown;
OS=unknown;
OS_RELEASE=unknown;
FRU=Parasolid 37.0.173;
APPL=Onshape;
SITE=unknown;
USER=unknown;
FORMAT=text;
GUISE=transmit;
KEY=BTGapi::writeModels_.xmt;
FILE=BTGapi::writeModels_.xmt;
DATE=2024-12-29T04:00:28 (UTC);
**PART2;
SCH=SCH_3700173_36001;
USFLD_SIZE=0;
**PART3;
**END_OF_HEADER*****************************************************************
T51 : TRANSMIT FILE created by modeller version 370017323 SCH_3700173_36001_1300
6231 0 12 36 CCCI7 lattice222 0 CCCI4 mesh1006 0 I8 polyline1008 0 CCCCCCCDI5 ow
ner1040 0 CCCI16 boundary_lattice222 0 CCCI13 boundary_mesh1006 0 I17 boundary_p
olyline1008 0 CCCA16 index_map_offset0 0 1 dA9 index_map82 0 A17 node_id_index_m
ap82 0 A20 schema_embedding_map82 0 A5 child12 0 A14 lowest_node_id0 0 1 dA16 me
sh_offset_data206 0 Z1 1459 2 3 0 0 0 0 0 0 0 1e3 1e-8 0 4 5 1 0 3 2 6 0 7 8 9 0
 0 10 11 12 0 0 0 0 0 0 0 81 255 1 2 1312 13 1 14 0 0 0 15 70 11 CI9 list_type0
 0 1 uI10 notransmit0 0 1 lCCCDCCDI12 finger_index0 0 1 dI12 finger_block1012 0
 CZ3 0 4 T1 0 0 5 20 1 16 16 13 255 6 2 0 1 0 17 0 0 10 17 50 255 7 374 0 17 0 0
 0 +.002673 0 761e-6 0 -1 0 1 0 0 31 255 8 1165 0 1 18 0 19 +.002631249059192755
 1851632428398925e-36 .000693263298101164 430313623233471e-31 1 -435626137100549
5e-32 .99954254216326 -4432918992600335e-32 -.0302441135728396 4177004884343155e
-20 29 255 9 516 0 12 20 0 .0023745 0 452e-6 19 9 CCCCCCI5 frame230 0 CA5 owner1
2 0 Z10 1 0 1 0 0 6 0 V0 16 255 11 150 21 ?22 0 23 24 0 0 1 18 255 12 149 25 22
 0 26 9 5e-7 1 81 1 25 1166 27 12 0 0 0 28 29 17 255 22 0 0 0 0 12 30 11 0 31 +1
8 26 147 28 32 12 33 20 5e-7 1 81 1 28 1167 27 26 0 0 25 34 35 17 32 0 0 0 0 26
 31 23 0 36 +18 33 145 34 37 26 38 39 5e-7 1 29 20 514 0 26 39 9 .0024005 0 4925
e-7 29 39 512 0 33 40 20 .0024095 0 545e-6 29 40 510 0 38 41 39 .0023745 0 6375e
-7 18 38 143 42 43 33 44 40 5e-7 1 29 41 508 0 44 45 40 .0022695 0 672e-6 18 44
 141 46 47 38 48 41 5e-7 1 29 45 506 0 48 49 41 .002165 0 6375e-7 18 48 139 50 5
1 44 52 45 5e-7 1 29 49 504 0 52 53 45 .00213 0 545e-6 18 52 137 54 55 48 56 49
 5e-7 1 29 53 502 0 56 57 49 .0021385 0 4935e-7 18 56 135 58 59 52 60 53 5e-7 1
 29 57 500 0 60 61 53 .0021645 0 4525e-7 18 60 133 62 63 56 64 57 5e-7 1 29 61 4
98 0 64 65 57 .0022085 0 4255e-7 18 64 131 66 67 60 68 61 5e-7 1 29 65 496 0 68
 69 61 .002331 0 4255e-7 18 68 129 70 30 64 71 65 5e-7 1 29 69 495 0 71 72 65 .0
022695 0 416e-6 18 71 128 73 74 68 75 69 5e-7 1 29 72 492 0 75 76 69 .0024325 0
 155e-7 18 75 124 77 78 71 79 72 5e-7 1 29 76 490 0 79 80 72 .0023765 0 28e-6 18
 79 122 81 82 75 83 76 5e-7 1 29 80 488 0 83 84 76 .002309 0 32e-6 18 83 120 85
 86 79 87 80 5e-7 1 29 84 486 0 87 88 80 .0022355 0 32e-6 18 87 118 89 90 83 91
 84 5e-7 1 29 88 484 0 91 92 84 .0021615 0 365e-7 18 91 116 93 94 87 95 88 5e-7
 1 29 92 482 0 95 96 88 .0021105 0 -5e-6 18 95 114 97 98 91 99 92 5e-7 1 29 96 4
80 0 99 100 92 .002091 0 -615e-7 18 99 112 101 102 95 103 96 5e-7 1 29 100 478 0
 103 104 96 .002101 0 -1005e-7 18 103 110 105 106 99 107 100 5e-7 1 29 104 476 0
 107 108 100 .002134 0 -132e-6 18 107 108 109 110 103 111 104 5e-7 1 29 108 474
 0 111 112 104 .002193 0 -1525e-7 18 111 106 113 114 107 115 108 5e-7 1 29 112 4
72 0 115 116 108 .002281 0 -16e-5 18 115 104 117 118 111 119 112 5e-7 1 29 116 4
70 0 119 120 112 .0023725 0 -1515e-7 18 119 102 121 122 115 123 116 5e-7 1 29 12
0 468 0 123 124 116 .002436 0 -128e-6 18 123 100 125 126 119 127 120 5e-7 1 29 1
24 466 0 127 128 120 .0024725 0 -925e-7 18 127 98 129 130 123 131 124 5e-7 1 29
 128 464 0 131 132 124 .00247 0 -8e-6 18 131 96 133 134 127 135 128 5e-7 1 29 13
2 463 0 135 136 128 .002484 0 -48e-6 18 135 95 137 138 131 139 132 5e-7 1 29 136
 460 0 139 140 132 .002632 0 6515e-7 18 139 91 141 142 135 143 136 5e-7 1 29 140
 458 0 143 144 136 .0025615 0 639e-6 18 143 89 145 146 139 147 140 5e-7 1 29 144
 456 0 147 148 140 .0025775 0 548e-6 18 147 87 149 150 143 151 144 5e-7 1 29 148
 454 0 151 152 144 .002554 0 44e-5 18 151 85 153 154 147 155 148 5e-7 1 29 152 4
52 0 155 156 148 .0024895 0 3585e-7 18 155 83 157 158 151 159 152 5e-7 1 29 156
 450 0 159 160 152 .0023915 0 3065e-7 18 159 81 161 162 155 163 156 5e-7 1 29 16
0 448 0 163 164 156 .0022695 0 288e-6 18 163 79 165 166 159 167 160 5e-7 1 29 16
4 446 0 167 168 160 .002225 0 2905e-7 18 167 77 169 170 163 171 164 5e-7 1 29 16
8 444 0 171 172 164 .002183 0 297e-6 18 171 75 173 174 167 175 168 5e-7 1 29 172
 442 0 175 176 168 .002146 0 247e-6 18 175 73 177 178 171 179 172 5e-7 1 29 176
 440 0 179 180 172 .002168 0 212e-6 18 179 71 181 182 175 183 176 5e-7 1 29 180
 438 0 183 184 176 .002226 0 1965e-7 18 183 69 185 186 179 187 180 5e-7 1 29 184
 436 0 187 188 180 .002308 0 192e-6 18 187 67 189 190 183 191 184 5e-7 1 29 188
 434 0 191 192 184 .0024025 0 188e-6 18 191 65 193 194 187 195 188 5e-7 1 29 192
 432 0 195 196 188 .002497 0 174e-6 18 195 63 197 198 191 199 192 5e-7 1 29 196
 430 0 199 200 192 .002579 0 143e-6 18 199 61 201 202 195 203 196 5e-7 1 29 200
 428 0 203 204 196 .002637 0 855e-7 18 203 59 205 206 199 207 200 5e-7 1 29 204
 426 0 207 208 200 .002659 0 -8e-6 18 207 57 209 210 203 211 204 5e-7 1 29 208 4
24 0 211 212 204 .002633 0 -1115e-7 18 211 55 213 214 207 215 208 5e-7 1 29 212
 422 0 215 216 208 .0025585 0 -2005e-7 18 215 53 217 218 211 219 212 5e-7 1 29 2
16 420 0 219 220 212 .002439 0 -264e-6 18 219 51 221 222 215 223 216 5e-7 1 29 2
20 418 0 223 224 216 .0022775 0 -288e-6 18 223 49 225 226 219 227 220 5e-7 1 29
 224 416 0 227 228 220 .002122 0 -2705e-7 18 227 47 229 230 223 231 224 5e-7 1 2
9 228 414 0 231 232 224 .002012 0 -2245e-7 18 231 45 233 234 227 235 228 5e-7 1
 29 232 412 0 235 236 228 .001947 0 -1575e-7 18 235 43 237 238 231 239 232 5e-7
 1 29 236 410 0 239 240 232 .0019255 0 -79e-6 18 239 41 241 242 235 243 236 5e-7
 1 29 240 408 0 243 244 236 .001959 0 135e-7 18 243 39 245 246 239 247 240 5e-7
 1 29 244 406 0 247 248 240 .002051 0 735e-7 18 247 37 249 250 243 251 244 5e-7
 1 29 248 404 0 251 252 244 .002001 0 1175e-7 18 251 35 253 254 247 255 248 5e-7
 1 29 252 402 0 255 256 248 .0019825 0 1905e-7 18 255 33 257 258 251 259 252 5e-
7 1 29 256 400 0 259 260 252 .001989 0 228e-6 18 259 31 261 262 255 263 256 5e-7
 1 29 260 398 0 263 264 256 .002008 0 2665e-7 18 263 29 265 266 259 267 260 5e-7
 1 29 264 396 0 267 268 260 .00204 0 3025e-7 18 267 27 269 270 263 271 264 5e-7
 1 29 268 394 0 271 272 264 .0020855 0 333e-6 18 271 25 273 274 267 275 268 5e-7
 1 29 272 392 0 275 276 268 .001991 0 419e-6 18 275 23 277 278 271 279 272 5e-7
 1 29 276 390 0 279 280 272 .001957 0 545e-6 18 279 21 281 282 275 283 276 5e-7
 1 29 280 388 0 283 284 276 .0019805 0 6505e-7 18 283 19 285 286 279 287 280 5e-
7 1 29 284 386 0 287 288 280 .0020455 0 731e-6 18 287 17 289 290 283 291 284 5e-
7 1 29 288 384 0 291 292 284 .0021445 0 782e-6 18 291 15 293 294 287 295 288 5e-
7 1 29 292 382 0 295 296 288 .0022695 0 8e-4 18 295 13 297 298 291 299 292 5e-7
 1 29 296 380 0 299 300 292 .002365 0 79e-5 18 299 11 301 302 295 303 296 5e-7 1
 29 300 378 0 303 304 296 .0024465 0 761e-6 18 303 9 305 306 299 307 300 5e-7 1
 29 304 376 0 307 308 300 .002673 0 692e-6 18 307 7 309 310 303 311 304 5e-7 1 2
9 308 375 0 311 0 304 .002673 0 761e-6 18 311 6 312 313 307 0 308 5e-7 1 81 1 31
2 1237 27 311 0 0 309 21 314 17 313 0 0 0 0 311 315 316 0 317 +17 315 0 318 319
 317 303 313 316 0 0 -16 316 8 320 ?313 321 322 323 0 0 1 17 317 0 318 315 310 3
11 324 322 0 0 -15 255 318 4 0 317 17 0 17 310 0 318 317 325 307 142 326 0 324 -
17 324 0 0 0 0 307 317 322 0 0 +16 322 5 327 ?324 316 0 328 0 0 1 81 1 327 1309
 27 322 0 0 320 329 330 133 255 328 670 0 322 0 331 0 +331 .002673 0 761e-6 .002
673 0 692e-6 0 69e-6 30 255 331 377 0 1 328 323 332 +.002673 0 761e-6 0 0 -1 133
 323 672 0 316 331 333 0 +333 .0024465 0 761e-6 .002673 0 761e-6 0 2265e-7 141 2
55 332 328 332 332 331 30 333 379 0 1 323 334 335 +.0024465 0 761e-6 1 0 0 133 3
34 754 0 336 333 337 0 +337 .002632 0 6515e-7 .0025615 0 .000639000000000011 0 7
1599581004361e-18 141 335 323 335 335 333 16 336 90 338 ?146 326 339 334 0 0 1 3
0 337 461 0 1 334 340 341 +.002632 0 6515e-7 -.984642633533126 0 -.1745820272220
22 133 340 782 0 342 337 343 0 +343 .002309 0 32e-6 .0022355 0 32e-6 0 735e-7 14
1 341 334 341 341 337 16 342 119 344 ?90 345 346 340 0 0 1 30 343 489 0 1 340 34
7 348 +.002309 0 32e-6 -1 0 0 133 347 896 0 349 343 350 0 +350 .0022695 -4513898
30715758e-50 416e-6 .002331 -3009265538105055e-51 4255e-7 705947234164053e-32 .3
47507228785043 141 348 340 348 348 343 16 349 127 351 ?352 353 354 347 0 0 1 31
 350 897 0 1 347 355 356 +.00227318810438331 108545338799531e-34 .00059594016636
0687 -934778571272061e-32 -1 605146127718232e-31 -.0204919780837719 -60310351134
3687e-31 -.999790017370755 .0001799779586056415 133 355 900 0 353 350 357 0 +357
 .0022085 0 4255e-7 .0022695 -150463276905253e-50 416e-6 0 .3430454810504185 141
 356 347 356 356 350 16 353 130 358 ?74 359 349 355 0 0 1 31 357 901 0 1 355 360
 361 +.002266421009130985 1091124739560238e-35 .000596821742841068 9422599727514
07e-32 -1 605030087766691e-31 -.320274614631557 -603338168171973e-31 -.947324744
331429 .0001808479551138275 133 360 904 0 359 357 362 0 +362 .0021645 -601853107
621011e-50 4525e-7 .0022085 -451389830715758e-50 4255e-7 578104437164259e-31 .44
40569906546055 141 361 355 361 361 357 16 359 132 363 ?67 364 353 360 0 0 1 31 3
62 905 0 1 360 365 366 +.00224630057899928 700117748540063e-35 .0005364527954062
34 3202550697723105e-32 -1 521897150740064e-31 -.697866562265664 -59729255261033
6e-31 -.716227799845486 .0001172152148022526 133 365 908 0 364 362 367 0 +367 .0
021385 1203706215242022e-50 4935e-7 .0021645 902779661431517e-50 4525e-7 7449668
95036965e-48 .40865922306519 141 366 360 366 366 362 16 364 134 368 ?63 369 359
 365 0 0 1 31 367 909 0 1 365 370 371 +.002250427937532225 717291600918341e-35 .
000535734789654581 517112363725442e-31 -1 327924913581982e-31 -.935607704746263
 -599585378919151e-31 -.3530413896690145 .0001196312695635396 133 370 912 0 369
 367 372 0 +372 .00213 902779661431517e-50 545e-6 .0021385 105324293833677e-49 4
935e-7 0 .3420266460955555 141 371 365 371 371 367 16 369 136 373 ?59 374 364 37
0 0 0 1 31 372 913 0 1 370 375 376 +.00228335232953731 925340268412921e-35 .0005
43859122350818 604149859718042e-31 -1 997140545165732e-32 -.999972327438219 -603
391330714715e-31 .00743937885793123 .0001533565733065565 133 375 916 0 374 372 3
77 0 +377 .002165 -1354169492147274e-50 6375e-7 .00213 -1203706215242022e-50 545
e-6 1372264650950586e-48 .821240709713098 141 376 370 376 376 372 16 374 138 378
 ?55 379 369 375 0 0 1 31 377 917 0 1 375 380 381 +.002253731738410495 695489521
925079e-35 .00055105420708792 572697660740173e-31 -1 -2166964121719565e-32 -.716
27305263264 -561423017138095e-31 .69782011584098 .0001238797663605602 133 380 92
0 0 379 377 382 0 +382 .0022695 752316384526264e-50 672e-6 .002165 -451389830715
758e-50 6375e-7 0 .779923552865449 141 381 375 381 381 377 16 379 140 383 ?51 38
4 374 380 0 0 1 31 382 921 0 1 380 385 386 +.00225921975788313 81974591628776e-3
4 .000527624211629355 1919636124758715e-32 -1 -581455000108072e-31 .071024926698
6831 -566352357794656e-31 .997474540921946 .0001447413266680488 133 385 924 0 38
4 382 387 0 +387 .0023745 -3009265538105055e-51 6375e-7 .0022695 -30092655381050
55e-51 672e-6 0 .778925548121124 141 386 380 386 386 382 16 384 142 388 ?47 389
 379 385 0 0 1 31 387 925 0 1 385 390 391 +.00227997060696182 824453297033619e-3
5 .000526834455970753 -191138763090489e-31 -1 -581726670275399e-31 .649496075992
072 -566468443361079e-31 .760364943478394 .000145542669975015 133 390 928 0 389
 387 392 0 +392 .0024095 0 545e-6 .0023745 0 6375e-7 137226465095569e-47 .821240
709717091 141 391 385 391 391 387 16 389 144 393 ?43 394 384 390 0 0 1 31 392 92
9 0 1 390 395 396 +.002285768261590085 695489521921286e-35 .000551054207088139 -
572697660740172e-31 -1 -216696412171959e-31 .998805067571367 -561423017137607e-3
1 -.0488716379279057 .0001238797663599922 133 395 932 0 394 392 397 0 +397 .0024
005 -1354169492147274e-50 4925e-7 .0024095 -1203706215242022e-50 545e-6 66093305
4102015e-48 .360299040518128 141 396 390 396 396 392 16 394 146 398 ?37 23 389 3
95 0 0 1 31 397 933 0 1 395 399 400 +.002260867434585285 895431713448227e-35 .00
054345843978538 -603519569762732e-31 -1 10346049767361e-30 .939397469599676 -602
414116874708e-31 -.3428299784291415 .0001486405594367012 133 399 936 0 23 397 40
1 0 +401 .0023745 -82754802297889e-49 452e-6 .0024005 -105324293833677e-49 4925e
-7 -888178419700125e-30 .457792588875327 141 400 395 400 400 397 16 23 148 402 ?
32 11 394 399 0 0 1 31 401 937 0 1 399 24 403 +.00230058246230225 63244966027120
1e-35 .000528048913089914 -515279854017082e-31 -1 3307969433196135e-32 .69698674
4600883 -596352426725638e-31 -.717084010315851 .0001060530035475434 133 24 940 0
 11 401 404 0 +404 .002331 -451389830715758e-50 4255e-7 .0023745 -60185310762101
1e-50 452e-6 0 .4230004062881125 141 403 399 403 403 401 31 404 941 0 1 24 405 4
06 +.002291039229562675 726311278429575e-35 .000540048811849947 -318566344787772
5e-32 -1 522929660311999e-31 .329385990465154 -598679047509264e-31 -.94419535546
6913 .000121318974073222 133 405 944 0 407 404 408 0 +408 .002484 -1542248588278
84e-49 -48e-6 .00247 -1090858757563082e-50 -8e-6 164309485493666e-29 .7515664132
65788 141 406 24 406 406 404 16 407 94 409 ?410 411 326 405 0 0 1 31 408 945 0 1
 405 412 413 +.00242630695166327 328868621895861e-35 -457425669178549e-19 -57794
6557486064e-31 -1 -202281295120118e-31 .999235364487953 -569595760221872e-31 -.0
3909841885072515 577371962473456e-19 133 412 948 0 411 408 414 0 +414 .0024725 9
78011299884143e-50 -925e-7 .002484 127893785369465e-49 -48e-6 1133705753437912e-
30 .5184318611912 141 413 405 413 413 408 16 411 97 415 ?138 416 407 412 0 0 1 3
1 414 949 0 1 412 417 418 +.002394345411744825 53064602387173e-34 -4856679179922
51e-19 -592846838499685e-31 -1 153207609949354e-31 .871712513758347 -59186644023
3559e-31 -.490017645965025 896563798519018e-19 133 417 952 0 416 414 419 0 +419
 .002436 -82754802297889e-49 -128e-6 .0024725 -752316384526264e-50 -925e-7 93289
2799938618e-48 .520855664983219 141 418 412 418 418 414 16 416 99 420 ?130 421 4
11 417 0 0 1 31 419 953 0 1 417 422 423 +.002387640799375915 584986854894729e-35
 -41764483865376e-18 -426923269366605e-31 -1 438949276954404e-31 .48912156266588
2 -591675794704109e-31 -.872215625252888 988694924028919e-19 133 422 956 0 421 4
19 424 0 +424 .0023725 3009265538105055e-51 -1515e-7 .002436 3009265538105055e-5
1 -128e-6 0 .3180412734033075 141 423 417 423 423 419 16 421 101 425 ?126 426 41
6 422 0 0 1 31 424 957 0 1 422 427 428 +.00233098410248188 1292590192705362e-35
 582238081872617e-19 -2125214301454735e-32 -1 574260034648405e-31 .1941869346344
18 -604597617455838e-31 -.980964542895047 .000213793464510266 133 427 960 0 426
 424 429 0 +429 .002281 0 -16e-5 .0023725 0 -1515e-7 196363816805036e-32 .213438
5235902805 141 428 422 428 428 424 16 426 103 430 ?122 431 421 427 0 0 1 31 429
 961 0 1 427 432 433 +.002287077186982945 262628525725703e-34 .00027131616365418
5 -566386393706018e-32 -1 609698294401183e-31 -.01408846769511304 -6088398317981
35e-31 -.99990075261398 .0004313589749048805 133 432 964 0 431 429 434 0 +434 .0
02193 -902779661431517e-50 -1525e-7 .002281 -601853107621011e-50 -16e-5 61332666
0036668e-31 .200180234572234 141 433 427 433 433 429 16 431 105 435 ?118 436 426
 432 0 0 1 31 434 965 0 1 432 437 438 +.002274341040159265 269252822815702e-34 .
0002818848712020475 519981459135532e-32 -1 610111578719022e-31 -.184056552369463
 -609258821698984e-31 -.982915655348854 .0004419350417690485 133 437 968 0 436 4
34 439 0 +439 .002134 -150463276905253e-50 -132e-6 .002193 150463276905253e-50 -
1525e-7 1963253325941895e-31 .3027587162320795 141 438 432 438 438 434 16 436 10
7 440 ?114 441 431 437 0 0 1 31 439 969 0 1 437 442 443 +.00223069268009411 1253
576522374424e-35 511338110025555e-19 2009707375173465e-32 -1 578403586025535e-31
 -.466904864809627 -605320874484085e-31 -.884307552391759 .000207092894895265 13
3 442 972 0 441 439 444 0 +444 .002101 -150463276905253e-50 -1005e-7 .002134 752
316384526264e-51 -132e-6 548198827710257e-30 .533550536220057 141 443 437 443 44
3 439 16 441 109 445 ?110 446 436 442 0 0 1 31 444 973 0 1 442 447 448 +.0021751
31195598585 511081378020482e-35 -558744617538629e-19 4227944565318015e-32 -1 442
927525890459e-31 -.856743417791405 -590663084601814e-31 -.515742877867549 865267
174035464e-19 133 447 976 0 446 444 449 0 +449 .002091 127893785369465e-49 -615e
-7 .002101 1429401130599902e-50 -1005e-7 921935124117754e-48 .514129977549883 14
1 448 442 448 448 444 16 446 111 450 ?106 451 441 447 0 0 1 31 449 977 0 1 447 4
52 453 +.002170177973945705 468902689282896e-35 -619800066805884e-19 59313555150
027e-30 -1 1520860388462235e-32 -.999981624302709 -592202666350812e-31 .00606226
499884971 791794289229229e-19 133 452 980 0 451 449 454 0 +454 .0021105 -1128474
576789396e-50 -5e-6 .002091 -127893785369465e-49 -615e-7 -888178419700125e-30 .6
88828300623413 141 453 447 453 453 449 16 451 113 455 ?102 456 446 452 0 0 1 31
 454 981 0 1 452 457 458 +.002179504168839245 510143173322435e-35 -6043064234274
88e-19 578819541839732e-31 -1 -199769576387164e-31 -.779614490363906 -5763637426
15205e-31 .626259727600799 885106288969014e-19 133 457 984 0 456 454 459 0 +459
 .0021615 105324293833677e-49 365e-7 .0021105 1354169492147274e-50 -500000000000
007e-20 234925251828909e-30 .382243859298955 141 458 452 458 458 454 16 456 115
 460 ?98 346 451 457 0 0 1 31 459 985 0 1 457 461 462 +.00224324427838848 104042
8082281102e-35 -.000116044173441267 386477110688418e-31 -1 -47494777458095e-30 -
.472329993386437 -601174050234374e-31 .881421793097703 .000173066033351819 133 4
61 988 0 346 459 463 0 +463 .0022355 0 32e-6 .0021615 601853107621011e-50 365e-7
 0 .1243959855612404 141 462 457 462 462 459 16 346 117 464 ?94 342 456 461 0 0
 1 31 463 989 0 1 461 465 466 +.00223462814028615 3644577487521155e-35 .00062835
7195816687 -3716722446501425e-33 1 -611194357869108e-31 .001461974112531612 -611
139367175032e-31 -.999998931315276 .000596357833135194 133 465 992 0 345 463 467
 0 +467 .0023765 0 28e-6 .002309 0 32e-6 235501190783865e-48 .1259535156880732 1
41 466 461 466 466 463 16 345 121 468 ?86 469 342 465 0 0 1 31 467 993 0 1 465 4
70 471 +.002311034247697155 328292428367156e-34 -.000505203320110532 -3622228664
947775e-33 -1 -611251087209951e-31 .1218631391283376 -611109541486893e-31 .99254
6913411043 .000537207171677252 133 470 996 0 469 467 472 0 +472 .0024325 9027796
61431517e-50 155e-7 .0023765 3009265538105055e-51 28e-6 503934460069012e-31 .213
7604432441055 141 471 465 471 471 467 16 469 123 473 ?82 354 345 470 0 0 1 31 47
2 997 0 1 470 474 475 +.00234624616173487 163735100958238e-34 -.0002392271954277
755 -1333965095212106e-32 -1 -597616362655025e-31 .3207245476394655 -60882932567
1457e-31 .947172510444354 .000268934320431527 133 474 1000 0 354 472 476 0 +476
 .00247 -225694915357879e-50 -8e-6 .0024325 752316384526264e-51 155e-7 603442231
093774e-30 .497748258917197 141 475 470 475 475 472 16 354 125 477 ?78 349 469 4
74 0 0 1 31 476 1001 0 1 474 478 479 +.002405016184688665 533131711173182e-35 -7
00273648585158e-19 -325152374871743e-31 -1 -518860172667676e-31 .723370225436122
 -593457931410827e-31 .690460365953393 898347941707962e-19 133 478 1004 0 321 47
6 480 0 +480 .002365 0 79e-5 .0024465 -3009265538105055e-51 761e-6 3964290871926
49e-31 .2537206811900435 141 479 474 479 479 476 16 321 10 481 ?306 482 316 478
 0 0 1 31 480 1005 0 1 478 483 484 +.00229206489655828 207649814089659e-34 .0004
56005657568964 20527389679726e-30 1 57689043410264e-30 .213344685819388 -6074027
76672724e-31 .976976993092789 .000341865105107255 133 483 1008 0 482 480 485 0 +
485 .0022695 0 8e-4 .002365 -601853107621011e-50 79e-5 410909810887659e-48 .2209
811306791405 141 484 478 484 484 480 16 482 12 486 ?302 487 321 483 0 0 1 31 485
 1009 0 1 483 488 489 +.002272181568466665 264987048878051e-34 .0003645964788566
44 637689854726188e-32 1 608993811263512e-31 -.00615869528070991 -60858952798033
3e-31 .999981035056385 .0004354117787031885 133 488 1012 0 487 485 490 0 +490 .0
021445 0 782e-6 .0022695 0 8e-4 561094735588944e-48 .303957321838394 141 489 483
 489 489 485 16 487 14 491 ?298 492 482 488 0 0 1 31 490 1013 0 1 488 493 494 +.
002265762200374585 252448694839687e-34 .000382929164065388 -872743518425433e-32
 1 60607188779544e-30 -.2907355788449395 -60526542645724e-30 .956803440207913 .0
004170875847268005 133 493 1016 0 492 490 495 0 +495 .0020455 902779661431517e-5
0 731e-6 .0021445 601853107621011e-50 782e-6 0 .3772850902490225 141 494 488 494
 494 490 16 492 16 496 ?294 497 487 493 0 0 1 31 495 1017 0 1 493 498 499 +.0022
28569014628845 1785921088577525e-35 .000497218971602834 -280417535846542e-31 1 5
44339922525638e-31 -.616537872818277 -601460597362829e-31 .78732525132928 .00029
6930687797022 133 498 1020 0 497 495 500 0 +500 .0019805 0 6505e-7 .0020455 0 73
1e-6 805572213879384e-48 .444168631445837 141 499 493 499 499 495 16 497 18 501
 ?290 502 492 498 0 0 1 31 500 1021 0 1 498 503 504 +.00219124799741501 14028396
81051828e-35 .000546823045565519 -476407214370015e-31 1 3846766327211295e-32 -.8
97298704811841 -597285024914216e-31 .441423871514661 .0002348693877354965 133 50
3 1024 0 502 500 505 0 +505 .001957 -3009265538105055e-51 545e-6 .0019805 -60185
3107621011e-50 6505e-7 845262912222206e-48 .467749978093782 141 504 498 504 504
 500 16 502 20 506 ?286 507 497 503 0 0 1 31 505 1025 0 1 503 508 509 +.00219017
0469997235 138903778454484e-34 .000548428852654644 -597675455007075e-31 1 133131
499456553e-31 -.99989189391878 -595653309413385e-31 -.01470375719043942 .0002331
956798683455 133 508 1028 0 507 505 510 0 +510 .001991 -3009265538105055e-51 419
e-6 .001957 3009265538105055e-51 545e-6 583490828403769e-31 .569550873673495 141
 509 503 509 509 505 16 507 22 511 ?282 512 502 508 0 0 1 31 510 1029 0 1 508 51
3 514 +.00218921407718154 1364940783361928e-35 .000540073639874384 -591178426115
598e-31 1 -159524337205797e-31 -.853391362098503 -587661931412769e-31 -.52127073
8767928 .0002322663270156945 133 513 1032 0 512 510 515 0 +515 .0020855 -3009265
538105055e-51 333e-6 .001991 0 419e-6 532916146955071e-31 .507878082383103 141 5
14 508 514 514 510 16 512 24 516 ?278 517 507 513 0 0 1 31 515 1033 0 1 513 518
 519 +.002203926440338815 150725377739925e-34 .000558051437349045 -4121317622163
63e-31 1 -452865715458678e-31 -.465679659270808 -59268641655176e-30 -.8849533631
44875 .000254308810748258 133 518 1036 0 517 515 520 0 +520 .00204 -902779661431
517e-50 3025e-7 .0020855 -902779661431517e-50 333e-6 176206979433161e-30 .237959
762014055 141 519 513 519 519 515 16 517 26 521 ?274 522 512 518 0 0 1 31 520 10
37 0 1 518 523 524 +.002190317544380715 1402871937623804e-35 .000127444319038609
 -340944649871579e-31 1 508622346529732e-31 -.651465224803103 -607994420065395e-
31 .758678496381861 .0002307376336567225 133 523 1040 0 522 520 525 0 +525 .0020
08 1203706215242022e-50 2665e-7 .00204 902779661431517e-50 3025e-7 -888178419700
125e-30 .2410083562320245 141 524 518 524 524 520 16 522 28 526 ?270 527 517 523
 0 0 1 31 525 1041 0 1 523 528 529 +.00217264868816012 121782091554171e-34 .0001
523678327465565 -457656214889422e-31 1 4068055243461575e-32 -.821854221327825 -6
07882924208854e-31 .56969784876339 .0002003380695594755 133 528 1044 0 527 525 5
30 0 +530 .001989 -1203706215242022e-50 228e-6 .002008 -1203706215242022e-50 266
5e-7 0 .2604747132372035 141 529 523 529 529 525 16 527 30 531 ?266 532 522 528
 0 0 1 31 530 1045 0 1 528 533 534 +.002145470417761325 1003557304840856e-35 .00
01747191444814265 -549097497313321e-31 1 270983180492281e-31 -.946623454308673 -
607137691646126e-31 .3223414893443225 .0001652931976797425 133 533 1048 0 532 53
0 535 0 +535 .0019825 150463276905253e-50 1905e-7 .001989 150463276905253e-50 22
8e-6 609305196396593e-48 .331027399755988 141 534 528 534 534 530 16 532 32 536
 ?262 537 527 533 0 0 1 31 535 1049 0 1 533 538 539 +.00209799731906013 69756521
3891728e-35 .000189793798029576 -603327156678317e-31 1 1045767071575816e-32 -.99
9981307307142 -603955295409296e-31 .00611433040484595 .0001154994780564004 133 5
38 1052 0 537 535 540 0 +540 .002001 105324293833677e-49 1175e-7 .0019825 120370
6215242022e-50 1905e-7 516599531092312e-30 .582313096524453 141 539 533 539 539
 535 16 537 34 541 ?258 542 532 538 0 0 1 31 540 1053 0 1 538 543 544 +.00211354
9525145835 769383710652682e-35 .000184867002947917 -593559581623045e-31 1 -15042
26336989895e-32 -.858039703524444 -58655224900288e-30 -.513583359519839 .0001311
705328827242 133 543 1056 0 542 540 545 0 +545 .002051 0 735e-7 .002001 0 1175e-
7 0 .502119864085716 141 544 538 544 544 540 16 542 36 546 ?254 547 537 543 0 0
 1 31 545 1057 0 1 543 548 549 +.002111779589702235 795074661343104e-35 .0001929
768064798145 -4045179184534835e-32 1 -459679452788055e-31 -.453416615958777 -593
12684430231e-30 -.891298699860205 .0001340479981610582 133 548 1060 0 547 545 55
0 0 +550 .001959 0 135e-7 .002051 3009265538105055e-51 735e-7 2901299392263145e-
31 .474715639830689 141 549 543 549 549 545 16 547 38 551 ?250 552 542 548 0 0 1
 31 550 1061 0 1 548 553 554 +.00212900891283161 139004279195199e-34 -.000146646
9996751326 -334492544462059e-31 1 512888568175156e-31 -.727903733078723 -5951554
6599796e-30 .685679338590612 .0002335596111212985 133 553 1064 0 552 550 555 0 +
555 .0019255 3009265538105055e-51 -79e-6 .001959 451389830715758e-50 135e-7 1285
504679318404e-48 .75558186584247 141 554 548 554 554 550 16 552 40 556 ?246 557
 547 553 0 0 1 31 555 1065 0 1 553 558 559 +.00205879174807921 758970120225074e-
35 -749570114665256e-19 -575729604211817e-31 1 20850747828212e-30 -.999540305876
449 -569143429396716e-31 -.03031793080695755 .0001333530496925126 133 558 1068 0
 557 555 560 0 +560 .001947 150463276905253e-50 -1575e-7 .0019255 15046327690525
3e-50 -79e-6 0 .527887389159403 141 559 553 559 559 555 16 557 42 561 ?242 562 5
52 558 0 0 1 31 560 1069 0 1 558 563 564 +.002081486549253305 922069535044432e-3
5 -784718368287123e-19 -590573506834813e-31 1 -1617494318082625e-32 -.8621626606
97969 -591117794378916e-31 -.506631568793535 .0001559874434186585 133 563 1072 0
 562 560 565 0 +565 .002012 150463276905253e-50 -2245e-7 .001947 752316384526264
e-50 -1575e-7 135155203593142e-30 .469777455846232 141 564 558 564 564 560 16 56
2 44 566 ?238 567 557 563 0 0 1 31 565 1073 0 1 563 568 569 +.002119488099451485
 1194279419977604e-35 -551906497858756e-19 -4394878579012505e-32 1 -426368817366
883e-31 -.535972951683024 -595509148571941e-31 -.844235153890305 .00020054761926
68985 133 568 1076 0 567 565 570 0 +570 .002122 0 -2705e-7 .002012 3009265538105
055e-51 -2245e-7 3705269660483195e-32 .327438784180608 141 569 563 569 569 565 1
6 567 46 571 ?234 572 562 568 0 0 1 31 570 1077 0 1 568 573 574 +.00220622684370
4635 2209707091781025e-35 854337566849949e-19 -2362381213689055e-32 1 -564917246
75173e-30 -.230276733618122 -604135343279088e-31 -.97312518514021 .0003657635853
230035 133 573 1080 0 572 570 575 0 +575 .0022775 0 -288e-6 .002122 601853107621
011e-50 -2705e-7 471513877128342e-48 .254244582082646 141 574 568 574 574 570 16
 572 48 576 ?230 577 567 573 0 0 1 31 575 1081 0 1 573 578 579 +.002268210185181
32 3748385364903445e-35 .000329067645468286 -684787064651027e-32 1 -608482220304
201e-31 .01505306965113255 -607382462174654e-31 -.999886696128155 .0006171375695
44376 133 578 1084 0 577 575 580 0 +580 .002439 601853107621011e-50 -264e-6 .002
2775 0 -288e-6 0 .325095451907108 141 579 573 579 579 575 16 577 50 581 ?226 582
 572 578 0 0 1 31 580 1085 0 1 578 583 584 +.00228507686733924 304815523553669e-
34 .000216394205196363 900069985417472e-32 1 -605672094353843e-31 .3051299310782
335 -604251863158822e-31 -.952310729310656 .000504451110767284 133 583 1088 0 58
2 580 585 0 +585 .0025585 -3009265538105055e-51 -2005e-7 .002439 0 -264e-6 14233
2072620898e-30 .357196820888038 141 584 578 584 584 580 16 582 52 586 ?222 587 5
77 583 0 0 1 31 585 1089 0 1 583 588 589 +.002322871059437715 229506394595086e-3
4 98734777908553e-18 287329860827916e-31 1 -540723123920251e-31 .618658702791796
 -602583570692946e-31 -.785659856082753 .0003808706472550575 133 588 1092 0 587
 585 590 0 +590 .002633 0 -1115e-7 .0025585 3009265538105055e-51 -2005e-7 149438
1797512384e-31 .429906050323132 141 589 583 589 589 585 16 587 54 591 ?218 592 5
82 588 0 0 1 31 590 1093 0 1 588 593 594 +.00239192635887617 1627606265255835e-3
5 146164186935447e-19 469533858155151e-31 1 -3930367689051535e-32 .8860735148183
92 -598231643025158e-31 -.463544740383688 .0002720695710820815 133 593 1096 0 59
2 590 595 0 +595 .002659 3009265538105055e-51 -8e-6 .002633 3009265538105055e-51
 -1115e-7 0 .485180475127458 141 594 588 594 594 590 16 592 56 596 ?214 597 587
 593 0 0 1 31 595 1097 0 1 593 598 599 +.00243687851049773 1320284929588062e-35
 -721706543904268e-20 59387180868547e-30 1 -149185188655287e-31 .999993787938705
 -594393964697255e-31 -.003524781411624395 .000222122869343152 133 598 1100 0 59
7 595 600 0 +600 .002637 150463276905253e-49 855e-7 .002659 1203706215242022e-50
 -8e-6 0 .544673723628361 141 599 593 599 599 595 16 597 58 601 ?210 602 592 598
 0 0 1 31 600 1101 0 1 598 603 604 +.00248060264688845 1053005018520226e-35 -637
612496835403e-21 596046109717397e-31 1 140246143462916e-31 .875934165270868 -589
756190608717e-31 .482430656272202 .000178549209874909 133 603 1104 0 602 600 605
 0 +605 .002579 150463276905253e-50 143e-6 .002637 150463276905253e-50 855e-7 93
7769021106749e-48 .523856969923102 141 604 598 604 604 600 16 602 60 606 ?206 60
7 597 603 0 0 1 31 605 1105 0 1 603 608 609 +.002500758919275235 932707027707799
e-35 607638813849925e-20 4310996249150745e-32 1 43484831730564e-30 .496134238464
623 -591438521318824e-31 .868245827760277 .0001577014337226455 133 608 1108 0 60
7 605 610 0 +610 .002497 3009265538105055e-51 174e-6 .002579 601853107621011e-50
 143e-6 617605516311039e-48 .335712911469839 141 609 603 609 609 605 16 607 62 6
11 ?202 612 602 608 0 0 1 31 610 1109 0 1 608 613 614 +.002446528088255865 15839
0399419473e-34 -834579600973889e-19 216531265436316e-31 1 572760121476707e-31 .1
923776047005335 -603717287396389e-31 .981320975629119 .0002623585620722455 133 6
13 1112 0 612 610 615 0 +615 .0024025 0 188e-6 .002497 -1203706215242022e-50 174
e-6 246484967569806e-48 .1318614957206676 141 614 608 614 614 610 16 612 64 616
 ?198 617 607 613 0 0 1 31 615 1113 0 1 613 618 619 +.00234373187333167 44297490
85073825e-35 -.000534622355011222 897351743612697e-32 1 605712426938574e-31 .081
0585782362801 -610993038464603e-31 .996709339222982 .000725008110764335 133 618
 1116 0 617 615 620 0 +620 .002308 0 192e-6 .0024025 0 188e-6 -472923090998949e-
19 472923090998949e-19 141 619 613 619 619 615 16 617 66 621 ?194 622 612 618 0
 0 1 30 620 1117 0 1 618 623 624 +.00235525 0 19e-5 .999105370393196 0 -.0422901
744081778 133 623 1120 0 622 620 625 0 +625 .002226 -1203706215242022e-50 1965e-
7 .002308 -1203706215242022e-50 192e-6 202589215197211e-31 .1228389094788882 141
 624 618 624 624 620 16 622 68 626 ?190 627 617 623 0 0 1 31 625 1121 0 1 623 62
8 629 +.002303587267595925 4088510800740685e-35 .000860951320636867 335526278222
8445e-33 -1 61140344031718e-30 -.1159809050411376 -611168813689829e-31 -.9932514
43324317 .000668965874756761 133 628 1124 0 627 625 630 0 +630 .002168 -15046327
6905253e-50 212e-6 .002226 0 1965e-7 740360684004238e-31 .329455229313613 141 62
9 623 629 629 625 16 627 70 631 ?186 632 622 628 0 0 1 31 630 1125 0 1 628 633 6
34 +.00224362104555962 1105703337709462e-35 .0003787029446747125 158090255250588
e-31 -1 591563535776393e-31 -.4131100301139485 -604034413644963e-31 -.9106811203
81472 .000183053036835641 133 633 1128 0 632 630 635 0 +635 .002146 0 247e-6 .00
2168 -150463276905253e-50 212e-6 2811070002249145e-33 1.16182070755917 141 634 6
28 634 634 630 16 632 72 636 ?182 637 627 633 0 0 1 31 635 1129 0 1 633 638 639
 +.00218365771597693 19279988900875e-34 .0002462562786140705 518415370016207e-31
 -1 3258610897244775e-32 -.999805035486394 -511879955731401e-31 .019745658156931
65 3766505932690165e-20 133 638 1132 0 637 635 640 0 +640 .002183 78993220375257
7e-50 297e-6 .002146 105324293833677e-49 247e-6 379733703548355e-30 1.0424782528
8175 141 639 633 639 639 635 16 637 74 641 ?178 642 632 638 0 0 1 31 640 1133 0
 1 638 643 644 +.002208038203900425 3316505528023375e-36 .000239781729113687 492
211204439803e-31 -1 -3642362912854555e-32 -.4008888542785305 -531008576583741e-3
1 .916126697850929 624567224386506e-19 133 643 1136 0 642 640 645 0 +645 .002225
 0 2905e-7 .002183 0 297e-6 -2124999999999975e-20 2125e-8 141 644 638 644 644 64
0 16 642 76 646 ?174 647 637 643 0 0 1 30 645 1137 0 1 643 648 649 +.002204 0 29
375e-8 -.988235294117647 0 .1529411764705895 133 648 1140 0 647 645 650 0 +650 .
0022695 0 288e-6 .002225 0 2905e-7 -2228508469806625e-20 222850846980667e-19 141
 649 643 649 649 645 16 647 78 651 ?170 652 642 648 0 0 1 30 650 1141 0 1 648 65
3 654 +.00224725 0 28925e-8 -.998425642148464 0 .0560913282105882 133 653 1144 0
 652 650 655 0 +655 .0023915 -3009265538105055e-51 3065e-7 .0022695 -60185310762
1011e-50 288e-6 347177866541099e-31 .317433782858534 141 654 648 654 654 650 16
 652 80 656 ?166 657 647 653 0 0 1 31 655 1145 0 1 653 658 659 +.002272710329655
705 236023813359122e-34 .000678349447675891 918028378176678e-32 1 -6054024980408
38e-31 .3043059338109135 -604627041372287e-31 -.952574353343333 .000390362648722
149 133 658 1148 0 657 655 660 0 +660 .0024895 -902779661431517e-50 3585e-7 .002
3915 -902779661431517e-50 3065e-7 0 .3642553033073085 141 659 653 659 659 655 16
 657 82 661 ?162 662 652 658 0 0 1 31 660 1149 0 1 658 663 664 +.002299324925663
715 184429029659805e-34 .00059856071701838 28700565631453e-30 1 -540895275361997
e-31 .620957839845732 -602195909543267e-31 -.783843964787714 .000306260847569829
 133 663 1152 0 662 660 665 0 +665 .002554 -1203706215242022e-50 44e-5 .0024895
 -1203706215242022e-50 3585e-7 814727198203291e-48 .4495838438603685 141 664 658
 664 664 660 16 662 84 666 ?158 667 657 663 0 0 1 31 665 1153 0 1 663 668 669 +.
00234353500346368 1391648741854056e-35 .000540291316277208 480149330132513e-31 1
 -379995482129411e-31 .902744121965303 -5969176548236e-29 -.430177928602915 .000
233139149195598 133 668 1156 0 667 665 670 0 +670 .0025775 3009265538105055e-51
 548e-6 .002554 0 44e-5 172884364289694e-32 .455102035843301 141 669 663 669 669
 665 16 667 86 671 ?154 339 662 668 0 0 1 31 670 1157 0 1 668 672 673 +.00233255
0707740755 1461346771721836e-35 .000544742438593447 598322941965957e-31 1 -13019
06401500002e-32 .999911581071857 -59653879687888e-30 .013297745612662 .000244970
9523282765 133 672 1160 0 339 670 674 0 +674 .0025615 -150463276905253e-49 639e-
6 .0025775 -150463276905253e-49 548e-6 677332249967207e-48 .3696635471119445 141
 673 668 673 673 670 16 339 88 675 ?150 336 667 672 0 0 1 31 674 1161 0 1 672 18
 676 +.00232613989121963 1513008943875255e-35 .00055071140944521 603072614558031
e-31 1 1060347454167964e-32 .936291832709566 -601893806179731e-31 .3512230117765
105 .000251374732276853 133 18 1164 0 326 674 8 0 +8 .002673 1015627119110456e-5
0 692e-6 .002632 150463276905253e-50 6515e-7 1013923817074366e-32 1.522568659072
355 141 676 672 676 676 674 16 326 92 677 ?142 407 336 18 0 0 1 81 1 677 1266 27
 326 0 0 409 338 678 17 142 0 0 0 0 139 310 326 0 325 +17 325 0 318 310 679 139
 146 336 0 0 -17 679 0 318 325 680 143 150 339 0 0 -17 146 0 0 0 0 143 325 336 0
 679 +17 680 0 318 679 681 147 154 667 0 0 -17 150 0 0 0 0 147 679 339 0 680 +17
 681 0 318 680 682 151 158 662 0 0 -17 154 0 0 0 0 151 680 667 0 681 +17 682 0 3
18 681 683 155 162 657 0 0 -17 158 0 0 0 0 155 681 662 0 682 +17 683 0 318 682 6
84 159 166 652 0 0 -17 162 0 0 0 0 159 682 657 0 683 +17 684 0 318 683 685 163 1
70 647 0 0 -17 166 0 0 0 0 163 683 652 0 684 +17 685 0 318 684 686 167 174 642 0
 0 -17 170 0 0 0 0 167 684 647 0 685 +17 686 0 318 685 687 171 178 637 0 0 -17 1
74 0 0 0 0 171 685 642 0 686 +17 687 0 318 686 688 175 182 632 0 0 -17 178 0 0 0
 0 175 686 637 0 687 +17 688 0 318 687 689 179 186 627 0 0 -17 182 0 0 0 0 179 6
87 632 0 688 +17 689 0 318 688 690 183 190 622 0 0 -17 186 0 0 0 0 183 688 627 0
 689 +17 690 0 318 689 691 187 194 617 0 0 -17 190 0 0 0 0 187 689 622 0 690 +17
 691 0 318 690 692 191 198 612 0 0 -17 194 0 0 0 0 191 690 617 0 691 +17 692 0 3
18 691 693 195 202 607 0 0 -17 198 0 0 0 0 195 691 612 0 692 +17 693 0 318 692 6
94 199 206 602 0 0 -17 202 0 0 0 0 199 692 607 0 693 +17 694 0 318 693 695 203 2
10 597 0 0 -17 206 0 0 0 0 203 693 602 0 694 +17 695 0 318 694 696 207 214 592 0
 0 -17 210 0 0 0 0 207 694 597 0 695 +17 696 0 318 695 697 211 218 587 0 0 -17 2
14 0 0 0 0 211 695 592 0 696 +17 697 0 318 696 698 215 222 582 0 0 -17 218 0 0 0
 0 215 696 587 0 697 +17 698 0 318 697 699 219 226 577 0 0 -17 222 0 0 0 0 219 6
97 582 0 698 +17 699 0 318 698 700 223 230 572 0 0 -17 226 0 0 0 0 223 698 577 0
 699 +17 700 0 318 699 701 227 234 567 0 0 -17 230 0 0 0 0 227 699 572 0 700 +17
 701 0 318 700 702 231 238 562 0 0 -17 234 0 0 0 0 231 700 567 0 701 +17 702 0 3
18 701 703 235 242 557 0 0 -17 238 0 0 0 0 235 701 562 0 702 +17 703 0 318 702 7
04 239 246 552 0 0 -17 242 0 0 0 0 239 702 557 0 703 +17 704 0 318 703 705 243 2
50 547 0 0 -17 246 0 0 0 0 243 703 552 0 704 +17 705 0 318 704 706 247 254 542 0
 0 -17 250 0 0 0 0 247 704 547 0 705 +17 706 0 318 705 707 251 258 537 0 0 -17 2
54 0 0 0 0 251 705 542 0 706 +17 707 0 318 706 708 255 262 532 0 0 -17 258 0 0 0
 0 255 706 537 0 707 +17 708 0 318 707 709 259 266 527 0 0 -17 262 0 0 0 0 259 7
07 532 0 708 +17 709 0 318 708 710 263 270 522 0 0 -17 266 0 0 0 0 263 708 527 0
 709 +17 710 0 318 709 711 267 274 517 0 0 -17 270 0 0 0 0 267 709 522 0 710 +17
 711 0 318 710 712 271 278 512 0 0 -17 274 0 0 0 0 271 710 517 0 711 +17 712 0 3
18 711 713 275 282 507 0 0 -17 278 0 0 0 0 275 711 512 0 712 +17 713 0 318 712 7
14 279 286 502 0 0 -17 282 0 0 0 0 279 712 507 0 713 +17 714 0 318 713 715 283 2
90 497 0 0 -17 286 0 0 0 0 283 713 502 0 714 +17 715 0 318 714 716 287 294 492 0
 0 -17 290 0 0 0 0 287 714 497 0 715 +17 716 0 318 715 717 291 298 487 0 0 -17 2
94 0 0 0 0 291 715 492 0 716 +17 717 0 318 716 319 295 302 482 0 0 -17 298 0 0 0
 0 295 716 487 0 717 +17 319 0 318 717 315 299 306 321 0 0 -17 302 0 0 0 0 299 7
17 482 0 319 +17 306 0 0 0 0 303 319 321 0 315 +80 7 CCCCCDI12 legal_owners0 17
 1 lCZ1 27 718 719 9000 0 0 0 0 3 5 0 0 0 FFTFTFTTFFFFFFFFF2 81 1 409 1265 27 40
7 0 0 415 677 720 81 1 338 1267 27 336 0 0 677 675 721 83 255 1 678 7108 81 1 67
5 1268 27 339 0 0 338 671 722 83 1 721 7109 81 1 671 1269 27 667 0 0 675 666 723
 83 1 722 7110 81 1 666 1270 27 662 0 0 671 661 724 83 1 723 7111 81 1 661 1271
 27 657 0 0 666 656 725 83 1 724 7112 81 1 656 1272 27 652 0 0 661 651 726 83 1
 725 7113 81 1 651 1273 27 647 0 0 656 646 727 83 1 726 7114 81 1 646 1274 27 64
2 0 0 651 641 728 83 1 727 7115 81 1 641 1275 27 637 0 0 646 636 729 83 1 728 71
16 81 1 636 1276 27 632 0 0 641 631 730 83 1 729 7117 81 1 631 1277 27 627 0 0 6
36 626 731 83 1 730 7118 81 1 626 1278 27 622 0 0 631 621 732 83 1 731 7119 81 1
 621 1279 27 617 0 0 626 616 733 83 1 732 7120 81 1 616 1280 27 612 0 0 621 611
 734 83 1 733 7121 81 1 611 1281 27 607 0 0 616 606 735 83 1 734 7122 81 1 606 1
282 27 602 0 0 611 601 736 83 1 735 7123 81 1 601 1283 27 597 0 0 606 596 737 83
 1 736 7124 81 1 596 1284 27 592 0 0 601 591 738 83 1 737 7125 81 1 591 1285 27
 587 0 0 596 586 739 83 1 738 7126 81 1 586 1286 27 582 0 0 591 581 740 83 1 739
 7127 81 1 581 1287 27 577 0 0 586 576 741 83 1 740 7128 81 1 576 1288 27 572 0
 0 581 571 742 83 1 741 7129 81 1 571 1289 27 567 0 0 576 566 743 83 1 742 7130
 81 1 566 1290 27 562 0 0 571 561 744 83 1 743 7131 81 1 561 1291 27 557 0 0 566
 556 745 83 1 744 7132 81 1 556 1292 27 552 0 0 561 551 746 83 1 745 7133 81 1 5
51 1293 27 547 0 0 556 546 747 83 1 746 7134 81 1 546 1294 27 542 0 0 551 541 74
8 83 1 747 7135 81 1 541 1295 27 537 0 0 546 536 749 83 1 748 7136 81 1 536 1296
 27 532 0 0 541 531 750 83 1 749 7137 81 1 531 1297 27 527 0 0 536 526 751 83 1
 750 7138 81 1 526 1298 27 522 0 0 531 521 752 83 1 751 7139 81 1 521 1299 27 51
7 0 0 526 516 753 83 1 752 7140 81 1 516 1300 27 512 0 0 521 511 754 83 1 753 71
41 81 1 511 1301 27 507 0 0 516 506 755 83 1 754 7142 81 1 506 1302 27 502 0 0 5
11 501 756 83 1 755 7143 81 1 501 1303 27 497 0 0 506 496 757 83 1 756 7144 81 1
 496 1304 27 492 0 0 501 491 758 83 1 757 7145 81 1 491 1305 27 487 0 0 496 486
 759 83 1 758 7146 81 1 486 1306 27 482 0 0 491 481 760 83 1 759 7147 81 1 481 1
307 27 321 0 0 486 320 761 83 1 760 7148 81 1 320 1308 27 316 0 0 481 327 762 83
 1 761 7149 83 1 762 7150 81 1 415 1264 27 411 0 0 420 409 763 83 1 720 7107 81
 1 420 1263 27 416 0 0 425 415 764 83 1 763 7106 81 1 425 1262 27 421 0 0 430 42
0 765 83 1 764 7105 81 1 430 1261 27 426 0 0 435 425 766 83 1 765 7104 81 1 435
 1260 27 431 0 0 440 430 767 83 1 766 7103 81 1 440 1259 27 436 0 0 445 435 768
 83 1 767 7102 81 1 445 1258 27 441 0 0 450 440 769 83 1 768 7101 81 1 450 1257
 27 446 0 0 455 445 770 83 1 769 71e2 81 1 455 1256 27 451 0 0 460 450 771 83 1
 770 7099 81 1 460 1255 27 456 0 0 464 455 772 83 1 771 7098 81 1 464 1254 27 34
6 0 0 344 460 773 83 1 772 7097 81 1 344 1253 27 342 0 0 468 464 774 83 1 773 70
96 81 1 468 1252 27 345 0 0 473 344 775 83 1 774 7095 81 1 473 1251 27 469 0 0 4
77 468 776 83 1 775 7094 81 1 477 1250 27 354 0 0 351 473 777 83 1 776 7093 81 1
 351 1249 27 349 0 0 358 477 778 83 1 777 7092 81 1 358 1248 27 353 0 0 363 351
 779 83 1 778 7091 81 1 363 1247 27 359 0 0 368 358 780 83 1 779 7090 81 1 368 1
246 27 364 0 0 373 363 781 83 1 780 7089 81 1 373 1245 27 369 0 0 378 368 782 83
 1 781 7088 81 1 378 1244 27 374 0 0 383 373 783 83 1 782 7087 81 1 383 1243 27
 379 0 0 388 378 784 83 1 783 7086 81 1 388 1242 27 384 0 0 393 383 785 83 1 784
 7085 81 1 393 1241 27 389 0 0 398 388 786 83 1 785 7084 81 1 398 1240 27 394 0
 0 402 393 787 83 1 786 7083 81 1 402 1239 27 23 0 0 21 398 788 83 1 787 7082 81
 1 21 1238 27 11 0 0 312 402 789 83 1 788 7081 83 1 789 7080 79 255 13 719 BTI/i
mportTag17 78 0 0 0 0 75 134 354 0 790 +17 134 0 791 792 790 131 78 354 0 410 -1
7 790 0 791 134 793 75 82 469 0 0 -15 791 93 0 792 17 318 17 793 0 791 790 794 7
9 86 345 0 0 -17 82 0 0 0 0 79 790 469 0 793 +17 794 0 791 793 795 83 90 342 0 0
 -17 86 0 0 0 0 83 793 345 0 794 +17 795 0 791 794 796 87 94 346 0 0 -17 90 0 0
 0 0 87 794 342 0 795 +17 796 0 791 795 797 91 98 456 0 0 -17 94 0 0 0 0 91 795
 346 0 796 +17 797 0 791 796 798 95 102 451 0 0 -17 98 0 0 0 0 95 796 456 0 797
 +17 798 0 791 797 799 99 106 446 0 0 -17 102 0 0 0 0 99 797 451 0 798 +17 799 0
 791 798 800 103 110 441 0 0 -17 106 0 0 0 0 103 798 446 0 799 +17 800 0 791 799
 801 107 114 436 0 0 -17 110 0 0 0 0 107 799 441 0 800 +17 801 0 791 800 802 111
 118 431 0 0 -17 114 0 0 0 0 111 800 436 0 801 +17 802 0 791 801 803 115 122 426
 0 0 -17 118 0 0 0 0 115 801 431 0 802 +17 803 0 791 802 804 119 126 421 0 0 -17
 122 0 0 0 0 119 802 426 0 803 +17 804 0 791 803 805 123 130 416 0 0 -17 126 0 0
 0 0 123 803 421 0 804 +17 805 0 791 804 792 127 138 411 0 0 -17 130 0 0 0 0 127
 804 416 0 805 +17 792 0 791 805 134 135 410 407 0 0 -17 138 0 0 0 0 135 805 411
 0 792 +17 410 0 0 0 0 131 792 407 0 0 +14 255 17 3 329 ?0 0 806 6 7 +0 0 0 0 6
 81 1 329 1310 27 17 0 0 327 14 807 15 806 126 0 808 17 791 17 808 0 806 809 30
 71 352 349 0 0 -17 809 0 806 810 808 64 74 353 0 0 -17 30 0 806 808 31 68 22 11
 0 352 -17 352 0 0 0 0 68 808 349 0 0 +17 31 0 806 30 36 12 32 23 0 0 -17 36 0 8
06 31 811 26 37 394 0 0 -17 811 0 806 36 812 33 43 389 0 0 -17 37 0 0 0 0 33 36
 394 0 811 +17 812 0 806 811 813 38 47 384 0 0 -17 43 0 0 0 0 38 811 389 0 812 +
17 813 0 806 812 814 44 51 379 0 0 -17 47 0 0 0 0 44 812 384 0 813 +17 814 0 806
 813 815 48 55 374 0 0 -17 51 0 0 0 0 48 813 379 0 814 +17 815 0 806 814 816 52
 59 369 0 0 -17 55 0 0 0 0 52 814 374 0 815 +17 816 0 806 815 810 56 63 364 0 0
 -17 59 0 0 0 0 56 815 369 0 816 +17 810 0 806 816 809 60 67 359 0 0 -17 63 0 0
 0 0 60 816 364 0 810 +17 67 0 0 0 0 64 810 359 0 809 +17 74 0 0 0 0 71 809 353
 0 808 +81 1 14 1311 27 1 817 2 329 0 818 83 1 807 7152 81 1 817 892 819 1 820 1
4 0 0 821 83 1 818 7153 80 1 819 822 823 9000 0 0 0 0 3 5 0 0 0 TTTFFFFFFFFFFFFF
F1 81 1 820 669 824 1 825 817 0 0 826 82 255 1 821 38 80 1 824 827 828 8038 0 0
 0 0 0 0 0 0 0 TTTTTTTTTTTTTFTFT10 81 1 825 668 827 1 0 820 0 0 829 98 255 19 82
6 72 67 45 48 52 83 104 97 112 101 83 116 114 105 110 103 48 48 49 80 1 827 830
 831 8017 0 0 0 0 0 0 0 0 0 TTTTTTTTTTTTTFTFT3 84 255 19 829 HC-04ShapeString001
79 13 831 SDL/TYSA_NAME79 14 828 SDL/TYSA_UNAME79 23 823 ONSHAPE_ORIGINALBODY_ID
83 1 330 7151 81 1 309 1236 27 307 0 0 305 312 832 83 1 314 7079 81 1 305 1235 2
7 303 0 0 301 309 833 83 1 832 7078 81 1 301 1234 27 299 0 0 297 305 834 83 1 83
3 7077 81 1 297 1233 27 295 0 0 293 301 835 83 1 834 7076 81 1 293 1232 27 291 0
 0 289 297 836 83 1 835 7075 81 1 289 1231 27 287 0 0 285 293 837 83 1 836 7074
 81 1 285 1230 27 283 0 0 281 289 838 83 1 837 7073 81 1 281 1229 27 279 0 0 277
 285 839 83 1 838 7072 81 1 277 1228 27 275 0 0 273 281 840 83 1 839 7071 81 1 2
73 1227 27 271 0 0 269 277 841 83 1 840 7070 81 1 269 1226 27 267 0 0 265 273 84
2 83 1 841 7069 81 1 265 1225 27 263 0 0 261 269 843 83 1 842 7068 81 1 261 1224
 27 259 0 0 257 265 844 83 1 843 7067 81 1 257 1223 27 255 0 0 253 261 845 83 1
 844 7066 81 1 253 1222 27 251 0 0 249 257 846 83 1 845 7065 81 1 249 1221 27 24
7 0 0 245 253 847 83 1 846 7064 81 1 245 1220 27 243 0 0 241 249 848 83 1 847 70
63 81 1 241 1219 27 239 0 0 237 245 849 83 1 848 7062 81 1 237 1218 27 235 0 0 2
33 241 850 83 1 849 7061 81 1 233 1217 27 231 0 0 229 237 851 83 1 850 7060 81 1
 229 1216 27 227 0 0 225 233 852 83 1 851 7059 81 1 225 1215 27 223 0 0 221 229
 853 83 1 852 7058 81 1 221 1214 27 219 0 0 217 225 854 83 1 853 7057 81 1 217 1
213 27 215 0 0 213 221 855 83 1 854 7056 81 1 213 1212 27 211 0 0 209 217 856 83
 1 855 7055 81 1 209 1211 27 207 0 0 205 213 857 83 1 856 7054 81 1 205 1210 27
 203 0 0 201 209 858 83 1 857 7053 81 1 201 1209 27 199 0 0 197 205 859 83 1 858
 7052 81 1 197 1208 27 195 0 0 193 201 860 83 1 859 7051 81 1 193 1207 27 191 0
 0 189 197 861 83 1 860 7050 81 1 189 1206 27 187 0 0 185 193 862 83 1 861 7049
 81 1 185 1205 27 183 0 0 181 189 863 83 1 862 7048 81 1 181 1204 27 179 0 0 177
 185 864 83 1 863 7047 81 1 177 1203 27 175 0 0 173 181 865 83 1 864 7046 81 1 1
73 1202 27 171 0 0 169 177 866 83 1 865 7045 81 1 169 1201 27 167 0 0 165 173 86
7 83 1 866 7044 81 1 165 1200 27 163 0 0 161 169 868 83 1 867 7043 81 1 161 1199
 27 159 0 0 157 165 869 83 1 868 7042 81 1 157 1198 27 155 0 0 153 161 870 83 1
 869 7041 81 1 153 1197 27 151 0 0 149 157 871 83 1 870 7040 81 1 149 1196 27 14
7 0 0 145 153 872 83 1 871 7039 81 1 145 1195 27 143 0 0 141 149 873 83 1 872 70
38 81 1 141 1194 27 139 0 0 137 145 874 83 1 873 7037 81 1 137 1193 27 135 0 0 1
33 141 875 83 1 874 7036 81 1 133 1192 27 131 0 0 129 137 876 83 1 875 7035 81 1
 129 1191 27 127 0 0 125 133 877 83 1 876 7034 81 1 125 1190 27 123 0 0 121 129
 878 83 1 877 7033 81 1 121 1189 27 119 0 0 117 125 879 83 1 878 7032 81 1 117 1
188 27 115 0 0 113 121 880 83 1 879 7031 81 1 113 1187 27 111 0 0 109 117 881 83
 1 880 7030 81 1 109 1186 27 107 0 0 105 113 882 83 1 881 7029 81 1 105 1185 27
 103 0 0 101 109 883 83 1 882 7028 81 1 101 1184 27 99 0 0 97 105 884 83 1 883 7
027 81 1 97 1183 27 95 0 0 93 101 885 83 1 884 7026 81 1 93 1182 27 91 0 0 89 97
 886 83 1 885 7025 81 1 89 1181 27 87 0 0 85 93 887 83 1 886 7024 81 1 85 1180 2
7 83 0 0 81 89 888 83 1 887 7023 81 1 81 1179 27 79 0 0 77 85 889 83 1 888 7022
 81 1 77 1178 27 75 0 0 73 81 890 83 1 889 7021 81 1 73 1177 27 71 0 0 70 77 891
 83 1 890 7020 81 1 70 1176 27 68 0 0 66 73 892 83 1 891 7019 81 1 66 1175 27 64
 0 0 62 70 893 83 1 892 7018 81 1 62 1174 27 60 0 0 58 66 894 83 1 893 7017 81 1
 58 1173 27 56 0 0 54 62 895 83 1 894 7016 81 1 54 1172 27 52 0 0 50 58 896 83 1
 895 7015 81 1 50 1171 27 48 0 0 46 54 897 83 1 896 7014 81 1 46 1170 27 44 0 0
 42 50 898 83 1 897 7013 81 1 42 1169 27 38 0 0 34 46 899 83 1 898 7012 81 1 34
 1168 27 33 0 0 28 42 900 83 1 899 7011 83 1 900 7010 83 1 35 7009 83 1 29 7008
 141 19 18 19 19 8 74 4 CI16 index_map_offset0 0 1 dCCZ20 16 5 0 0 825 820 817 1
4 2 0 0 0 0 0 0 0 0 0 0 0 0 0 0 0 80 1 13 27 901 9000 0 0 0 0 3 5 0 0 0 FFTFTFTT
FFFFFFFFF2 83 1 15 17325 79 18 901 BTI/importMaxCount1 0 
