**ABCDEFGHIJKLMNOPQRSTUVWXYZabcdefghijklmnopqrstuvwxyz**************************
**PARASOLID !"#$%&'()*+,-./:;<=>?@[\]^_`{|}~0123456789**************************
**PART1;
MC=unknown;
MC_MODEL=unknown;
MC_ID=unknown;
OS=unknown;
OS_RELEASE=unknown;
FRU=Parasolid 37.0.173;
APPL=Onshape;
SITE=unknown;
USER=unknown;
FORMAT=text;
GUISE=transmit;
KEY=BTGapi::writeModels_.xmt;
FILE=BTGapi::writeModels_.xmt;
DATE=2024-12-29T04:00:29 (UTC);
**PART2;
SCH=SCH_3700173_36001;
USFLD_SIZE=0;
**PART3;
**END_OF_HEADER*****************************************************************
T51 : TRANSMIT FILE created by modeller version 370017323 SCH_3700173_36001_1300
6231 0 12 36 CCCI7 lattice222 0 CCCI4 mesh1006 0 I8 polyline1008 0 CCCCCCCDI5 ow
ner1040 0 CCCI16 boundary_lattice222 0 CCCI13 boundary_mesh1006 0 I17 boundary_p
olyline1008 0 CCCA16 index_map_offset0 0 1 dA9 index_map82 0 A17 node_id_index_m
ap82 0 A20 schema_embedding_map82 0 A5 child12 0 A14 lowest_node_id0 0 1 dA16 me
sh_offset_data206 0 Z1 576 2 3 0 0 0 0 0 0 0 1e3 1e-8 0 4 5 1 0 3 2 6 0 7 8 9 0
 0 10 11 12 0 0 0 0 0 0 0 81 255 1 2 576 13 1 14 0 0 0 15 70 11 CI9 list_type0 0
 1 uI10 notransmit0 0 1 lCCCDCCDI12 finger_index0 0 1 dI12 finger_block1012 0 CZ
3 0 4 T1 0 0 6 20 1 16 16 13 255 6 2 0 1 0 17 0 0 10 17 50 255 7 162 0 17 0 0 0
 +.002063541666667 0 0 0 -1 0 1 0 0 31 255 8 447 0 1 18 0 19 +.00089073537672467
9 963061463603493e-35 .000707228139697232 -421334577326349e-31 -1 -4443164633621
98e-31 .850857033845253 -591938152619801e-31 .525397285828598 .00016269629848003
1 29 255 9 220 0 12 20 0 .001317708333333 0 .00131875 19 9 CCCCCCI5 frame230 0 C
A5 owner12 0 Z10 1 0 1 0 0 6 0 V0 16 255 11 65 21 ?22 0 23 24 0 0 1 18 255 12 64
 25 22 0 26 9 5e-7 1 81 1 25 448 27 12 0 0 0 28 29 17 255 22 0 0 0 0 12 30 11 0
 31 +18 26 62 28 32 12 33 20 5e-7 1 81 1 28 449 27 26 0 0 25 34 35 17 32 0 0 0 0
 26 31 23 0 36 +18 33 60 34 37 26 38 39 5e-7 1 29 20 218 0 26 39 9 .001404166666
667 0 .001451041666667 29 39 216 0 33 40 20 .001433333333333 0 .001619791666667
 29 40 214 0 38 41 39 .001317708333333 0 .001901041666667 18 38 58 42 43 33 44 4
0 5e-7 1 29 41 212 0 44 45 40 .000963541666667 0 .002 18 44 56 46 47 38 48 41 5e
-7 1 29 45 210 0 48 49 41 6875e-7 0 .002 18 48 54 50 51 44 52 45 5e-7 1 29 49 20
8 0 52 53 45 6875e-7 0 .0012 18 52 52 54 55 48 56 49 5e-7 1 29 53 206 0 56 57 49
 .00116875 0 .00123125 18 56 50 58 30 52 59 53 5e-7 1 29 57 205 0 59 60 53 .0009
57291666667 0 .0012 18 59 49 61 62 56 63 57 5e-7 1 29 60 202 0 63 64 57 .0015156
25 0 8333333333333e-17 18 63 45 65 66 59 67 60 5e-7 1 29 64 200 0 67 68 60 .0010
29166666667 0 .000792708333333 18 67 43 69 70 63 71 64 5e-7 1 29 68 198 0 71 72
 64 96875e-8 0 85e-5 18 71 41 73 74 67 75 68 5e-7 1 29 72 196 0 75 76 68 871875e
-9 0 .000866666666667 18 75 39 77 78 71 79 72 5e-7 1 29 76 194 0 79 80 72 6875e-
7 0 .000866666666667 18 79 37 81 82 75 83 76 5e-7 1 29 80 192 0 83 84 76 6875e-7
 0 0 18 83 35 85 86 79 87 80 5e-7 1 29 84 190 0 87 88 80 .000257291666667 0 0 18
 87 33 89 90 83 91 84 5e-7 1 29 88 188 0 91 92 84 .000257291666667 0 .0023333333
33333 18 91 31 93 94 87 95 88 5e-7 1 29 92 186 0 95 96 88 .000963541666667 0 .00
2333333333333 18 95 29 97 98 91 99 92 5e-7 1 29 96 184 0 99 100 92 .001366666666
667 0 .002282291666667 18 99 27 101 102 95 103 96 5e-7 1 29 100 182 0 103 104 96
 .00164375 0 .002140625 18 103 25 105 106 99 107 100 5e-7 1 29 104 180 0 107 108
 100 .001803125 0 .001921875 18 107 23 109 110 103 111 104 5e-7 1 29 108 178 0 1
11 112 104 .001854166666667 0 .001641666666667 18 111 21 113 114 107 115 108 5e-
7 1 29 112 176 0 115 116 108 .001819791666667 0 .0014125 18 115 19 117 118 111 1
19 112 5e-7 1 29 116 174 0 119 120 112 .001720833333333 0 .001215625 18 119 17 1
21 122 115 123 116 5e-7 1 29 120 172 0 123 124 116 .001560416666667 0 .001061458
333333 18 123 15 125 126 119 127 120 5e-7 1 29 124 170 0 127 128 120 .00134375 0
 .000957291666667 18 127 13 129 130 123 131 124 5e-7 1 29 128 168 0 131 132 124
 .001420833333333 0 .000902083333333 18 131 11 133 134 127 135 128 5e-7 1 29 132
 166 0 135 136 128 .001484375 0 .000827083333333 18 135 9 137 138 131 139 132 5e
-7 1 29 136 164 0 139 140 132 .001675 0 0 18 139 7 141 142 135 143 136 5e-7 1 29
 140 163 0 143 0 136 .002063541666667 0 0 18 143 6 144 145 139 0 140 5e-7 1 81 1
 144 477 27 143 0 0 141 21 146 17 145 0 0 0 0 143 147 148 0 149 +17 147 0 150 15
1 149 135 145 148 0 0 -16 148 8 152 ?145 153 154 155 0 0 1 17 149 0 150 147 142
 143 156 154 0 0 -15 255 150 4 0 149 17 0 17 142 0 150 149 157 139 66 158 0 156
 -17 156 0 0 0 0 139 149 154 0 0 +16 154 5 159 ?156 148 0 160 0 0 1 81 1 159 507
 27 154 0 0 152 161 162 133 255 160 290 0 154 0 163 0 +163 .002063541666667 0 0
 .001675 0 0 0 .000388541666667 30 255 163 165 0 1 160 155 164 +.002063541666667
 0 0 -1 0 0 133 155 292 0 148 163 165 0 +165 .001484375 0 .000827083333333 .0020
6354166666643 0 -399094819691914e-30 0 .001009703356464358 141 255 164 160 164 1
64 163 30 165 167 0 1 155 166 167 +.001484375 0 .000827083333333 .57360081350474
8 0 -.81913497468164 133 166 296 0 168 165 169 0 +169 .00134375 0 .0009572916666
66999 .001420833333333454 0 .000902083333333496 6.04592528996556 6.2831853071777
5 141 167 155 167 167 165 16 168 12 170 ?134 171 153 166 0 0 1 31 169 171 0 1 16
6 172 173 +.00115069298885871 0 .000606323308344256 0 1 0 .674403571979698 0 .73
8362933861813 .000400561853019692 133 172 314 0 174 169 175 0 +175 .000257291666
667 0 .002333333333333 .000963541666667 0 .002333333333333 0 70625e-8 141 173 16
6 173 173 169 16 174 30 176 ?98 177 178 172 0 0 1 30 175 189 0 1 172 179 180 +.0
00257291666667 0 .002333333333333 1 0 0 133 179 316 0 177 175 181 0 +181 .000257
291666667 0 0 .000257291666667 0 .002333333333333 0 .002333333333333 141 180 172
 180 180 175 16 177 32 182 ?94 183 174 179 0 0 1 30 181 191 0 1 179 184 185 +.00
0257291666667 0 0 0 0 1 133 184 318 0 183 181 186 0 +186 6875e-7 0 0 .0002572916
66667 0 0 0 .000430208333333 141 185 179 185 185 181 16 183 34 187 ?90 188 177 1
84 0 0 1 30 186 193 0 1 184 189 190 +6875e-7 0 0 -1 0 0 133 189 320 0 188 186 19
1 0 +191 6875e-7 0 .000866666666667 6875e-7 0 0 0 .000866666666667 141 190 184 1
90 190 186 16 188 36 192 ?86 193 183 189 0 0 1 30 191 195 0 1 189 194 195 +6875e
-7 0 .000866666666667 0 0 -1 133 194 322 0 193 191 196 0 +196 871875e-9 0 .00086
6666666667 6875e-7 0 .000866666666667 0 184375e-9 141 195 189 195 195 191 16 193
 38 197 ?82 198 188 194 0 0 1 30 196 197 0 1 194 199 200 +871875e-9 0 .000866666
666667 -1 0 0 133 199 328 0 201 196 202 0 +202 .001515625 0 8333333333333e-17 .0
01029166666666684 0 .000792708333332784 0 .000860148010922337 141 200 194 200 20
0 196 16 201 44 203 ?70 158 204 199 0 0 1 30 202 203 0 1 199 205 206 +.001515625
 0 8333333333333e-17 -.565551890088876 0 .824712713383818 133 205 330 0 158 202
 207 0 +207 .001675 0 0 .001515625 0 8333333333333e-17 0 1 141 206 199 206 206 2
02 16 158 46 208 ?66 209 201 205 0 0 1 134 255 207 204 0 1 205 210 211 +212 213
 133 210 334 0 214 207 215 0 +215 6875e-7 0 .0012 .000957291666667 0 .0012 0 .00
0269791666667 141 211 205 211 211 207 136 255 212 3 4 3 2 1 FFF1 216 217 218 135
 255 213 2 0 45 255 12 216 .001675 0 0 .00160138888888933 0 0 .00154826388888933
 0 277777777777767e-19 .001515625 0 8333333333333e-17 127 255 2 217 4 4 128 255
 2 218 0 1 16 214 51 219 ?62 220 209 210 0 0 1 30 215 209 0 1 210 221 222 +6875e
-7 0 .0012 1 0 0 133 221 336 0 220 215 223 0 +223 6875e-7 0 .002 6875e-7 0 .0012
 0 8e-4 141 222 210 222 222 215 16 220 53 224 ?55 225 214 221 0 0 1 30 223 211 0
 1 221 226 227 +6875e-7 0 .002 0 0 -1 133 226 338 0 225 223 228 0 +228 .00096354
1666667 0 .002 6875e-7 0 .002 0 .000276041666667 141 227 221 227 227 223 16 225
 55 229 ?51 230 220 226 0 0 1 30 228 213 0 1 226 231 232 +.000963541666667 0 .00
2 -1 0 0 133 231 340 0 230 228 233 0 +233 .001317708333334 0 .001901041666667 .0
00963541666667 0 .002 0 1 141 232 226 232 232 228 16 230 57 234 ?47 235 225 231
 0 0 1 134 233 215 0 1 231 236 237 +238 239 133 236 342 0 235 233 240 0 +240 .00
1433333333334 0 .001619791666667 .001317708333334 0 .001901041666667 0 1 141 237
 231 237 237 233 136 238 3 4 3 2 1 FFF1 241 242 243 135 239 2 0 45 12 241 .00131
7708333334 0 .001901041666667 .00124062500000067 0 .001967013888889 .00112256944
4445 0 .002 .000963541666667 0 .002 127 2 242 4 4 128 2 243 0 1 16 235 59 244 ?4
3 245 230 236 0 0 1 134 240 217 0 1 236 246 247 +248 249 133 246 390 0 209 240 2
50 0 +250 .000957291666667 0 .0012 .00116875 -601853107621011e-50 .00123125 2602
17512724877e-32 .329832044438732 141 247 236 247 247 240 136 248 3 4 3 2 1 FFF1
 251 252 253 135 249 2 0 45 12 251 .001433333333334 0 .001619791666667 .00143333
3333334 0 .001742013888889 .00139479166666733 0 .001835763888889 .00131770833333
4 0 .001901041666667 127 2 252 4 4 128 2 253 0 1 16 209 48 254 ?255 214 158 246
 0 0 1 31 250 391 0 1 246 256 257 +.000969136141525817 393225660225287e-34 .0018
5091141456432 -895188814102931e-32 -1 605744430875361e-31 -.0181937420337929 -60
4015484728845e-31 -.999834480176998 .0006510191711423 133 256 394 0 245 250 258
 0 +258 .001404166666667 -601853107621011e-50 .001451041666667 .001433333333334
 114352090447992e-48 .00161979166666701 171560500400048e-30 .363306011408481 141
 257 246 257 257 250 16 245 61 259 ?37 23 235 256 0 0 1 31 258 395 0 1 256 260 2
61 +.000959385795690346 2854499338324235e-35 .001614812948894355 -60337722798639
9e-31 -1 104287422122297e-31 .938408361215418 -602248482558491e-31 -.34552821534
7159 .000473973687106302 133 260 398 0 23 258 262 0 +262 .00131770833333348 9957
65966558963e-47 .0013187499999995 .001404166666667 902779661431517e-50 .00145104
1666667 -205702122002549e-26 .454229261061895 141 261 256 261 261 258 16 23 63 2
63 ?32 11 245 260 0 0 1 31 262 399 0 1 260 24 264 +.00107471810323455 2093678484
273945e-35 .001571952604447065 -512567167680679e-31 -1 334984841867914e-31 .6924
06854228884 -596599020655894e-31 -.72150727523488 .000350935622048488 133 24 402
 0 11 262 265 0 +265 .00116875 -150463276905253e-49 .00123125 .00131770833333345
4 -936483435458293e-47 .001318749999999502 0 .416216539777015 141 264 260 264 26
4 262 31 265 403 0 1 24 266 267 +.001036045768549188 250473824164503e-34 .001627
7050706069 -310137525516679e-31 -1 527972216060519e-31 .317416985024177 -5991116
12527905e-31 -.94828606317828 .0004180753951799535 133 266 406 0 153 265 268 0 +
268 .001420833333333444 63074205678682e-46 .000902083333333497 .001484375 0 .000
827083333333 -2094324713652895e-27 .277010971892188 141 267 24 267 267 265 16 15
3 10 269 ?138 168 148 266 0 0 1 31 268 407 0 1 266 270 271 +.001183590304993692
 21589370544408e-33 .00063666881163995 467193068327655e-31 1 3958163495512225e-3
2 .666431082746428 -606459447444137e-31 .745566638168195 .000355990340910579 133
 270 410 0 171 268 272 0 +272 .001560416666667 -601853107621011e-50 .00106145833
3333 .00134375 -1805559322863035e-50 .000957291666667 0 .299945945389045 141 271
 266 271 271 268 16 171 14 273 ?130 274 168 270 0 0 1 31 272 411 0 1 270 275 276
 +.001107406146594898 487091201171297e-34 .001726303548421985 265316321372943e-3
1 1 -551857948460103e-31 .563088149559631 -60545014073993e-30 -.826396839191385
 .000804510839779499 133 275 414 0 274 272 277 0 +277 .00172083333333364 -597038
282760043e-47 .00121562499999952 .001560416666667 1203706215242022e-50 .00106145
8333333 879603038302061e-27 .3286519226621375 141 276 270 276 276 272 16 274 16
 278 ?126 279 171 275 0 0 1 31 277 415 0 1 275 280 281 +.001175766904378314 4107
874621829215e-35 .001622245360759815 4242920857139535e-32 1 -4414931162158335e-3
2 .80153575102353 -604074695340679e-31 -.597946853684461 .00068002759485108 133
 280 418 0 279 277 282 0 +282 .001819791666667 -1203706215242022e-50 .0014125 .0
01720833333333655 580788248854276e-47 .001215624999999524 0 .3246474373385505 14
1 281 275 281 281 277 16 279 18 283 ?122 284 274 280 0 0 1 31 282 419 0 1 280 28
5 286 +.001169221038799786 4119426132200255e-35 .001616198419650135 547098534043
125e-31 1 -2749966176397965e-32 .954314831134694 -604274045788143e-31 -.29880295
02470835 .000681714887626419 133 285 422 0 284 282 287 0 +287 .001854166666667 -
601853107621011e-50 .001641666666667 .001819791666667 -601853107621011e-50 .0014
125 224670062799748e-32 .3085475574317405 141 286 280 286 286 282 16 284 20 288
 ?118 289 279 285 0 0 1 31 287 423 0 1 285 290 291 +.001100153728019286 45622294
7186172e-34 .001637607149130495 605548869550328e-31 1 -908323304324175e-32 .9999
85507216315 -605051069897937e-31 .00538380509766081 .000754023866552505 133 290
 426 0 289 287 292 0 +292 .001803125 0 .001921875 .001854166666667 6018531076210
11e-50 .001641666666667 701952660233371e-48 .383787066540923 141 291 285 291 291
 287 16 289 22 293 ?114 294 284 290 0 0 1 31 292 427 0 1 290 295 296 +.001107515
54512169 448830920422599e-34 .001650412528044835 60241070473772e-30 1 1097328049
53071e-31 .931575295599161 -601084120456459e-31 .363548440554124 .00074670234189
8102 133 295 430 0 294 292 297 0 +297 .00164375 0 .002140625 .001803125 0 .00192
1875 886777164237581e-48 .492719413865859 141 296 290 296 296 292 16 294 24 298
 ?110 299 289 295 0 0 1 31 297 431 0 1 295 300 301 +.001288491272463916 32951710
78260655e-35 .001714360605652285 494902119030064e-31 1 3605715438647605e-32 .640
225238185974 -593835288178441e-31 .768187245656756 .000554896474469953 133 300 4
34 0 299 297 302 0 +302 .001366666666667 0 .002282291666667 .00164375 0 .0021406
25 763561304461329e-48 .41949350127818 141 301 295 301 301 297 16 299 26 303 ?10
6 178 294 300 0 0 1 31 302 435 0 1 300 304 305 +.001172466426055764 447567381393
1525e-35 .0015606543088073 2787473748578355e-32 1 545197071411182e-31 .259865246
638354 -598903521370226e-31 .965644890003353 .000747311320476404 133 304 438 0 1
78 302 306 0 +306 .000963541666667 -1203706215242022e-50 .002333333333333 .00136
6666666667 -361111864572607e-49 .002282291666667 2405583714434885e-33 .289515142
769521 141 305 300 305 305 302 16 178 28 307 ?102 174 299 304 0 0 1 31 306 439 0
 1 304 308 309 +.000990036827302327 853403516031586e-34 .000925137799285449 7691
52428787959e-32 1 607473448866994e-31 -.01881164337889225 -605919051514389e-31 .
999823045380224 .001408444764855392 133 308 442 0 198 306 310 0 +310 96875e-8 -3
009265538105055e-51 85e-5 871875e-9 -3009265538105055e-51 .000866666666667 18281
38718313395e-31 .445670085684942 141 309 304 309 309 306 16 198 40 311 ?78 204 1
93 308 0 0 1 31 310 443 0 1 308 18 312 +.000883536674118902 1328129030909026e-35
 .000644573845403896 -103820681852152e-31 -1 -603457713253562e-31 .3831555511517
83 -597183604297639e-31 .923683833149403 .0002223987767499195 133 18 446 0 204 3
10 8 0 +8 .001029166666667 -150463276905253e-50 .000792708333333 96875e-8 -15046
3276905253e-50 85e-5 927459025377279e-48 .517517262047012 141 312 308 312 312 31
0 16 204 42 313 ?74 201 198 18 0 0 1 81 1 313 489 27 204 0 0 203 311 314 17 74 0
 0 0 0 71 315 204 0 316 +17 315 0 150 157 316 67 74 204 0 0 -17 316 0 150 315 31
7 71 78 198 0 0 -17 317 0 150 316 318 75 82 193 0 0 -17 78 0 0 0 0 75 316 198 0
 317 +17 318 0 150 317 319 79 86 188 0 0 -17 82 0 0 0 0 79 317 193 0 318 +17 319
 0 150 318 320 83 90 183 0 0 -17 86 0 0 0 0 83 318 188 0 319 +17 320 0 150 319 3
21 87 94 177 0 0 -17 90 0 0 0 0 87 319 183 0 320 +17 321 0 150 320 322 91 98 174
 0 0 -17 94 0 0 0 0 91 320 177 0 321 +17 322 0 150 321 323 95 102 178 0 0 -17 98
 0 0 0 0 95 321 174 0 322 +17 323 0 150 322 324 99 106 299 0 0 -17 102 0 0 0 0 9
9 322 178 0 323 +17 324 0 150 323 325 103 110 294 0 0 -17 106 0 0 0 0 103 323 29
9 0 324 +17 325 0 150 324 326 107 114 289 0 0 -17 110 0 0 0 0 107 324 294 0 325
 +17 326 0 150 325 327 111 118 284 0 0 -17 114 0 0 0 0 111 325 289 0 326 +17 327
 0 150 326 328 115 122 279 0 0 -17 118 0 0 0 0 115 326 284 0 327 +17 328 0 150 3
27 329 119 126 274 0 0 -17 122 0 0 0 0 119 327 279 0 328 +17 329 0 150 328 330 1
23 130 171 0 0 -17 126 0 0 0 0 123 328 274 0 329 +17 330 0 150 329 151 127 134 1
68 0 0 -17 130 0 0 0 0 127 329 171 0 330 +17 151 0 150 330 147 131 138 153 0 0 -
17 134 0 0 0 0 131 330 168 0 151 +17 138 0 0 0 0 135 151 153 0 147 +17 157 0 150
 142 315 63 70 201 0 0 -17 70 0 0 0 0 67 157 201 0 315 +80 7 CCCCCDI12 legal_own
ers0 17 1 lCZ1 27 331 332 9000 0 0 0 0 3 5 0 0 0 FFTFTFTTFFFFFFFFF2 81 1 203 488
 27 201 0 0 208 313 333 81 1 311 490 27 198 0 0 313 197 334 83 255 1 314 6597 81
 1 197 491 27 193 0 0 311 192 335 83 1 334 6598 81 1 192 492 27 188 0 0 197 187
 336 83 1 335 6599 81 1 187 493 27 183 0 0 192 182 337 83 1 336 66e2 81 1 182 49
4 27 177 0 0 187 176 338 83 1 337 6601 81 1 176 495 27 174 0 0 182 307 339 83 1
 338 6602 81 1 307 496 27 178 0 0 176 303 340 83 1 339 6603 81 1 303 497 27 299
 0 0 307 298 341 83 1 340 6604 81 1 298 498 27 294 0 0 303 293 342 83 1 341 6605
 81 1 293 499 27 289 0 0 298 288 343 83 1 342 6606 81 1 288 500 27 284 0 0 293 2
83 344 83 1 343 6607 81 1 283 501 27 279 0 0 288 278 345 83 1 344 6608 81 1 278
 502 27 274 0 0 283 273 346 83 1 345 6609 81 1 273 503 27 171 0 0 278 170 347 83
 1 346 6610 81 1 170 504 27 168 0 0 273 269 348 83 1 347 6611 81 1 269 505 27 15
3 0 0 170 152 349 83 1 348 6612 81 1 152 506 27 148 0 0 269 159 350 83 1 349 661
3 83 1 350 6614 81 1 208 487 27 158 0 0 254 203 351 83 1 333 6596 81 1 254 486 2
7 209 0 0 219 208 352 83 1 351 6595 81 1 219 485 27 214 0 0 224 254 353 83 1 352
 6594 81 1 224 484 27 220 0 0 229 219 354 83 1 353 6593 81 1 229 483 27 225 0 0
 234 224 355 83 1 354 6592 81 1 234 482 27 230 0 0 244 229 356 83 1 355 6591 81
 1 244 481 27 235 0 0 259 234 357 83 1 356 6590 81 1 259 480 27 245 0 0 263 244
 358 83 1 357 6589 81 1 263 479 27 23 0 0 21 259 359 83 1 358 6588 81 1 21 478 2
7 11 0 0 144 263 360 83 1 359 6587 83 1 360 6586 79 255 13 332 BTI/importTag17 3
7 0 0 0 0 33 36 245 0 361 +17 36 0 362 31 361 26 37 245 0 0 -17 361 0 362 36 363
 33 43 235 0 0 -15 362 47 0 364 17 150 17 363 0 362 361 365 38 47 230 0 0 -17 43
 0 0 0 0 38 361 235 0 363 +17 365 0 362 363 366 44 51 225 0 0 -17 47 0 0 0 0 44
 363 230 0 365 +17 366 0 362 365 367 48 55 220 0 0 -17 51 0 0 0 0 48 365 225 0 3
66 +17 367 0 362 366 364 52 62 214 0 0 -17 55 0 0 0 0 52 366 220 0 367 +17 364 0
 362 367 30 59 255 209 0 0 -17 62 0 0 0 0 59 367 214 0 364 +17 30 0 362 364 31 5
6 22 11 0 255 -17 255 0 0 0 0 56 364 209 0 0 +17 31 0 362 30 36 12 32 23 0 0 -14
 255 17 3 161 ?0 0 362 6 7 +0 0 0 0 6 81 1 161 508 27 17 0 0 159 368 369 81 1 36
8 509 27 1 370 371 161 0 372 83 1 369 6616 81 1 370 386 373 1 0 368 0 0 374 81 1
 371 510 375 1 368 376 0 0 377 83 1 372 6617 80 1 375 27 378 9000 0 0 0 0 3 5 0
 0 0 FFTFTFTTFFFFFFFFF2 81 1 376 574 379 1 371 14 0 0 380 83 1 377 17325 80 1 37
9 381 382 8040 0 0 0 0 3 5 0 0 0 TTTFFFFFFFFFFFFFF2 81 1 14 575 383 1 376 2 0 0
 384 83 3 380 1 1 1 80 1 383 13 385 8038 0 0 0 0 0 0 0 0 0 TTTTTTTTTTTTTFTFT10 9
8 255 19 384 72 67 45 48 52 83 104 97 112 101 83 116 114 105 110 103 48 48 53 79
 14 385 SDL/TYSA_UNAME79 17 382 SDL/TYSA_COLOUR_279 18 378 BTI/importMaxCount80
 1 373 386 387 9000 0 0 0 0 3 5 0 0 0 TTTFFFFFFFFFFFFFF1 82 255 1 374 34 79 23 3
87 ONSHAPE_ORIGINALBODY_ID17 66 0 0 0 0 63 142 158 0 157 +83 1 162 6615 81 1 141
 476 27 139 0 0 137 144 388 83 1 146 6585 81 1 137 475 27 135 0 0 133 141 389 83
 1 388 6584 81 1 133 474 27 131 0 0 129 137 390 83 1 389 6583 81 1 129 473 27 12
7 0 0 125 133 391 83 1 390 6582 81 1 125 472 27 123 0 0 121 129 392 83 1 391 658
1 81 1 121 471 27 119 0 0 117 125 393 83 1 392 6580 81 1 117 470 27 115 0 0 113
 121 394 83 1 393 6579 81 1 113 469 27 111 0 0 109 117 395 83 1 394 6578 81 1 10
9 468 27 107 0 0 105 113 396 83 1 395 6577 81 1 105 467 27 103 0 0 101 109 397 8
3 1 396 6576 81 1 101 466 27 99 0 0 97 105 398 83 1 397 6575 81 1 97 465 27 95 0
 0 93 101 399 83 1 398 6574 81 1 93 464 27 91 0 0 89 97 400 83 1 399 6573 81 1 8
9 463 27 87 0 0 85 93 401 83 1 400 6572 81 1 85 462 27 83 0 0 81 89 402 83 1 401
 6571 81 1 81 461 27 79 0 0 77 85 403 83 1 402 6570 81 1 77 460 27 75 0 0 73 81
 404 83 1 403 6569 81 1 73 459 27 71 0 0 69 77 405 83 1 404 6568 81 1 69 458 27
 67 0 0 65 73 406 83 1 405 6567 81 1 65 457 27 63 0 0 61 69 407 83 1 406 6566 81
 1 61 456 27 59 0 0 58 65 408 83 1 407 6565 81 1 58 455 27 56 0 0 54 61 409 83 1
 408 6564 81 1 54 454 27 52 0 0 50 58 410 83 1 409 6563 81 1 50 453 27 48 0 0 46
 54 411 83 1 410 6562 81 1 46 452 27 44 0 0 42 50 412 83 1 411 6561 81 1 42 451
 27 38 0 0 34 46 413 83 1 412 6560 81 1 34 450 27 33 0 0 28 42 414 83 1 413 6559
 83 1 414 6558 83 1 35 6557 83 1 29 6556 141 19 18 19 19 8 74 4 CI16 index_map_o
ffset0 0 1 dCCZ20 16 6 0 0 370 368 371 376 14 2 0 0 0 0 0 0 0 0 0 0 0 0 0 0 80 1
 13 415 416 8017 0 0 0 0 0 0 0 0 0 TTTTTTTTTTTTTFTFT3 84 255 19 15 HC-04ShapeStr
ing00579 13 416 SDL/TYSA_NAME1 0 
