**ABCDEFGHIJKLMNOPQRSTUVWXYZabcdefghijklmnopqrstuvwxyz**************************
**PARASOLID !"#$%&'()*+,-./:;<=>?@[\]^_`{|}~0123456789**************************
**PART1;
MC=unknown;
MC_MODEL=unknown;
MC_ID=unknown;
OS=unknown;
OS_RELEASE=unknown;
FRU=Parasolid 37.0.173;
APPL=Onshape;
SITE=unknown;
USER=unknown;
FORMAT=text;
GUISE=transmit;
KEY=BTGapi::writeModels_.xmt;
FILE=BTGapi::writeModels_.xmt;
DATE=2024-12-29T04:00:27 (UTC);
**PART2;
SCH=SCH_3700173_36001;
USFLD_SIZE=0;
**PART3;
**END_OF_HEADER*****************************************************************
T51 : TRANSMIT FILE created by modeller version 370017323 SCH_3700173_36001_1300
6231 0 12 36 CCCI7 lattice222 0 CCCI4 mesh1006 0 I8 polyline1008 0 CCCCCCCDI5 ow
ner1040 0 CCCI16 boundary_lattice222 0 CCCI13 boundary_mesh1006 0 I17 boundary_p
olyline1008 0 CCCA16 index_map_offset0 0 1 dA9 index_map82 0 A17 node_id_index_m
ap82 0 A20 schema_embedding_map82 0 A5 child12 0 A14 lowest_node_id0 0 1 dA16 me
sh_offset_data206 0 Z1 98 2 3 0 0 0 0 0 0 0 1e3 1e-8 0 4 5 1 0 1 2 6 0 7 8 0 0 0
 9 10 0 0 0 0 0 0 0 0 81 255 1 2 98 11 1 12 0 0 0 13 70 11 CI9 list_type0 0 1 uI
10 notransmit0 0 1 lCCCDCCDI12 finger_index0 0 1 dI12 finger_block1012 0 CZ3 0 4
 T1 0 0 6 20 1 14 14 13 255 6 15 0 1 0 15 0 0 16 0 50 255 7 45 0 15 17 0 0 +.013
 .0018 .005 0 -1 0 1 0 0 31 255 8 43 0 10 18 0 0 +.013 .0018 .005 0 -1 0 1 0 0 3
e-4 19 9 CCCCCCI5 frame230 0 CA5 owner12 0 Z9 1 0 1 16 0 19 0 V0 16 255 10 9 20
 ?21 0 22 8 0 0 1 81 1 20 82 23 10 0 0 0 24 25 17 255 21 0 26 21 21 0 27 10 0 0
 +16 22 5 24 ?28 10 0 18 0 0 1 81 1 24 83 23 22 0 0 20 29 30 17 28 0 31 28 28 0
 32 22 0 0 +31 18 40 0 22 0 8 0 +.013 .001 .005 0 -1 0 1 0 0 .001 15 255 31 11 0
 28 33 0 17 32 0 34 32 32 0 28 22 0 0 -15 34 4 0 32 35 0 14 255 35 3 36 ?0 33 26
 6 37 +0 0 0 33 19 81 1 36 86 23 35 0 0 38 39 40 14 33 10 38 ?35 15 31 6 17 +0 0
 35 15 19 15 26 77 0 21 35 34 52 255 37 38 0 35 0 17 0 +.013 .0018 .005 0 -1 0 3
e-4 .658504607868801 .752576694706631 1 0 0 13 19 2 0 0 0 0 0 0 9 15 14 15 12 29
 ?33 0 41 6 7 -0 0 33 0 19 81 1 29 84 23 15 0 0 24 38 42 15 41 13 0 27 15 0 17 2
7 0 41 27 27 0 21 10 0 0 -80 7 CCCCCDI12 legal_owners0 17 1 lCZ1 23 43 44 9000 0
 0 0 0 3 5 0 0 0 FFTFTFTTFFFFFFFFF2 81 1 38 85 23 33 0 0 29 36 45 83 255 1 42 16
445 83 1 45 16446 79 255 13 44 BTI/importTag50 17 44 0 33 37 7 0 +.013 .001 .005
 0 -1 0 1 0 0 81 1 39 87 23 1 46 47 36 0 48 83 1 40 16447 81 1 46 80 49 1 0 39 0
 0 50 81 1 47 88 51 1 39 52 0 0 53 83 1 48 16448 80 1 51 23 54 9000 0 0 0 0 3 5
 0 0 0 FFTFTFTTFFFFFFFFF2 81 1 52 96 55 1 47 12 0 0 56 83 1 53 17325 80 1 55 57
 58 8040 0 0 0 0 3 5 0 0 0 TTTFFFFFFFFFFFFFF2 81 1 12 97 59 1 52 2 0 0 60 83 3 5
6 .690196078431373 .690196078431373 .690196078431373 80 1 59 11 61 8038 0 0 0 0
 0 0 0 0 0 TTTTTTTTTTTTTFTFT10 98 255 13 60 72 67 45 48 52 65 114 114 97 121 48
 48 51 79 14 61 SDL/TYSA_UNAME79 17 58 SDL/TYSA_COLOUR_279 18 54 BTI/importMaxCo
unt80 1 49 62 63 9000 0 0 0 0 3 5 0 0 0 TTTFFFFFFFFFFFFFF1 82 255 1 50 47 79 23
 63 ONSHAPE_ORIGINALBODY_ID83 1 30 16444 83 1 25 16443 19 16 14 0 1 0 9 6 0 S0 7
4 4 CI16 index_map_offset0 0 1 dCCZ20 14 6 0 0 46 39 47 52 12 2 0 0 0 0 0 0 0 0
 0 0 0 0 0 0 80 1 11 64 65 8017 0 0 0 0 0 0 0 0 0 TTTTTTTTTTTTTFTFT3 84 255 13 1
3 HC-04Array00379 13 65 SDL/TYSA_NAME1 0 
