**ABCDEFGHIJKLMNOPQRSTUVWXYZabcdefghijklmnopqrstuvwxyz**************************
**PARASOLID !"#$%&'()*+,-./:;<=>?@[\]^_`{|}~0123456789**************************
**PART1;
MC=unknown;
MC_MODEL=unknown;
MC_ID=unknown;
OS=unknown;
OS_RELEASE=unknown;
FRU=Parasolid 37.0.173;
APPL=Onshape;
SITE=unknown;
USER=unknown;
FORMAT=text;
GUISE=transmit;
KEY=BTGapi::writeModels_.xmt;
FILE=BTGapi::writeModels_.xmt;
DATE=2024-12-29T04:00:27 (UTC);
**PART2;
SCH=SCH_3700173_36001;
USFLD_SIZE=0;
**PART3;
**END_OF_HEADER*****************************************************************
T51 : TRANSMIT FILE created by modeller version 370017323 SCH_3700173_36001_1300
6231 0 12 36 CCCI7 lattice222 0 CCCI4 mesh1006 0 I8 polyline1008 0 CCCCCCCDI5 ow
ner1040 0 CCCI16 boundary_lattice222 0 CCCI13 boundary_mesh1006 0 I17 boundary_p
olyline1008 0 CCCA16 index_map_offset0 0 1 dA9 index_map82 0 A17 node_id_index_m
ap82 0 A20 schema_embedding_map82 0 A5 child12 0 A14 lowest_node_id0 0 1 dA16 me
sh_offset_data206 0 Z1 426 2 3 0 0 0 0 0 0 0 1e3 1e-8 0 4 5 1 0 1 2 6 0 7 8 9 0
 0 10 11 12 0 0 0 0 0 0 0 81 255 1 2 426 13 1 14 0 0 0 15 70 11 CI9 list_type0 0
 1 uI10 notransmit0 0 1 lCCCDCCDI12 finger_index0 0 1 dI12 finger_block1012 0 CZ
3 0 4 T1 0 0 6 20 1 16 16 13 255 6 56 0 1 0 17 0 0 18 0 51 255 7 195 0 17 19 0 0
 +-.003412362891125 -.0027 .006388945271705 1 0 0 3e-4 0 0 -1 137 255 8 309 0 1
 20 0 21 +22 23 0 ?29 255 9 305 0 24 25 0 .00346976640824657 -.003 .008574225769
96086 19 9 CCCCCCI5 frame230 0 CA5 owner12 0 Z10 1 0 1 18 0 26 0 V0 16 255 11 52
 27 ?28 0 29 30 0 0 1 18 255 12 48 31 28 0 32 25 5e-7 1 81 1 31 336 33 12 0 0 0
 34 35 17 255 28 0 36 37 38 12 39 11 0 40 +18 32 40 34 37 12 41 42 5e-7 1 29 25
 190 0 12 42 9 .00343105547105208 -.003 .00638894527605642 29 42 184 0 32 43 25
 -.00344542707501496 -.003 .00638894527610393 29 43 180 0 41 44 42 .003412362891
125 -.0027 .006088945271705 18 41 35 45 39 32 46 43 5e-7 1 29 44 166 0 47 48 43
 -.003412362891125 -.0027 .006088945271705 18 47 18 49 50 51 52 44 5e-7 1 29 48
 170 0 51 53 44 -.00349616301943799 -.003 .0085747766753194 18 51 23 54 55 24 47
 48 5e-7 1 29 53 176 0 46 56 48 .003412362891125 0 .006088945271705 18 46 30 57
 58 41 24 53 5e-7 1 29 56 164 0 52 59 53 -.003412362891125 0 .006088945271705 18
 52 16 60 61 47 62 56 5e-7 1 29 59 160 0 62 63 56 .003469708358841 0 .0088747766
69203 18 62 11 64 65 52 66 59 5e-7 1 29 63 158 0 66 67 59 .003469708358841 -.002
7 .008874776669203 18 66 9 68 69 62 70 63 73487299171918e-20 1 29 67 156 0 70 71
 63 -.00346970841782483 -.0027004123335015 .0088747761024725 18 70 7 72 73 66 74
 67 5e-7 1 29 71 155 0 74 0 67 -.003469708358841 0 .008874776669203 18 74 6 75 7
6 70 0 71 5e-7 1 81 1 75 347 33 74 0 0 72 27 77 17 76 0 78 79 61 74 80 81 0 82 -
15 255 78 28 0 79 83 0 17 79 0 78 84 76 62 82 85 0 86 +17 61 0 78 76 84 52 87 88
 0 89 -17 80 0 90 91 92 52 76 81 0 0 +16 81 15 93 ?80 94 85 95 0 0 1 17 82 0 96
 97 86 74 79 85 0 92 -15 96 4 0 97 98 0 17 97 0 96 99 82 70 92 100 0 0 +17 86 0
 96 82 99 62 101 102 0 0 -16 85 12 103 ?79 81 102 104 0 0 1 17 92 0 90 80 105 74
 97 100 0 0 -15 90 14 0 92 106 0 17 105 0 90 92 91 70 107 108 0 109 -16 100 5 11
0 ?97 111 0 112 0 0 1 81 1 110 367 33 100 0 0 113 114 115 16 111 8 113 ?99 102 1
00 116 0 0 1 133 255 112 247 0 100 0 117 0 +117 -.003469708358841 0 .00887477666
9203 -.003469708358841 -.0027004123335015 .008874776669203 0 .0027004123335015 3
0 255 117 157 0 1 112 116 118 +-.003469708358841 0 .008874776669203 0 -1 0 133 1
16 251 0 111 117 119 0 +119 -.00346970841782483 -.0027 .008874776669203 .0034697
08358841 -.0027 .008874776669203 -589838304067281e-25 .006939416717682 141 255 1
18 112 118 118 117 30 119 159 0 1 116 104 120 +-.003469708358841 -.0027 .0088747
76669203 1 0 0 133 104 255 0 85 119 121 0 +121 -.003469708358841 0 .008874776669
203 .003469708358841 0 .008874776669203 0 .006939416717682 141 120 116 120 120 1
19 30 121 162 0 1 104 95 122 +-.003469708358841 0 .008874776669203 1 0 0 133 95
 257 0 81 121 123 0 +123 -.003469708358840965 0 .0088747766692032 -.003412362891
124915 0 .00608894527170459 1.404770558766744 4.91957830926126 141 122 104 122 1
22 121 31 255 123 165 0 1 95 124 125 +-.003704023945114 0 .007476447438165 0 -1
 0 1 0 0 .001417825247464 133 124 261 0 126 123 127 0 +127 .003412362891125115 0
 .00608894527170598 .003469708358840985 0 .00887477666920322 4.59501153330514 7.
93019552020572 141 125 95 125 125 123 16 126 29 128 ?65 88 129 124 0 0 1 31 127
 177 0 1 124 130 131 +.003576286499283 0 .007479076873523 0 -1 0 1 0 0 .00139976
3129848 133 130 263 0 102 127 132 0 +132 .003469708358841 0 .008874776669203 .00
3469708358841 -.0027 .008874776669203 0 .0027 141 131 124 131 131 127 16 102 10
 133 ?101 85 111 130 0 0 1 30 132 161 0 1 130 134 135 +.003469708358841 0 .00887
4776669203 0 -1 0 133 134 267 0 136 132 137 0 +137 -.00346970845315 -.0027008246
67003 .008874775535742 -.003496163024352 -.003 .008574776679098 0 1 141 135 130
 135 135 132 16 136 22 138 ?139 140 108 134 0 0 1 134 255 137 171 0 1 134 141 14
2 +143 144 133 141 269 0 108 137 145 0 +145 -.003469708323841495 -.0027 .0088747
766633384 -.003412362891124915 -.0027 .00608894527170459 6.28318528214983 9.7979
9305767384 141 142 134 142 142 137 136 255 143 6 176 3 36 1 FFF1 146 147 148 135
 255 144 2 0 45 255 528 146 -.00346970845315 -.002700824667003 .008874775535742
 -.003469708990309 -.002703173215988 .008874769079814 -.003469711363176 -.002705
521617009 .008874740561212 -.003469715571341 -.002707869229332 .008874689985084
 -.003469721612222 -.002710215417347 .008874617383988 -.003469729481062 -.002712
559550565 .008874522817888 -.003469748931534 -.002717259548679 .008874289080419
 -.003469760539889 -.002719615376766 .008874149587986 -.003469773988879 -.002721
967849095 .008873987986594 -.003469789269332 -.002724316340857 .008873804391865
 -.003469806370027 -.002726660241217 .008873598945316 -.003469844309238 -.002731
352989303 .008873143195164 -.003469865171581 -.002733701770906 .008872892605569
 -.003469887851157 -.002736044690222 .008872620216587 -.003469912332634 -.002738
381160847 .008872326221581 -.00346993859891 -.002740710617882 .008872010836265 -
.003469994930693 -.002745376564891 .008871334551147 -.003470025030142 -.00274771
291151 .008870973244736 -.003470056910033 -.002750040999656 .008870590624525 -.0
03470090549546 -.002752360298364 .008870186953201 -.003470125926464 -.0027546703
03834 .008869762511087 -.003470200563927 -.002759299056428 .00886886721095 -.003
470239866975 -.00276161756264 .008868395845108 -.003470280901841 -.0027639255646
68 .008867903807614 -.003470323643073 -.002766222599796 .008867391419734 -.00347
0368064255 -.002768508236001 .008866859014986 -.003470460892303 -.00277308949443
3 .008865746708658 -.003470509348451 -.002775384765619 .00886516622039 -.0034705
59477854 -.002777667467087 .008864565835431 -.003470611251389 -.002779937212512
 .008863945921594 -.00347066463941 -.002782193647668 .008863306853417 -.00347077
551488 -.002786717228645 .00886198003224 -.003470833056524 -.002788983908452 .00
8861291636983 -.003470892204974 -.00279123615188 .008860584226999 -.003470952928
419 -.002793473652597 .00885985820436 -.00347101519494 -.002795696135905 .008859
113972602 -.003471143946689 -.002800151994058 .008857575603325 -.003471210489223
 -.002802384789981 .008856780790532 -.00347127856628 -.002804601490107 .00885596
7926157 -.003471348144292 -.002806801867721 .0088551374348 -.003471419189954 -.0
02808985725797 .008854289737836 -.003471565618916 -.002813363974187 .00885254325
4919 -.003471641060985 -.002815557680299 .008851643781208 -.003471717961376 -.00
2817733838011 .008850727275971 -.003471796285603 -.002819892296694 .008849794175
743 -.003471875999758 -.002822032932412 .008848844909922 -.003472039878946 -.002
82632386244 .008846894207271 -.003472124102787 -.002828473378925 .00884589208792
9 -.00347220970653 -.002830604093956 .008844873992348 -.003472296655498 -.002832
715927185 .008843840359907 -.003472384915827 -.002834808821329 .008842791619758
 -.003472565990302 -.002839002922338 .008840641041842 -.003472658862119 -.002841
103271934 .00883953854136 -.003472753034646 -.002843183754474 .00883842113663 -.
003472848473598 -.00284524435264 .008837289262404 -.003472945145688 -.0028472850
68287 .008836143340928 -.003473143132498 -.002851373046989 .008833797673184 -.00
347324450283 -.002853419388741 .00883259729535 -.003473347095077 -.0028554449701
56 .008831383086724 -.00347345087581 -.002857449828973 .008830155471556 -.003473
555812716 -.002859434018212 .008828914860064 -.003473770400819 -.002863406817981
 .008826379318513 -.003473880104879 -.002865394458781 .008825083796383 -.0034739
90953366 -.002867360601628 .008823775506304 -.003474102914054 -.002869305331164
 .008822454857623 -.003474215955898 -.002871228743622 .00882112224477 -.00347444
6806071 -.002875077563611 .008818402464767 -.003474564664033 -.002877001968044 .
008817014750722 -.003474683590926 -.002878904275518 .008815615311727 -.003474803
555961 -.002880784609649 .008814204539112 -.00347492452956 -.002882643102278 .00
881278280894 -.003475171274307 -.002886359416273 .008809884833033 -.003475297091
553 -.002888216215189 .00880840808899 -.003475423904696 -.002890050440113 .00880
6920636374 -.003475551684542 -.002891862246189 .008805422846475 -.00347568040309
8 -.002893651793814 .008803915075383 -.003475942646562 -.002897227368734 .008800
845340251 -.003476076213869 -.002899012366913 .008799282928041 -.003476210706813
 -.00290077442034 .008797710792281 -.003476346097877 -.002902513708881 .00879612
928308 -.003476482360714 -.002904230415094 .008794538735727 -.003476759678589 -.
002907657329027 .008791304058221 -.003476900772284 -.00290936651219 .00878965953
0094 -.0034770427243 -.00291105247166 .008788006229002 -.003477185508827 -.00291
2715405923 .008786344483425 -.003477329101171 -.002914355514012 .008784674607632
 -.003477621040633 -.002917626173701 .008781282169913 -.003477769422701 -.002919
255715058 .008779559259132 -.003477918598787 -.002920861832524 .008777828489726
 -.003478068544771 -.002922444737832 .008776090168639 -.003478219237587 -.002924
004641495 .008774344589365 -.003478525317227 -.002927111799186 .008770801923203
 -.003478680735399 -.002928658065631 .008769004534633 -.003478836886281 -.002930
180775072 .008767200164722 -.003478993747397 -.0029316801478 .008765389099361 -.
003479151297258 -.002933156401479 .008763571611853 -.003479471007037 -.002936093
171069 .008759886582086 -.003479633194851 -.002937552729102 .008758018782762 -.0
03479796056987 -.002938988653794 .008756144842228 -.003479959572545 -.0029404011
69962 .008754265026097 -.003480123721537 -.002941790498682 .008752379588303 -.00
348045652276 -.002944550371098 .008748560375534 -.003480625199613 -.002945919992
494 .008746626385117 -.003480794495198 -.00294726595195 .008744687056902 -.00348
0964390109 -.00294858847535 .008742742637192 -.003481134865771 -.002949887783989
 .008740793361537 -.003481480191077 -.002952464641752 .00873684844408 -.00348165
5062268 -.002953741309 .00873485262519 -.00348183049925 -.002954994325545 .00873
2852235987 -.003482006484012 -.002956223915394 .008730847504555 -.00348218299930
5 -.002957430297338 .008728838649151 -.003482540252687 -.002959818428262 .008724
776784297 -.003482721009462 -.00296099933975 .008722723632681 -.003482902281562
 -.002962156644716 .008720666643331 -.003483084052273 -.002963290562794 .0087186
0602729 -.003483266305569 -.002964401307951 .008716541986662 -.003483634862427 -
.002966595417946 .008712372191294 -.003483821182027 -.002967677992882 .008710266
325804 -.003484007968776 -.002968737032408 .008708157321429 -.003484195207156 -.
002969772749665 .008706045373373 -.003484382882265 -.002970785351827 .0087039306
68763 -.003484762089486 -.00297278057677 .00869966219938 -.003484953635207 -.002
973762459807 .008697508351755 -.003485145602003 -.002974720900217 .0086953520316
12 -.003485337975445 -.002975656102852 .008693193419533 -.003485530741657 -.0029
76568266406 .008691032688835 -.003485919917748 -.002978360183041 .00868667502102
6 -.003486116339021 -.002979239248585 .008684478025474 -.0034863131372 -.0029800
94981333 .008682279192574 -.003486510298844 -.002980927576314 .008680078689486 -
.003486707811001 -.002981737222297 .008677876676876 -.00348710624626 -.002983321
858153 .008673439484287 -.003487307178747 -.00298409621432 .008671204266869 -.00
3487508445686 -.002984847360478 .008668967817357 -.003487710034518 -.00298557548
0516 .008666730290673 -.00348791193312 -.002986280752026 .008664491835965 -.0034
88318889865 -.002987654594322 .008659984968829 -.003488523955593 -.0029883225865
16 .008657716536639 -.003488729314835 -.00298896750079 .008655447448972 -.003488
93495582 -.002989589508754 .008653177849661 -.003489140867153 -.002990188775727
 .008650907877443 -.003489555580019 -.002991348779239 .008646341340697 -.0034897
64387532 -.002991908993328 .008644044770867 -.003489973448951 -.002992446267594
 .008641748094796 -.003490182753193 -.002992960760366 .00863945144635 -.00349039
2289502 -.002993452623715 .00863715495493 -.0034908139658 -.002994396217603 .008
63253888599 -.003491026110362 -.002994847482662 .008630219314517 -.0034912384703
63 -.002995275949 .008627900159909 -.003491451035315 -.00299568176077 .008625581
547151 -.003491663795002 -.002996065055908 .008623263597354 -.003492091615172 -.
00299679014947 .008618608243582 -.003492306679006 -.002997131540077 .00861627085
4012 -.003492521920769 -.002997450273296 .008613934379523 -.003492737330471 -.00
299774647829 .008611598937278 -.003492952898348 -.002998020278042 .0086092646411
27 -.003493386016491 -.002998525265393 .008604580337054 -.003493603569074 -.0029
98756103449 .008602230349015 -.003493821262847 -.002998964423094 .00859988175064
4 -.003494039088225 -.002999150337743 .008597534652318 -.00349439582245982 -.002
99941814412364 .00859369557861297 -.003494752859371 -.002999626483963 .008589861
09271 -.003494891807203 -.002999698563492 .008588370016125 -.0034950307961 -.002
99976169352 .008586879687781 -.003495169823723 -.002999815898183 .00858539013400
8 -.003495382217626 -.002999885089057 .008583116346132 -.003495455585423 -.00299
9906511233 .008582331236461 -.003495528990301 -.002999925466855 .008581546061426
 -.003495602431413 -.00299994195568 .008580760830714 -.003495675907912 -.0029999
55977515 .008579975554012 -.00349583224364 -.00299998055087 .008578305430794 -.0
0349588892725 -.002999986285209 .008577700690032 -.003495958364756 -.00299999462
0236 .008576957669214 -.003496050470514 -.003000000375006 .008575977783326 -.003
496140045072 -.00299999989407 .00857501977914 -.003496163024352 -.003 .008574776
679098 127 255 36 147 7 5 5 5 5 5 5 5 5 5 5 5 5 5 5 5 5 5 5 5 5 5 5 5 5 5 5 5 5
 5 5 5 4 5 5 7 128 255 36 148 0 .02242674001339 .04501718937891 .06775565753107
 .09071101135099 .113948601161 .137529430339 .161509533486 .18593955749 .2108645
23644 .236323739963 .262350830305 .288973848646 .316215451184 .344093104156 .372
619310448 .40180184259 .431643973566 .462144699748 .493298952518 .525097796792 .
557528615794 .590575282278 .624218316954 .658435035247 .693199683791 .7284835682
12 .764255173889 .800480281438 .83712207875 .874141271463 .911496193797 .9491429
21769 .973115949497 .985757169111 1 16 108 19 149 ?107 136 94 141 0 0 1 31 145 1
68 0 1 141 150 151 +-.003704023945114 -.0027 .007476447438165 0 -1 0 .1652640808
1093 0 .986249351631583 .001417825247464 133 150 273 0 94 145 152 0 +152 -.00341
2362891125 0 .006088945271705 -.003412362891125 -.0027 .006088945271705 0 .0027
 141 151 141 151 151 145 16 94 17 153 ?91 108 81 150 0 0 1 30 152 167 0 1 150 15
4 155 +-.003412362891125 0 .006088945271705 0 -1 0 133 154 275 0 88 152 156 0 +1
56 -.003412362891125 0 .006088945271705 .003412362891125 0 .006088945271705 0 .0
0682472578225 141 155 150 155 155 152 16 88 31 157 ?87 158 126 154 0 0 1 30 156
 178 0 1 154 159 160 +-.003412362891125 0 .006088945271705 1 0 0 133 159 277 0 1
58 156 161 0 +161 .003412362891125 0 .006088945271705 .003412362891125 -.0027 .0
06088945271705 0 .0027 141 160 154 160 160 156 16 158 34 162 ?163 164 88 159 0 0
 1 30 161 181 0 1 159 165 166 +.003412362891125 0 .006088945271705 0 -1 0 133 16
5 281 0 140 161 167 0 +167 -.00349616301943799 -.003 .008574776669203 .003469766
40824657 -.003 .008574776669203 -264546605969903e-19 .00693947476708757 141 166
 159 166 166 161 16 140 24 168 ?169 129 136 165 0 0 1 30 167 173 0 1 165 170 171
 +-.003469708358841 -.003 .008574776669203 1 0 0 133 170 283 0 172 167 173 0 +17
3 -.00349616301891757 -.003 .00857477667806928 -.00344542707603365 -.003 .006388
94528038793 6.26217123518631 9.82425779301178 141 171 165 171 171 167 16 172 41
 174 ?175 176 177 170 0 0 1 31 173 186 0 1 170 178 179 +-.003704023945114 -.003
 .007476447438165 0 -1 0 .16526408081093 0 .986249351631583 .001117825247464 133
 178 289 0 29 173 180 0 +180 .00346982003353324 -.003 .00857367444041406 .003431
05547162743 -.003 .0063889452803751 6.26243879633041 9.63343535596123 141 179 17
0 179 179 173 16 29 49 181 ?40 11 182 178 0 0 1 31 180 192 0 1 178 183 184 +.003
576286499283 -.003 .007479076873523 0 1 0 -.0761401255467243 0 .997097127305926
 .001099763129848 133 183 291 0 164 180 185 0 +185 .003469708358840985 -.0027 .0
0887477666920322 .003412362891125115 -.0027 .00608894527170597 204658426069624e-
27 3.33518398690078 141 184 178 184 184 180 16 164 36 186 ?187 177 158 183 0 0 1
 31 185 182 0 1 183 188 189 +.003576286499283 -.0027 .007479076873523 0 1 0 -.07
61401255467243 0 .997097127305926 .001399763129848 133 188 295 0 177 185 190 0 +
190 -.00341236289112388 -.0027 .00608894527170481 -.00344542707060362 -.003 .006
38894527661868 0 .999999959417787 141 189 183 189 189 185 16 177 39 191 ?192 172
 164 188 0 0 1 134 190 185 0 1 188 193 194 +195 196 133 193 297 0 176 190 197 0
 +197 -.003412362891125 -.0027 .006088945271705 .003412362891125 -.0027 .0060889
45271705 0 .00682472578225 141 194 188 194 194 190 136 195 3 109 3 37 1 FFF1 198
 199 200 135 196 2 0 45 327 198 -.00341236289112388 -.0027 .00608894527170481 -.
00341236289107532 -.00270465748016039 .00608894527171502 -.00341237418130099 -.0
0270931494322351 .0060890538719607 -.00341239667823729 -.00271395961714799 .0060
8927023255551 -.00341241952969466 -.00271867748480479 .00608949000269848 -.00341
245394339288 -.00272338212183734 .00608982095120316 -.00341249966305511 -.002728
06074730878 .00609026049730128 -.00341254568890475 -.00273277070582497 .00609070
298706685 -.00341260317104672 -.00273745427437 .00609125551769577 -.003412671695
2872 -.00274209957534626 .00609191391686891 -.0034127408942113 -.002746790613546
28 .00609257879858225 -.00341282135159321 -.00275144260674973 .00609335162228717
 -.00341291251495749 -.0027560449315584 .00609422682021827 -.00341300483990813 -
.00276070589832019 .00609511316975603 -.00341310814298241 -.00276531591252601 .0
0609610449463442 -.00341322175748478 -.00276986585377728 .00609719407209118 -.00
341333711362541 -.00277448554274199 .00609830035207926 -.00341346309729124 -.002
77904330191809 .00609950789533772 -.00341359895358117 -.00278353165611204 .00610
08090844127 -.00341373719746951 -.00278809889062386 .00610213314115886 -.0034138
8566175442 -.00279259426620164 .00610355414119122 -.0034140435291186 -.002797011
99708038 .00610506383091915 -.00341420446898619 -.00280151570832185 .00610660290
307756 -.00341437517953192 -.00280593873604088 .00610823413086232 -.003414554804
97259 -.0028102769469723 .00610994886497799 -.00341473820176049 -.00281470624132
542 .00611169960099699 -.00341493089011995 -.00281904713664679 .0061135373705887
1 -.00341513199684261 -.00282329705430358 .00611545334056224 -.00341533756569795
 -.00282764126864131 .00611741182185574 -.00341555192943566 -.0028318904418844 .
00611945200014547 -.0034157742150458 -.00283604341120384 .00612156503633199 -.00
341600162702667 -.00284029215667524 .00612372680354909 -.00341623732967427 -.002
84444022858104 .00612596481966317 -.00341648046430117 -.00284848771759965 .00612
827038276827 -.0034167293480867 -.0028526309134976 .00613063046319236 -.00341698
601900449 -.00285666873150378 .00613306131793847 -.00341724964349114 -.002860602
34404811 .00613555449230223 -.00341751958695316 -.00286463024373956 .00613810742
70759 -.00341779682113423 -.00286854889896908 .00614072570279855 -.0034180805454
2133 -.00287236039308035 .00614340119236835 -.00341837109702376 -.00287626360395
092 .00614614106278874 -.00341866845486205 -.00288005444875753 .0061489409339151
5 -.00341897185656819 -.00288373575892064 .00615179306131274 -.00341928252652352
 -.00288750525803936 .00615471351387864 -.00341959953358649 -.00289115992387216
 .00615768875833495 -.0034199221568348 -.00289470318544782 .00616071146707345 -.
00342025241805897 -.00289833033231845 .00616380573722753 -.00342058856485847 -.0
0290184074765054 .00616694974883107 -.00342092991930819 -.00290523832226946 .006
17013660854911 -.00342127920815962 -.00290871486970358 .00617339754325057 -.0034
216339499657 -.00291207327779586 .00617670334511642 -.00342199351004389 -.002915
31777878622 .00618004755956177 -.00342236122689081 -.00291863588262017 .00618346
76388916 -.00342273398354814 -.00292183485891528 .00618692789785755 -.0034231111
8786103 -.00292491917612371 .00619042231531983 -.00342349669751236 -.00292807140
426903 .00619399367336495 -.00342388685330364 -.00293110387325255 .0061976007153
96 -.00342428110418998 -.00293402119681936 .00620123784127317 -.0034246837362085
 -.00293700053793705 .00620495228652681 -.00342509063975029 -.00293985978933653
 .00620869811305483 -.00342550130295584 -.00294260363215187 .006212470124257 -.0
034259203518847 -.00294540350410827 .00621631915975029 -.00342634331605336 -.002
94808320832848 .00622019546489124 -.00342676972053134 -.0029506474270091 .006224
09422580662 -.00342720444608546 -.00295326168517098 .00622806906914632 -.0034276
4274797686 -.0029557559078887 .00623206725773363 -.00342808418576247 -.002958134
72219503 .00623608433752833 -.00342853381297115 -.00296055766755989 .00624017594
099775 -.00342898669392131 -.00296286088341687 .00624428714736031 -.003429442420
09093 -.00296504889408005 .00624841383839925 -.00342990613943571 -.0029672752811
9308 .0062526129092279 -.00343037280506445 -.00296938238654746 .0062568280166705
7 -.00343084203779919 -.00297137459150785 .00626105535386761 -.00343131900539341
 -.00297339963608981 .00626535237473503 -.00343179862570864 -.00297530596077741
 .00626966203562591 -.00343228054634681 -.0029770977698882 .0062739808166615 -.0
0343276988406164 -.00297891715612372 .00627836606658744 -.00343326159367882 -.00
298061847419996 .00628276072297929 -.00343375534694831 -.00298220572235802 .0062
871615290502 -.00343425614269635 -.00298381560967978 .00629162510449247 -.003434
75904100478 -.00298530814917606 .00629609500938347 -.00343526373525455 -.0029866
8710801077 .0063005682266044 -.00343577504326153 -.0029880841373881 .00630510006
302437 -.00343628819477153 -.00298936458896622 .00630963530194862 -.003436802902
29226 -.00299053197706698 .00631417114314713 -.00343732374345934 -.0029917132766
5235 .00631876103687968 -.00343784617817699 -.00299277880120727 .006323351549928
17 -.00343836993565596 -.00299373179297444 .00632794007687663 -.0034388992980671
3 -.00299469498307663 .00633257770743402 -.00343943001194663 -.00299554321824507
 .00633721331156375 -.00343996182092919 -.00299627945134515 .00634184445737414 -
.00344049866038197 -.00299702264859743 .0063465194099683 -.00344103661598268 -.0
0299765171421546 .00635118982171961 -.00344157544348786 -.00299816929573801 .006
35585341350525 -.00344211868420296 -.0029986911164575 .00636055520194806 -.00344
266281137866 -.00299909961888876 .00636525006030498 -.0034432075906275 -.0029993
9713021467 .0063699358419597 -.00344357290616678 -.00299959663397825 .0063730780
1166572 -.00344393851522672 -.00299974622027609 .00637621610359071 -.00344430435
029193 -.00299984649632152 .00637934950994711 -.003444487651813 -.00299989673959
616 .006380919502017 -.00344467119347404 -.00299993465193249 .00638248988870692
 -.00344485495409343 -.00299996022865325 .00638406047628555 -.00344503583690929
 -.00299998540482695 .00638560646750347 -.00344524604623962 -.00299999761846228
 .00638739980628874 -.00344536083341009 -.00299999946622678 .00638837933618435 -
.00344538956412854 -.00299999992871402 .00638862450816245 -.00344541230085215 -.
00299999999999792 .00638881869967478 -.00344542707060362 -.003 .0063889452766186
8 127 37 199 4 3 3 3 3 3 3 3 3 3 3 3 3 3 3 3 3 3 3 3 3 3 3 3 3 3 3 3 3 3 3 3 3 3
 3 3 4 128 37 200 0 .02197666495505 .04429965220495 .06677213788399 .08946588567
529 .112448792913 .135784013541 .159529337637 .183736806584 .208452526314 .23371
6635572 .25956338799 .286021312422 .313113422907 .340857456366 .369266122042 .39
834735147 .428104541492 .458536785647 .489639091301 .521402581352 .553814680374
 .586859285755 .620516924869 .654764899634 .689577419992 .724925728013 .76077821
4368 .797100529021 .833855688005 .87100417822 .908504062225 .946311085079 .97166
3542927 .984366382344 .996870287537494 .999999959417787 16 176 44 201 ?38 182 17
2 193 0 0 1 30 197 188 0 1 193 30 202 +-.003412362891125 -.0027 .006088945271705
 1 0 0 133 30 299 0 11 197 203 0 +203 .00341236289112481 -.0027 .006088945271706
01 .0034310554678845 -.003 .00638894527626352 0 .999999962865772 141 202 193 202
 202 197 134 203 194 0 1 30 204 205 +206 207 133 204 301 0 182 203 208 0 +208 -.
00344542707501496 -.003 .006388945271705 .00343105547105208 -.003 .0063889452717
05 -330641838899603e-19 .00684341836217708 141 205 30 205 205 203 136 206 3 109
 3 37 1 FFF1 209 210 211 135 207 2 0 45 327 209 .00341236289112481 -.0027 .00608
894527170601 .00341236289109562 -.00270465724580106 .00608894527170945 .00341236
927041746 -.00270931447712738 .00608905385024666 .00341238198570157 -.0027139596
1736202 .00608927023256679 .00341239489746656 -.00271867653587998 .0060894899584
9995 .00341241434232649 -.00272338095667832 .00608982084173334 .003412440187007
 -.00272806074777719 .00609026049734655 .00341246618942692 -.0027327691013284 .0
0609070283633647 .00341249866925893 -.00273745249834587 .00609125526595897 .0034
1253741033589 -.00274209957623392 .00609191391699592 .00341257649985022 -.002746
78844995514 .00609257849194237 .00341262196270799 -.00275144032970089 .006093351
18925165 .00341267350914682 -.00275604493302461 .00609422682049837 .003412725657
38738 -.00276070329482879 .00609511267468983 .00341278403089924 -.00276531325907
213 .00609610385917482 .00341284827793513 -.00276986585597322 .00609719407261834
 .00341291343059387 -.0027744826260415 .0060982996536534 .00341298462229974 -.00
277904039712211 .00609950705317707 .00341306145216906 -.00278353165917862 .00610
080908530307 .00341313952843606 -.00278809578220262 .00610213224007104 .00341322
342610814 -.0027925912248009 .00610355310177111 .00341331270821468 -.00279701200
114534 .00610506383230965 .00341340360071842 -.00280151251581675 .00610660181216
285 .00341350007260714 -.00280593565598885 .00610823291333953 .00341360166324239
 -.00281027695214942 .00610994886702557 .00341370523841498 -.00281470305400444 .
00611169834126368 .00341381413340675 -.00281904409649323 .00611353599989261 .003
41392787512055 -.0028232970606893 .00611545334344244 .00341404397382773 -.002827
63815621511 .00611741041881903 .00341416512153 -.00283188750096493 .006119450503
65329 .00341429084229863 -.00283604341887542 .00612156504023655 .003414419280624
84 -.00284028917036199 .00612372528426329 .00341455249136475 -.00284443742891109
 .00612596322470843 .00341469000367256 -.00284848772661419 .00612827038790445 .0
0341483057375882 -.00285262808835009 .00613062885410015 .00341497563852802 -.002
85666610049222 .00613305965014447 .00341512473844824 -.0028606023544397 .0061355
5449888975 .0034152772093053 -.00286462760148252 .00613810575261174 .00341543389
967074 -.00286854645233243 .0061407239851026 .00341559436599746 -.00287236040485
879 .00614340120063753 .00341575848423863 -.00287626115583472 .00614613934460721
 .00341592655223023 -.0028800521932658 .00614893918612741 .00341609814570903 -.0
0288373577207046 .00615179307150185 .00341627363619158 -.00288750300743684 .0061
5471177054002 .00341645281417541 -.00289115785973623 .00615768699706125 .0034166
3527683522 -.00289470319992615 .00616071147942605 .00341682184318923 -.002898328
27693456 .00616380398420575 .00341701184376144 -.00290183887049644 .006166947987
63806 .00341720489835479 -.00290523833800567 .0061701366233105 .0034174022234085
4 -.00290871300337003 .00617339579313651 .00341760273927436 -.00291207158022442
 .00617670159483342 .0034178060888287 -.00291531779568049 .00618004757697651 .00
341801383494958 -.00291863419669616 .00618346590170817 .00341822453882947 -.0029
2183333169681 .00618692616694062 .00341843786628134 -.00292491919404728 .0061904
2233562787 .00341865567562788 -.00292806988870093 .00619399195693307 .0034188762
2017779 -.00293110250621029 .00619759901031262 .0034190991880989 -.0029340212156
1376 .00620123786470603 .00341932668281992 -.00293699918203246 .0062049505968379
8 .00341955670055516 -.00293985857197949 .00620869643865747 .00341978895094422 -
.00294260365162945 .00621247015103441 .00342002573332495 -.00294540229708032 .00
621631750132051 .00342026483658307 -.00294808213028586 .0062201938247572 .003420
50599072025 -.00295064744695339 .00622409425613219 .00342075164329679 -.00295326
061650716 .00622806744534687 .00342099942421212 -.00295575495919318 .00623206565
447277 .00342124908256777 -.00295813474236167 .00623608437158478 .00342150316822
28 -.00296055672725222 .00624017435434184 .00342175919871778 -.00296286005467384
 .00624428558288516 .00342201694091038 -.00296504891419885 .00624841387634545 .0
0342227900296313 -.00296727445986731 .00625261136162199 .00342254283477733 -.002
96938166901886 .00625682649242231 .00342280821957886 -.0029713746112841 .0062610
5539583431 .00342307778188321 -.00297339892505927 .00626535086770024 .0034233489
4661923 -.00297530534640473 .00626966055277926 .0034236215119839 -.0029770977890
0477 .00627398086274063 .00342389807902229 -.00297891654738582 .0062783646014169
9 .00342417608825207 -.00298061795557593 .00628275928258518 .00342445535140856 -
.00298220574048262 .0062871615793052 .00342473840843306 -.00298381509589092 .006
29162368245621 .00342502275380207 -.00298530771949705 .00629609361252488 .003425
30821138186 -.00298668712479506 .00630056828105339 .00342559722458274 -.00298808
371177928 .00630509868544913 .00342588737797696 -.00298936424194878 .00630963394
98345 .00342617850618131 -.00299053199215493 .00631417120177158 .003426472922892
33 -.00299171293295644 .0063187597052983 .00342676833665018 -.00299277853100503
 .00632335024402059 .00342706459146815 -.00299373180599994 .00632794013959349 .0
0342736384042679 -.00299469471540168 .00633257642358677 .0034276639476156 -.0029
9554301933555 .00633721205363655 .00342796476508382 -.00299627946194388 .0063418
4452404488 .00342826825674143 -.00299702245133631 .00634651817591561 .0034285724
7147833 -.00299765158128213 .00635118861389148 .00342887726803966 -.002998169303
55682 .00635585348395686 .00342918439498296 -.00299869098417886 .006360554020202
58 .00342949211280168 -.00299909954670609 .00636524890511552 .00342980028567195
 -.00299939713491298 .00636993591595929 .00343000684940698 -.00299959660390408 .
00637307755028029 .0034302136177463 -.00299974620657566 .00637621565057383 .0034
3042055150214 -.0029998464987599 .00637934958614275 .00343052421809712 -.0029998
9674164657 .00638091957856858 .00343062802126831 -.00299993465358933 .0063824899
6560886 .00343073194905087 -.0029999602299111 .00638406055352785 .00343083440803
563 -.00299998544476605 .00638560894453253 .00343095361929996 -.0029999976374263
5 .0063874038353602 .00343101839047629 -.00299999947277551 .00638838281571289 .0
034310344895346 -.00299999992895671 .00638862614403691 .00343104721624666 -.0029
9999999999808 .00638881906764975 .0034310554678845 -.003 .00638894527626352 127
 37 210 4 3 3 3 3 3 3 3 3 3 3 3 3 3 3 3 3 3 3 3 3 3 3 3 3 3 3 3 3 3 3 3 3 3 3 3
 4 128 37 211 0 .02238927280721 .04512451225601 .06799851306819 .09107824271576
 .114427426887 .138105739934 .162168182158 .18666464292 .211639633432 .237132163
952 .263175736439 .289798424176 .317023012964 .344867182641 .373343712211 .40246
069594 .432221761343 .462626282813 .493669586876 .525343146743 .557634765034 .59
052874449 .624006047081 .658044442383 .692618646411 .72770045229 .763258854304 .
799260166974 .835668140885 .872444077067 .909546941799 .946933483771 .9719931320
88 .984547141954 .996923727635259 .999999962865772 16 182 47 212 ?213 29 176 204
 0 0 1 30 208 191 0 1 204 214 215 +-.003412362891125 -.003 .006388945271705 1 0
 0 133 214 306 0 216 208 217 0 +217 .003469708358840985 -.0027 .0088747766692032
2 .003469708358843895 -.002999999478166125 .00857422577085996 0 1 141 215 204 21
5 215 208 17 216 0 218 40 69 24 219 129 214 169 +137 217 307 0 1 214 20 220 +19
 221 0 ?133 20 308 0 219 217 8 0 +8 .003469708358841 -.002999999494184655 .00857
42257708897 .003469708358841 -.0027 .008874776669203 0 1 141 220 214 220 220 217
 54 255 19 193 0 222 223 7 224 +.003576286499283 -.0027 .007479076873523 0 -1 0
 .001099763129848 3e-4 .999843088459248 0 -.0177143574614798 134 221 0 0 0 0 0 0
 +225 226 136 225 2 3 2 2 5 FFF1 227 228 229 135 226 2 0 45 6 227 1.664725497074
81 0 1.66472549707481 .785060397729032 1.685524516756175 1.56893114758053 127 2
 228 3 3 128 2 229 0 1 14 255 222 50 230 ?231 17 218 6 19 +0 0 231 17 26 50 255
 223 189 0 231 232 19 0 +-.003469708358841 -.003 .008874776669203 0 -1 0 1 0 0 1
41 224 217 224 224 19 14 231 45 233 ?234 222 235 6 223 +0 0 234 222 26 50 232 18
7 0 234 236 223 0 +-.003412362891125 0 .006088945271705 0 0 1 1 0 0 14 234 42 23
7 ?238 231 239 6 232 -0 0 238 231 26 54 236 183 0 238 240 232 0 +-.0037040239451
14 -.0027 .007476447438165 0 -1 0 .001117825247464 3e-4 -.999730727013805 0 -.02
3205031015889 14 238 37 241 ?242 234 243 6 236 +0 0 242 234 26 51 240 179 0 242
 244 236 0 +.003576286499283 0 .007479076873523 0 1 0 .001399763129848 1 0 0 14
 242 32 245 ?83 238 246 6 240 +0 0 83 238 26 50 244 175 0 83 22 240 0 +-.0034697
08358841 0 .008874776669203 0 -1 0 1 0 0 14 83 27 247 ?248 242 78 6 244 -0 0 248
 242 26 51 22 169 0 248 249 244 250 +-.003469708358841 -.0027 .008574776669203 1
 0 0 3e-4 0 0 1 14 248 20 251 ?106 83 252 6 22 +0 0 106 83 26 51 249 163 0 106 2
53 22 0 +-.003704023945114 0 .007476447438165 0 1 0 .001417825247464 -.999788202
805766 0 -.0205803190066702 141 250 8 250 250 22 14 106 13 254 ?98 248 90 6 249
 +0 0 98 248 26 50 253 154 0 98 0 249 0 +-.003469708358841 0 .008874776669203 0
 0 1 1 0 0 14 98 3 255 ?0 106 96 6 253 +0 0 0 106 26 81 1 255 377 33 98 0 0 254
 256 257 13 26 2 0 0 0 0 0 0 10 17 14 17 53 114 ?222 0 36 6 7 +0 0 222 0 26 81 1
 114 368 33 17 0 0 110 230 258 15 36 54 0 259 17 0 17 259 0 36 38 37 47 192 177
 0 107 -17 38 0 36 28 259 41 50 176 0 187 +17 37 0 36 259 28 32 213 182 0 175 -1
7 192 0 243 55 107 32 259 177 0 0 +17 107 0 243 192 73 47 105 108 0 91 +15 243 3
8 0 73 238 0 17 73 0 243 107 55 70 139 136 0 105 -17 91 0 90 105 80 47 89 94 0 0
 +17 89 0 239 87 50 52 91 94 0 80 -15 239 43 0 89 234 0 17 87 0 239 163 89 46 61
 88 0 84 +17 50 0 239 89 163 47 38 176 0 259 -17 163 0 239 50 87 41 58 158 0 0 +
17 58 0 246 65 187 46 163 158 0 87 -15 246 33 0 58 242 0 17 65 0 246 101 58 62 8
4 126 0 79 +17 187 0 246 58 101 41 69 164 0 163 +17 101 0 246 187 65 66 86 102 0
 99 +17 69 0 218 216 39 66 187 164 0 219 -15 218 51 0 216 222 0 17 39 0 218 69 4
0 41 28 11 0 38 -17 219 0 252 109 169 66 216 129 20 101 -15 252 21 0 139 248 0 1
7 109 0 252 139 219 70 99 111 0 97 -17 169 0 252 219 139 24 260 140 0 0 +16 129
 26 261 73487299171918e-20 216 126 140 0 0 0 1 81 1 261 358 33 129 0 0 128 168 2
62 80 7 CCCCCDI12 legal_owners0 17 1 lCZ1 33 263 264 9000 0 0 0 0 3 5 0 0 0 FFTF
TFTTFFFFFFFFF2 81 1 128 357 33 126 0 0 157 261 265 81 1 168 359 33 140 0 0 261 1
38 266 83 255 1 262 16513 81 1 138 360 33 136 0 0 168 149 267 83 1 266 16514 81
 1 149 361 33 108 0 0 138 153 268 83 1 267 16515 81 1 153 362 33 94 0 0 149 93 2
69 83 1 268 16516 81 1 93 363 33 81 0 0 153 103 270 83 1 269 16517 81 1 103 364
 33 85 0 0 93 133 271 83 1 270 16518 81 1 133 365 33 102 0 0 103 113 272 83 1 27
1 16519 81 1 113 366 33 111 0 0 133 110 273 83 1 272 16520 83 1 273 16521 81 1 1
57 356 33 88 0 0 162 128 274 83 1 265 16512 81 1 162 355 33 158 0 0 186 157 275
 83 1 274 16511 81 1 186 354 33 164 0 0 191 162 276 83 1 275 16510 81 1 191 353
 33 177 0 0 174 186 277 83 1 276 16509 81 1 174 352 33 172 0 0 201 191 278 83 1
 277 16508 81 1 201 351 33 176 0 0 212 174 279 83 1 278 16507 81 1 212 350 33 18
2 0 0 181 201 280 83 1 279 16506 81 1 181 349 33 29 0 0 27 212 281 83 1 280 1650
5 81 1 27 348 33 11 0 0 75 181 282 83 1 281 16504 83 1 282 16503 79 255 13 264 B
TI/importTag17 139 0 252 169 109 51 73 136 0 0 +18 24 25 283 284 46 51 9 7348729
9171918e-20 1 17 260 0 235 175 284 51 169 140 0 139 -15 235 46 0 260 231 0 17 17
5 0 235 213 260 32 55 172 0 192 +17 284 0 235 260 213 24 40 29 0 216 -17 213 0 2
35 284 175 12 37 182 0 0 +17 40 0 218 39 216 12 284 29 0 213 +17 55 0 243 73 192
 51 175 172 0 260 -81 1 283 340 33 24 0 0 57 54 285 81 1 57 339 33 46 0 0 45 283
 286 81 1 54 341 33 51 0 0 283 49 287 83 1 285 16495 81 1 49 342 33 47 0 0 54 60
 288 83 1 287 16496 81 1 60 343 33 52 0 0 49 64 289 83 1 288 16497 81 1 64 344 3
3 62 0 0 60 68 290 83 1 289 16498 81 1 68 345 33 66 0 0 64 72 291 83 1 290 16499
 81 1 72 346 33 70 0 0 68 75 292 83 1 291 165e2 83 1 292 16501 81 1 45 338 33 41
 0 0 34 57 293 83 1 286 16494 81 1 34 337 33 32 0 0 31 45 294 83 1 293 16493 83
 1 294 16492 17 99 0 96 86 97 66 109 111 0 0 +17 84 0 78 61 79 46 65 126 0 0 -81
 1 230 369 33 222 0 0 114 233 295 83 1 258 16523 81 1 233 370 33 231 0 0 230 237
 296 83 1 295 16524 81 1 237 371 33 234 0 0 233 241 297 83 1 296 16525 81 1 241
 372 33 238 0 0 237 245 298 83 1 297 16526 81 1 245 373 33 242 0 0 241 247 299 8
3 1 298 16527 81 1 247 374 33 83 0 0 245 251 300 83 1 299 16528 81 1 251 375 33
 248 0 0 247 254 301 83 1 300 16529 81 1 254 376 33 106 0 0 251 255 302 83 1 301
 16530 83 1 302 16531 81 1 256 378 33 1 303 304 255 0 305 83 1 257 16532 81 1 30
3 334 306 1 0 256 0 0 307 81 1 304 379 308 1 256 309 0 0 310 83 1 305 16533 80 1
 308 33 311 9000 0 0 0 0 3 5 0 0 0 FFTFTFTTFFFFFFFFF2 81 1 309 424 312 1 304 14
 0 0 313 83 1 310 17325 80 1 312 314 315 8040 0 0 0 0 3 5 0 0 0 TTTFFFFFFFFFFFFF
F2 81 1 14 425 316 1 309 2 0 0 317 83 3 313 .690196078431373 .690196078431373 .6
90196078431373 80 1 316 13 318 8038 0 0 0 0 0 0 0 0 0 TTTTTTTTTTTTTFTFT10 98 255
 11 317 72 67 45 48 52 70 105 108 108 101 116 79 14 318 SDL/TYSA_UNAME79 17 315
 SDL/TYSA_COLOUR_279 18 311 BTI/importMaxCount80 1 306 319 320 9000 0 0 0 0 3 5
 0 0 0 TTTFFFFFFFFFFFFFF1 82 255 1 307 47 79 23 320 ONSHAPE_ORIGINALBODY_ID83 1
 115 16522 83 1 77 16502 83 1 35 16491 19 18 55 0 1 0 10 6 0 S0 141 21 20 21 21
 8 134 23 0 0 0 0 0 0 +321 322 136 321 1 2 2 2 5 FFF1 323 324 325 135 322 2 0 45
 4 323 1.572632655537955 .006939416717682 0 .006939416717682 127 2 324 2 2 128 2
 325 0 1 74 4 CI16 index_map_offset0 0 1 dCCZ20 16 6 0 0 303 256 304 309 14 2 0
 0 0 0 0 0 0 0 0 0 0 0 0 0 80 1 13 326 327 8017 0 0 0 0 0 0 0 0 0 TTTTTTTTTTTTTF
TFT3 84 255 11 15 HC-04Fillet79 13 327 SDL/TYSA_NAME1 0 
