**ABCDEFGHIJKLMNOPQRSTUVWXYZabcdefghijklmnopqrstuvwxyz**************************
**PARASOLID !"#$%&'()*+,-./:;<=>?@[\]^_`{|}~0123456789**************************
**PART1;
MC=unknown;
MC_MODEL=unknown;
MC_ID=unknown;
OS=unknown;
OS_RELEASE=unknown;
FRU=Parasolid 37.0.173;
APPL=Onshape;
SITE=unknown;
USER=unknown;
FORMAT=text;
GUISE=transmit;
KEY=BTGapi::writeModels_.xmt;
FILE=BTGapi::writeModels_.xmt;
DATE=2024-12-29T04:00:26 (UTC);
**PART2;
SCH=SCH_3700173_36001;
USFLD_SIZE=0;
**PART3;
**END_OF_HEADER*****************************************************************
T51 : TRANSMIT FILE created by modeller version 370017323 SCH_3700173_36001_1300
6231 0 12 36 CCCI7 lattice222 0 CCCI4 mesh1006 0 I8 polyline1008 0 CCCCCCCDI5 ow
ner1040 0 CCCI16 boundary_lattice222 0 CCCI13 boundary_mesh1006 0 I17 boundary_p
olyline1008 0 CCCA16 index_map_offset0 0 1 dA9 index_map82 0 A17 node_id_index_m
ap82 0 A20 schema_embedding_map82 0 A5 child12 0 A14 lowest_node_id0 0 1 dA16 me
sh_offset_data206 0 Z1 1031 2 3 0 0 0 0 0 0 0 1e3 1e-8 0 4 5 1 0 1 2 6 0 7 8 9 0
 0 10 11 12 0 0 0 0 0 0 0 81 255 1 2 1031 13 1 14 0 0 0 15 70 11 CI9 list_type0
 0 1 uI10 notransmit0 0 1 lCCCDCCDI12 finger_index0 0 1 dI12 finger_block1012 0
 CZ3 0 4 T1 0 0 6 20 1 16 16 13 255 6 116 0 1 0 17 0 0 18 0 50 255 7 730 0 19 20
 0 0 +-.02042446875611 .000523945311339 .00174354 444448113838e-27 8659487671686
e-29 -1 .0035589075122676 .999993667068607 88176078048598e-30 30 255 8 856 0 21
 22 0 0 +-.021515 8144199999999e-17 .00174354 .999999828481103 -.000585694258549
86 444397319484637e-30 29 255 9 783 0 23 24 0 -.02080775081018955 .0004060105198
43952 .00174354 19 9 CCCCCCI5 frame230 0 CA5 owner12 0 Z10 1 0 1 18 0 25 0 V0 16
 255 11 110 26 ?27 0 28 29 0 0 1 18 255 12 106 30 31 0 32 33 5e-7 1 81 1 30 877
 34 12 0 0 0 35 36 17 255 31 0 37 38 39 12 27 11 0 40 -18 32 101 35 38 12 41 42
 5e-7 1 29 33 405 0 12 42 43 -.02012009697365 .000484445980128 .00117781 29 42 4
01 0 32 44 33 -.0201198248062 .000560920495817 .00117781 29 43 395 0 45 33 46 -.
02012009697365 .000484445980128 .00174354 18 45 94 47 27 41 48 43 5e-7 1 29 46 6
76 0 49 43 50 -.02072884053857 .000563444642548842 .00117781 18 49 81 51 52 48 5
3 46 ?1 29 50 677 0 54 46 55 -.02088422579704205 .000405420818359535 .00117781 1
8 54 61 56 57 58 59 50 ?1 29 55 678 0 60 50 61 -.02088422579689845 .000247495079
387985 .00117781 18 60 41 62 63 64 65 55 ?1 29 61 679 0 66 55 67 -.0210539295545
3 811719536411983e-19 .00117781 18 66 16 68 69 70 71 61 ?1 29 67 680 0 70 61 72
 -.021515 814419999999967e-19 .00117781 18 70 18 73 74 75 66 67 ?1 29 72 681 0 7
6 67 77 -.021515 496699999999767e-20 .00117781 18 76 25 78 79 80 75 72 ?1 29 77
 682 0 75 72 81 -.02105392955453 469695364111246e-20 .00117781 18 75 23 82 83 76
 70 77 ?1 29 81 683 0 64 77 84 -.0208077508100103 .000247539870356713 .00117781
 18 64 46 85 86 23 60 81 ?1 29 84 686 0 80 81 87 -.02080775081001015 .0002475398
70357001 .00174354 18 80 34 88 89 65 76 84 ?1 29 87 687 0 90 84 91 -.02105392955
453 469695364111442e-20 .00174354 18 90 7 92 93 94 95 87 ?1 29 91 688 0 95 87 96
 -.021515 496699999999832e-20 .00174354 18 95 6 97 98 90 0 91 ?1 29 96 689 0 71
 91 99 -.021515 814419999999967e-19 .00174354 18 71 11 100 101 66 94 96 ?1 29 99
 690 0 94 96 102 -.02105392955453 811719536411983e-19 .00174354 18 94 9 103 104
 71 90 99 ?1 29 102 691 0 65 99 105 -.0208842257968969 .0002474950793882885 .001
74354 18 65 36 106 107 60 80 102 ?1 29 105 692 0 59 102 108 -.02088422579704205
 .0004054208183592195 .00174354 18 59 56 109 110 54 23 105 ?1 29 108 693 0 53 10
5 111 -.020728840538569 .00056344464254869 .00174354 18 53 76 112 113 49 114 108
 ?1 29 111 760 0 114 108 115 -.0207285517892501 .000486967802065742 .00174354 18
 114 74 116 117 53 58 111 11560137463358e-19 1 29 115 761 0 48 111 24 -.02072855
178925085 .000486967802065732 .00117781 18 48 86 118 119 45 49 115 1156013747160
086e-21 1 29 24 782 0 58 115 9 -.02080775081018955 .0004060105198441095 .0011778
1 18 58 66 120 121 114 54 24 1044910516332164e-21 1 81 1 120 885 34 58 0 0 116 5
6 122 17 121 0 123 86 119 58 124 125 0 126 -15 255 123 21 0 127 128 0 17 86 0 12
3 83 121 64 129 130 0 131 -17 119 0 123 121 132 48 40 28 0 133 -17 124 0 134 135
 126 48 121 125 0 0 +16 125 87 136 ?124 137 138 139 0 0 1 17 126 0 134 124 140 5
8 141 142 0 129 -15 134 89 0 124 143 0 17 140 0 134 126 135 23 144 145 0 141 -17
 141 0 146 89 129 23 126 142 0 147 +16 142 70 148 ?141 145 130 149 0 0 1 17 129
 0 146 141 131 58 86 130 0 0 +15 146 69 0 129 150 0 17 131 0 146 129 89 64 151 1
52 0 153 -16 130 67 154 ?129 142 155 156 0 0 1 81 1 154 916 34 130 0 0 148 157 1
58 16 155 62 157 ?159 130 160 161 0 0 1 133 255 156 801 0 130 162 163 0 +163 -.0
2080775081001 .000247539870356713 .00117781 -.02080775081001 .000406010519844109
5 .00117781 -286934104948289e-30 .0001584706494871095 31 255 162 792 0 164 165 1
56 0 +-.02072784804228 .000407061431274 .00174354 444448113838e-27 8659487671686
e-29 -1 1 0 444448113838e-27 .000156386360714 30 163 798 0 1 156 166 167 +-.0208
0775081001 .000247539870357 .00117781 -4440892098501e-28 1 865948767168598e-31 1
33 166 807 0 168 163 169 0 +169 -.02080775081001 .000247539870357001 .00174354 -
.02080775081001 .000406010519843952 .00174354 -.000276405440981999 -.00011793479
1495048 141 255 167 156 167 167 163 16 168 53 170 ?147 171 152 166 0 0 1 30 169
 804 0 1 166 161 172 +-.02080775081001 .000523945311339 .00174354 -4440892098501
e-28 1 865948767168598e-31 30 161 811 0 155 169 173 0 +-.0208842257969 .00052394
5311339 .00117781 -4440892098501e-28 1 865948767168598e-31 141 172 166 172 172 1
69 30 173 816 0 171 161 174 0 +-.0208842257969 .000247495079388 .00174354 -44408
92098501e-28 1 865948767168598e-31 16 171 57 175 ?176 160 168 173 0 0 1 31 174 8
22 0 177 173 178 0 +-.02105219054559 .000249135712619 .00117781 -444448113838e-2
7 -8659487671686e-29 1 -1 0 -444448113838e-27 .000244444944809 16 177 47 179 ?15
3 152 180 174 0 0 1 31 178 828 0 181 174 182 0 +-.02105219054559 .00024913571261
9 .00174354 -444448113838e-27 -8659487671686e-29 1 1 0 444448113838e-27 .0002444
44944809 16 181 33 183 ?184 185 186 178 0 0 1 31 182 832 0 180 178 187 0 +-.0210
5219054559 .000249135712619 .00117781 -444448113838e-27 -8659487671686e-29 1 -1
 0 -444448113838e-27 .000167972761131 16 180 42 188 ?189 177 190 182 0 0 1 31 18
7 839 0 185 182 191 0 +-.02105219054559 .000249135712619 .00174354 -444448113838
e-27 -8659487671686e-29 1 1 0 444448113838e-27 .000167972761131 16 185 37 192 ?1
93 190 181 187 0 0 1 30 191 844 0 194 187 195 0 +-.021515 4966999999992e-18 .001
17781 .999999828481103 -.00058569425854986 444397319484637e-30 16 194 24 196 ?19
7 198 199 191 0 0 1 30 195 848 0 200 191 22 0 +-.02042477309276855 4328460250388
205e-21 .00174354 .999999828481103 -.00058569425854986 444397319484637e-30 16 20
0 5 201 ?202 21 0 195 0 0 1 30 22 852 0 203 195 8 0 +-.0204247283018078 80803434
0165733e-19 .00117781 .999999828481103 -.00058569425854986 444397319484637e-30 1
6 203 17 204 ?127 199 205 22 0 0 1 81 1 204 932 34 203 0 0 206 207 208 17 127 0
 123 189 74 66 209 203 0 210 +16 199 19 206 ?211 194 203 212 0 0 1 16 205 15 207
 ?210 203 213 214 0 0 1 81 1 207 933 34 205 0 0 204 215 216 17 210 0 217 209 218
 66 219 205 0 0 +16 213 12 215 ?220 205 21 221 0 0 1 30 214 333 0 205 0 222 0 +-
.02105392955453 8117195364098e-17 .00174354 6661338147751e-28 8659560562355e-29
 -1 30 222 344 0 223 214 224 0 +-.02105392955453 4696953640979e-18 .00117781 -66
61338147751e-28 -8659560562355e-29 1 16 223 29 225 ?226 186 198 222 0 0 1 30 224
 354 0 190 222 227 0 +-.0208842257969 .000247495079388 .00174354 -4440892098501e
-28 -1972152263053e-43 1 16 190 40 228 ?229 180 185 224 0 0 1 30 227 361 0 152 2
24 230 0 +-.02080775081001 .000247539870357 .00117781 -4440892098501e-28 -197215
2263053e-43 1 16 152 50 231 ?151 168 177 227 0 0 1 30 230 370 0 160 227 232 0 +-
.0208842257969 .000405420798044 .00174354 3573635688291e-28 2219938482912e-28 -1
 16 160 60 233 ?234 155 171 230 0 0 1 133 232 601 0 235 230 236 0 +236 -.0207288
40538569 .000563444642548996 .00174354 -.0201198248062 .00056092049581726 .00174
354 999209215756573e-30 .000609020963178518 16 235 97 237 ?238 239 240 232 0 0 1
 30 236 399 0 1 232 241 242 +-.02072884053857 .000563444642549 .00174354 .999991
411119099 -.00414459745123741 444085395620744e-30 30 241 386 0 243 236 244 0 +-.
02072884053857 .000563444642549 .00174354 4440892098501e-28 1972152263053e-43 -1
 141 242 232 242 242 236 16 243 80 245 ?246 138 164 241 0 0 1 133 244 607 0 247
 241 248 0 +248 -.02072884053857 .000563444642549 .00117781 -.0201198248062 .000
56092049581726 .00117781 0 .000609020963178518 16 247 102 249 ?250 251 239 244 0
 0 1 30 248 403 0 1 244 252 253 +-.02072884053857 .000563444642549 .00117781 .99
9991411119099 -.00414459745123741 666079243911966e-30 133 252 613 0 28 248 254 0
 +254 -.02072855178925085 .000486967802065821 .00117781 -.02012009697365 .000484
44598012826 .00117781 560921586828987e-21 .000609020963178518 141 253 244 253 25
3 248 16 28 107 255 ?40 11 251 252 0 0 1 30 254 407 0 1 252 256 257 +-.020729112
70602 .00048697012686 .00117781 .999991411119099 -.00414459745123741 44408539562
0744e-30 133 256 615 0 258 254 259 0 +259 -.0207285517892501 .000486967802065818
 .00174354 -.02012009697365 .00048444598012826 .00174354 56092158757834e-20 .000
609020963178518 141 257 252 257 257 254 16 258 93 260 ?261 240 137 256 0 0 1 30
 259 396 0 1 256 212 262 +-.02072911270602 .00048697012686 .00174354 .9999914111
19099 -.00414459745123741 444085395620744e-30 30 212 336 0 199 259 263 0 +-.0215
15 8144199999999e-17 .00174354 6661338147751e-28 8659560562355e-29 -1 141 262 25
6 262 262 259 30 263 345 0 186 212 264 0 +-.021515 4966999999992e-18 .00117781 -
6661338147751e-28 -8659560562355e-29 1 16 186 30 265 ?98 181 223 263 0 0 1 133 2
64 631 0 240 263 266 0 +266 -.02012009697365 .000484445980128 .00174354 -.020119
824806198 .000560920495816993 .00174354 0 764749999999212e-19 16 240 95 267 ?268
 235 258 264 0 0 1 30 266 398 0 1 264 29 269 +-.02012009697365 .000484445980128
 .00174354 .0035589075122676 .999993667068607 881760780485653e-31 133 29 633 0 1
1 266 270 0 +270 -.02012009697365 .000484445980128 .00117781 -.02012009697365 .0
00484445980128 .00174354 0 56573e-8 141 269 264 269 269 266 30 270 409 0 1 29 27
1 272 +-.02012009697365 .000484445980128 .00117781 -6664405943332e-28 -858048210
0699e-29 1 133 271 635 0 251 270 273 0 +273 -.0201198248062 .000560920495817 .00
117781 -.020120096973652 .000484445980128007 .00117781 0 764749999999212e-19 141
 272 29 272 272 270 16 251 105 274 ?132 28 247 271 0 0 1 30 273 406 0 1 271 275
 276 +-.0201198248062 .000560920495817 .00117781 -.0035589075122676 -.9999936670
68607 -881760780485653e-31 133 275 637 0 239 273 277 0 +277 -.0201198248062 .000
560920495817 .00174354 -.0201198248062 .000560920495817 .00117781 0 56573e-8 141
 276 271 276 276 273 16 239 100 278 ?279 247 235 275 0 0 1 30 277 402 0 1 275 22
1 280 +-.0201198248062 .000560920495817 .00174354 6664405943332e-28 858048210069
9e-29 -1 30 221 745 0 213 277 281 0 +-.021515 4966999999992e-18 .00174354 -44408
92098501e-28 1 865948767168598e-31 141 280 275 280 280 277 30 281 750 0 198 221
 282 0 +-.021515 496699999999205e-20 .00117781 4440892098501e-28 -1 -86594876716
8598e-31 16 198 26 283 ?284 223 194 281 0 0 1 133 282 758 0 137 281 285 0 +285 -
.02072750087668875 .000486963446418885 .00174354 -.02072750087668875 .0004869634
46418885 .00117781 -56573e-8 0 16 137 90 286 ?133 258 125 282 0 0 1 30 285 759 0
 1 282 139 287 +-.02072750087668875 .000486963446418885 .00117781 4440892098501e
-28 1972152263053e-43 -1 133 139 770 0 125 285 288 0 +288 -.02080774411004455 .0
00406010606607912 .00117781 -.02072855172703545 .000486960892896641 .00117781 .0
129488172302014 -1.56179181097348 141 287 282 287 287 285 31 288 771 0 1 139 289
 290 --.02072783210753935 .000407045430360442 .00117781 -444448113838e-27 -86594
87671686e-29 1 -1 0 -444448113838e-27 7991870247066e-17 133 289 775 0 145 288 29
1 0 +291 -.02080774411004455 .000406010606607754 .00174354 -.0207285517270347 .0
00486960892896648 .00174354 3.12864383635762 4.70338446457265 141 290 139 290 29
0 288 16 145 73 292 ?144 164 142 289 0 0 1 31 291 776 0 1 289 149 293 +-.0207278
3210753935 .000407045430360442 .00174354 444448113838e-27 8659487671686e-29 -1 1
 0 444448113838e-27 7991870247066e-17 133 149 780 0 142 291 294 0 +294 -.0208077
5081001 .000407045430360442 .00117781 -.02080775081001 .000407045430360442 .0017
4354 0 -56573e-8 141 293 289 293 293 291 30 294 781 0 1 149 165 295 --.020807750
81001 .000407045430360442 .00117781 4440892098501e-28 1972152263053e-43 -1 31 16
5 788 0 138 294 162 0 +-.02072784804228 .000407061431274 .00117781 444448113838e
-27 8659487671686e-29 -1 -1 0 -444448113838e-27 .000156386360714 141 295 149 295
 295 294 16 138 82 296 ?297 125 243 165 0 0 1 81 1 296 911 34 138 0 0 136 245 29
8 17 297 0 123 250 159 49 57 138 0 246 +17 250 0 123 132 297 32 52 247 0 279 +17
 159 0 123 297 189 54 63 155 0 234 +17 57 0 299 300 246 54 297 138 0 159 -17 246
 0 299 57 301 49 302 243 0 0 +15 299 79 0 301 303 0 17 301 0 299 246 300 53 110
 164 0 0 +17 302 0 304 238 52 53 246 243 0 301 -15 304 99 0 238 305 0 17 238 0 3
04 279 302 41 113 235 0 268 +17 52 0 304 302 279 49 250 247 0 297 -17 279 0 304
 52 238 32 306 239 0 0 +17 306 0 37 39 38 41 279 239 0 238 -15 37 114 0 39 17 0
 17 39 0 37 31 306 45 268 240 0 261 -17 38 0 37 306 31 32 132 251 0 250 -18 41 9
6 307 306 32 45 44 5e-7 1 81 1 307 879 34 41 0 0 35 47 308 29 44 397 0 41 0 42 -
.0201198248062 .000560920495817 .00174354 80 7 CCCCCDI12 legal_owners0 17 1 lCZ1
 34 309 310 9000 0 0 0 0 3 5 0 0 0 FFTFTFTTFFFFFFFFF2 81 1 35 878 34 32 0 0 30 3
07 311 81 1 47 880 34 45 0 0 307 118 312 83 255 1 308 2189 81 1 118 881 34 48 0
 0 47 51 313 83 1 312 2190 81 1 51 882 34 49 0 0 118 112 314 83 1 313 2191 81 1
 112 883 34 53 0 0 51 116 315 83 1 314 2192 81 1 116 884 34 114 0 0 112 120 316
 83 1 315 2193 83 1 316 2194 83 1 311 2188 79 255 13 310 BTI/importTag17 132 0 1
23 119 250 12 38 251 0 0 +17 268 0 317 113 261 41 39 240 0 0 +17 261 0 317 268 1
44 45 117 258 0 0 +15 317 4 0 202 19 0 17 144 0 317 261 147 114 140 145 0 0 +17
 117 0 318 133 27 114 261 258 0 135 -15 318 109 0 40 319 0 17 133 0 318 40 117 4
8 135 137 0 124 +17 27 0 318 117 40 45 31 11 0 39 +17 135 0 134 140 124 114 133
 137 0 144 -17 40 0 318 27 133 12 119 28 0 132 +14 255 319 108 320 ?305 321 318
 6 322 -0 0 305 321 25 81 1 320 939 34 319 0 0 323 324 325 14 305 98 324 ?143 31
9 304 6 326 -0 0 143 319 25 14 321 111 323 ?319 17 327 6 328 -0 0 319 17 25 50 3
22 408 0 319 326 328 0 +-.02072911270602 .00048697012686 .00117781 .004144597451
23741 .999991411119099 885662120282888e-31 -6664405943332e-28 -858048210070026e-
31 1 13 25 2 0 0 0 0 0 0 10 17 14 17 113 329 ?321 0 37 6 330 +0 0 321 0 25 81 1
 329 937 34 17 0 0 201 323 331 50 330 411 0 17 328 332 0 +-.02012009697365 .0004
84445980128 .00174354 .999993667068607 -.0035589075122696 -340919026867466e-30 -
.0035589075122696 -.999993667068607 -158047242505338e-32 50 328 410 0 321 322 33
0 0 +-.021515 4966999999992e-18 .00174354 1 4440892098501e-28 8365813968033e-28
 8365813968033e-28 3715167714816e-43 -1 51 255 332 652 0 143 330 20 0 +-.0207278
3210753935 .000407045430360442 .00117781 4440892098501e-28 1972152263053e-43 -1
 7991870247066e-17 -.0199683204666765 .999800613211324 -886771565807974e-32 14 1
43 88 333 ?303 305 134 6 332 -0 0 303 305 25 50 20 729 0 128 332 7 0 +-.02042446
875611 .000523945311339 .00117781 -444448113838e-27 -8659487671686e-29 1 -.00355
89075122676 -.999993667068607 -88176078048598e-30 14 128 20 334 ?335 336 123 6 2
0 -0 0 335 336 25 81 1 334 948 34 128 0 0 337 338 339 14 335 13 338 ?19 128 217
 6 340 -0 0 19 128 25 14 336 27 337 ?128 341 342 6 343 -0 0 128 341 25 81 1 337
 947 34 336 0 0 344 334 345 14 341 38 344 ?336 346 347 6 348 -0 0 336 346 25 15
 342 28 0 197 336 0 50 343 343 0 336 340 348 0 +-.021515 4966999999992e-18 .0011
7781 .00058569425854986 .999999828481103 86985741521519e-30 -6661338147751e-28 -
86595605623562e-30 1 50 340 331 0 335 0 343 0 +-.021515 8144199999999e-17 .00174
354 -.00058569425854986 -.999999828481103 -86985741521519e-30 6661338147751e-28
 86595605623562e-30 -1 51 348 352 0 341 343 349 0 +-.02105219054559 .00024913571
2619 .00174354 -4440892098501e-28 -1972152263053e-43 1 .000167972761131 .6999574
40636869 -.714184556887843 310843546741125e-30 51 349 360 0 346 348 350 0 +-.021
05219054559 .000249135712619 .00117781 -4440892098501e-28 -1972152263053e-43 1 .
000244444944809 .702266961930216 -.71191369854871 31186918022742e-29 14 346 48 3
51 ?341 352 353 6 349 +0 0 341 352 25 50 350 368 0 352 349 354 0 +-.020884225796
9 .000247495079388 .00174354 1 4440892098501e-28 3573635688291e-28 3573635688291
e-28 2219938482912e-28 -1 14 352 58 355 ?346 150 356 6 350 -0 0 346 150 25 50 35
4 376 0 150 350 357 0 +-.02080775081001 .000247539870357 .00117781 -1 -444089209
8501e-28 -3573635688291e-28 -3573635688291e-28 -2219938482912e-28 1 14 150 68 35
8 ?352 303 146 6 354 -0 0 352 303 25 51 357 384 0 303 354 326 0 +-.0207278480422
8 .000407061431274 .00174354 4440892098501e-28 1972152263053e-43 -1 .00015638636
0714 -.0104908971801797 .999944969023973 -465889423936446e-32 14 303 78 359 ?150
 143 299 6 357 +0 0 150 143 25 50 326 400 0 305 357 322 0 +-.02072884053857 .000
563444642549 .00174354 -.00414459745123741 -.999991411119099 -885662120282888e-3
1 6664405943332e-28 858048210070026e-31 -1 81 1 359 942 34 303 0 0 333 358 360 8
1 1 333 941 34 143 0 0 324 359 361 81 1 358 943 34 150 0 0 359 355 362 83 1 360
 2252 81 1 355 944 34 352 0 0 358 351 363 83 1 362 2253 81 1 351 945 34 346 0 0
 355 344 364 83 1 363 2254 81 1 344 946 34 341 0 0 351 337 365 83 1 364 2255 83
 1 365 2256 81 1 324 940 34 305 0 0 320 333 366 83 1 361 2251 83 1 366 2250 15 3
56 59 0 176 352 0 17 176 0 356 234 229 59 107 171 0 0 +17 234 0 356 63 176 54 30
0 160 0 0 +17 229 0 356 176 63 65 367 190 0 193 +17 107 0 317 104 110 65 176 171
 0 229 -17 104 0 317 368 107 94 193 185 0 219 -17 110 0 317 107 113 59 301 164 0
 300 -17 113 0 317 110 268 53 238 235 0 302 -16 164 77 369 ?301 243 145 162 0 0
 1 17 300 0 299 301 57 59 234 160 0 176 -81 1 369 913 34 164 0 0 245 292 370 81
 1 245 912 34 243 0 0 296 369 371 81 1 292 914 34 145 0 0 369 148 372 83 1 370 2
223 81 1 148 915 34 142 0 0 292 154 373 83 1 372 2224 83 1 373 2225 83 1 371 222
2 17 368 0 317 374 104 71 218 21 0 0 -17 193 0 347 367 219 65 104 185 0 0 +17 21
9 0 347 193 69 94 210 205 0 218 -15 347 39 0 193 341 0 17 69 0 347 219 367 66 18
9 180 0 127 -17 218 0 217 210 101 94 368 21 0 0 +15 217 14 0 218 335 0 17 101 0
 217 218 209 71 211 199 0 220 -16 21 10 375 ?218 213 200 8 0 0 1 81 1 375 935 34
 21 0 0 215 201 376 81 1 215 934 34 213 0 0 207 375 377 81 1 201 936 34 200 0 0
 375 329 378 83 1 376 2245 83 1 378 2246 83 1 377 2244 17 209 0 217 101 210 70 1
27 203 0 0 -17 211 0 327 284 220 70 101 199 0 209 +17 220 0 327 211 98 71 374 21
3 0 368 +15 327 112 0 220 321 0 17 98 0 327 220 284 95 79 186 0 374 +17 374 0 31
7 202 368 95 220 213 0 379 -17 202 0 317 184 374 90 379 200 0 0 +17 379 0 342 79
 226 95 202 200 0 0 -17 79 0 342 197 379 76 98 186 0 284 -17 226 0 342 379 197 9
0 380 223 0 202 +17 197 0 342 226 79 75 381 194 0 0 +17 380 0 353 153 93 75 226
 223 0 197 -15 353 49 0 153 346 0 17 153 0 353 151 380 64 83 177 0 0 +17 93 0 35
3 380 151 90 184 181 0 226 -17 151 0 353 93 153 80 131 152 0 184 +17 184 0 317 1
47 202 80 93 181 0 0 +17 147 0 317 144 184 23 89 168 0 0 +18 23 54 382 140 59 64
 9 1044910516489916e-21 1 17 89 0 146 131 141 80 147 168 0 151 -81 1 382 888 34
 23 0 0 109 85 383 81 1 109 887 34 59 0 0 56 382 384 81 1 85 889 34 64 0 0 382 6
2 385 83 1 383 2198 81 1 62 890 34 60 0 0 85 106 386 83 1 385 2199 81 1 106 891
 34 65 0 0 62 88 387 83 1 386 22e2 81 1 88 892 34 80 0 0 106 78 388 83 1 387 220
1 81 1 78 893 34 76 0 0 88 82 389 83 1 388 2202 81 1 82 894 34 75 0 0 78 73 390
 83 1 389 2203 81 1 73 895 34 70 0 0 82 68 391 83 1 390 2204 81 1 68 896 34 66 0
 0 73 100 392 83 1 391 2205 81 1 100 897 34 71 0 0 68 103 393 83 1 392 2206 81 1
 103 898 34 94 0 0 100 92 394 83 1 393 2207 81 1 92 899 34 90 0 0 103 97 395 83
 1 394 2208 81 1 97 900 34 95 0 0 92 26 396 83 1 395 2209 81 1 26 901 34 11 0 0
 97 255 397 83 1 396 2210 81 1 255 902 34 28 0 0 26 274 398 83 1 397 2211 81 1 2
74 903 34 251 0 0 255 249 399 83 1 398 2212 81 1 249 904 34 247 0 0 274 278 400
 83 1 399 2213 81 1 278 905 34 239 0 0 249 237 401 83 1 400 2214 81 1 237 906 34
 235 0 0 278 267 402 83 1 401 2215 81 1 267 907 34 240 0 0 237 260 403 83 1 402
 2216 81 1 260 908 34 258 0 0 267 286 404 83 1 403 2217 81 1 286 909 34 137 0 0
 260 136 405 83 1 404 2218 81 1 136 910 34 125 0 0 286 296 406 83 1 405 2219 83
 1 406 2220 81 1 56 886 34 54 0 0 120 109 407 83 1 384 2197 83 1 407 2196 17 83
 0 123 381 86 75 153 177 0 380 -17 381 0 123 74 83 76 197 194 0 0 -17 74 0 123 1
27 381 70 284 198 0 211 -17 284 0 327 98 211 76 74 198 0 381 +17 367 0 347 69 19
3 60 229 190 0 0 -17 189 0 123 159 127 60 69 180 0 367 +17 63 0 356 229 234 60 1
59 155 0 189 -83 1 345 2257 81 1 338 949 34 335 0 0 334 408 409 14 19 3 408 ?0 3
35 317 6 7 -0 0 0 335 25 81 1 408 950 34 19 0 0 338 410 411 81 1 410 951 34 1 41
2 413 408 0 414 83 1 411 2260 81 1 412 875 415 1 0 410 0 0 416 81 1 413 952 417
 1 410 418 0 0 419 83 1 414 2261 80 1 417 34 420 9000 0 0 0 0 3 5 0 0 0 FFTFTFTT
FFFFFFFFF2 81 1 418 1029 421 1 413 14 0 0 422 83 1 419 17325 80 1 421 423 424 80
40 0 0 0 0 3 5 0 0 0 TTTFFFFFFFFFFFFFF2 81 1 14 1030 425 1 418 2 0 0 426 83 3 42
2 .690196078431373 .690196078431373 .690196078431373 80 1 425 13 427 8038 0 0 0
 0 0 0 0 0 0 TTTTTTTTTTTTTFTFT10 98 255 14 426 72 67 45 48 52 70 117 115 105 111
 110 48 48 50 79 14 427 SDL/TYSA_UNAME79 17 424 SDL/TYSA_COLOUR_279 18 420 BTI/i
mportMaxCount80 1 415 428 429 9000 0 0 0 0 3 5 0 0 0 TTTFFFFFFFFFFFFFF1 82 255 1
 416 2 79 23 429 ONSHAPE_ORIGINALBODY_ID83 1 409 2259 83 1 339 2258 81 1 323 938
 34 321 0 0 329 320 430 83 1 331 2247 83 1 430 2248 83 1 325 2249 83 1 298 2221
 81 1 283 929 34 198 0 0 225 196 431 81 1 225 928 34 223 0 0 265 283 432 81 1 19
6 930 34 194 0 0 283 206 433 83 1 431 2239 81 1 206 931 34 199 0 0 196 204 434 8
3 1 433 2240 83 1 434 2241 81 1 265 927 34 186 0 0 183 225 435 83 1 432 2238 81
 1 183 926 34 181 0 0 192 265 436 83 1 435 2237 81 1 192 925 34 185 0 0 228 183
 437 83 1 436 2236 81 1 228 924 34 190 0 0 188 192 438 83 1 437 2235 81 1 188 92
3 34 180 0 0 179 228 439 83 1 438 2234 81 1 179 922 34 177 0 0 231 188 440 83 1
 439 2233 81 1 231 921 34 152 0 0 170 179 441 83 1 440 2232 81 1 170 920 34 168
 0 0 175 231 442 83 1 441 2231 81 1 175 919 34 171 0 0 233 170 443 83 1 442 2230
 81 1 233 918 34 160 0 0 157 175 444 83 1 443 2229 81 1 157 917 34 155 0 0 154 2
33 445 83 1 444 2228 83 1 445 2227 83 1 216 2243 83 1 208 2242 83 1 158 2226 83
 1 122 2195 83 1 36 2187 19 18 115 0 1 0 10 6 0 S0 74 4 CI16 index_map_offset0 0
 1 dCCZ20 16 6 0 0 412 410 413 418 14 2 0 0 0 0 0 0 0 0 0 0 0 0 0 0 80 1 13 446
 447 8017 0 0 0 0 0 0 0 0 0 TTTTTTTTTTTTTFTFT3 84 255 14 15 HC-04Fusion00279 13
 447 SDL/TYSA_NAME1 0 
