**ABCDEFGHIJKLMNOPQRSTUVWXYZabcdefghijklmnopqrstuvwxyz**************************
**PARASOLID !"#$%&'()*+,-./:;<=>?@[\]^_`{|}~0123456789**************************
**PART1;
MC=unknown;
MC_MODEL=unknown;
MC_ID=unknown;
OS=unknown;
OS_RELEASE=unknown;
FRU=Parasolid 37.0.173;
APPL=Onshape;
SITE=unknown;
USER=unknown;
FORMAT=text;
GUISE=transmit;
KEY=BTGapi::writeModels_.xmt;
FILE=BTGapi::writeModels_.xmt;
DATE=2024-12-29T04:00:25 (UTC);
**PART2;
SCH=SCH_3700173_36001;
USFLD_SIZE=0;
**PART3;
**END_OF_HEADER*****************************************************************
T51 : TRANSMIT FILE created by modeller version 370017323 SCH_3700173_36001_1300
6231 0 12 36 CCCI7 lattice222 0 CCCI4 mesh1006 0 I8 polyline1008 0 CCCCCCCDI5 ow
ner1040 0 CCCI16 boundary_lattice222 0 CCCI13 boundary_mesh1006 0 I17 boundary_p
olyline1008 0 CCCA16 index_map_offset0 0 1 dA9 index_map82 0 A17 node_id_index_m
ap82 0 A20 schema_embedding_map82 0 A5 child12 0 A14 lowest_node_id0 0 1 dA16 me
sh_offset_data206 0 Z1 330 2 3 0 0 0 0 0 0 0 1e3 1e-8 0 4 5 1 0 1 2 6 0 7 8 9 0
 0 10 11 12 0 0 0 0 0 0 0 81 255 1 2 330 13 1 14 0 0 0 15 70 11 CI9 list_type0 0
 1 uI10 notransmit0 0 1 lCCCDCCDI12 finger_index0 0 1 dI12 finger_block1012 0 CZ
3 0 4 T1 0 0 6 20 1 16 16 13 255 6 46 0 1 0 17 0 0 18 0 50 255 7 156 0 17 19 0 0
 +.014834242 8e-4 910405e-9 0 -1 0 1 0 0 31 255 8 155 0 11 20 0 0 +.014534242 8e
-4 910405e-9 0 1 1224646799147e-28 1 0 0 3e-4 29 255 9 140 0 21 22 0 .0219565890
70974 0 -.0015 19 9 CCCCCCI5 frame230 0 CA5 owner12 0 Z10 1 0 1 18 0 23 0 V0 16
 255 11 42 24 ?25 0 26 8 0 0 1 18 255 12 25 27 28 0 21 29 5e-7 1 81 1 27 264 30
 12 0 0 0 31 32 17 255 28 0 33 34 35 12 36 37 0 38 -18 21 23 31 39 12 40 9 5e-7
 1 29 29 142 0 12 41 42 .021956589070974 .001 -.0015 29 41 128 0 43 44 29 .02195
6589070974 0 .0015 29 42 134 0 45 29 22 .013956589070974 .001 -.0015 18 45 16 46
 36 40 47 42 5e-7 1 29 22 135 0 40 42 9 .013956589070974 0 -.0015 18 40 17 48 49
 21 45 22 5e-7 1 81 1 48 266 30 40 0 0 31 46 50 17 49 0 33 35 34 40 39 26 0 51 +
15 255 33 37 0 34 52 0 17 35 0 33 28 49 45 53 54 0 0 -17 34 0 33 49 28 21 55 56
 0 57 +17 39 0 58 59 51 21 49 26 0 34 -16 26 35 60 ?49 11 61 62 0 0 1 17 51 0 58
 39 63 40 64 65 0 53 -15 58 34 0 63 66 0 17 63 0 58 51 59 67 68 69 0 70 -17 64 0
 71 72 53 67 51 65 0 63 +16 65 18 73 ?64 74 54 75 0 0 1 17 53 0 71 64 76 40 35 5
4 0 0 +15 71 14 0 53 77 0 17 76 0 71 53 72 45 78 74 0 35 -16 54 15 79 ?53 65 80
 81 0 0 1 81 1 79 281 30 54 0 0 73 82 83 16 80 12 82 ?84 54 85 86 0 0 1 133 255
 81 227 0 54 87 88 0 +88 .013956589070974 .001 -.0015 .013956589070974 0 -.0015
 0 .001 30 255 87 150 0 1 62 81 89 +.021956589070974 0 -.0015 -1 0 0 30 88 136 0
 1 81 90 91 +.013956589070974 .001 -.0015 0 -1 0 133 90 229 0 37 88 92 0 +92 .02
1956589070974 .001 -.0015 .013956589070974 .001 -.0015 0 .008 141 255 91 81 91 9
1 88 16 37 29 93 ?36 61 94 90 0 0 1 30 92 146 0 1 90 20 95 +.021956589070974 .00
1 -.0015 -1 0 0 31 20 148 0 61 92 8 0 +.014534242 .001 910405e-9 0 1 12246467991
47e-28 1 0 0 3e-4 141 95 90 95 95 92 16 61 31 96 ?97 26 37 20 0 0 1 81 1 96 274
 30 61 0 0 60 93 98 17 97 0 99 97 97 0 100 61 0 0 +15 99 39 0 97 101 0 17 100 0
 102 100 100 0 97 61 0 0 -15 102 30 0 100 103 104 14 255 103 27 105 ?106 66 102
 6 107 -0 0 106 66 23 15 104 28 0 84 103 0 17 84 0 104 38 78 47 108 80 0 109 +17
 38 0 104 36 84 12 110 94 0 55 +17 78 0 104 84 36 111 76 74 0 108 +18 47 11 112
 110 45 43 44 5e-7 1 17 108 0 113 70 109 111 84 80 0 72 -17 109 0 113 108 68 47
 114 85 0 0 -15 113 4 0 70 115 0 17 68 0 113 109 70 43 63 69 0 0 +17 114 0 116 5
7 110 43 109 85 0 68 +16 85 10 117 ?114 80 69 118 0 0 1 81 1 117 283 30 85 0 0 8
2 119 120 16 69 8 119 ?68 85 121 122 0 0 1 133 118 203 0 85 123 124 0 +124 .0219
56589070974 .001 .0015 .021956589070974 0 .0015 0 .001 30 123 127 0 1 125 118 12
6 +.013956589070974 .001 .0015 0 -1 0 30 124 131 0 1 118 86 127 +.02195658907097
4 .001 .0015 0 -1 0 133 86 207 0 80 124 128 0 +128 .013956589070974 .001 .0015 .
021956589070974 .001 .0015 0 .008 141 127 118 127 127 124 30 128 132 0 1 86 129
 130 +.013956589070974 .001 .0015 1 0 0 133 129 209 0 94 128 131 0 +131 .0219565
89070974 .001 .0015 .021956589070974 .001 -.0015 0 .003 141 130 86 130 130 128 1
6 94 26 132 ?38 37 56 129 0 0 1 30 131 144 0 1 129 133 134 +.021956589070974 .00
1 .0015 0 0 -1 133 133 211 0 74 131 135 0 +135 .013956589070974 .001 -.0015 .013
956589070974 .001 .0015 0 .003 141 134 129 134 134 131 16 74 19 136 ?78 137 65 1
33 0 0 1 30 135 138 0 1 133 122 138 +.013956589070974 .001 -.0015 0 0 1 133 122
 215 0 69 135 139 0 +139 .013956589070974 0 .0015 .021956589070974 0 .0015 0 .00
8 141 138 133 138 138 135 30 139 129 0 1 122 75 140 +.013956589070974 0 .0015 1
 0 0 133 75 217 0 65 139 141 0 +141 .013956589070974 0 -.0015 .013956589070974 0
 .0015 0 .003 141 140 122 140 140 139 30 141 137 0 1 75 142 143 +.01395658907097
4 0 -.0015 0 0 1 133 142 219 0 137 141 144 0 +144 .021956589070974 0 .0015 .0219
56589070974 0 -.0015 0 .003 141 143 75 143 143 141 16 137 22 145 ?57 56 74 142 0
 0 1 30 144 141 0 1 142 146 147 +.021956589070974 0 .0015 0 0 -1 133 146 223 0 5
6 144 148 0 +148 .021956589070974 .001 -.0015 .021956589070974 0 -.0015 0 .001 1
41 147 142 147 147 144 16 56 24 149 ?34 94 137 146 0 0 1 30 148 143 0 1 146 62 1
50 +.021956589070974 .001 -.0015 0 -1 0 133 62 225 0 26 148 87 0 +87 .0219565890
70974 0 -.0015 .013956589070974 0 -.0015 0 .008 141 150 146 150 150 148 81 1 149
 277 30 56 0 0 132 145 151 80 7 CCCCCDI12 legal_owners0 17 1 lCZ1 30 152 153 900
0 0 0 0 0 3 5 0 0 0 FFTFTFTTFFFFFFFFF2 81 1 132 276 30 94 0 0 93 149 154 81 1 14
5 278 30 137 0 0 149 136 155 83 255 1 151 7474 81 1 136 279 30 74 0 0 145 73 156
 83 1 155 7475 81 1 73 280 30 65 0 0 136 79 157 83 1 156 7476 83 1 157 7477 81 1
 93 275 30 37 0 0 96 132 158 83 1 154 7473 83 1 158 7472 79 255 13 153 BTI/impor
tTag17 57 0 116 55 114 21 59 137 0 0 +15 116 21 0 114 106 0 17 55 0 116 110 57 1
2 34 56 0 0 -17 59 0 58 63 39 43 57 137 0 114 -18 43 9 159 59 47 67 41 5e-7 1 81
 1 159 269 30 43 0 0 112 160 161 18 67 7 160 64 43 111 162 5e-7 1 81 1 160 270 3
0 67 0 0 159 163 164 18 111 6 163 78 67 0 165 5e-7 1 29 162 126 0 67 165 44 .013
956589070974 0 .0015 29 165 125 0 111 0 162 .013956589070974 .001 .0015 29 44 13
0 0 47 162 41 .021956589070974 .001 .0015 81 1 163 271 30 111 0 0 160 24 166 81
 1 24 272 30 11 0 0 163 60 167 83 1 166 7468 81 1 60 273 30 26 0 0 24 96 168 83
 1 167 7469 83 1 168 7470 83 1 164 7467 81 1 112 268 30 47 0 0 46 159 169 83 1 1
61 7466 81 1 46 267 30 45 0 0 48 112 170 83 1 169 7465 83 1 170 7464 17 110 0 11
6 114 55 47 38 94 0 84 -14 106 20 171 ?77 103 116 6 172 +0 0 77 103 23 81 1 171
 291 30 106 0 0 105 173 174 14 77 13 173 ?115 106 71 6 175 +0 0 115 106 23 50 17
2 139 0 106 175 107 0 +.021956589070974 .001 .0015 1 0 0 0 0 -1 13 23 2 0 0 0 0
 0 0 10 17 14 17 43 176 ?101 0 177 6 7 -0 0 101 0 23 81 1 176 286 30 17 0 0 178
 179 180 14 101 38 179 ?52 17 181 6 19 -0 0 52 17 23 15 177 44 0 25 17 0 17 25 0
 177 25 25 0 182 11 0 0 +17 182 0 181 182 182 0 25 11 0 0 -15 181 259 0 182 101
 99 81 1 179 287 30 101 0 0 176 183 184 14 52 36 183 ?66 101 33 6 185 +0 0 66 10
1 23 51 255 19 152 0 101 185 7 0 +.014534242 8e-4 910405e-9 0 -1 -1224646799147e
-28 3e-4 1 0 0 50 185 151 0 52 186 19 0 +.021956589070974 .001 -.0015 0 0 -1 -1
 0 0 50 186 149 0 66 107 185 0 +.013956589070974 0 .0015 0 -1 0 1 0 0 14 66 33 1
87 ?103 52 58 6 186 +0 0 103 52 23 50 107 145 0 103 172 186 0 +.013956589070974
 .001 .0015 0 -1 0 1 0 0 81 1 187 289 30 66 0 0 183 105 188 81 1 183 288 30 52 0
 0 179 187 189 81 1 105 290 30 103 0 0 187 171 190 83 1 188 7486 83 1 190 7487 8
3 1 189 7485 83 1 184 7484 81 1 178 285 30 121 0 0 119 176 191 83 1 180 7483 16
 121 5 178 ?70 69 0 125 0 0 1 81 1 119 284 30 69 0 0 117 178 192 83 1 191 7482 8
3 1 192 7481 17 70 0 113 68 108 67 72 121 0 0 +133 125 199 0 121 0 123 0 +123 .0
13956589070974 .001 .0015 .013956589070974 0 .0015 0 .001 17 72 0 71 76 64 111 7
0 121 0 0 -50 175 133 0 77 193 172 0 +.013956589070974 .001 -.0015 -1 0 0 0 0 1
 50 193 124 0 115 0 175 0 +.013956589070974 .001 .0015 0 0 1 1 0 0 14 115 3 194
 ?0 77 113 6 193 +0 0 0 77 23 81 1 194 293 30 115 0 0 173 195 196 81 1 173 292 3
0 77 0 0 171 194 197 81 1 195 294 30 1 198 199 194 0 200 83 1 196 7490 81 1 198
 262 201 1 0 195 0 0 202 81 1 199 295 203 1 195 204 0 0 205 83 1 200 7491 80 1 2
03 30 206 9000 0 0 0 0 3 5 0 0 0 FFTFTFTTFFFFFFFFF2 81 1 204 328 207 1 199 14 0
 0 208 83 1 205 17325 80 1 207 209 210 8040 0 0 0 0 3 5 0 0 0 TTTFFFFFFFFFFFFFF2
 81 1 14 329 211 1 204 2 0 0 212 83 3 208 .3098039215686275 .3098039215686275 .3
098039215686275 80 1 211 13 213 8038 0 0 0 0 0 0 0 0 0 TTTTTTTTTTTTTFTFT10 98 25
5 15 212 72 67 45 48 52 73 110 116 101 103 114 97 100 111 115 79 14 213 SDL/TYSA
_UNAME79 17 210 SDL/TYSA_COLOUR_279 18 206 BTI/importMaxCount80 1 201 214 215 90
00 0 0 0 0 3 5 0 0 0 TTTFFFFFFFFFFFFFF1 82 255 1 202 2 79 23 215 ONSHAPE_ORIGINA
LBODY_ID83 1 197 7489 83 1 174 7488 141 126 125 126 126 123 81 1 82 282 30 80 0
 0 79 117 216 83 1 120 7480 83 1 216 7479 17 36 0 104 78 38 45 28 37 0 76 +83 1
 98 7471 141 89 62 89 89 87 83 1 83 7478 81 1 31 265 30 21 0 0 27 48 217 83 1 50
 7463 83 1 217 7462 83 1 32 7461 19 18 45 0 1 0 10 6 0 S0 74 4 CI16 index_map_of
fset0 0 1 dCCZ20 16 6 0 0 198 195 199 204 14 2 0 0 0 0 0 0 0 0 0 0 0 0 0 0 80 1
 13 218 219 8017 0 0 0 0 0 0 0 0 0 TTTTTTTTTTTTTFTFT3 84 255 15 15 HC-04Integrad
os79 13 219 SDL/TYSA_NAME1 0 
