**ABCDEFGHIJKLMNOPQRSTUVWXYZabcdefghijklmnopqrstuvwxyz**************************
**PARASOLID !"#$%&'()*+,-./:;<=>?@[\]^_`{|}~0123456789**************************
**PART1;
MC=unknown;
MC_MODEL=unknown;
MC_ID=unknown;
OS=unknown;
OS_RELEASE=unknown;
FRU=Parasolid 37.0.173;
APPL=Onshape;
SITE=unknown;
USER=unknown;
FORMAT=text;
GUISE=transmit;
KEY=BTGapi::writeModels_.xmt;
FILE=BTGapi::writeModels_.xmt;
DATE=2024-12-29T04:00:26 (UTC);
**PART2;
SCH=SCH_3700173_36001;
USFLD_SIZE=0;
**PART3;
**END_OF_HEADER*****************************************************************
T51 : TRANSMIT FILE created by modeller version 370017323 SCH_3700173_36001_1300
6231 0 12 36 CCCI7 lattice222 0 CCCI4 mesh1006 0 I8 polyline1008 0 CCCCCCCDI5 ow
ner1040 0 CCCI16 boundary_lattice222 0 CCCI13 boundary_mesh1006 0 I17 boundary_p
olyline1008 0 CCCA16 index_map_offset0 0 1 dA9 index_map82 0 A17 node_id_index_m
ap82 0 A20 schema_embedding_map82 0 A5 child12 0 A14 lowest_node_id0 0 1 dA16 me
sh_offset_data206 0 Z1 357 2 3 0 0 0 0 0 0 0 1e3 1e-8 0 4 5 1 0 3 2 6 0 7 8 9 0
 0 10 11 12 0 0 0 0 0 0 0 81 255 1 2 316 13 1 14 0 0 0 15 70 11 CI9 list_type0 0
 1 uI10 notransmit0 0 1 lCCCDCCDI12 finger_index0 0 1 dI12 finger_block1012 0 CZ
3 0 4 T1 0 0 5 20 1 16 16 13 255 6 2 0 1 0 17 0 0 10 17 50 255 7 107 0 17 0 0 0
 +.00549 0 52e-5 0 1 0 -1 0 0 31 255 8 275 0 1 18 0 19 +.00560937207530084 31577
5436480045e-35 .0003699363533445365 578873997974504e-31 1 -199611723439476e-31 .
999714917983633 -573942960867186e-31 .02387640594766515 550186095152965e-19 29 2
55 9 143 0 12 20 0 .005291875 0 .001125 19 9 CCCCCCI5 frame230 0 CA5 owner12 0 Z
10 1 0 1 0 0 6 0 V0 16 255 11 43 21 ?22 0 23 24 0 0 1 18 255 12 42 25 22 0 26 9
 5e-7 1 81 1 25 276 27 12 0 0 0 28 29 17 255 22 0 0 0 0 12 30 11 0 31 +18 26 40
 28 32 12 33 20 5e-7 1 81 1 28 277 27 26 0 0 25 34 35 17 32 0 0 0 0 26 31 23 0 3
6 +18 33 38 34 30 26 37 38 5e-7 1 29 20 141 0 26 38 9 .00486125 0 52e-5 29 38 13
9 0 33 39 20 .00528375 0 980625e-9 29 39 138 0 37 40 38 .00528375 0 52e-5 18 37
 37 41 42 33 43 39 5e-7 1 29 40 135 0 43 44 39 .005664375 0 37125e-8 18 43 33 45
 46 37 47 40 5e-7 1 29 44 133 0 47 48 40 .005651875 0 335e-6 18 47 31 49 50 43 5
1 44 5e-7 1 29 48 131 0 51 52 44 .005616875 0 32e-5 18 51 29 53 54 47 55 48 5e-7
 1 29 52 129 0 55 56 48 .00549 0 32e-5 18 55 27 57 58 51 59 52 5e-7 1 29 56 127
 0 59 60 52 .00549 0 0 18 59 25 61 62 55 63 56 5e-7 1 29 60 125 0 63 64 56 .0052
8375 0 0 18 63 23 65 66 59 67 60 5e-7 1 29 64 123 0 67 68 60 .00528375 0 32e-5 1
8 67 21 69 70 63 71 64 5e-7 1 29 68 121 0 71 72 64 .004698125 0 32e-5 18 71 19 7
3 74 67 75 68 5e-7 1 29 72 119 0 75 76 68 .004655625 0 335625e-9 18 75 17 77 78
 71 79 72 5e-7 1 29 76 117 0 79 80 72 .0046325 0 375625e-9 18 79 15 81 82 75 83
 76 5e-7 1 29 80 115 0 83 84 76 .0046075 0 505e-6 18 83 13 85 86 79 87 80 5e-7 1
 29 84 113 0 87 88 80 .005265 0 .0014 18 87 11 89 90 83 91 84 5e-7 1 29 88 111 0
 91 92 84 .00549 0 .0014 18 91 9 93 94 87 95 88 5e-7 1 29 92 109 0 95 96 88 .005
664375 0 52e-5 18 95 7 97 98 91 99 92 5e-7 1 29 96 108 0 99 0 92 .00549 0 52e-5
 18 99 6 100 101 95 0 96 5e-7 1 81 1 100 294 27 99 0 0 97 21 102 17 101 0 0 0 0
 99 103 104 0 105 +17 103 0 106 107 105 91 101 104 0 0 -16 104 8 108 ?101 109 11
0 111 0 0 1 17 105 0 106 103 98 99 112 110 0 0 -15 255 106 4 0 105 17 0 17 98 0
 106 105 113 95 46 114 0 112 -17 112 0 0 0 0 95 105 110 0 0 +16 110 5 115 ?112 1
04 0 116 0 0 1 81 1 115 313 27 110 0 0 108 117 118 133 255 116 191 0 110 0 119 0
 +119 .00549 0 52e-5 .005664375 0 52e-5 0 174375e-9 30 255 119 110 0 1 116 111 1
20 +.00549 0 52e-5 1 0 0 133 111 193 0 104 119 121 0 +121 .00549 0 .0014 .00549
 0 52e-5 0 88e-5 141 255 120 116 120 120 119 30 121 112 0 1 111 122 123 +.00549
 0 .0014 0 0 -1 133 122 195 0 109 121 124 0 +124 .005265 0 .0014 .00549 0 .0014
 0 225e-6 141 123 111 123 123 121 16 109 10 125 ?94 126 104 122 0 0 1 30 124 114
 0 1 122 127 128 +.005265 0 .0014 1 0 0 133 127 197 0 126 124 129 0 +129 .004607
5 0 505e-6 .00526499999999989 0 .00140000000000008 0 .00111055447862768 141 128
 122 128 128 124 16 126 12 130 ?90 131 109 127 0 0 1 30 129 116 0 1 127 132 133
 +.0046075 0 505e-6 .592046597130805 0 .805903732976734 133 132 199 0 131 129 13
4 0 +134 .0046325 0 375625e-9 .0046075 0 505e-6 0 .0001317683217810716 141 133 1
27 133 133 129 16 131 14 135 ?86 136 126 132 0 0 1 30 134 118 0 1 132 137 138 +.
0046325 0 375625e-9 -.189726936353944 0 .981836895630709 133 137 205 0 139 134 1
40 0 +140 .00528375 0 32e-5 .004698125 0 32e-5 0 585625e-9 141 138 132 138 138 1
34 16 139 20 141 ?74 142 143 137 0 0 1 30 140 124 0 1 137 144 145 +.00528375 0 3
2e-5 -1 0 0 133 144 207 0 142 140 146 0 +146 .00528375 0 0 .00528375 0 32e-5 0 3
2e-5 141 145 137 145 145 140 16 142 22 147 ?70 148 139 144 0 0 1 30 146 126 0 1
 144 149 150 +.00528375 0 0 0 0 1 133 149 209 0 148 146 151 0 +151 .00549 0 0 .0
0528375 0 0 0 20625e-8 141 150 144 150 150 146 16 148 24 152 ?66 153 142 149 0 0
 1 30 151 128 0 1 149 154 155 +.00549 0 0 -1 0 0 133 154 211 0 153 151 156 0 +15
6 .00549 0 32e-5 .00549 0 0 0 32e-5 141 155 149 155 155 151 16 153 26 157 ?62 15
8 148 154 0 0 1 30 156 130 0 1 154 159 160 +.00549 0 32e-5 0 0 -1 133 159 213 0
 158 156 161 0 +161 .005616875 0 32e-5 .00549 0 32e-5 0 126875e-9 141 160 154 16
0 160 156 16 158 28 162 ?58 163 153 159 0 0 1 30 161 132 0 1 159 164 165 +.00561
6875 0 32e-5 -1 0 0 133 164 219 0 114 161 166 0 +166 .005664375 0 52e-5 .0056643
75 0 37125e-8 0 14875e-8 141 165 159 165 165 161 16 114 34 167 ?46 168 169 164 0
 0 1 30 166 137 0 1 164 170 171 +.005664375 0 52e-5 0 0 -1 133 170 221 0 168 166
 172 0 +172 .00528375 0 52e-5 .00528375 0 980625e-9 0 460625e-9 141 171 164 171
 171 166 16 168 36 173 ?174 175 114 170 0 0 1 30 172 140 0 1 170 176 177 +.00528
375 0 52e-5 0 0 1 133 176 223 0 175 172 178 0 +178 .00486125 0 52e-5 .00528375 0
 52e-5 0 4225e-7 141 177 170 177 177 172 16 175 39 179 ?42 23 168 176 0 0 1 30 1
78 142 0 1 176 180 181 +.00486125 0 52e-5 1 0 0 133 180 225 0 23 178 182 0 +182
 .005291875 0 .001125 .00486125000000018 0 .00051999999999987 0 .000742605474410
874 141 181 176 181 181 178 16 23 41 183 ?32 11 175 180 0 0 1 30 182 144 0 1 180
 24 184 +.005291875 0 .001125 -.57988395566494 0 -.814699084301917 133 24 258 0
 11 182 185 0 +185 .00528375 -1203706215242022e-50 980625e-9 .005291875 -1203706
215242022e-50 .001125 1909461473302745e-49 .1020311948824958 141 184 180 184 184
 182 31 185 259 0 1 24 186 187 +.00670159314550264 867060755394214e-34 .00097324
9087049641 -611356049861394e-31 1 3440531882336615e-33 -.99998646879796 -6115267
586335e-29 .0052021361945339 .0014178623308843 133 186 262 0 136 185 188 0 +188
 .004655625 -1730327684410405e-50 335625e-9 .0046325 -2407412430484045e-50 37562
5e-9 -177635683940025e-29 .646225342077264 141 187 24 187 187 185 16 136 16 189
 ?82 143 131 186 0 0 1 31 188 263 0 1 186 190 191 +.00470379118519106 4224535071
690055e-36 .000390155646126079 -530109694917148e-31 1 -306469667373972e-31 -.662
014966108309 -580636691740244e-31 -.749490616784904 727569430555377e-19 133 190
 266 0 143 188 192 0 +192 .004698125 -752316384526264e-50 32e-5 .004655625 -9027
79661431517e-50 335625e-9 117033521812702e-31 .73120421450086 141 191 186 191 19
1 188 16 143 18 193 ?78 139 136 190 0 0 1 31 192 267 0 1 190 194 195 +.004697283
17698491 362145710676748e-35 .000383322741398956 -211291768596521e-31 1 -5747136
10582539e-31 .01329299105856962 -571854131763297e-31 -.999911644290993 633283368
190559e-19 133 194 270 0 163 192 196 0 +196 .005651875 489005649942072e-50 335e-
6 .005616875 -413774011489445e-50 32e-5 -177635683940025e-29 .908726298640545 14
1 195 190 195 195 192 16 163 30 197 ?54 169 158 194 0 0 1 31 196 271 0 1 194 18
 198 +.00561902023496487 2386804089030155e-36 .0003633277850819725 2412060040636
72e-31 1 -562814009481907e-31 .757356244665858 -550197507024653e-31 -.6530019285
31324 43380859755935e-18 133 18 274 0 169 196 8 0 +8 .005664375 -25578757073893e
-48 37125e-8 .005651875 -3122112995783995e-50 335e-6 0 .711876285321226 141 198
 194 198 198 196 16 169 32 199 ?50 114 163 18 0 0 1 81 1 199 300 27 169 0 0 167
 197 200 17 50 0 0 0 0 47 113 169 0 201 +17 113 0 106 98 201 43 50 169 0 0 -17 2
01 0 106 113 202 47 54 163 0 0 -17 202 0 106 201 203 51 58 158 0 0 -17 54 0 0 0
 0 51 201 163 0 202 +17 203 0 106 202 204 55 62 153 0 0 -17 58 0 0 0 0 55 202 15
8 0 203 +17 204 0 106 203 205 59 66 148 0 0 -17 62 0 0 0 0 59 203 153 0 204 +17
 205 0 106 204 206 63 70 142 0 0 -17 66 0 0 0 0 63 204 148 0 205 +17 206 0 106 2
05 207 67 74 139 0 0 -17 70 0 0 0 0 67 205 142 0 206 +17 207 0 106 206 208 71 78
 143 0 0 -17 74 0 0 0 0 71 206 139 0 207 +17 208 0 106 207 209 75 82 136 0 0 -17
 78 0 0 0 0 75 207 143 0 208 +17 209 0 106 208 210 79 86 131 0 0 -17 82 0 0 0 0
 79 208 136 0 209 +17 210 0 106 209 107 83 90 126 0 0 -17 86 0 0 0 0 83 209 131
 0 210 +17 107 0 106 210 103 87 94 109 0 0 -17 90 0 0 0 0 87 210 126 0 107 +17 9
4 0 0 0 0 91 107 109 0 103 +80 7 CCCCCDI12 legal_owners0 17 1 lCZ1 27 211 212 90
00 0 0 0 0 3 5 0 0 0 FFTFTFTTFFFFFFFFF2 81 1 167 299 27 114 0 0 173 199 213 81 1
 197 301 27 163 0 0 199 162 214 83 255 1 200 6362 81 1 162 302 27 158 0 0 197 15
7 215 83 1 214 6363 81 1 157 303 27 153 0 0 162 152 216 83 1 215 6364 81 1 152 3
04 27 148 0 0 157 147 217 83 1 216 6365 81 1 147 305 27 142 0 0 152 141 218 83 1
 217 6366 81 1 141 306 27 139 0 0 147 193 219 83 1 218 6367 81 1 193 307 27 143
 0 0 141 189 220 83 1 219 6368 81 1 189 308 27 136 0 0 193 135 221 83 1 220 6369
 81 1 135 309 27 131 0 0 189 130 222 83 1 221 6370 81 1 130 310 27 126 0 0 135 1
25 223 83 1 222 6371 81 1 125 311 27 109 0 0 130 108 224 83 1 223 6372 81 1 108
 312 27 104 0 0 125 115 225 83 1 224 6373 83 1 225 6374 81 1 173 298 27 168 0 0
 179 167 226 83 1 213 6361 81 1 179 297 27 175 0 0 183 173 227 83 1 226 6360 81
 1 183 296 27 23 0 0 21 179 228 83 1 227 6359 81 1 21 295 27 11 0 0 100 183 229
 83 1 228 6358 83 1 229 6357 79 255 13 212 BTI/importTag17 42 0 0 0 0 37 36 175
 0 230 +17 36 0 231 31 230 26 42 175 0 0 -17 230 0 231 36 30 37 174 168 0 0 -15
 231 35 0 230 17 106 17 30 0 231 230 31 33 22 11 0 174 -17 174 0 0 0 0 33 230 16
8 0 0 +17 31 0 231 30 36 12 32 23 0 0 -14 255 17 3 117 ?0 0 231 6 7 -0 0 0 0 6 8
1 1 117 314 27 17 0 0 115 14 232 81 1 14 315 27 1 233 2 117 0 234 83 1 232 6376
 81 1 233 254 235 1 236 14 0 0 237 83 1 234 6377 80 1 235 238 239 9000 0 0 0 0 3
 5 0 0 0 TTTFFFFFFFFFFFFFF1 81 1 236 190 240 1 241 233 0 0 242 82 255 1 237 33 8
0 1 240 243 244 8038 0 0 0 0 0 0 0 0 0 TTTTTTTTTTTTTFTFT10 81 1 241 189 243 1 0
 236 0 0 245 98 255 19 242 72 67 45 48 52 83 104 97 112 101 83 116 114 105 110 1
03 48 48 54 80 1 243 246 247 8017 0 0 0 0 0 0 0 0 0 TTTTTTTTTTTTTFTFT3 84 255 19
 245 HC-04ShapeString00679 13 247 SDL/TYSA_NAME79 14 244 SDL/TYSA_UNAME79 23 239
 ONSHAPE_ORIGINALBODY_ID17 46 0 0 0 0 43 98 114 0 113 +83 1 118 6375 81 1 97 293
 27 95 0 0 93 100 248 83 1 102 6356 81 1 93 292 27 91 0 0 89 97 249 83 1 248 635
5 81 1 89 291 27 87 0 0 85 93 250 83 1 249 6354 81 1 85 290 27 83 0 0 81 89 251
 83 1 250 6353 81 1 81 289 27 79 0 0 77 85 252 83 1 251 6352 81 1 77 288 27 75 0
 0 73 81 253 83 1 252 6351 81 1 73 287 27 71 0 0 69 77 254 83 1 253 6350 81 1 69
 286 27 67 0 0 65 73 255 83 1 254 6349 81 1 65 285 27 63 0 0 61 69 256 83 1 255
 6348 81 1 61 284 27 59 0 0 57 65 257 83 1 256 6347 81 1 57 283 27 55 0 0 53 61
 258 83 1 257 6346 81 1 53 282 27 51 0 0 49 57 259 83 1 258 6345 81 1 49 281 27
 47 0 0 45 53 260 83 1 259 6344 81 1 45 280 27 43 0 0 41 49 261 83 1 260 6343 81
 1 41 279 27 37 0 0 34 45 262 83 1 261 6342 81 1 34 278 27 33 0 0 28 41 263 83 1
 262 6341 83 1 263 6340 83 1 35 6339 83 1 29 6338 141 19 18 19 19 8 74 4 CI16 in
dex_map_offset0 0 1 dCCZ20 16 5 0 0 241 236 233 14 2 0 0 0 0 0 0 0 0 0 0 0 0 0 0
 0 80 1 13 27 264 9000 0 0 0 0 3 5 0 0 0 FFTFTFTTFFFFFFFFF2 83 1 15 17325 79 18
 264 BTI/importMaxCount1 0 
