**ABCDEFGHIJKLMNOPQRSTUVWXYZabcdefghijklmnopqrstuvwxyz**************************
**PARASOLID !"#$%&'()*+,-./:;<=>?@[\]^_`{|}~0123456789**************************
**PART1;
MC=unknown;
MC_MODEL=unknown;
MC_ID=unknown;
OS=unknown;
OS_RELEASE=unknown;
FRU=Parasolid 37.0.173;
APPL=Onshape;
SITE=unknown;
USER=unknown;
FORMAT=text;
GUISE=transmit;
KEY=BTGapi::writeModels_.xmt;
FILE=BTGapi::writeModels_.xmt;
DATE=2024-12-29T04:00:25 (UTC);
**PART2;
SCH=SCH_3700173_36001;
USFLD_SIZE=0;
**PART3;
**END_OF_HEADER*****************************************************************
T51 : TRANSMIT FILE created by modeller version 370017323 SCH_3700173_36001_1300
6231 0 12 36 CCCI7 lattice222 0 CCCI4 mesh1006 0 I8 polyline1008 0 CCCCCCCDI5 ow
ner1040 0 CCCI16 boundary_lattice222 0 CCCI13 boundary_mesh1006 0 I17 boundary_p
olyline1008 0 CCCA16 index_map_offset0 0 1 dA9 index_map82 0 A17 node_id_index_m
ap82 0 A20 schema_embedding_map82 0 A5 child12 0 A14 lowest_node_id0 0 1 dA16 me
sh_offset_data206 0 Z1 663 2 3 0 0 0 0 0 0 0 1e3 1e-8 0 4 5 1 0 3 2 6 0 7 8 9 0
 0 10 11 12 0 0 0 0 0 0 0 81 255 1 2 592 13 1 14 0 0 0 15 70 11 CI9 list_type0 0
 1 uI10 notransmit0 0 1 lCCCDCCDI12 finger_index0 0 1 dI12 finger_block1012 0 CZ
3 0 4 T1 0 0 5 20 1 16 16 13 255 6 2 0 1 0 17 0 0 10 17 50 255 7 184 0 17 0 0 0
 +506e-6 0 .00112 0 -1 0 1 0 0 31 255 8 521 0 1 18 0 19 +.000608988509707613 211
7714513453335e-35 .000756069333128678 260725488813908e-31 1 554041663729555e-31
 .236608161194534 -599999515286881e-31 .971605155428964 .0003529527040435665 29
 255 9 250 0 12 20 0 4945e-7 0 64e-5 19 9 CCCCCCI5 frame230 0 CA5 owner12 0 Z10
 1 0 1 0 0 6 0 V0 16 255 11 74 21 ?22 0 23 24 0 0 1 18 255 12 73 25 22 0 26 9 5e
-7 1 81 1 25 522 27 12 0 0 0 28 29 17 255 22 0 0 0 0 12 30 11 0 31 +18 26 71 28
 32 12 33 20 5e-7 1 81 1 28 523 27 26 0 0 25 34 35 17 32 0 0 0 0 26 31 23 0 36 +
18 33 69 34 37 26 38 39 5e-7 1 29 20 248 0 26 39 9 6545e-7 0 678e-6 29 39 246 0
 33 40 20 709e-6 0 8e-4 29 40 244 0 38 41 39 6595e-7 0 923e-6 18 38 67 42 43 33
 44 40 5e-7 1 29 41 242 0 44 45 40 506e-6 0 96e-5 18 44 65 46 47 38 48 41 5e-7 1
 29 45 240 0 48 49 41 33e-5 0 64e-5 18 48 63 50 30 44 51 45 5e-7 1 29 49 239 0 5
1 52 45 33e-5 0 96e-5 18 51 62 53 54 48 55 49 5e-7 1 29 52 236 0 55 56 49 6985e-
7 0 2095e-7 18 55 58 57 58 51 59 52 5e-7 1 29 56 234 0 59 60 52 732e-6 0 2625e-7
 18 59 56 61 62 55 63 56 5e-7 1 29 60 232 0 63 64 56 7425e-7 0 327e-6 18 63 54 6
5 66 59 67 60 5e-7 1 29 64 230 0 67 68 60 731e-6 0 3905e-7 18 67 52 69 70 63 71
 64 5e-7 1 29 68 228 0 71 72 64 695e-6 0 439e-6 18 71 50 73 74 67 75 68 5e-7 1 2
9 72 226 0 75 76 68 6315e-7 0 4695e-7 18 75 48 77 78 71 79 72 5e-7 1 29 76 224 0
 79 80 72 5385e-7 0 48e-5 18 79 46 81 82 75 83 76 5e-7 1 29 80 222 0 83 84 76 33
e-5 0 48e-5 18 83 44 85 86 79 87 80 5e-7 1 29 84 220 0 87 88 80 33e-5 0 16e-5 18
 87 42 89 90 83 91 84 5e-7 1 29 88 218 0 91 92 84 6355e-7 0 1735e-7 18 91 40 93
 94 87 95 88 5e-7 1 29 92 217 0 95 96 88 539e-6 0 16e-5 18 95 39 97 98 91 99 92
 5e-7 1 29 96 214 0 99 100 92 82e-5 0 .001039 18 99 35 101 102 95 103 96 5e-7 1
 29 100 212 0 103 104 96 8925e-7 0 9445e-7 18 103 33 105 106 99 107 100 5e-7 1 2
9 104 210 0 107 108 100 9155e-7 0 8205e-7 18 107 31 109 110 103 111 104 5e-7 1 2
9 108 208 0 111 112 104 904e-6 0 7445e-7 18 111 29 113 114 107 115 108 5e-7 1 29
 112 206 0 115 116 108 868e-6 0 677e-6 18 115 27 117 118 111 119 112 5e-7 1 29 1
16 204 0 119 120 112 8065e-7 0 6195e-7 18 119 25 121 122 115 123 116 5e-7 1 29 1
20 202 0 123 124 116 718e-6 0 576e-6 18 123 23 125 126 119 127 120 5e-7 1 29 124
 200 0 127 128 120 947e-6 0 3275e-7 18 127 21 129 130 123 131 124 5e-7 1 29 128
 198 0 131 132 124 92e-5 0 1965e-7 18 131 19 133 134 127 135 128 5e-7 1 29 132 1
96 0 135 136 128 8415e-7 0 93e-6 18 135 17 137 138 131 139 132 5e-7 1 29 136 194
 0 139 140 132 715e-6 0 245e-7 18 139 15 141 142 135 143 136 5e-7 1 29 140 192 0
 143 144 136 543e-6 0 0 18 143 13 145 146 139 147 140 5e-7 1 29 144 190 0 147 14
8 140 1235e-7 0 0 18 147 11 149 150 143 151 144 5e-7 1 29 148 188 0 151 152 144
 1235e-7 0 .00112 18 151 9 153 154 147 155 148 5e-7 1 29 152 186 0 155 156 148 6
925e-7 0 .001099 18 155 7 157 158 151 159 152 5e-7 1 29 156 185 0 159 0 152 506e
-6 0 .00112 18 159 6 160 161 155 0 156 5e-7 1 81 1 160 555 27 159 0 0 157 21 162
 17 161 0 0 0 0 159 163 164 0 165 +17 163 0 166 167 165 151 161 164 0 0 -16 164
 8 168 ?161 169 170 171 0 0 1 17 165 0 166 163 158 159 172 170 0 0 -15 255 166 4
 0 165 17 0 17 158 0 166 165 173 155 102 174 0 172 -17 172 0 0 0 0 155 165 170 0
 0 +16 170 5 175 ?172 164 0 176 0 0 1 81 1 175 589 27 170 0 0 168 177 178 133 25
5 176 476 0 170 179 180 0 +180 506e-6 -601853107621011e-50 .00112 6925e-7 -60185
3107621011e-50 .001099 0 .259859186624937 31 179 473 0 1 181 176 182 +.000585025
36306203 1011712334752772e-35 .000334955614641447 -3037974813955315e-32 -1 53164
559244218e-30 .298381396065872 -598074908852903e-31 -.954446720609265 .000169161
4745539515 31 180 477 0 1 176 183 184 +.000518892267928507 439748073103467e-34 .
000395846808031745 685149646797806e-32 1 608478138703761e-31 -.01780041215310275
 -607162136885653e-31 .999841560111991 .000724267944900334 133 183 480 0 185 180
 186 0 +186 715e-6 0 245e-7 543e-6 -601853107621011e-50 0 1457235650105286e-31 .
3126211869263895 141 255 184 176 184 184 180 16 185 14 187 ?146 188 189 183 0 0
 1 31 186 481 0 1 183 190 191 +.000551269701926038 337516725839249e-34 .00055794
8419131482 863488873446e-29 1 -606204433602901e-31 .2934183720966265 -6048581686
84207e-31 -.955984131100598 .000558009700974154 133 190 484 0 188 186 192 0 +192
 8415e-7 -3009265538105055e-51 93e-6 715e-6 0 245e-7 434619429727273e-30 .386853
534503137 141 191 183 191 191 186 16 188 16 193 ?142 194 185 190 0 0 1 31 192 48
5 0 1 190 195 196 +.000603394218259841 2248525155694705e-35 .000381658852410659
 291570753117467e-31 1 -538448179114739e-31 .636322890698739 -600904361256495e-3
1 -.771422827490087 .000374190187435655 133 195 488 0 194 192 197 0 +197 92e-5 0
 1965e-7 8415e-7 3009265538105055e-51 93e-6 817645102066141e-48 .451312765119668
 141 196 190 196 196 192 16 194 18 198 ?138 199 188 195 0 0 1 31 197 489 0 1 195
 200 201 +.000655324868350337 1732440368529985e-35 .0003157246167584405 48787183
7597924e-31 1 -3700283985646095e-32 .911765702614685 -596799442397783e-31 -.4107
10729754593 .00029028853672676 133 200 492 0 199 197 202 0 +202 947e-6 0 3275e-7
 92e-5 0 1965e-7 0 .423364343961941 141 201 195 201 201 197 16 199 20 203 ?134 2
04 194 200 0 0 1 31 202 493 0 1 200 205 206 +.000628709440680772 190553197901123
5e-35 .0003248194282566345 599717858368328e-31 1 -123605970808739e-31 .999964538
732171 -59865564674832e-30 .00842147719563544 .0003183018467062645 133 205 496 0
 207 202 208 0 +208 8065e-7 3009265538105055e-51 6195e-7 718e-6 0 576e-6 4925553
13002647e-48 .2658590593298675 141 206 200 206 206 202 16 207 24 209 ?126 210 20
4 205 0 0 1 31 208 497 0 1 205 211 212 +.000599594347030775 2257846436843735e-35
 .000928670121558078 270107393892186e-31 1 -549528835849618e-31 .556173650353759
 -606921404368004e-31 -.83106610486301 .000372016280954017 133 211 500 0 210 208
 213 0 +213 868e-6 0 677e-6 8065e-7 0 6195e-7 0 .313651095459407 141 212 205 212
 212 208 16 210 26 214 ?122 215 207 211 0 0 1 31 213 501 0 1 211 216 217 +.00065
543065910191 1630160112115235e-35 .00084271764287361 418187963811751e-31 1 -4472
793004247415e-32 .78865781235096 -604809001322046e-31 -.614832379610735 .0002695
330440770365 133 216 504 0 215 213 218 0 +218 904e-6 902779661431517e-50 7445e-7
 868e-6 601853107621011e-50 677e-6 64977126172695e-47 .3539441729687795 141 217
 211 217 217 213 16 215 28 219 ?118 220 210 216 0 0 1 31 218 505 0 1 216 221 222
 +.000697287063945483 1309604594215562e-35 .000811396899229076 540285352565008e-
31 1 -2881521880346725e-32 .951418654633159 -602759684474399e-31 -.3079002169795
11 .000217268113304148 133 221 508 0 220 218 223 0 +223 9155e-7 -300926553810505
5e-51 8205e-7 904e-6 -3009265538105055e-51 7445e-7 572882751931396e-48 .31055423
46215055 141 222 216 222 222 218 16 220 30 224 ?114 225 215 221 0 0 1 31 223 509
 0 1 221 226 227 +.0006669962522024 1503358782902085e-35 .000819232474995689 605
431504737801e-31 1 -916113461116401e-32 .999986992054303 -604956360061462e-31 .0
0510056096798503 .0002485069803629055 133 226 512 0 225 223 228 0 +228 8925e-7 3
009265538105055e-51 9445e-7 9155e-7 0 8205e-7 848516719604213e-31 .3974098727946
75 141 227 221 227 227 223 16 225 32 229 ?110 230 220 226 0 0 1 31 228 513 0 1 2
26 231 232 +.000596096987461891 1917520191193725e-35 .000825388957351802 6020543
58131179e-31 1 1116713728791704e-32 .927881969847299 -600274739784585e-31 .37287
40404376475 .0003194404268755085 133 231 516 0 230 228 233 0 +233 82e-5 60185310
7621011e-50 .001039 8925e-7 601853107621011e-50 9445e-7 927532831797226e-48 .517
562564654183 141 232 226 232 232 228 16 230 34 234 ?106 174 225 231 0 0 1 31 233
 517 0 1 231 18 235 +.000677757497218768 137754773780613e-34 .00085481130739006
 485819601439514e-31 1 3727187418451295e-32 .611218451185437 -591934603422179e-3
1 .791461941555294 .000232719582508279 133 18 520 0 174 233 8 0 +8 6925e-7 30092
65538105055e-51 .001099 82e-5 3009265538105055e-51 .001039 733388106346842e-48 .
401938376443011 141 235 231 235 235 233 16 174 36 236 ?102 237 230 18 0 0 1 81 1
 236 574 27 174 0 0 238 234 239 17 102 0 0 0 0 99 158 174 0 173 +16 237 38 238 ?
240 241 174 242 0 0 1 81 1 238 573 27 237 0 0 243 236 244 17 240 0 0 0 0 91 245
 237 0 0 +16 241 41 243 ?98 246 237 247 0 0 1 133 242 444 0 237 248 249 0 +249 5
39e-6 -3009265538105055e-51 16e-5 6355e-7 -601853107621011e-50 1735e-7 601548795
555774e-48 .3266557405378285 31 248 441 0 1 250 242 251 +.00056892708204601 7566
39760017976e-35 .000789400401872889 -55907475343991e-30 -1 2497506070694685e-32
 .609175280900979 -53863564474642e-30 -.793035608998242 .000140473391874054 31 2
49 445 0 1 242 252 253 +.000546290229992167 1810258712521845e-35 .00045953650413
0069 -848356858330638e-32 -1 606418050584494e-31 -.0243311637946138 -60417437162
2332e-31 -.999703953412409 .000299625207150202 133 252 448 0 254 249 255 0 +255
 6315e-7 -3009265538105055e-51 4695e-7 5385e-7 0 48e-5 484217165036075e-48 .2612
52256971552 141 253 242 253 253 249 16 254 47 256 ?82 257 258 252 0 0 1 31 255 4
49 0 1 252 259 260 +.00054503781584187 2181093255177795e-35 .000120799226027987
 -686968295434087e-32 -1 -608457633098763e-31 .2406672605621055 -607106729797739
e-31 .970607680627725 .0003592602664616215 133 259 452 0 257 255 261 0 +261 695e
-6 601853107621011e-50 439e-6 6315e-7 451389830715758e-50 4695e-7 0 .41964104289
12865 141 260 252 260 260 255 16 257 49 262 ?78 263 254 259 0 0 1 31 261 453 0 1
 259 264 265 +.00059163856595596 1012776573896792e-35 .0003051573422361795 -2651
126406507345e-32 -1 -551955825617104e-31 .611216294955804 -59889411446389e-30 .7
91463606731542 .0001691077854060055 133 264 456 0 263 261 266 0 +266 731e-6 -150
463276905253e-50 3905e-7 695e-6 -150463276905253e-50 439e-6 914275279025362e-48
 .509443608206206 141 265 259 265 265 261 16 263 51 267 ?74 268 257 264 0 0 1 31
 266 457 0 1 264 269 270 +.000619866061858905 710214247524695e-35 .0003456196541
633105 -491677459695271e-31 -1 -3649564649284485e-32 .927243771261588 -592565824
889986e-31 .374458260232818 .0001198540681377552 133 269 460 0 268 266 271 0 +27
1 7425e-7 0 327e-6 731e-6 150463276905253e-50 3905e-7 713670061872504e-48 .39053
6958158968 141 270 264 270 270 266 16 268 53 272 ?70 273 263 269 0 0 1 31 271 46
1 0 1 269 274 275 +.000576225216609274 998919880485132e-35 .000329678582535538 -
602522331753465e-31 -1 -1091182175616512e-32 .999870269297375 -600686568064942e-
31 -.0161072832965284 .0001662963571339815 133 274 464 0 273 271 276 0 +276 732e
-6 3009265538105055e-51 2625e-7 7425e-7 451389830715758e-50 327e-6 3440119824536
515e-32 .333299545768783 141 275 269 275 275 271 16 273 55 277 ?66 278 268 274 0
 0 1 31 276 465 0 1 274 279 280 +.000545525195078893 118942978343166e-34 .000325
961014754599 -604367646927784e-31 -1 983854308952205e-32 .946680520611859 -60384
0292036623e-31 -.32217385352331 .000196977545075697 133 279 468 0 278 276 281 0
 +281 6985e-7 -150463276905253e-50 2095e-7 732e-6 -3009265538105055e-51 2625e-7
 205521852729096e-30 .480010232767057 141 280 274 280 280 276 16 278 57 282 ?62
 283 273 279 0 0 1 31 281 469 0 1 279 181 284 +.000606963918611894 7844097004907
17e-35 .000304444975971727 -517596575444988e-31 -1 3271600995737185e-32 .6940648
34617229 -594772226194494e-31 -.719912498396687 .000131884050052164 133 181 472
 0 283 281 179 0 +179 6355e-7 150463276905253e-50 1735e-7 6985e-7 15046327690525
3e-50 2095e-7 785424001775252e-48 .432299533093322 141 284 279 284 284 281 16 28
3 59 285 ?58 286 278 181 0 0 1 81 1 285 563 27 283 0 0 287 282 288 17 58 0 0 0 0
 55 94 283 0 289 +16 286 61 287 ?290 291 283 292 0 0 1 81 1 287 562 27 286 0 0 2
93 285 294 17 290 0 0 0 0 48 295 286 0 0 +16 291 64 293 ?54 296 286 297 0 0 1 13
3 292 382 0 286 298 299 0 +299 33e-5 0 96e-5 33e-5 0 64e-5 0 32e-5 30 255 298 22
5 0 1 300 292 301 +5385e-7 0 48e-5 -1 0 0 30 299 241 0 1 292 297 302 +33e-5 0 96
e-5 0 0 -1 133 297 384 0 291 299 303 0 +303 506e-6 0 96e-5 33e-5 0 96e-5 0 176e-
6 141 302 292 302 302 299 30 303 243 0 1 297 304 305 +506e-6 0 96e-5 -1 0 0 133
 304 386 0 296 303 306 0 +306 6595e-7 0 923e-6 506e-6 0 96e-5 0 1 141 305 297 30
5 305 303 16 296 66 307 ?47 308 291 304 0 0 1 134 255 306 245 0 1 304 309 310 +3
11 312 133 309 388 0 308 306 313 0 +313 709e-6 0 8e-4 6595e-7 0 923e-6 0 1 141 3
10 304 310 310 306 136 255 311 3 4 3 2 1 FFF1 314 315 316 135 255 312 2 0 45 255
 12 314 6595e-7 0 923e-6 .000626833333333333 0 .000947666666666667 .000575666666
666667 0 96e-5 506e-6 0 96e-5 127 255 2 315 4 4 128 255 2 316 0 1 16 308 68 317
 ?43 318 296 309 0 0 1 134 313 247 0 1 309 319 320 +321 322 133 319 392 0 23 313
 323 0 +323 4945e-7 0 64e-5 6545e-7 0 678e-6 0 1 141 320 309 320 320 313 136 321
 3 4 3 2 1 FFF1 324 325 326 135 322 2 0 45 12 324 709e-6 0 8e-4 709e-6 0 .000857
666666666667 6925e-7 0 .000898666666666667 6595e-7 0 923e-6 127 2 325 4 4 128 2
 326 0 1 16 23 72 327 ?32 11 318 319 0 0 1 134 323 251 0 1 319 24 328 +329 330 1
33 24 394 0 11 323 331 0 +331 33e-5 0 64e-5 4945e-7 0 64e-5 0 1645e-7 141 328 31
9 328 328 323 136 329 3 4 3 2 1 FFF1 332 333 334 135 330 2 0 45 12 332 4945e-7 0
 64e-5 .000565166666666667 0 64e-5 6185e-7 0 .000652666666666667 6545e-7 0 678e-
6 127 2 333 4 4 128 2 334 0 1 30 331 252 0 1 24 250 335 +33e-5 0 64e-5 1 0 0 133
 250 440 0 318 331 248 0 +248 6545e-7 150463276905253e-50 678e-6 709e-6 15046327
6905253e-50 8e-4 0 .991304161187295 141 335 24 335 335 331 16 318 70 336 ?37 23
 308 250 0 0 1 81 1 336 558 27 318 0 0 327 317 337 17 37 0 0 0 0 33 36 318 0 338
 +17 36 0 339 31 338 26 37 318 0 0 -17 338 0 339 36 340 33 43 308 0 0 -15 339 60
 0 295 17 341 17 340 0 339 338 342 38 47 296 0 0 -17 43 0 0 0 0 38 338 308 0 340
 +17 342 0 339 340 295 44 54 291 0 0 -17 47 0 0 0 0 44 340 296 0 342 +17 295 0 3
39 342 30 51 290 286 0 0 -17 54 0 0 0 0 51 342 291 0 295 +17 30 0 339 295 31 48
 22 11 0 290 -17 31 0 339 30 36 12 32 23 0 0 -14 255 17 3 177 ?0 0 339 6 7 +0 0
 0 0 6 15 341 37 0 245 17 166 17 245 0 341 343 94 95 240 237 0 0 -17 343 0 341 3
44 245 87 98 241 0 0 -17 94 0 341 245 289 91 58 283 0 240 -17 289 0 341 94 345 5
5 62 278 0 0 -17 345 0 341 289 346 59 66 273 0 0 -17 62 0 0 0 0 59 289 278 0 345
 +17 346 0 341 345 347 63 70 268 0 0 -17 66 0 0 0 0 63 345 273 0 346 +17 347 0 3
41 346 348 67 74 263 0 0 -17 70 0 0 0 0 67 346 268 0 347 +17 348 0 341 347 349 7
1 78 257 0 0 -17 74 0 0 0 0 71 347 263 0 348 +17 349 0 341 348 350 75 82 254 0 0
 -17 78 0 0 0 0 75 348 257 0 349 +17 350 0 341 349 344 79 86 258 0 0 -17 82 0 0
 0 0 79 349 254 0 350 +17 344 0 341 350 343 83 90 246 0 0 -17 86 0 0 0 0 83 350
 258 0 344 +16 258 45 351 ?86 254 246 300 0 0 1 81 1 351 570 27 258 0 0 256 352
 353 16 246 43 352 ?90 258 241 354 0 0 1 133 300 366 0 258 355 298 0 +298 5385e-
7 0 48e-5 33e-5 0 48e-5 0 2085e-7 30 355 223 0 1 354 300 356 +33e-5 0 48e-5 0 0
 -1 133 354 364 0 246 357 355 0 +355 33e-5 0 48e-5 33e-5 0 16e-5 0 32e-5 141 356
 354 356 356 355 30 357 221 0 1 247 354 358 +33e-5 0 16e-5 1 0 0 133 247 362 0 2
41 359 357 0 +357 33e-5 0 16e-5 539e-6 0 16e-5 0 209e-6 141 358 247 358 358 357
 134 359 203 0 1 360 247 361 +362 363 133 360 344 0 204 364 359 0 +359 718e-6 0
 576e-6 947e-6 0 3275e-7 0 1 141 361 360 361 361 359 136 362 3 4 3 2 1 FFF1 365
 366 367 135 363 2 0 45 12 365 718e-6 0 576e-6 .000870666666666667 0 .0005416666
66666667 947e-6 0 .000458833333333333 947e-6 0 3275e-7 127 2 366 4 4 128 2 367 0
 1 16 204 22 368 ?130 207 199 360 0 0 1 30 364 193 0 1 369 360 370 +543e-6 0 0 -
1 0 0 133 369 334 0 189 371 364 0 +364 543e-6 0 0 1235e-7 0 0 0 4195e-7 141 370
 369 370 370 364 16 189 12 372 ?150 185 169 369 0 0 1 30 371 191 0 1 373 369 374
 +1235e-7 0 0 0 0 1 133 373 332 0 169 375 371 0 +371 1235e-7 0 0 1235e-7 0 .0011
2 0 .00112 141 374 373 374 374 371 16 169 10 376 ?154 189 164 373 0 0 1 30 375 1
89 0 1 171 373 377 +1235e-7 0 .00112 1 0 0 133 171 330 0 164 0 375 0 +375 1235e-
7 0 .00112 506e-6 0 .00112 0 3825e-7 141 377 171 377 377 375 81 1 376 587 27 169
 0 0 372 168 378 17 154 0 0 0 0 151 167 169 0 163 +17 167 0 166 379 163 147 154
 169 0 0 -17 379 0 166 380 167 143 150 189 0 0 -17 380 0 166 381 379 139 146 185
 0 0 -17 150 0 0 0 0 147 379 189 0 167 +17 381 0 166 382 380 135 142 188 0 0 -17
 146 0 0 0 0 143 380 185 0 379 +17 382 0 166 383 381 131 138 194 0 0 -17 142 0 0
 0 0 139 381 188 0 380 +17 383 0 166 384 382 127 134 199 0 0 -17 138 0 0 0 0 135
 382 194 0 381 +17 384 0 166 385 383 123 130 204 0 0 -17 134 0 0 0 0 131 383 199
 0 382 +17 385 0 166 386 384 119 126 207 0 0 -17 130 0 0 0 0 127 384 204 0 383 +
17 386 0 166 387 385 115 122 210 0 0 -17 126 0 0 0 0 123 385 207 0 384 +17 387 0
 166 388 386 111 118 215 0 0 -17 122 0 0 0 0 119 386 210 0 385 +17 388 0 166 389
 387 107 114 220 0 0 -17 118 0 0 0 0 115 387 215 0 386 +17 389 0 166 173 388 103
 110 225 0 0 -17 114 0 0 0 0 111 388 220 0 387 +17 173 0 166 158 389 99 106 230
 0 0 -17 110 0 0 0 0 107 389 225 0 388 +17 106 0 0 0 0 103 173 230 0 389 +80 7 C
CCCCDI12 legal_owners0 17 1 lCZ1 27 390 391 9000 0 0 0 0 3 5 0 0 0 FFTFTFTTFFFFF
FFFF2 81 1 372 586 27 189 0 0 187 376 392 81 1 168 588 27 164 0 0 376 175 393 83
 255 1 378 1207 83 1 393 1208 81 1 187 585 27 185 0 0 193 372 394 83 1 392 1206
 81 1 193 584 27 188 0 0 198 187 395 83 1 394 1205 81 1 198 583 27 194 0 0 203 1
93 396 83 1 395 1204 81 1 203 582 27 199 0 0 368 198 397 83 1 396 1203 81 1 368
 581 27 204 0 0 209 203 398 83 1 397 1202 81 1 209 580 27 207 0 0 214 368 399 83
 1 398 1201 81 1 214 579 27 210 0 0 219 209 400 83 1 399 12e2 81 1 219 578 27 21
5 0 0 224 214 401 83 1 400 1199 81 1 224 577 27 220 0 0 229 219 402 83 1 401 119
8 81 1 229 576 27 225 0 0 234 224 403 83 1 402 1197 81 1 234 575 27 230 0 0 236
 229 404 83 1 403 1196 83 1 404 1195 79 255 13 391 BTI/importTag81 1 352 571 27
 246 0 0 351 243 405 17 90 0 0 0 0 87 344 246 0 343 +81 1 243 572 27 241 0 0 352
 238 406 83 1 405 1191 83 1 406 1192 81 1 256 569 27 254 0 0 262 351 407 83 1 35
3 1190 81 1 262 568 27 257 0 0 267 256 408 83 1 407 1189 81 1 267 567 27 263 0 0
 272 262 409 83 1 408 1188 81 1 272 566 27 268 0 0 277 267 410 83 1 409 1187 81
 1 277 565 27 273 0 0 282 272 411 83 1 410 1186 81 1 282 564 27 278 0 0 285 277
 412 83 1 411 1185 83 1 412 1184 17 98 0 0 0 0 95 343 241 0 245 +81 1 177 590 27
 17 0 0 175 14 413 81 1 14 591 27 1 414 2 177 0 415 83 1 413 1210 81 1 414 436 4
16 1 417 14 0 0 418 83 1 415 1211 80 1 416 419 420 9000 0 0 0 0 3 5 0 0 0 TTTFFF
FFFFFFFFFFF1 81 1 417 327 421 1 422 414 0 0 423 82 255 1 418 1 80 1 421 424 425
 8038 0 0 0 0 0 0 0 0 0 TTTTTTTTTTTTTFTFT10 81 1 422 326 424 1 0 417 0 0 426 98
 255 19 423 72 67 45 48 52 83 104 97 112 101 83 116 114 105 110 103 48 49 49 80
 1 424 427 428 8017 0 0 0 0 0 0 0 0 0 TTTTTTTTTTTTTFTFT3 84 255 19 426 HC-04Shap
eString01179 13 428 SDL/TYSA_NAME79 14 425 SDL/TYSA_UNAME79 23 420 ONSHAPE_ORIGI
NALBODY_ID81 1 327 557 27 23 0 0 21 336 429 81 1 317 559 27 308 0 0 336 307 430
 83 1 337 1178 81 1 307 560 27 296 0 0 317 293 431 83 1 430 1179 81 1 293 561 27
 291 0 0 307 287 432 83 1 431 1180 83 1 432 1181 81 1 21 556 27 11 0 0 160 327 4
33 83 1 429 1177 83 1 433 1176 141 301 300 301 301 298 83 1 294 1182 83 1 288 11
83 141 251 250 251 251 248 83 1 244 1193 83 1 239 1194 141 182 181 182 182 179 8
3 1 178 1209 81 1 157 554 27 155 0 0 153 160 434 83 1 162 1175 81 1 153 553 27 1
51 0 0 149 157 435 83 1 434 1174 81 1 149 552 27 147 0 0 145 153 436 83 1 435 11
73 81 1 145 551 27 143 0 0 141 149 437 83 1 436 1172 81 1 141 550 27 139 0 0 137
 145 438 83 1 437 1171 81 1 137 549 27 135 0 0 133 141 439 83 1 438 1170 81 1 13
3 548 27 131 0 0 129 137 440 83 1 439 1169 81 1 129 547 27 127 0 0 125 133 441 8
3 1 440 1168 81 1 125 546 27 123 0 0 121 129 442 83 1 441 1167 81 1 121 545 27 1
19 0 0 117 125 443 83 1 442 1166 81 1 117 544 27 115 0 0 113 121 444 83 1 443 11
65 81 1 113 543 27 111 0 0 109 117 445 83 1 444 1164 81 1 109 542 27 107 0 0 105
 113 446 83 1 445 1163 81 1 105 541 27 103 0 0 101 109 447 83 1 446 1162 81 1 10
1 540 27 99 0 0 97 105 448 83 1 447 1161 81 1 97 539 27 95 0 0 93 101 449 83 1 4
48 1160 81 1 93 538 27 91 0 0 89 97 450 83 1 449 1159 81 1 89 537 27 87 0 0 85 9
3 451 83 1 450 1158 81 1 85 536 27 83 0 0 81 89 452 83 1 451 1157 81 1 81 535 27
 79 0 0 77 85 453 83 1 452 1156 81 1 77 534 27 75 0 0 73 81 454 83 1 453 1155 81
 1 73 533 27 71 0 0 69 77 455 83 1 454 1154 81 1 69 532 27 67 0 0 65 73 456 83 1
 455 1153 81 1 65 531 27 63 0 0 61 69 457 83 1 456 1152 81 1 61 530 27 59 0 0 57
 65 458 83 1 457 1151 81 1 57 529 27 55 0 0 53 61 459 83 1 458 1150 81 1 53 528
 27 51 0 0 50 57 460 83 1 459 1149 81 1 50 527 27 48 0 0 46 53 461 83 1 460 1148
 81 1 46 526 27 44 0 0 42 50 462 83 1 461 1147 81 1 42 525 27 38 0 0 34 46 463 8
3 1 462 1146 81 1 34 524 27 33 0 0 28 42 464 83 1 463 1145 83 1 464 1144 83 1 35
 1143 83 1 29 1142 141 19 18 19 19 8 74 4 CI16 index_map_offset0 0 1 dCCZ20 16 5
 0 0 422 417 414 14 2 0 0 0 0 0 0 0 0 0 0 0 0 0 0 0 80 1 13 27 465 9000 0 0 0 0
 3 5 0 0 0 FFTFTFTTFFFFFFFFF2 83 1 15 17325 79 18 465 BTI/importMaxCount1 0 
