**ABCDEFGHIJKLMNOPQRSTUVWXYZabcdefghijklmnopqrstuvwxyz**************************
**PARASOLID !"#$%&'()*+,-./:;<=>?@[\]^_`{|}~0123456789**************************
**PART1;
MC=unknown;
MC_MODEL=unknown;
MC_ID=unknown;
OS=unknown;
OS_RELEASE=unknown;
FRU=Parasolid 37.0.173;
APPL=Onshape;
SITE=unknown;
USER=unknown;
FORMAT=text;
GUISE=transmit;
KEY=BTGapi::writeModels_.xmt;
FILE=BTGapi::writeModels_.xmt;
DATE=2024-12-29T04:00:25 (UTC);
**PART2;
SCH=SCH_3700173_36001;
USFLD_SIZE=0;
**PART3;
**END_OF_HEADER*****************************************************************
T51 : TRANSMIT FILE created by modeller version 370017323 SCH_3700173_36001_1300
6231 0 12 36 CCCI7 lattice222 0 CCCI4 mesh1006 0 I8 polyline1008 0 CCCCCCCDI5 ow
ner1040 0 CCCI16 boundary_lattice222 0 CCCI13 boundary_mesh1006 0 I17 boundary_p
olyline1008 0 CCCA16 index_map_offset0 0 1 dA9 index_map82 0 A17 node_id_index_m
ap82 0 A20 schema_embedding_map82 0 A5 child12 0 A14 lowest_node_id0 0 1 dA16 me
sh_offset_data206 0 Z1 719 2 3 0 0 0 0 0 0 0 1e3 1e-8 0 4 5 1 0 3 2 6 0 7 8 9 0
 0 10 11 12 0 0 0 0 0 0 0 81 255 1 2 646 13 1 14 0 0 0 15 70 11 CI9 list_type0 0
 1 uI10 notransmit0 0 1 lCCCDCCDI12 finger_index0 0 1 dI12 finger_block1012 0 CZ
3 0 4 T1 0 0 5 20 1 16 16 13 255 6 2 0 1 0 17 0 0 10 17 50 255 7 185 0 17 0 0 0
 +.00245 0 61e-5 0 -1 0 1 0 0 31 255 8 573 0 1 18 0 19 +.00241250478316885 22883
77530887965e-36 .000626710432588664 151478549738739e-31 1 -593290986476714e-31 .
534360584398919 -582427304545141e-31 -.845256627209066 392903545735227e-19 29 25
5 9 253 0 12 20 0 .00241 0 5875e-7 19 9 CCCCCCI5 frame230 0 CA5 owner12 0 Z10 1
 0 1 0 0 6 0 V0 16 255 11 74 21 ?22 0 23 18 0 0 1 18 255 12 73 24 22 0 25 9 5e-7
 1 81 1 24 574 26 12 0 0 0 27 28 17 255 22 0 0 0 0 12 29 11 0 30 +18 25 71 27 31
 12 32 20 5e-7 1 81 1 27 575 26 25 0 0 24 33 34 17 31 0 0 0 0 25 30 23 0 35 +18
 32 69 33 36 25 37 38 5e-7 1 29 20 251 0 25 38 9 .0023815 0 5955e-7 29 38 249 0
 32 39 20 .0023485 0 6135e-7 29 39 247 0 37 40 38 .002303 0 632e-6 18 37 67 41 4
2 32 43 39 5e-7 1 29 40 245 0 43 44 39 .0022375 0 64e-5 18 43 65 45 46 37 47 40
 5e-7 1 29 44 243 0 47 48 40 .00215 0 6235e-7 18 47 63 49 50 43 51 44 5e-7 1 29
 48 241 0 51 52 44 .0020875 0 576e-6 18 51 61 53 54 47 55 48 5e-7 1 29 52 239 0
 55 56 48 .00205 0 5005e-7 18 55 59 57 58 51 59 52 5e-7 1 29 56 237 0 59 60 52 .
002038 0 401e-6 18 59 57 61 62 55 63 56 5e-7 1 29 60 235 0 63 64 56 .002051 0 29
8e-6 18 63 55 65 66 59 67 60 5e-7 1 29 64 233 0 67 68 60 .00209 0 222e-6 18 67 5
3 69 70 63 71 64 5e-7 1 29 68 231 0 71 72 64 .0021515 0 1755e-7 18 71 51 73 74 6
7 75 68 5e-7 1 29 72 229 0 75 76 68 .002233 0 16e-5 18 75 49 77 78 71 79 72 5e-7
 1 29 76 227 0 79 80 72 .002306 0 17e-5 18 79 47 81 82 75 83 76 5e-7 1 29 80 225
 0 83 84 76 .002353 0 193e-6 18 83 45 85 86 79 87 80 5e-7 1 29 84 223 0 87 88 80
 .0023865 0 2155e-7 18 87 43 89 90 83 91 84 5e-7 1 29 88 221 0 91 92 84 .0024185
 0 226e-6 18 91 41 93 94 87 95 88 5e-7 1 29 92 219 0 95 96 88 .002453 0 209e-6 1
8 95 39 97 98 91 99 92 5e-7 1 29 96 217 0 99 100 92 .002508 0 1425e-7 18 99 37 1
01 102 95 103 96 5e-7 1 29 100 215 0 103 104 96 .0024395 0 74e-6 18 103 35 105 1
06 99 107 100 5e-7 1 29 104 213 0 107 108 100 .002363 0 3e-5 18 107 33 109 110 1
03 111 104 5e-7 1 29 108 211 0 111 112 104 .0022815 0 65e-7 18 111 31 113 114 10
7 115 108 5e-7 1 29 112 209 0 115 116 108 .0021985 0 -4440892098501e-31 18 115 2
9 117 118 111 119 112 5e-7 1 29 116 207 0 119 120 112 .002061 0 265e-7 18 119 27
 121 122 115 123 116 5e-7 1 29 120 205 0 123 124 116 .001948 0 105e-6 18 123 25
 125 126 119 127 120 5e-7 1 29 124 203 0 127 128 120 .0018715 0 231e-6 18 127 23
 129 130 123 131 124 5e-7 1 29 128 201 0 131 132 124 .0018435 0 401e-6 18 131 21
 133 134 127 135 128 5e-7 1 29 132 199 0 135 136 128 .0018685 0 5595e-7 18 135 1
9 137 138 131 139 132 5e-7 1 29 136 197 0 139 140 132 .0019415 0 686e-6 18 139 1
7 141 142 135 143 136 5e-7 1 29 140 195 0 143 144 136 .0020615 0 7695e-7 18 143
 15 145 146 139 147 140 5e-7 1 29 144 193 0 147 148 140 .002226 0 8e-4 18 147 13
 149 150 143 151 144 5e-7 1 29 148 191 0 151 152 144 .0023805 0 768e-6 18 151 11
 153 154 147 155 148 5e-7 1 29 152 189 0 155 156 148 .0025 0 6775e-7 18 155 9 15
7 158 151 159 152 5e-7 1 29 156 187 0 159 160 152 .0024335 0 5935e-7 18 159 7 16
1 29 155 162 156 5e-7 1 29 160 186 0 162 0 156 .00245 0 61e-5 18 162 6 163 164 1
59 0 160 5e-7 1 81 1 163 608 26 162 0 0 161 21 165 17 164 0 0 0 0 162 166 167 0
 168 +17 166 0 169 170 168 155 164 167 0 0 -16 167 8 171 ?164 172 173 174 0 0 1
 17 168 0 169 166 29 162 175 173 0 0 -15 255 169 4 0 168 17 0 17 29 0 169 168 30
 159 22 11 0 175 -17 175 0 0 0 0 159 168 173 0 0 +16 173 5 176 ?175 167 0 177 0
 0 1 81 1 176 643 26 173 0 0 171 178 179 133 255 177 448 0 173 180 181 0 +181 .0
0245 0 61e-5 .0024335 0 5935e-7 -116672618895779e-19 1166726188957842e-20 30 255
 180 220 0 1 182 177 183 +.002453 0 209e-6 .637330529974671 0 -.770590549878602
 30 181 449 0 1 177 184 185 +.00244175 0 60175e-8 -.707106781186559 0 -.70710678
1186536 133 184 452 0 172 181 186 0 +186 .0023805 3009265538105055e-51 768e-6 .0
025 902779661431517e-50 6775e-7 728967243712605e-48 .3993773860993235 141 255 18
5 177 185 185 181 16 172 10 187 ?158 188 167 184 0 0 1 31 186 453 0 1 184 189 19
0 +.002216667293587435 2267654331326405e-35 .0004275220064497075 369677541395960
5e-32 1 488137748031129e-31 .433598300450613 -600155540125528e-31 .9011062722267
22 .000377844438602051 133 189 456 0 188 186 191 0 +191 .002226 -601853107621011
e-50 8e-4 .0023805 0 768e-6 0 .450025717261787 141 190 184 190 190 186 16 188 12
 192 ?154 193 172 189 0 0 1 31 191 457 0 1 189 194 195 +.002233347091524545 2110
4528163283e-33 .0004465000200169395 1241884798507062e-32 1 599597504279191e-31 -
.0207793652000663 -596887484816189e-31 .999784085681445 .00035357632217372 133 1
94 460 0 193 191 196 0 +196 .0020615 902779661431517e-50 7695e-7 .002226 6018531
07621011e-50 8e-4 736322239471725e-48 .4036396488632835 141 195 189 195 195 191
 16 193 14 197 ?150 198 188 194 0 0 1 31 196 461 0 1 194 199 200 +.0022182837339
7023 2503451740627325e-35 .000382756582357292 -1116285715099862e-32 1 6020622955
21074e-31 -.375696592504536 -5998953237278e-29 .926742720705418 .000417314761693
8675 133 199 464 0 198 196 201 0 +201 .0019415 1203706215242022e-50 686e-6 .0020
615 1203706215242022e-50 7695e-7 243359005565361e-30 .4410902167242865 141 200 1
94 200 200 196 16 198 16 202 ?146 203 193 199 0 0 1 31 201 465 0 1 199 204 205 +
.00218772442551255 1996439466429995e-35 .000460122083095737 -3497375059816585e-3
2 1 502616775063461e-31 -.736897390041432 -597491913779686e-31 .676004612817194
 .0003341366502854705 133 204 468 0 203 201 206 0 +206 .0018685 3009265538105055
e-51 5595e-7 .0019415 601853107621011e-50 686e-6 111789091271495e-30 .4043228563
439465 141 205 199 205 205 201 16 203 18 207 ?142 208 198 204 0 0 1 31 206 469 0
 1 204 209 210 +.002213594887868155 21816607114789e-33 .0004446675745899185 -530
350800567394e-31 1 306052240643634e-31 -.948847484875285 -599853359673311e-31 .3
157347786447435 .0003636990068151095 133 209 472 0 208 206 211 0 +211 .0018435 1
203706215242022e-50 401e-6 .0018685 1203706215242022e-50 5595e-7 0 .331057660449
796 141 210 204 210 210 206 16 208 20 212 ?138 213 203 209 0 0 1 31 211 473 0 1
 209 214 215 +.00233038783362754 294069888477574e-34 .000405425420563479 -604845
839489041e-31 1 954015519698813e-32 -.999958695787112 -60395376890285e-30 -.0090
888238919334 .000486907944976955 133 214 476 0 213 211 216 0 +216 .0018715 12037
06215242022e-50 231e-6 .0018435 601853107621011e-50 401e-6 655634816838743e-48 .
3572806570206435 141 215 209 215 215 211 16 213 22 217 ?134 218 208 214 0 0 1 31
 216 477 0 1 214 219 220 +.00232824413410662 2921312810445515e-35 .0003935343279
70502 -604183089990129e-31 1 -995125089395507e-32 -.942125839186579 -60257901033
6019e-31 -.3352594564467705 .000484801621088077 133 219 480 0 218 216 221 0 +221
 .001948 -601853107621011e-50 105e-6 .0018715 -902779661431517e-50 231e-6 0 .397
934943859618 141 220 214 220 220 216 16 218 24 222 ?130 223 213 219 0 0 1 31 221
 481 0 1 219 224 225 +.00222219528484697 2238188504059235e-35 .00035769892294280
4 -523406397233705e-31 1 -3177824554633205e-32 -.735343766426778 -60024298574885
3e-31 -.677694285926391 .000372880409633927 133 224 484 0 223 221 226 0 +226 .00
2061 601853107621011e-50 265e-7 .001948 3009265538105055e-51 105e-6 413463101924
932e-31 .4229094575411715 141 225 219 225 225 221 16 223 26 227 ?126 228 218 224
 0 0 1 31 226 485 0 1 224 229 230 +.002187344112984925 196237420538455e-34 .0003
28952353723523 -3493500964276265e-32 1 -502886126067793e-31 -.3854530469714565 -
598684892309874e-31 -.922727450865325 .0003277808126764695 133 229 488 0 228 226
 231 0 +231 .0021985 0 0 .002061 3009265538105055e-51 265e-7 717642364621652e-48
 .3928294768836875 141 230 224 230 230 226 16 228 28 232 ?122 233 223 229 0 0 1
 31 231 489 0 1 229 234 235 +.002196339558314275 2154583365914025e-35 .000358761
8591778395 -115878947973079e-31 1 -601258692313148e-31 .00602182885019182 -60054
9987473857e-31 -.999981868624276 .000358768364141848 133 234 492 0 233 231 236 0
 +236 .0022815 -601853107621011e-50 65e-7 .0021985 -601853107621011e-50 0 0 .153
69169808244 141 235 229 235 235 231 16 233 30 237 ?118 238 228 234 0 0 1 31 236
 493 0 1 234 239 240 +.00219779082242004 331039769888043e-34 .00054222872909797
 478066630899569e-32 1 -610454313302534e-31 .1543796953057595 -610516317169492e-
31 -.98801159389822 .000542229192862243 133 239 496 0 241 236 242 0 +242 .002439
5 -902779661431517e-50 74e-6 .002363 -601853107621011e-50 3e-5 0 .24393454956114
75 141 240 234 240 240 236 16 241 34 243 ?110 244 238 239 0 0 1 31 242 497 0 1 2
39 245 246 +.002221769062085055 220427843477922e-34 .000364052085238486 30529071
1227943e-31 1 -53078953202131e-30 .600338534719363 -607774576420455e-31 -.799745
987005254 .000362680263422917 133 245 500 0 244 242 247 0 +247 .002508 -30092655
38105055e-51 1425e-7 .0024395 -3009265538105055e-51 74e-6 7317665912024e-29 .262
284990368781 141 246 239 246 246 242 16 244 36 248 ?106 249 241 245 0 0 1 31 247
 501 0 1 245 250 251 +.002214082631437275 224860530413627e-34 .00036791736856272
6 432978028117747e-31 1 -4329780281177465e-32 .793501124961826 -607065464403294e
-31 -.608568783856284 .0003704057364466455 133 250 504 0 252 247 253 0 +253 .002
4185 -639468926847324e-50 226e-6 .002453 3009265538105055e-51 209e-6 10797150100
33636e-32 1.024784270763344 141 251 245 251 251 247 16 252 40 254 ?98 255 249 25
0 0 0 1 31 253 505 0 1 250 256 257 +.002420638983490175 209337196522052e-35 .000
1868335253182985 270650596419282e-31 1 54926150449795e-30 -.0545313517742871 -53
3685292823357e-31 .998512058852405 392248389335586e-19 133 256 508 0 255 253 258
 0 +258 .0023865 -451389830715758e-50 2155e-7 .0024185 -225694915357879e-50 226e
-6 253214289917389e-30 .640121748649146 141 257 250 257 257 253 16 255 42 259 ?9
4 260 252 256 0 0 1 31 258 509 0 1 256 261 262 +.002418339160245505 311084307271
0795e-36 .0001724782735375075 -190904322173387e-31 1 581803648528423e-31 -.59488
0221252416 -581227331721787e-31 .803814358146629 535219681341457e-19 133 261 512
 0 260 258 263 0 +263 .002353 0 193e-6 .0023865 0 2155e-7 -2017733877398095e-20
 2017733877398095e-20 141 262 256 262 262 258 16 260 44 264 ?90 265 255 261 0 0
 1 30 263 513 0 1 261 266 267 +.00236975 0 20425e-8 .830139206543892 0 .55755618
3499634 133 266 516 0 265 263 268 0 +268 .002306 -3009265538105055e-51 17e-5 .00
2353 0 193e-6 568267139507343e-31 .219848726771121 141 267 261 267 267 263 16 26
5 46 269 ?86 270 260 266 0 0 1 31 268 517 0 1 266 271 272 +.00222530432651346 14
51507980913294e-35 .0003944215936464065 -269148503965085e-31 -1 549999116798219e
-31 .3383627202125145 -60862765946668e-30 -.941015764783135 .0002384886651693095
 133 271 520 0 270 268 273 0 +273 .002233 -3009265538105055e-51 16e-5 .002306 30
09265538105055e-51 17e-5 0 .3315036401271925 141 272 266 272 272 268 16 270 48 2
74 ?82 275 265 271 0 0 1 31 273 521 0 1 271 276 277 +.002239611179062535 1348495
68184569e-34 .000383188392843492 -83103810039343e-31 -1 606657813287202e-31 -.02
960853137507305 -603931255339039e-31 -.999561571325054 .0002232862879548535 133
 276 524 0 275 273 278 0 +278 .0021515 -150463276905253e-50 1755e-7 .002233 3009
265538105055e-51 16e-5 132388390114878e-30 .4080276507823525 141 277 271 277 277
 273 16 275 50 279 ?78 280 270 276 0 0 1 31 278 525 0 1 276 281 282 +.0022297091
1765653 1227664821351082e-35 .0003647124573553085 1144035350248046e-32 -1 601541
168033654e-31 -.381994408113645 -599624584506215e-31 -.924164634775593 .00020473
8907155058 133 281 528 0 280 278 283 0 +283 .00209 3009265538105055e-51 222e-6 .
0021515 0 1755e-7 0 .461356534916823 141 282 276 282 282 278 16 280 52 284 ?74 2
85 275 281 0 0 1 31 283 529 0 1 281 286 287 +.002219745597778055 100508189822427
6e-35 .000329679661577426 3692973091804835e-32 -1 488425473432251e-31 -.76950800
2543966 -596103896502669e-31 -.638637169307265 .000168608510046835 133 286 532 0
 285 283 288 0 +288 .002051 -1203706215242022e-50 298e-6 .00209 -120370621524202
2e-50 222e-6 0 .3979254986341595 141 287 281 287 287 283 16 285 54 289 ?70 290 2
80 286 0 0 1 31 288 533 0 1 286 291 292 +.00225896365427282 129708084151745e-34
 .00035671161206105 544781404760379e-31 -1 2795588787586125e-32 -.96238291121557
9 -600243557320813e-31 -.2716967651633465 .000216092422100617 133 291 536 0 290
 288 293 0 +293 .002038 -3009265538105055e-51 401e-6 .002051 -3009265538105055e-
51 298e-6 51263680536569e-47 .2769780065345805 141 292 286 292 292 288 16 290 56
 294 ?66 295 285 291 0 0 1 31 293 537 0 1 291 296 297 +.002413990241429395 22804
24476404305e-35 .0003961346906658475 607503789223907e-31 -1 76675235533117e-31 -
.999916288863588 -606460840795009e-31 .01293890510318726 .000376021718634776 133
 296 540 0 295 293 298 0 +298 .00205 -601853107621011e-50 5005e-7 .002038 -30092
65538105055e-51 401e-6 490749105657079e-48 .2648606482147755 141 297 291 297 297
 293 16 295 58 299 ?62 300 290 296 0 0 1 31 298 541 0 1 296 301 302 +.0024174705
37766365 230341865170632e-34 .000405708327103554 607918248096338e-31 -1 -7331677
36397585e-32 -.968302459835488 -606961842447417e-31 .249780596277099 .0003794997
462144215 133 301 544 0 300 298 303 0 +303 .0020875 -3009265538105055e-51 576e-6
 .00205 -3009265538105055e-51 5005e-7 74081969439445e-47 .406249772226745 141 30
2 296 302 302 298 16 300 60 304 ?58 305 295 301 0 0 1 31 303 545 0 1 301 306 307
 +.00225203321152994 1253096366414246e-35 .000447215292286453 548403133344576e-3
1 -1 -2723856622572415e-32 -.78745950384002 -599734627303944e-31 .61636639250694
8 .0002089418068200325 133 306 548 0 305 303 308 0 +308 .00215 902779661431517e-
50 6235e-7 .0020875 3009265538105055e-51 576e-6 0 .483439996072844 141 307 301 3
07 307 303 16 305 62 309 ?54 310 300 306 0 0 1 31 308 549 0 1 306 311 312 +.0022
150830668221 974857414390432e-35 .00047299596470776 370506643401297e-31 -1 -4875
08741317495e-31 -.3969123876080065 -594521744005572e-31 .917856501073731 .000163
9733826760245 133 311 552 0 310 308 313 0 +313 .0022375 150463276905253e-50 64e-
5 .00215 -150463276905253e-50 6235e-7 3914059349361195e-33 .414414367642273 141
 312 306 312 312 308 16 310 64 314 ?50 315 305 311 0 0 1 31 313 553 0 1 311 316
 317 +.002232993764424345 1296770395113166e-35 .0004236391280527205 113466924880
6212e-32 -1 -601718541033596e-31 .02082288952571805 -599225367256425e-31 .999783
180130472 .000216407793456822 133 316 556 0 315 313 318 0 +318 .002303 300926553
8105055e-51 632e-6 .0022375 3009265538105055e-51 64e-5 529832888711891e-48 .2865
272866528685 141 317 311 317 317 313 16 315 66 319 ?46 320 310 316 0 0 1 31 318
 557 0 1 316 321 322 +.002242520728095255 1400509359920432e-35 .0004089665862799
065 -742359315749128e-32 -1 -607806689769592e-31 .261715372377561 -6060503327935
77e-31 .965145099900152 .000231087961533626 133 321 560 0 320 318 323 0 +323 .00
23485 -1203706215242022e-50 6135e-7 .002303 -902779661431517e-50 632e-6 40347096
0749029e-30 .20927648556437 141 322 316 322 322 318 16 320 68 324 ?42 325 315 32
1 0 0 1 31 323 561 0 1 321 326 327 +.00223767306779372 1431874543408448e-35 .000
406128355925096 -230631659231776e-31 -1 -567229215948423e-31 .47134539452309 -60
8974243114694e-31 .881948705459605 .000235128917125444 133 326 564 0 325 323 328
 0 +328 .0023815 0 5955e-7 .0023485 0 6135e-7 -187949461292125e-19 1879494612921
25e-19 141 327 321 327 327 323 16 325 70 329 ?36 23 320 326 0 0 1 30 328 565 0 1
 326 330 331 +.002365 0 6045e-7 -.877895572914385 0 .478852130680573 133 330 568
 0 23 328 332 0 +332 .00241 -3009265538105055e-51 5875e-7 .0023815 -413774011489
445e-50 5955e-7 940123274349177e-48 .525307870944912 141 331 326 331 331 328 16
 23 72 333 ?31 11 325 330 0 0 1 31 332 569 0 1 330 18 334 +.00241062733799274 33
7077771667122e-35 .000644500516599141 -165484311559818e-31 1 -58953785993186e-30
 -.01100516345165328 -591323340215302e-31 -.999939441355026 570039686822427e-19
 133 18 572 0 11 332 8 0 +8 .0024335 -376158192263132e-51 5935e-7 .00241 -376158
192263132e-51 5875e-7 86233169076576e-30 .627544939034776 141 334 330 334 334 33
2 81 1 333 610 26 23 0 0 21 329 335 80 7 CCCCCDI12 legal_owners0 17 1 lCZ1 26 33
6 337 9000 0 0 0 0 3 5 0 0 0 FFTFTFTTFFFFFFFFF2 81 1 21 609 26 11 0 0 163 333 33
8 81 1 329 611 26 325 0 0 333 324 339 83 255 1 335 3068 81 1 324 612 26 320 0 0
 329 319 340 83 1 339 3069 81 1 319 613 26 315 0 0 324 314 341 83 1 340 3070 81
 1 314 614 26 310 0 0 319 309 342 83 1 341 3071 81 1 309 615 26 305 0 0 314 304
 343 83 1 342 3072 81 1 304 616 26 300 0 0 309 299 344 83 1 343 3073 81 1 299 61
7 26 295 0 0 304 294 345 83 1 344 3074 81 1 294 618 26 290 0 0 299 289 346 83 1
 345 3075 81 1 289 619 26 285 0 0 294 284 347 83 1 346 3076 81 1 284 620 26 280
 0 0 289 279 348 83 1 347 3077 81 1 279 621 26 275 0 0 284 274 349 83 1 348 3078
 81 1 274 622 26 270 0 0 279 269 350 83 1 349 3079 81 1 269 623 26 265 0 0 274 2
64 351 83 1 350 3080 81 1 264 624 26 260 0 0 269 259 352 83 1 351 3081 81 1 259
 625 26 255 0 0 264 254 353 83 1 352 3082 81 1 254 626 26 252 0 0 259 354 355 83
 1 353 3083 81 1 354 627 26 249 0 0 254 248 356 83 1 355 3084 16 249 38 354 ?102
 252 244 182 0 0 1 81 1 248 628 26 244 0 0 354 243 357 83 1 356 3085 81 1 243 62
9 26 241 0 0 248 358 359 83 1 357 3086 81 1 358 630 26 238 0 0 243 237 360 83 1
 359 3087 16 238 32 358 ?114 241 233 361 0 0 1 81 1 237 631 26 233 0 0 358 232 3
62 83 1 360 3088 81 1 232 632 26 228 0 0 237 227 363 83 1 362 3089 81 1 227 633
 26 223 0 0 232 222 364 83 1 363 3090 81 1 222 634 26 218 0 0 227 217 365 83 1 3
64 3091 81 1 217 635 26 213 0 0 222 212 366 83 1 365 3092 81 1 212 636 26 208 0
 0 217 207 367 83 1 366 3093 81 1 207 637 26 203 0 0 212 202 368 83 1 367 3094 8
1 1 202 638 26 198 0 0 207 197 369 83 1 368 3095 81 1 197 639 26 193 0 0 202 192
 370 83 1 369 3096 81 1 192 640 26 188 0 0 197 187 371 83 1 370 3097 81 1 187 64
1 26 172 0 0 192 171 372 83 1 371 3098 81 1 171 642 26 167 0 0 187 176 373 83 1
 372 3099 83 1 373 31e2 17 114 0 0 0 0 111 374 238 0 375 +133 361 359 0 238 376
 377 0 +377 .002363 0 2999999999999825e-20 .0022815 0 649999999999891e-20 6.0518
7727771272 6.2831853071796 30 376 190 0 1 174 361 378 +.0025 0 6775e-7 -.5952275
50625785 0 -.80355719334471 31 377 214 0 1 361 182 379 +.00222110725540217 0 .00
0369021646158447 0 1 0 .164326104060777 0 -.986406068272193 .000367517656084017
 133 182 365 0 249 377 180 0 +180 .002453 0 209e-6 .002508 0 .000142499999999995
2 0 862974507155339e-19 141 379 361 379 379 377 133 174 335 0 167 0 376 0 +376 .
0025 0 6775e-7 .00245 0 61e-5 0 840014880820571e-19 141 378 174 378 378 376 17 3
74 0 169 380 375 107 114 238 0 0 -17 375 0 169 374 381 111 118 233 0 0 -17 381 0
 169 375 382 115 122 228 0 0 -17 118 0 0 0 0 115 375 233 0 381 +17 382 0 169 381
 383 119 126 223 0 0 -17 122 0 0 0 0 119 381 228 0 382 +17 383 0 169 382 384 123
 130 218 0 0 -17 126 0 0 0 0 123 382 223 0 383 +17 384 0 169 383 385 127 134 213
 0 0 -17 130 0 0 0 0 127 383 218 0 384 +17 385 0 169 384 386 131 138 208 0 0 -17
 134 0 0 0 0 131 384 213 0 385 +17 386 0 169 385 387 135 142 203 0 0 -17 138 0 0
 0 0 135 385 208 0 386 +17 387 0 169 386 388 139 146 198 0 0 -17 142 0 0 0 0 139
 386 203 0 387 +17 388 0 169 387 389 143 150 193 0 0 -17 146 0 0 0 0 143 387 198
 0 388 +17 389 0 169 388 170 147 154 188 0 0 -17 150 0 0 0 0 147 388 193 0 389 +
17 170 0 169 389 166 151 158 172 0 0 -17 154 0 0 0 0 151 389 188 0 170 +17 158 0
 0 0 0 155 170 172 0 166 +17 380 0 169 390 374 103 110 241 0 0 -17 390 0 169 391
 380 99 106 244 0 0 -17 110 0 0 0 0 107 380 241 0 374 +17 391 0 169 392 390 95 1
02 249 0 0 -17 106 0 0 0 0 103 390 244 0 380 +17 392 0 169 393 391 91 98 252 0 0
 -17 102 0 0 0 0 99 391 249 0 390 +17 393 0 169 394 392 87 94 255 0 0 -17 98 0 0
 0 0 95 392 252 0 391 +17 394 0 169 395 393 83 90 260 0 0 -17 94 0 0 0 0 91 393
 255 0 392 +17 395 0 169 396 394 79 86 265 0 0 -17 90 0 0 0 0 87 394 260 0 393 +
17 396 0 169 397 395 75 82 270 0 0 -17 86 0 0 0 0 83 395 265 0 394 +17 397 0 169
 398 396 71 78 275 0 0 -17 82 0 0 0 0 79 396 270 0 395 +17 398 0 169 399 397 67
 74 280 0 0 -17 78 0 0 0 0 75 397 275 0 396 +17 399 0 169 400 398 63 70 285 0 0
 -17 74 0 0 0 0 71 398 280 0 397 +17 400 0 169 401 399 59 66 290 0 0 -17 70 0 0
 0 0 67 399 285 0 398 +17 401 0 169 402 400 55 62 295 0 0 -17 66 0 0 0 0 63 400
 290 0 399 +17 402 0 169 403 401 51 58 300 0 0 -17 62 0 0 0 0 59 401 295 0 400 +
17 403 0 169 404 402 47 54 305 0 0 -17 58 0 0 0 0 55 402 300 0 401 +17 404 0 169
 405 403 43 50 310 0 0 -17 54 0 0 0 0 51 403 305 0 402 +17 405 0 169 406 404 37
 46 315 0 0 -17 50 0 0 0 0 47 404 310 0 403 +17 406 0 169 35 405 32 42 320 0 0 -
17 46 0 0 0 0 43 405 315 0 404 +17 35 0 169 30 406 25 36 325 0 0 -17 42 0 0 0 0
 37 406 320 0 405 +17 30 0 169 29 35 12 31 23 0 0 -17 36 0 0 0 0 32 35 325 0 406
 +83 1 338 3067 79 255 13 337 BTI/importTag141 183 182 183 183 180 81 1 178 644
 26 17 0 0 176 14 407 83 1 179 3101 14 255 17 3 178 ?0 0 169 6 7 +0 0 0 0 6 81 1
 14 645 26 1 408 2 178 0 409 83 1 407 3102 81 1 408 444 410 1 411 14 0 0 412 83
 1 409 3103 80 1 410 413 414 9000 0 0 0 0 3 5 0 0 0 TTTFFFFFFFFFFFFFF1 81 1 411
 332 415 1 416 408 0 0 417 82 255 1 412 6 80 1 415 418 419 8038 0 0 0 0 0 0 0 0
 0 TTTTTTTTTTTTTFTFT10 81 1 416 331 418 1 0 411 0 0 420 98 255 19 417 72 67 45 4
8 52 83 104 97 112 101 83 116 114 105 110 103 48 48 55 80 1 418 421 422 8017 0 0
 0 0 0 0 0 0 0 TTTTTTTTTTTTTFTFT3 84 255 19 420 HC-04ShapeString00779 13 422 SDL
/TYSA_NAME79 14 419 SDL/TYSA_UNAME79 23 414 ONSHAPE_ORIGINALBODY_ID81 1 161 607
 26 159 0 0 157 163 423 83 1 165 3066 81 1 157 606 26 155 0 0 153 161 424 83 1 4
23 3065 81 1 153 605 26 151 0 0 149 157 425 83 1 424 3064 81 1 149 604 26 147 0
 0 145 153 426 83 1 425 3063 81 1 145 603 26 143 0 0 141 149 427 83 1 426 3062 8
1 1 141 602 26 139 0 0 137 145 428 83 1 427 3061 81 1 137 601 26 135 0 0 133 141
 429 83 1 428 3060 81 1 133 600 26 131 0 0 129 137 430 83 1 429 3059 81 1 129 59
9 26 127 0 0 125 133 431 83 1 430 3058 81 1 125 598 26 123 0 0 121 129 432 83 1
 431 3057 81 1 121 597 26 119 0 0 117 125 433 83 1 432 3056 81 1 117 596 26 115
 0 0 113 121 434 83 1 433 3055 81 1 113 595 26 111 0 0 109 117 435 83 1 434 3054
 81 1 109 594 26 107 0 0 105 113 436 83 1 435 3053 81 1 105 593 26 103 0 0 101 1
09 437 83 1 436 3052 81 1 101 592 26 99 0 0 97 105 438 83 1 437 3051 81 1 97 591
 26 95 0 0 93 101 439 83 1 438 3050 81 1 93 590 26 91 0 0 89 97 440 83 1 439 304
9 81 1 89 589 26 87 0 0 85 93 441 83 1 440 3048 81 1 85 588 26 83 0 0 81 89 442
 83 1 441 3047 81 1 81 587 26 79 0 0 77 85 443 83 1 442 3046 81 1 77 586 26 75 0
 0 73 81 444 83 1 443 3045 81 1 73 585 26 71 0 0 69 77 445 83 1 444 3044 81 1 69
 584 26 67 0 0 65 73 446 83 1 445 3043 81 1 65 583 26 63 0 0 61 69 447 83 1 446
 3042 81 1 61 582 26 59 0 0 57 65 448 83 1 447 3041 81 1 57 581 26 55 0 0 53 61
 449 83 1 448 3040 81 1 53 580 26 51 0 0 49 57 450 83 1 449 3039 81 1 49 579 26
 47 0 0 45 53 451 83 1 450 3038 81 1 45 578 26 43 0 0 41 49 452 83 1 451 3037 81
 1 41 577 26 37 0 0 33 45 453 83 1 452 3036 81 1 33 576 26 32 0 0 27 41 454 83 1
 453 3035 83 1 454 3034 83 1 34 3033 83 1 28 3032 141 19 18 19 19 8 74 4 CI16 in
dex_map_offset0 0 1 dCCZ20 16 5 0 0 416 411 408 14 2 0 0 0 0 0 0 0 0 0 0 0 0 0 0
 0 80 1 13 26 455 9000 0 0 0 0 3 5 0 0 0 FFTFTFTTFFFFFFFFF2 83 1 15 17325 79 18
 455 BTI/importMaxCount1 0 
