**ABCDEFGHIJKLMNOPQRSTUVWXYZabcdefghijklmnopqrstuvwxyz**************************
**PARASOLID !"#$%&'()*+,-./:;<=>?@[\]^_`{|}~0123456789**************************
**PART1;
MC=unknown;
MC_MODEL=unknown;
MC_ID=unknown;
OS=unknown;
OS_RELEASE=unknown;
FRU=Parasolid 37.0.173;
APPL=Onshape;
SITE=unknown;
USER=unknown;
FORMAT=text;
GUISE=transmit;
KEY=BTGapi::writeModels_.xmt;
FILE=BTGapi::writeModels_.xmt;
DATE=2024-12-29T04:00:26 (UTC);
**PART2;
SCH=SCH_3700173_36001;
USFLD_SIZE=0;
**PART3;
**END_OF_HEADER*****************************************************************
T51 : TRANSMIT FILE created by modeller version 370017323 SCH_3700173_36001_1300
6231 0 12 36 CCCI7 lattice222 0 CCCI4 mesh1006 0 I8 polyline1008 0 CCCCCCCDI5 ow
ner1040 0 CCCI16 boundary_lattice222 0 CCCI13 boundary_mesh1006 0 I17 boundary_p
olyline1008 0 CCCA16 index_map_offset0 0 1 dA9 index_map82 0 A17 node_id_index_m
ap82 0 A20 schema_embedding_map82 0 A5 child12 0 A14 lowest_node_id0 0 1 dA16 me
sh_offset_data206 0 Z1 419 2 3 0 0 0 0 0 0 0 1e3 1e-8 0 4 5 1 0 3 2 6 0 7 8 9 0
 0 10 11 12 0 0 0 0 0 0 0 81 255 1 2 374 13 1 14 0 0 0 15 70 11 CI9 list_type0 0
 1 uI10 notransmit0 0 1 lCCCDCCDI12 finger_index0 0 1 dI12 finger_block1012 0 CZ
3 0 4 T1 0 0 5 20 1 16 16 13 255 6 2 0 1 0 17 0 0 10 17 50 255 7 115 0 17 0 0 0
 +.001391 0 703e-6 0 -1 0 1 0 0 31 255 8 329 0 1 18 0 19 +.00162873033056812 185
8845797240585e-35 .000505789173570588 -321176783895311e-31 1 521330431830072e-31
 -.613168811799227 -608761553405105e-31 .789951902483135 .000305348750564674 29
 255 9 155 0 12 20 0 .0014975 0 7815e-7 19 9 CCCCCCI5 frame230 0 CA5 owner12 0 Z
10 1 0 1 0 0 6 0 V0 16 255 11 46 21 ?22 0 23 18 0 0 1 18 255 12 45 24 22 0 25 9
 5e-7 1 81 1 24 330 26 12 0 0 0 27 28 17 255 22 0 0 0 0 12 29 11 0 30 +18 25 43
 27 31 12 32 20 5e-7 1 81 1 27 331 26 25 0 0 24 33 34 17 31 0 0 0 0 25 30 23 0 3
5 +18 32 41 33 36 25 37 38 5e-7 1 29 20 153 0 25 38 9 .0015605 0 798e-6 29 38 15
1 0 32 39 20 .0016345 0 8e-4 29 39 149 0 37 40 38 .001749 0 778e-6 18 37 39 41 4
2 32 43 39 5e-7 1 29 40 147 0 43 44 39 .001832 0 7165e-7 18 43 37 45 46 37 47 40
 5e-7 1 29 44 145 0 47 48 40 .001883 0 622e-6 18 47 35 49 50 43 51 44 5e-7 1 29
 48 143 0 51 52 44 .0019005 0 5015e-7 18 51 33 53 54 47 55 48 5e-7 1 29 52 141 0
 55 56 48 .0019005 0 -8881784197001e-31 18 55 31 57 58 51 59 52 5e-7 1 29 56 139
 0 59 60 52 .0017105 0 -8881784197001e-31 18 59 29 61 62 55 63 56 5e-7 1 29 60 1
37 0 63 64 56 .0017105 0 4915e-7 18 63 27 65 66 59 67 60 5e-7 1 29 64 135 0 67 6
8 60 .0016775 0 601e-6 18 67 25 69 70 63 71 64 5e-7 1 29 68 133 0 71 72 64 .0015
77 0 64e-5 18 71 23 73 74 67 75 68 5e-7 1 29 72 131 0 75 76 68 .001485 0 616e-6
 18 75 21 77 78 71 79 72 5e-7 1 29 76 129 0 79 80 72 .0014035 0 552e-6 18 79 19
 81 82 75 83 76 5e-7 1 29 80 127 0 83 84 76 .0014035 0 -8881784197001e-31 18 83
 17 85 86 79 87 80 5e-7 1 29 84 125 0 87 88 80 .0012135 0 -8881784197001e-31 18
 87 15 89 90 83 91 84 5e-7 1 29 88 123 0 91 92 84 .0012135 0 8e-4 18 91 13 93 94
 87 95 88 5e-7 1 29 92 121 0 95 96 88 .0013295 0 8e-4 18 95 11 97 98 91 99 92 5e
-7 1 29 96 119 0 99 100 92 .001378 0 7655e-7 18 99 9 101 102 95 103 96 5e-7 1 29
 100 117 0 103 104 96 .0014415 0 747e-6 18 103 7 105 29 99 106 100 5e-7 1 29 104
 116 0 106 0 100 .001391 0 703e-6 18 106 6 107 108 103 0 104 5e-7 1 81 1 107 350
 26 106 0 0 105 21 109 17 108 0 0 0 0 106 110 111 0 112 +17 110 0 113 114 112 99
 108 111 0 0 -16 111 8 115 ?108 116 117 118 0 0 1 17 112 0 113 110 29 106 119 11
7 0 0 -15 255 113 4 0 112 17 0 17 29 0 113 112 30 103 22 11 0 119 -17 119 0 0 0
 0 103 112 117 0 0 +16 117 5 120 ?119 111 0 121 0 0 1 81 1 120 371 26 117 0 0 11
5 122 123 133 255 121 280 0 117 124 125 0 +125 .001391 0 703e-6 .0014415 0 747e-
6 1124200858661552e-31 .139012904426208 30 255 124 144 0 1 126 121 127 +.0019005
 0 5015e-7 0 0 -1 31 125 281 0 1 121 128 129 +.001732257499651305 29455561428248
1e-34 .000362309574263846 -402246058143411e-31 1 461668771278232e-31 -.707694531
275843 -610844882815199e-31 .706518542150357 .000482210169175787 133 128 284 0 1
16 125 130 0 +130 .0013295 376158192263132e-50 8e-4 .001378 188079096131566e-50
 7655e-7 0 1.362324778206292 141 255 129 121 129 129 125 16 116 10 131 ?102 132
 111 128 0 0 1 31 130 285 0 1 128 133 134 +.001332469091607646 224805458778648e-
35 .000752833360665823 3549318899856895e-32 1 498962222153793e-31 -.062824624625
8992 -475678100508797e-31 .998024582132432 472599975778137e-19 133 133 288 0 135
 130 136 0 +136 .001485 0 616e-6 .0014035 0 552e-6 573489184321972e-48 .31089398
6950926 141 134 128 134 134 130 16 135 20 137 ?82 138 139 133 0 0 1 31 136 289 0
 1 133 140 141 +.00164844717530164 202449807205186e-34 .000323967659576817 37817
60964338285e-32 -1 -481583622802454e-31 -.48839650085082 -604940264366524e-31 .8
72621829864848 .000334660823771064 133 140 292 0 138 136 142 0 +142 .001577 4513
89830715758e-50 64e-5 .001485 601853107621011e-50 616e-6 925362770427393e-48 .51
6231061434853 141 141 133 141 141 136 16 138 22 143 ?78 144 135 140 0 0 1 31 142
 293 0 1 140 145 146 +.00157645373245235 110261369132832e-34 .000453760692265991
 15456383418789e-30 -1 -592494697720244e-31 .0029331358908232 -592038792284568e-
31 .999995698347671 .000186240108874207 133 145 296 0 144 142 147 0 +147 .001677
5 0 601e-6 .001577 150463276905253e-50 64e-5 1452990505350782e-48 .8867980001882
59 141 146 140 146 146 142 16 144 24 148 ?74 149 138 145 0 0 1 31 147 297 0 1 14
5 150 151 +.001586192141849315 694926640478777e-35 .00051469705784246 -221523110
6056475e-32 -1 -570848015791474e-31 .726743944876297 -553110913266315e-31 .68690
8464488273 .000125639654508892 133 150 300 0 149 147 152 0 +152 .0017105 -150463
276905253e-50 4915e-7 .0016775 -150463276905253e-50 601e-6 1218764863542456e-48
 .707731878977005 141 151 145 151 151 147 16 149 26 153 ?70 154 144 150 0 0 1 31
 152 301 0 1 150 155 156 +.001545793007226705 947822147740762e-35 .0005015848788
90239 -586277942018089e-31 -1 -1766865030739445e-32 .998130746238186 -5743838872
26763e-31 -.0611147561068706 .000165015448521203 133 155 304 0 157 152 158 0 +15
8 .001883 3009265538105055e-51 622e-6 .0019005 3009265538105055e-51 5015e-7 0 .3
10826892057258 141 156 150 156 156 152 16 157 34 159 ?54 160 161 155 0 0 1 31 15
8 305 0 1 155 162 163 +.001507200663519705 237938761360566e-34 .0005059025859883
39 605966453305695e-31 1 880034268286286e-32 .955444769474555 -604943444356314e-
31 .295169938313024 .0003933239769442295 133 162 308 0 160 158 164 0 +164 .00183
2 0 7165e-7 .001883 0 622e-6 2990717305871685e-31 .3975629661442885 141 163 155
 163 163 158 16 160 36 165 ?50 166 157 162 0 0 1 31 164 309 0 1 162 167 168 +.00
162294089053884 1632072870056455e-35 .000542662544100328 538858168469305e-31 1 2
908123448881955e-32 .768905421863981 -600265485631312e-31 .639362535834071 .0002
71891839381698 133 167 312 0 166 164 169 0 +169 .001749 -3009265538105055e-51 77
8e-6 .001832 -150463276905253e-50 7165e-7 0 .465194057821431 141 168 162 168 168
 164 16 166 38 170 ?46 171 160 167 0 0 1 31 169 313 0 1 167 172 173 +.0016606898
70575285 1335125130182848e-35 .000572059093621931 3645426317955945e-32 1 4919843
64862346e-31 .394106826891772 -59583417212451e-30 .919064638095329 .000224076629
4793595 133 172 316 0 171 169 174 0 +174 .0016345 0 8e-4 .001749 0 778e-6 756904
436221149e-48 .4156088497990785 141 173 167 173 173 169 16 171 40 175 ?42 176 16
6 172 0 0 1 31 174 317 0 1 172 177 178 +.00163957976442146 169300639761953e-34 .
000517477637557133 115538283379653e-31 1 601324247589558e-31 -.01797713808721285
 -599150024831397e-31 .999838398195525 .000282568025945747 133 177 320 0 176 174
 179 0 +179 .0015605 0 798e-6 .0016345 0 8e-4 -370135110466434e-19 3701351104664
365e-20 141 178 172 178 178 174 16 176 42 180 ?36 23 171 177 0 0 1 30 179 321 0
 1 177 181 182 +.0015975 0 799e-6 .999634969872853 0 .0270171613479156 133 181 3
24 0 23 179 183 0 +183 .0014975 3009265538105055e-51 7815e-7 .0015605 3009265538
105055e-51 798e-6 0 .4005582814493635 141 182 177 182 182 179 16 23 44 184 ?31 1
1 176 181 0 0 1 31 183 325 0 1 181 18 185 +.001569640261365675 9822009288267e-33
 .000634578092967416 -15513788412397e-30 1 592344648473338e-31 -.440746847032076
5 -600083717936614e-31 .897631448218746 .000163677316925711 133 18 328 0 11 183
 8 0 +8 .0014415 3009265538105055e-51 747e-6 .0014975 0 7815e-7 887675297901593e
-31 .2158255676030395 141 185 181 185 185 183 81 1 184 352 26 23 0 0 21 180 186
 80 7 CCCCCDI12 legal_owners0 17 1 lCZ1 26 187 188 9000 0 0 0 0 3 5 0 0 0 FFTFTF
TTFFFFFFFFF2 81 1 21 351 26 11 0 0 107 184 189 81 1 180 353 26 176 0 0 184 175 1
90 83 255 1 186 2498 81 1 175 354 26 171 0 0 180 170 191 83 1 190 2499 81 1 170
 355 26 166 0 0 175 165 192 83 1 191 25e2 81 1 165 356 26 160 0 0 170 159 193 83
 1 192 2501 81 1 159 357 26 157 0 0 165 194 195 83 1 193 2502 81 1 194 358 26 16
1 0 0 159 196 197 83 1 195 2503 16 161 32 194 ?58 157 198 126 0 0 1 81 1 196 359
 26 198 0 0 194 199 200 83 1 197 2504 16 198 30 196 ?62 161 154 201 0 0 1 81 1 1
99 360 26 154 0 0 196 153 202 83 1 200 2505 16 154 28 199 ?66 198 149 203 0 0 1
 81 1 153 361 26 149 0 0 199 148 204 83 1 202 2506 81 1 148 362 26 144 0 0 153 1
43 205 83 1 204 2507 81 1 143 363 26 138 0 0 148 137 206 83 1 205 2508 81 1 137
 364 26 135 0 0 143 207 208 83 1 206 2509 81 1 207 365 26 139 0 0 137 209 210 83
 1 208 2510 16 139 18 207 ?86 135 211 212 0 0 1 81 1 209 366 26 211 0 0 207 213
 214 83 1 210 2511 16 211 16 209 ?90 139 215 216 0 0 1 81 1 213 367 26 215 0 0 2
09 217 218 83 1 214 2512 16 215 14 213 ?94 211 132 219 0 0 1 81 1 217 368 26 132
 0 0 213 131 220 83 1 218 2513 16 132 12 217 ?98 215 116 221 0 0 1 81 1 131 369
 26 116 0 0 217 115 222 83 1 220 2514 81 1 115 370 26 111 0 0 131 120 223 83 1 2
22 2515 83 1 223 2516 17 98 0 0 0 0 95 224 132 0 114 +133 221 213 0 132 225 226
 0 +226 .0012135 0 8e-4 .0013295 0 8e-4 0 116e-6 30 225 120 0 1 118 221 227 +.00
1378 0 7655e-7 .203641470422001 0 -.979045530874007 30 226 124 0 1 221 219 228 +
.0012135 0 8e-4 1 0 0 133 219 215 0 215 226 229 0 +229 .0012135 0 -8881784197001
e-31 .0012135 0 8e-4 -8881784197001e-31 8e-4 141 228 221 228 228 226 30 229 126
 0 1 219 216 230 +.0012135 0 0 0 0 1 133 216 217 0 211 229 231 0 +231 .0014035 0
 0 .0012135 0 0 0 19e-5 141 230 219 230 230 229 30 231 128 0 1 216 212 232 +.001
4035 0 0 -1 0 0 133 212 219 0 139 231 233 0 +233 .0014035 0 552e-6 .0014035 0 -8
67361737988404e-33 0 552e-6 141 232 216 232 232 231 30 233 130 0 1 212 203 234 +
.0014035 0 552e-6 0 0 -1 133 203 229 0 154 233 235 0 +235 .0017105 0 -8881784197
001e-31 .0017105 0 4915e-7 -8881784197001e-31 4915e-7 141 234 212 234 234 233 30
 235 140 0 1 203 201 236 +.0017105 0 0 0 0 1 133 201 231 0 198 235 237 0 +237 .0
019005 0 0 .0017105 0 0 0 19e-5 141 236 203 236 236 235 30 237 142 0 1 201 126 2
38 +.0019005 0 0 -1 0 0 133 126 233 0 161 237 124 0 +124 .0019005 0 5015e-7 .001
9005 0 -867361737988404e-33 0 5015e-7 141 238 201 238 238 237 133 118 209 0 111
 0 225 0 +225 .001378 0 7655e-7 .001391000000000012 0 703e-6 0 638376847951114e-
19 141 227 118 227 227 225 17 224 0 113 239 114 91 98 132 0 0 -17 114 0 113 224
 110 95 102 116 0 0 -17 102 0 0 0 0 99 114 116 0 110 +17 239 0 113 240 224 87 94
 215 0 0 -17 240 0 113 241 239 83 90 211 0 0 -17 94 0 0 0 0 91 239 215 0 224 +17
 241 0 113 242 240 79 86 139 0 0 -17 90 0 0 0 0 87 240 211 0 239 +17 242 0 113 2
43 241 75 82 135 0 0 -17 86 0 0 0 0 83 241 139 0 240 +17 243 0 113 244 242 71 78
 138 0 0 -17 82 0 0 0 0 79 242 135 0 241 +17 244 0 113 245 243 67 74 144 0 0 -17
 78 0 0 0 0 75 243 138 0 242 +17 245 0 113 246 244 63 70 149 0 0 -17 74 0 0 0 0
 71 244 144 0 243 +17 246 0 113 247 245 59 66 154 0 0 -17 70 0 0 0 0 67 245 149
 0 244 +17 247 0 113 248 246 55 62 198 0 0 -17 66 0 0 0 0 63 246 154 0 245 +17 2
48 0 113 249 247 51 58 161 0 0 -17 62 0 0 0 0 59 247 198 0 246 +17 249 0 113 250
 248 47 54 157 0 0 -17 58 0 0 0 0 55 248 161 0 247 +17 250 0 113 251 249 43 50 1
60 0 0 -17 54 0 0 0 0 51 249 157 0 248 +17 251 0 113 252 250 37 46 166 0 0 -17 5
0 0 0 0 0 47 250 160 0 249 +17 252 0 113 35 251 32 42 171 0 0 -17 46 0 0 0 0 43
 251 166 0 250 +17 35 0 113 30 252 25 36 176 0 0 -17 42 0 0 0 0 37 252 171 0 251
 +17 30 0 113 29 35 12 31 23 0 0 -17 36 0 0 0 0 32 35 176 0 252 +83 1 189 2497 7
9 255 13 188 BTI/importTag141 127 126 127 127 124 81 1 122 372 26 17 0 0 120 14
 253 83 1 123 2517 14 255 17 3 122 ?0 0 113 6 7 +0 0 0 0 6 81 1 14 373 26 1 254
 2 122 0 255 83 1 253 2518 81 1 254 276 256 1 257 14 0 0 258 83 1 255 2519 80 1
 256 259 260 9000 0 0 0 0 3 5 0 0 0 TTTFFFFFFFFFFFFFF1 81 1 257 206 261 1 262 25
4 0 0 263 82 255 1 258 3 80 1 261 264 265 8038 0 0 0 0 0 0 0 0 0 TTTTTTTTTTTTTFT
FT10 81 1 262 205 264 1 0 257 0 0 266 98 255 19 263 72 67 45 48 52 83 104 97 112
 101 83 116 114 105 110 103 48 49 48 80 1 264 267 268 8017 0 0 0 0 0 0 0 0 0 TTT
TTTTTTTTTTFTFT3 84 255 19 266 HC-04ShapeString01079 13 268 SDL/TYSA_NAME79 14 26
5 SDL/TYSA_UNAME79 23 260 ONSHAPE_ORIGINALBODY_ID81 1 105 349 26 103 0 0 101 107
 269 83 1 109 2496 81 1 101 348 26 99 0 0 97 105 270 83 1 269 2495 81 1 97 347 2
6 95 0 0 93 101 271 83 1 270 2494 81 1 93 346 26 91 0 0 89 97 272 83 1 271 2493
 81 1 89 345 26 87 0 0 85 93 273 83 1 272 2492 81 1 85 344 26 83 0 0 81 89 274 8
3 1 273 2491 81 1 81 343 26 79 0 0 77 85 275 83 1 274 2490 81 1 77 342 26 75 0 0
 73 81 276 83 1 275 2489 81 1 73 341 26 71 0 0 69 77 277 83 1 276 2488 81 1 69 3
40 26 67 0 0 65 73 278 83 1 277 2487 81 1 65 339 26 63 0 0 61 69 279 83 1 278 24
86 81 1 61 338 26 59 0 0 57 65 280 83 1 279 2485 81 1 57 337 26 55 0 0 53 61 281
 83 1 280 2484 81 1 53 336 26 51 0 0 49 57 282 83 1 281 2483 81 1 49 335 26 47 0
 0 45 53 283 83 1 282 2482 81 1 45 334 26 43 0 0 41 49 284 83 1 283 2481 81 1 41
 333 26 37 0 0 33 45 285 83 1 284 2480 81 1 33 332 26 32 0 0 27 41 286 83 1 285
 2479 83 1 286 2478 83 1 34 2477 83 1 28 2476 141 19 18 19 19 8 74 4 CI16 index_
map_offset0 0 1 dCCZ20 16 5 0 0 262 257 254 14 2 0 0 0 0 0 0 0 0 0 0 0 0 0 0 0 8
0 1 13 26 287 9000 0 0 0 0 3 5 0 0 0 FFTFTFTTFFFFFFFFF2 83 1 15 17325 79 18 287
 BTI/importMaxCount1 0 
