**ABCDEFGHIJKLMNOPQRSTUVWXYZabcdefghijklmnopqrstuvwxyz**************************
**PARASOLID !"#$%&'()*+,-./:;<=>?@[\]^_`{|}~0123456789**************************
**PART1;
MC=unknown;
MC_MODEL=unknown;
MC_ID=unknown;
OS=unknown;
OS_RELEASE=unknown;
FRU=Parasolid 37.0.173;
APPL=Onshape;
SITE=unknown;
USER=unknown;
FORMAT=text;
GUISE=transmit;
KEY=BTGapi::writeModels_.xmt;
FILE=BTGapi::writeModels_.xmt;
DATE=2024-12-29T04:00:26 (UTC);
**PART2;
SCH=SCH_3700173_36001;
USFLD_SIZE=0;
**PART3;
**END_OF_HEADER*****************************************************************
T51 : TRANSMIT FILE created by modeller version 370017323 SCH_3700173_36001_1300
6231 0 12 36 CCCI7 lattice222 0 CCCI4 mesh1006 0 I8 polyline1008 0 CCCCCCCDI5 ow
ner1040 0 CCCI16 boundary_lattice222 0 CCCI13 boundary_mesh1006 0 I17 boundary_p
olyline1008 0 CCCA16 index_map_offset0 0 1 dA9 index_map82 0 A17 node_id_index_m
ap82 0 A20 schema_embedding_map82 0 A5 child12 0 A14 lowest_node_id0 0 1 dA16 me
sh_offset_data206 0 Z1 134 2 3 0 0 0 0 0 0 0 1e3 1e-8 0 4 5 1 0 1 2 6 0 7 8 0 0
 0 9 10 0 0 0 0 0 0 0 0 81 255 1 2 134 11 1 12 0 0 0 13 70 11 CI9 list_type0 0 1
 uI10 notransmit0 0 1 lCCCDCCDI12 finger_index0 0 1 dI12 finger_block1012 0 CZ3
 0 4 T1 0 0 6 20 1 14 14 13 255 6 24 0 1 0 15 0 0 16 0 54 255 7 69 0 15 17 0 0 +
0 25e-5 0 0 -1 0 .00327525512860841 .00125 1 0 0 31 255 8 68 0 10 18 0 0 +0 0 0
 0 1 0 1 0 0 .0045 19 9 CCCCCCI5 frame230 0 CA5 owner12 0 Z9 1 0 1 16 0 19 0 V0
 16 255 10 18 20 ?21 0 22 8 0 0 1 81 1 20 112 23 10 0 0 0 24 25 17 255 21 0 26 2
1 21 0 27 10 0 0 +16 22 12 24 ?28 10 29 18 0 0 1 81 1 24 113 23 22 0 0 20 30 31
 17 28 0 32 28 28 0 33 22 0 0 +16 29 8 30 ?34 22 35 36 0 0 1 31 18 65 0 22 36 8
 0 +0 -.001 0 0 1 0 -1 0 0 .00327525512860841 31 36 62 0 29 37 18 0 +0 0 0 0 1 0
 1 0 0 .00125 31 37 60 0 35 0 36 0 +0 -.001 0 0 1 0 1 0 0 .00125 16 35 5 38 ?39
 29 0 37 0 0 1 81 1 38 115 23 35 0 0 30 40 41 17 39 0 42 39 39 0 43 35 0 0 +15 2
55 42 14 0 39 44 45 17 43 0 46 43 43 0 39 35 0 0 -15 46 4 0 43 47 0 14 255 47 3
 48 ?0 44 49 6 50 -0 0 0 44 19 81 1 48 119 23 47 0 0 51 52 53 14 44 10 51 ?47 54
 42 6 55 -0 0 47 54 19 15 49 7 0 34 47 46 51 255 50 58 0 47 0 55 0 +0 -.001 0 0
 1 0 .00125 -1 0 0 13 19 2 0 0 0 0 0 0 9 15 14 15 20 40 ?54 0 56 6 7 +0 0 54 0 1
9 81 1 40 116 23 15 0 0 38 57 58 14 54 15 57 ?44 15 26 6 17 +0 0 44 15 19 15 56
 22 0 27 15 32 17 27 0 56 27 27 0 21 10 0 0 -15 32 21 0 28 15 0 81 1 57 117 23 5
4 0 0 40 51 59 15 26 17 0 21 54 60 50 255 17 66 0 54 55 7 0 +0 0 0 0 1 0 -1 0 0
 50 55 63 0 44 50 17 0 +0 -.001 0 0 1 0 -1 0 0 15 60 16 0 61 54 0 17 61 0 60 61
 61 0 34 29 0 0 -17 34 0 49 34 34 0 61 29 0 0 +80 7 CCCCCDI12 legal_owners0 17 1
 lCZ1 23 62 63 9000 0 0 0 0 3 5 0 0 0 FFTFTFTTFFFFFFFFF2 81 1 51 118 23 44 0 0 5
7 48 64 83 255 1 59 58 83 1 64 59 79 255 13 63 BTI/importTag83 1 58 57 81 1 52 1
20 23 1 65 66 48 0 67 83 1 53 60 81 1 65 110 68 1 0 52 0 0 69 81 1 66 121 70 1 5
2 71 0 0 72 83 1 67 61 80 1 70 23 73 9000 0 0 0 0 3 5 0 0 0 FFTFTFTTFFFFFFFFF2 8
1 1 71 132 74 1 66 12 0 0 75 83 1 72 1349 80 1 74 76 77 8040 0 0 0 0 3 5 0 0 0 T
TTFFFFFFFFFFFFFF2 81 1 12 133 78 1 71 2 0 0 79 83 3 75 .741176470588235 .7764705
88235294 .8 80 1 78 11 80 8038 0 0 0 0 0 0 0 0 0 TTTTTTTTTTTTTFTFT10 98 255 19 7
9 67 111 110 116 97 99 116 111 95 112 108 97 110 111 95 118 49 46 48 79 14 80 SD
L/TYSA_UNAME79 17 77 SDL/TYSA_COLOUR_279 18 73 BTI/importMaxCount80 1 68 81 82 9
000 0 0 0 0 3 5 0 0 0 TTTFFFFFFFFFFFFFF1 82 255 1 69 2 79 23 82 ONSHAPE_ORIGINAL
BODY_ID15 45 11 0 33 44 0 17 33 0 45 33 33 0 28 22 0 0 -81 1 30 114 23 29 0 0 24
 38 83 83 1 41 56 83 1 83 55 83 1 31 54 83 1 25 53 19 16 23 0 1 0 9 6 0 S0 74 4
 CI16 index_map_offset0 0 1 dCCZ20 14 6 0 0 65 52 66 71 12 2 0 0 0 0 0 0 0 0 0 0
 0 0 0 0 80 1 11 84 85 8017 0 0 0 0 0 0 0 0 0 TTTTTTTTTTTTTFTFT3 84 255 19 13 Co
ntacto_plano_v1.079 13 85 SDL/TYSA_NAME1 0 
