**ABCDEFGHIJKLMNOPQRSTUVWXYZabcdefghijklmnopqrstuvwxyz**************************
**PARASOLID !"#$%&'()*+,-./:;<=>?@[\]^_`{|}~0123456789**************************
**PART1;
MC=unknown;
MC_MODEL=unknown;
MC_ID=unknown;
OS=unknown;
OS_RELEASE=unknown;
FRU=Parasolid 37.0.173;
APPL=Onshape;
SITE=unknown;
USER=unknown;
FORMAT=text;
GUISE=transmit;
KEY=BTGapi::writeModels_.xmt;
FILE=BTGapi::writeModels_.xmt;
DATE=2024-12-29T04:00:27 (UTC);
**PART2;
SCH=SCH_3700173_36001;
USFLD_SIZE=0;
**PART3;
**END_OF_HEADER*****************************************************************
T51 : TRANSMIT FILE created by modeller version 370017323 SCH_3700173_36001_1300
6231 0 12 36 CCCI7 lattice222 0 CCCI4 mesh1006 0 I8 polyline1008 0 CCCCCCCDI5 ow
ner1040 0 CCCI16 boundary_lattice222 0 CCCI13 boundary_mesh1006 0 I17 boundary_p
olyline1008 0 CCCA16 index_map_offset0 0 1 dA9 index_map82 0 A17 node_id_index_m
ap82 0 A20 schema_embedding_map82 0 A5 child12 0 A14 lowest_node_id0 0 1 dA16 me
sh_offset_data206 0 Z1 481 2 3 0 0 0 0 0 0 0 1e3 1e-8 0 4 5 1 0 3 2 6 0 7 8 9 0
 0 10 11 12 0 0 0 0 0 0 0 81 255 1 2 430 13 1 14 0 0 0 15 70 11 CI9 list_type0 0
 1 uI10 notransmit0 0 1 lCCCDCCDI12 finger_index0 0 1 dI12 finger_block1012 0 CZ
3 0 4 T1 0 0 5 20 1 16 16 13 255 6 2 0 1 0 17 0 0 10 17 50 255 7 132 0 17 0 0 0
 +.0029385 0 8e-4 0 -1 0 1 0 0 31 255 8 379 0 1 18 0 19 +.00297385005810689 2088
542720516505e-35 .00044579159933519 332385392318901e-31 1 514256644719808e-31 .3
54443025484588 -59868155971607e-30 .935077612653266 .000348857032026678 29 255 9
 178 0 12 20 0 .003131 0 3995e-7 19 9 CCCCCCI5 frame230 0 CA5 owner12 0 Z10 1 0
 1 0 0 6 0 V0 16 255 11 53 21 ?22 0 23 24 0 0 1 18 255 12 52 25 22 0 26 9 5e-7 1
 81 1 25 380 27 12 0 0 0 28 29 17 255 22 0 0 0 0 12 30 11 0 31 +18 26 50 28 32 1
2 33 20 5e-7 1 81 1 28 381 27 26 0 0 25 34 35 17 32 0 0 0 0 26 31 23 0 36 +18 33
 48 34 37 26 38 39 5e-7 1 29 20 176 0 26 39 9 .0030835 0 5785e-7 29 39 174 0 33
 40 20 .0029385 0 64e-5 29 40 172 0 38 41 39 .0027905 0 578e-6 18 38 46 42 43 33
 44 40 5e-7 1 29 41 170 0 44 45 40 .0027425 0 3995e-7 18 44 44 46 47 38 48 41 5e
-7 1 29 45 168 0 48 49 41 .0027905 0 221e-6 18 48 42 50 51 44 52 45 5e-7 1 29 49
 166 0 52 53 45 .0030835 0 221e-6 18 52 40 54 30 48 55 49 5e-7 1 29 53 165 0 55
 56 49 .0029385 0 16e-5 18 55 39 57 58 52 59 53 5e-7 1 29 56 162 0 59 60 53 .003
2205 0 6925e-7 18 59 35 61 62 55 63 56 5e-7 1 29 60 160 0 63 64 56 .003299 0 566
5e-7 18 63 33 65 66 59 67 60 5e-7 1 29 64 158 0 67 68 60 .003327 0 401e-6 18 67
 31 69 70 63 71 64 5e-7 1 29 68 156 0 71 72 64 .003299 0 2345e-7 18 71 29 73 74
 67 75 68 5e-7 1 29 72 154 0 75 76 68 .0032205 0 108e-6 18 75 27 77 78 71 79 72
 5e-7 1 29 76 152 0 79 80 72 .0030975 0 28e-6 18 79 25 81 82 75 83 76 5e-7 1 29
 80 150 0 83 84 76 .0029385 0 -6661338147751e-31 18 83 23 85 86 79 87 80 5e-7 1
 29 84 148 0 87 88 80 .0027775 0 28e-6 18 87 21 89 90 83 91 84 5e-7 1 29 88 146
 0 91 92 84 .0026545 0 108e-6 18 91 19 93 94 87 95 88 5e-7 1 29 92 144 0 95 96 8
8 .0025755 0 2345e-7 18 95 17 97 98 91 99 92 5e-7 1 29 96 142 0 99 100 92 .00254
75 0 401e-6 18 99 15 101 102 95 103 96 5e-7 1 29 100 140 0 103 104 96 .0025755 0
 5665e-7 18 103 13 105 106 99 107 100 5e-7 1 29 104 138 0 107 108 100 .0026545 0
 6925e-7 18 107 11 109 110 103 111 104 5e-7 1 29 108 136 0 111 112 104 .0027775
 0 772e-6 18 111 9 113 114 107 115 108 5e-7 1 29 112 134 0 115 116 108 .0030975
 0 772e-6 18 115 7 117 118 111 119 112 5e-7 1 29 116 133 0 119 0 112 .0029385 0
 8e-4 18 119 6 120 121 115 0 116 5e-7 1 81 1 120 403 27 119 0 0 117 21 122 17 12
1 0 0 0 0 119 123 124 0 125 +17 123 0 126 127 125 111 121 124 0 0 -16 124 8 128
 ?121 129 130 131 0 0 1 17 125 0 126 123 118 119 132 130 0 0 -15 255 126 4 0 125
 17 0 17 118 0 126 125 133 115 62 134 0 132 -17 132 0 0 0 0 115 125 130 0 0 +16
 130 5 135 ?132 124 0 136 0 0 1 81 1 135 427 27 130 0 0 128 137 138 133 255 136
 318 0 130 139 140 0 +140 .0029385 -3009265538105055e-51 8e-4 .0030975 -30092655
38105055e-51 772e-6 390710511713099e-32 .374537280997152 134 255 139 180 0 1 24
 136 141 +142 143 31 140 319 0 1 136 131 144 +.00294411705738388 260853022695798
e-34 .0003664504330013245 1061964557811448e-32 1 603044159614359e-31 -.012954887
83460062 -601617790132935e-31 .999916081919474 .000433585952699569 133 131 322 0
 124 140 145 0 +145 .0027775 -3009265538105055e-51 772e-6 .0029385 0 8e-4 609840
728867823e-31 .3697767147489075 141 255 144 136 144 144 140 31 145 323 0 1 131 1
46 147 +.002932856586495695 2675156137459055e-35 .000355574627649758 -1049162106
106316e-32 1 603268211011131e-31 -.349539140751788 -601887437640261e-31 .9369217
62519423 .000444461201574032 133 146 326 0 129 145 148 0 +148 .0026545 300926553
8105055e-51 6925e-7 .0027775 601853107621011e-50 772e-6 233090221752154e-30 .422
961317239793 141 147 131 147 147 145 16 129 10 149 ?114 150 124 146 0 0 1 31 148
 327 0 1 146 151 152 +.002901149941849085 2088542720019875e-35 .0004457915994033
065 -332385392318901e-31 1 514256644719808e-31 -.707022990112141 -59868155970979
7e-31 .707190562333016 .000348857031947379 133 151 330 0 150 148 153 0 +153 .002
5755 3009265538105055e-51 5665e-7 .0026545 601853107621011e-50 6925e-7 771543812
32509e-47 .4241606341899425 141 152 146 152 152 148 16 150 12 154 ?110 155 129 1
51 0 0 1 31 153 331 0 1 151 156 157 +.00290759017125068 21146239809867e-33 .0004
46050606914256 -518786053205499e-31 1 325270620660591e-31 -.940075549547713 -598
604377096202e-31 .3409662170106685 .000353259024139554 133 156 334 0 155 153 158
 0 +158 .0025475 1203706215242022e-50 401e-6 .0025755 601853107621011e-50 5665e-
7 664725166473346e-48 .362461498600758 141 157 151 157 157 153 16 155 14 159 ?10
6 160 150 156 0 0 1 31 158 335 0 1 156 161 162 +.003013090291580635 280448832681
296e-34 .000407348017134393 -603743783739371e-31 1 1021439634121e-29 -.999907065
319893 -602295138729663e-31 -.01363307461137662 .000465633565087055 133 161 338
 0 160 158 163 0 +163 .0025755 0 2345e-7 .0025475 0 401e-6 575162317503454e-31 .
360214103276993 141 162 156 162 162 158 16 160 16 164 ?102 165 155 161 0 0 1 31
 163 339 0 1 161 166 167 +.003018716287609065 283895400273632e-34 .0003946392255
43867 -603844408427457e-31 1 -1015474080238374e-32 -.940493622336526 -6024187757
36722e-31 -.3398113393404045 .000471259216524992 133 166 342 0 165 163 168 0 +16
8 .0026545 3009265538105055e-51 108e-6 .0025755 902779661431517e-50 2345e-7 1487
97513894474e-30 .4122823273681075 141 167 161 167 167 163 16 165 18 169 ?98 170
 160 166 0 0 1 31 168 343 0 1 166 171 172 +.002917470072121405 2183593847467035e
-35 .00036014435334064 -519364498751366e-31 1 -324346208706387e-31 -.72180805302
4145 -599359315271449e-31 -.692093299049697 .0003643213331018455 133 171 346 0 1
70 168 173 0 +173 .0027775 -3009265538105055e-51 28e-6 .0026545 -300926553810505
5e-51 108e-6 0 .427988410562481 141 172 166 172 172 168 16 170 20 174 ?94 175 16
5 171 0 0 1 31 173 347 0 1 171 176 177 +.00290005894437496 206709161286893e-34 .
0003509906269765045 -333855791265149e-31 1 -513303279070167e-31 -.35476876147891
9 -598356599023374e-31 -.934954076882236 .000345461488390501 133 176 350 0 175 1
73 178 0 +178 .0029385 -3009265538105055e-51 -542101086242752e-34 .0027775 -9027
79661431517e-50 28e-6 677530069722797e-48 .369776714788312 141 177 171 177 177 1
73 16 175 22 179 ?90 180 170 176 0 0 1 31 178 351 0 1 176 181 182 +.002932856586
487535 2675156137167385e-35 .000444425372303313 -104916210610632e-31 1 -60326821
1011131e-31 .01269720167491708 -601887437638044e-31 -.999919387285608 .000444461
20152721 133 181 354 0 180 178 183 0 +183 .0030975 601853107621011e-50 28e-6 .00
29385 902779661431517e-50 1626303258728255e-34 685843760635001e-48 .374537281416
044 141 182 176 182 182 178 16 180 24 184 ?86 185 175 181 0 0 1 31 183 355 0 1 1
81 186 187 +.00294411705746848 260853022397119e-34 .0004335495665182875 10619645
5781145e-31 1 -603044159614359e-31 .3537544095837875 -601617790109058e-31 -.9353
38343969724 .0004335859522203175 133 186 358 0 185 183 188 0 +188 .0032205 60185
3107621011e-50 108e-6 .0030975 902779661431517e-50 28e-6 0 .4279884105624795 141
 187 181 187 187 183 16 185 26 189 ?82 190 180 186 0 0 1 31 188 359 0 1 186 191
 192 +.002974941055625035 2067091612868935e-35 .000350990626976505 3338557912651
49e-31 1 -513303279070167e-31 .710814237265684 -598356599023374e-31 -.7033797836
87592 .000345461488390502 133 191 362 0 190 188 193 0 +193 .003299 -120370621524
2022e-50 2345e-7 .0032205 -1203706215242022e-50 108e-6 0 .418394927903181 141 19
2 186 192 192 188 16 190 28 194 ?78 195 185 191 0 0 1 31 193 363 0 1 191 196 197
 +.002961827580485295 2146952748088265e-35 .0003561267583549745 520286326212031e
-31 1 -322865427728415e-31 .940669660123851 -59897346133855e-30 -.33932372525727
95 .00035843871000401 133 196 366 0 195 193 198 0 +198 .003327 601853107621011e-
50 401e-6 .003299 601853107621011e-50 2345e-7 660784043941643e-48 .3602141032769
84 141 197 191 197 197 193 16 195 30 199 ?74 200 190 196 0 0 1 31 198 367 0 1 19
6 201 202 +.002855783712390925 2838954002736395e-35 .000394639225543869 60384440
8427457e-31 1 -1015474080238374e-32 .999908905938763 -602418775736723e-31 .01349
74006514597 .000471259216525003 133 201 370 0 200 198 203 0 +203 .003299 6018531
07621011e-50 5665e-7 .003327 601853107621011e-50 401e-6 582111264114027e-31 .362
4614986891445 141 202 196 202 202 198 16 200 32 204 ?70 205 195 201 0 0 1 31 203
 371 0 1 201 206 207 +.002861409708531935 2804488326113875e-35 .0004073480171534
38 603743783739371e-31 1 1021439634121e-29 .939773943254694 -602295138724786e-31
 .341796628976243 .000465633564974756 133 206 374 0 205 203 208 0 +208 .0032205
 -601853107621011e-50 6925e-7 .003299 -1203706215242022e-50 5665e-7 779530671237
972e-31 .430255585557874 141 207 201 207 207 203 16 205 34 209 ?66 134 200 206 0
 0 1 31 208 375 0 1 206 18 210 +.00297143249327746 2080031333924645e-35 .0004498
736168434975 519712124244697e-31 1 323788902803244e-31 .716308325610129 -5982088
07574391e-31 .697783908285089 .0003477099145963315 133 18 378 0 134 208 8 0 +8 .
0030975 601853107621011e-50 772e-6 .0032205 601853107621011e-50 6925e-7 11654511
0849585e-30 .4229613171421895 141 210 206 210 210 208 16 134 36 211 ?62 212 205
 18 0 0 1 81 1 211 412 27 134 0 0 213 209 214 17 62 0 0 0 0 59 118 134 0 133 +16
 212 38 213 ?215 216 134 217 0 0 1 81 1 213 411 27 212 0 0 218 211 219 17 215 0
 0 0 0 52 220 212 0 0 +16 216 41 218 ?58 221 212 222 0 0 1 133 217 268 0 212 0 2
23 0 +223 .0029385 0 16e-5 .0030835 0 221e-6 0 1 134 223 167 0 1 217 222 224 +22
5 226 133 222 270 0 216 223 227 0 +227 .0027905 0 221e-6 .0029385 0 16e-5 0 1 14
1 224 217 224 224 223 136 255 225 3 4 3 2 1 FFF1 228 229 230 135 255 226 2 0 45
 255 12 228 .0029385 0 16e-5 .00300383333333333 0 16e-5 .00305216666666667 0 .00
0180333333333333 .0030835 0 221e-6 127 255 2 229 4 4 128 255 2 230 0 1 134 227 1
69 0 1 222 231 232 +233 234 133 231 272 0 221 227 235 0 +235 .0027425 0 3995e-7
 .0027905 0 221e-6 0 1 141 232 222 232 232 227 136 233 3 4 3 2 1 FFF1 236 237 23
8 135 234 2 0 45 12 236 .0027905 0 221e-6 .0028225 0 .000180333333333333 .002871
83333333333 0 16e-5 .0029385 0 16e-5 127 2 237 4 4 128 2 238 0 1 16 221 43 239 ?
51 240 216 231 0 0 1 134 235 171 0 1 231 241 242 +243 244 133 241 274 0 240 235
 245 0 +245 .0027905 0 578e-6 .0027425 0 3995e-7 0 1 141 242 231 242 242 235 136
 243 3 4 3 2 1 FFF1 246 247 248 135 244 2 0 45 12 246 .0027425 0 3995e-7 .002742
5 0 3215e-7 .0027585 0 262e-6 .0027905 0 221e-6 127 2 247 4 4 128 2 248 0 1 16 2
40 45 249 ?47 250 221 241 0 0 1 134 245 173 0 1 241 251 252 +253 254 133 251 276
 0 250 245 255 0 +255 .0029385 0 64e-5 .0027905 0 578e-6 0 1 141 252 241 252 252
 245 136 253 3 4 3 2 1 FFF1 256 257 258 135 254 2 0 45 12 256 .0027905 0 578e-6
 .0027585 0 .000536666666666667 .0027425 0 .000477166666666667 .0027425 0 3995e-
7 127 2 257 4 4 128 2 258 0 1 16 250 47 259 ?43 260 240 251 0 0 1 134 255 175 0
 1 251 261 262 +263 264 133 261 278 0 260 255 265 0 +265 .0030835 0 5785e-7 .002
9385 0 64e-5 0 1 141 262 251 262 262 255 136 263 3 4 3 2 1 FFF1 266 267 268 135
 264 2 0 45 12 266 .0029385 0 64e-5 .00287183333333333 0 64e-5 .0028225 0 .00061
9333333333334 .0027905 0 578e-6 127 2 267 4 4 128 2 268 0 1 16 260 49 269 ?37 23
 250 261 0 0 1 134 265 177 0 1 261 270 271 +272 273 133 270 280 0 23 265 274 0 +
274 .003131 0 3995e-7 .0030835 0 5785e-7 0 1 141 271 261 271 271 265 136 272 3 4
 3 2 1 FFF1 275 276 277 135 273 2 0 45 12 275 .0030835 0 5785e-7 .00305216666666
667 0 6195e-7 .00300383333333333 0 64e-5 .0029385 0 64e-5 127 2 276 4 4 128 2 27
7 0 1 16 23 51 278 ?32 11 260 270 0 0 1 134 274 179 0 1 270 24 279 +280 281 133
 24 282 0 11 274 139 0 +139 .0030835 0 221e-6 .003131 0 3995e-7 0 1 141 279 270
 279 279 274 136 280 3 4 3 2 1 FFF1 282 283 284 135 281 2 0 45 12 282 .003131 0
 3995e-7 .003131 0 .000477833333333333 .00311516666666667 0 5375e-7 .0030835 0 5
785e-7 127 2 283 4 4 128 2 284 0 1 81 1 278 405 27 23 0 0 21 269 285 80 7 CCCCCD
I12 legal_owners0 17 1 lCZ1 27 286 287 9000 0 0 0 0 3 5 0 0 0 FFTFTFTTFFFFFFFFF2
 81 1 21 404 27 11 0 0 120 278 288 81 1 269 406 27 260 0 0 278 259 289 83 255 1
 285 2623 81 1 259 407 27 250 0 0 269 249 290 83 1 289 2624 81 1 249 408 27 240
 0 0 259 239 291 83 1 290 2625 81 1 239 409 27 221 0 0 249 218 292 83 1 291 2626
 81 1 218 410 27 216 0 0 239 213 293 83 1 292 2627 83 1 293 2628 83 1 288 2622 7
9 255 13 287 BTI/importTag17 37 0 0 0 0 33 36 260 0 294 +17 36 0 295 31 294 26 3
7 260 0 0 -17 294 0 295 36 296 33 43 250 0 0 -15 295 37 0 220 17 126 17 296 0 29
5 294 297 38 47 240 0 0 -17 43 0 0 0 0 38 294 250 0 296 +17 297 0 295 296 298 44
 51 221 0 0 -17 47 0 0 0 0 44 296 240 0 297 +17 298 0 295 297 220 48 58 216 0 0
 -17 51 0 0 0 0 48 297 221 0 298 +17 220 0 295 298 30 55 215 212 0 0 -17 58 0 0
 0 0 55 298 216 0 220 +17 30 0 295 220 31 52 22 11 0 215 -17 31 0 295 30 36 12 3
2 23 0 0 -14 255 17 3 137 ?0 0 295 6 7 +0 0 0 0 6 81 1 137 428 27 17 0 0 135 14
 299 81 1 14 429 27 1 300 2 137 0 301 83 1 299 2646 81 1 300 314 302 1 303 14 0
 0 304 83 1 301 2647 80 1 302 305 306 9000 0 0 0 0 3 5 0 0 0 TTTFFFFFFFFFFFFFF1
 81 1 303 235 307 1 308 300 0 0 309 82 255 1 304 4 80 1 307 310 311 8038 0 0 0 0
 0 0 0 0 0 TTTTTTTTTTTTTFTFT10 81 1 308 234 310 1 0 303 0 0 312 98 255 19 309 72
 67 45 48 52 83 104 97 112 101 83 116 114 105 110 103 48 48 57 80 1 310 313 314
 8017 0 0 0 0 0 0 0 0 0 TTTTTTTTTTTTTFTFT3 84 255 19 312 HC-04ShapeString00979 1
3 314 SDL/TYSA_NAME79 14 311 SDL/TYSA_UNAME79 23 306 ONSHAPE_ORIGINALBODY_ID83 1
 219 2629 17 133 0 126 118 315 59 66 205 0 0 -17 315 0 126 133 316 63 70 200 0 0
 -17 66 0 0 0 0 63 133 205 0 315 +17 316 0 126 315 317 67 74 195 0 0 -17 70 0 0
 0 0 67 315 200 0 316 +17 317 0 126 316 318 71 78 190 0 0 -17 74 0 0 0 0 71 316
 195 0 317 +17 318 0 126 317 319 75 82 185 0 0 -17 78 0 0 0 0 75 317 190 0 318 +
17 319 0 126 318 320 79 86 180 0 0 -17 82 0 0 0 0 79 318 185 0 319 +17 320 0 126
 319 321 83 90 175 0 0 -17 86 0 0 0 0 83 319 180 0 320 +17 321 0 126 320 322 87
 94 170 0 0 -17 90 0 0 0 0 87 320 175 0 321 +17 322 0 126 321 323 91 98 165 0 0
 -17 94 0 0 0 0 91 321 170 0 322 +17 323 0 126 322 324 95 102 160 0 0 -17 98 0 0
 0 0 95 322 165 0 323 +17 324 0 126 323 325 99 106 155 0 0 -17 102 0 0 0 0 99 32
3 160 0 324 +17 325 0 126 324 127 103 110 150 0 0 -17 106 0 0 0 0 103 324 155 0
 325 +17 127 0 126 325 123 107 114 129 0 0 -17 110 0 0 0 0 107 325 150 0 127 +17
 114 0 0 0 0 111 127 129 0 123 +81 1 209 413 27 205 0 0 211 204 326 83 1 214 263
0 81 1 204 414 27 200 0 0 209 199 327 83 1 326 2631 81 1 199 415 27 195 0 0 204
 194 328 83 1 327 2632 81 1 194 416 27 190 0 0 199 189 329 83 1 328 2633 81 1 18
9 417 27 185 0 0 194 184 330 83 1 329 2634 81 1 184 418 27 180 0 0 189 179 331 8
3 1 330 2635 81 1 179 419 27 175 0 0 184 174 332 83 1 331 2636 81 1 174 420 27 1
70 0 0 179 169 333 83 1 332 2637 81 1 169 421 27 165 0 0 174 164 334 83 1 333 26
38 81 1 164 422 27 160 0 0 169 159 335 83 1 334 2639 81 1 159 423 27 155 0 0 164
 154 336 83 1 335 2640 81 1 154 424 27 150 0 0 159 149 337 83 1 336 2641 81 1 14
9 425 27 129 0 0 154 128 338 83 1 337 2642 81 1 128 426 27 124 0 0 149 135 339 8
3 1 338 2643 83 1 339 2644 141 141 24 141 141 139 136 142 3 4 3 2 1 FFF1 340 341
 342 135 143 2 0 45 12 340 .0030835 0 221e-6 .00311516666666667 0 .0002616666666
66667 .003131 0 .000321166666666667 .003131 0 3995e-7 127 2 341 4 4 128 2 342 0
 1 83 1 138 2645 81 1 117 402 27 115 0 0 113 120 343 83 1 122 2621 81 1 113 401
 27 111 0 0 109 117 344 83 1 343 2620 81 1 109 400 27 107 0 0 105 113 345 83 1 3
44 2619 81 1 105 399 27 103 0 0 101 109 346 83 1 345 2618 81 1 101 398 27 99 0 0
 97 105 347 83 1 346 2617 81 1 97 397 27 95 0 0 93 101 348 83 1 347 2616 81 1 93
 396 27 91 0 0 89 97 349 83 1 348 2615 81 1 89 395 27 87 0 0 85 93 350 83 1 349
 2614 81 1 85 394 27 83 0 0 81 89 351 83 1 350 2613 81 1 81 393 27 79 0 0 77 85
 352 83 1 351 2612 81 1 77 392 27 75 0 0 73 81 353 83 1 352 2611 81 1 73 391 27
 71 0 0 69 77 354 83 1 353 2610 81 1 69 390 27 67 0 0 65 73 355 83 1 354 2609 81
 1 65 389 27 63 0 0 61 69 356 83 1 355 2608 81 1 61 388 27 59 0 0 57 65 357 83 1
 356 2607 81 1 57 387 27 55 0 0 54 61 358 83 1 357 2606 81 1 54 386 27 52 0 0 50
 57 359 83 1 358 2605 81 1 50 385 27 48 0 0 46 54 360 83 1 359 2604 81 1 46 384
 27 44 0 0 42 50 361 83 1 360 2603 81 1 42 383 27 38 0 0 34 46 362 83 1 361 2602
 81 1 34 382 27 33 0 0 28 42 363 83 1 362 2601 83 1 363 26e2 83 1 35 2599 83 1 2
9 2598 141 19 18 19 19 8 74 4 CI16 index_map_offset0 0 1 dCCZ20 16 5 0 0 308 303
 300 14 2 0 0 0 0 0 0 0 0 0 0 0 0 0 0 0 80 1 13 27 364 9000 0 0 0 0 3 5 0 0 0 FF
TFTFTTFFFFFFFFF2 83 1 15 17325 79 18 364 BTI/importMaxCount1 0 
