**ABCDEFGHIJKLMNOPQRSTUVWXYZabcdefghijklmnopqrstuvwxyz**************************
**PARASOLID !"#$%&'()*+,-./:;<=>?@[\]^_`{|}~0123456789**************************
**PART1;
MC=unknown;
MC_MODEL=unknown;
MC_ID=unknown;
OS=unknown;
OS_RELEASE=unknown;
FRU=Parasolid 37.0.173;
APPL=Onshape;
SITE=unknown;
USER=unknown;
FORMAT=text;
GUISE=transmit;
KEY=BTGapi::writeModels_.xmt;
FILE=BTGapi::writeModels_.xmt;
DATE=2024-12-29T04:00:26 (UTC);
**PART2;
SCH=SCH_3700173_36001;
USFLD_SIZE=0;
**PART3;
**END_OF_HEADER*****************************************************************
T51 : TRANSMIT FILE created by modeller version 370017323 SCH_3700173_36001_1300
6231 0 12 36 CCCI7 lattice222 0 CCCI4 mesh1006 0 I8 polyline1008 0 CCCCCCCDI5 ow
ner1040 0 CCCI16 boundary_lattice222 0 CCCI13 boundary_mesh1006 0 I17 boundary_p
olyline1008 0 CCCA16 index_map_offset0 0 1 dA9 index_map82 0 A17 node_id_index_m
ap82 0 A20 schema_embedding_map82 0 A5 child12 0 A14 lowest_node_id0 0 1 dA16 me
sh_offset_data206 0 Z1 296 2 3 0 0 0 0 0 0 0 1e3 1e-8 0 4 5 1 0 1 2 6 0 7 8 0 0
 0 9 10 0 0 0 0 0 0 0 0 81 255 1 2 296 11 1 12 0 0 0 13 70 11 CI9 list_type0 0 1
 uI10 notransmit0 0 1 lCCCDCCDI12 finger_index0 0 1 dI12 finger_block1012 0 CZ3
 0 4 T1 0 0 6 20 1 14 14 13 255 6 54 0 1 0 15 0 0 16 0 54 255 7 159 0 15 17 0 0
 +-65e-5 0 0 -1 0 0 .00203038475772934 6e-4 0 -1 0 31 255 8 137 0 18 19 0 0 +-.0
0125 0 0 1 0 0 0 1 0 .00203038475772934 19 9 CCCCCCI5 frame230 0 CA5 owner12 0 Z
9 1 0 1 16 0 20 0 V0 16 255 10 36 21 ?22 0 23 24 0 0 1 81 1 21 250 25 10 0 0 0 2
6 27 17 255 22 0 28 22 22 0 29 10 0 0 +16 23 33 26 ?30 10 31 32 0 0 1 31 24 154
 0 10 33 34 0 +95e-5 0 0 -1 0 0 0 -1 0 .00255 31 33 149 0 31 32 24 0 +.00125 0 0
 -1 0 0 0 -1 0 .00203038475772934 31 34 139 0 35 24 36 0 +-.00125 0 0 1 0 0 0 1
 0 .00155 16 35 15 37 ?38 39 18 34 0 0 1 31 36 144 0 40 34 41 0 +-65e-5 0 0 1 0
 0 0 1 0 95e-5 16 40 22 42 ?43 44 39 36 0 0 1 31 41 142 0 39 36 45 0 +65e-5 0 0
 -1 0 0 0 -1 0 95e-5 16 39 19 46 ?47 40 35 41 0 0 1 31 45 147 0 44 41 19 0 +.001
25 0 0 -1 0 0 0 -1 0 .00155 16 44 26 48 ?49 31 40 45 0 0 1 31 19 132 0 50 45 8 0
 +-95e-5 0 0 -1 0 0 0 -1 0 .00255 16 50 5 51 ?52 53 0 19 0 0 1 81 1 51 259 25 50
 0 0 54 55 56 17 52 0 57 52 52 0 58 50 0 0 +16 53 8 54 ?59 18 50 60 0 0 1 81 1 5
4 258 25 53 0 0 61 51 62 17 59 0 63 59 59 0 64 53 0 0 +16 18 12 61 ?65 35 53 8 0
 0 1 31 60 134 0 53 0 32 0 +-95e-5 0 0 -1 0 0 0 -1 0 .00125 31 32 152 0 23 60 33
 0 +95e-5 0 0 -1 0 0 0 -1 0 .00125 81 1 61 257 25 18 0 0 37 54 66 17 65 0 67 65
 65 0 68 18 0 0 +15 255 67 52 0 65 15 57 17 68 0 69 68 68 0 65 18 0 0 -15 69 11
 0 68 70 0 14 255 70 10 71 ?72 73 74 6 75 -0 0 72 73 20 81 1 71 268 25 70 0 0 76
 77 78 14 72 3 77 ?0 70 63 6 79 -0 0 0 70 20 14 73 17 76 ?70 80 81 6 82 -0 0 70
 80 20 15 74 14 0 38 70 69 50 255 75 135 0 70 79 82 0 +-.00125 0 .00255 1 0 0 0
 1 0 13 20 2 0 0 0 0 0 0 9 15 14 15 50 55 ?83 0 67 6 7 +0 0 83 0 20 81 1 55 260
 25 15 0 0 51 84 85 14 83 47 84 ?86 15 87 6 17 +0 0 86 15 20 81 1 84 261 25 83 0
 0 55 88 89 14 86 44 88 ?90 83 91 6 92 +0 0 90 83 20 15 87 49 0 93 83 94 54 17 1
58 0 83 92 7 0 +65e-5 0 0 -1 0 0 .00155 6e-4 0 -1 0 54 92 157 0 86 95 17 0 +-65e
-5 0 0 1 0 0 .00155 6e-4 0 1 0 54 95 156 0 90 96 92 0 +65e-5 0 0 1 0 0 .00203038
475772934 6e-4 0 1 0 14 90 41 97 ?98 86 99 6 95 +0 0 98 86 20 51 255 96 155 0 98
 100 95 0 +-764724184478094e-19 0 0 -1 0 0 .00125 0 -1 0 14 98 38 101 ?102 90 10
3 6 96 +0 0 102 90 20 50 100 150 0 102 104 96 0 +95e-5 0 .00125 1 0 0 0 1 0 14 1
02 31 105 ?80 98 28 6 100 -0 0 80 98 20 50 104 145 0 80 82 100 0 +.00125 0 .0025
5 -1 0 0 0 -1 0 14 80 24 106 ?73 102 107 6 104 -0 0 73 102 20 51 82 140 0 73 75
 104 0 +-764724184478094e-19 0 0 -1 0 0 95e-5 0 -1 0 81 1 106 266 25 80 0 0 105
 76 108 15 107 28 0 109 80 110 17 109 0 107 109 109 0 111 31 0 0 -15 110 25 0 49
 80 0 17 49 0 110 49 49 0 93 44 0 0 +17 93 0 87 93 93 0 49 44 0 0 -17 111 0 112
 111 111 0 109 31 0 0 +16 31 29 113 ?111 23 44 33 0 0 1 81 1 113 252 25 31 0 0 2
6 48 114 80 7 CCCCCDI12 legal_owners0 17 1 lCZ1 25 115 116 9000 0 0 0 0 3 5 0 0
 0 FFTFTFTTFFFFFFFFF2 81 1 26 251 25 23 0 0 21 113 117 81 1 48 253 25 44 0 0 113
 42 118 83 255 1 114 34 81 1 42 254 25 40 0 0 48 46 119 83 1 118 35 81 1 46 255
 25 39 0 0 42 37 120 83 1 119 36 81 1 37 256 25 35 0 0 46 61 121 83 1 120 37 83
 1 121 38 83 1 117 33 79 255 13 116 BTI/importTag15 112 42 0 111 90 0 81 1 105 2
65 25 102 0 0 101 106 122 81 1 76 267 25 73 0 0 106 71 123 83 1 108 48 83 1 123
 49 81 1 101 264 25 98 0 0 97 105 124 83 1 122 47 81 1 97 263 25 90 0 0 88 101 1
25 83 1 124 46 81 1 88 262 25 86 0 0 84 97 126 83 1 125 45 83 1 126 44 15 28 35
 0 22 102 127 15 127 32 0 128 102 0 17 128 0 127 128 128 0 30 23 0 0 -17 30 0 10
3 30 30 0 128 23 0 0 +15 103 40 0 30 98 129 15 129 39 0 64 98 0 17 64 0 129 64 6
4 0 59 53 0 0 -15 99 43 0 29 90 112 17 29 0 99 29 29 0 22 10 0 0 -15 94 48 0 47
 83 0 17 47 0 94 47 47 0 130 39 0 0 +17 130 0 131 130 130 0 47 39 0 0 -15 131 18
 0 130 73 0 15 91 46 0 43 86 132 17 43 0 91 43 43 0 133 40 0 0 +15 132 45 0 134
 86 0 17 134 0 132 134 134 0 38 35 0 0 -17 38 0 74 38 38 0 134 35 0 0 +17 133 0
 81 133 133 0 43 40 0 0 -15 81 21 0 133 73 131 83 1 89 43 83 1 85 42 50 79 130 0
 72 0 75 0 +-95e-5 0 .00125 -1 0 0 0 -1 0 81 1 77 269 25 72 0 0 71 135 136 15 63
 7 0 59 72 137 15 137 4 0 58 72 0 17 58 0 137 58 58 0 52 50 0 0 -81 1 135 270 25
 1 138 139 77 0 140 83 1 136 51 81 1 138 248 141 1 0 135 0 0 142 81 1 139 271 14
3 1 135 144 0 0 145 83 1 140 52 80 1 143 25 146 9000 0 0 0 0 3 5 0 0 0 FFTFTFTTF
FFFFFFFF2 81 1 144 294 147 1 139 12 0 0 148 83 1 145 1349 80 1 147 149 150 8040
 0 0 0 0 3 5 0 0 0 TTTFFFFFFFFFFFFFF2 81 1 12 295 151 1 144 2 0 0 152 83 3 148 .
8 .666666666666667 .3215686274509805 80 1 151 11 153 8038 0 0 0 0 0 0 0 0 0 TTTT
TTTTTTTTTFTFT10 98 255 12 152 114 101 109 97 99 104 101 95 118 49 46 48 79 14 15
3 SDL/TYSA_UNAME79 17 150 SDL/TYSA_COLOUR_279 18 146 BTI/importMaxCount80 1 141
 154 155 9000 0 0 0 0 3 5 0 0 0 TTTFFFFFFFFFFFFFF1 82 255 1 142 1 79 23 155 ONSH
APE_ORIGINALBODY_ID83 1 78 50 15 57 51 0 52 15 0 83 1 66 39 83 1 62 40 83 1 56 4
1 83 1 27 32 19 16 53 0 1 0 9 6 0 S0 74 4 CI16 index_map_offset0 0 1 dCCZ20 14 6
 0 0 138 135 139 144 12 2 0 0 0 0 0 0 0 0 0 0 0 0 0 0 80 1 11 156 157 8017 0 0 0
 0 0 0 0 0 0 TTTTTTTTTTTTTFTFT3 84 255 12 13 remache_v1.079 13 157 SDL/TYSA_NAME
1 0 
