**ABCDEFGHIJKLMNOPQRSTUVWXYZabcdefghijklmnopqrstuvwxyz**************************
**PARASOLID !"#$%&'()*+,-./:;<=>?@[\]^_`{|}~0123456789**************************
**PART1;
MC=unknown;
MC_MODEL=unknown;
MC_ID=unknown;
OS=unknown;
OS_RELEASE=unknown;
FRU=Parasolid 37.0.173;
APPL=Onshape;
SITE=unknown;
USER=unknown;
FORMAT=text;
GUISE=transmit;
KEY=BTGapi::writeModels_.xmt;
FILE=BTGapi::writeModels_.xmt;
DATE=2024-12-29T04:00:28 (UTC);
**PART2;
SCH=SCH_3700173_36001;
USFLD_SIZE=0;
**PART3;
**END_OF_HEADER*****************************************************************
T51 : TRANSMIT FILE created by modeller version 370017323 SCH_3700173_36001_1300
6231 0 12 36 CCCI7 lattice222 0 CCCI4 mesh1006 0 I8 polyline1008 0 CCCCCCCDI5 ow
ner1040 0 CCCI16 boundary_lattice222 0 CCCI13 boundary_mesh1006 0 I17 boundary_p
olyline1008 0 CCCA16 index_map_offset0 0 1 dA9 index_map82 0 A17 node_id_index_m
ap82 0 A20 schema_embedding_map82 0 A5 child12 0 A14 lowest_node_id0 0 1 dA16 me
sh_offset_data206 0 Z1 187 2 3 0 0 0 0 0 0 0 1e3 1e-8 0 4 5 1 0 1 2 6 0 7 8 0 0
 0 9 10 0 0 0 0 0 0 0 0 81 255 1 2 187 11 1 12 0 0 0 13 70 11 CI9 list_type0 0 1
 uI10 notransmit0 0 1 lCCCDCCDI12 finger_index0 0 1 dI12 finger_block1012 0 CZ3
 0 4 T1 0 0 6 20 1 14 14 13 255 6 29 0 1 0 15 0 0 16 0 51 255 7 92 0 15 17 0 0 +
-.013 0 -107e-9 0 1 0 .0065 1 0 0 31 255 8 88 0 18 19 0 0 +-.013 0 -107e-9 0 -1
 0 1 0 0 .0065 19 9 CCCCCCI5 frame230 0 CA5 owner12 0 Z9 1 0 1 16 0 20 0 V0 16 2
55 10 23 21 ?22 0 18 19 0 0 1 81 1 21 161 23 10 0 0 0 24 25 17 255 22 0 26 22 22
 0 27 10 0 0 +16 18 18 24 ?28 10 29 8 0 0 1 31 19 91 0 10 30 8 0 +-.013 -.012 -1
07e-9 0 -1 0 1 0 0 .0065 31 30 84 0 29 31 19 0 +-.013 -.012 -107e-9 0 -1 0 1 0 0
 .0073 16 29 12 32 ?33 18 34 30 0 0 1 31 31 78 0 35 36 30 0 +-.013 0 -107e-9 0 -
1 0 1 0 0 .008 16 35 5 37 ?38 34 0 31 0 0 1 31 36 81 0 34 0 31 0 +-.013 -.0113 -
107e-9 0 -1 0 1 0 0 .008 16 34 9 39 ?40 29 35 36 0 0 1 81 1 39 164 23 34 0 0 32
 37 41 17 40 0 42 40 40 0 43 34 0 0 +15 255 42 155 0 40 44 45 17 43 0 46 43 43 0
 40 34 0 0 -15 46 156 0 43 47 48 14 255 47 3 49 ?0 44 46 6 50 +0 0 0 44 20 15 48
 4 0 38 47 0 17 38 0 48 38 38 0 51 35 0 0 +17 51 0 52 51 51 0 38 35 0 0 -15 52 1
6 0 51 53 0 14 53 15 54 ?44 55 56 6 57 +0 0 44 55 20 81 1 54 168 23 53 0 0 58 59
 60 14 44 10 59 ?47 53 42 6 61 +0 0 47 53 20 14 55 20 58 ?53 15 62 6 17 -0 0 53
 15 20 15 56 17 0 28 53 52 50 255 57 86 0 53 61 17 0 +-.005 0 -107e-9 0 1 0 -1 0
 0 13 20 2 0 0 0 0 0 0 9 15 14 15 25 63 ?55 0 64 6 7 -0 0 55 0 20 81 1 63 166 23
 15 0 0 37 58 65 15 64 154 0 66 15 26 17 66 0 64 66 66 0 28 18 0 0 -15 26 26 0 2
2 15 0 17 28 0 56 28 28 0 66 18 0 0 +80 7 CCCCCDI12 legal_owners0 17 1 lCZ1 23 6
7 68 9000 0 0 0 0 3 5 0 0 0 FFTFTFTTFFFFFFFFF2 81 1 37 165 23 35 0 0 39 63 69 81
 1 58 167 23 55 0 0 63 54 70 83 255 1 65 16425 83 1 70 16426 83 1 69 16424 79 25
5 13 68 BTI/importTag54 255 61 82 0 44 50 57 0 +-.013 -.0113 -107e-9 0 -1 0 .007
3 7e-4 1 0 0 50 17 89 0 55 57 7 0 +-.005 -.012 -107e-9 0 1 0 -1 0 0 51 50 76 0 4
7 0 61 0 +-.013 0 -107e-9 0 1 0 .008 1 0 0 15 62 22 0 27 55 71 17 27 0 62 27 27
 0 22 10 0 0 -15 71 21 0 33 55 0 17 33 0 71 33 33 0 72 29 0 0 +17 72 0 45 72 72
 0 33 29 0 0 -15 45 11 0 72 44 0 81 1 59 169 23 44 0 0 54 49 73 81 1 49 170 23 4
7 0 0 59 74 75 83 1 73 16428 81 1 74 171 23 1 76 77 49 0 78 83 1 75 16429 81 1 7
6 159 79 1 0 74 0 0 80 81 1 77 172 81 1 74 82 0 0 83 83 1 78 16430 80 1 81 23 84
 9000 0 0 0 0 3 5 0 0 0 FFTFTFTTFFFFFFFFF2 81 1 82 185 85 1 77 12 0 0 86 83 1 83
 17325 80 1 85 87 88 8040 0 0 0 0 3 5 0 0 0 TTTFFFFFFFFFFFFFF2 81 1 12 186 89 1
 82 2 0 0 90 83 3 86 .690196078431373 .690196078431373 .690196078431373 80 1 89
 11 91 8038 0 0 0 0 0 0 0 0 0 TTTTTTTTTTTTTFTFT10 98 255 14 90 72 67 45 48 52 70
 105 108 108 101 116 48 48 49 79 14 91 SDL/TYSA_UNAME79 17 88 SDL/TYSA_COLOUR_27
9 18 84 BTI/importMaxCount80 1 79 92 93 9000 0 0 0 0 3 5 0 0 0 TTTFFFFFFFFFFFFFF
1 82 255 1 80 47 79 23 93 ONSHAPE_ORIGINALBODY_ID83 1 60 16427 81 1 32 163 23 29
 0 0 24 39 94 83 1 41 16423 81 1 24 162 23 18 0 0 21 32 95 83 1 94 16422 83 1 95
 16421 83 1 25 16420 19 16 28 0 1 0 9 6 0 S0 74 4 CI16 index_map_offset0 0 1 dCC
Z20 14 6 0 0 76 74 77 82 12 2 0 0 0 0 0 0 0 0 0 0 0 0 0 0 80 1 11 96 97 8017 0 0
 0 0 0 0 0 0 0 TTTTTTTTTTTTTFTFT3 84 255 14 13 HC-04Fillet00179 13 97 SDL/TYSA_N
AME1 0 
