**ABCDEFGHIJKLMNOPQRSTUVWXYZabcdefghijklmnopqrstuvwxyz**************************
**PARASOLID !"#$%&'()*+,-./:;<=>?@[\]^_`{|}~0123456789**************************
**PART1;
MC=unknown;
MC_MODEL=unknown;
MC_ID=unknown;
OS=unknown;
OS_RELEASE=unknown;
FRU=Parasolid 37.0.173;
APPL=Onshape;
SITE=unknown;
USER=unknown;
FORMAT=text;
GUISE=transmit;
KEY=BTGapi::writeModels_.xmt;
FILE=BTGapi::writeModels_.xmt;
DATE=2024-12-29T04:00:28 (UTC);
**PART2;
SCH=SCH_3700173_36001;
USFLD_SIZE=0;
**PART3;
**END_OF_HEADER*****************************************************************
T51 : TRANSMIT FILE created by modeller version 370017323 SCH_3700173_36001_1300
6231 0 12 36 CCCI7 lattice222 0 CCCI4 mesh1006 0 I8 polyline1008 0 CCCCCCCDI5 ow
ner1040 0 CCCI16 boundary_lattice222 0 CCCI13 boundary_mesh1006 0 I17 boundary_p
olyline1008 0 CCCA16 index_map_offset0 0 1 dA9 index_map82 0 A17 node_id_index_m
ap82 0 A20 schema_embedding_map82 0 A5 child12 0 A14 lowest_node_id0 0 1 dA16 me
sh_offset_data206 0 Z1 488 2 3 0 0 0 0 0 0 0 1e3 1e-8 0 4 5 1 0 1 2 6 0 7 8 9 0
 0 10 11 12 0 0 0 0 0 0 0 81 255 1 2 488 13 1 14 0 0 0 15 70 11 CI9 list_type0 0
 1 uI10 notransmit0 0 1 lCCCDCCDI12 finger_index0 0 1 dI12 finger_block1012 0 CZ
3 0 4 T1 0 0 6 20 1 16 16 13 255 6 64 0 1 0 17 0 0 18 0 50 255 7 227 0 17 19 0 0
 +.017154829 -9999999999999e-18 .005245029 0 1 -1224646799147e-28 1 0 0 30 255 8
 225 0 1 20 0 21 +.017154829 -9999999999999e-18 .004260091 0 1224646799147e-28 1
 29 255 9 180 0 22 23 0 .017154829 -9999999999999e-18 .005245029 19 9 CCCCCCI5 f
rame230 0 CA5 owner12 0 Z10 1 0 1 18 0 24 0 V0 16 255 11 58 25 ?26 0 27 20 0 0 1
 18 255 12 53 28 29 0 30 31 5e-7 1 81 1 28 382 32 12 0 0 0 33 34 17 255 29 0 35
 36 37 12 26 11 0 38 -18 30 51 33 39 12 40 41 5e-7 1 29 31 220 0 12 41 23 .01715
4829 -9999999999999e-18 .004260091 29 41 218 0 30 42 31 .017154829 5217106807226
e-31 .004260091 29 23 179 0 43 31 9 .017154829 6423307976285e-31 .005245029 18 4
3 6 44 45 22 0 23 5e-7 1 81 1 44 397 32 43 0 0 46 25 47 17 45 0 35 37 36 43 39 2
7 0 48 +18 22 7 46 26 49 43 9 5e-7 1 81 1 46 396 32 22 0 0 50 44 51 17 26 0 52 5
3 38 22 29 11 0 54 +18 49 9 50 55 56 22 57 5e-7 1 81 1 50 395 32 49 0 0 58 46 59
 17 55 0 60 48 61 49 62 63 0 64 -18 56 11 58 65 66 49 67 5e-7 1 29 57 182 0 49 0
 67 .016885069 6423307976285e-31 .005245029 29 67 184 0 56 57 68 .016885069 -999
9999999999e-18 .005245029 29 68 188 0 66 67 69 .016885069 4910308291104e-31 .004
009571 18 66 16 70 61 71 56 68 5e-7 1 29 69 190 0 71 68 72 .016885069 -1e-5 .004
009571 18 71 18 73 74 75 66 69 5e-7 1 29 72 194 0 75 69 76 .018462166 4910308291
104e-31 .004009571 18 75 23 77 78 79 71 72 5e-7 1 29 76 196 0 79 72 80 .01846216
6 -1e-5 .004009571 18 79 25 81 82 83 75 76 5e-7 1 29 80 200 0 83 76 84 .01846216
6 6416434033801e-31 .005239416 18 83 30 85 86 87 79 80 5e-7 1 29 84 202 0 87 80
 88 .018462166 -9999999999999e-18 .005239416 18 87 32 89 90 91 83 84 5e-7 1 29 8
8 206 0 91 84 92 .01817919 6416434033801e-31 .005239416 18 91 37 93 94 95 87 88
 5e-7 1 29 92 208 0 95 88 96 .01817919 -9999999999999e-18 .005239416 18 95 39 97
 98 99 91 92 5e-7 1 29 96 212 0 99 92 42 .01817919 5217106807226e-31 .004260091
 18 99 44 100 101 40 95 96 5e-7 1 29 42 214 0 40 96 41 .01817919 -9999999999999e
-18 .004260091 18 40 46 102 103 30 99 42 5e-7 1 81 1 102 384 32 40 0 0 33 100 10
4 17 103 0 105 106 107 40 38 108 0 109 -15 255 105 49 0 106 110 0 17 106 0 105 1
11 103 99 112 113 0 114 -17 107 0 105 103 111 12 36 115 0 0 +17 38 0 52 26 109 1
2 103 108 0 107 +16 108 54 116 ?38 27 115 117 0 0 1 17 109 0 52 38 118 40 98 119
 0 112 +15 52 62 0 53 17 0 17 118 0 52 109 120 95 90 121 0 122 +17 98 0 123 124
 112 95 109 119 0 118 -16 119 47 125 ?109 126 113 127 0 0 1 17 112 0 123 98 114
 40 106 113 0 0 +15 123 42 0 124 128 0 17 114 0 123 112 124 99 94 129 0 0 +16 11
3 45 130 ?112 119 129 131 0 0 1 81 1 130 404 32 113 0 0 125 132 133 16 129 43 13
2 ?114 113 121 134 0 0 1 133 255 131 307 0 113 135 136 0 +136 .01817919 52171068
07226e-31 .004260091 .01817919 -9999999999999e-18 .004260091 0 999999999999952e-
20 30 135 209 0 1 137 131 138 +.01817919 6416434033801e-31 .005239416 0 -1 12246
46799147e-28 30 136 215 0 1 131 139 140 +.01817919 5217106807226e-31 .004260091
 0 -1 1224646799147e-28 133 139 311 0 115 136 141 0 +141 .017154829 521710680722
6e-31 .004260091 .017154829 -9999999999999e-18 .004260091 0 999999999999952e-20
 141 255 140 131 140 140 136 16 115 52 142 ?107 108 126 139 0 0 1 30 141 221 0 1
 139 143 144 +.017154829 5217106807226e-31 .004260091 0 -1 1224646799147e-28 133
 143 313 0 145 141 146 0 +146 .017154829 6423307976285e-31 .005245029 .017154829
 -9999999999999e-18 .005245029 0 999999999999964e-20 141 144 139 144 144 141 16
 145 5 147 ?37 148 0 143 0 0 1 30 146 181 0 1 143 149 150 +.017154829 6423307976
285e-31 .005245029 0 -1 1224646799147e-28 133 149 317 0 148 146 151 0 +151 .0171
54829 6423307976285e-31 .005245029 .016885069 6423307976285e-31 .005245029 0 269
76e-8 141 150 143 150 150 146 16 148 8 152 ?153 154 145 149 0 0 1 30 151 183 0 1
 149 155 156 +.017154829 6423307976285e-31 .005245029 -1 0 0 133 155 319 0 27 15
1 157 0 +157 .017154829 5217106807226e-31 .004260091 .017154829 642330797628425e
-33 .005245029 0 984938e-9 141 156 149 156 156 151 16 27 57 158 ?45 11 108 155 0
 0 1 30 157 224 0 1 155 159 160 +.017154829 5217106807226e-31 .004260091 0 12246
46799147e-28 1 133 159 321 0 126 157 161 0 +161 .01817919 5217106807226e-31 .004
260091 .017154829 5217106807226e-31 .004260091 0 .001024361 141 160 155 160 160
 157 16 126 50 162 ?111 115 119 159 0 0 1 30 161 219 0 1 159 134 163 +.01817919
 5217106807226e-31 .004260091 -1 0 0 133 134 323 0 129 161 164 0 +164 .01817919
 6416434033801e-31 .005239416 .01817919 521710680722636e-33 .004260091 0 979325e
-9 141 163 159 163 163 161 30 164 213 0 1 134 165 166 +.01817919 6416434033801e-
31 .005239416 0 -1224646799147e-28 -1 133 165 325 0 167 164 168 0 +168 .01846216
6 6416434033801e-31 .005239416 .01817919 6416434033801e-31 .005239416 0 282976e-
9 141 166 134 166 166 164 16 167 36 169 ?170 171 172 165 0 0 1 30 168 207 0 1 16
5 173 174 +.018462166 6416434033801e-31 .005239416 -1 0 0 133 173 327 0 175 168
 176 0 +176 .018462166 4910308291104e-31 .004009571 .018462166 641643403380094e-
33 .005239416 0 .001229845 141 174 165 174 174 168 16 175 29 177 ?178 179 180 17
3 0 0 1 30 176 201 0 1 173 181 182 +.018462166 4910308291104e-31 .004009571 0 12
24646799147e-28 1 133 181 329 0 183 176 184 0 +184 .016885069 4910308291104e-31
 .004009571 .018462166 4910308291104e-31 .004009571 0 .001577097 141 182 173 182
 182 176 16 183 22 185 ?186 187 188 181 0 0 1 30 184 195 0 1 181 189 190 +.01688
5069 4910308291104e-31 .004009571 1 0 0 133 189 331 0 63 184 191 0 +191 .0168850
69 6423307976285e-31 .005245029 .016885069 491030829110445e-33 .004009571 0 .001
235458 141 190 181 190 190 184 16 63 15 192 ?62 193 194 189 0 0 1 30 191 189 0 1
 189 195 196 +.016885069 6423307976285e-31 .005245029 0 -1224646799147e-28 -1 13
3 195 335 0 194 191 197 0 +197 .017154829 -9999999999999e-18 .005245029 .0168850
69 -9999999999999e-18 .005245029 0 26976e-8 141 196 189 196 196 191 16 194 12 19
8 ?53 63 154 195 0 0 1 30 197 186 0 1 195 199 200 +.017154829 -9999999999999e-18
 .005245029 -1 0 0 133 199 337 0 188 197 201 0 +201 .016885069 -9999999999999e-1
8 .005245029 .016885069 -999999999999915e-20 .004009571 0 .001235458 141 200 195
 200 200 197 16 188 19 202 ?203 183 193 199 0 0 1 30 201 192 0 1 199 204 205 +.0
16885069 -9999999999999e-18 .005245029 0 -1224646799147e-28 -1 133 204 339 0 180
 201 206 0 +206 .016885069 -1e-5 .004009571 .018462166 -1e-5 .004009571 0 .00157
7097 141 205 199 205 205 201 16 180 26 207 ?208 175 187 204 0 0 1 30 206 198 0 1
 204 209 210 +.016885069 -1e-5 .004009571 1 0 0 133 209 341 0 172 206 211 0 +211
 .018462166 -1e-5 .004009571 .018462166 -999999999999985e-20 .005239416 0 .00122
9845 141 210 204 210 210 206 16 172 33 212 ?120 167 179 209 0 0 1 30 211 204 0 1
 209 213 214 +.018462166 -1e-5 .004009571 0 1224646799147e-28 1 133 213 343 0 12
1 211 215 0 +215 .018462166 -9999999999999e-18 .005239416 .01817919 -99999999999
99e-18 .005239416 0 282976e-9 141 214 209 214 214 211 16 121 40 216 ?118 129 171
 213 0 0 1 30 215 210 0 1 213 127 217 +.018462166 -9999999999999e-18 .005239416
 -1 0 0 133 127 345 0 119 215 218 0 +218 .01817919 -9999999999999e-18 .005239416
 .01817919 -999999999999912e-20 .004260091 0 979325e-9 141 217 213 217 217 215 3
0 218 216 0 1 127 117 219 +.01817919 -9999999999999e-18 .005239416 0 -1224646799
147e-28 -1 133 117 347 0 108 218 220 0 +220 .01817919 -9999999999999e-18 .004260
091 .017154829 -9999999999999e-18 .004260091 0 .001024361 141 219 127 219 219 21
8 30 220 222 0 1 117 20 221 +.01817919 -9999999999999e-18 .004260091 -1 0 0 133
 20 349 0 11 220 8 0 +8 .017154829 -9999999999999e-18 .004260091 .017154829 -999
999999999888e-20 .005245029 0 984938e-9 141 221 117 221 221 220 81 1 216 406 32
 121 0 0 132 222 223 16 171 38 222 ?122 121 167 137 0 0 1 81 1 222 407 32 171 0
 0 216 169 224 17 122 0 225 90 170 95 124 171 0 0 +133 137 303 0 171 226 135 0 +
135 .01817919 6416434033801e-31 .005239416 .01817919 -9999999999999e-18 .0052394
16 0 999999999999964e-20 30 226 203 0 1 227 137 228 +.018462166 6416434033801e-3
1 .005239416 0 -1 1224646799147e-28 133 227 299 0 179 229 226 0 +226 .018462166
 6416434033801e-31 .005239416 .018462166 -9999999999999e-18 .005239416 0 9999999
99999964e-20 141 228 227 228 228 226 16 179 31 230 ?231 172 175 227 0 0 1 30 229
 197 0 1 232 227 233 +.018462166 4910308291104e-31 .004009571 0 -1 1224646799147
e-28 133 232 295 0 187 234 229 0 +229 .018462166 4910308291104e-31 .004009571 .0
18462166 -1e-5 .004009571 0 100000000000005e-19 141 233 232 233 233 229 16 187 2
4 235 ?236 180 183 232 0 0 1 30 234 191 0 1 237 232 238 +.016885069 491030829110
4e-31 .004009571 0 -1 1224646799147e-28 133 237 291 0 193 239 234 0 +234 .016885
069 4910308291104e-31 .004009571 .016885069 -1e-5 .004009571 0 100000000000005e-
19 141 238 237 238 238 234 16 193 17 240 ?241 188 63 237 0 0 1 30 239 185 0 1 24
2 237 243 +.016885069 6423307976285e-31 .005245029 0 -1 1224646799147e-28 133 24
2 287 0 154 0 239 0 +239 .016885069 6423307976285e-31 .005245029 .016885069 -999
9999999999e-18 .005245029 0 999999999999964e-20 141 243 242 243 243 239 16 154 1
0 244 ?245 194 148 242 0 0 1 81 1 244 419 32 154 0 0 198 152 246 17 245 0 247 54
 153 56 64 154 0 0 +15 247 4 0 248 249 0 17 54 0 247 248 245 22 53 194 0 37 -17
 153 0 247 245 248 49 48 148 0 0 +17 64 0 250 62 65 49 245 154 0 153 -15 250 14
 0 64 251 0 17 62 0 250 241 64 66 55 63 0 0 +17 65 0 250 64 241 56 203 188 0 53
 -17 241 0 250 65 62 71 252 193 0 0 +17 203 0 52 208 53 71 65 188 0 241 +17 53 0
 52 203 26 56 54 194 0 245 +17 208 0 52 120 203 79 74 180 0 236 +17 120 0 52 118
 208 87 82 172 0 231 +17 74 0 253 252 236 71 208 180 0 203 -17 236 0 253 74 186
 79 254 187 0 0 +15 253 21 0 252 255 0 17 186 0 253 236 252 75 61 183 0 0 +17 25
4 0 256 178 82 75 236 187 0 186 -15 256 28 0 254 257 0 17 178 0 256 231 254 83 7
8 175 0 0 +17 82 0 256 254 231 79 120 172 0 208 -17 231 0 256 82 178 87 258 179
 0 0 +17 258 0 225 170 90 83 231 179 0 178 -15 225 35 0 258 259 0 17 170 0 225 1
22 258 91 86 167 0 0 +17 90 0 225 258 122 87 118 121 0 120 -17 86 0 60 78 94 83
 170 167 0 258 -15 60 60 0 48 260 0 17 78 0 60 61 86 75 178 175 0 254 -17 94 0 6
0 86 101 91 114 129 0 124 -17 101 0 60 94 39 99 111 126 0 106 -17 124 0 123 114
 98 91 122 171 0 170 -17 39 0 60 101 48 30 45 27 0 36 -17 111 0 105 107 106 30 1
01 126 0 0 +17 48 0 60 39 55 43 153 148 0 248 -17 36 0 35 45 29 30 107 115 0 111
 -15 35 56 0 36 261 0 14 255 261 55 262 ?110 260 35 6 263 -0 0 110 260 24 81 1 2
62 424 32 261 0 0 264 265 266 14 110 48 265 ?128 261 105 6 267 -0 0 128 261 24 1
4 260 59 264 ?261 17 60 6 19 +0 0 261 17 24 50 263 223 0 261 267 19 0 +.01715482
9 5217106807226e-31 .004260091 -1 0 0 0 1224646799147e-28 1 13 24 2 0 0 0 0 0 0
 10 17 14 17 61 268 ?260 0 52 6 7 -0 0 260 0 24 81 1 268 422 32 17 0 0 147 264 2
69 80 7 CCCCCDI12 legal_owners0 17 1 lCZ1 32 270 271 9000 0 0 0 0 3 5 0 0 0 FFTF
TFTTFFFFFFFFF2 81 1 147 421 32 145 0 0 152 268 272 81 1 264 423 32 260 0 0 268 2
62 273 83 255 1 269 5592 83 1 273 5593 81 1 152 420 32 148 0 0 244 147 274 83 1
 272 5591 83 1 274 5590 79 255 13 271 BTI/importTag50 267 217 0 110 275 263 0 +.
01817919 5217106807226e-31 .004260091 0 -1224646799147e-28 -1 -1 0 0 50 19 226 0
 260 263 7 0 +.017154829 6423307976285e-31 .005245029 0 1 -1224646799147e-28 1 0
 0 50 275 211 0 128 276 267 0 +.01817919 6416434033801e-31 .005239416 1 0 0 0 -1
224646799147e-28 -1 14 128 41 277 ?259 110 123 6 275 -0 0 259 110 24 50 276 205
 0 259 278 275 0 +.018462166 6416434033801e-31 .005239416 0 -1224646799147e-28 -
1 -1 0 0 14 259 34 279 ?257 128 225 6 276 -0 0 257 128 24 50 278 199 0 257 280 2
76 0 +.018462166 4910308291104e-31 .004009571 -1 0 0 0 1224646799147e-28 1 14 25
7 27 281 ?255 259 256 6 278 -0 0 255 259 24 50 280 193 0 255 282 278 0 +.0168850
69 4910308291104e-31 .004009571 0 1224646799147e-28 1 1 0 0 14 255 20 283 ?251 2
57 253 6 280 -0 0 251 257 24 50 282 187 0 251 284 280 0 +.016885069 642330797628
5e-31 .005245029 1 0 0 0 -1224646799147e-28 -1 14 251 13 285 ?249 255 250 6 282
 -0 0 249 255 24 50 284 178 0 249 0 282 0 +.017154829 6423307976285e-31 .0052450
29 0 -1224646799147e-28 -1 -1 0 0 14 249 3 286 ?0 251 247 6 284 -0 0 0 251 24 81
 1 286 431 32 249 0 0 285 287 288 81 1 285 430 32 251 0 0 283 286 289 81 1 287 4
32 32 1 290 291 286 0 292 83 1 288 5601 81 1 290 380 293 1 0 287 0 0 294 81 1 29
1 433 295 1 287 296 0 0 297 83 1 292 5602 80 1 295 32 298 9000 0 0 0 0 3 5 0 0 0
 FFTFTFTTFFFFFFFFF2 81 1 296 486 299 1 291 14 0 0 300 83 1 297 17325 80 1 299 30
1 302 8040 0 0 0 0 3 5 0 0 0 TTTFFFFFFFFFFFFFF2 81 1 14 487 303 1 296 2 0 0 304
 83 3 300 1 1 1 80 1 303 13 305 8038 0 0 0 0 0 0 0 0 0 TTTTTTTTTTTTTFTFT10 98 25
5 11 304 72 67 45 48 52 80 97 100 48 48 57 79 14 305 SDL/TYSA_UNAME79 17 302 SDL
/TYSA_COLOUR_279 18 298 BTI/importMaxCount80 1 293 306 307 9000 0 0 0 0 3 5 0 0
 0 TTTFFFFFFFFFFFFFF1 82 255 1 294 7 79 23 307 ONSHAPE_ORIGINALBODY_ID81 1 283 4
29 32 255 0 0 281 285 308 83 1 289 56e2 81 1 281 428 32 257 0 0 279 283 309 83 1
 308 5599 81 1 279 427 32 259 0 0 277 281 310 83 1 309 5598 81 1 277 426 32 128
 0 0 265 279 311 83 1 310 5597 81 1 265 425 32 110 0 0 262 277 312 83 1 311 5596
 83 1 312 5595 83 1 266 5594 17 248 0 247 153 54 43 37 145 0 0 -17 37 0 35 29 45
 22 248 145 0 0 +17 61 0 60 55 78 66 186 183 0 252 -17 252 0 253 186 74 66 241 1
93 0 62 -81 1 198 418 32 194 0 0 192 244 313 83 1 246 5589 81 1 192 417 32 63 0
 0 240 198 314 83 1 313 5588 81 1 240 416 32 193 0 0 202 192 315 83 1 314 5587 8
1 1 202 415 32 188 0 0 185 240 316 83 1 315 5586 81 1 185 414 32 183 0 0 235 202
 317 83 1 316 5585 81 1 235 413 32 187 0 0 207 185 318 83 1 317 5584 81 1 207 41
2 32 180 0 0 177 235 319 83 1 318 5583 81 1 177 411 32 175 0 0 230 207 320 83 1
 319 5582 81 1 230 410 32 179 0 0 212 177 321 83 1 320 5581 81 1 212 409 32 172
 0 0 169 230 322 83 1 321 5580 81 1 169 408 32 167 0 0 222 212 323 83 1 322 5579
 83 1 323 5578 83 1 224 5577 81 1 132 405 32 129 0 0 130 216 324 83 1 223 5576 8
3 1 324 5575 81 1 162 402 32 126 0 0 142 125 325 81 1 142 401 32 115 0 0 116 162
 326 81 1 125 403 32 119 0 0 162 130 327 83 1 325 5572 83 1 327 5573 81 1 116 40
0 32 108 0 0 158 142 328 83 1 326 5571 81 1 158 399 32 27 0 0 25 116 329 83 1 32
8 5570 81 1 25 398 32 11 0 0 44 158 330 83 1 329 5569 83 1 330 5568 141 138 137
 138 138 135 83 1 133 5574 81 1 33 383 32 30 0 0 28 102 331 81 1 100 385 32 99 0
 0 102 97 332 83 1 104 5554 81 1 97 386 32 95 0 0 100 93 333 83 1 332 5555 81 1
 93 387 32 91 0 0 97 89 334 83 1 333 5556 81 1 89 388 32 87 0 0 93 85 335 83 1 3
34 5557 81 1 85 389 32 83 0 0 89 81 336 83 1 335 5558 81 1 81 390 32 79 0 0 85 7
7 337 83 1 336 5559 81 1 77 391 32 75 0 0 81 73 338 83 1 337 5560 81 1 73 392 32
 71 0 0 77 70 339 83 1 338 5561 81 1 70 393 32 66 0 0 73 58 340 83 1 339 5562 81
 1 58 394 32 56 0 0 70 50 341 83 1 340 5563 83 1 341 5564 83 1 331 5553 83 1 59
 5565 83 1 51 5566 83 1 47 5567 83 1 34 5552 19 18 63 0 1 0 10 6 0 S0 141 21 20
 21 21 8 74 4 CI16 index_map_offset0 0 1 dCCZ20 16 6 0 0 290 287 291 296 14 2 0
 0 0 0 0 0 0 0 0 0 0 0 0 0 80 1 13 342 343 8017 0 0 0 0 0 0 0 0 0 TTTTTTTTTTTTTF
TFT3 84 255 11 15 HC-04Pad00979 13 343 SDL/TYSA_NAME1 0 
