**ABCDEFGHIJKLMNOPQRSTUVWXYZabcdefghijklmnopqrstuvwxyz**************************
**PARASOLID !"#$%&'()*+,-./:;<=>?@[\]^_`{|}~0123456789**************************
**PART1;
MC=unknown;
MC_MODEL=unknown;
MC_ID=unknown;
OS=unknown;
OS_RELEASE=unknown;
FRU=Parasolid 37.0.173;
APPL=Onshape;
SITE=unknown;
USER=unknown;
FORMAT=text;
GUISE=transmit;
KEY=BTGapi::writeModels_.xmt;
FILE=BTGapi::writeModels_.xmt;
DATE=2024-12-29T04:00:25 (UTC);
**PART2;
SCH=SCH_3700173_36001;
USFLD_SIZE=0;
**PART3;
**END_OF_HEADER*****************************************************************
T51 : TRANSMIT FILE created by modeller version 370017323 SCH_3700173_36001_1300
6231 0 12 36 CCCI7 lattice222 0 CCCI4 mesh1006 0 I8 polyline1008 0 CCCCCCCDI5 ow
ner1040 0 CCCI16 boundary_lattice222 0 CCCI13 boundary_mesh1006 0 I17 boundary_p
olyline1008 0 CCCA16 index_map_offset0 0 1 dA9 index_map82 0 A17 node_id_index_m
ap82 0 A20 schema_embedding_map82 0 A5 child12 0 A14 lowest_node_id0 0 1 dA16 me
sh_offset_data206 0 Z1 279 2 3 0 0 0 0 0 0 0 1e3 1e-8 0 4 5 1 0 3 2 6 0 7 8 9 0
 0 10 11 12 0 0 0 0 0 0 0 81 255 1 2 248 13 1 14 0 0 0 15 70 11 CI9 list_type0 0
 1 uI10 notransmit0 0 1 lCCCDCCDI12 finger_index0 0 1 dI12 finger_block1012 0 CZ
3 0 4 T1 0 0 5 20 1 16 16 13 255 6 2 0 1 0 17 0 0 10 17 50 255 7 80 0 17 0 0 0 +
.001075 0 .00112 0 -1 0 1 0 0 31 255 8 217 0 1 18 0 19 +.0001605747935662 385806
2139673845e-36 .001053074334824422 1814921748816695e-32 1 584808119063156e-31 -.
0458950023652619 -575862304943258e-31 .998946269204652 669962611991767e-19 29 25
5 9 106 0 12 20 0 44e-5 0 0 19 9 CCCCCCI5 frame230 0 CA5 owner12 0 Z10 1 0 1 0 0
 6 0 V0 16 255 11 32 21 ?22 0 23 24 0 0 1 18 255 12 31 25 22 0 26 9 5e-7 1 81 1
 25 218 27 12 0 0 0 28 29 17 255 22 0 0 0 0 12 30 11 0 31 +18 26 29 28 32 12 33
 20 5e-7 1 81 1 28 219 27 26 0 0 25 34 35 17 32 0 0 0 0 26 31 23 0 36 +18 33 27
 34 37 26 38 39 5e-7 1 29 20 104 0 26 39 9 -85e-7 0 .00112 29 39 102 0 33 40 20
 1575e-7 0 .00112 29 40 100 0 38 41 39 201e-6 0 .0011065 18 38 25 42 43 33 44 40
 5e-7 1 29 41 98 0 44 45 40 2265e-7 0 .0010725 18 44 23 46 47 38 48 41 5e-7 1 29
 45 96 0 48 49 41 4885e-7 0 388e-6 18 48 21 50 51 44 52 45 5e-7 1 29 49 94 0 52
 53 45 536e-6 0 231e-6 18 52 19 54 55 48 56 49 5e-7 1 29 53 92 0 56 57 49 556e-6
 0 3145e-7 18 56 17 58 59 52 60 53 5e-7 1 29 57 90 0 60 61 53 58e-5 0 388e-6 18
 60 15 62 63 56 64 57 5e-7 1 29 61 88 0 64 65 57 84e-5 0 .0010725 18 64 13 66 67
 60 68 61 5e-7 1 29 65 86 0 68 69 61 8645e-7 0 .001105 18 68 11 70 71 64 72 65 5
e-7 1 29 69 84 0 72 73 65 9085e-7 0 .00112 18 72 9 74 75 68 76 69 5e-7 1 29 73 8
2 0 76 77 69 6265e-7 0 0 18 76 7 78 30 72 79 73 5e-7 1 29 77 81 0 79 0 73 .00107
5 0 .00112 18 79 6 80 81 76 0 77 5e-7 1 81 1 80 231 27 79 0 0 78 21 82 17 81 0 0
 0 0 79 83 84 0 85 +17 83 0 86 87 85 72 81 84 0 0 -16 84 8 88 ?81 89 90 91 0 0 1
 17 85 0 86 83 30 79 92 90 0 0 -15 255 86 4 0 85 17 0 17 30 0 86 85 31 76 22 11
 0 92 -17 92 0 0 0 0 76 85 90 0 0 +16 90 5 93 ?92 84 0 94 0 0 1 81 1 93 245 27 9
0 0 0 88 95 96 133 255 94 144 0 90 0 97 0 +97 .001075 0 .00112 .0006264999999993
62 0 255438031837585e-30 0 .001206462701454132 30 255 97 83 0 1 94 91 98 +.00107
5 0 .00112 -.371747920147111 0 -.928333713632278 133 91 146 0 84 97 99 0 +99 908
5e-7 0 .00112 .001075 0 .00112 0 1665e-7 141 255 98 94 98 98 97 30 99 85 0 1 91
 100 101 +9085e-7 0 .00112 1 0 0 133 100 152 0 102 99 103 0 +103 58e-5 0 388e-6
 .000840000000000269 0 .001072499999999898 0 .000732215985894872 141 101 91 101
 101 99 16 102 14 104 ?67 105 106 100 0 0 1 30 103 91 0 1 100 107 108 +58e-5 0 3
88e-6 .355086484054991 0 .934833455135975 133 107 158 0 109 103 110 0 +110 536e-
6 0 231e-6 4885e-7 0 388e-6 1.89013397396824 2.39785425702022 141 108 100 108 10
8 103 16 109 20 111 ?112 113 114 107 0 0 1 32 255 110 97 0 1 107 115 116 +.00049
2147049185696 0 999941515437236e-19 0 -1 0 .176628118324863 0 -.984277657887762
 .000386065264605553 698333200018413e-19 133 115 160 0 113 110 117 0 +117 2265e-
7 0 .0010725 .00048849999999989 0 .000387999999999958 0 .000732928543583889 141
 116 107 116 116 110 16 113 22 118 ?51 119 109 115 0 0 1 30 117 99 0 1 115 120 1
21 +2265e-7 0 .0010725 .3574700457411 0 -.933924604236261 133 120 166 0 122 117
 123 0 +123 -85e-7 0 .00112 1575e-7 0 .00112 0 166e-6 141 121 115 121 121 117 16
 122 28 124 ?37 23 125 120 0 0 1 30 123 105 0 1 120 126 127 +-85e-7 0 .00112 1 0
 0 133 126 168 0 23 123 128 0 +128 44e-5 0 0 -850000000063848e-20 0 .00111999999
9999744 0 .001206462701454132 141 127 120 127 127 123 16 23 30 129 ?32 11 122 12
6 0 0 1 30 128 107 0 1 126 24 130 +44e-5 0 0 -.371747920147111 0 .92833371363227
8 133 24 170 0 11 128 131 0 +131 6265e-7 0 0 44e-5 0 0 0 1865e-7 141 130 126 130
 130 128 30 131 108 0 1 24 132 133 +6265e-7 0 0 -1 0 0 133 132 196 0 89 131 134
 0 +134 8645e-7 752316384526264e-50 .001105 9085e-7 752316384526264e-50 .00112 1
015021474854e-28 .711221075993524 141 133 24 133 133 131 16 89 10 135 ?75 106 84
 132 0 0 1 31 134 197 0 1 132 136 137 +.000906693875820668 3832098483394945e-36
 .00105326463092604 -1975807964170245e-32 1 579570336156604e-31 -.63202515032220
9 -574012833120871e-31 .774947875253677 667598050475642e-19 133 136 200 0 106 13
4 138 0 +138 84e-5 0 .0010725 8645e-7 3009265538105055e-51 .001105 4522674833609
09e-31 .550202588155927 141 137 132 137 137 134 16 106 12 139 ?71 102 89 136 0 0
 1 31 138 201 0 1 136 140 141 +.000909821446538795 4414691464531445e-36 .0010453
4998645537 -488954555727466e-31 1 368596511240707e-31 -.93201716689654 -58929862
3197206e-31 .362414128601723 749143352920085e-19 133 140 204 0 105 138 142 0 +14
2 556e-6 0 3145e-7 58e-5 0 388e-6 -386595719065796e-19 386595719065796e-19 141 1
41 136 141 141 138 16 105 16 143 ?63 114 102 140 0 0 1 30 142 205 0 1 140 144 14
5 +568e-6 0 35125e-8 .31040178171134 0 .950605456490981 133 144 208 0 114 142 14
6 0 +146 536e-6 0 231e-6 556e-6 0 3145e-7 -429309037873651e-19 4293090378736515e
-20 141 145 140 145 145 142 16 114 18 147 ?59 109 105 144 0 0 1 30 146 209 0 1 1
44 148 149 +546e-6 0 27275e-8 .232932436026262 0 .972492920409641 133 148 212 0
 119 146 150 0 +150 201e-6 526621469168385e-50 .0011065 2265e-7 526621469168385e
-50 .0010725 96572527662475e-47 .541166288191448 141 149 144 149 149 146 16 119
 24 151 ?47 125 113 148 0 0 1 31 150 213 0 1 148 18 152 +.0001524635720669085 46
9088923746471e-35 .001043535179050182 489858719658941e-31 1 367394039744206e-31
 .610516106547254 -590044128803479e-31 .792003840676535 795006510271889e-19 133
 18 216 0 125 150 8 0 +8 1575e-7 -752316384526264e-51 .00112 201e-6 -75231638452
6264e-51 .0011065 11986038382778e-46 .693662727698267 141 152 148 152 152 150 16
 125 26 153 ?43 122 119 18 0 0 1 81 1 153 235 27 125 0 0 124 151 154 17 43 0 0 0
 0 38 155 125 0 156 +17 155 0 86 36 156 33 43 125 0 0 -17 156 0 86 155 157 38 47
 119 0 0 -17 157 0 86 156 112 44 51 113 0 0 -17 47 0 0 0 0 44 156 119 0 157 +17
 112 0 86 157 158 48 55 109 0 0 +17 51 0 0 0 0 48 157 113 0 112 +17 158 0 86 112
 159 52 59 114 0 0 -17 55 0 0 0 0 52 112 109 0 158 -17 159 0 86 158 160 56 63 10
5 0 0 -17 59 0 0 0 0 56 158 114 0 159 +17 160 0 86 159 161 60 67 102 0 0 -17 63
 0 0 0 0 60 159 105 0 160 +17 161 0 86 160 87 64 71 106 0 0 -17 67 0 0 0 0 64 16
0 102 0 161 +17 87 0 86 161 83 68 75 89 0 0 -17 71 0 0 0 0 68 161 106 0 87 +17 7
5 0 0 0 0 72 87 89 0 83 +17 36 0 86 31 155 26 37 122 0 0 -17 31 0 86 30 36 12 32
 23 0 0 -17 37 0 0 0 0 33 36 122 0 155 +80 7 CCCCCDI12 legal_owners0 17 1 lCZ1 2
7 162 163 9000 0 0 0 0 3 5 0 0 0 FFTFTFTTFFFFFFFFF2 81 1 124 234 27 122 0 0 129
 153 164 81 1 151 236 27 119 0 0 153 118 165 83 255 1 154 3193 81 1 118 237 27 1
13 0 0 151 111 166 83 1 165 3194 81 1 111 238 27 109 0 0 118 147 167 83 1 166 31
95 81 1 147 239 27 114 0 0 111 143 168 83 1 167 3196 81 1 143 240 27 105 0 0 147
 104 169 83 1 168 3197 81 1 104 241 27 102 0 0 143 139 170 83 1 169 3198 81 1 13
9 242 27 106 0 0 104 135 171 83 1 170 3199 81 1 135 243 27 89 0 0 139 88 172 83
 1 171 32e2 81 1 88 244 27 84 0 0 135 93 173 83 1 172 3201 83 1 173 3202 81 1 12
9 233 27 23 0 0 21 124 174 83 1 164 3192 81 1 21 232 27 11 0 0 80 129 175 83 1 1
74 3191 83 1 175 3190 79 255 13 163 BTI/importTag81 1 95 246 27 17 0 0 93 14 176
 83 1 96 3203 14 255 17 3 95 ?0 0 86 6 7 +0 0 0 0 6 81 1 14 247 27 1 177 2 95 0
 178 83 1 176 3204 81 1 177 192 179 1 180 14 0 0 181 83 1 178 3205 80 1 179 182
 183 9000 0 0 0 0 3 5 0 0 0 TTTFFFFFFFFFFFFFF1 81 1 180 143 184 1 185 177 0 0 18
6 82 255 1 181 6 80 1 184 187 188 8038 0 0 0 0 0 0 0 0 0 TTTTTTTTTTTTTFTFT10 81
 1 185 142 187 1 0 180 0 0 189 98 255 19 186 72 67 45 48 52 83 104 97 112 101 83
 116 114 105 110 103 48 48 55 80 1 187 190 191 8017 0 0 0 0 0 0 0 0 0 TTTTTTTTTT
TTTFTFT3 84 255 19 189 HC-04ShapeString00779 13 191 SDL/TYSA_NAME79 14 188 SDL/T
YSA_UNAME79 23 183 ONSHAPE_ORIGINALBODY_ID81 1 78 230 27 76 0 0 74 80 192 83 1 8
2 3189 81 1 74 229 27 72 0 0 70 78 193 83 1 192 3188 81 1 70 228 27 68 0 0 66 74
 194 83 1 193 3187 81 1 66 227 27 64 0 0 62 70 195 83 1 194 3186 81 1 62 226 27
 60 0 0 58 66 196 83 1 195 3185 81 1 58 225 27 56 0 0 54 62 197 83 1 196 3184 81
 1 54 224 27 52 0 0 50 58 198 83 1 197 3183 81 1 50 223 27 48 0 0 46 54 199 83 1
 198 3182 81 1 46 222 27 44 0 0 42 50 200 83 1 199 3181 81 1 42 221 27 38 0 0 34
 46 201 83 1 200 3180 81 1 34 220 27 33 0 0 28 42 202 83 1 201 3179 83 1 202 317
8 83 1 35 3177 83 1 29 3176 141 19 18 19 19 8 74 4 CI16 index_map_offset0 0 1 dC
CZ20 16 5 0 0 185 180 177 14 2 0 0 0 0 0 0 0 0 0 0 0 0 0 0 0 80 1 13 27 203 9000
 0 0 0 0 3 5 0 0 0 FFTFTFTTFFFFFFFFF2 83 1 15 17325 79 18 203 BTI/importMaxCount
1 0 
