**ABCDEFGHIJKLMNOPQRSTUVWXYZabcdefghijklmnopqrstuvwxyz**************************
**PARASOLID !"#$%&'()*+,-./:;<=>?@[\]^_`{|}~0123456789**************************
**PART1;
MC=unknown;
MC_MODEL=unknown;
MC_ID=unknown;
OS=unknown;
OS_RELEASE=unknown;
FRU=Parasolid 37.0.173;
APPL=Onshape;
SITE=unknown;
USER=unknown;
FORMAT=text;
GUISE=transmit;
KEY=BTGapi::writeModels_.xmt;
FILE=BTGapi::writeModels_.xmt;
DATE=2024-12-29T04:00:26 (UTC);
**PART2;
SCH=SCH_3700173_36001;
USFLD_SIZE=0;
**PART3;
**END_OF_HEADER*****************************************************************
T51 : TRANSMIT FILE created by modeller version 370017323 SCH_3700173_36001_1300
6231 0 12 36 CCCI7 lattice222 0 CCCI4 mesh1006 0 I8 polyline1008 0 CCCCCCCDI5 ow
ner1040 0 CCCI16 boundary_lattice222 0 CCCI13 boundary_mesh1006 0 I17 boundary_p
olyline1008 0 CCCA16 index_map_offset0 0 1 dA9 index_map82 0 A17 node_id_index_m
ap82 0 A20 schema_embedding_map82 0 A5 child12 0 A14 lowest_node_id0 0 1 dA16 me
sh_offset_data206 0 Z1 767 2 3 0 0 0 0 0 0 0 1e3 1e-8 0 4 5 1 0 3 2 6 0 7 8 9 0
 0 10 11 12 0 0 0 0 0 0 0 81 255 1 2 688 13 1 14 0 0 0 15 70 11 CI9 list_type0 0
 1 uI10 notransmit0 0 1 lCCCDCCDI12 finger_index0 0 1 dI12 finger_block1012 0 CZ
3 0 4 T1 0 0 5 20 1 16 16 13 255 6 2 0 1 0 17 0 0 10 17 50 255 7 200 0 17 0 0 0
 +.001039 0 576e-6 0 -1 0 1 0 0 31 255 8 609 0 1 18 0 19 +.00068805306287508 363
798337072223e-34 .00060575509866461 26893864115647e-30 1 -55010176600187e-30 .58
2470455480216 -6038000640022e-29 -.812851873647757 .000602514571894609 29 255 9
 274 0 12 20 0 859e-6 0 28e-6 19 9 CCCCCCI5 frame230 0 CA5 owner12 0 Z10 1 0 1 0
 0 6 0 V0 16 255 11 80 21 ?22 0 23 18 0 0 1 18 255 12 79 24 22 0 25 9 5e-7 1 81
 1 24 610 26 12 0 0 0 27 28 17 255 22 0 0 0 0 12 29 11 0 30 +18 25 77 27 31 12 3
2 20 5e-7 1 81 1 27 611 26 25 0 0 24 33 34 17 31 0 0 0 0 25 30 23 0 35 +18 32 75
 33 36 25 37 38 5e-7 1 29 20 272 0 25 38 9 6545e-7 0 0 29 38 270 0 32 39 20 408e
-6 0 415e-7 29 39 268 0 37 40 38 22e-5 0 1575e-7 18 37 73 41 42 32 43 39 5e-7 1
 29 40 266 0 43 44 39 995e-7 0 335e-6 18 43 71 45 46 37 47 40 5e-7 1 29 44 264 0
 47 48 40 575e-7 0 56e-5 18 47 69 49 50 43 51 44 5e-7 1 29 48 262 0 51 52 44 98e
-6 0 7865e-7 18 51 67 53 54 47 55 48 5e-7 1 29 52 260 0 55 56 48 214e-6 0 9635e-
7 18 55 65 57 58 51 59 52 5e-7 1 29 56 258 0 59 60 52 3955e-7 0 .001079 18 59 63
 61 62 55 63 56 5e-7 1 29 60 256 0 63 64 56 635e-6 0 .00112 18 63 61 65 66 59 67
 60 5e-7 1 29 64 254 0 67 68 60 761e-6 0 .00111 18 67 59 69 70 63 71 64 5e-7 1 2
9 68 252 0 71 72 64 8705e-7 0 .001083 18 71 57 73 74 67 75 68 5e-7 1 29 72 250 0
 75 76 68 9625e-7 0 .0010415 18 75 55 77 78 71 79 72 5e-7 1 29 76 248 0 79 80 72
 .0010385 0 9875e-7 18 79 53 81 82 75 83 76 5e-7 1 29 80 246 0 83 84 76 979e-6 0
 897e-6 18 83 51 85 86 79 87 80 5e-7 1 29 84 244 0 87 88 80 943e-6 0 8695e-7 18
 87 49 89 90 83 91 84 5e-7 1 29 88 242 0 91 92 84 8945e-7 0 881e-6 18 91 47 93 9
4 87 95 88 5e-7 1 29 92 240 0 95 96 88 844e-6 0 91e-5 18 95 45 97 98 91 99 92 5e
-7 1 29 96 238 0 99 100 92 7875e-7 0 935e-6 18 99 43 101 102 95 103 96 5e-7 1 29
 100 236 0 103 104 96 7175e-7 0 953e-6 18 103 41 105 106 99 107 100 5e-7 1 29 10
4 234 0 107 108 100 628e-6 0 96e-5 18 107 39 109 110 103 111 104 5e-7 1 29 108 2
32 0 111 112 104 4795e-7 0 932e-6 18 111 37 113 114 107 115 108 5e-7 1 29 112 23
0 0 115 116 108 366e-6 0 8525e-7 18 115 35 117 118 111 119 112 5e-7 1 29 116 228
 0 119 120 112 294e-6 0 728e-6 18 119 33 121 122 115 123 116 5e-7 1 29 120 226 0
 123 124 116 269e-6 0 566e-6 18 123 31 125 126 119 127 120 5e-7 1 29 124 224 0 1
27 128 120 296e-6 0 3945e-7 18 127 29 129 130 123 131 124 5e-7 1 29 128 222 0 13
1 132 124 373e-6 0 267e-6 18 131 27 133 134 127 135 128 5e-7 1 29 132 220 0 135
 136 128 492e-6 0 1875e-7 18 135 25 137 138 131 139 132 5e-7 1 29 136 218 0 139
 140 132 648e-6 0 16e-5 18 139 23 141 142 135 143 136 5e-7 1 29 140 216 0 143 14
4 136 758e-6 0 173e-6 18 143 21 145 146 139 147 140 5e-7 1 29 144 214 0 147 148
 140 8525e-7 0 2095e-7 18 147 19 149 150 143 151 144 5e-7 1 29 148 212 0 151 152
 144 8525e-7 0 416e-6 18 151 17 153 154 147 155 148 5e-7 1 29 152 210 0 155 156
 148 7125e-7 0 416e-6 18 155 15 157 158 151 159 152 5e-7 1 29 156 208 0 159 160
 152 6815e-7 0 4275e-7 18 159 13 161 162 155 163 156 5e-7 1 29 160 206 0 163 164
 156 6705e-7 0 4555e-7 18 163 11 165 166 159 167 160 5e-7 1 29 164 204 0 167 168
 160 6705e-7 0 576e-6 18 167 9 169 170 163 171 164 5e-7 1 29 168 202 0 171 172 1
64 .001039 0 116e-6 18 171 7 173 29 167 174 168 5e-7 1 29 172 201 0 174 0 168 .0
01039 0 576e-6 18 174 6 175 176 171 0 172 5e-7 1 81 1 175 647 26 174 0 0 173 21
 177 17 176 0 0 0 0 174 178 179 0 180 +17 178 0 181 182 180 167 176 179 0 0 -16
 179 8 183 ?176 184 185 186 0 0 1 17 180 0 181 178 29 174 187 185 0 0 -15 255 18
1 4 0 180 17 0 17 29 0 181 180 30 171 22 11 0 187 -17 187 0 0 0 0 171 180 185 0
 0 +16 185 5 188 ?187 179 0 189 0 0 1 81 1 188 685 26 185 0 0 183 190 191 133 25
5 189 360 0 185 0 192 0 +192 .001039 0 576e-6 .001039 0 116e-6 0 46e-5 30 255 19
2 203 0 1 189 186 193 +.001039 0 576e-6 0 0 -1 133 186 362 0 179 192 194 0 +194
 6705e-7 0 576e-6 .001039 0 576e-6 0 3685e-7 141 255 193 189 193 193 192 30 194
 205 0 1 186 195 196 +6705e-7 0 576e-6 1 0 0 133 195 364 0 184 194 197 0 +197 67
05e-7 0 4555e-7 6705e-7 0 576e-6 0 1205e-7 141 196 186 196 196 194 16 184 10 198
 ?170 199 179 195 0 0 1 30 197 207 0 1 195 200 201 +6705e-7 0 4555e-7 0 0 1 133
 200 370 0 202 197 203 0 +203 8525e-7 0 416e-6 7125e-7 0 416e-6 0 14e-5 141 201
 195 201 201 197 16 202 16 204 ?158 205 206 200 0 0 1 30 203 213 0 1 200 207 208
 +8525e-7 0 416e-6 -1 0 0 133 207 372 0 205 203 209 0 +209 8525e-7 0 2095e-7 852
5e-7 0 416e-6 0 2065e-7 141 208 200 208 208 203 16 205 18 210 ?154 211 202 207 0
 0 1 30 209 215 0 1 207 212 213 +8525e-7 0 2095e-7 0 0 1 133 212 406 0 214 209 2
15 0 +215 .0010385 0 9875e-7 .000979000000000015 0 897e-6 0 .0001083074328012624
 141 213 207 213 213 209 16 214 52 216 ?86 217 218 212 0 0 1 30 215 249 0 1 212
 219 220 +.0010385 0 9875e-7 -.549362111732112 0 -.83558438843317 133 219 484 0
 199 215 221 0 +221 6815e-7 225694915357879e-50 4275e-7 6705e-7 338542373036819e
-50 4555e-7 1328347978020458e-48 .787463560346425 141 220 212 220 220 215 16 199
 12 222 ?166 206 184 219 0 0 1 31 221 485 0 1 219 223 224 +.000709700511472252 2
2170914468034e-34 .000454739486649813 -56992091862167e-30 1 -223897503744228e-31
 -.719256071203379 -565470766406318e-31 -.694745064060969 3920788798496985e-20 1
33 223 488 0 206 221 225 0 +225 7125e-7 376158192263132e-51 416e-6 6815e-7 -3761
58192263132e-51 4275e-7 1377819666672072e-48 .825600104173067 141 224 219 224 22
4 221 16 206 14 226 ?162 202 199 223 0 0 1 31 225 489 0 1 223 227 228 +.00071012
8925071739 231138307302091e-35 .000457141015410774 -212970256228883e-31 1 -57409
3734182205e-31 .0575373958956282 -560888908881415e-31 -.998343351795137 41209284
6982929e-19 133 227 492 0 211 225 229 0 +229 758e-6 0 173e-6 8525e-7 -6018531076
21011e-50 2095e-7 3587094149635735e-49 .192529563810359 141 228 223 228 228 225
 16 211 20 230 ?150 231 205 227 0 0 1 31 229 493 0 1 227 232 233 +.0006162546988
10116 3211926388794435e-35 .000680566601710795 -22062114563516e-30 -1 5711972126
71853e-31 .2689729117464655 -609488417504599e-31 -.963147741910154 .000526987272
694185 133 232 496 0 231 229 234 0 +234 648e-6 -3009265538105055e-51 16e-5 758e-
6 -601853107621011e-50 173e-6 482542945502012e-48 .2603279425842785 141 233 227
 233 233 229 16 231 22 235 ?146 236 211 232 0 0 1 31 234 497 0 1 232 237 238 +.0
00653345327435141 2590611024576965e-35 .000586654921702653 -718653632555461e-32
 -1 608091535239238e-31 -.0125274729188249 -607143525768699e-31 -.99992152813221
7 .000426688404738734 133 237 500 0 236 234 239 0 +239 492e-6 -3009265538105055e
-51 1875e-7 648e-6 0 16e-5 638853500766751e-31 .3755571791223735 141 238 232 238
 238 234 16 236 24 240 ?142 241 231 237 0 0 1 31 239 501 0 1 237 242 243 +.00064
2361853675071 255227607074985e-34 .000584239060847673 106302565761282e-31 -1 603
025463954909e-31 -.3543958831290055 -601559577761701e-31 -.935095480697673 .0004
242765247369885 133 242 504 0 241 239 244 0 +244 373e-6 -3009265538105055e-51 26
7e-6 492e-6 -3009265538105055e-51 1875e-7 794220326226294e-48 .437473242446677 1
41 243 237 243 243 239 16 241 26 245 ?138 246 236 242 0 0 1 31 244 505 0 1 242 2
47 248 +.00061131785288175 1971073561314485e-35 .000494914459030544 340149436121
431e-31 -1 509154501867299e-31 -.722705092694911 -597733188518233e-31 -.69115653
002257 .000329758092603279 133 247 508 0 246 244 249 0 +249 296e-6 -601853107621
011e-50 3945e-7 373e-6 -601853107621011e-50 267e-6 0 .413979680526673 141 248 24
2 248 248 244 16 246 28 250 ?134 251 241 247 0 0 1 31 249 509 0 1 247 252 253 +.
000638074981504232 2171544892713705e-35 .000514085479026085 524153967309196e-31
 -1 3165478861396715e-32 -.943979412978639 -599252732271297e-31 -.33000434523276
25 .000362375467940393 133 252 512 0 251 249 254 0 +254 269e-6 0 566e-6 296e-6 0
 3945e-7 630464865583875e-48 .342987187839065 141 253 247 253 253 249 16 251 30
 255 ?130 256 246 252 0 0 1 31 254 513 0 1 252 257 258 +.000777607180830434 3068
997866086275e-35 .0005581969031045 604873211319221e-31 -1 952278525108976e-32 -.
999882330916959 -603341214119542e-31 .01534028422387695 .000508667035214041 133
 257 516 0 256 254 259 0 +259 294e-6 601853107621011e-50 728e-6 269e-6 0 566e-6
 611302508920708e-48 .332154184638558 141 258 252 258 258 254 16 256 32 260 ?126
 261 251 257 0 0 1 31 259 517 0 1 257 262 263 +.000764732953538794 2993974768492
5e-33 .000572427013342779 605159867245057e-31 -1 -933888684020149e-32 -.94948982
9452956 -60389836125805e-30 .3137978071392415 .000495774613836574 133 262 520 0
 261 259 264 0 +264 366e-6 0 8525e-7 294e-6 0 728e-6 731165022510042e-48 .400650
2044688915 141 263 257 263 263 259 16 261 34 265 ?122 266 256 262 0 0 1 31 264 5
21 0 1 262 267 268 +.000636576971458145 2168557406825365e-35 .000612952474337459
 530066451821887e-31 -1 -3065444540656695e-32 -.74873424794584 -600078118391511e
-31 .662870293460929 .000361379183869945 133 267 524 0 266 264 269 0 +269 4795e-
7 -601853107621011e-50 932e-6 366e-6 -902779661431517e-50 8525e-7 81272109082644
3e-48 .4483960183400925 141 268 262 268 268 264 16 266 36 270 ?118 271 261 267 0
 0 1 31 269 525 0 1 267 272 273 +.000597068004534043 1860522215520725e-35 .00064
3380899187247 351292677955009e-31 -1 -501531055948346e-31 -.377248575436995 -596
998612127367e-31 .926112040916626 .000311645986728658 133 272 528 0 271 269 274
 0 +274 628e-6 -3009265538105055e-51 96e-5 4795e-7 -3009265538105055e-51 932e-6
 22292208691972e-31 .4003776648430345 141 273 267 273 273 269 16 271 38 275 ?114
 276 266 272 0 0 1 31 274 529 0 1 272 277 278 +.000622747250933303 2280168840453
705e-35 .000580068151300156 1134557452809138e-32 -1 -601720649079136e-31 .013824
1822565381 -6000947166116e-29 .999904441426749 .000379968157914895 133 277 532 0
 276 274 279 0 +279 7175e-7 -601853107621011e-50 953e-6 628e-6 0 96e-5 267224236
9236535e-32 .1772439840428755 141 278 272 278 278 274 16 276 40 280 ?110 281 271
 277 0 0 1 31 279 533 0 1 277 282 283 +.000633359863471849 3093268479283565e-35
 .000452868968675779 -477454050578915e-32 -1 -610459107525903e-31 .1659047314162
27 -609920422558528e-31 .986141784985156 .000507159354708562 133 282 536 0 281 2
79 284 0 +284 7875e-7 0 935e-6 7175e-7 601853107621011e-50 953e-6 30293248954701
95e-49 .162301485776009 141 283 277 283 283 279 16 281 42 285 ?106 286 276 282 0
 0 1 31 284 537 0 1 282 287 288 +.000641838844326736 272085336192513e-34 .000513
651061270638 -1524936561302005e-32 -1 -593030884950783e-31 .3267291536639925 -61
0308295356193e-31 .945118013872348 .0004458162182339605 133 287 540 0 286 284 28
9 0 +289 844e-6 0 91e-5 7875e-7 -3009265538105055e-51 935e-6 0 .1902875382776625
 141 288 282 288 288 284 16 286 44 290 ?102 291 281 287 0 0 1 31 289 541 0 1 287
 292 293 +.000684766549788943 1982132010267815e-35 .000626477402523011 -24776819
8337977e-31 -1 -559956128243827e-31 .489681755450326 -609554010816019e-31 .87190
1243478347 .0003251774207201605 133 292 544 0 291 289 294 0 +294 8945e-7 0 881e-
6 844e-6 0 91e-5 -291172199909263e-19 291172199909263e-19 141 293 287 293 293 28
9 16 291 46 295 ?98 296 286 292 0 0 1 30 294 545 0 1 292 297 298 +86925e-8 0 895
5e-7 -.867184436147014 0 .497987101945809 133 297 548 0 296 294 299 0 +299 943e-
6 -150463276905253e-50 8695e-7 8945e-7 150463276905253e-50 881e-6 13253037605949
8e-47 .785164992791588 141 298 292 298 298 294 16 296 48 300 ?94 218 291 297 0 0
 1 31 299 549 0 1 297 301 302 +.00093263630681434 3685439386781975e-36 .00093381
3989608304 -1412730091596718e-32 1 -59580356036905e-30 .159089840185787 -5657403
71269222e-31 -.987264109926853 651436519991281e-19 133 301 552 0 218 299 303 0 +
303 979e-6 752316384526264e-51 897e-6 943e-6 376158192263132e-51 8695e-7 1393112
70762609e-47 .837709657462431 141 302 297 302 302 299 16 218 50 304 ?90 214 296
 301 0 0 1 31 303 553 0 1 301 305 306 +.000930114983567801 311538074335287e-35 .
000923681294238515 3717050125469695e-32 1 -486595652788762e-31 .877769185248484
 -559391285185389e-31 -.479083768696262 556923360420318e-19 133 305 556 0 217 30
3 307 0 +307 9625e-7 601853107621011e-50 .0010415 .0010385 601853107621011e-50 9
875e-7 0 .1742669711079305 141 306 301 306 306 303 16 217 54 308 ?82 309 214 305
 0 0 1 31 307 557 0 1 305 310 311 +.000691415208777613 326756767311338e-34 .0005
79491775316641 354662080239408e-31 1 499154038855462e-31 .506070116385483 -61000
0415432147e-31 .862492340430676 .000535666466849619 133 310 560 0 309 307 312 0
 +312 8705e-7 601853107621011e-50 .001083 9625e-7 601853107621011e-50 .0010415 3
881939387863295e-49 .2085790210823665 141 311 305 311 311 307 16 309 56 313 ?78
 314 217 310 0 0 1 31 312 561 0 1 310 315 316 +.000718256499441444 2952153141628
325e-35 .000622770432496694 2517803235876795e-32 1 558163608917267e-31 .31406148
6582708 -608996509458871e-31 .949402645164558 .000484756988878554 133 315 564 0
 314 312 317 0 +317 761e-6 0 .00111 8705e-7 0 .001083 324026425934028e-48 .17371
4140022081 141 316 310 316 316 312 16 314 58 318 ?74 319 309 315 0 0 1 31 317 56
5 0 1 315 320 321 +.000660713291600789 3965357822757575e-35 .000467740015936537
 146593214588963e-31 1 594516925833015e-31 .154277145530627 -61001512131332e-30
 .988027612148022 .000650042545538943 133 320 568 0 319 317 322 0 +322 635e-6 60
1853107621011e-50 .00112 761e-6 1203706215242022e-50 .00111 3151530482093855e-49
 .168910594516675 141 321 315 321 321 317 16 319 60 323 ?70 324 314 320 0 0 1 31
 322 569 0 1 320 325 326 +.000638937908259852 457113140326395e-34 .0003708176440
741345 484447623888645e-32 1 61040400609969e-30 -.00525620208582395 -61014093856
3051e-31 .999986186074404 .000749192705218152 133 325 572 0 324 322 327 0 +327 3
955e-7 0 .001079 635e-6 0 .00112 0 .3667237584704125 141 326 320 326 326 322 16
 324 62 328 ?66 329 319 325 0 0 1 31 327 573 0 1 325 330 331 +.00062579498356140
7 4011564788143545e-35 .000453755522854714 -103320605098053e-31 1 60354353465813
6e-31 -.345628390429266 -60205856827058e-30 .938371470010291 .000666308063626901
 133 330 576 0 329 327 332 0 +332 214e-6 0 9635e-7 3955e-7 0 .001079 76071517959
9786e-48 .4178318101706445 141 331 325 331 331 327 16 329 64 333 ?62 334 324 330
 0 0 1 31 332 577 0 1 330 335 336 +.000577143632999117 3106735133296685e-35 .000
593202862429959 -328741426527506e-31 1 51659367025751e-30 -.7001768188709 -59900
9241809129e-31 .713969482762272 .000518645609525776 133 335 580 0 334 332 337 0
 +337 98e-6 601853107621011e-50 7865e-7 214e-6 0 9635e-7 106005904664373e-30 .41
6835577021284 141 336 330 336 336 332 16 334 66 338 ?58 339 329 335 0 0 1 31 337
 581 0 1 335 340 341 +.000574461658839316 306358229713391e-34 .00060075394109965
7 -512138981136811e-31 1 335639106281752e-31 -.931703522920672 -599072426089941e
-31 .3632196929920095 .000511387632565476 133 340 584 0 339 337 342 0 +342 575e-
7 -601853107621011e-50 56e-5 98e-6 0 7865e-7 1377449160377964e-33 .3763953048566
115 141 341 335 341 341 337 16 339 68 343 ?54 344 334 340 0 0 1 31 342 585 0 1 3
40 345 346 +.000672389666637449 3698867280957755e-35 .000566923701991979 -602763
352573832e-31 1 1077788776125398e-32 -.999936611415608 -60151162325155e-30 -.011
25935835964044 .000614928646093827 133 345 588 0 344 342 347 0 +347 995e-7 -6018
53107621011e-50 335e-6 575e-7 -601853107621011e-50 56e-5 0 .389526050237924 141
 346 340 346 346 342 16 344 70 348 ?50 349 339 345 0 0 1 31 347 589 0 1 345 350
 351 +.000648802888994641 355241719806329e-34 .000553956539279 -601926300573828e
-31 1 -1123595761071148e-32 -.928921896516932 -600746543839225e-31 -.37027572182
2787 .000591333772036483 133 350 592 0 349 347 352 0 +352 22e-5 0 1575e-7 995e-7
 601853107621011e-50 335e-6 765830914676839e-48 .4208194809538165 141 351 345 35
1 351 347 16 349 72 353 ?46 354 344 350 0 0 1 31 352 593 0 1 350 355 356 +.00057
5302991119927 307547985644572e-34 .000528357805239162 -506611726248439e-31 1 -34
3925143734856e-31 -.691801419979695 -598818863050312e-31 -.722087803050348 .0005
13591011609019 133 355 596 0 354 352 357 0 +357 408e-6 0 415e-7 22e-5 -601853107
621011e-50 1575e-7 483782686939675e-31 .3968844396403785 141 356 350 356 356 352
 16 354 74 358 ?42 359 349 355 0 0 1 31 357 597 0 1 355 360 361 +.00060242985324
0216 336335714963105e-34 .000566955279389316 -321535503638225e-31 1 -52110926451
7124e-31 -.347026778617144 -600306474301233e-31 -.937855220661807 .0005602733426
36535 133 360 600 0 359 357 362 0 +362 6545e-7 0 0 408e-6 0 415e-7 6604970473009
41e-48 .360050520055228 141 361 355 361 361 357 16 359 76 363 ?36 23 354 360 0 0
 1 31 362 601 0 1 360 364 365 +.000645263729336749 4205097407394055e-35 .0006979
64079072497 -1016582907389278e-32 1 -603825751015559e-31 .0132320019532519 -6024
27745319755e-31 -.999912453229936 .000698025188923211 133 364 604 0 23 362 366 0
 +366 859e-6 0 28e-6 6545e-7 601853107621011e-50 0 0 .2858915783968195 141 365 3
60 365 365 362 16 23 78 367 ?31 11 359 364 0 0 1 31 366 605 0 1 364 18 368 +.000
659478764519212 439069954084125e-34 .000724427416279331 830639204681075e-32 1 -6
06663276276002e-31 .2754127178035555 -60607809022832e-30 -.961326081447944 .0007
24444524828013 133 18 608 0 11 366 8 0 +8 .001039 601853107621011e-50 116e-6 859
e-6 601853107621011e-50 28e-6 614733360638734e-48 .3340907251092965 141 368 364
 368 368 366 81 1 367 649 26 23 0 0 21 363 369 80 7 CCCCCDI12 legal_owners0 17 1
 lCZ1 26 370 371 9000 0 0 0 0 3 5 0 0 0 FFTFTFTTFFFFFFFFF2 81 1 21 648 26 11 0 0
 175 367 372 81 1 363 650 26 359 0 0 367 358 373 83 255 1 369 2559 81 1 358 651
 26 354 0 0 363 353 374 83 1 373 2560 81 1 353 652 26 349 0 0 358 348 375 83 1 3
74 2561 81 1 348 653 26 344 0 0 353 343 376 83 1 375 2562 81 1 343 654 26 339 0
 0 348 338 377 83 1 376 2563 81 1 338 655 26 334 0 0 343 333 378 83 1 377 2564 8
1 1 333 656 26 329 0 0 338 328 379 83 1 378 2565 81 1 328 657 26 324 0 0 333 323
 380 83 1 379 2566 81 1 323 658 26 319 0 0 328 318 381 83 1 380 2567 81 1 318 65
9 26 314 0 0 323 313 382 83 1 381 2568 81 1 313 660 26 309 0 0 318 308 383 83 1
 382 2569 81 1 308 661 26 217 0 0 313 216 384 83 1 383 2570 81 1 216 662 26 214
 0 0 308 304 385 83 1 384 2571 81 1 304 663 26 218 0 0 216 300 386 83 1 385 2572
 81 1 300 664 26 296 0 0 304 295 387 83 1 386 2573 81 1 295 665 26 291 0 0 300 2
90 388 83 1 387 2574 81 1 290 666 26 286 0 0 295 285 389 83 1 388 2575 81 1 285
 667 26 281 0 0 290 280 390 83 1 389 2576 81 1 280 668 26 276 0 0 285 275 391 83
 1 390 2577 81 1 275 669 26 271 0 0 280 270 392 83 1 391 2578 81 1 270 670 26 26
6 0 0 275 265 393 83 1 392 2579 81 1 265 671 26 261 0 0 270 260 394 83 1 393 258
0 81 1 260 672 26 256 0 0 265 255 395 83 1 394 2581 81 1 255 673 26 251 0 0 260
 250 396 83 1 395 2582 81 1 250 674 26 246 0 0 255 245 397 83 1 396 2583 81 1 24
5 675 26 241 0 0 250 240 398 83 1 397 2584 81 1 240 676 26 236 0 0 245 235 399 8
3 1 398 2585 81 1 235 677 26 231 0 0 240 230 400 83 1 399 2586 81 1 230 678 26 2
11 0 0 235 210 401 83 1 400 2587 81 1 210 679 26 205 0 0 230 204 402 83 1 401 25
88 81 1 204 680 26 202 0 0 210 226 403 83 1 402 2589 81 1 226 681 26 206 0 0 204
 222 404 83 1 403 2590 81 1 222 682 26 199 0 0 226 198 405 83 1 404 2591 81 1 19
8 683 26 184 0 0 222 183 406 83 1 405 2592 81 1 183 684 26 179 0 0 198 188 407 8
3 1 406 2593 83 1 407 2594 83 1 372 2558 79 255 13 371 BTI/importTag17 36 0 0 0
 0 32 35 359 0 408 +17 35 0 181 30 408 25 36 359 0 0 -17 408 0 181 35 409 32 42
 354 0 0 -17 409 0 181 408 410 37 46 349 0 0 -17 42 0 0 0 0 37 408 354 0 409 +17
 410 0 181 409 411 43 50 344 0 0 -17 46 0 0 0 0 43 409 349 0 410 +17 411 0 181 4
10 412 47 54 339 0 0 -17 50 0 0 0 0 47 410 344 0 411 +17 412 0 181 411 413 51 58
 334 0 0 -17 54 0 0 0 0 51 411 339 0 412 +17 413 0 181 412 414 55 62 329 0 0 -17
 58 0 0 0 0 55 412 334 0 413 +17 414 0 181 413 415 59 66 324 0 0 -17 62 0 0 0 0
 59 413 329 0 414 +17 415 0 181 414 416 63 70 319 0 0 -17 66 0 0 0 0 63 414 324
 0 415 +17 416 0 181 415 417 67 74 314 0 0 -17 70 0 0 0 0 67 415 319 0 416 +17 4
17 0 181 416 418 71 78 309 0 0 -17 74 0 0 0 0 71 416 314 0 417 +17 418 0 181 417
 419 75 82 217 0 0 -17 78 0 0 0 0 75 417 309 0 418 +17 419 0 181 418 420 79 86 2
14 0 0 -17 82 0 0 0 0 79 418 217 0 419 +17 420 0 181 419 421 83 90 218 0 0 -17 8
6 0 0 0 0 83 419 214 0 420 +17 421 0 181 420 422 87 94 296 0 0 -17 90 0 0 0 0 87
 420 218 0 421 +17 422 0 181 421 423 91 98 291 0 0 -17 94 0 0 0 0 91 421 296 0 4
22 +17 423 0 181 422 424 95 102 286 0 0 -17 98 0 0 0 0 95 422 291 0 423 +17 424
 0 181 423 425 99 106 281 0 0 -17 102 0 0 0 0 99 423 286 0 424 +17 425 0 181 424
 426 103 110 276 0 0 -17 106 0 0 0 0 103 424 281 0 425 +17 426 0 181 425 427 107
 114 271 0 0 -17 110 0 0 0 0 107 425 276 0 426 +17 427 0 181 426 428 111 118 266
 0 0 -17 114 0 0 0 0 111 426 271 0 427 +17 428 0 181 427 429 115 122 261 0 0 -17
 118 0 0 0 0 115 427 266 0 428 +17 429 0 181 428 430 119 126 256 0 0 -17 122 0 0
 0 0 119 428 261 0 429 +17 430 0 181 429 431 123 130 251 0 0 -17 126 0 0 0 0 123
 429 256 0 430 +17 431 0 181 430 432 127 134 246 0 0 -17 130 0 0 0 0 127 430 251
 0 431 +17 432 0 181 431 433 131 138 241 0 0 -17 134 0 0 0 0 131 431 246 0 432 +
17 433 0 181 432 434 135 142 236 0 0 -17 138 0 0 0 0 135 432 241 0 433 +17 434 0
 181 433 435 139 146 231 0 0 -17 142 0 0 0 0 139 433 236 0 434 +17 435 0 181 434
 436 143 150 211 0 0 -17 146 0 0 0 0 143 434 231 0 435 +17 436 0 181 435 437 147
 154 205 0 0 -17 150 0 0 0 0 147 435 211 0 436 +17 437 0 181 436 438 151 158 202
 0 0 -17 154 0 0 0 0 151 436 205 0 437 +17 438 0 181 437 439 155 162 206 0 0 -17
 158 0 0 0 0 155 437 202 0 438 +17 439 0 181 438 182 159 166 199 0 0 -17 162 0 0
 0 0 159 438 206 0 439 +17 182 0 181 439 178 163 170 184 0 0 -17 166 0 0 0 0 163
 439 199 0 182 +17 170 0 0 0 0 167 182 184 0 178 +17 30 0 181 29 35 12 31 23 0 0
 -81 1 190 686 26 17 0 0 188 14 440 83 1 191 2595 14 255 17 3 190 ?0 0 181 6 7 +
0 0 0 0 6 81 1 14 687 26 1 441 2 190 0 442 83 1 440 2596 81 1 441 480 443 1 444
 14 0 0 445 83 1 442 2597 80 1 443 446 447 9000 0 0 0 0 3 5 0 0 0 TTTFFFFFFFFFFF
FFF1 81 1 444 359 448 1 449 441 0 0 450 82 255 1 445 3 80 1 448 451 452 8038 0 0
 0 0 0 0 0 0 0 TTTTTTTTTTTTTFTFT10 81 1 449 358 451 1 0 444 0 0 453 98 255 19 45
0 72 67 45 48 52 83 104 97 112 101 83 116 114 105 110 103 48 49 48 80 1 451 454
 455 8017 0 0 0 0 0 0 0 0 0 TTTTTTTTTTTTTFTFT3 84 255 19 453 HC-04ShapeString010
79 13 455 SDL/TYSA_NAME79 14 452 SDL/TYSA_UNAME79 23 447 ONSHAPE_ORIGINALBODY_ID
81 1 173 646 26 171 0 0 169 175 456 83 1 177 2557 81 1 169 645 26 167 0 0 165 17
3 457 83 1 456 2556 81 1 165 644 26 163 0 0 161 169 458 83 1 457 2555 81 1 161 6
43 26 159 0 0 157 165 459 83 1 458 2554 81 1 157 642 26 155 0 0 153 161 460 83 1
 459 2553 81 1 153 641 26 151 0 0 149 157 461 83 1 460 2552 81 1 149 640 26 147
 0 0 145 153 462 83 1 461 2551 81 1 145 639 26 143 0 0 141 149 463 83 1 462 2550
 81 1 141 638 26 139 0 0 137 145 464 83 1 463 2549 81 1 137 637 26 135 0 0 133 1
41 465 83 1 464 2548 81 1 133 636 26 131 0 0 129 137 466 83 1 465 2547 81 1 129
 635 26 127 0 0 125 133 467 83 1 466 2546 81 1 125 634 26 123 0 0 121 129 468 83
 1 467 2545 81 1 121 633 26 119 0 0 117 125 469 83 1 468 2544 81 1 117 632 26 11
5 0 0 113 121 470 83 1 469 2543 81 1 113 631 26 111 0 0 109 117 471 83 1 470 254
2 81 1 109 630 26 107 0 0 105 113 472 83 1 471 2541 81 1 105 629 26 103 0 0 101
 109 473 83 1 472 2540 81 1 101 628 26 99 0 0 97 105 474 83 1 473 2539 81 1 97 6
27 26 95 0 0 93 101 475 83 1 474 2538 81 1 93 626 26 91 0 0 89 97 476 83 1 475 2
537 81 1 89 625 26 87 0 0 85 93 477 83 1 476 2536 81 1 85 624 26 83 0 0 81 89 47
8 83 1 477 2535 81 1 81 623 26 79 0 0 77 85 479 83 1 478 2534 81 1 77 622 26 75
 0 0 73 81 480 83 1 479 2533 81 1 73 621 26 71 0 0 69 77 481 83 1 480 2532 81 1
 69 620 26 67 0 0 65 73 482 83 1 481 2531 81 1 65 619 26 63 0 0 61 69 483 83 1 4
82 2530 81 1 61 618 26 59 0 0 57 65 484 83 1 483 2529 81 1 57 617 26 55 0 0 53 6
1 485 83 1 484 2528 81 1 53 616 26 51 0 0 49 57 486 83 1 485 2527 81 1 49 615 26
 47 0 0 45 53 487 83 1 486 2526 81 1 45 614 26 43 0 0 41 49 488 83 1 487 2525 81
 1 41 613 26 37 0 0 33 45 489 83 1 488 2524 81 1 33 612 26 32 0 0 27 41 490 83 1
 489 2523 83 1 490 2522 83 1 34 2521 83 1 28 2520 141 19 18 19 19 8 74 4 CI16 in
dex_map_offset0 0 1 dCCZ20 16 5 0 0 449 444 441 14 2 0 0 0 0 0 0 0 0 0 0 0 0 0 0
 0 80 1 13 26 491 9000 0 0 0 0 3 5 0 0 0 FFTFTFTTFFFFFFFFF2 83 1 15 17325 79 18
 491 BTI/importMaxCount1 0 
