**ABCDEFGHIJKLMNOPQRSTUVWXYZabcdefghijklmnopqrstuvwxyz**************************
**PARASOLID !"#$%&'()*+,-./:;<=>?@[\]^_`{|}~0123456789**************************
**PART1;
MC=unknown;
MC_MODEL=unknown;
MC_ID=unknown;
OS=unknown;
OS_RELEASE=unknown;
FRU=Parasolid 37.0.173;
APPL=Onshape;
SITE=unknown;
USER=unknown;
FORMAT=text;
GUISE=transmit;
KEY=BTGapi::writeModels_.xmt;
FILE=BTGapi::writeModels_.xmt;
DATE=2024-12-29T04:00:26 (UTC);
**PART2;
SCH=SCH_3700173_36001;
USFLD_SIZE=0;
**PART3;
**END_OF_HEADER*****************************************************************
T51 : TRANSMIT FILE created by modeller version 370017323 SCH_3700173_36001_1300
6231 0 12 36 CCCI7 lattice222 0 CCCI4 mesh1006 0 I8 polyline1008 0 CCCCCCCDI5 ow
ner1040 0 CCCI16 boundary_lattice222 0 CCCI13 boundary_mesh1006 0 I17 boundary_p
olyline1008 0 CCCA16 index_map_offset0 0 1 dA9 index_map82 0 A17 node_id_index_m
ap82 0 A20 schema_embedding_map82 0 A5 child12 0 A14 lowest_node_id0 0 1 dA16 me
sh_offset_data206 0 Z1 371 2 3 0 0 0 0 0 0 0 1e3 1e-8 0 4 5 1 0 3 2 6 0 7 8 9 0
 0 10 11 12 0 0 0 0 0 0 0 81 255 1 2 330 13 1 14 0 0 0 15 70 11 CI9 list_type0 0
 1 uI10 notransmit0 0 1 lCCCDCCDI12 finger_index0 0 1 dI12 finger_block1012 0 CZ
3 0 4 T1 0 0 5 20 1 16 16 13 255 6 2 0 1 0 17 0 0 10 17 50 255 7 105 0 17 0 0 0
 +.003556 0 .00112 0 -1 0 1 0 0 31 255 8 289 0 1 18 0 19 +.003447084057008065 56
2221782576404e-35 94118292166338e-18 -1172662743334134e-32 1 -600989655958757e-3
1 .0309668235181628 -597070065061857e-31 -.999520412918713 941634517413225e-19 2
9 255 9 141 0 12 20 0 .00345 4302114220422e-31 0 19 9 CCCCCCI5 frame230 0 CA5 ow
ner12 0 Z10 1 0 1 0 0 6 0 V0 16 255 11 42 21 ?22 0 23 24 0 0 1 18 255 12 41 25 2
2 0 26 9 5e-7 1 81 1 25 290 27 12 0 0 0 28 29 17 255 22 0 0 0 0 12 30 11 0 31 +1
8 26 39 28 32 12 33 20 5e-7 1 81 1 28 291 27 26 0 0 25 34 35 17 32 0 0 0 0 26 31
 23 0 36 +18 33 37 34 37 26 38 39 5e-7 1 29 20 139 0 26 39 9 .003409 41633363423
44e-31 7999999999999e-18 29 39 137 0 33 40 20 .003377 4163336342344e-31 355e-7 2
9 40 135 0 38 41 39 .002797 3469446951954e-31 7755e-7 18 38 35 42 43 33 44 40 5e
-7 1 29 41 133 0 44 45 40 .0028015 3469446951954e-31 682e-6 18 44 33 46 47 38 48
 41 5e-7 1 29 45 131 0 48 49 41 .0028015 3469446951954e-31 0 18 48 31 50 51 44 5
2 45 5e-7 1 29 49 129 0 52 53 45 .0026195 3191891195797e-31 0 18 52 29 54 55 48
 56 49 5e-7 1 29 53 127 0 56 57 49 .0026195 3191891195797e-31 .00112 18 56 27 58
 59 52 60 53 5e-7 1 29 57 125 0 60 61 53 .002728 3330669073875e-31 .00112 18 60
 25 62 63 56 64 57 5e-7 1 29 61 123 0 64 65 57 .0027505 3330669073875e-31 .00111
85 18 64 23 66 67 60 68 61 5e-7 1 29 65 121 0 68 69 61 .0027675 3469446951954e-3
1 .001114 18 68 21 70 71 64 72 65 5e-7 1 29 69 119 0 72 73 65 .0027815 346944695
1954e-31 .0011045 18 72 19 74 75 68 76 69 5e-7 1 29 73 117 0 76 77 69 .002797 34
69446951954e-31 .001087 18 76 17 78 79 72 80 73 5e-7 1 29 77 115 0 80 81 73 .003
379 4163336342344e-31 3435e-7 18 80 15 82 83 76 84 77 5e-7 1 29 81 113 0 84 85 7
7 .0033755 4163336342344e-31 3965e-7 18 84 13 86 87 80 88 81 5e-7 1 29 85 111 0
 88 89 81 .003374 4163336342344e-31 445e-6 18 88 11 90 91 84 92 85 5e-7 1 29 89
 109 0 92 93 85 .003374 4163336342344e-31 .00112 18 92 9 94 95 88 96 89 5e-7 1 2
9 93 107 0 96 97 89 .003556 4440892098501e-31 0 18 96 7 98 30 92 99 93 5e-7 1 29
 97 106 0 99 0 93 .003556 4440892098501e-31 .00112 18 99 6 100 101 96 0 97 5e-7
 1 81 1 100 308 27 99 0 0 98 21 102 17 101 0 0 0 0 99 103 104 0 105 +17 103 0 10
6 107 105 92 101 104 0 0 -16 104 8 108 ?101 109 110 111 0 0 1 17 105 0 106 103 3
0 99 112 110 0 0 -15 255 106 4 0 105 17 0 17 30 0 106 105 31 96 22 11 0 112 -17
 112 0 0 0 0 96 105 110 0 0 +16 110 5 113 ?112 104 0 114 0 0 1 81 1 113 327 27 1
10 0 0 108 115 116 133 255 114 189 0 110 0 117 0 +117 .003556 0 .00112 .003556 0
 0 0 .00112 30 255 117 108 0 1 114 111 118 +.003556 0 .00112 0 0 -1 133 111 191
 0 104 117 119 0 +119 .003374 0 .00112 .003556 0 .00112 0 182e-6 141 255 118 114
 118 118 117 30 119 110 0 1 111 120 121 +.003374 0 .00112 1 0 0 133 120 193 0 10
9 119 122 0 +122 .003374 0 445e-6 .003374 0 .00112 0 675e-6 141 121 111 121 121
 119 16 109 10 123 ?95 124 104 120 0 0 1 30 122 112 0 1 120 125 126 +.003374 0 4
45e-6 0 0 1 133 125 199 0 127 122 128 0 +128 .002797 0 .001087 .0033790000000000
9 0 .00034350000000007 0 .00094420138212142 141 126 120 126 126 122 16 127 16 12
9 ?83 130 131 125 0 0 1 30 128 118 0 1 125 132 133 +.002797 0 .001087 .616393929
325182 0 -.787437949232232 133 132 209 0 134 128 135 0 +135 .0026195 0 .00112 .0
02728 0 .00112 0 1085e-7 141 133 125 133 133 128 16 134 26 136 ?63 137 138 132 0
 0 1 30 135 128 0 1 132 139 140 +.0026195 0 .00112 1 0 0 133 139 211 0 137 135 1
41 0 +141 .0026195 0 0 .0026195 0 .00112 0 .00112 141 140 132 140 140 135 16 137
 28 142 ?59 143 134 139 0 0 1 30 141 130 0 1 139 144 145 +.0026195 0 0 0 0 1 133
 144 213 0 143 141 146 0 +146 .0028015 0 0 .0026195 0 0 0 182e-6 141 145 139 145
 145 141 16 143 30 147 ?55 148 137 144 0 0 1 30 146 132 0 1 144 149 150 +.002801
5 0 0 -1 0 0 133 149 215 0 148 146 151 0 +151 .0028015 0 682e-6 .0028015 0 0 0 6
82e-6 141 150 144 150 150 146 16 148 32 152 ?51 153 143 149 0 0 1 30 151 134 0 1
 149 154 155 +.0028015 0 682e-6 0 0 -1 133 154 219 0 156 151 157 0 +157 .003377
 0 355e-7 .002796999999999685 0 .000775499999999753 0 .000940212741883452 141 15
5 149 155 155 151 16 156 36 158 ?43 159 153 154 0 0 1 30 157 138 0 1 154 24 160
 +.003377 0 355e-7 -.616881663227035 0 .787055915151044 133 24 225 0 11 157 161
 0 +161 .003556 0 0 .00345 0 0 0 106e-6 141 160 154 160 160 157 30 161 143 0 1 2
4 162 163 +.003556 0 0 -1 0 0 133 162 256 0 124 161 164 0 +164 .0033755 0 3965e-
7 .003374 0 445e-6 -2426159516602315e-20 242615951660232e-19 141 163 24 163 163
 161 16 124 12 165 ?91 131 109 162 0 0 1 30 164 257 0 1 162 166 167 +.00337475 0
 42075e-8 -.03091305393844055 0 .999522077343067 133 166 260 0 131 164 168 0 +16
8 .003379 0 3435e-7 .0033755 0 3965e-7 -2655772015817625e-20 265577201581763e-19
 141 167 162 167 167 164 16 131 14 169 ?87 127 124 166 0 0 1 30 168 261 0 1 166
 170 171 +.00337725 0 37e-5 -.0658942104057546 0 .997826614715704 133 170 264 0
 130 168 172 0 +172 .0027815 0 .0011045 .002797 0 .001087 -1168866972756126e-20
 1168866972756098e-20 141 171 166 171 171 168 16 130 18 173 ?79 174 127 170 0 0
 1 30 172 265 0 1 170 175 176 +.00278925 0 .00109575 .663035245296235 0 -.748588
180173159 133 175 268 0 174 172 177 0 +177 .0027675 0 .001114 .0027815 0 .001104
5 -845946215784448e-20 8459462157844e-18 141 176 170 176 176 172 16 174 20 178 ?
75 179 130 175 0 0 1 30 177 269 0 1 175 180 181 +.0027745 0 .00110925 .827475774
391748 0 -.56150141833728 133 180 272 0 179 177 182 0 +182 .0027505 0 .0011185 .
0027675 0 .001114 -879275269753434e-20 879275269753429e-20 141 181 175 181 181 1
77 16 179 22 183 ?71 138 174 180 0 0 1 30 182 273 0 1 180 184 185 +.002759 0 .00
111625 .966705227861511 0 -.2558925603162845 133 184 276 0 138 182 186 0 +186 .0
02728 0 .00112 .0027505 0 .0011185 -1127497228377966e-20 1127497228377964e-20 14
1 185 180 185 185 182 16 138 24 187 ?67 134 179 184 0 0 1 30 186 277 0 1 184 188
 189 +.00273925 0 .00111925 .997785157856609 0 -.0665190105237733 133 188 280 0
 153 186 190 0 +190 .002797 0 7755e-7 .0028015 0 682e-6 165420179752939e-48 .088
3531334042099 141 189 184 189 189 186 16 153 34 191 ?47 156 148 188 0 0 1 31 190
 281 0 1 188 192 193 +.001741685151047105 648321267025648e-34 .00067785115700227
 611615455441195e-31 1 2943603796240875e-33 .995746345561355 -611726001042283e-3
1 .0921369377676824 .00105982296963185 133 192 284 0 159 190 194 0 +194 .003409
 376158192263132e-50 799999999999976e-20 .003377 601853107621011e-50 355e-7 -532
907051820075e-29 .4425408002369365 141 193 188 193 193 190 16 159 38 195 ?37 23
 156 192 0 0 1 31 194 285 0 1 192 18 196 +.003454123681239265 574246241869816e-3
5 928757381693282e-19 -3990920279791655e-32 1 -464397996193934e-31 -.46942655638
2946 -597394601755623e-31 -.882971521716555 961251139836585e-19 133 18 288 0 23
 194 8 0 +8 .00345 -496528813787334e-49 -271050543121376e-34 .003409 -4062508476
441825e-50 799999999999986e-20 449767362809296e-32 .447345067119813 141 196 192
 196 196 194 16 23 40 197 ?32 11 159 18 0 0 1 81 1 197 310 27 23 0 0 21 195 198
 80 7 CCCCCDI12 legal_owners0 17 1 lCZ1 27 199 200 9000 0 0 0 0 3 5 0 0 0 FFTFTF
TTFFFFFFFFF2 81 1 21 309 27 11 0 0 100 197 201 81 1 195 311 27 159 0 0 197 158 2
02 83 255 1 198 408 81 1 158 312 27 156 0 0 195 191 203 83 1 202 409 81 1 191 31
3 27 153 0 0 158 152 204 83 1 203 410 81 1 152 314 27 148 0 0 191 147 205 83 1 2
04 411 81 1 147 315 27 143 0 0 152 142 206 83 1 205 412 81 1 142 316 27 137 0 0
 147 136 207 83 1 206 413 81 1 136 317 27 134 0 0 142 187 208 83 1 207 414 81 1
 187 318 27 138 0 0 136 183 209 83 1 208 415 81 1 183 319 27 179 0 0 187 178 210
 83 1 209 416 81 1 178 320 27 174 0 0 183 173 211 83 1 210 417 81 1 173 321 27 1
30 0 0 178 129 212 83 1 211 418 81 1 129 322 27 127 0 0 173 169 213 83 1 212 419
 81 1 169 323 27 131 0 0 129 165 214 83 1 213 420 81 1 165 324 27 124 0 0 169 12
3 215 83 1 214 421 81 1 123 325 27 109 0 0 165 108 216 83 1 215 422 81 1 108 326
 27 104 0 0 123 113 217 83 1 216 423 83 1 217 424 83 1 201 407 79 255 13 200 BTI
/importTag17 37 0 0 0 0 33 36 159 0 218 +17 36 0 106 31 218 26 37 159 0 0 -17 21
8 0 106 36 219 33 43 156 0 0 -17 219 0 106 218 220 38 47 153 0 0 -17 43 0 0 0 0
 38 218 156 0 219 +17 220 0 106 219 221 44 51 148 0 0 -17 47 0 0 0 0 44 219 153
 0 220 +17 221 0 106 220 222 48 55 143 0 0 -17 51 0 0 0 0 48 220 148 0 221 +17 2
22 0 106 221 223 52 59 137 0 0 -17 55 0 0 0 0 52 221 143 0 222 +17 223 0 106 222
 224 56 63 134 0 0 -17 59 0 0 0 0 56 222 137 0 223 +17 224 0 106 223 225 60 67 1
38 0 0 -17 63 0 0 0 0 60 223 134 0 224 +17 225 0 106 224 226 64 71 179 0 0 -17 6
7 0 0 0 0 64 224 138 0 225 +17 226 0 106 225 227 68 75 174 0 0 -17 71 0 0 0 0 68
 225 179 0 226 +17 227 0 106 226 228 72 79 130 0 0 -17 75 0 0 0 0 72 226 174 0 2
27 +17 228 0 106 227 229 76 83 127 0 0 -17 79 0 0 0 0 76 227 130 0 228 +17 229 0
 106 228 230 80 87 131 0 0 -17 83 0 0 0 0 80 228 127 0 229 +17 230 0 106 229 107
 84 91 124 0 0 -17 87 0 0 0 0 84 229 131 0 230 +17 107 0 106 230 103 88 95 109 0
 0 -17 91 0 0 0 0 88 230 124 0 107 +17 95 0 0 0 0 92 107 109 0 103 +17 31 0 106
 30 36 12 32 23 0 0 -81 1 115 328 27 17 0 0 113 14 231 83 1 116 425 14 255 17 3
 115 ?0 0 106 6 7 +0 0 0 0 6 81 1 14 329 27 1 232 2 115 0 233 83 1 231 426 81 1
 232 252 234 1 235 14 0 0 236 83 1 233 427 80 1 234 237 238 9000 0 0 0 0 3 5 0 0
 0 TTTFFFFFFFFFFFFFF1 81 1 235 188 239 1 240 232 0 0 241 82 255 1 236 0 80 1 239
 242 243 8038 0 0 0 0 0 0 0 0 0 TTTTTTTTTTTTTFTFT10 81 1 240 187 242 1 0 235 0 0
 244 98 255 19 241 72 67 45 48 52 83 104 97 112 101 83 116 114 105 110 103 48 49
 50 80 1 242 245 246 8017 0 0 0 0 0 0 0 0 0 TTTTTTTTTTTTTFTFT3 84 255 19 244 HC-
04ShapeString01279 13 246 SDL/TYSA_NAME79 14 243 SDL/TYSA_UNAME79 23 238 ONSHAPE
_ORIGINALBODY_ID81 1 98 307 27 96 0 0 94 100 247 83 1 102 406 81 1 94 306 27 92
 0 0 90 98 248 83 1 247 405 81 1 90 305 27 88 0 0 86 94 249 83 1 248 404 81 1 86
 304 27 84 0 0 82 90 250 83 1 249 403 81 1 82 303 27 80 0 0 78 86 251 83 1 250 4
02 81 1 78 302 27 76 0 0 74 82 252 83 1 251 401 81 1 74 301 27 72 0 0 70 78 253
 83 1 252 4e2 81 1 70 300 27 68 0 0 66 74 254 83 1 253 399 81 1 66 299 27 64 0 0
 62 70 255 83 1 254 398 81 1 62 298 27 60 0 0 58 66 256 83 1 255 397 81 1 58 297
 27 56 0 0 54 62 257 83 1 256 396 81 1 54 296 27 52 0 0 50 58 258 83 1 257 395 8
1 1 50 295 27 48 0 0 46 54 259 83 1 258 394 81 1 46 294 27 44 0 0 42 50 260 83 1
 259 393 81 1 42 293 27 38 0 0 34 46 261 83 1 260 392 81 1 34 292 27 33 0 0 28 4
2 262 83 1 261 391 83 1 262 390 83 1 35 389 83 1 29 388 141 19 18 19 19 8 74 4 C
I16 index_map_offset0 0 1 dCCZ20 16 5 0 0 240 235 232 14 2 0 0 0 0 0 0 0 0 0 0 0
 0 0 0 0 80 1 13 27 263 9000 0 0 0 0 3 5 0 0 0 FFTFTFTTFFFFFFFFF2 83 1 15 17325
 79 18 263 BTI/importMaxCount1 0 
