**ABCDEFGHIJKLMNOPQRSTUVWXYZabcdefghijklmnopqrstuvwxyz**************************
**PARASOLID !"#$%&'()*+,-./:;<=>?@[\]^_`{|}~0123456789**************************
**PART1;
MC=unknown;
MC_MODEL=unknown;
MC_ID=unknown;
OS=unknown;
OS_RELEASE=unknown;
FRU=Parasolid 37.0.173;
APPL=Onshape;
SITE=unknown;
USER=unknown;
FORMAT=text;
GUISE=transmit;
KEY=BTGapi::writeModels_.xmt;
FILE=BTGapi::writeModels_.xmt;
DATE=2024-12-29T04:00:26 (UTC);
**PART2;
SCH=SCH_3700173_36001;
USFLD_SIZE=0;
**PART3;
**END_OF_HEADER*****************************************************************
T51 : TRANSMIT FILE created by modeller version 370017323 SCH_3700173_36001_1300
6231 0 12 36 CCCI7 lattice222 0 CCCI4 mesh1006 0 I8 polyline1008 0 CCCCCCCDI5 ow
ner1040 0 CCCI16 boundary_lattice222 0 CCCI13 boundary_mesh1006 0 I17 boundary_p
olyline1008 0 CCCA16 index_map_offset0 0 1 dA9 index_map82 0 A17 node_id_index_m
ap82 0 A20 schema_embedding_map82 0 A5 child12 0 A14 lowest_node_id0 0 1 dA16 me
sh_offset_data206 0 Z1 699 2 3 0 0 0 0 0 0 0 1e3 1e-8 0 4 5 1 0 3 2 6 0 7 8 9 0
 0 10 11 12 0 0 0 0 0 0 0 81 255 1 2 624 13 1 14 0 0 0 15 70 11 CI9 list_type0 0
 1 uI10 notransmit0 0 1 lCCCDCCDI12 finger_index0 0 1 dI12 finger_block1012 0 CZ
3 0 4 T1 0 0 5 20 1 16 16 13 255 6 2 0 1 0 17 0 0 10 17 50 255 7 190 0 17 0 0 0
 +.0061415 0 0 0 -1 0 1 0 0 31 255 8 549 0 1 18 0 19 +.00625759191590201 2275267
216090385e-36 .000751017058343315 398099646275644e-31 1 465248984201655e-31 -.00
18764846919228 -464501137192686e-31 .999998239401051 489830278961527e-19 29 255
 9 260 0 12 20 0 .0062575 -2359223927328e-31 8e-4 19 9 CCCCCCI5 frame230 0 CA5 o
wner12 0 Z10 1 0 1 0 0 6 0 V0 16 255 11 76 21 ?22 0 23 24 0 0 1 18 255 12 75 25
 22 0 26 9 5e-7 1 81 1 25 550 27 12 0 0 0 28 29 17 255 22 0 0 0 0 12 30 11 0 31
 +18 26 73 28 32 12 33 20 5e-7 1 81 1 28 551 27 26 0 0 25 34 35 17 32 0 0 0 0 26
 31 23 0 36 +18 33 71 34 37 26 38 39 5e-7 1 29 20 258 0 26 39 9 .006306 -2220446
04925e-30 7585e-7 29 39 256 0 33 40 20 .0063185 -222044604925e-30 689e-6 29 40 2
54 0 38 41 39 .0063615 -222044604925e-30 7335e-7 18 38 69 42 43 33 44 40 5e-7 1
 29 41 252 0 44 45 40 .00641 -2081668171172e-31 7685e-7 18 44 67 46 47 38 48 41
 5e-7 1 29 45 250 0 48 49 41 .0064655 -2081668171172e-31 7915e-7 18 48 65 50 51
 44 52 45 5e-7 1 29 49 248 0 52 53 45 .0065305 -1942890293094e-31 8e-4 18 52 63
 54 55 48 56 49 5e-7 1 29 53 246 0 56 57 49 .006653 -1804112415016e-31 756e-6 18
 56 61 58 59 52 60 53 5e-7 1 29 57 244 0 60 61 53 .0067245 -1665334536938e-31 64
e-5 18 60 59 62 63 56 64 57 5e-7 1 29 61 242 0 64 65 57 .0067705 -1665334536938e
-31 713e-6 18 64 57 66 67 60 68 61 5e-7 1 29 65 240 0 68 69 61 .0068315 -1665334
536938e-31 7625e-7 18 68 55 70 71 64 72 65 5e-7 1 29 69 238 0 72 73 65 .0069015
 -152655665886e-30 7905e-7 18 72 53 74 75 68 76 69 5e-7 1 29 73 236 0 76 77 69 .
0069765 -1387778780781e-31 8e-4 18 76 51 78 79 72 80 73 5e-7 1 29 77 234 0 80 81
 73 .0070925 -1249000902703e-31 78e-5 18 80 49 82 83 76 84 77 5e-7 1 29 81 232 0
 84 85 77 .0071775 -1110223024625e-31 7215e-7 18 84 47 86 87 80 88 81 5e-7 1 29
 85 230 0 88 89 81 .0072305 -1110223024625e-31 628e-6 18 88 45 90 91 84 92 85 5e
-7 1 29 89 228 0 92 93 85 .0072485 -1110223024625e-31 5015e-7 18 92 43 94 95 88
 96 89 5e-7 1 29 93 226 0 96 97 89 .0072485 -1110223024625e-31 0 18 96 41 98 99
 92 100 93 5e-7 1 29 97 224 0 100 101 93 .0070585 -1387778780781e-31 0 18 100 39
 102 103 96 104 97 5e-7 1 29 101 222 0 104 105 97 .0070585 -1387778780781e-31 49
15e-7 18 104 37 106 107 100 108 101 5e-7 1 29 105 220 0 108 109 101 .0070255 -13
87778780781e-31 6025e-7 18 108 35 110 111 104 112 105 5e-7 1 29 109 218 0 112 11
3 105 .006929 -152655665886e-30 64e-5 18 112 33 114 115 108 116 109 5e-7 1 29 11
3 216 0 116 117 109 .0068745 -152655665886e-30 63e-5 18 116 31 118 119 112 120 1
13 5e-7 1 29 117 214 0 120 121 113 .006831 -1665334536938e-31 602e-6 18 120 29 1
22 123 116 124 117 5e-7 1 29 121 212 0 124 125 117 .006801 -1665334536938e-31 55
55e-7 18 124 27 126 127 120 128 121 5e-7 1 29 125 210 0 128 129 121 .0067905 -16
65334536938e-31 4915e-7 18 128 25 130 131 124 132 125 5e-7 1 29 129 208 0 132 13
3 125 .0067905 -1665334536938e-31 0 18 132 23 134 135 128 136 129 5e-7 1 29 133
 206 0 136 137 129 .0066 -1942890293094e-31 0 18 136 21 138 139 132 140 133 5e-7
 1 29 137 204 0 140 141 133 .0066 -1942890293094e-31 4915e-7 18 140 19 142 143 1
36 144 137 5e-7 1 29 141 202 0 144 145 137 .006568 -1942890293094e-31 6045e-7 18
 144 17 146 147 140 148 141 5e-7 1 29 145 200 0 148 149 141 .006475 -20816681711
72e-31 64e-5 18 148 15 150 151 144 152 145 5e-7 1 29 149 198 0 152 153 145 .0063
975 -2081668171172e-31 618e-6 18 152 13 154 155 148 156 149 5e-7 1 29 153 196 0
 156 157 149 .0063315 -222044604925e-30 559e-6 18 156 11 158 159 152 160 153 5e-
7 1 29 157 194 0 160 161 153 .0063315 -222044604925e-30 0 18 160 9 162 163 156 1
64 157 5e-7 1 29 161 192 0 164 165 157 .0061415 -2498001805407e-31 8e-4 18 164 7
 166 30 160 167 161 5e-7 1 29 165 191 0 167 0 161 .0061415 -2498001805407e-31 0
 18 167 6 168 169 164 0 165 5e-7 1 81 1 168 585 27 167 0 0 166 21 170 17 169 0 0
 0 0 167 171 172 0 173 +17 171 0 174 175 173 160 169 172 0 0 -16 172 8 176 ?169
 177 178 179 0 0 1 17 173 0 174 171 30 167 180 178 0 0 -15 255 174 4 0 173 17 0
 17 30 0 174 173 31 164 22 11 0 180 -17 180 0 0 0 0 164 173 178 0 0 +16 178 5 18
1 ?180 172 0 182 0 0 1 81 1 181 621 27 178 0 0 176 183 184 133 255 182 342 0 178
 0 185 0 +185 .0061415 0 0 .0061415 0 8e-4 0 8e-4 30 255 185 193 0 1 182 179 186
 +.0061415 0 0 0 0 1 133 179 344 0 172 185 187 0 +187 .0063315 0 0 .0061415 0 0
 0 19e-5 141 255 186 182 186 186 185 30 187 195 0 1 179 188 189 +.0063315 0 0 -1
 0 0 133 188 346 0 177 187 190 0 +190 .0063315 0 559e-6 .0063315 0 0 0 559e-6 14
1 189 179 189 189 187 16 177 10 191 ?163 192 172 188 0 0 1 30 190 197 0 1 188 19
3 194 +.0063315 0 559e-6 0 0 -1 133 193 354 0 195 190 196 0 +196 .0066 0 4915e-7
 .006568 0 6045e-7 0 1 141 194 188 194 194 190 16 195 18 197 ?147 198 199 193 0
 0 1 134 255 196 205 0 1 193 200 201 +202 203 133 200 356 0 198 196 204 0 +204 .
0066 0 0 .0066 0 4915e-7 0 4915e-7 141 201 193 201 201 196 136 255 202 3 4 3 2 1
 FFF1 205 206 207 135 255 203 2 0 45 255 12 205 .0066 0 4915e-7 .0066 0 .0005431
66666666667 .00658933333333333 0 .000580833333333333 .006568 0 6045e-7 127 255 2
 206 4 4 128 255 2 207 0 1 16 198 20 208 ?143 209 195 200 0 0 1 30 204 207 0 1 2
00 210 211 +.0066 0 0 0 0 1 133 210 358 0 209 204 212 0 +212 .0067905 0 0 .0066
 0 0 0 1905e-7 141 211 200 211 211 204 16 209 22 213 ?139 214 198 210 0 0 1 30 2
12 209 0 1 210 215 216 +.0067905 0 0 -1 0 0 133 215 360 0 214 212 217 0 +217 .00
67905 0 4915e-7 .0067905 0 0 0 4915e-7 141 216 210 216 216 212 16 214 24 218 ?13
5 219 209 215 0 0 1 30 217 211 0 1 215 220 221 +.0067905 0 4915e-7 0 0 -1 133 22
0 374 0 222 217 223 0 +223 .0070585 0 0 .0070585 0 4915e-7 0 4915e-7 141 221 215
 221 221 217 16 222 38 224 ?107 225 226 220 0 0 1 30 223 225 0 1 220 227 228 +.0
070585 0 0 0 0 1 133 227 376 0 225 223 229 0 +229 .0072485 0 0 .0070585 0 0 0 19
e-5 141 228 220 228 228 223 16 225 40 230 ?103 231 222 227 0 0 1 30 229 227 0 1
 227 232 233 +.0072485 0 0 -1 0 0 133 232 378 0 231 229 234 0 +234 .0072485 0 50
15e-7 .0072485 0 0 0 5015e-7 141 233 227 233 233 229 16 231 42 235 ?99 236 225 2
32 0 0 1 30 234 229 0 1 232 237 238 +.0072485 0 5015e-7 0 0 -1 133 237 390 0 239
 234 240 0 +240 .0068315 0 7625e-7 .0069015 0 7905e-7 5.99795544803843 6.2831853
0717959 141 238 232 238 238 234 16 239 54 241 ?75 242 243 237 0 0 1 31 240 241 0
 1 237 244 245 +.006964 0 .000532749999999994 0 1 0 -.235653982458182 0 .9718370
23657567 .00026521936675138 133 244 408 0 246 240 247 0 +247 .006306 0 7585e-7 .
0063185 0 689e-6 0 706151541809548e-19 141 245 237 245 245 240 16 246 72 248 ?37
 23 249 244 0 0 1 30 247 259 0 1 244 24 250 +.006306 0 7585e-7 .177015828188022
 0 -.984208004728121 133 24 412 0 11 247 251 0 +251 .0061415 0 8e-4 .0062575 0 8
e-4 0 116e-6 141 250 244 250 250 247 30 251 262 0 1 24 252 253 +.0061415 0 8e-4
 1 0 0 133 252 460 0 192 251 254 0 +254 .0063975 -902779661431517e-50 618e-6 .00
63315 -1805559322863035e-50 559e-6 0 .3437147602049635 141 253 24 253 253 251 16
 192 12 255 ?159 256 177 252 0 0 1 31 254 461 0 1 252 257 258 +.0065344606931127
9 1561536935938215e-35 .000398374478890776 4080918713759885e-32 -1 -456509551030
762e-31 -.529150589203271 -603303160151133e-31 .848527933509458 .000258831221031
071 133 257 464 0 256 254 259 0 +259 .006475 0 64e-5 .0063975 3009265538105055e-
51 618e-6 991831583707703e-48 .557494306688353 141 258 252 258 258 254 16 256 14
 260 ?155 199 192 257 0 0 1 31 259 465 0 1 257 261 262 +.00647468487968913 86181
5724996358e-35 .000493604401095106 1672140723860945e-32 -1 -589049573178287e-31
 .002152520862610875 -588688276762113e-31 .999997683324285 .0001463959380568088
 133 261 468 0 199 259 263 0 +263 .006568 1128474576789396e-50 6045e-7 .006475 1
50463276905253e-50 64e-5 -888178419700125e-30 .863327157673815 141 262 257 262 2
62 259 16 199 16 264 ?151 195 256 261 0 0 1 31 263 469 0 1 261 265 266 +.0064829
6632445053 661627170932515e-35 .000521302624616888 -218367909474531e-31 -1 -5720
6241073609e-30 .714782516483983 -556155583252666e-31 .699346805332536 .000118964
4032813626 133 265 472 0 219 263 267 0 +267 .006801 -1203706215242022e-50 5555e-
7 .0067905 -150463276905253e-49 4915e-7 -888178419700125e-30 .3633461197891485 1
41 266 261 266 266 263 16 219 26 268 ?131 269 214 265 0 0 1 31 267 473 0 1 265 2
70 271 +.00696994846689739 1080918005896282e-35 .000494920564024647 604245311459
658e-31 -1 -991339964113509e-32 -.941316385246799 -602246264049513e-31 .33752549
9578773 .000179481064544622 133 270 476 0 269 267 272 0 +272 .006831 75231638452
6264e-50 602e-6 .006801 902779661431517e-50 5555e-7 622556609848861e-30 .4269043
01968644 141 271 265 271 271 267 16 269 28 273 ?127 274 219 270 0 0 1 31 272 477
 0 1 270 275 276 +.00692326440830182 781634762954564e-35 .000509547155934311 514
533300291033e-31 -1 -331956967929704e-31 -.70638507220365 -598426997613636e-31 .
707827754307391 .000130614889714453 133 275 480 0 274 272 277 0 +277 .0068745 -9
02779661431517e-50 63e-5 .006831 -150463276905253e-49 602e-6 0 .4056652259564125
 141 276 270 276 276 272 16 274 30 278 ?123 279 269 275 0 0 1 31 277 481 0 1 275
 280 281 +.00692082327228044 770127785286351e-35 .000510243309135739 33141758416
8966e-31 -1 -514880889691073e-31 -.360762748547053 -599770704604682e-31 .9326576
21670877 .000128403701510222 133 280 484 0 279 277 282 0 +282 .006929 1504632769
05253e-50 64e-5 .0068745 -601853107621011e-50 63e-5 700098722771884e-48 .3827207
857636195 141 281 275 281 281 277 16 279 32 283 ?119 284 274 280 0 0 1 31 282 48
5 0 1 280 285 286 +.00692755899358473 875666621660637e-35 .000494340984963229 11
05080679447064e-32 -1 -602268970298647e-31 .00989252812959414 -601146295749979e-
31 .99995106774642 .000145666142809409 133 285 488 0 284 282 287 0 +287 .0070255
 2858802261199805e-50 6025e-7 .006929 270833898429455e-49 64e-5 -888178419700125
e-30 .870015205460025 141 286 280 286 286 282 16 284 34 288 ?115 226 279 285 0 0
 1 31 287 489 0 1 285 289 290 +.00693690103146039 682101542419228e-35 .000517418
654291408 -2217916121145515e-32 -1 -570743748508114e-31 .721280201932094 -555295
785451938e-31 .692643393313469 .0001228357139184996 133 289 492 0 226 287 291 0
 +291 .0070585 -1354169492147274e-50 4915e-7 .0070255 -1805559322863035e-50 6025
e-7 1235930594858062e-48 .719845569556612 141 290 285 290 290 287 16 226 36 292
 ?111 222 284 289 0 0 1 31 291 493 0 1 289 293 294 +.0068945170552248 9421370147
54966e-35 .000503153719120888 -586934240291755e-31 -1 -1744939633299815e-32 .997
484290512734 -573088178784059e-31 -.070887870473781 .000164396518656855 133 293
 496 0 236 291 295 0 +295 .0072305 -361111864572607e-49 628e-6 .0072485 -3611118
64572607e-49 5015e-7 264030152932367e-30 .3124311189585595 141 294 289 294 294 2
91 16 236 44 296 ?95 297 231 293 0 0 1 31 295 497 0 1 293 298 299 +.006837909670
00294 2483801005415725e-35 .000507606711937179 60621706884151e-30 1 862601362778
424e-32 .956054945280761 -604867224910721e-31 .293187553631122 .0004106357400638
36 133 298 500 0 297 295 300 0 +300 .0071775 1203706215242022e-50 7215e-7 .00723
05 210648587667354e-49 628e-6 3254084406203525e-31 .4334884138113315 141 299 293
 299 299 295 16 297 46 301 ?91 302 236 298 0 0 1 31 300 501 0 1 298 303 304 +.00
699169618364334 149431287342143e-34 .000554406660247026 532694208724038e-31 1 30
1955006014696e-31 .743552960586353 -5979967380982e-29 .668677048210322 .00024988
6458941861 133 303 504 0 302 300 305 0 +305 .0070925 -2407412430484045e-50 78e-5
 .0071775 150463276905253e-50 7215e-7 845937998994718e-48 .468153458596002 141 3
04 298 304 304 300 16 302 48 306 ?87 307 297 303 0 0 1 31 305 505 0 1 303 308 30
9 +.00701233160287317 132487957927142e-34 .000572513867422548 3471506608841955e-
32 1 504406943165071e-31 .3604121897151025 -595624669305263e-31 .932793146150187
 .0002224353099438885 133 308 508 0 307 305 310 0 +310 .0069765 0 8e-4 .0070925
 -3009265538105055e-51 78e-5 689844907177498e-48 .3768315804517425 141 309 303 3
09 309 305 16 307 50 311 ?83 243 302 308 0 0 1 31 310 509 0 1 308 312 313 +.0069
8205543608671 1890036869870445e-35 .000485821529302914 1040379807270432e-32 1 60
3420288216848e-31 -.0176796575983911 -601486619341846e-31 .999843702639169 .0003
142275836391085 133 312 512 0 243 310 314 0 +314 .0069015 -2407412430484045e-50
 7905e-7 .0069765 0 8e-4 461769569443258e-48 .2488778617621815 141 313 308 313 3
13 310 16 243 52 315 ?79 239 307 312 0 0 1 31 314 513 0 1 312 316 317 +.00697697
410204695 185038619664198e-34 .000495454457524089 -769461412110436e-32 1 6074695
35876652e-31 -.247825037853424 -607588585738982e-31 .968804805217722 .0003045459
11505471 133 316 516 0 242 314 318 0 +318 .0067705 150463276905253e-49 713e-6 .0
068315 902779661431517e-50 7625e-7 0 .3067347352847735 141 317 312 317 317 314 1
6 242 56 319 ?71 320 239 316 0 0 1 31 318 517 0 1 316 321 322 +.0069611099543949
4 1555895988426515e-35 .00054044278347291 -385833102263136e-31 1 475471095718204
e-31 -.741341108550181 -605136106616445e-31 .671128423458275 .000257115047576014
 133 321 520 0 320 318 323 0 +323 .0067245 150463276905253e-49 64e-5 .0067705 12
03706215242022e-50 713e-6 0 .323857981709181 141 322 316 322 322 318 16 320 58 3
24 ?67 325 242 321 0 0 1 31 323 521 0 1 321 326 327 +.00697093385577545 16171091
22726835e-35 .000535706063483961 -518049626750039e-31 1 3264422305548255e-32 -.9
20922376181995 -604313060460397e-31 .3897460417339835 .0002675946009663995 133 3
26 524 0 325 323 328 0 +328 .006653 -3009265538105055e-51 756e-6 .0067245 0 64e-
5 0 .525394509144165 141 327 321 327 327 323 16 325 60 329 ?63 330 320 326 0 0 1
 31 328 525 0 1 326 331 332 +.00647306586225777 155140990818152e-34 .00056505675
9926125 521258749602575e-31 1 321293108591244e-31 .685814983229964 -591316452515
833e-31 .727775933084685 .0002623654223691635 133 331 528 0 330 328 333 0 +333 .
0065305 -150463276905253e-50 8e-4 .006653 451389830715758e-50 756e-6 48332779282
799e-31 .760950156542174 141 332 326 332 332 328 16 330 62 334 ?59 335 325 331 0
 0 1 31 333 529 0 1 331 336 337 +.00653674500744416 996358964842107e-35 .0006248
61100270678 2069893446834555e-32 1 57627715281189e-30 -.03563480823225265 -56853
512121641e-30 .999364878531485 .000175250204896814 133 336 532 0 335 333 338 0 +
338 .0064655 601853107621011e-50 7915e-7 .0065305 3009265538105055e-51 8e-4 0 .2
80330489779421 141 337 331 337 337 333 16 335 64 339 ?55 340 330 336 0 0 1 31 33
8 533 0 1 336 341 342 +.0065281225259451 1422488053001404e-35 .00056540127218454
6 -793970692219968e-32 1 607154058756443e-31 -.266920929352138 -606318297400408e
-31 .963718432673045 .000234610774423323 133 341 536 0 340 338 343 0 +343 .00641
 1203706215242022e-50 7685e-7 .0064655 1805559322863035e-50 7915e-7 154491546330
4e-28 .228780607768386 141 342 336 342 342 338 16 340 66 344 ?51 345 335 341 0 0
 1 31 343 537 0 1 341 346 347 +.00653784411716378 160092156966848e-34 .000538468
543365655 -2344229946167375e-32 1 565672878314301e-31 -.485784806588223 -6083215
96908517e-31 .874078441381575 .0002631702668135315 133 346 540 0 345 343 348 0 +
348 .0063615 0 7335e-7 .00641 0 7685e-7 393262026865025e-48 .211343137882909 141
 347 341 347 347 343 16 345 68 349 ?47 249 340 346 0 0 1 31 348 541 0 1 346 350
 351 +.0065507405819469 17264206110805e-33 .000522370193587875 -3583226441658685
e-32 1 49653280691556e-30 -.667450744946069 -608907831027117e-31 .74465394853645
8 .0002835274113930095 133 350 544 0 249 348 352 0 +352 .0063185 902779661431517
e-50 689e-6 .0063615 902779661431517e-50 7335e-7 0 .1474623888031894 141 351 346
 351 351 348 16 249 70 353 ?43 246 345 350 0 0 1 31 352 545 0 1 350 18 354 +.006
64122482643374 2564888370379035e-35 .0004201788194011125 -440335810947841e-31 1
 4254930308035275e-32 -.768357292053231 -610659769953555e-31 .640021149454161 .0
004200192147214985 133 18 548 0 23 352 8 0 +8 .0062575 1128474576789396e-51 8e-4
 .006306 161748022673147e-49 7585e-7 1853229374790795e-48 1.41930628090646 141 3
54 350 354 354 352 16 23 74 355 ?32 11 246 18 0 0 1 81 1 355 587 27 23 0 0 21 24
8 356 80 7 CCCCCDI12 legal_owners0 17 1 lCZ1 27 357 358 9000 0 0 0 0 3 5 0 0 0 F
FTFTFTTFFFFFFFFF2 81 1 21 586 27 11 0 0 168 355 359 81 1 248 588 27 246 0 0 355
 353 360 83 255 1 356 125 81 1 353 589 27 249 0 0 248 349 361 83 1 360 126 81 1
 349 590 27 345 0 0 353 344 362 83 1 361 127 81 1 344 591 27 340 0 0 349 339 363
 83 1 362 128 81 1 339 592 27 335 0 0 344 334 364 83 1 363 129 81 1 334 593 27 3
30 0 0 339 329 365 83 1 364 130 81 1 329 594 27 325 0 0 334 324 366 83 1 365 131
 81 1 324 595 27 320 0 0 329 319 367 83 1 366 132 81 1 319 596 27 242 0 0 324 24
1 368 83 1 367 133 81 1 241 597 27 239 0 0 319 315 369 83 1 368 134 81 1 315 598
 27 243 0 0 241 311 370 83 1 369 135 81 1 311 599 27 307 0 0 315 306 371 83 1 37
0 136 81 1 306 600 27 302 0 0 311 301 372 83 1 371 137 81 1 301 601 27 297 0 0 3
06 296 373 83 1 372 138 81 1 296 602 27 236 0 0 301 235 374 83 1 373 139 81 1 23
5 603 27 231 0 0 296 230 375 83 1 374 140 81 1 230 604 27 225 0 0 235 224 376 83
 1 375 141 81 1 224 605 27 222 0 0 230 292 377 83 1 376 142 81 1 292 606 27 226
 0 0 224 288 378 83 1 377 143 81 1 288 607 27 284 0 0 292 283 379 83 1 378 144 8
1 1 283 608 27 279 0 0 288 278 380 83 1 379 145 81 1 278 609 27 274 0 0 283 273
 381 83 1 380 146 81 1 273 610 27 269 0 0 278 268 382 83 1 381 147 81 1 268 611
 27 219 0 0 273 218 383 83 1 382 148 81 1 218 612 27 214 0 0 268 213 384 83 1 38
3 149 81 1 213 613 27 209 0 0 218 208 385 83 1 384 150 81 1 208 614 27 198 0 0 2
13 197 386 83 1 385 151 81 1 197 615 27 195 0 0 208 264 387 83 1 386 152 81 1 26
4 616 27 199 0 0 197 260 388 83 1 387 153 81 1 260 617 27 256 0 0 264 255 389 83
 1 388 154 81 1 255 618 27 192 0 0 260 191 390 83 1 389 155 81 1 191 619 27 177
 0 0 255 176 391 83 1 390 156 81 1 176 620 27 172 0 0 191 181 392 83 1 391 157 8
3 1 392 158 83 1 359 124 79 255 13 358 BTI/importTag17 43 0 0 0 0 38 393 249 0 3
94 +17 393 0 174 36 394 33 43 249 0 0 -17 394 0 174 393 395 38 47 345 0 0 -17 39
5 0 174 394 396 44 51 340 0 0 -17 47 0 0 0 0 44 394 345 0 395 +17 396 0 174 395
 397 48 55 335 0 0 -17 51 0 0 0 0 48 395 340 0 396 +17 397 0 174 396 398 52 59 3
30 0 0 -17 55 0 0 0 0 52 396 335 0 397 +17 398 0 174 397 399 56 63 325 0 0 -17 5
9 0 0 0 0 56 397 330 0 398 +17 399 0 174 398 400 60 67 320 0 0 -17 63 0 0 0 0 60
 398 325 0 399 +17 400 0 174 399 401 64 71 242 0 0 -17 67 0 0 0 0 64 399 320 0 4
00 +17 401 0 174 400 402 68 75 239 0 0 -17 71 0 0 0 0 68 400 242 0 401 +17 402 0
 174 401 403 72 79 243 0 0 -17 75 0 0 0 0 72 401 239 0 402 +17 403 0 174 402 404
 76 83 307 0 0 -17 79 0 0 0 0 76 402 243 0 403 +17 404 0 174 403 405 80 87 302 0
 0 -17 83 0 0 0 0 80 403 307 0 404 +17 405 0 174 404 406 84 91 297 0 0 -17 87 0
 0 0 0 84 404 302 0 405 +17 406 0 174 405 407 88 95 236 0 0 -17 91 0 0 0 0 88 40
5 297 0 406 +17 407 0 174 406 408 92 99 231 0 0 -17 95 0 0 0 0 92 406 236 0 407
 +17 408 0 174 407 409 96 103 225 0 0 -17 99 0 0 0 0 96 407 231 0 408 +17 409 0
 174 408 410 100 107 222 0 0 -17 103 0 0 0 0 100 408 225 0 409 +17 410 0 174 409
 411 104 111 226 0 0 -17 107 0 0 0 0 104 409 222 0 410 +17 411 0 174 410 412 108
 115 284 0 0 -17 111 0 0 0 0 108 410 226 0 411 +17 412 0 174 411 413 112 119 279
 0 0 -17 115 0 0 0 0 112 411 284 0 412 +17 413 0 174 412 414 116 123 274 0 0 -17
 119 0 0 0 0 116 412 279 0 413 +17 414 0 174 413 415 120 127 269 0 0 -17 123 0 0
 0 0 120 413 274 0 414 +17 415 0 174 414 416 124 131 219 0 0 -17 127 0 0 0 0 124
 414 269 0 415 +17 416 0 174 415 417 128 135 214 0 0 -17 131 0 0 0 0 128 415 219
 0 416 +17 417 0 174 416 418 132 139 209 0 0 -17 135 0 0 0 0 132 416 214 0 417 +
17 418 0 174 417 419 136 143 198 0 0 -17 139 0 0 0 0 136 417 209 0 418 +17 419 0
 174 418 420 140 147 195 0 0 -17 143 0 0 0 0 140 418 198 0 419 +17 420 0 174 419
 421 144 151 199 0 0 -17 147 0 0 0 0 144 419 195 0 420 +17 421 0 174 420 422 148
 155 256 0 0 -17 151 0 0 0 0 148 420 199 0 421 +17 422 0 174 421 175 152 159 192
 0 0 -17 155 0 0 0 0 152 421 256 0 422 +17 175 0 174 422 171 156 163 177 0 0 -17
 159 0 0 0 0 156 422 192 0 175 +17 163 0 0 0 0 160 175 177 0 171 +17 36 0 174 31
 393 26 37 246 0 0 -17 31 0 174 30 36 12 32 23 0 0 -17 37 0 0 0 0 33 36 246 0 39
3 +81 1 183 622 27 17 0 0 181 14 423 83 1 184 159 14 255 17 3 183 ?0 0 174 6 7 +
0 0 0 0 6 81 1 14 623 27 1 424 2 183 0 425 83 1 423 160 81 1 424 456 426 1 427 1
4 0 0 428 83 1 425 161 80 1 426 429 430 9000 0 0 0 0 3 5 0 0 0 TTTFFFFFFFFFFFFFF
1 81 1 427 341 431 1 432 424 0 0 433 82 255 1 428 0 80 1 431 434 435 8038 0 0 0
 0 0 0 0 0 0 TTTTTTTTTTTTTFTFT10 81 1 432 340 434 1 0 427 0 0 436 98 255 19 433
 72 67 45 48 52 83 104 97 112 101 83 116 114 105 110 103 48 49 50 80 1 434 437 4
38 8017 0 0 0 0 0 0 0 0 0 TTTTTTTTTTTTTFTFT3 84 255 19 436 HC-04ShapeString01279
 13 438 SDL/TYSA_NAME79 14 435 SDL/TYSA_UNAME79 23 430 ONSHAPE_ORIGINALBODY_ID81
 1 166 584 27 164 0 0 162 168 439 83 1 170 123 81 1 162 583 27 160 0 0 158 166 4
40 83 1 439 122 81 1 158 582 27 156 0 0 154 162 441 83 1 440 121 81 1 154 581 27
 152 0 0 150 158 442 83 1 441 120 81 1 150 580 27 148 0 0 146 154 443 83 1 442 1
19 81 1 146 579 27 144 0 0 142 150 444 83 1 443 118 81 1 142 578 27 140 0 0 138
 146 445 83 1 444 117 81 1 138 577 27 136 0 0 134 142 446 83 1 445 116 81 1 134
 576 27 132 0 0 130 138 447 83 1 446 115 81 1 130 575 27 128 0 0 126 134 448 83
 1 447 114 81 1 126 574 27 124 0 0 122 130 449 83 1 448 113 81 1 122 573 27 120
 0 0 118 126 450 83 1 449 112 81 1 118 572 27 116 0 0 114 122 451 83 1 450 111 8
1 1 114 571 27 112 0 0 110 118 452 83 1 451 110 81 1 110 570 27 108 0 0 106 114
 453 83 1 452 109 81 1 106 569 27 104 0 0 102 110 454 83 1 453 108 81 1 102 568
 27 100 0 0 98 106 455 83 1 454 107 81 1 98 567 27 96 0 0 94 102 456 83 1 455 10
6 81 1 94 566 27 92 0 0 90 98 457 83 1 456 105 81 1 90 565 27 88 0 0 86 94 458 8
3 1 457 104 81 1 86 564 27 84 0 0 82 90 459 83 1 458 103 81 1 82 563 27 80 0 0 7
8 86 460 83 1 459 102 81 1 78 562 27 76 0 0 74 82 461 83 1 460 101 81 1 74 561 2
7 72 0 0 70 78 462 83 1 461 1e2 81 1 70 560 27 68 0 0 66 74 463 83 1 462 99 81 1
 66 559 27 64 0 0 62 70 464 83 1 463 98 81 1 62 558 27 60 0 0 58 66 465 83 1 464
 97 81 1 58 557 27 56 0 0 54 62 466 83 1 465 96 81 1 54 556 27 52 0 0 50 58 467
 83 1 466 95 81 1 50 555 27 48 0 0 46 54 468 83 1 467 94 81 1 46 554 27 44 0 0 4
2 50 469 83 1 468 93 81 1 42 553 27 38 0 0 34 46 470 83 1 469 92 81 1 34 552 27
 33 0 0 28 42 471 83 1 470 91 83 1 471 90 83 1 35 89 83 1 29 88 141 19 18 19 19
 8 74 4 CI16 index_map_offset0 0 1 dCCZ20 16 5 0 0 432 427 424 14 2 0 0 0 0 0 0
 0 0 0 0 0 0 0 0 0 80 1 13 27 472 9000 0 0 0 0 3 5 0 0 0 FFTFTFTTFFFFFFFFF2 83 1
 15 17325 79 18 472 BTI/importMaxCount1 0 
