**ABCDEFGHIJKLMNOPQRSTUVWXYZabcdefghijklmnopqrstuvwxyz**************************
**PARASOLID !"#$%&'()*+,-./:;<=>?@[\]^_`{|}~0123456789**************************
**PART1;
MC=unknown;
MC_MODEL=unknown;
MC_ID=unknown;
OS=unknown;
OS_RELEASE=unknown;
FRU=Parasolid 37.0.173;
APPL=Onshape;
SITE=unknown;
USER=unknown;
FORMAT=text;
GUISE=transmit;
KEY=BTGapi::writeModels_.xmt;
FILE=BTGapi::writeModels_.xmt;
DATE=2024-12-29T04:00:25 (UTC);
**PART2;
SCH=SCH_3700173_36001;
USFLD_SIZE=0;
**PART3;
**END_OF_HEADER*****************************************************************
T51 : TRANSMIT FILE created by modeller version 370017323 SCH_3700173_36001_1300
6231 0 12 36 CCCI7 lattice222 0 CCCI4 mesh1006 0 I8 polyline1008 0 CCCCCCCDI5 ow
ner1040 0 CCCI16 boundary_lattice222 0 CCCI13 boundary_mesh1006 0 I17 boundary_p
olyline1008 0 CCCA16 index_map_offset0 0 1 dA9 index_map82 0 A17 node_id_index_m
ap82 0 A20 schema_embedding_map82 0 A5 child12 0 A14 lowest_node_id0 0 1 dA16 me
sh_offset_data206 0 Z1 512 2 3 0 0 0 0 0 0 0 1e3 1e-8 0 4 5 1 0 1 2 6 0 7 8 9 0
 0 10 11 12 0 0 0 0 0 0 0 81 255 1 2 512 13 1 14 0 0 0 15 70 11 CI9 list_type0 0
 1 uI10 notransmit0 0 1 lCCCDCCDI12 finger_index0 0 1 dI12 finger_block1012 0 CZ
3 0 4 T1 0 0 6 20 1 16 16 13 255 6 64 0 1 0 17 0 0 18 0 50 255 7 364 0 19 20 0 0
 +.008306811 1166544656409e-31 952556e-9 -1 0 0 0 1224646799147e-28 1 30 255 8 4
00 0 21 22 0 0 +.008306811 3121189941413e-31 .002548645 0 -1 1224646799147e-28 2
9 255 9 363 0 23 24 0 .008306811 -1e-5 .002248645 19 9 CCCCCCI5 frame230 0 CA5 o
wner12 0 Z10 1 0 1 18 0 25 0 V0 16 255 11 58 26 ?27 0 28 29 0 0 1 18 255 12 53 3
0 31 0 32 33 5e-7 1 81 1 30 406 34 12 0 0 0 35 36 17 255 31 0 37 38 39 12 27 11
 0 40 -18 32 51 35 41 12 42 43 5e-7 1 29 33 220 0 12 44 43 .009168754 2753795901
669e-31 .002248645 29 44 212 0 45 46 33 .009168754 -1e-5 .001248645 29 43 218 0
 32 33 47 .009168754 -1e-5 .002248645 29 47 360 0 48 43 49 .008306811 2753795901
669e-31 .002248645 18 48 6 50 27 23 0 47 ?1 29 49 361 0 51 47 24 .008306811 3121
189941413035e-34 .002548645 18 51 11 52 53 54 55 49 ?1 29 24 362 0 55 49 9 .0083
06811 -1e-5 .002548645 18 55 9 56 57 51 23 24 ?1 81 1 56 419 34 55 0 0 52 58 59
 17 57 0 60 61 62 55 63 64 0 65 -18 23 7 58 66 55 48 9 ?1 81 1 58 420 34 23 0 0
 56 50 67 17 66 0 37 39 38 23 41 28 0 61 +15 255 37 56 0 38 68 0 17 39 0 37 31 6
6 48 69 70 0 0 -17 38 0 37 66 31 32 71 72 0 73 +17 41 0 60 74 61 32 66 28 0 38 -
16 28 57 75 ?66 11 76 77 0 0 1 17 61 0 60 41 57 23 78 79 0 69 -15 60 62 0 61 17
 0 17 78 0 80 81 69 55 61 79 0 0 +16 79 8 82 ?78 21 70 83 0 0 1 17 69 0 80 78 84
 23 39 70 0 0 +15 80 4 0 69 19 0 17 84 0 80 69 81 48 85 86 0 39 -16 70 5 87 ?69
 79 0 22 0 0 1 81 1 87 445 34 70 0 0 82 88 89 30 22 391 0 70 90 8 0 +.008306811
 2753795901668635e-34 .002248645 0 -1 1224646799147e-28 30 90 380 0 86 91 22 0 +
.008306811 2753795901669e-31 .002248645 0 1224646799147e-28 1 16 86 12 92 ?85 64
 21 90 0 0 1 30 91 189 0 1 93 90 94 +.008306811 -1e-5 .002548645 1 0 0 133 255 9
3 349 0 64 95 91 0 +91 .008306811 -1e-5 .002548645 .009491161 -1e-5 .002548645 0
 .00118435 141 255 94 93 94 94 91 16 64 15 96 ?63 97 86 93 0 0 1 30 95 195 0 1 9
8 93 99 +.009491161 -1e-5 .002548645 0 -1224646799147e-28 -1 133 98 347 0 100 10
1 95 0 +95 .009491161 -1e-5 .002548645 .009491161 -100000000000002e-19 952556e-9
 0 .001596089 141 99 98 99 99 95 16 100 22 102 ?103 104 105 98 0 0 1 30 101 201
 0 1 106 98 107 +.009491161 -1e-5 952556e-9 -1 0 0 133 106 345 0 108 83 101 0 +1
01 .009491161 -1e-5 952556e-9 .008306811 -1e-5 952556e-9 0 .00118435 141 107 106
 107 107 101 16 108 29 109 ?110 111 112 106 0 0 1 30 83 207 0 79 113 106 114 +.0
08306811 -1e-5 952556e-9 0 1224646799147e-28 1 133 113 343 0 115 116 83 0 +83 .0
08306811 -1e-5 952556e-9 .008306811 -1e-5 .001248645 0 296089e-9 141 114 113 114
 114 83 16 115 36 117 ?118 119 120 113 0 0 1 30 116 213 0 1 121 113 122 +.008306
811 -1e-5 .001248645 1 0 0 133 121 341 0 123 124 116 0 +116 .008306811 -1e-5 .00
1248645 .009168754 -1e-5 .001248645 0 861943e-9 141 122 121 122 122 116 16 123 4
3 125 ?126 127 128 121 0 0 1 30 124 219 0 1 129 121 130 +.009168754 -1e-5 .00124
8645 0 1224646799147e-28 1 133 129 339 0 131 132 124 0 +124 .009168754 -1e-5 .00
1248645 .009168754 -999999999999988e-20 .002248645 0 .001 141 130 129 130 130 12
4 16 131 50 133 ?73 72 134 129 0 0 1 30 132 224 0 1 77 129 135 +.009168754 -1e-5
 .002248645 -1 0 0 133 77 337 0 28 136 132 0 +132 .009168754 -1e-5 .002248645 .0
08306811 -1e-5 .002248645 0 861943e-9 141 135 77 135 135 132 30 136 225 0 1 29 7
7 137 +.009168754 2753795901669e-31 .002248645 -1 0 0 133 29 331 0 11 138 136 0
 +136 .009168754 2753795901669e-31 .002248645 .008306811 2753795901669e-31 .0022
48645 0 861943e-9 141 137 29 137 137 136 30 138 222 0 1 139 29 140 +.009168754 1
529149102521e-31 .001248645 0 1224646799147e-28 1 133 139 329 0 76 141 138 0 +13
8 .009168754 1529149102521e-31 .001248645 .009168754 2753795901668e-31 .00224864
5 0 .001 141 140 139 140 140 138 16 76 54 142 ?40 28 72 139 0 0 1 30 141 216 0 1
 143 139 144 +.008306811 1529149102521e-31 .001248645 1 0 0 133 143 327 0 134 14
5 141 0 +141 .008306811 1529149102521e-31 .001248645 .009168754 1529149102521e-3
1 .001248645 0 861943e-9 141 144 143 144 144 141 16 134 47 146 ?147 131 127 143
 0 0 1 30 145 210 0 1 148 143 149 +.008306811 1166544656409e-31 952556e-9 0 1224
646799147e-28 1 133 148 325 0 128 150 145 0 +145 .008306811 1166544656409e-31 95
2556e-9 .008306811 1529149102521635e-34 .001248645 0 296089e-9 141 149 148 149 1
49 145 16 128 40 151 ?152 123 119 148 0 0 1 30 150 204 0 1 153 148 154 +.0094911
61 1166544656409e-31 952556e-9 -1 0 0 133 153 323 0 120 155 150 0 +150 .00949116
1 1166544656409e-31 952556e-9 .008306811 1166544656409e-31 952556e-9 0 .00118435
 141 154 153 154 154 150 16 120 33 156 ?157 115 111 153 0 0 1 30 155 198 0 1 158
 153 159 +.009491161 3121189941413e-31 .002548645 0 -1224646799147e-28 -1 133 15
8 321 0 112 160 155 0 +155 .009491161 3121189941413e-31 .002548645 .009491161 11
66544656409264e-34 952556e-9 0 .001596089 141 159 158 159 159 155 16 112 26 161
 ?162 108 104 158 0 0 1 30 160 192 0 1 163 158 164 +.008306811 3121189941413e-31
 .002548645 1 0 0 133 163 319 0 105 165 160 0 +160 .008306811 3121189941413e-31
 .002548645 .009491161 3121189941413e-31 .002548645 0 .00118435 141 164 163 164
 164 160 16 105 19 166 ?167 100 97 163 0 0 1 30 165 221 0 1 168 163 169 +.009168
754 2753795901669e-31 .002248645 0 -1 1224646799147e-28 133 168 311 0 72 170 165
 0 +165 .009168754 2753795901669e-31 .002248645 .009168754 -1e-5 .002248645 0 10
00000000000028e-20 141 169 168 169 169 165 16 72 52 171 ?38 76 131 168 0 0 1 30
 170 215 0 1 172 168 173 +.009168754 1529149102521e-31 .001248645 0 -1 122464679
9147e-28 133 172 307 0 127 174 170 0 +170 .009168754 1529149102521e-31 .00124864
5 .009168754 -1e-5 .001248645 0 1000000000000014e-20 141 173 172 173 173 170 16
 127 45 175 ?176 134 123 172 0 0 1 30 174 209 0 1 177 172 178 +.008306811 152914
9102521e-31 .001248645 0 -1 1224646799147e-28 133 177 303 0 119 179 174 0 +174 .
008306811 1529149102521e-31 .001248645 .008306811 -1e-5 .001248645 0 10000000000
00014e-20 141 178 177 178 178 174 16 119 38 180 ?181 128 115 177 0 0 1 30 179 20
3 0 1 182 177 183 +.008306811 1166544656409e-31 952556e-9 0 -1 1224646799147e-28
 133 182 299 0 111 184 179 0 +179 .008306811 1166544656409e-31 952556e-9 .008306
811 -1e-5 952556e-9 0 1000000000000012e-20 141 183 182 183 183 179 16 111 31 185
 ?186 120 108 182 0 0 1 30 184 197 0 1 187 182 188 +.009491161 1166544656409e-31
 952556e-9 0 -1 1224646799147e-28 133 187 295 0 104 189 184 0 +184 .009491161 11
66544656409e-31 952556e-9 .009491161 -1e-5 952556e-9 0 1000000000000012e-20 141
 188 187 188 188 184 16 104 24 190 ?191 112 100 187 0 0 1 30 189 191 0 1 192 187
 193 +.009491161 3121189941413e-31 .002548645 0 -1 1224646799147e-28 133 192 291
 0 97 0 189 0 +189 .009491161 3121189941413e-31 .002548645 .009491161 -1e-5 .002
548645 0 100000000000003e-19 141 193 192 193 193 189 16 97 17 194 ?195 105 64 19
2 0 0 1 81 1 194 440 34 97 0 0 166 96 196 17 195 0 197 103 198 54 199 97 0 63 +1
5 197 21 0 195 200 0 17 103 0 197 201 195 202 62 100 0 0 +17 198 0 197 195 201 2
03 162 112 0 167 -18 54 16 204 62 203 51 205 5e-7 1 17 199 0 206 53 63 203 195 9
7 0 0 -17 63 0 206 199 65 54 57 64 0 0 +15 206 14 0 65 207 0 17 65 0 206 63 53 5
5 81 21 0 78 +17 53 0 206 65 199 51 167 105 0 85 -17 81 0 80 84 78 51 65 21 0 0
 -16 21 10 208 ?65 86 79 8 0 0 1 81 1 208 443 34 21 0 0 92 82 209 80 7 CCCCCDI12
 legal_owners0 17 1 lCZ1 34 210 211 9000 0 0 0 0 3 5 0 0 0 FFTFTFTTFFFFFFFFF2 81
 1 92 442 34 86 0 0 96 208 212 81 1 82 444 34 79 0 0 208 87 213 83 255 1 209 400
8 83 1 213 4009 81 1 96 441 34 64 0 0 194 92 214 83 1 212 4007 83 1 214 4006 79
 255 13 211 BTI/importTag17 167 0 215 162 85 203 53 105 0 199 +17 85 0 215 167 2
7 51 84 86 0 81 +15 215 60 0 85 216 0 17 27 0 215 85 40 48 31 11 0 84 +17 40 0 2
15 27 147 12 217 76 0 71 +17 147 0 215 40 152 42 218 134 0 219 +17 217 0 220 176
 71 42 40 76 0 147 -17 71 0 220 217 73 12 38 72 0 0 -15 220 49 0 176 221 0 17 73
 0 220 71 176 32 74 131 0 0 +17 176 0 220 73 217 45 219 127 0 126 +17 74 0 60 22
2 41 45 73 131 0 176 -17 222 0 60 223 74 224 126 123 0 181 -18 45 44 225 74 42 2
26 44 5e-7 1 81 1 225 409 34 45 0 0 227 228 229 18 42 46 227 217 32 45 46 5e-7 1
 18 226 39 228 218 45 224 230 5e-7 1 81 1 228 410 34 226 0 0 225 231 232 17 218
 0 233 181 219 226 147 134 0 152 -18 224 37 231 222 226 234 235 5e-7 1 29 230 20
8 0 226 236 235 .008306811 1529149102521e-31 .001248645 29 236 200 0 237 238 230
 .008306811 -1e-5 952556e-9 29 235 206 0 224 230 46 .008306811 -1e-5 .001248645
 29 46 214 0 42 235 44 .009168754 1529149102521e-31 .001248645 18 237 30 239 223
 234 240 236 5e-7 1 29 238 202 0 234 241 236 .008306811 1166544656409e-31 952556
e-9 18 234 32 242 243 224 237 238 5e-7 1 29 241 194 0 202 244 238 .009491161 -1e
-5 952556e-9 18 202 23 245 246 240 203 241 5e-7 1 29 244 196 0 240 205 241 .0094
91161 1166544656409e-31 952556e-9 18 240 25 247 248 237 202 244 5e-7 1 29 205 18
8 0 54 249 244 .009491161 -1e-5 .002548645 29 249 190 0 203 0 205 .009491161 312
1189941413e-31 .002548645 18 203 18 250 198 202 54 249 5e-7 1 81 1 250 416 34 20
3 0 0 245 204 251 81 1 245 415 34 202 0 0 247 250 252 81 1 204 417 34 54 0 0 250
 52 253 83 1 251 3981 81 1 52 418 34 51 0 0 204 56 254 83 1 253 3982 83 1 254 39
83 81 1 247 414 34 240 0 0 239 245 255 83 1 252 3980 81 1 239 413 34 237 0 0 242
 247 256 83 1 255 3979 81 1 242 412 34 234 0 0 231 239 257 83 1 256 3978 81 1 23
1 411 34 224 0 0 228 242 258 83 1 257 3977 83 1 258 3976 17 248 0 259 191 260 24
0 157 120 0 162 -15 259 28 0 191 261 0 17 191 0 259 110 248 202 201 104 0 103 +1
7 260 0 259 248 110 234 186 111 0 0 -17 157 0 215 152 162 234 248 120 0 260 +17
 162 0 215 157 167 240 198 112 0 201 +17 201 0 197 198 103 240 191 104 0 0 -17 1
52 0 215 147 157 226 243 128 0 262 +17 243 0 263 186 262 234 152 128 0 157 -17 2
62 0 263 243 118 226 181 119 0 0 -15 263 35 0 186 264 0 17 118 0 263 262 186 224
 223 115 0 0 +17 181 0 233 126 218 224 262 119 0 118 +15 233 42 0 181 265 0 17 1
26 0 233 219 181 45 222 123 0 0 +17 219 0 233 218 126 42 176 127 0 0 -14 255 265
 41 266 ?264 221 233 6 267 +0 0 264 221 25 81 1 266 450 34 265 0 0 268 269 270 1
4 264 34 269 ?261 265 263 6 7 +19 19 261 265 25 14 221 48 268 ?265 68 220 6 271
 +0 0 265 68 25 50 267 211 0 265 272 271 0 +.008306811 1529149102521e-31 .001248
645 0 1224646799147e-28 1 1 0 0 13 25 2 0 0 0 0 0 0 10 17 14 17 61 88 ?216 0 60
 6 20 +0 0 216 0 25 81 1 88 446 34 17 0 0 87 273 274 14 216 59 273 ?68 17 215 6
 275 -0 0 68 17 25 50 20 227 0 17 275 7 0 +.008306811 -1e-5 .002248645 0 -1 1224
646799147e-28 -1 0 0 50 275 226 0 216 276 20 0 +.008306811 2753795901669e-31 .00
2248645 0 -1 1224646799147e-28 -1 0 0 50 276 223 0 68 271 275 0 +.009168754 2753
795901669e-31 .002248645 0 -1224646799147e-28 -1 -1 0 0 14 68 55 277 ?221 216 37
 6 276 +0 0 221 216 25 50 271 217 0 221 267 276 0 +.009168754 1529149102521e-31
 .001248645 -1 0 0 0 1224646799147e-28 1 81 1 277 448 34 68 0 0 273 268 278 81 1
 273 447 34 216 0 0 88 277 279 81 1 268 449 34 221 0 0 277 266 280 83 1 278 4013
 83 1 280 4014 83 1 279 4012 83 1 274 4011 50 272 199 0 261 281 267 0 +.00949116
1 1166544656409e-31 952556e-9 0 -1224646799147e-28 -1 -1 0 0 14 261 27 282 ?200
 264 259 6 272 +0 0 200 264 25 50 281 193 0 200 283 272 0 +.009491161 3121189941
413e-31 .002548645 1 0 0 0 -1224646799147e-28 -1 14 200 20 284 ?207 261 197 6 28
1 +0 0 207 261 25 50 283 187 0 207 0 281 0 +.008306811 3121189941413e-31 .002548
645 0 1224646799147e-28 1 1 0 0 14 207 13 285 ?19 200 206 6 283 +0 0 19 200 25 8
1 1 285 454 34 207 0 0 284 286 287 14 19 3 286 ?0 207 80 6 7 +264 264 0 207 25 8
1 1 286 455 34 19 0 0 285 288 289 81 1 288 456 34 1 290 291 286 0 292 83 1 289 4
020 81 1 290 404 293 1 0 288 0 0 294 81 1 291 457 295 1 288 296 0 0 297 83 1 292
 4021 80 1 295 34 298 9000 0 0 0 0 3 5 0 0 0 FFTFTFTTFFFFFFFFF2 81 1 296 510 299
 1 291 14 0 0 300 83 1 297 17325 80 1 299 301 302 8040 0 0 0 0 3 5 0 0 0 TTTFFFF
FFFFFFFFFF2 81 1 14 511 303 1 296 2 0 0 304 83 3 300 1 1 1 80 1 303 13 305 8038
 0 0 0 0 0 0 0 0 0 TTTTTTTTTTTTTFTFT10 98 255 11 304 72 67 45 48 52 80 97 100 48
 48 57 79 14 305 SDL/TYSA_UNAME79 17 302 SDL/TYSA_COLOUR_279 18 298 BTI/importMa
xCount80 1 293 306 307 9000 0 0 0 0 3 5 0 0 0 TTTFFFFFFFFFFFFFF1 82 255 1 294 7
 79 23 307 ONSHAPE_ORIGINALBODY_ID81 1 284 453 34 200 0 0 282 285 308 83 1 287 4
019 81 1 282 452 34 261 0 0 269 284 309 83 1 308 4018 81 1 269 451 34 264 0 0 26
6 282 310 83 1 309 4017 83 1 310 4016 83 1 270 4015 17 186 0 263 118 243 237 260
 111 0 110 +17 223 0 60 246 222 237 118 115 0 186 -17 246 0 60 62 223 202 110 10
8 0 191 -17 62 0 60 57 246 54 103 100 0 195 -17 110 0 259 260 191 237 246 108 0
 0 +83 1 232 3975 81 1 227 408 34 42 0 0 35 225 311 81 1 35 407 34 32 0 0 30 227
 312 83 1 311 3973 83 1 312 3972 83 1 229 3974 81 1 166 439 34 105 0 0 102 194 3
13 83 1 196 4005 81 1 102 438 34 100 0 0 190 166 314 83 1 313 4004 81 1 190 437
 34 104 0 0 161 102 315 83 1 314 4003 81 1 161 436 34 112 0 0 109 190 316 83 1 3
15 4002 81 1 109 435 34 108 0 0 185 161 317 83 1 316 4001 81 1 185 434 34 111 0
 0 156 109 318 83 1 317 4e3 81 1 156 433 34 120 0 0 117 185 319 83 1 318 3999 81
 1 117 432 34 115 0 0 180 156 320 83 1 319 3998 81 1 180 431 34 119 0 0 151 117
 321 83 1 320 3997 81 1 151 430 34 128 0 0 125 180 322 83 1 321 3996 81 1 125 42
9 34 123 0 0 175 151 323 83 1 322 3995 81 1 175 428 34 127 0 0 146 125 324 83 1
 323 3994 81 1 146 427 34 134 0 0 133 175 325 83 1 324 3993 81 1 133 426 34 131
 0 0 171 146 326 83 1 325 3992 81 1 171 425 34 72 0 0 142 133 327 83 1 326 3991
 81 1 142 424 34 76 0 0 75 171 328 83 1 327 3990 81 1 75 423 34 28 0 0 26 142 32
9 83 1 328 3989 81 1 26 422 34 11 0 0 50 75 330 83 1 329 3988 81 1 50 421 34 48
 0 0 58 26 331 83 1 330 3987 83 1 331 3986 83 1 89 4010 83 1 67 3985 83 1 59 398
4 83 1 36 3971 19 18 63 0 1 0 10 6 0 S0 74 4 CI16 index_map_offset0 0 1 dCCZ20 1
6 6 0 0 290 288 291 296 14 2 0 0 0 0 0 0 0 0 0 0 0 0 0 0 80 1 13 332 333 8017 0
 0 0 0 0 0 0 0 0 TTTTTTTTTTTTTFTFT3 84 255 11 15 HC-04Pad00979 13 333 SDL/TYSA_N
AME1 0 
