**ABCDEFGHIJKLMNOPQRSTUVWXYZabcdefghijklmnopqrstuvwxyz**************************
**PARASOLID !"#$%&'()*+,-./:;<=>?@[\]^_`{|}~0123456789**************************
**PART1;
MC=unknown;
MC_MODEL=unknown;
MC_ID=unknown;
OS=unknown;
OS_RELEASE=unknown;
FRU=Parasolid 37.0.173;
APPL=Onshape;
SITE=unknown;
USER=unknown;
FORMAT=text;
GUISE=transmit;
KEY=BTGapi::writeModels_.xmt;
FILE=BTGapi::writeModels_.xmt;
DATE=2024-12-29T04:00:28 (UTC);
**PART2;
SCH=SCH_3700173_36001;
USFLD_SIZE=0;
**PART3;
**END_OF_HEADER*****************************************************************
T51 : TRANSMIT FILE created by modeller version 370017323 SCH_3700173_36001_1300
6231 0 12 36 CCCI7 lattice222 0 CCCI4 mesh1006 0 I8 polyline1008 0 CCCCCCCDI5 ow
ner1040 0 CCCI16 boundary_lattice222 0 CCCI13 boundary_mesh1006 0 I17 boundary_p
olyline1008 0 CCCA16 index_map_offset0 0 1 dA9 index_map82 0 A17 node_id_index_m
ap82 0 A20 schema_embedding_map82 0 A5 child12 0 A14 lowest_node_id0 0 1 dA16 me
sh_offset_data206 0 Z1 865 2 3 0 0 0 0 0 0 0 1e3 1e-8 0 4 5 1 0 3 2 6 0 7 8 9 0
 0 10 11 12 0 0 0 0 0 0 0 81 255 1 2 776 13 1 14 0 0 0 15 70 11 CI9 list_type0 0
 1 uI10 notransmit0 0 1 lCCCDCCDI12 finger_index0 0 1 dI12 finger_block1012 0 CZ
3 0 4 T1 0 0 5 20 1 16 16 13 255 6 2 0 1 0 17 0 0 10 17 50 255 7 227 0 17 0 0 0
 +.0074035 0 678e-6 0 -1 0 1 0 0 31 255 8 687 0 1 18 0 19 +.00773565641864412 19
33405518259395e-35 .000478114120113304 1097503556195982e-32 1 602407507512013e-3
1 -.0160173448743614 -600572317828481e-31 .999871714102952 .000321927178603587 2
9 255 9 311 0 12 20 0 .0076095 0 3135e-7 19 9 CCCCCCI5 frame230 0 CA5 owner12 0
 Z10 1 0 1 0 0 6 0 V0 16 255 11 91 21 ?22 0 23 24 0 0 1 18 255 12 90 25 22 0 26
 9 5e-7 1 81 1 25 688 27 12 0 0 0 28 29 17 255 22 0 0 0 0 12 30 11 0 31 +18 26 8
8 28 32 12 33 20 5e-7 1 81 1 28 689 27 26 0 0 25 34 35 17 32 0 0 0 0 26 31 23 0
 36 +18 33 86 34 37 26 38 39 5e-7 1 29 20 309 0 26 39 9 .0075615 0 274e-6 29 39
 307 0 33 40 20 .007547 0 225e-6 29 40 305 0 38 41 39 .0075765 0 1505e-7 18 38 8
4 42 43 33 44 40 5e-7 1 29 41 303 0 44 45 40 .0076535 0 128e-6 18 44 82 46 47 38
 48 41 5e-7 1 29 45 301 0 48 49 41 .0077545 0 1495e-7 18 48 80 50 51 44 52 45 5e
-7 1 29 49 299 0 52 53 45 .007838 0 2155e-7 18 52 78 54 55 48 56 49 5e-7 1 29 53
 297 0 56 57 49 .0076995 0 341e-6 18 56 76 58 30 52 59 53 5e-7 1 29 57 296 0 59
 60 53 .007838 0 352e-6 18 59 75 61 62 56 63 57 5e-7 1 29 60 293 0 63 64 57 .007
854 0 7775e-7 18 63 71 65 66 59 67 60 5e-7 1 29 64 291 0 67 68 60 .007946 0 7145
e-7 18 67 69 69 70 63 71 64 5e-7 1 29 68 289 0 71 72 64 .0080035 0 6185e-7 18 71
 67 73 74 67 75 68 5e-7 1 29 72 287 0 75 76 68 .008023 0 496e-6 18 75 65 77 78 7
1 79 72 5e-7 1 29 76 285 0 79 80 72 .008023 0 0 18 79 63 81 82 75 83 76 5e-7 1 2
9 80 283 0 83 84 76 .007937 0 0 18 83 61 85 86 79 87 80 5e-7 1 29 84 281 0 87 88
 80 .0078955 0 85e-7 18 87 59 89 90 83 91 84 5e-7 1 29 88 279 0 91 92 84 .007872
5 0 44e-6 18 91 57 93 94 87 95 88 5e-7 1 29 92 277 0 95 96 88 .0078555 0 105e-6
 18 95 55 97 98 91 99 92 5e-7 1 29 96 275 0 99 100 92 .007797 0 6e-5 18 99 53 10
1 102 95 103 96 5e-7 1 29 100 273 0 103 104 96 .007738 0 27e-6 18 103 51 105 106
 99 107 100 5e-7 1 29 104 271 0 107 108 100 .0076725 0 7e-6 18 107 49 109 110 10
3 111 104 5e-7 1 29 108 269 0 111 112 104 .0075955 0 0 18 111 47 113 114 107 115
 108 5e-7 1 29 112 267 0 115 116 108 .007503 0 14e-6 18 115 45 117 118 111 119 1
12 5e-7 1 29 116 265 0 119 120 112 .00743 0 56e-6 18 119 43 121 122 115 123 116
 5e-7 1 29 120 263 0 123 124 116 .0073825 0 1255e-7 18 123 41 125 126 119 127 12
0 5e-7 1 29 124 261 0 127 128 120 .0073655 0 222e-6 18 127 39 129 130 123 131 12
4 5e-7 1 29 128 259 0 131 132 124 .0073755 0 2835e-7 18 131 37 133 134 127 135 1
28 5e-7 1 29 132 257 0 135 136 128 .007408 0 3425e-7 18 135 35 137 138 131 139 1
32 5e-7 1 29 136 255 0 139 140 132 .007467 0 395e-6 18 139 33 141 142 135 143 13
6 5e-7 1 29 140 253 0 143 144 136 .0075555 0 4385e-7 18 143 31 145 146 139 147 1
40 5e-7 1 29 144 251 0 147 148 140 .007678 0 4685e-7 18 147 29 149 150 143 151 1
44 5e-7 1 29 148 249 0 151 152 144 .007838 0 48e-5 18 151 27 153 154 147 155 148
 5e-7 1 29 152 247 0 155 156 148 .007838 0 5165e-7 18 155 25 157 158 151 159 152
 5e-7 1 29 156 245 0 159 160 152 .007804 0 6095e-7 18 159 23 161 162 155 163 156
 5e-7 1 29 160 243 0 163 164 156 .0077065 0 64e-5 18 163 21 165 166 159 167 160
 5e-7 1 29 164 241 0 167 168 160 .00763 0 6315e-7 18 167 19 169 170 163 171 164
 5e-7 1 29 168 239 0 171 172 164 .007577 0 6125e-7 18 171 17 173 174 167 175 168
 5e-7 1 29 172 237 0 175 176 168 .007535 0 5935e-7 18 175 15 177 178 171 179 172
 5e-7 1 29 176 235 0 179 180 172 .007493 0 585e-6 18 179 13 181 182 175 183 176
 5e-7 1 29 180 233 0 183 184 176 .007459 0 595e-6 18 183 11 185 186 179 187 180
 5e-7 1 29 184 231 0 187 188 180 .007437 0 619e-6 18 187 9 189 190 183 191 184 5
e-7 1 29 188 229 0 191 192 184 .0077305 0 8e-4 18 191 7 193 194 187 195 188 5e-7
 1 29 192 228 0 195 0 188 .0074035 0 678e-6 18 195 6 196 197 191 0 192 5e-7 1 81
 1 196 730 27 195 0 0 193 21 198 17 197 0 0 0 0 195 199 200 0 201 +17 199 0 202
 203 201 187 197 200 0 0 -16 200 8 204 ?197 205 206 207 0 0 1 17 201 0 202 199 1
94 195 208 206 0 0 -15 255 202 4 0 201 17 0 17 194 0 202 201 209 191 66 210 0 20
8 -17 208 0 0 0 0 191 201 206 0 0 +16 206 5 211 ?208 200 0 212 0 0 1 81 1 211 77
3 27 206 0 0 204 213 214 133 255 212 578 0 206 215 216 0 +216 .0074035 -15046327
6905253e-49 678e-6 .0077305 0 8e-4 343186479149352e-30 .754257022740627 31 215 5
75 0 1 24 212 217 +.00775613499622802 212968990069114e-34 -537362401897346e-20 1
789322471364345e-32 -1 -585596445173782e-31 -.1613655712708155 -606795533403228e
-31 .986894701783551 .0003509732329021475 31 216 579 0 1 212 218 219 +.007721006
5894971 2697783836872295e-35 .000326211846183999 -214039470134538e-31 1 57369595
6836015e-31 -.670010147070829 -569292923391316e-31 .742351940000244 .00047388325
5179323 133 218 582 0 205 216 220 0 +220 .007459 -225694915357879e-50 595e-6 .00
7437 225694915357879e-50 619e-6 724130260624758e-30 .349699087938617 141 255 219
 212 219 219 216 16 205 10 221 ?190 222 200 218 0 0 1 31 220 583 0 1 218 223 224
 +.00751592960567784 564263087080099e-35 .000669268805204686 -451376729137534e-3
1 1 -4137620017093955e-32 -.608365505887218 -602987135318555e-31 -.7936569858865
91 935779644423096e-19 133 223 586 0 222 220 225 0 +225 .007493 1128474576789396
e-51 585e-6 .007459 -489005649942072e-50 595e-6 110409301287747e-47 .62975147316
2955 141 224 218 224 224 220 16 222 12 226 ?186 227 205 223 0 0 1 31 225 587 0 1
 223 228 229 +.00749135098530032 3331286091453095e-36 .000642193350021074 -17277
70427517075e-32 1 -587441945355828e-31 .0288203036339125 -582218440293039e-31 -.
999584608774289 572171175096483e-19 133 228 590 0 227 225 230 0 +230 .007535 -90
2779661431517e-50 5935e-7 .007493 -225694915357879e-50 585e-6 864470460615324e-3
0 .423677598681636 141 229 223 229 229 225 16 227 14 231 ?182 232 222 228 0 0 1
 31 230 591 0 1 228 233 234 +.00749423858176046 610022627583195e-35 .00068689465
4830689 1214601679672424e-32 1 -600156124073423e-31 .400005351202861 -5986354889
66828e-31 -.916512803516173 .0001019021823507356 133 233 594 0 232 230 235 0 +23
5 .007577 0 6125e-7 .007535 0 5935e-7 -2304886114323155e-20 2304886114323245e-20
 141 234 228 234 234 230 16 232 16 236 ?178 237 227 233 0 0 1 30 255 235 595 0 1
 233 238 239 +.007556 0 603e-6 -.911107922838354 0 -.4121678698554515 133 238 59
8 0 237 235 240 0 +240 .00763 601853107621011e-50 6315e-7 .007577 0 6125e-7 2816
43954332141e-48 .15080512494431 141 239 233 239 239 235 16 237 18 241 ?174 242 2
32 238 0 0 1 31 240 599 0 1 238 243 244 +.00772925154783621 228176138195155e-34
 .0002712193665621435 206635447886892e-31 -1 -576404144105547e-31 -.265590261436
9375 -610583527593229e-31 .964085998772858 .000373701758864294 133 243 602 0 242
 240 245 0 +245 .0077065 3009265538105055e-51 64e-5 .00763 3009265538105055e-51
 6315e-7 289788173555265e-32 .264100419644708 141 244 238 244 244 240 16 242 20
 246 ?170 247 237 243 0 0 1 31 245 603 0 1 243 248 249 +.00770024743839318 17742
01711319295e-35 .0003477730544614075 676198074662602e-32 -1 -608578267196332e-31
 .0213913569000632 -606992532118688e-31 .999771178745404 .000292293828579159 133
 248 606 0 247 245 250 0 +250 .007804 451389830715758e-50 6095e-7 .0077065 -1504
63276905253e-50 64e-5 0 .738103201557788 141 249 243 249 249 245 16 247 22 251 ?
166 252 242 248 0 0 1 31 250 607 0 1 248 253 254 +.00771582113557524 80867259338
269e-34 .000498706908806078 -182811392472608e-31 -1 -584397074297682e-31 .622731
143213264 -57109559285842e-30 .782435890838541 .0001416002160575536 133 253 610
 0 252 250 255 0 +255 .007838 -150463276905253e-50 5165e-7 .007804 -451389830715
758e-50 6095e-7 1422016898465736e-32 .857189431394349 141 254 248 254 254 250 16
 252 24 256 ?162 257 247 253 0 0 1 31 255 611 0 1 253 258 259 +.0077192319175668
2 663488344320857e-35 .000525794464486796 -575095548016462e-31 -1 -2102499852963
365e-32 .996951894054504 -556939160759737e-31 -.0780187217348356 .00011913120697
34464 133 258 614 0 260 255 261 0 +261 .007678 -1203706215242022e-50 4685e-7 .00
7838 0 48e-5 0 .160926334132702 141 259 253 259 259 255 16 260 28 262 ?154 263 2
57 258 0 0 1 31 261 615 0 1 258 264 265 +.00782930698099649 609051400782319e-34
 -.000517847126907687 -438975028151161e-32 1 61074786525379e-30 -.15162767474170
55 -610342279586848e-31 .98843768051022 .000997884991999238 133 264 618 0 263 26
1 266 0 +266 .0075555 1203706215242022e-50 4385e-7 .007678 1203706215242022e-50
 4685e-7 0 .170069578330674 141 265 258 265 265 261 16 263 30 267 ?150 268 260 2
64 0 0 1 31 266 619 0 1 264 269 270 +.00779272301209673 452990997519842e-34 -.00
02650564660616355 -1456525890257792e-32 1 594748071855262e-31 -.3195038027945955
 -610110903913031e-31 .947584993549282 .000742473203829863 133 269 622 0 268 266
 271 0 +271 .007467 -1203706215242022e-50 395e-6 .0075555 -902779661431517e-50 4
385e-7 218405381790892e-30 .2656459245143605 141 270 264 270 270 266 16 268 32 2
72 ?146 273 263 269 0 0 1 31 271 623 0 1 269 274 275 +.00767403770543664 2259679
47607477e-34 855612199737207e-19 -270107393892183e-31 1 549528835849619e-31 -.55
608508263533 -606930049544489e-31 .831125370128032 .0003723130001176735 133 274
 626 0 273 271 276 0 +276 .007408 1805559322863035e-50 3425e-7 .007467 210648587
667354e-49 395e-6 389323538941e-27 .2845529965718935 141 275 269 275 275 271 16
 273 34 277 ?142 278 268 274 0 0 1 31 276 627 0 1 274 279 280 +.0076207532994330
7 1687990240216315e-35 .0001628081968276055 -4070460864966005e-32 1 457442268634
269e-31 -.763970683316099 -606136337572842e-31 .645250955081457 .000278483591162
93 133 279 630 0 278 276 281 0 +281 .0073755 -25578757073893e-48 2835e-7 .007408
 -225694915357879e-49 3425e-7 330114306381829e-30 .3666598828997645 141 280 274
 280 280 276 16 278 36 282 ?138 283 273 279 0 0 1 31 281 631 0 1 279 284 285 +.0
0755085527124169 1112268831416236e-35 .0002253572658414415 -536335461980806e-31
 1 295439025667396e-31 -.94918391840588 -602062133774852e-31 .31472192335403 .00
01847431965937565 133 284 634 0 283 281 286 0 +286 .0073655 -25578757073893e-48
 222e-6 .0073755 -270833898429455e-49 2835e-7 586951902823895e-48 .3184460897570
195 141 285 279 285 285 281 16 283 38 287 ?134 288 278 284 0 0 1 31 286 635 0 1
 284 289 290 +.00756199050937653 1187940650927684e-35 .0002216133318086935 -6043
85758876241e-31 1 982741071343528e-32 -.999998063745323 -604577979130612e-31 .00
1967868289645565 .0001964908898329305 133 289 638 0 288 286 291 0 +291 .0073825
 -2407412430484045e-50 1255e-7 .0073655 -2407412430484045e-50 222e-6 42673611737
3634e-30 .3880985455229765 141 290 284 290 290 286 16 288 40 292 ?130 293 283 28
9 0 0 1 31 291 639 0 1 289 294 295 +.00761951936570467 152652241314937e-34 .0002
170021162381295 -603037445399893e-31 1 -1062345758735596e-32 -.932895417754975 -
600830974335557e-31 -.360147385846087 .000254068528147623 133 294 642 0 293 291
 296 0 +296 .00743 2858802261199805e-50 56e-6 .0073825 225694915357879e-49 1255e
-7 -888178419700125e-30 .443229061912819 141 295 289 295 295 291 16 293 42 297 ?
126 298 288 294 0 0 1 31 296 643 0 1 294 299 300 +.00756047831786406 11438684171
68904e-35 .0001961578431445035 -505533296068697e-31 1 -3455083678167345e-32 -.68
1380854636404 -597348319966965e-31 -.731929047746408 .0001914910244046825 133 29
9 646 0 298 296 301 0 +301 .007503 -150463276905253e-50 14e-6 .00743 -1504632769
05253e-50 56e-6 758109121297146e-48 .416311354883825 141 300 294 300 300 296 16
 298 44 302 ?122 303 293 299 0 0 1 31 301 647 0 1 299 304 305 +.0075659247142740
9 122078981457063e-34 .00020780962242877 -3053621231337165e-32 1 -53074845211336
6e-31 -.3088045881958005 -599105614242509e-31 -.951125505025085 .000203768715490
0325 133 304 650 0 303 301 306 0 +306 .0075955 0 0 .007503 0 1400000000000012e-2
0 1438101485730288e-33 .319023256614813 141 305 299 305 305 301 16 303 46 307 ?1
18 308 298 304 0 0 1 31 306 651 0 1 304 309 310 +.00759276112131513 178038100908
1495e-35 .000294484194403509 -916323942938099e-32 1 -605428319441243e-31 .009300
19432826229 -604549936959513e-31 -.999956752257545 .0002944969307309235 133 309
 654 0 308 306 311 0 +311 .0076725 -3009265538105055e-51 7e-6 .0075955 -30092655
38105055e-51 0 3661768866704885e-49 .196589454277208 141 310 304 310 310 306 16
 308 48 312 ?114 313 303 309 0 0 1 31 311 655 0 1 309 314 315 +.0075985075511990
9 240047250494448e-34 .000393916936810051 554371557996946e-32 1 -609808713796634
e-31 .1878322188219555 -609367691070724e-31 -.982201128879631 .00039392841795182
65 133 314 658 0 313 311 316 0 +316 .007738 -3009265538105055e-51 27e-6 .0076725
 0 7e-6 2031904416223055e-31 .2057202630394025 141 315 309 315 315 311 16 313 50
 317 ?110 318 308 314 0 0 1 31 316 659 0 1 314 319 320 +.00760837371181685 20312
63884492805e-35 .000334269843799823 1788186680468295e-32 1 -585631137853361e-31
 .388692417856555 -609087000510767e-31 -.921367572850719 .0003334932255637425 13
3 319 662 0 321 316 322 0 +322 .0078555 0 105e-6 .007797 0 6e-5 -369027438004274
e-19 3690274380042745e-20 141 320 314 320 320 316 16 321 54 323 ?102 324 318 319
 0 0 1 30 322 663 0 1 319 325 326 +.00782625 0 825e-7 -.792623989104599 0 -.6097
10760849695 133 325 666 0 327 322 328 0 +328 .0078955 3460655368820815e-50 85000
0000000046e-20 .0078725 436343503025233e-49 44e-6 2786109348687475e-30 .68205756
4374788 141 326 319 326 326 322 16 327 58 329 ?94 330 324 325 0 0 1 31 328 667 0
 1 325 331 332 +.00793401481941686 3649108033406025e-36 586539675095169e-19 -513
894176411189e-31 1 -3329455227452835e-32 -.60906323513067 -577060356978988e-31 -
.793121665075518 632361587357987e-19 133 331 670 0 330 328 333 0 +333 .007937 -1
05324293833677e-49 -406575814682064e-34 .0078955 902779661431517e-50 85000000000
0041e-20 3025364580545005e-32 .509849517235809 141 332 325 332 332 328 16 330 60
 334 ?90 335 327 331 0 0 1 31 333 671 0 1 331 336 337 +.00793255886806739 497688
357263927e-35 838756499760506e-19 -122864961934553e-31 1 -599870108268686e-31 .0
528749335745613 -592534498646789e-31 -.998601142298308 839931444330301e-19 133 3
36 674 0 338 333 339 0 +339 .0080035 -902779661431517e-50 6185e-7 .008023 -30092
65538105055e-51 496e-6 292359932226453e-30 .33606488598291 141 337 331 337 337 3
33 16 338 66 340 ?78 341 342 336 0 0 1 31 339 675 0 1 336 343 344 +.007652174196
28987 223878853687427e-34 .000499772627164515 604709824060491e-31 1 962599311769
696e-32 .947365636859301 -603699274471499e-31 .3201536351475205 .000370844993781
745 133 343 678 0 341 339 345 0 +345 .007946 -481482486096809e-49 7145e-7 .00800
35 -451389830715758e-49 6185e-7 3088462678643285e-31 .4282884767636605 141 344 3
36 344 344 339 16 341 68 346 ?74 347 338 343 0 0 1 31 345 679 0 1 343 348 349 +.
00775403884144263 15753428946824e-33 .000534303212322405 525304237424114e-31 1 3
14635350540486e-31 .729095106674248 -598337082605017e-31 .684412394265086 .00026
3286856269001 133 348 682 0 347 345 350 0 +350 .007854 3009265538105055e-50 7775
e-7 .007946 2407412430484045e-50 7145e-7 0 .436226366848304 141 349 343 349 349
 345 16 347 70 351 ?70 210 341 348 0 0 1 31 350 683 0 1 348 18 352 +.00775787705
375895 1540254461210595e-35 .000538455380092435 3459660145996435e-32 1 505220211
796306e-31 .3730800851915115 -597815909807862e-31 .927799143151951 .000257646950
497793 133 18 686 0 210 350 8 0 +8 .0077305 3009265538105055e-51 8e-4 .007854 30
09265538105055e-51 7775e-7 263113214276734e-32 .392455563693292 141 352 348 352
 352 350 16 210 72 353 ?66 354 347 18 0 0 1 81 1 353 740 27 210 0 0 355 351 356
 17 66 0 0 0 0 63 194 210 0 209 +16 354 74 355 ?357 358 210 359 0 0 1 81 1 355 7
39 27 354 0 0 360 353 361 17 357 0 0 0 0 56 362 354 0 0 +16 358 77 360 ?62 363 3
54 364 0 0 1 133 359 546 0 354 365 366 0 +366 .007838 601853107621011e-50 352e-6
 .0076995 -601853107621011e-50 341e-6 34876779602561e-47 .187129506962052 30 365
 300 0 1 364 359 367 +.007838 0 2155e-7 0 0 1 31 366 547 0 1 359 368 369 +.00782
736118375789 453298081921445e-34 -.00039146808640612 484795213790004e-32 -1 -610
401246453779e-31 .01430824988946948 -609645103641753e-31 .999897631752921 .00074
3544201722676 133 368 550 0 363 366 370 0 +370 .0077545 -1203706215242022e-50 14
95e-7 .007838 -1805559322863035e-50 2155e-7 0 .340953433185898 141 369 359 369 3
69 366 16 363 79 371 ?55 372 358 368 0 0 1 31 370 551 0 1 368 373 374 +.00760455
406563791 1892915533072385e-35 .0004250244018065815 -379702432349705e-31 -1 4803
81107593941e-31 .478016302706911 -603447161341982e-31 -.878350963081623 .0003136
837248289985 133 373 554 0 372 370 375 0 +375 .0076535 1203706215242022e-50 128e
-6 .0077545 451389830715758e-50 1495e-7 0 .469116421223196 141 374 368 374 374 3
70 16 372 81 376 ?51 377 363 373 0 0 1 31 375 555 0 1 373 378 379 +.007659012758
55302 1323050908963882e-35 .0003500854133090605 -1274895300663722e-32 -1 5989043
04032723e-31 -.0248150514147526 -595556217717502e-31 -.999692059197873 .00022215
38235356755 133 378 558 0 377 375 380 0 +380 .0075765 3009265538105055e-51 1505e
-7 .0076535 -451389830715758e-50 128e-6 -888178419700125e-30 .656693261523839 14
1 379 373 379 379 375 16 377 83 381 ?47 382 372 378 0 0 1 31 380 559 0 1 378 383
 384 +.0076480223301533 720922806469107e-35 .0002522597520801865 171743639711809
e-31 -1 587744900347085e-31 -.575028815539168 -579611132090567e-31 -.81813315621
5797 .000124380427937754 133 383 562 0 382 380 385 0 +385 .007547 75231638452626
4e-51 225e-6 .0075765 -752316384526264e-51 1505e-7 1507180079074075e-48 .9339214
12844257 141 384 378 384 384 380 16 382 85 386 ?43 387 377 383 0 0 1 31 385 563
 0 1 383 388 389 +.00763563699525128 486605500724681e-35 .0002170072665760085 56
9315101116626e-31 -1 2254334964153085e-32 -.995958971690858 -546768437656276e-31
 .0898093909816179 889966331653153e-19 133 388 566 0 387 385 390 0 +390 .0075615
 -2407412430484045e-50 274e-6 .007547 -2407412430484045e-50 225e-6 -888178419700
125e-30 .582668041008343 141 389 383 389 389 385 16 387 87 391 ?37 23 382 388 0
 0 1 31 390 567 0 1 388 392 393 +.00763595311134802 521732147968214e-35 .0002253
2254868273 587154927079385e-31 -1 -1737499274010395e-32 -.836987270711115 -58652
1044807612e-31 .547222357609371 889536961353795e-19 133 392 570 0 23 390 394 0 +
394 .0076095 -210648587667354e-49 3135e-7 .0075615 -1354169492147274e-50 274e-6
 393828768286443e-30 .522028560101584 141 393 388 393 393 390 16 23 89 395 ?32 1
1 387 392 0 0 1 31 394 571 0 1 392 24 396 +.00765944015862474 712519486371528e-3
5 .0002038986680003155 389085766600356e-31 -1 -472813083463728e-31 -.41463792656
9895 -591583228018382e-31 .909986477838994 .0001204428138975892 133 24 574 0 11
 394 215 0 +215 .0076995 3009265538105055e-51 341e-6 .0076095 -3009265538105055e
-51 3135e-7 498131692238726e-48 .268943214063206 141 396 392 396 396 394 81 1 39
5 732 27 23 0 0 21 391 397 80 7 CCCCCDI12 legal_owners0 17 1 lCZ1 27 398 399 900
0 0 0 0 0 3 5 0 0 0 FFTFTFTTFFFFFFFFF2 81 1 21 731 27 11 0 0 196 395 400 81 1 39
1 733 27 387 0 0 395 386 401 83 255 1 397 650 81 1 386 734 27 382 0 0 391 381 40
2 83 1 401 651 81 1 381 735 27 377 0 0 386 376 403 83 1 402 652 81 1 376 736 27
 372 0 0 381 371 404 83 1 403 653 81 1 371 737 27 363 0 0 376 360 405 83 1 404 6
54 81 1 360 738 27 358 0 0 371 355 406 83 1 405 655 83 1 406 656 83 1 400 649 79
 255 13 399 BTI/importTag17 37 0 0 0 0 33 36 387 0 407 +17 36 0 408 31 407 26 37
 387 0 0 -17 407 0 408 36 409 33 43 382 0 0 -15 408 73 0 362 17 202 17 409 0 408
 407 410 38 47 377 0 0 -17 43 0 0 0 0 38 407 382 0 409 +17 410 0 408 409 411 44
 51 372 0 0 -17 47 0 0 0 0 44 409 377 0 410 +17 411 0 408 410 412 48 55 363 0 0
 -17 51 0 0 0 0 48 410 372 0 411 +17 412 0 408 411 362 52 62 358 0 0 -17 55 0 0
 0 0 52 411 363 0 412 +17 362 0 408 412 30 59 357 354 0 0 -17 62 0 0 0 0 59 412
 358 0 362 +17 30 0 408 362 31 56 22 11 0 357 -17 31 0 408 30 36 12 32 23 0 0 -1
4 255 17 3 213 ?0 0 408 6 7 +0 0 0 0 6 81 1 213 774 27 17 0 0 211 14 413 81 1 14
 775 27 1 414 2 213 0 415 83 1 413 692 81 1 414 542 416 1 417 14 0 0 418 83 1 41
5 693 80 1 416 419 420 9000 0 0 0 0 3 5 0 0 0 TTTFFFFFFFFFFFFFF1 81 1 417 406 42
1 1 422 414 0 0 423 82 255 1 418 1 80 1 421 424 425 8038 0 0 0 0 0 0 0 0 0 TTTTT
TTTTTTTTFTFT10 81 1 422 405 424 1 0 417 0 0 426 98 255 19 423 72 67 45 48 52 83
 104 97 112 101 83 116 114 105 110 103 48 49 49 80 1 424 427 428 8017 0 0 0 0 0
 0 0 0 0 TTTTTTTTTTTTTFTFT3 84 255 19 426 HC-04ShapeString01179 13 428 SDL/TYSA_
NAME79 14 425 SDL/TYSA_UNAME79 23 420 ONSHAPE_ORIGINALBODY_ID133 364 477 0 358 4
29 365 0 +365 .007838 0 2155e-7 .007838 0 352e-6 0 1365e-7 141 367 364 367 367 3
65 30 429 288 0 1 430 364 431 +.008023 0 496e-6 0 0 -1 133 430 465 0 342 432 429
 0 +429 .008023 0 496e-6 .008023 0 0 0 496e-6 141 431 430 431 431 429 16 342 64
 433 ?82 338 335 430 0 0 1 30 432 286 0 1 434 430 435 +.008023 0 0 -1 0 0 133 43
4 463 0 335 436 432 0 +432 .008023 0 0 .007937 0 0 0 86e-6 141 435 434 435 435 4
32 16 335 62 437 ?86 342 330 434 0 0 1 30 436 280 0 1 438 434 439 +.0078725 0 44
e-6 -.268458237787938 0 .963291323828776 133 438 457 0 324 440 436 0 +436 .00787
25 0 44e-6 .0078555 0 .0001050000000000064 0 6332456079595e-17 141 439 438 439 4
39 436 16 324 56 441 ?98 327 321 438 0 0 1 31 440 276 0 1 442 438 443 +.00760145
281456956 0 .00034037224061806 0 1 0 .399460113565502 0 -.916750575494903 .00034
1829336129828 133 442 453 0 318 444 440 0 +440 .007797 0 599999999999993e-19 .00
7738 0 26999999999999e-18 6.08509690245953 6.28318530717959 141 443 442 443 443
 440 16 318 52 445 ?106 321 313 442 0 0 1 30 444 250 0 1 446 442 447 +.007838 0
 48e-5 0 0 1 133 446 427 0 257 448 444 0 +444 .007838 0 48e-5 .007838 0 5165e-7
 0 365e-7 141 447 446 447 447 444 16 257 26 449 ?158 260 252 446 0 0 1 30 448 23
2 0 1 207 446 450 +.007437 0 619e-6 -.493756159187101 0 .869600399761179 133 207
 409 0 200 0 448 0 +448 .007437 0 619e-6 .0074035 0 .000677999999999981 0 678472
549186774e-19 141 450 207 450 450 448 81 1 449 763 27 257 0 0 262 256 451 17 158
 0 0 0 0 155 452 257 0 453 +17 452 0 202 454 453 151 158 257 0 0 -17 453 0 202 4
52 455 155 162 252 0 0 -17 455 0 202 453 456 159 166 247 0 0 -17 162 0 0 0 0 159
 453 252 0 455 +17 456 0 202 455 457 163 170 242 0 0 -17 166 0 0 0 0 163 455 247
 0 456 +17 457 0 202 456 458 167 174 237 0 0 -17 170 0 0 0 0 167 456 242 0 457 +
17 458 0 202 457 459 171 178 232 0 0 -17 174 0 0 0 0 171 457 237 0 458 +17 459 0
 202 458 460 175 182 227 0 0 -17 178 0 0 0 0 175 458 232 0 459 +17 460 0 202 459
 203 179 186 222 0 0 -17 182 0 0 0 0 179 459 227 0 460 +17 203 0 202 460 199 183
 190 205 0 0 -17 186 0 0 0 0 183 460 222 0 203 +17 190 0 0 0 0 187 203 205 0 199
 +17 454 0 202 461 452 147 154 260 0 0 -17 461 0 202 462 454 143 150 263 0 0 -17
 154 0 0 0 0 151 454 260 0 452 +17 462 0 202 463 461 139 146 268 0 0 -17 150 0 0
 0 0 147 461 263 0 454 +17 463 0 202 464 462 135 142 273 0 0 -17 146 0 0 0 0 143
 462 268 0 461 +17 464 0 202 465 463 131 138 278 0 0 -17 142 0 0 0 0 139 463 273
 0 462 +17 465 0 202 466 464 127 134 283 0 0 -17 138 0 0 0 0 135 464 278 0 463 +
17 466 0 202 467 465 123 130 288 0 0 -17 134 0 0 0 0 131 465 283 0 464 +17 467 0
 202 468 466 119 126 293 0 0 -17 130 0 0 0 0 127 466 288 0 465 +17 468 0 202 469
 467 115 122 298 0 0 -17 126 0 0 0 0 123 467 293 0 466 +17 469 0 202 470 468 111
 118 303 0 0 -17 122 0 0 0 0 119 468 298 0 467 +17 470 0 202 471 469 107 114 308
 0 0 -17 118 0 0 0 0 115 469 303 0 468 +17 471 0 202 472 470 103 110 313 0 0 -17
 114 0 0 0 0 111 470 308 0 469 +17 472 0 202 473 471 99 106 318 0 0 -17 110 0 0
 0 0 107 471 313 0 470 +17 473 0 202 474 472 95 102 321 0 0 -17 106 0 0 0 0 103
 472 318 0 471 +17 474 0 202 475 473 91 98 324 0 0 -17 102 0 0 0 0 99 473 321 0
 472 +17 475 0 202 476 474 87 94 327 0 0 -17 98 0 0 0 0 95 474 324 0 473 +17 476
 0 202 477 475 83 90 330 0 0 -17 94 0 0 0 0 91 475 327 0 474 +17 477 0 202 478 4
76 79 86 335 0 0 -17 90 0 0 0 0 87 476 330 0 475 +17 478 0 202 479 477 75 82 342
 0 0 -17 86 0 0 0 0 83 477 335 0 476 +17 479 0 202 480 478 71 78 338 0 0 -17 82
 0 0 0 0 79 478 342 0 477 +17 480 0 202 209 479 67 74 341 0 0 -17 78 0 0 0 0 75
 479 338 0 478 +17 209 0 202 194 480 63 70 347 0 0 -17 74 0 0 0 0 71 480 341 0 4
79 +17 70 0 0 0 0 67 209 347 0 480 +81 1 262 762 27 260 0 0 267 449 481 81 1 256
 764 27 252 0 0 449 251 482 83 1 451 681 81 1 251 765 27 247 0 0 256 246 483 83
 1 482 682 81 1 246 766 27 242 0 0 251 241 484 83 1 483 683 81 1 241 767 27 237
 0 0 246 236 485 83 1 484 684 81 1 236 768 27 232 0 0 241 231 486 83 1 485 685 8
1 1 231 769 27 227 0 0 236 226 487 83 1 486 686 81 1 226 770 27 222 0 0 231 221
 488 83 1 487 687 81 1 221 771 27 205 0 0 226 204 489 83 1 488 688 81 1 204 772
 27 200 0 0 221 211 490 83 1 489 689 83 1 490 690 81 1 267 761 27 263 0 0 272 26
2 491 83 1 481 680 81 1 272 760 27 268 0 0 277 267 492 83 1 491 679 81 1 277 759
 27 273 0 0 282 272 493 83 1 492 678 81 1 282 758 27 278 0 0 287 277 494 83 1 49
3 677 81 1 287 757 27 283 0 0 292 282 495 83 1 494 676 81 1 292 756 27 288 0 0 2
97 287 496 83 1 495 675 81 1 297 755 27 293 0 0 302 292 497 83 1 496 674 81 1 30
2 754 27 298 0 0 307 297 498 83 1 497 673 81 1 307 753 27 303 0 0 312 302 499 83
 1 498 672 81 1 312 752 27 308 0 0 317 307 500 83 1 499 671 81 1 317 751 27 313
 0 0 445 312 501 83 1 500 670 81 1 445 750 27 318 0 0 323 317 502 83 1 501 669 8
1 1 323 749 27 321 0 0 441 445 503 83 1 502 668 81 1 441 748 27 324 0 0 329 323
 504 83 1 503 667 81 1 329 747 27 327 0 0 334 441 505 83 1 504 666 81 1 334 746
 27 330 0 0 437 329 506 83 1 505 665 81 1 437 745 27 335 0 0 433 334 507 83 1 50
6 664 81 1 433 744 27 342 0 0 340 437 508 83 1 507 663 81 1 340 743 27 338 0 0 3
46 433 509 83 1 508 662 81 1 346 742 27 341 0 0 351 340 510 83 1 509 661 81 1 35
1 741 27 347 0 0 353 346 511 83 1 510 660 83 1 511 659 83 1 361 657 83 1 356 658
 141 217 24 217 217 215 83 1 214 691 81 1 193 729 27 191 0 0 189 196 512 83 1 19
8 648 81 1 189 728 27 187 0 0 185 193 513 83 1 512 647 81 1 185 727 27 183 0 0 1
81 189 514 83 1 513 646 81 1 181 726 27 179 0 0 177 185 515 83 1 514 645 81 1 17
7 725 27 175 0 0 173 181 516 83 1 515 644 81 1 173 724 27 171 0 0 169 177 517 83
 1 516 643 81 1 169 723 27 167 0 0 165 173 518 83 1 517 642 81 1 165 722 27 163
 0 0 161 169 519 83 1 518 641 81 1 161 721 27 159 0 0 157 165 520 83 1 519 640 8
1 1 157 720 27 155 0 0 153 161 521 83 1 520 639 81 1 153 719 27 151 0 0 149 157
 522 83 1 521 638 81 1 149 718 27 147 0 0 145 153 523 83 1 522 637 81 1 145 717
 27 143 0 0 141 149 524 83 1 523 636 81 1 141 716 27 139 0 0 137 145 525 83 1 52
4 635 81 1 137 715 27 135 0 0 133 141 526 83 1 525 634 81 1 133 714 27 131 0 0 1
29 137 527 83 1 526 633 81 1 129 713 27 127 0 0 125 133 528 83 1 527 632 81 1 12
5 712 27 123 0 0 121 129 529 83 1 528 631 81 1 121 711 27 119 0 0 117 125 530 83
 1 529 630 81 1 117 710 27 115 0 0 113 121 531 83 1 530 629 81 1 113 709 27 111
 0 0 109 117 532 83 1 531 628 81 1 109 708 27 107 0 0 105 113 533 83 1 532 627 8
1 1 105 707 27 103 0 0 101 109 534 83 1 533 626 81 1 101 706 27 99 0 0 97 105 53
5 83 1 534 625 81 1 97 705 27 95 0 0 93 101 536 83 1 535 624 81 1 93 704 27 91 0
 0 89 97 537 83 1 536 623 81 1 89 703 27 87 0 0 85 93 538 83 1 537 622 81 1 85 7
02 27 83 0 0 81 89 539 83 1 538 621 81 1 81 701 27 79 0 0 77 85 540 83 1 539 620
 81 1 77 700 27 75 0 0 73 81 541 83 1 540 619 81 1 73 699 27 71 0 0 69 77 542 83
 1 541 618 81 1 69 698 27 67 0 0 65 73 543 83 1 542 617 81 1 65 697 27 63 0 0 61
 69 544 83 1 543 616 81 1 61 696 27 59 0 0 58 65 545 83 1 544 615 81 1 58 695 27
 56 0 0 54 61 546 83 1 545 614 81 1 54 694 27 52 0 0 50 58 547 83 1 546 613 81 1
 50 693 27 48 0 0 46 54 548 83 1 547 612 81 1 46 692 27 44 0 0 42 50 549 83 1 54
8 611 81 1 42 691 27 38 0 0 34 46 550 83 1 549 610 81 1 34 690 27 33 0 0 28 42 5
51 83 1 550 609 83 1 551 608 83 1 35 607 83 1 29 606 141 19 18 19 19 8 74 4 CI16
 index_map_offset0 0 1 dCCZ20 16 5 0 0 422 417 414 14 2 0 0 0 0 0 0 0 0 0 0 0 0
 0 0 0 80 1 13 27 552 9000 0 0 0 0 3 5 0 0 0 FFTFTFTTFFFFFFFFF2 83 1 15 17325 79
 18 552 BTI/importMaxCount1 0 
