**ABCDEFGHIJKLMNOPQRSTUVWXYZabcdefghijklmnopqrstuvwxyz**************************
**PARASOLID !"#$%&'()*+,-./:;<=>?@[\]^_`{|}~0123456789**************************
**PART1;
MC=unknown;
MC_MODEL=unknown;
MC_ID=unknown;
OS=unknown;
OS_RELEASE=unknown;
FRU=Parasolid 37.0.173;
APPL=Onshape;
SITE=unknown;
USER=unknown;
FORMAT=text;
GUISE=transmit;
KEY=BTGapi::writeModels_.xmt;
FILE=BTGapi::writeModels_.xmt;
DATE=2024-12-29T04:00:26 (UTC);
**PART2;
SCH=SCH_3700173_36001;
USFLD_SIZE=0;
**PART3;
**END_OF_HEADER*****************************************************************
T51 : TRANSMIT FILE created by modeller version 370017323 SCH_3700173_36001_1300
6231 0 12 36 CCCI7 lattice222 0 CCCI4 mesh1006 0 I8 polyline1008 0 CCCCCCCDI5 ow
ner1040 0 CCCI16 boundary_lattice222 0 CCCI13 boundary_mesh1006 0 I17 boundary_p
olyline1008 0 CCCA16 index_map_offset0 0 1 dA9 index_map82 0 A17 node_id_index_m
ap82 0 A20 schema_embedding_map82 0 A5 child12 0 A14 lowest_node_id0 0 1 dA16 me
sh_offset_data206 0 Z1 223 2 3 0 0 0 0 0 0 0 1e3 1e-8 0 4 5 1 0 3 2 6 0 7 8 9 0
 0 10 11 12 0 0 0 0 0 0 0 81 255 1 2 196 13 1 14 0 0 0 15 70 11 CI9 list_type0 0
 1 uI10 notransmit0 0 1 lCCCDCCDI12 finger_index0 0 1 dI12 finger_block1012 0 CZ
3 0 4 T1 0 0 5 20 1 16 16 13 255 6 2 0 1 0 17 0 0 10 17 50 255 7 70 0 17 0 0 0 +
.001325 0 .0014 0 -1 0 1 0 0 30 255 8 94 0 1 18 0 19 +.001325 0 0 -1 0 0 29 255
 9 92 0 12 20 0 .001065625 0 0 19 9 CCCCCCI5 frame230 0 CA5 owner12 0 Z10 1 0 1
 0 0 6 0 V0 16 255 11 28 21 ?22 0 23 18 0 0 1 18 255 12 27 24 22 0 25 9 5e-7 1 8
1 1 24 170 26 12 0 0 0 27 28 17 255 22 0 0 0 0 12 29 11 0 30 +18 25 25 27 31 12
 32 20 5e-7 1 81 1 27 171 26 25 0 0 24 33 34 17 31 0 0 0 0 25 30 23 0 35 +18 32
 23 33 36 25 37 38 5e-7 1 29 20 90 0 25 38 9 .001065625 0 6e-4 29 38 88 0 32 39
 20 41375e-8 0 6e-4 29 39 86 0 37 40 38 41375e-8 0 0 18 37 21 41 42 32 43 39 5e-
7 1 29 40 84 0 43 44 39 154375e-9 0 0 18 43 19 45 46 37 47 40 5e-7 1 29 44 82 0
 47 48 40 154375e-9 0 .0014 18 47 17 49 50 43 51 44 5e-7 1 29 48 80 0 51 52 44 4
1375e-8 0 .0014 18 51 15 53 54 47 55 48 5e-7 1 29 52 78 0 55 56 48 41375e-8 0 8e
-4 18 55 13 57 58 51 59 52 5e-7 1 29 56 76 0 59 60 52 .001065625 0 8e-4 18 59 11
 61 62 55 63 56 5e-7 1 29 60 74 0 63 64 56 .001065625 0 .0014 18 63 9 65 66 59 6
7 60 5e-7 1 29 64 72 0 67 68 60 .001325 0 0 18 67 7 69 29 63 70 64 5e-7 1 29 68
 71 0 70 0 64 .001325 0 .0014 18 70 6 71 72 67 0 68 5e-7 1 81 1 71 181 26 70 0 0
 69 21 73 17 72 0 0 0 0 70 74 75 0 76 +17 74 0 77 78 76 63 72 75 0 0 -16 75 8 79
 ?72 80 81 82 0 0 1 17 76 0 77 74 29 70 83 81 0 0 -15 255 77 4 0 76 17 0 17 29 0
 77 76 30 67 22 11 0 83 -17 83 0 0 0 0 67 76 81 0 0 +16 81 5 84 ?83 75 0 85 0 0
 1 81 1 84 193 26 81 0 0 79 86 87 133 255 85 126 0 81 0 88 0 +88 .001325 0 .0014
 .001325 0 0 0 .0014 30 88 73 0 1 85 82 89 +.001325 0 .0014 0 0 -1 133 82 128 0
 75 88 90 0 +90 .001065625 0 .0014 .001325 0 .0014 0 259375e-9 141 255 89 85 89
 89 88 30 90 75 0 1 82 91 92 +.001065625 0 .0014 1 0 0 133 91 130 0 80 90 93 0 +
93 .001065625 0 8e-4 .001065625 0 .0014 0 6e-4 141 92 82 92 92 90 16 80 10 94 ?6
6 95 75 91 0 0 1 30 93 77 0 1 91 96 97 +.001065625 0 8e-4 0 0 1 133 96 132 0 95
 93 98 0 +98 41375e-8 0 8e-4 .001065625 0 8e-4 0 651875e-9 141 97 91 97 97 93 16
 95 12 99 ?62 100 80 96 0 0 1 30 98 79 0 1 96 101 102 +41375e-8 0 8e-4 1 0 0 133
 101 134 0 100 98 103 0 +103 41375e-8 0 .0014 41375e-8 0 8e-4 0 6e-4 141 102 96
 102 102 98 16 100 14 104 ?58 105 95 101 0 0 1 30 103 81 0 1 101 106 107 +41375e
-8 0 .0014 0 0 -1 133 106 136 0 105 103 108 0 +108 154375e-9 0 .0014 41375e-8 0
 .0014 0 259375e-9 141 107 101 107 107 103 16 105 16 109 ?54 110 100 106 0 0 1 3
0 108 83 0 1 106 111 112 +154375e-9 0 .0014 1 0 0 133 111 138 0 110 108 113 0 +1
13 154375e-9 0 0 154375e-9 0 .0014 0 .0014 141 112 106 112 112 108 16 110 18 114
 ?50 115 105 111 0 0 1 30 113 85 0 1 111 116 117 +154375e-9 0 0 0 0 1 133 116 14
0 0 115 113 118 0 +118 41375e-8 0 0 154375e-9 0 0 0 259375e-9 141 117 111 117 11
7 113 16 115 20 119 ?46 120 110 116 0 0 1 30 118 87 0 1 116 121 122 +41375e-8 0
 0 -1 0 0 133 121 142 0 120 118 123 0 +123 41375e-8 0 6e-4 41375e-8 0 0 0 6e-4 1
41 122 116 122 122 118 16 120 22 124 ?42 125 115 121 0 0 1 30 123 89 0 1 121 126
 127 +41375e-8 0 6e-4 0 0 -1 133 126 144 0 125 123 128 0 +128 .001065625 0 6e-4
 41375e-8 0 6e-4 0 651875e-9 141 127 121 127 127 123 16 125 24 129 ?36 23 120 12
6 0 0 1 30 128 91 0 1 126 130 131 +.001065625 0 6e-4 -1 0 0 133 130 146 0 23 128
 132 0 +132 .001065625 0 0 .001065625 0 6e-4 0 6e-4 141 131 126 131 131 128 16 2
3 26 133 ?31 11 125 130 0 0 1 30 132 93 0 1 130 18 134 +.001065625 0 0 0 0 1 133
 18 148 0 11 132 8 0 +8 .001325 0 0 .001065625 0 0 0 259375e-9 141 134 130 134 1
34 132 81 1 133 183 26 23 0 0 21 129 135 80 7 CCCCCDI12 legal_owners0 17 1 lCZ1
 26 136 137 9000 0 0 0 0 3 5 0 0 0 FFTFTFTTFFFFFFFFF2 81 1 21 182 26 11 0 0 71 1
33 138 81 1 129 184 26 125 0 0 133 124 139 83 255 1 135 6543 81 1 124 185 26 120
 0 0 129 119 140 83 1 139 6544 81 1 119 186 26 115 0 0 124 114 141 83 1 140 6545
 81 1 114 187 26 110 0 0 119 109 142 83 1 141 6546 81 1 109 188 26 105 0 0 114 1
04 143 83 1 142 6547 81 1 104 189 26 100 0 0 109 99 144 83 1 143 6548 81 1 99 19
0 26 95 0 0 104 94 145 83 1 144 6549 81 1 94 191 26 80 0 0 99 79 146 83 1 145 65
50 81 1 79 192 26 75 0 0 94 84 147 83 1 146 6551 83 1 147 6552 83 1 138 6542 79
 255 13 137 BTI/importTag17 36 0 0 0 0 32 35 125 0 148 +17 35 0 77 30 148 25 36
 125 0 0 -17 148 0 77 35 149 32 42 120 0 0 -17 149 0 77 148 150 37 46 115 0 0 -1
7 42 0 0 0 0 37 148 120 0 149 +17 150 0 77 149 151 43 50 110 0 0 -17 46 0 0 0 0
 43 149 115 0 150 +17 151 0 77 150 152 47 54 105 0 0 -17 50 0 0 0 0 47 150 110 0
 151 +17 152 0 77 151 153 51 58 100 0 0 -17 54 0 0 0 0 51 151 105 0 152 +17 153
 0 77 152 78 55 62 95 0 0 -17 58 0 0 0 0 55 152 100 0 153 +17 78 0 77 153 74 59
 66 80 0 0 -17 62 0 0 0 0 59 153 95 0 78 +17 66 0 0 0 0 63 78 80 0 74 +17 30 0 7
7 29 35 12 31 23 0 0 -81 1 86 194 26 17 0 0 84 14 154 83 1 87 6553 14 255 17 3 8
6 ?0 0 77 6 7 +0 0 0 0 6 81 1 14 195 26 1 155 2 86 0 156 83 1 154 6554 81 1 155
 168 157 1 158 14 0 0 159 83 1 156 6555 80 1 157 160 161 9000 0 0 0 0 3 5 0 0 0
 TTTFFFFFFFFFFFFFF1 81 1 158 125 162 1 163 155 0 0 164 82 255 1 159 33 80 1 162
 165 166 8038 0 0 0 0 0 0 0 0 0 TTTTTTTTTTTTTFTFT10 81 1 163 124 165 1 0 158 0 0
 167 98 255 19 164 72 67 45 48 52 83 104 97 112 101 83 116 114 105 110 103 48 48
 54 80 1 165 168 169 8017 0 0 0 0 0 0 0 0 0 TTTTTTTTTTTTTFTFT3 84 255 19 167 HC-
04ShapeString00679 13 169 SDL/TYSA_NAME79 14 166 SDL/TYSA_UNAME79 23 161 ONSHAPE
_ORIGINALBODY_ID81 1 69 180 26 67 0 0 65 71 170 83 1 73 6541 81 1 65 179 26 63 0
 0 61 69 171 83 1 170 6540 81 1 61 178 26 59 0 0 57 65 172 83 1 171 6539 81 1 57
 177 26 55 0 0 53 61 173 83 1 172 6538 81 1 53 176 26 51 0 0 49 57 174 83 1 173
 6537 81 1 49 175 26 47 0 0 45 53 175 83 1 174 6536 81 1 45 174 26 43 0 0 41 49
 176 83 1 175 6535 81 1 41 173 26 37 0 0 33 45 177 83 1 176 6534 81 1 33 172 26
 32 0 0 27 41 178 83 1 177 6533 83 1 178 6532 83 1 34 6531 83 1 28 6530 141 19 1
8 19 19 8 74 4 CI16 index_map_offset0 0 1 dCCZ20 16 5 0 0 163 158 155 14 2 0 0 0
 0 0 0 0 0 0 0 0 0 0 0 0 80 1 13 26 179 9000 0 0 0 0 3 5 0 0 0 FFTFTFTTFFFFFFFFF
2 83 1 15 17325 79 18 179 BTI/importMaxCount1 0 
