**ABCDEFGHIJKLMNOPQRSTUVWXYZabcdefghijklmnopqrstuvwxyz**************************
**PARASOLID !"#$%&'()*+,-./:;<=>?@[\]^_`{|}~0123456789**************************
**PART1;
MC=unknown;
MC_MODEL=unknown;
MC_ID=unknown;
OS=unknown;
OS_RELEASE=unknown;
FRU=Parasolid 37.0.173;
APPL=Onshape;
SITE=unknown;
USER=unknown;
FORMAT=text;
GUISE=transmit;
KEY=BTGapi::writeModels_.xmt;
FILE=BTGapi::writeModels_.xmt;
DATE=2024-12-29T04:00:26 (UTC);
**PART2;
SCH=SCH_3700173_36001;
USFLD_SIZE=0;
**PART3;
**END_OF_HEADER*****************************************************************
T51 : TRANSMIT FILE created by modeller version 370017323 SCH_3700173_36001_1300
6231 0 12 36 CCCI7 lattice222 0 CCCI4 mesh1006 0 I8 polyline1008 0 CCCCCCCDI5 ow
ner1040 0 CCCI16 boundary_lattice222 0 CCCI13 boundary_mesh1006 0 I17 boundary_p
olyline1008 0 CCCA16 index_map_offset0 0 1 dA9 index_map82 0 A17 node_id_index_m
ap82 0 A20 schema_embedding_map82 0 A5 child12 0 A14 lowest_node_id0 0 1 dA16 me
sh_offset_data206 0 Z1 629 2 3 0 0 0 0 0 0 0 1e3 1e-8 0 4 5 1 0 3 2 6 0 7 8 9 0
 0 10 11 12 0 0 0 0 0 0 0 81 255 1 2 564 13 1 14 0 0 0 15 70 11 CI9 list_type0 0
 1 uI10 notransmit0 0 1 lCCCDCCDI12 finger_index0 0 1 dI12 finger_block1012 0 CZ
3 0 4 T1 0 0 5 20 1 16 16 13 255 6 2 0 1 0 17 0 0 10 17 50 255 7 167 0 17 0 0 0
 +.002762 0 .001152 0 -1 0 1 0 0 31 255 8 499 0 1 18 0 19 +.00264441154443545 21
2234712255615e-35 463999584983275e-19 -391512216742531e-31 1 -470805830260006e-3
1 .03421394383632315 -4571350113464e-29 -.99941453163698 464271401200533e-19 29
 255 9 227 0 12 20 0 .00242 0 64e-5 19 9 CCCCCCI5 frame230 0 CA5 owner12 0 Z10 1
 0 1 0 0 6 0 V0 16 255 11 67 21 ?22 0 23 24 0 0 1 18 255 12 66 25 22 0 26 9 5e-7
 1 81 1 25 500 27 12 0 0 0 28 29 17 255 22 0 0 0 0 12 30 11 0 31 +18 26 64 28 32
 12 33 20 5e-7 1 81 1 28 501 27 26 0 0 25 34 35 17 32 0 0 0 0 26 31 23 0 36 +18
 33 62 34 37 26 38 39 5e-7 1 29 20 225 0 26 39 9 .0023425 0 625e-6 29 39 223 0 3
3 40 20 .0022835 0 58e-5 29 40 221 0 38 41 39 .002246 0 5035e-7 18 38 60 42 43 3
3 44 40 5e-7 1 29 41 219 0 44 45 40 .002233 0 3935e-7 18 44 58 46 47 38 48 41 5e
-7 1 29 45 217 0 48 49 41 .002244 0 285e-6 18 48 56 50 51 44 52 45 5e-7 1 29 49
 215 0 52 53 45 .0022755 0 213e-6 18 52 54 54 55 48 56 49 5e-7 1 29 53 213 0 56
 57 49 .0023265 0 1725e-7 18 56 52 58 59 52 60 53 5e-7 1 29 57 211 0 60 61 53 .0
023935 0 16e-5 18 60 50 62 63 56 64 57 5e-7 1 29 61 209 0 64 65 57 .002494 0 182
5e-7 18 64 48 66 67 60 68 61 5e-7 1 29 65 207 0 68 69 61 .0025725 0 247e-6 18 68
 46 70 71 64 72 65 5e-7 1 29 69 205 0 72 73 65 .002502 0 6245e-7 18 72 44 74 30
 68 75 69 5e-7 1 29 73 204 0 75 76 69 .0025725 0 573e-6 18 75 43 77 78 72 79 73
 5e-7 1 29 76 201 0 79 80 73 .002646 0 -8881784197001e-31 18 79 39 81 82 75 83 7
6 5e-7 1 29 80 199 0 83 84 76 .0025985 0 395e-7 18 83 37 85 86 79 87 80 5e-7 1 2
9 84 197 0 87 88 80 .0025825 0 126e-6 18 87 35 89 90 83 91 84 5e-7 1 29 88 195 0
 91 92 84 .0024725 0 345e-7 18 91 33 93 94 87 95 88 5e-7 1 29 92 193 0 95 96 88
 .002329 0 -8881784197001e-31 18 95 31 97 98 91 99 92 5e-7 1 29 96 191 0 99 100
 92 .0022105 0 265e-7 18 99 29 101 102 95 103 96 5e-7 1 29 100 189 0 103 104 96
 .002118 0 103e-6 18 103 27 105 106 99 107 100 5e-7 1 29 104 187 0 107 108 100 .
002058 0 227e-6 18 107 25 109 110 103 111 104 5e-7 1 29 108 185 0 111 112 104 .0
02037 0 396e-6 18 111 23 113 114 107 115 108 5e-7 1 29 112 183 0 115 116 108 .00
20605 0 556e-6 18 115 21 117 118 111 119 112 5e-7 1 29 116 181 0 119 120 112 .00
2129 0 6845e-7 18 119 19 121 122 115 123 116 5e-7 1 29 120 179 0 123 124 116 .00
22355 0 7695e-7 18 123 17 125 126 119 127 120 5e-7 1 29 124 177 0 127 128 120 .0
023755 0 8e-4 18 127 15 129 130 123 131 124 5e-7 1 29 128 175 0 131 132 124 .002
4885 0 777e-6 18 131 13 133 134 127 135 128 5e-7 1 29 132 173 0 135 136 128 .002
5725 0 7145e-7 18 135 11 137 138 131 139 132 5e-7 1 29 136 171 0 139 140 132 .00
25725 0 .001152 18 139 9 141 142 135 143 136 5e-7 1 29 140 169 0 143 144 136 .00
2762 0 -8881784197001e-31 18 143 7 145 146 139 147 140 5e-7 1 29 144 168 0 147 0
 140 .002762 0 .001152 18 147 6 148 149 143 0 144 5e-7 1 81 1 148 530 27 147 0 0
 145 21 150 17 149 0 0 0 0 147 151 152 0 153 +17 151 0 154 155 153 139 149 152 0
 0 -16 152 8 156 ?149 157 158 159 0 0 1 17 153 0 154 151 146 147 160 158 0 0 -15
 255 154 4 0 153 17 0 17 146 0 154 153 161 143 82 162 0 160 -17 160 0 0 0 0 143
 153 158 0 0 +16 158 5 163 ?160 152 0 164 0 0 1 81 1 163 561 27 158 0 0 156 165
 166 133 255 164 299 0 158 0 167 0 +167 .002762 0 .001152 .002762 0 -86736173798
8404e-33 0 .001152 30 255 167 170 0 1 164 159 168 +.002762 0 .001152 0 0 -1 133
 159 301 0 152 167 169 0 +169 .0025725 0 .001152 .002762 0 .001152 0 1895e-7 141
 255 168 164 168 168 167 30 169 172 0 1 159 170 171 +.0025725 0 .001152 1 0 0 13
3 170 303 0 157 169 172 0 +172 .0025725 0 7145e-7 .0025725 0 .001152 0 4375e-7 1
41 171 159 171 171 169 16 157 10 173 ?142 174 152 170 0 0 1 30 172 174 0 1 170 1
75 176 +.0025725 0 7145e-7 0 0 1 133 175 329 0 177 172 178 0 +178 .0025985 0 395
e-7 .0025825 0 .000125999999999995 0 879673234786646e-19 141 176 170 176 176 172
 16 177 36 179 ?90 180 181 175 0 0 1 30 178 200 0 1 175 182 183 +.0025985 0 395e
-7 -.181885720371016 0 .983319675754084 133 182 333 0 162 178 184 0 +184 .002762
 0 0 .002646 0 0 0 116e-6 141 183 175 183 183 178 16 162 40 185 ?82 186 180 182
 0 0 1 30 184 203 0 1 182 187 188 +.002762 0 0 -1 0 0 133 187 337 0 189 184 190
 0 +190 .0025725 0 247e-6 .0025725 0 573e-6 0 326e-6 141 188 182 188 188 184 16
 189 45 191 ?78 192 186 187 0 0 1 30 190 208 0 1 187 193 194 +.0025725 0 247e-6
 0 0 1 133 193 402 0 186 190 195 0 +195 .0025725 -105324293833677e-49 573e-6 .00
2502 -105324293833677e-49 6245e-7 721723065509391e-31 .469235297303054 141 194 1
87 194 194 190 16 186 42 196 ?197 189 162 193 0 0 1 31 195 403 0 1 193 198 199 +
.0024295181912349 1118320523142546e-35 .000451272475379816 -3611930362444035e-32
 -1 -494448719519035e-31 .761431931813657 -595547757912501e-31 .648244871336845
 .0001877801583977845 133 198 406 0 192 195 200 0 +200 .002494 3009265538105055e
-51 1825e-7 .0025725 3009265538105055e-51 247e-6 619235661673605e-48 .3366340218
164995 141 199 193 199 199 195 16 192 47 201 ?71 202 189 198 0 0 1 31 200 407 0
 1 198 203 204 +.002343460097400525 1830571472709665e-35 .0004457346101404455 -3
887300595981e-29 -1 473105576410088e-31 .496437536969812 -603670108367903e-31 -.
86807244622056 .000303240370416691 133 203 410 0 202 200 205 0 +205 .0023935 -60
1853107621011e-50 16e-5 .002494 150463276905253e-50 1825e-7 0 .4974542205131 141
 204 198 204 204 200 16 202 49 206 ?67 207 192 203 0 0 1 31 205 411 0 1 203 208
 209 +.002399456303653995 1241441645385466e-35 .000369095177012159 -133775728911
8272e-32 -1 597531589139498e-31 -.0284745376054343 -593480098899502e-31 -.999594
518146312 .000209179995704572 133 208 414 0 207 205 210 0 +210 .0023265 0 1725e-
7 .0023935 -3009265538105055e-51 16e-5 0 .396523402940305 141 209 203 209 209 20
5 16 207 51 211 ?63 212 202 208 0 0 1 31 210 415 0 1 208 213 214 +.0023911098588
62025 1038660055278242e-35 .0003329988435004425 1123016980590664e-32 -1 60193710
1596599e-31 -.373434250014315 -600328255771264e-31 -.927656650337961 .0001730153
537324075 133 213 418 0 212 210 215 0 +215 .0022755 -105324293833677e-49 213e-6
 .0023265 -105324293833677e-49 1725e-7 0 .539991348663446 141 214 208 214 214 21
0 16 212 53 216 ?59 217 207 213 0 0 1 31 215 419 0 1 213 218 219 +.0023741698119
2577 72045143031568e-34 .000284889763165785 3807929883042915e-32 -1 479517096383
176e-31 -.808229645175109 -590140178161075e-31 -.588867421972143 .00012208140658
38842 133 218 422 0 217 215 220 0 +220 .002244 -1203706215242022e-50 285e-6 .002
2755 -1354169492147274e-50 213e-6 701523202295829e-48 .383540025628507 141 219 2
13 219 219 215 16 217 55 221 ?55 222 212 218 0 0 1 31 220 423 0 1 218 223 224 +.
002445167964242595 1239260483781174e-35 .000330120359356135 560984573851668e-31
 -1 245430751060104e-31 -.975757488676519 -601098540725965e-31 -.218854571100750
5 .0002061659444863205 133 223 426 0 222 220 225 0 +225 .002233 1203706215242022
e-50 3935e-7 .002244 1203706215242022e-50 285e-6 1468242030126938e-32 .236849916
302604 141 224 218 224 224 220 16 222 57 226 ?51 227 217 223 0 0 1 31 225 427 0
 1 223 228 229 +.002694452480215355 2806215210646925e-35 .0003854755970725255 60
9200596979763e-31 -1 617622725048616e-32 -.999848837868017 -608034659573925e-31
 .0173868172468721 .000461522244901854 133 228 430 0 227 225 230 0 +230 .002246
 0 5035e-7 .002233 3009265538105055e-51 3935e-7 0 .268922746236981 141 229 223 2
29 229 225 16 227 59 231 ?47 232 222 228 0 0 1 31 230 431 0 1 228 233 234 +.0026
46071303010495 2506856508040645e-35 .000400450664189669 608091535239238e-31 -1 -
718653632555463e-32 -.968391349994785 -606796373495708e-31 .249435749753876 .000
413129777555992 133 233 434 0 232 230 235 0 +235 .0022835 -1203706215242022e-50
 58e-5 .002246 -902779661431517e-50 5035e-7 749346488649339e-48 .411206422686949
5 141 234 228 234 234 230 16 232 61 236 ?43 237 227 233 0 0 1 31 235 435 0 1 233
 238 239 +.002448159091732095 1250730445568132e-35 .000451843582484267 549817869
487838e-31 -1 -2695185634744285e-32 -.789147240967611 -599426651715149e-31 .6142
0406386901 .000208654460389674 133 238 438 0 237 235 240 0 +240 .0023425 -300926
5538105055e-51 625e-6 .0022835 150463276905253e-50 58e-5 261333652108204e-30 .48
158940669232 141 239 233 239 239 235 16 237 63 241 ?37 23 232 238 0 0 1 31 240 4
39 0 1 238 242 243 +.00240462761359278 925151423686837e-35 .00048236601773391 37
1343021070272e-31 -1 -486871960958801e-31 -.3993360050121275 -59465711332153e-30
 .916804643913279 .000155577290334474 133 242 442 0 23 240 244 0 +244 .00242 300
9265538105055e-51 64e-5 .0023425 451389830715758e-50 625e-6 0 .412094930209086 1
41 243 238 243 243 240 16 23 65 245 ?32 11 237 242 0 0 1 31 244 443 0 1 242 24 2
46 +.002417132797535495 1156281239896554e-35 .0004471055460666105 11635485982188
e-30 -1 -601166775746377e-31 .0148624582851242 -599371056162978e-31 .99988954756
6992 .0001929157619486625 133 24 446 0 11 244 247 0 +247 .002502 -30092655381050
55e-51 6245e-7 .00242 -601853107621011e-50 64e-5 712703748824976e-48 .3899796014
61793 141 246 242 246 246 244 31 247 447 0 1 24 248 249 +.002421759336499975 129
366752553412e-34 .0004246542318063245 -113730088683344e-31 -1 -601668856260271e-
31 .3726007083216585 -600719654251857e-31 .927991762979715 .000215352954806393 1
33 248 450 0 174 247 250 0 +250 .0024885 0 777e-6 .0025725 -601853107621011e-50
 7145e-7 0 .365445924024963 141 249 24 249 249 247 16 174 12 251 ?138 252 157 24
8 0 0 1 31 250 451 0 1 248 253 254 +.002361383679179455 173474726577484e-34 .000
51845766481719 3655198967053935e-32 1 491258741172046e-31 .4412200195065185 -602
129779640655e-31 .897398960544677 .0002881018884018855 133 253 454 0 252 250 255
 0 +255 .0023755 0 8e-4 .0024885 0 777e-6 822667940160197e-48 .454292306785219 1
41 254 248 254 254 250 16 252 14 256 ?134 257 174 253 0 0 1 31 255 455 0 1 253 2
58 259 +.00238224554063514 1527489367412475e-35 .000544054177903071 122128079506
5482e-32 1 600020564532172e-31 -.0263461972500613 -596594674140513e-31 .99965287
8698631 .0002560346971942145 133 258 458 0 257 255 260 0 +260 .0022355 300926553
8105055e-51 7695e-7 .0023755 -3009265538105055e-51 8e-4 0 .457777430340887 141 2
59 253 259 259 255 16 257 16 261 ?130 262 252 258 0 0 1 31 260 459 0 1 258 263 2
64 +.002370958662357905 1882978069481915e-35 .000484284008848961 -13034175865128
24e-32 1 598290039710804e-31 -.429007888989445 -596353479755673e-31 .90330074238
031 .0003157486513289685 133 263 462 0 262 260 265 0 +265 .002129 -6018531076210
11e-50 6845e-7 .0022355 -902779661431517e-50 7695e-7 786828090331366e-48 .433124
539621892 141 264 258 264 264 260 16 262 18 266 ?126 267 257 263 0 0 1 31 265 46
3 0 1 263 268 269 +.00237542080396375 1896169733756275e-35 .000484968345621887 -
381967128010454e-31 1 478582342742511e-31 -.777170606440905 -598020685832608e-31
 .629289955810735 .00031707427162261 133 268 466 0 267 265 270 0 +270 .0020605 -
150463276905253e-49 556e-6 .002129 -1203706215242022e-50 6845e-7 0 .372971931131
468 141 269 263 269 269 265 16 267 20 271 ?122 272 262 268 0 0 1 31 270 467 0 1
 268 273 274 +.002435276749612775 23628871447688e-33 .0004387240673270435 -54034
354234867e-30 1 2880430556489005e-32 -.954365216889959 -601706830728891e-31 .298
641980958105 .0003926974107816705 133 273 470 0 272 270 275 0 +275 .002037 -1203
706215242022e-50 396e-6 .0020605 -1203706215242022e-50 556e-6 572066047171968e-4
8 .3100967362146785 141 274 268 274 274 270 16 272 22 276 ?118 277 267 273 0 0 1
 31 275 471 0 1 273 278 279 +.00256057675846773 316765875763211e-34 .00040082544
48500505 -605823769835212e-31 1 889803661945487e-32 -.999957532535596 -604978006
370351e-31 -.00921591695506981 .000523598994389386 133 278 474 0 277 275 280 0 +
280 .002058 0 227e-6 .002037 0 396e-6 0 .2747610266124625 141 279 273 279 279 27
5 16 277 24 281 ?114 282 272 278 0 0 1 31 280 475 0 1 278 283 284 +.002658705526
753575 3771337488592385e-35 .000387448615750445 -607650117987588e-31 1 -75506819
394908e-31 -.966130562697238 -606554168007454e-31 -.258053745995517 .00062176433
4911971 133 283 478 0 282 280 285 0 +285 .002118 3009265538105055e-51 103e-6 .00
2058 0 227e-6 0 .385580575774704 141 284 278 284 284 280 16 282 26 286 ?110 287
 277 283 0 0 1 31 285 479 0 1 283 288 289 +.00240559872305408 216043027380901e-3
4 .000318676801477781 -551188572984443e-31 1 -2667041482182795e-32 -.80002969591
5271 -600979154791504e-31 -.599960403404857 .000359485059770255 133 288 482 0 28
7 285 290 0 +290 .0022105 -1203706215242022e-50 265e-7 .002118 -902779661431517e
-50 103e-6 507046215911527e-31 .45295563509384 141 289 283 289 289 285 16 287 28
 291 ?106 292 282 288 0 0 1 31 290 483 0 1 288 293 294 +.002330243197907315 1594
847265697765e-35 .0002654607294957715 -3902410089217865e-32 1 -471860043467521e-
31 -.448000101242079 -59668670035963e-30 -.894033505684819 .000267283863497633 1
33 293 486 0 292 290 295 0 +295 .002329 -3009265538105055e-51 0 .0022105 3009265
538105055e-51 265e-7 0 .460815176960726 141 294 288 294 294 290 16 292 30 296 ?1
02 297 287 293 0 0 1 31 295 487 0 1 293 298 299 +.00232623553309782 158484662342
6065e-35 .000265836251777047 -1336323805567906e-32 1 -597563663999234e-31 .01039
857212227208 -596141769808964e-31 -.99994593338731 .000265850625419845 133 298 4
90 0 297 295 300 0 +300 .0024725 -3009265538105055e-51 345e-7 .002329 -300926553
8105055e-51 -542101086242752e-34 936519216363975e-31 .5156348039283 141 299 293
 299 299 295 16 297 32 301 ?98 181 292 298 0 0 1 31 300 491 0 1 298 302 303 +.00
233533124239228 1713633384449915e-35 .0002893541077306665 1431350815496326e-32 1
 -595358962387604e-31 .473938092523497 -592085363806679e-31 -.880558166423542 .0
00289423365143245 133 302 494 0 181 300 304 0 +304 .0025825 3009265538105055e-51
 126e-6 .0024725 -601853107621011e-50 345e-7 0 .3548662806159505 141 303 298 303
 303 300 16 181 34 305 ?94 177 297 302 0 0 1 31 304 495 0 1 302 18 306 +.0022723
67949677425 244291057415463e-34 .000386966126070857 3915787916983765e-32 1 -4707
5045996526e-30 .765151475190915 -602709919090818e-31 -.643850308700063 .00040532
1116639284 133 18 498 0 180 304 8 0 +8 .002646 188079096131566e-50 -677626357803
44e-34 .0025985 714700565299951e-50 395e-7 912217449819229e-32 1.455845259197096
 141 306 302 306 306 304 16 180 38 307 ?86 162 177 18 0 0 1 81 1 307 545 27 180
 0 0 185 179 308 17 86 0 0 0 0 83 161 180 0 309 +17 161 0 154 146 309 79 86 180
 0 0 -17 309 0 154 161 310 83 90 177 0 0 -17 310 0 154 309 311 87 94 181 0 0 -17
 90 0 0 0 0 87 309 177 0 310 +17 311 0 154 310 312 91 98 297 0 0 -17 94 0 0 0 0
 91 310 181 0 311 +17 312 0 154 311 313 95 102 292 0 0 -17 98 0 0 0 0 95 311 297
 0 312 +17 313 0 154 312 314 99 106 287 0 0 -17 102 0 0 0 0 99 312 292 0 313 +17
 314 0 154 313 315 103 110 282 0 0 -17 106 0 0 0 0 103 313 287 0 314 +17 315 0 1
54 314 316 107 114 277 0 0 -17 110 0 0 0 0 107 314 282 0 315 +17 316 0 154 315 3
17 111 118 272 0 0 -17 114 0 0 0 0 111 315 277 0 316 +17 317 0 154 316 318 115 1
22 267 0 0 -17 118 0 0 0 0 115 316 272 0 317 +17 318 0 154 317 319 119 126 262 0
 0 -17 122 0 0 0 0 119 317 267 0 318 +17 319 0 154 318 320 123 130 257 0 0 -17 1
26 0 0 0 0 123 318 262 0 319 +17 320 0 154 319 321 127 134 252 0 0 -17 130 0 0 0
 0 127 319 257 0 320 +17 321 0 154 320 155 131 138 174 0 0 -17 134 0 0 0 0 131 3
20 252 0 321 +17 155 0 154 321 151 135 142 157 0 0 -17 138 0 0 0 0 135 321 174 0
 155 +17 142 0 0 0 0 139 155 157 0 151 +80 7 CCCCCDI12 legal_owners0 17 1 lCZ1 2
7 322 323 9000 0 0 0 0 3 5 0 0 0 FFTFTFTTFFFFFFFFF2 81 1 185 544 27 162 0 0 196
 307 324 81 1 179 546 27 177 0 0 307 305 325 83 255 1 308 2457 81 1 305 547 27 1
81 0 0 179 301 326 83 1 325 2458 81 1 301 548 27 297 0 0 305 296 327 83 1 326 24
59 81 1 296 549 27 292 0 0 301 291 328 83 1 327 2460 81 1 291 550 27 287 0 0 296
 286 329 83 1 328 2461 81 1 286 551 27 282 0 0 291 281 330 83 1 329 2462 81 1 28
1 552 27 277 0 0 286 276 331 83 1 330 2463 81 1 276 553 27 272 0 0 281 271 332 8
3 1 331 2464 81 1 271 554 27 267 0 0 276 266 333 83 1 332 2465 81 1 266 555 27 2
62 0 0 271 261 334 83 1 333 2466 81 1 261 556 27 257 0 0 266 256 335 83 1 334 24
67 81 1 256 557 27 252 0 0 261 251 336 83 1 335 2468 81 1 251 558 27 174 0 0 256
 173 337 83 1 336 2469 81 1 173 559 27 157 0 0 251 156 338 83 1 337 2470 81 1 15
6 560 27 152 0 0 173 163 339 83 1 338 2471 83 1 339 2472 81 1 196 543 27 186 0 0
 191 185 340 83 1 324 2456 81 1 191 542 27 189 0 0 201 196 341 83 1 340 2455 81
 1 201 541 27 192 0 0 206 191 342 83 1 341 2454 81 1 206 540 27 202 0 0 211 201
 343 83 1 342 2453 81 1 211 539 27 207 0 0 216 206 344 83 1 343 2452 81 1 216 53
8 27 212 0 0 221 211 345 83 1 344 2451 81 1 221 537 27 217 0 0 226 216 346 83 1
 345 2450 81 1 226 536 27 222 0 0 231 221 347 83 1 346 2449 81 1 231 535 27 227
 0 0 236 226 348 83 1 347 2448 81 1 236 534 27 232 0 0 241 231 349 83 1 348 2447
 81 1 241 533 27 237 0 0 245 236 350 83 1 349 2446 81 1 245 532 27 23 0 0 21 241
 351 83 1 350 2445 81 1 21 531 27 11 0 0 148 245 352 83 1 351 2444 83 1 352 2443
 79 255 13 323 BTI/importTag17 37 0 0 0 0 33 36 237 0 353 +17 36 0 354 31 353 26
 37 237 0 0 -17 353 0 354 36 355 33 43 232 0 0 -15 354 41 0 356 17 154 17 355 0
 354 353 357 38 47 227 0 0 -17 43 0 0 0 0 38 353 232 0 355 +17 357 0 354 355 358
 44 51 222 0 0 -17 47 0 0 0 0 44 355 227 0 357 +17 358 0 354 357 359 48 55 217 0
 0 -17 51 0 0 0 0 48 357 222 0 358 +17 359 0 354 358 360 52 59 212 0 0 -17 55 0
 0 0 0 52 358 217 0 359 +17 360 0 354 359 361 56 63 207 0 0 -17 59 0 0 0 0 56 35
9 212 0 360 +17 361 0 354 360 362 60 67 202 0 0 -17 63 0 0 0 0 60 360 207 0 361
 +17 362 0 354 361 363 64 71 192 0 0 -17 67 0 0 0 0 64 361 202 0 362 +17 363 0 3
54 362 356 68 78 189 0 0 -17 71 0 0 0 0 68 362 192 0 363 +17 356 0 354 363 30 75
 197 186 0 0 -17 78 0 0 0 0 75 363 189 0 356 +17 30 0 354 356 31 72 22 11 0 197
 -17 197 0 0 0 0 72 356 186 0 0 +17 31 0 354 30 36 12 32 23 0 0 -14 255 17 3 165
 ?0 0 354 6 7 +0 0 0 0 6 81 1 165 562 27 17 0 0 163 14 364 81 1 14 563 27 1 365
 2 165 0 366 83 1 364 2474 81 1 365 398 367 1 368 14 0 0 369 83 1 366 2475 80 1
 367 370 371 9000 0 0 0 0 3 5 0 0 0 TTTFFFFFFFFFFFFFF1 81 1 368 298 372 1 373 36
5 0 0 374 82 255 1 369 3 80 1 372 375 376 8038 0 0 0 0 0 0 0 0 0 TTTTTTTTTTTTTFT
FT10 81 1 373 297 375 1 0 368 0 0 377 98 255 19 374 72 67 45 48 52 83 104 97 112
 101 83 116 114 105 110 103 48 49 48 80 1 375 378 379 8017 0 0 0 0 0 0 0 0 0 TTT
TTTTTTTTTTFTFT3 84 255 19 377 HC-04ShapeString01079 13 379 SDL/TYSA_NAME79 14 37
6 SDL/TYSA_UNAME79 23 371 ONSHAPE_ORIGINALBODY_ID17 82 0 0 0 0 79 146 162 0 161
 +83 1 166 2473 81 1 145 529 27 143 0 0 141 148 380 83 1 150 2442 81 1 141 528 2
7 139 0 0 137 145 381 83 1 380 2441 81 1 137 527 27 135 0 0 133 141 382 83 1 381
 2440 81 1 133 526 27 131 0 0 129 137 383 83 1 382 2439 81 1 129 525 27 127 0 0
 125 133 384 83 1 383 2438 81 1 125 524 27 123 0 0 121 129 385 83 1 384 2437 81
 1 121 523 27 119 0 0 117 125 386 83 1 385 2436 81 1 117 522 27 115 0 0 113 121
 387 83 1 386 2435 81 1 113 521 27 111 0 0 109 117 388 83 1 387 2434 81 1 109 52
0 27 107 0 0 105 113 389 83 1 388 2433 81 1 105 519 27 103 0 0 101 109 390 83 1
 389 2432 81 1 101 518 27 99 0 0 97 105 391 83 1 390 2431 81 1 97 517 27 95 0 0
 93 101 392 83 1 391 2430 81 1 93 516 27 91 0 0 89 97 393 83 1 392 2429 81 1 89
 515 27 87 0 0 85 93 394 83 1 393 2428 81 1 85 514 27 83 0 0 81 89 395 83 1 394
 2427 81 1 81 513 27 79 0 0 77 85 396 83 1 395 2426 81 1 77 512 27 75 0 0 74 81
 397 83 1 396 2425 81 1 74 511 27 72 0 0 70 77 398 83 1 397 2424 81 1 70 510 27
 68 0 0 66 74 399 83 1 398 2423 81 1 66 509 27 64 0 0 62 70 400 83 1 399 2422 81
 1 62 508 27 60 0 0 58 66 401 83 1 400 2421 81 1 58 507 27 56 0 0 54 62 402 83 1
 401 2420 81 1 54 506 27 52 0 0 50 58 403 83 1 402 2419 81 1 50 505 27 48 0 0 46
 54 404 83 1 403 2418 81 1 46 504 27 44 0 0 42 50 405 83 1 404 2417 81 1 42 503
 27 38 0 0 34 46 406 83 1 405 2416 81 1 34 502 27 33 0 0 28 42 407 83 1 406 2415
 83 1 407 2414 83 1 35 2413 83 1 29 2412 141 19 18 19 19 8 74 4 CI16 index_map_o
ffset0 0 1 dCCZ20 16 5 0 0 373 368 365 14 2 0 0 0 0 0 0 0 0 0 0 0 0 0 0 0 80 1 1
3 27 408 9000 0 0 0 0 3 5 0 0 0 FFTFTFTTFFFFFFFFF2 83 1 15 17325 79 18 408 BTI/i
mportMaxCount1 0 
