**ABCDEFGHIJKLMNOPQRSTUVWXYZabcdefghijklmnopqrstuvwxyz**************************
**PARASOLID !"#$%&'()*+,-./:;<=>?@[\]^_`{|}~0123456789**************************
**PART1;
MC=unknown;
MC_MODEL=unknown;
MC_ID=unknown;
OS=unknown;
OS_RELEASE=unknown;
FRU=Parasolid 37.0.173;
APPL=Onshape;
SITE=unknown;
USER=unknown;
FORMAT=text;
GUISE=transmit;
KEY=BTGapi::writeModels_.xmt;
FILE=BTGapi::writeModels_.xmt;
DATE=2024-12-29T04:00:26 (UTC);
**PART2;
SCH=SCH_3700173_36001;
USFLD_SIZE=0;
**PART3;
**END_OF_HEADER*****************************************************************
T51 : TRANSMIT FILE created by modeller version 370017323 SCH_3700173_36001_1300
6231 0 12 36 CCCI7 lattice222 0 CCCI4 mesh1006 0 I8 polyline1008 0 CCCCCCCDI5 ow
ner1040 0 CCCI16 boundary_lattice222 0 CCCI13 boundary_mesh1006 0 I17 boundary_p
olyline1008 0 CCCA16 index_map_offset0 0 1 dA9 index_map82 0 A17 node_id_index_m
ap82 0 A20 schema_embedding_map82 0 A5 child12 0 A14 lowest_node_id0 0 1 dA16 me
sh_offset_data206 0 Z1 95 2 3 0 0 0 0 0 0 0 1e3 1e-8 0 4 5 1 0 3 2 6 0 7 8 9 0 0
 10 11 12 0 0 0 0 0 0 0 81 255 1 2 84 13 1 14 0 0 0 15 70 11 CI9 list_type0 0 1
 uI10 notransmit0 0 1 lCCCDCCDI12 finger_index0 0 1 dI12 finger_block1012 0 CZ3
 0 4 T1 0 0 5 20 1 16 16 13 255 6 2 0 1 0 17 0 0 10 17 50 255 7 30 0 17 0 0 0 +.
002869375 0 68e-5 0 -1 0 1 0 0 30 255 8 38 0 1 18 0 19 +.003366875 0 68e-5 0 0 -
1 29 255 9 36 0 12 20 0 .003366875 0 48e-5 19 9 CCCCCCI5 frame230 0 CA5 owner12
 0 Z10 1 0 1 0 0 6 0 V0 16 255 11 12 21 ?22 0 23 18 0 0 1 18 255 12 11 24 22 0 2
5 9 5e-7 1 81 1 24 74 26 12 0 0 0 27 28 17 255 22 0 0 0 0 12 29 11 0 30 +18 25 9
 27 31 12 32 20 5e-7 1 81 1 27 75 26 25 0 0 24 33 34 17 31 0 0 0 0 25 30 23 0 35
 +18 32 7 33 29 25 36 37 5e-7 1 29 20 34 0 25 37 9 .002869375 0 48e-5 29 37 32 0
 32 38 20 .003366875 0 68e-5 29 38 31 0 36 0 37 .002869375 0 68e-5 18 36 6 39 40
 32 0 38 5e-7 1 81 1 39 77 26 36 0 0 33 21 41 17 40 0 0 0 0 36 35 42 0 43 +17 35
 0 44 30 43 25 40 42 0 0 -16 42 8 45 ?40 23 46 47 0 0 1 17 43 0 44 35 29 36 48 4
6 0 0 -15 255 44 4 0 43 17 0 17 29 0 44 43 30 32 22 11 0 48 -17 48 0 0 0 0 32 43
 46 0 0 +16 46 5 49 ?48 42 0 50 0 0 1 81 1 49 81 26 46 0 0 45 51 52 133 255 50 5
4 0 46 0 53 0 +53 .002869375 0 68e-5 .003366875 0 68e-5 0 4975e-7 30 53 33 0 1 5
0 47 54 +.002869375 0 68e-5 1 0 0 133 47 56 0 42 53 55 0 +55 .002869375 0 48e-5
 .002869375 0 68e-5 0 2e-4 141 255 54 50 54 54 53 30 55 35 0 1 47 56 57 +.002869
375 0 48e-5 0 0 1 133 56 58 0 23 55 58 0 +58 .003366875 0 48e-5 .002869375 0 48e
-5 0 4975e-7 141 57 47 57 57 55 16 23 10 59 ?31 11 42 56 0 0 1 30 58 37 0 1 56 1
8 60 +.003366875 0 48e-5 -1 0 0 133 18 60 0 11 58 8 0 +8 .003366875 0 68e-5 .003
366875 0 48e-5 0 2e-4 141 60 56 60 60 58 81 1 59 79 26 23 0 0 21 45 61 80 7 CCCC
CDI12 legal_owners0 17 1 lCZ1 26 62 63 9000 0 0 0 0 3 5 0 0 0 FFTFTFTTFFFFFFFFF2
 81 1 21 78 26 11 0 0 39 59 64 81 1 45 80 26 42 0 0 59 49 65 83 255 1 61 6449 83
 1 65 6450 83 1 64 6448 79 255 13 63 BTI/importTag81 1 51 82 26 17 0 0 49 14 66
 83 1 52 6451 14 255 17 3 51 ?0 0 44 6 7 +0 0 0 0 6 81 1 14 83 26 1 67 2 51 0 68
 83 1 66 6452 81 1 67 72 69 1 70 14 0 0 71 83 1 68 6453 80 1 69 72 73 9000 0 0 0
 0 3 5 0 0 0 TTTFFFFFFFFFFFFFF1 81 1 70 53 74 1 75 67 0 0 76 82 255 1 71 33 80 1
 74 77 78 8038 0 0 0 0 0 0 0 0 0 TTTTTTTTTTTTTFTFT10 81 1 75 52 77 1 0 70 0 0 79
 98 255 19 76 72 67 45 48 52 83 104 97 112 101 83 116 114 105 110 103 48 48 54 8
0 1 77 80 81 8017 0 0 0 0 0 0 0 0 0 TTTTTTTTTTTTTFTFT3 84 255 19 79 HC-04ShapeSt
ring00679 13 81 SDL/TYSA_NAME79 14 78 SDL/TYSA_UNAME79 23 73 ONSHAPE_ORIGINALBOD
Y_ID17 30 0 44 29 35 12 31 23 0 0 -81 1 33 76 26 32 0 0 27 39 82 83 1 41 6447 83
 1 82 6446 83 1 34 6445 83 1 28 6444 141 19 18 19 19 8 74 4 CI16 index_map_offse
t0 0 1 dCCZ20 16 5 0 0 75 70 67 14 2 0 0 0 0 0 0 0 0 0 0 0 0 0 0 0 80 1 13 26 83
 9000 0 0 0 0 3 5 0 0 0 FFTFTFTTFFFFFFFFF2 83 1 15 17325 79 18 83 BTI/importMaxC
ount1 0 
