**ABCDEFGHIJKLMNOPQRSTUVWXYZabcdefghijklmnopqrstuvwxyz**************************
**PARASOLID !"#$%&'()*+,-./:;<=>?@[\]^_`{|}~0123456789**************************
**PART1;
MC=unknown;
MC_MODEL=unknown;
MC_ID=unknown;
OS=unknown;
OS_RELEASE=unknown;
FRU=Parasolid 37.0.173;
APPL=Onshape;
SITE=unknown;
USER=unknown;
FORMAT=text;
GUISE=transmit;
KEY=BTGapi::writeModels_.xmt;
FILE=BTGapi::writeModels_.xmt;
DATE=2024-12-29T04:00:28 (UTC);
**PART2;
SCH=SCH_3700173_36001;
USFLD_SIZE=0;
**PART3;
**END_OF_HEADER*****************************************************************
T51 : TRANSMIT FILE created by modeller version 370017323 SCH_3700173_36001_1300
6231 0 12 36 CCCI7 lattice222 0 CCCI4 mesh1006 0 I8 polyline1008 0 CCCCCCCDI5 ow
ner1040 0 CCCI16 boundary_lattice222 0 CCCI13 boundary_mesh1006 0 I17 boundary_p
olyline1008 0 CCCA16 index_map_offset0 0 1 dA9 index_map82 0 A17 node_id_index_m
ap82 0 A20 schema_embedding_map82 0 A5 child12 0 A14 lowest_node_id0 0 1 dA16 me
sh_offset_data206 0 Z1 98 2 3 0 0 0 0 0 0 0 1e3 1e-8 0 4 5 1 0 1 2 6 0 7 8 0 0 0
 9 10 0 0 0 0 0 0 0 0 81 255 1 2 98 11 1 12 0 0 0 13 70 11 CI9 list_type0 0 1 uI
10 notransmit0 0 1 lCCCDCCDI12 finger_index0 0 1 dI12 finger_block1012 0 CZ3 0 4
 T1 0 0 6 20 1 14 14 13 255 6 15 0 1 0 15 0 0 16 0 50 255 7 45 0 15 17 0 0 +.017
508623 -.007 -41807e-9 0 1 0 -1 0 0 31 255 8 43 0 10 18 0 0 +.013008623 -.007 -4
1807e-9 0 -1 0 1 0 0 .0045 19 9 CCCCCCI5 frame230 0 CA5 owner12 0 Z9 1 0 1 16 0
 19 0 V0 16 255 10 9 20 ?21 0 22 8 0 0 1 81 1 20 82 23 10 0 0 0 24 25 17 255 21
 0 26 21 21 0 27 10 0 0 +16 22 5 24 ?28 10 0 18 0 0 1 81 1 24 83 23 22 0 0 20 29
 30 17 28 0 31 28 28 0 32 22 0 0 +31 18 40 0 22 0 8 0 +.013008623 0 -41807e-9 0
 -1 0 1 0 0 .0045 15 255 31 4 0 28 33 0 17 32 0 34 32 32 0 28 22 0 0 -15 34 11 0
 32 35 0 14 255 35 10 36 ?33 15 34 6 17 +0 0 33 15 19 81 1 36 85 23 35 0 0 29 37
 38 14 33 3 37 ?0 35 39 6 40 +0 0 0 35 19 14 15 12 29 ?35 0 26 6 7 -0 0 35 0 19
 50 17 44 0 35 40 7 0 +.017508623 0 -41807e-9 0 1 0 -1 0 0 13 19 2 0 0 0 0 0 0 9
 15 51 255 40 38 0 33 0 17 0 +.013008623 0 -41807e-9 0 1 0 .0045 1 0 0 81 1 29 8
4 23 15 0 0 24 36 41 15 26 13 0 21 15 0 80 7 CCCCCDI12 legal_owners0 17 1 lCZ1 2
3 42 43 9000 0 0 0 0 3 5 0 0 0 FFTFTFTTFFFFFFFFF2 83 255 1 41 16393 79 255 13 43
 BTI/importTag81 1 37 86 23 33 0 0 36 44 45 15 39 77 0 27 33 31 17 27 0 39 27 27
 0 21 10 0 0 -81 1 44 87 23 1 46 47 37 0 48 83 1 45 16395 81 1 46 80 49 1 0 44 0
 0 50 81 1 47 88 51 1 44 52 0 0 53 83 1 48 16396 80 1 51 23 54 9000 0 0 0 0 3 5
 0 0 0 FFTFTFTTFFFFFFFFF2 81 1 52 96 55 1 47 12 0 0 56 83 1 53 17325 80 1 55 57
 58 8040 0 0 0 0 3 5 0 0 0 TTTFFFFFFFFFFFFFF2 81 1 12 97 59 1 52 2 0 0 60 83 3 5
6 .8 .8 .8 80 1 59 11 61 8038 0 0 0 0 0 0 0 0 0 TTTTTTTTTTTTTFTFT10 98 255 11 60
 72 67 45 48 52 80 97 100 48 48 54 79 14 61 SDL/TYSA_UNAME79 17 58 SDL/TYSA_COLO
UR_279 18 54 BTI/importMaxCount80 1 49 62 63 9000 0 0 0 0 3 5 0 0 0 TTTFFFFFFFFF
FFFFF1 82 255 1 50 47 79 23 63 ONSHAPE_ORIGINALBODY_ID83 1 38 16394 83 1 30 1639
2 83 1 25 16391 19 16 14 0 1 0 9 6 0 S0 74 4 CI16 index_map_offset0 0 1 dCCZ20 1
4 6 0 0 46 44 47 52 12 2 0 0 0 0 0 0 0 0 0 0 0 0 0 0 80 1 11 64 65 8017 0 0 0 0
 0 0 0 0 0 TTTTTTTTTTTTTFTFT3 84 255 11 13 HC-04Pad00679 13 65 SDL/TYSA_NAME1 0
 
