**ABCDEFGHIJKLMNOPQRSTUVWXYZabcdefghijklmnopqrstuvwxyz**************************
**PARASOLID !"#$%&'()*+,-./:;<=>?@[\]^_`{|}~0123456789**************************
**PART1;
MC=unknown;
MC_MODEL=unknown;
MC_ID=unknown;
OS=unknown;
OS_RELEASE=unknown;
FRU=Parasolid 37.0.173;
APPL=Onshape;
SITE=unknown;
USER=unknown;
FORMAT=text;
GUISE=transmit;
KEY=BTGapi::writeModels_.xmt;
FILE=BTGapi::writeModels_.xmt;
DATE=2024-12-29T04:00:25 (UTC);
**PART2;
SCH=SCH_3700173_36001;
USFLD_SIZE=0;
**PART3;
**END_OF_HEADER*****************************************************************
T51 : TRANSMIT FILE created by modeller version 370017323 SCH_3700173_36001_1300
6231 0 12 36 CCCI7 lattice222 0 CCCI4 mesh1006 0 I8 polyline1008 0 CCCCCCCDI5 ow
ner1040 0 CCCI16 boundary_lattice222 0 CCCI13 boundary_mesh1006 0 I17 boundary_p
olyline1008 0 CCCA16 index_map_offset0 0 1 dA9 index_map82 0 A17 node_id_index_m
ap82 0 A20 schema_embedding_map82 0 A5 child12 0 A14 lowest_node_id0 0 1 dA16 me
sh_offset_data206 0 Z1 143 2 3 0 0 0 0 0 0 0 1e3 1e-8 0 4 5 1 0 1 2 6 0 7 8 0 0
 0 9 10 0 0 0 0 0 0 0 0 81 255 1 2 134 11 1 12 0 0 0 13 70 11 CI9 list_type0 0 1
 uI10 notransmit0 0 1 lCCCDCCDI12 finger_index0 0 1 dI12 finger_block1012 0 CZ3
 0 4 T1 0 0 5 20 1 14 14 13 255 6 22 0 1 0 15 0 0 16 0 50 255 7 71 0 15 17 0 0 +
.00700465881284051 .0118418648140324 .0112013404070074 1 0 0 0 -222044604925031e
-30 1 31 255 8 69 0 10 18 0 0 +.00700465881284051 .0118418648140324 .01120134040
70074 1 0 0 0 -222044604925031e-30 1 .001 19 9 CCCCCCI5 frame230 0 CA5 owner12 0
 Z9 1 0 1 16 0 19 0 V0 16 255 10 16 20 ?21 0 22 8 0 0 1 81 1 20 126 23 10 0 0 0
 24 25 17 255 21 0 26 21 21 0 27 10 0 0 +16 22 9 24 ?28 10 29 30 0 0 1 81 1 24 1
27 23 22 0 0 20 31 32 17 28 0 33 28 28 0 34 22 0 0 +16 29 5 31 ?35 22 0 18 0 0 1
 31 30 64 0 22 0 18 0 +.0347546588128405 .0118418648140324 .0112013404070074 1 0
 0 0 0 1 .001 31 18 60 0 29 30 8 0 +.0350046588128405 .0118418648140324 .0112013
404070074 -1 0 0 0 0 1 75e-5 81 1 31 128 23 29 0 0 24 36 37 17 35 0 38 35 35 0 3
9 29 0 0 +15 255 38 4 0 35 40 0 17 39 0 41 39 39 0 35 29 0 0 -15 41 18 0 39 42 0
 14 255 42 17 43 ?44 15 41 6 17 +0 0 44 15 19 81 1 43 130 23 42 0 0 36 45 46 14
 44 12 45 ?40 42 26 6 47 +0 0 40 42 19 14 15 19 36 ?42 0 48 6 7 -0 0 42 0 19 50
 17 70 0 42 47 7 0 +.0350046588128405 .0118418648140324 .0112013404070074 1 0 0
 0 -222044604925031e-30 1 13 19 2 0 0 0 0 0 0 9 15 51 255 47 66 0 44 49 17 0 +.0
0700465881284051 .0118418648140324 .0112013404070074 1 0 0 .001 0 -2220446049250
31e-30 1 54 255 49 58 0 40 0 47 0 +.0347546588128405 .0118418648140324 .01120134
04070074 1 0 0 75e-5 25e-5 0 1 0 14 40 3 50 ?0 44 33 6 49 +0 0 0 44 19 81 1 50 1
32 23 40 0 0 45 12 51 15 33 121 0 28 40 38 80 7 CCCCCDI12 legal_owners0 17 1 lCZ
1 23 52 53 9000 0 0 0 0 3 5 0 0 0 FFTFTFTTFFFFFFFFF2 81 1 45 131 23 44 0 0 43 50
 54 81 1 12 133 23 1 55 2 50 0 56 83 255 1 51 418 81 1 55 124 57 1 58 12 0 0 59
 83 1 56 419 80 1 57 60 61 9000 0 0 0 0 3 5 0 0 0 TTTFFFFFFFFFFFFFF1 81 1 58 91
 62 1 63 55 0 0 64 82 255 1 59 0 80 1 62 65 66 8038 0 0 0 0 0 0 0 0 0 TTTTTTTTTT
TTTFTFT10 81 1 63 90 65 1 0 58 0 0 67 98 255 20 64 79 110 101 32 115 105 100 101
 32 84 84 32 77 111 116 111 114 32 118 49 80 1 65 68 69 8017 0 0 0 0 0 0 0 0 0 T
TTTTTTTTTTTTFTFT3 84 255 20 67 One side TT Motor v179 255 13 69 SDL/TYSA_NAME79
 14 66 SDL/TYSA_UNAME79 23 61 ONSHAPE_ORIGINALBODY_ID83 1 54 417 79 13 53 BTI/im
portTag81 1 36 129 23 15 0 0 31 43 70 15 48 20 0 27 15 0 17 27 0 48 27 27 0 21 1
0 0 0 -83 1 70 415 15 26 120 0 21 44 71 15 71 13 0 34 44 0 17 34 0 71 34 34 0 28
 22 0 0 -83 1 46 416 83 1 37 414 83 1 32 413 83 1 25 412 19 16 21 0 1 0 9 6 0 S0
 74 4 CI16 index_map_offset0 0 1 dCCZ20 14 5 0 0 63 58 55 12 2 0 0 0 0 0 0 0 0 0
 0 0 0 0 0 0 80 1 11 23 72 9000 0 0 0 0 3 5 0 0 0 FFTFTFTTFFFFFFFFF2 83 1 13 123
7 79 18 72 BTI/importMaxCount1 0 
