**ABCDEFGHIJKLMNOPQRSTUVWXYZabcdefghijklmnopqrstuvwxyz**************************
**PARASOLID !"#$%&'()*+,-./:;<=>?@[\]^_`{|}~0123456789**************************
**PART1;
MC=unknown;
MC_MODEL=unknown;
MC_ID=unknown;
OS=unknown;
OS_RELEASE=unknown;
FRU=Parasolid 37.0.173;
APPL=Onshape;
SITE=unknown;
USER=unknown;
FORMAT=text;
GUISE=transmit;
KEY=BTGapi::writeModels_.xmt;
FILE=BTGapi::writeModels_.xmt;
DATE=2024-12-29T04:00:28 (UTC);
**PART2;
SCH=SCH_3700173_36001;
USFLD_SIZE=0;
**PART3;
**END_OF_HEADER*****************************************************************
T51 : TRANSMIT FILE created by modeller version 370017323 SCH_3700173_36001_1300
6231 0 12 36 CCCI7 lattice222 0 CCCI4 mesh1006 0 I8 polyline1008 0 CCCCCCCDI5 ow
ner1040 0 CCCI16 boundary_lattice222 0 CCCI13 boundary_mesh1006 0 I17 boundary_p
olyline1008 0 CCCA16 index_map_offset0 0 1 dA9 index_map82 0 A17 node_id_index_m
ap82 0 A20 schema_embedding_map82 0 A5 child12 0 A14 lowest_node_id0 0 1 dA16 me
sh_offset_data206 0 Z1 387 2 3 0 0 0 0 0 0 0 1e3 1e-8 0 4 5 1 0 3 2 6 0 7 8 9 0
 0 10 11 12 0 0 0 0 0 0 0 81 255 1 2 346 13 1 14 0 0 0 15 70 11 CI9 list_type0 0
 1 uI10 notransmit0 0 1 lCCCDCCDI12 finger_index0 0 1 dI12 finger_block1012 0 CZ
3 0 4 T1 0 0 5 20 1 16 16 13 255 6 2 0 1 0 17 0 0 10 17 50 255 7 105 0 17 0 0 0
 +.0012005 0 6635e-7 0 -1 0 1 0 0 31 255 8 305 0 1 18 0 19 +.001403060724264546
 1271512183316302e-35 .00058327918449256 -162361519102445e-31 1 590405524008889e
-31 -.530778978268922 -586552832715888e-31 .847510280897995 .000216777093621538
 29 255 9 141 0 12 20 0 .001408 0 8e-4 19 9 CCCCCCI5 frame230 0 CA5 owner12 0 Z1
0 1 0 1 0 0 6 0 V0 16 255 11 42 21 ?22 0 23 18 0 0 1 18 255 12 41 24 22 0 25 9 5
e-7 1 81 1 24 306 26 12 0 0 0 27 28 17 255 22 0 0 0 0 12 29 11 0 30 +18 25 39 27
 31 12 32 20 5e-7 1 81 1 27 307 26 25 0 0 24 33 34 17 31 0 0 0 0 25 30 23 0 35 +
18 32 37 33 36 25 37 38 5e-7 1 29 20 139 0 25 38 9 .0014955 0 7895e-7 29 38 137
 0 32 39 20 .0014835 0 6565e-7 29 39 135 0 37 40 38 .001472 0 638e-6 18 37 35 41
 42 32 43 39 5e-7 1 29 40 133 0 43 44 39 .0014525 0 6325e-7 18 43 33 45 46 37 47
 40 5e-7 1 29 44 131 0 47 48 40 .001418 0 636e-6 18 47 31 49 50 43 51 44 5e-7 1
 29 48 129 0 51 52 44 .001374 0 64e-5 18 51 29 53 54 47 55 48 5e-7 1 29 52 127 0
 55 56 48 .001318 0 6305e-7 18 55 27 57 58 51 59 52 5e-7 1 29 56 125 0 59 60 52
 .001274 0 6025e-7 18 59 25 61 62 55 63 56 5e-7 1 29 60 123 0 63 64 56 .0012395
 0 559e-6 18 63 23 65 66 59 67 60 5e-7 1 29 64 121 0 67 68 60 .0012115 0 5005e-7
 18 67 21 69 70 63 71 64 5e-7 1 29 68 119 0 71 72 64 .0012115 0 -222044604925e-3
0 18 71 19 73 74 67 75 68 5e-7 1 29 72 117 0 75 76 68 .0010215 0 -222044604925e-
30 18 75 17 77 78 71 79 72 5e-7 1 29 76 115 0 79 80 72 .0010215 0 8e-4 18 79 15
 81 82 75 83 76 5e-7 1 29 80 113 0 83 84 76 .001133 0 8e-4 18 83 13 85 86 79 87
 80 5e-7 1 29 84 111 0 87 88 80 .0011735 0 7895e-7 18 87 11 89 90 83 91 84 5e-7
 1 29 88 109 0 91 92 84 .001189 0 7525e-7 18 91 9 93 94 87 95 88 5e-7 1 29 92 10
7 0 95 96 88 .001288 0 767e-6 18 95 7 97 29 91 98 92 5e-7 1 29 96 106 0 98 0 92
 .0012005 0 6635e-7 18 98 6 99 100 95 0 96 5e-7 1 81 1 99 324 26 98 0 0 97 21 10
1 17 100 0 0 0 0 98 102 103 0 104 +17 102 0 105 106 104 91 100 103 0 0 -16 103 8
 107 ?100 108 109 110 0 0 1 17 104 0 105 102 29 98 111 109 0 0 -15 255 105 4 0 1
04 17 0 17 29 0 105 104 30 95 22 11 0 111 -17 111 0 0 0 0 95 104 109 0 0 +16 109
 5 112 ?111 103 0 113 0 0 1 81 1 112 343 26 109 0 0 107 114 115 133 255 113 256
 0 109 116 117 0 +117 .0012005 -601853107621011e-50 6635e-7 .001288 -60185310762
1011e-50 767e-6 909143773046481e-48 .506310958781226 30 255 116 140 0 1 118 113
 119 +.0014955 0 7895e-7 -.0898605435559956 0 -.995954357745284 31 117 257 0 1 1
13 120 121 +.00144428412535282 1603915351545255e-35 .000546139024460175 -4676106
13108526e-31 1 3953229820965805e-32 -.901025600880132 -592806767583979e-31 .4337
65912167609 .0002705629286389755 133 120 260 0 108 117 122 0 +122 .0011735 15046
3276905253e-50 7895e-7 .001189 150463276905253e-50 7525e-7 0 .693162431811409 14
1 255 121 113 121 121 117 16 108 10 123 ?94 124 103 120 0 0 1 31 122 261 0 1 120
 125 126 +.001130026021870776 3400667683072445e-36 .000749541306459379 564768962
052414e-31 1 2365924030219555e-32 .736246240897012 -575914352894011e-31 .6767137
30291487 590481495379277e-19 133 125 264 0 124 122 127 0 +127 .001133 3761581922
63132e-50 8e-4 .0011735 0 7895e-7 1372452513511364e-32 .691621864851743 141 126
 120 126 126 122 16 124 12 128 ?90 129 108 125 0 0 1 31 127 265 0 1 125 130 131
 +.001138678343095944 3555343377725035e-36 .000738545037655783 1536700022308015e
-32 1 592727151461657e-31 -.0920065303229347 -576074398401146e-31 .9957584036190
38 617167398445868e-19 133 130 268 0 132 127 133 0 +133 .0012395 601853107621011
e-50 559e-6 .0012115 601853107621011e-50 5005e-7 0 .155462898539616 141 131 125
 131 131 127 16 132 22 134 ?70 135 136 130 0 0 1 31 133 269 0 1 130 137 138 +.00
1601037382782645 254932794138481e-34 .0003500056116595895 552317980006094e-31 -1
 -2643573237636005e-32 -.86575497150609 -610474447280101e-31 .500468110185344 .0
00417597813101441 133 137 272 0 135 133 139 0 +139 .001274 150463276905253e-50 6
025e-7 .0012395 150463276905253e-50 559e-6 543607911140478e-48 .294196176879298
 141 138 130 138 138 133 16 135 24 140 ?66 141 132 137 0 0 1 31 139 273 0 1 137
 142 143 +.001403542518322198 114722093313001e-34 .000464328347537568 4797539624
1819e-30 -1 -3804945219178725e-32 -.6839596584771 -605710656071849e-31 .72951983
2201901 .000189400817309367 133 142 276 0 141 139 144 0 +144 .001318 15046327690
5253e-50 6305e-7 .001274 150463276905253e-50 6025e-7 716755131227655e-48 .392317
24311011 141 143 137 143 143 139 16 141 26 145 ?62 146 135 142 0 0 1 31 144 277
 0 1 142 147 148 +.001366453047730812 803539187840893e-35 .000505788067851581 32
87414265275045e-32 -1 -516593670257511e-31 -.3621473552934405 -600580573110517e-
31 .932120857536171 .0001337937362307968 133 147 280 0 146 144 149 0 +149 .00137
4 -150463276905253e-50 64e-5 .001318 -150463276905253e-50 6305e-7 27412227206075
4e-32 .369742772138395 141 148 142 148 148 144 16 146 28 150 ?58 151 141 147 0 0
 1 31 149 281 0 1 147 152 153 +.001371400155939968 929913692348328e-35 .00048552
2764985454 1024130859281784e-32 -1 -603698190734519e-31 .01682756646125265 -6018
89347972194e-31 .999858406479133 .000154499111087656 133 152 284 0 151 149 154 0
 +154 .001418 0 636e-6 .001374 0 64e-5 -220907220343744e-19 2209072203437465e-20
 141 153 147 153 153 149 16 151 30 155 ?54 156 146 152 0 0 1 30 154 285 0 1 152
 157 158 +.001396 0 638e-6 -.995893206467704 0 .0905357460425183 133 157 288 0 1
56 154 159 0 +159 .0014525 0 6325e-7 .001418 0 636e-6 -173385408843996e-19 17338
5408843996e-19 141 158 152 158 158 154 16 156 32 160 ?50 161 151 157 0 0 1 30 15
9 289 0 1 157 162 163 +.00143525 0 63425e-8 -.994893406256614 0 .100931215127487
2 133 162 292 0 161 159 164 0 +164 .001472 752316384526264e-51 638e-6 .0014525 3
76158192263132e-50 6325e-7 2013345952628025e-30 .662862179907502 141 163 157 163
 163 159 16 161 34 165 ?46 166 156 162 0 0 1 31 164 293 0 1 162 167 168 +.001454
258709470642 180256804291119e-35 .000663582757331358 1662214110949845e-32 1 -589
330457518578e-31 .569864483501321 -578999315213161e-31 -.821738687444964 3113247
27948524e-19 133 167 296 0 166 164 169 0 +169 .0014835 -82754802297889e-49 6565e
-7 .001472 -526621469168385e-50 638e-6 1105823745183106e-48 .630894283962248 141
 168 162 168 168 164 16 166 36 170 ?42 171 161 167 0 0 1 31 169 297 0 1 167 172
 173 +.001449405687897416 204358712301128e-35 .000664869437252958 52003727758902
3e-31 1 -3232664157985825e-32 .971166794593934 -58210998648596e-30 -.23840104252
73825 351065463650241e-19 133 172 300 0 23 169 174 0 +174 .001408 0 8e-4 .001495
5 3009265538105055e-51 7895e-7 0 .2950424065292765 141 173 167 173 173 169 16 23
 40 175 ?31 11 171 172 0 0 1 31 174 301 0 1 172 18 176 +.00141642043291872 18156
93529995365e-35 .000500336940989336 729554065320337e-32 1 607961721100276e-31 -.
0280885824334054 -605672628514068e-31 .999605437928827 .0002997813413576095 133
 18 304 0 11 174 8 0 +8 .001288 150463276905253e-50 767e-6 .001408 -150463276905
253e-50 8e-4 0 .582306454846705 141 176 172 176 176 174 81 1 175 326 26 23 0 0 2
1 177 178 16 171 38 177 ?36 23 166 118 0 0 1 81 1 177 327 26 171 0 0 175 170 179
 17 36 0 0 0 0 32 35 171 0 180 +133 118 221 0 171 181 116 0 +116 .0014955 0 7895
e-7 .0014835 0 6565e-7 0 .0001335402561027946 30 181 122 0 1 182 118 183 +.00121
15 0 5005e-7 0 0 -1 133 182 203 0 136 184 181 0 +181 .0012115 0 5005e-7 .0012115
 0 -216840434497101e-33 0 5005e-7 141 183 182 183 183 181 16 136 20 185 ?74 132
 186 182 0 0 1 30 184 120 0 1 187 182 188 +.0012115 0 0 -1 0 0 133 187 201 0 186
 189 184 0 +184 .0012115 0 0 .0010215 0 0 0 19e-5 141 188 187 188 188 184 16 186
 18 190 ?78 136 191 187 0 0 1 30 189 118 0 1 192 187 193 +.0010215 0 0 0 0 1 133
 192 199 0 191 194 189 0 +189 .0010215 0 -222044604925e-30 .0010215 0 8e-4 -2220
44604925e-30 8e-4 141 193 192 193 193 189 16 191 16 195 ?82 186 129 192 0 0 1 30
 194 116 0 1 196 192 197 +.0010215 0 8e-4 1 0 0 133 196 197 0 129 198 194 0 +194
 .0010215 0 8e-4 .001133 0 8e-4 0 1115e-7 141 197 196 197 197 194 16 129 14 199
 ?86 191 124 196 0 0 1 30 198 110 0 1 110 196 200 +.001189 0 7525e-7 .1281481230
92971 0 -.991755039587775 133 110 191 0 103 0 198 0 +198 .001189 0 7525e-7 .0012
00500000000014 0 6635e-7 0 89739901938881e-18 141 200 110 200 200 198 81 1 199 3
39 26 129 0 0 195 128 201 17 86 0 0 0 0 83 202 129 0 203 +17 202 0 105 204 203 7
9 86 129 0 0 -17 203 0 105 202 106 83 90 124 0 0 -17 106 0 105 203 102 87 94 108
 0 0 -17 90 0 0 0 0 87 203 124 0 106 +17 94 0 0 0 0 91 106 108 0 102 +17 204 0 1
05 205 202 75 82 191 0 0 -17 205 0 105 206 204 71 78 186 0 0 -17 82 0 0 0 0 79 2
04 191 0 202 +17 206 0 105 207 205 67 74 136 0 0 -17 78 0 0 0 0 75 205 186 0 204
 +17 207 0 105 208 206 63 70 132 0 0 -17 74 0 0 0 0 71 206 136 0 205 +17 208 0 1
05 209 207 59 66 135 0 0 -17 70 0 0 0 0 67 207 132 0 206 +17 209 0 105 210 208 5
5 62 141 0 0 -17 66 0 0 0 0 63 208 135 0 207 +17 210 0 105 211 209 51 58 146 0 0
 -17 62 0 0 0 0 59 209 141 0 208 +17 211 0 105 212 210 47 54 151 0 0 -17 58 0 0
 0 0 55 210 146 0 209 +17 212 0 105 213 211 43 50 156 0 0 -17 54 0 0 0 0 51 211
 151 0 210 +17 213 0 105 180 212 37 46 161 0 0 -17 50 0 0 0 0 47 212 156 0 211 +
17 180 0 105 35 213 32 42 166 0 0 -17 46 0 0 0 0 43 213 161 0 212 +17 35 0 105 3
0 180 25 36 171 0 0 -17 42 0 0 0 0 37 180 166 0 213 +17 30 0 105 29 35 12 31 23
 0 0 -80 7 CCCCCDI12 legal_owners0 17 1 lCZ1 26 214 215 9000 0 0 0 0 3 5 0 0 0 F
FTFTFTTFFFFFFFFF2 81 1 195 338 26 191 0 0 190 199 216 81 1 128 340 26 124 0 0 19
9 123 217 83 255 1 201 3007 81 1 123 341 26 108 0 0 128 107 218 83 1 217 3008 81
 1 107 342 26 103 0 0 123 112 219 83 1 218 3009 83 1 219 3010 81 1 190 337 26 18
6 0 0 185 195 220 83 1 216 3006 81 1 185 336 26 136 0 0 134 190 221 83 1 220 300
5 81 1 134 335 26 132 0 0 140 185 222 83 1 221 3004 81 1 140 334 26 135 0 0 145
 134 223 83 1 222 3003 81 1 145 333 26 141 0 0 150 140 224 83 1 223 3002 81 1 15
0 332 26 146 0 0 155 145 225 83 1 224 3001 81 1 155 331 26 151 0 0 160 150 226 8
3 1 225 3e3 81 1 160 330 26 156 0 0 165 155 227 83 1 226 2999 81 1 165 329 26 16
1 0 0 170 160 228 83 1 227 2998 81 1 170 328 26 166 0 0 177 165 229 83 1 228 299
7 83 1 229 2996 79 255 13 215 BTI/importTag83 1 179 2995 81 1 21 325 26 11 0 0 9
9 175 230 83 1 178 2994 83 1 230 2993 141 119 118 119 119 116 81 1 114 344 26 17
 0 0 112 14 231 83 1 115 3011 14 255 17 3 114 ?0 0 105 6 7 +0 0 0 0 6 81 1 14 34
5 26 1 232 2 114 0 233 83 1 231 3012 81 1 232 252 234 1 235 14 0 0 236 83 1 233
 3013 80 1 234 237 238 9000 0 0 0 0 3 5 0 0 0 TTTFFFFFFFFFFFFFF1 81 1 235 188 23
9 1 240 232 0 0 241 82 255 1 236 5 80 1 239 242 243 8038 0 0 0 0 0 0 0 0 0 TTTTT
TTTTTTTTFTFT10 81 1 240 187 242 1 0 235 0 0 244 98 255 19 241 72 67 45 48 52 83
 104 97 112 101 83 116 114 105 110 103 48 48 56 80 1 242 245 246 8017 0 0 0 0 0
 0 0 0 0 TTTTTTTTTTTTTFTFT3 84 255 19 244 HC-04ShapeString00879 13 246 SDL/TYSA_
NAME79 14 243 SDL/TYSA_UNAME79 23 238 ONSHAPE_ORIGINALBODY_ID81 1 97 323 26 95 0
 0 93 99 247 83 1 101 2992 81 1 93 322 26 91 0 0 89 97 248 83 1 247 2991 81 1 89
 321 26 87 0 0 85 93 249 83 1 248 2990 81 1 85 320 26 83 0 0 81 89 250 83 1 249
 2989 81 1 81 319 26 79 0 0 77 85 251 83 1 250 2988 81 1 77 318 26 75 0 0 73 81
 252 83 1 251 2987 81 1 73 317 26 71 0 0 69 77 253 83 1 252 2986 81 1 69 316 26
 67 0 0 65 73 254 83 1 253 2985 81 1 65 315 26 63 0 0 61 69 255 83 1 254 2984 81
 1 61 314 26 59 0 0 57 65 256 83 1 255 2983 81 1 57 313 26 55 0 0 53 61 257 83 1
 256 2982 81 1 53 312 26 51 0 0 49 57 258 83 1 257 2981 81 1 49 311 26 47 0 0 45
 53 259 83 1 258 2980 81 1 45 310 26 43 0 0 41 49 260 83 1 259 2979 81 1 41 309
 26 37 0 0 33 45 261 83 1 260 2978 81 1 33 308 26 32 0 0 27 41 262 83 1 261 2977
 83 1 262 2976 83 1 34 2975 83 1 28 2974 141 19 18 19 19 8 74 4 CI16 index_map_o
ffset0 0 1 dCCZ20 16 5 0 0 240 235 232 14 2 0 0 0 0 0 0 0 0 0 0 0 0 0 0 0 80 1 1
3 26 263 9000 0 0 0 0 3 5 0 0 0 FFTFTFTTFFFFFFFFF2 83 1 15 17325 79 18 263 BTI/i
mportMaxCount1 0 
