**ABCDEFGHIJKLMNOPQRSTUVWXYZabcdefghijklmnopqrstuvwxyz**************************
**PARASOLID !"#$%&'()*+,-./:;<=>?@[\]^_`{|}~0123456789**************************
**PART1;
MC=unknown;
MC_MODEL=unknown;
MC_ID=unknown;
OS=unknown;
OS_RELEASE=unknown;
FRU=Parasolid 37.0.173;
APPL=Onshape;
SITE=unknown;
USER=unknown;
FORMAT=text;
GUISE=transmit;
KEY=BTGapi::writeModels_.xmt;
FILE=BTGapi::writeModels_.xmt;
DATE=2024-12-29T04:00:26 (UTC);
**PART2;
SCH=SCH_3700173_36001;
USFLD_SIZE=0;
**PART3;
**END_OF_HEADER*****************************************************************
T51 : TRANSMIT FILE created by modeller version 370017323 SCH_3700173_36001_1300
6231 0 12 36 CCCI7 lattice222 0 CCCI4 mesh1006 0 I8 polyline1008 0 CCCCCCCDI5 ow
ner1040 0 CCCI16 boundary_lattice222 0 CCCI13 boundary_mesh1006 0 I17 boundary_p
olyline1008 0 CCCA16 index_map_offset0 0 1 dA9 index_map82 0 A17 node_id_index_m
ap82 0 A20 schema_embedding_map82 0 A5 child12 0 A14 lowest_node_id0 0 1 dA16 me
sh_offset_data206 0 Z1 864 2 3 0 0 0 0 0 0 0 1e3 1e-8 0 4 5 1 0 1 2 6 0 7 8 9 0
 0 10 11 12 0 0 0 0 0 0 0 81 255 1 2 864 13 1 14 0 0 0 15 70 11 CI9 list_type0 0
 1 uI10 notransmit0 0 1 lCCCDCCDI12 finger_index0 0 1 dI12 finger_block1012 0 CZ
3 0 4 T1 0 0 6 20 1 16 16 13 255 6 114 0 1 0 17 0 0 18 0 50 255 7 407 0 17 19 0
 0 +-.00509 -1555301434917e-31 -.00713 -1224646799147e-28 1 2719262146894e-44 -2
22044604925e-27 138542438015864e-58 -1 30 255 8 360 0 1 20 0 21 +-.005465 -20145
43984597e-31 -.008775 .707106781186548 865956056234945e-31 -.707106781186548 29
 255 9 356 0 22 23 0 -.00509 -7106416558043e-31 -.00915 19 9 CCCCCCI5 frame230 0
 CA5 owner12 0 Z10 1 0 1 18 0 24 0 V0 16 255 11 110 25 ?26 0 27 28 0 0 1 18 255
 12 86 29 30 0 31 23 5e-7 1 81 1 29 678 32 12 0 0 0 33 34 17 255 30 0 35 36 37 1
2 26 11 0 38 -18 31 80 33 39 12 40 41 5e-7 1 29 23 389 0 12 41 9 -.00255 1555301
434917e-31 -.00915 29 41 384 0 31 42 23 -.00255 1555301434917e-31 -.00765 29 42
 350 0 43 44 41 -.00509 -7195234400013e-31 -.00765 18 43 40 45 46 47 48 42 5e-7
 1 29 44 368 0 49 50 42 -.00342 2e-4 -.008 18 49 61 51 52 53 54 44 5e-7 1 29 50
 344 0 55 56 44 -.00342 .00254 -.008 18 55 33 57 58 48 59 50 5e-7 1 29 56 367 0
 54 60 50 -.00422 2e-4 -.008 18 54 60 61 62 49 63 56 5e-7 1 29 60 346 0 48 64 56
 -.00422 .00254 -.008 18 48 35 65 66 43 55 60 5e-7 1 29 64 372 0 67 68 60 -.0042
2 2e-4 -.0088 18 67 65 69 70 71 53 64 5e-7 1 29 68 370 0 53 72 64 -.00342 2e-4 -
.0088 18 53 63 73 74 67 49 68 5e-7 1 29 72 342 0 59 75 68 -.00342 .00254 -.0088
 18 59 31 76 77 55 78 72 5e-7 1 29 75 341 0 78 79 72 -.00422 .00254 -.0088 18 78
 30 80 81 59 82 75 5e-7 1 29 79 363 0 63 83 75 -.00255 2e-4 -.00915 18 63 55 84
 36 54 85 79 5e-7 1 29 83 362 0 85 86 79 -.00255 2e-4 -.00765 18 85 54 87 88 63
 89 83 5e-7 1 29 86 334 0 90 91 83 -.00255 .00254 -.00915 18 90 22 92 93 94 95 8
6 5e-7 1 29 91 380 0 40 96 86 -.00307 9184850993605e-32 -.00967 18 40 75 97 98 3
1 71 91 5e-7 1 29 96 376 0 71 99 91 -.00307 9184850993605e-32 -.00713 18 71 70 1
00 101 40 67 96 5e-7 1 29 99 332 0 95 102 96 -.00255 .00254 -.00765 18 95 20 103
 104 90 105 99 5e-7 1 29 102 336 0 94 106 99 -.00307 .00254 -.00967 18 94 24 107
 108 82 90 102 5e-7 1 29 106 358 0 89 109 102 -.00457 -9184850993605e-32 -.00967
 18 89 49 110 111 85 22 106 5e-7 1 29 109 352 0 47 112 106 -.00457 -918485099360
5e-32 -.00713 18 47 42 113 114 22 43 109 5e-7 1 29 112 330 0 105 115 109 -.00307
 .00254 -.00713 18 105 18 116 117 95 118 112 5e-7 1 29 115 338 0 82 119 112 -.00
457 .00254 -.00967 18 82 26 120 121 78 94 115 5e-7 1 29 119 322 0 122 123 115 -.
00509 2e-4 -.00915 18 122 9 124 125 126 127 119 5e-7 1 29 123 324 0 126 128 119
 -.00509 2e-4 -.00765 18 126 11 129 130 118 122 123 5e-7 1 29 128 328 0 118 131
 123 -.00457 .00254 -.00713 18 118 16 132 133 105 126 128 5e-7 1 29 131 320 0 12
7 134 128 -.00509 .00254 -.00915 18 127 7 135 136 122 137 131 5e-7 1 29 134 319
 0 137 0 131 -.00509 .00254 -.00765 18 137 6 138 139 127 0 134 5e-7 1 81 1 138 7
05 32 137 0 0 135 25 140 17 139 0 141 142 133 137 143 144 0 145 -15 255 141 38 0
 146 147 0 17 142 0 141 146 139 126 145 148 0 149 -17 133 0 141 139 150 118 151
 152 0 153 +17 143 0 154 155 156 118 139 144 0 0 +16 144 15 157 ?143 158 148 159
 0 0 1 17 145 0 160 161 149 137 142 148 0 156 +15 160 4 0 161 162 0 17 161 0 160
 163 145 127 156 164 0 0 +17 149 0 160 145 163 126 165 166 0 0 +16 148 12 167 ?1
45 144 166 168 0 0 1 17 156 0 154 143 136 137 161 164 0 0 -15 154 14 0 156 169 0
 17 136 0 154 156 170 127 171 172 0 173 -16 164 5 174 ?161 175 0 176 0 0 1 81 1
 174 749 32 164 0 0 177 178 179 16 175 8 177 ?173 166 164 180 0 0 1 133 255 176
 507 0 164 0 181 0 +181 -.00509 .00254 -.00765 -.00509 .00254 -.00915 52e-5 .002
02 30 181 321 0 1 176 159 182 +-.00509 .00254 -.00713 -222044604925e-27 0 -1 133
 159 511 0 144 181 183 0 +183 -.00509 .00254 -.00765 -.00457 .00254 -.00713 -.00
03676955262170055 .0003676955262170045 141 255 182 176 182 182 181 30 183 329 0
 1 159 168 184 +-.00483 .00254 -.00739 .707106781186548 865956056234945e-31 .707
106781186548 133 168 513 0 148 183 185 0 +185 -.00509 2e-4 -.00765 -.00509 .0025
4 -.00765 2e-4 .00254 141 184 159 184 184 183 30 185 326 0 1 168 180 186 +-.0050
9 -1555301434917e-31 -.00765 -1224646799147e-28 1 2719262146894e-44 133 180 517
 0 175 185 187 0 +187 -.00509 2e-4 -.00915 -.00509 .00254 -.00915 2e-4 .00254 14
1 186 168 186 186 185 30 187 323 0 1 180 188 189 +-.00509 -1555301434917e-31 -.0
0915 -1224646799147e-28 1 2719262146894e-44 133 188 519 0 172 187 190 0 +190 -.0
0509 .00254 -.00915 -.00457 .00254 -.00967 .000530330085889911 .0012657211383239
2 141 189 180 189 189 187 16 172 27 191 ?171 192 193 188 0 0 1 30 190 340 0 1 18
8 194 195 +-.005465 .00254 -.008775 .707106781186548 865956056234945e-31 -.70710
6781186548 133 194 523 0 166 190 196 0 +196 -.00509 2e-4 -.00915 -.00509 2e-4 -.
00765 -.00176 -26e-5 141 195 188 195 195 190 16 166 10 197 ?149 148 175 194 0 0
 1 30 196 325 0 1 194 198 199 +-.00509 2e-4 -.00739 222044604925e-27 0 1 133 198
 527 0 158 196 200 0 +200 -.00307 .00254 -.00713 -.00457 .00254 -.00713 52e-5 .0
0202 141 199 194 199 199 196 16 158 17 201 ?153 202 144 198 0 0 1 30 200 331 0 1
 198 203 204 +-.00255 .00254 -.00713 -1 -1224646799147e-28 222044604925e-27 133
 203 529 0 152 200 205 0 +205 -.00457 -9184850993605e-32 -.00713 -.00457 .00254
 -.00713 0 .00254 141 204 198 204 204 200 16 152 43 206 ?133 207 208 203 0 0 1 3
0 205 354 0 1 203 209 210 +-.00457 -9184850993605e-32 -.00713 -1224646799147e-28
 1 2719262146894e-44 133 209 533 0 211 205 212 0 +212 -.00457 -9184850993605e-32
 -.00967 -.00457 .00254 -.00967 0 .00254 141 210 203 210 210 205 16 211 48 213 ?
121 214 207 209 0 0 1 30 212 359 0 1 209 215 216 +-.00457 -9184850993605e-32 -.0
0967 -1224646799147e-28 1 2719262146894e-44 133 215 535 0 193 212 217 0 +217 -.0
0457 .00254 -.00967 -.00307 .00254 -.00967 52e-5 .00202 141 216 209 216 216 212
 16 193 25 218 ?219 172 220 215 0 0 1 30 217 339 0 1 215 221 222 +-.00509 .00254
 -.00967 1 1224646799147e-28 -222044604925e-27 133 221 539 0 202 217 223 0 +223
 -.00307 .00254 -.00713 -.00255 .00254 -.00765 .000530330085889911 .001265721138
32392 141 222 215 222 222 217 16 202 19 224 ?225 226 158 221 0 0 1 30 223 333 0
 1 221 227 228 +-.003445 .00254 -.006755 .707106781186548 865956056234945e-31 -.
707106781186548 133 227 541 0 229 223 230 0 +230 -.00307 9184850993605e-32 -.007
13 -.00307 .00254 -.00713 0 .00254 141 228 221 228 228 223 16 229 71 231 ?117 23
2 233 227 0 0 1 30 230 378 0 1 227 234 235 +-.00307 9184850993605e-32 -.00713 -1
224646799147e-28 1 2719262146894e-44 133 234 545 0 236 230 237 0 +237 -.00307 91
84850993605e-32 -.00967 -.00307 .00254 -.00967 0 .00254 141 235 227 235 235 230
 16 236 76 238 ?108 239 232 234 0 0 1 30 237 382 0 1 234 240 241 +-.00307 918485
0993605e-32 -.00967 -1224646799147e-28 1 2719262146894e-44 133 240 547 0 220 237
 242 0 +242 -.00307 .00254 -.00967 -.00255 .00254 -.00915 -.0003676955262170045
 .000367695526217005 141 241 234 241 241 237 16 220 23 243 ?244 193 226 240 0 0
 1 30 242 337 0 1 240 245 246 +-.00281 .00254 -.00941 .707106781186548 865956056
234945e-31 .707106781186548 133 245 551 0 226 242 247 0 +247 -.00255 .00254 -.00
915 -.00255 .00254 -.00765 52e-5 .00202 141 246 240 246 246 242 16 226 21 248 ?2
49 220 202 245 0 0 1 30 247 335 0 1 245 250 251 +-.00255 .00254 -.00967 22204460
4925e-27 0 1 133 250 553 0 252 247 253 0 +254 -.00255 2e-4 -.00765 -.00255 .0025
4 -.00765 2e-4 .00254 141 251 245 251 251 247 16 252 82 255 ?104 256 257 250 0 0
 1 133 253 555 0 258 250 259 0 +259 -.00255 2e-4 -.00765 -.00255 2e-4 -.00915 0
 .0015 30 254 386 0 1 260 261 262 +-.00255 1555301434917e-31 -.00765 -1224646799
147e-28 1 2719262146894e-44 133 260 597 0 257 263 254 0 +254 -.00255 15553014349
17e-31 -.00765 -.00255 2e-4 -.00765 0 2e-4 133 261 601 0 27 254 264 0 +264 -.002
55 1555301434917e-31 -.00765 -.00509 -719523440001138e-33 -.00765 0 .00254 141 2
62 260 265 265 254 141 265 250 262 262 254 16 27 105 266 ?46 11 267 261 0 0 1 30
 264 403 0 1 261 268 269 +-.00255 1555301434917e-31 -.00765 -1 -3445092848397e-2
8 222044604925e-27 133 268 603 0 239 264 270 0 +270 -.00307 918485099360267e-34
 -.00713 -.00255 155530143491649e-33 -.00765 .000530330085889911 .00126572113832
392 141 269 261 269 269 264 16 239 79 271 ?272 257 236 268 0 0 1 30 270 385 0 1
 268 273 274 +-.003445 4592425496803e-32 -.006755 .707106781186548 8659560562349
45e-31 -.707106781186548 133 273 605 0 233 270 275 0 +275 -.00307 91848509936056
e-33 -.00713 -.00457 -918485099359941e-34 -.00713 52e-5 .00202 141 274 268 274 2
74 270 16 233 69 276 ?114 229 277 273 0 0 1 30 275 377 0 1 273 278 279 +-.00255
 1555301434917e-31 -.00713 -1 -1224646799147e-28 222044604925e-27 133 278 607 0
 208 275 280 0 +280 -.00509 -155530143491711e-33 -.00765 -.00457 -91848509936089
e-33 -.00713 -.0003676955262170055 .0003676955262170045 141 279 273 279 279 275
 16 208 41 281 ?150 152 282 278 0 0 1 30 280 353 0 1 278 283 284 +-.00483 -12368
93267139e-31 -.00739 .707106781186548 865956056234945e-31 .707106781186548 133 2
83 611 0 285 280 286 0 +286 -.00255 149077798716757e-33 -.00915 -.00255 2e-4 -.0
0915 -1e-4 1e-4 141 284 278 284 284 280 16 285 88 287 ?36 288 289 283 0 0 1 30 2
86 392 0 1 283 290 291 +-.00255 1e-4 -.00915 -1224646799147e-28 1 2719262146894e
-44 133 290 613 0 292 286 293 0 +293 -.00255 2e-4 -.00915 -.00509 2e-4 -.00915 0
 .00254 141 291 283 291 291 286 16 292 57 294 ?125 295 296 290 0 0 1 30 293 366
 0 1 290 297 298 +-.00255 2e-4 -.00915 -1 -3445092848397e-28 222044604925e-27 13
3 297 615 0 207 293 299 0 +299 -.00509 2e-4 -.00915 -.00509 -704731412115578e-33
 -.00915 -1e-4 1e-4 141 298 290 298 298 293 16 207 46 300 ?37 211 152 297 0 0 1
 30 299 357 0 1 297 301 302 +-.00509 1e-4 -.00915 1224646799147e-28 -1 -27192621
46894e-44 133 301 619 0 232 299 303 0 +303 -.00457 -918485099360561e-34 -.00967
 -.00307 91848509935994e-33 -.00967 52e-5 .00202 141 302 297 302 302 299 16 232
 74 304 ?305 236 229 301 0 0 1 30 303 381 0 1 301 306 307 +-.00509 -155530143491
7e-31 -.00967 1 1224646799147e-28 -222044604925e-27 133 306 621 0 256 303 308 0
 +308 -.00307 91848509936089e-33 -.00967 -.00255 155530143491711e-33 -.00915 -.0
003676955262170045 .000367695526217005 141 307 301 307 307 303 16 256 85 309 ?31
0 289 252 306 0 0 1 30 308 390 0 1 306 28 311 +-.00281 1236893267139e-31 -.00941
 .707106781186548 865956056234945e-31 .707106781186548 133 28 623 0 11 308 312 0
 +312 -.00255 1555301434917e-31 -.00915 -.00509 -719523440001138e-33 -.00915 0 .
00254 141 311 306 311 311 308 30 312 406 0 1 28 20 313 +-.00255 1555301434917e-3
1 -.00915 -1 -3445092848397e-28 222044604925e-27 133 20 625 0 214 312 8 0 +8 -.0
0509 -1555301434917035e-34 -.00915 -.00457 -918485099360812e-34 -.00967 .0005303
30085889911 .00126572113832392 141 313 28 313 313 312 16 214 50 314 ?315 258 211
 20 0 0 1 81 1 314 729 32 214 0 0 316 213 317 17 315 0 318 305 26 89 319 214 0 3
20 +16 258 53 316 ?321 296 214 253 0 0 1 81 1 316 728 32 258 0 0 322 314 323 17
 321 0 324 93 88 63 325 258 0 0 +16 296 56 322 ?130 292 258 326 0 0 1 81 1 322 7
27 32 296 0 0 294 316 327 17 130 0 328 165 325 126 329 296 0 330 +133 326 595 0
 296 331 263 0 +263 -.00255 2e-4 -.00765 -.00509 2e-4 -.00765 0 .00254 30 331 35
1 0 1 332 326 333 +-.00509 -1555301434917e-31 -.00765 1224646799147e-28 -1 -2719
262146894e-44 30 263 365 0 1 326 260 334 +-.00255 2e-4 -.00765 -1 -3445092848397
e-28 222044604925e-27 141 334 326 334 334 263 133 332 593 0 282 335 331 0 +331 -
.00509 2e-4 -.00765 -.00509 -7195234400013e-31 -.00765 -2e-4 5639932965096e-31 1
41 333 332 333 333 331 16 282 39 336 ?146 208 337 332 0 0 1 30 335 400 0 1 338 3
32 339 +-.00342 .00254 -.008 1224646799147e-28 -1 -2719262146894e-44 133 338 589
 0 267 340 335 0 +335 -.00342 .00254 -.008 -.00342 2e-4 -.008 0 .00234 141 339 3
38 339 339 335 16 267 100 341 ?52 27 342 338 0 0 1 30 340 371 0 1 343 338 344 +-
.00342 2e-4 -.008225 -222044604925e-27 0 -1 133 343 587 0 345 346 340 0 +340 -.0
0342 2e-4 -.008 -.00342 2e-4 -.0088 -225e-6 575e-6 141 344 343 344 344 340 16 34
5 62 347 ?348 349 295 343 0 0 1 30 346 396 0 1 350 343 351 +-.00342 .00254 -.008
8 1224646799147e-28 -1 -2719262146894e-44 133 350 585 0 352 353 346 0 +346 -.003
42 .00254 -.0088 -.00342 2e-4 -.0088 0 .00234 141 351 350 351 351 346 16 352 94
 354 ?74 342 288 350 0 0 1 30 353 345 0 1 355 350 356 +-.00342 .00254 -.0088 222
044604925e-27 0 1 133 355 583 0 357 358 353 0 +353 -.00342 .00254 -.0088 -.00342
 .00254 -.008 0 8e-4 141 356 355 356 356 353 16 357 32 359 ?360 361 192 355 0 0
 1 30 358 398 0 1 362 355 363 +-.00422 .00254 -.008 1224646799147e-28 -1 -271926
2146894e-44 133 362 579 0 342 364 358 0 +358 -.00422 .00254 -.008 -.00422 2e-4 -
.008 0 .00234 141 363 362 363 363 358 16 342 97 365 ?62 267 352 362 0 0 1 30 364
 369 0 1 366 362 367 +-.002985 2e-4 -.008 1 3445092848397e-28 -222044604925e-27
 133 366 577 0 295 368 364 0 +364 -.00422 2e-4 -.008 -.00342 2e-4 -.008 -.001235
 -435e-6 141 367 366 367 367 364 16 295 59 369 ?370 345 292 366 0 0 1 30 368 347
 0 1 371 366 372 +-.00342 .00254 -.008 -1 -1224646799147e-28 222044604925e-27 13
3 371 575 0 361 373 368 0 +368 -.00342 .00254 -.008 -.00422 .00254 -.008 0 8e-4
 141 372 371 372 372 368 16 361 34 374 ?375 337 357 371 0 0 1 30 373 395 0 1 376
 371 377 +-.00422 .00254 -.0088 1224646799147e-28 -1 -2719262146894e-44 133 376
 571 0 288 378 373 0 +373 -.00422 .00254 -.0088 -.00422 2e-4 -.0088 0 .00234 141
 377 376 377 377 373 16 288 93 379 ?70 352 285 376 0 0 1 30 378 374 0 1 380 376
 381 +-.00422 2e-4 -.007825 222044604925e-27 0 1 133 380 569 0 277 382 378 0 +37
8 -.00422 2e-4 -.0088 -.00422 2e-4 -.008 -975e-6 -175e-6 141 381 380 381 381 378
 16 277 66 383 ?384 233 349 380 0 0 1 30 382 348 0 1 385 380 386 +-.00422 .00254
 -.008 -222044604925e-27 0 -1 133 385 567 0 337 387 382 0 +382 -.00422 .00254 -.
008 -.00422 .00254 -.0088 0 8e-4 141 386 385 386 386 382 16 337 36 388 ?389 282
 361 385 0 0 1 30 387 373 0 1 390 385 391 +-.003385 2e-4 -.0088 -1 -344509284839
7e-28 222044604925e-27 133 390 563 0 349 392 387 0 +387 -.00342 2e-4 -.0088 -.00
422 2e-4 -.0088 35e-6 835e-6 141 391 390 391 391 387 16 349 64 393 ?394 277 345
 390 0 0 1 30 392 343 0 1 395 390 396 +-.00422 .00254 -.0088 1 1224646799147e-28
 -222044604925e-27 133 395 561 0 192 397 392 0 +392 -.00422 .00254 -.0088 -.0034
2 .00254 -.0088 0 8e-4 141 396 395 396 396 392 16 192 29 398 ?399 357 172 395 0
 0 1 30 397 391 0 1 400 395 401 +-.00255 1555301434917e-31 -.00915 -122464679914
7e-28 1 2719262146894e-44 133 400 557 0 289 259 397 0 +397 -.00255 2e-4 -.00915
 -.00255 .00254 -.00915 2e-4 .00254 141 401 400 401 401 397 16 289 87 402 ?93 28
5 256 400 0 0 1 30 259 364 0 1 253 400 403 +-.00255 2e-4 -.00765 -222044604925e-
27 0 -1 141 403 253 403 403 259 81 1 402 713 32 289 0 0 287 309 404 17 93 0 324
 249 321 90 405 289 0 244 +15 324 90 0 249 406 0 17 249 0 324 88 93 95 407 226 0
 225 +17 405 0 408 38 244 63 93 289 0 409 -17 244 0 408 405 108 90 410 220 0 407
 +15 408 84 0 98 411 0 17 108 0 408 244 98 94 412 236 0 219 +17 410 0 154 170 40
7 94 244 220 0 0 -17 407 0 154 410 225 90 249 226 0 0 -17 225 0 154 407 155 95 4
13 202 0 0 +17 155 0 154 225 143 105 153 158 0 0 -17 413 0 414 415 104 105 225 2
02 0 155 -15 414 78 0 272 416 0 17 415 0 414 272 413 71 117 229 0 417 -17 104 0
 414 413 418 95 88 252 0 249 +17 418 0 414 104 272 85 419 257 0 329 +17 88 0 324
 321 249 85 104 252 0 418 -17 272 0 414 418 415 31 101 239 0 0 +17 419 0 420 46
 329 31 418 257 0 272 -16 257 81 421 ?418 252 239 260 0 0 1 17 329 0 420 419 330
 85 130 296 0 325 -15 420 104 0 46 422 0 17 330 0 420 329 46 126 146 282 0 142 -
17 325 0 328 130 409 85 321 258 0 0 -15 328 52 0 325 423 0 17 409 0 328 325 165
 63 125 292 0 321 -17 165 0 328 409 130 122 149 166 0 163 -17 125 0 35 37 36 122
 409 292 0 424 +15 35 109 0 30 425 0 17 37 0 35 30 125 22 424 207 0 0 +17 36 0 3
5 125 30 63 38 285 0 405 +17 424 0 426 173 319 122 37 207 0 165 -15 426 45 0 424
 427 0 17 173 0 426 171 424 127 163 175 0 161 +17 319 0 426 424 320 22 315 214 0
 37 -17 320 0 426 319 171 89 121 211 0 0 -18 22 47 428 26 89 47 9 5e-7 1 81 1 42
8 689 32 22 0 0 110 113 429 17 26 0 318 315 310 22 30 11 0 319 +15 318 112 0 305
 17 0 17 310 0 318 26 305 12 98 256 0 0 +17 305 0 318 310 315 40 111 232 0 0 +17
 98 0 408 108 38 40 310 256 0 412 -17 38 0 408 98 405 12 36 285 0 310 -17 412 0
 430 111 219 40 108 236 0 305 -15 430 73 0 111 431 0 17 111 0 430 121 412 89 305
 232 0 315 -17 219 0 430 412 121 94 170 193 0 410 +17 121 0 430 219 111 82 320 2
11 0 171 +17 170 0 154 136 410 82 219 193 0 0 -17 171 0 426 320 173 82 136 172 0
 170 +14 255 431 72 432 ?433 416 430 6 434 +0 0 433 416 24 81 1 432 761 32 431 0
 0 435 436 437 14 433 67 436 ?423 431 438 6 439 +0 0 423 431 24 14 416 77 435 ?4
31 411 414 6 440 +0 0 431 411 24 50 434 379 0 431 439 440 0 +-.00509 -1555301434
917e-31 -.00967 -222044604925e-27 0 -1 1 1224646799147e-28 -222044604925e-27 13
 24 2 0 0 0 0 0 0 10 17 14 17 111 178 ?425 0 318 6 7 -441 441 425 0 24 81 1 178
 750 32 17 0 0 174 442 443 14 425 108 442 ?441 17 35 6 19 +0 0 441 17 24 14 441
 106 444 ?422 425 445 6 7 -17 17 422 425 24 81 1 444 752 32 441 0 0 442 446 447
 14 422 103 446 ?448 441 420 6 449 +0 0 448 441 24 15 445 107 0 39 441 0 17 39 0
 445 101 450 31 46 27 0 419 -17 101 0 445 114 39 71 272 239 0 415 -17 450 0 445
 39 114 43 150 208 0 146 -17 46 0 420 330 419 43 39 27 0 450 +17 114 0 445 450 1
01 47 417 233 0 151 +17 150 0 141 133 146 47 450 208 0 0 +17 146 0 141 150 142 4
3 330 282 0 0 +17 417 0 438 117 151 71 114 233 0 0 -17 151 0 438 417 153 47 133
 152 0 150 -15 438 68 0 417 433 0 17 153 0 438 151 117 118 155 158 0 143 +17 117
 0 438 153 417 105 415 229 0 413 +81 1 446 753 32 422 0 0 444 451 452 14 448 101
 451 ?453 422 454 6 455 +0 0 453 422 24 50 449 402 0 422 455 19 0 +-.00255 15553
01434917e-31 -.00765 -222044604925e-27 0 -1 -3445092848397e-28 1 764964280452255
e-46 50 455 401 0 448 456 449 0 +-.00342 .00254 -.0088 -1 -1224646799147e-28 222
044604925e-27 222044604925e-27 0 1 50 19 405 0 425 449 7 0 +-.00255 2e-4 -.00915
 222044604925e-27 0 1 3445092848397e-28 -1 -764964280452255e-46 50 456 399 0 453
 457 455 0 +-.00342 .00254 -.008 -222044604925e-27 0 -1 -1 -1224646799147e-28 22
2044604925e-27 14 453 98 458 ?459 448 460 6 456 +0 0 459 448 24 50 457 397 0 459
 461 456 0 +-.00422 .00254 -.008 1 1224646799147e-28 -222044604925e-27 -22204460
4925e-27 0 -1 14 459 95 462 ?463 453 464 6 457 +0 0 463 453 24 50 461 394 0 463
 465 457 0 +-.00422 .00254 -.0088 222044604925e-27 0 1 1 1224646799147e-28 -2220
44604925e-27 14 463 91 466 ?406 459 467 6 461 +0 0 406 459 24 50 465 393 0 406 4
68 461 0 +-.00255 1555301434917e-31 -.00967 1 1224646799147e-28 -222044604925e-2
7 222044604925e-27 0 1 14 406 89 469 ?411 463 324 6 465 +0 0 411 463 24 50 468 3
88 0 411 440 465 0 +-.00281 1236893267139e-31 -.00941 .707106781186548 865956056
234945e-31 -.707106781186548 -122464679914679e-30 1 -210280735047976e-43 14 411
 83 470 ?416 406 408 6 468 +0 0 416 406 24 50 440 383 0 416 434 468 0 +-.00281 1
236893267139e-31 -.00739 .707106781186548 865956056234945e-31 .707106781186548 1
22464679914679e-30 -1 -210650513597298e-43 81 1 470 759 32 411 0 0 469 435 471 8
0 7 CCCCCDI12 legal_owners0 17 1 lCZ1 32 472 473 9000 0 0 0 0 3 5 0 0 0 FFTFTFTT
FFFFFFFFF2 81 1 469 758 32 406 0 0 466 470 474 81 1 435 760 32 416 0 0 470 432 4
75 83 255 1 471 17316 83 1 475 17317 81 1 466 757 32 463 0 0 462 469 476 83 1 47
4 17315 81 1 462 756 32 459 0 0 458 466 477 83 1 476 17314 81 1 458 755 32 453 0
 0 451 462 478 83 1 477 17313 81 1 451 754 32 448 0 0 446 458 479 83 1 478 17312
 83 1 479 17311 79 255 13 473 BTI/importTag15 467 92 0 480 463 0 17 480 0 467 70
 77 78 399 192 0 0 -17 70 0 467 481 480 67 81 288 0 482 +17 77 0 467 480 481 59
 74 352 0 483 -17 399 0 484 360 389 59 480 192 0 0 +15 484 28 0 399 169 154 17 3
60 0 484 375 399 55 483 357 0 0 +17 389 0 484 399 375 78 485 337 0 480 +17 375 0
 484 389 360 48 486 361 0 0 +17 485 0 464 62 81 48 389 337 0 375 -15 464 96 0 48
5 459 0 17 62 0 464 482 485 54 66 342 0 384 +17 81 0 464 485 482 78 70 288 0 389
 -17 482 0 464 81 62 67 384 277 0 394 -17 384 0 487 370 394 54 482 277 0 488 +17
 394 0 487 384 348 67 481 349 0 0 +15 487 58 0 370 423 328 17 348 0 487 394 370
 53 489 345 0 0 +17 481 0 467 77 70 53 394 349 0 348 -17 370 0 487 348 384 49 48
8 295 0 0 +17 489 0 454 58 74 49 348 345 0 370 -15 454 102 0 483 448 0 17 58 0 4
54 483 489 55 52 267 0 486 -17 74 0 454 489 483 53 77 352 0 481 +17 483 0 454 74
 58 59 360 357 0 399 -17 52 0 460 488 486 49 58 267 0 489 +17 486 0 460 52 66 55
 375 361 0 360 -15 460 99 0 486 453 0 17 66 0 460 486 488 48 62 342 0 485 -17 48
8 0 460 66 52 54 370 295 0 0 -14 423 51 490 ?427 433 487 6 491 +0 0 427 433 24 8
1 1 490 763 32 423 0 0 436 492 493 14 427 44 492 ?147 423 426 6 494 +0 0 147 423
 24 50 491 361 0 423 494 439 0 +-.00255 2e-4 -.00765 3445092848397e-28 -1 -76496
42804524e-44 -222044604925e-27 145165762788649e-58 -1 50 494 355 0 427 495 491 0
 +-.00483 -1236893267139e-31 -.00941 -.707106781186548 -865956056234945e-31 -.70
7106781186548 -122464679914679e-30 1 210650513597298e-43 50 439 375 0 433 491 43
4 0 +-.00255 1555301434917e-31 -.00713 222044604925e-27 0 1 -1 -1224646799147e-2
8 222044604925e-27 50 495 349 0 147 496 494 0 +-.00483 -1236893267139e-31 -.0073
9 -.707106781186548 -865956056234945e-31 .707106781186548 122464679914679e-30 -1
 210280735047976e-43 14 147 37 497 ?169 427 141 6 495 +0 0 169 427 24 50 496 327
 0 169 498 495 0 +-.00509 .00254 -.00713 -1224646799147e-28 1 2719262146894e-44
 -222044604925e-27 138542438015864e-58 -1 14 169 13 499 ?162 147 484 6 496 +0 0
 162 147 24 50 498 318 0 162 0 496 0 +-.00509 -1555301434917e-31 -.00713 -1 -122
4646799147e-28 222044604925e-27 -222044604925e-27 0 -1 14 162 3 500 ?0 169 160 6
 498 +0 0 0 169 24 81 1 500 767 32 162 0 0 499 501 502 81 1 499 766 32 169 0 0 4
97 500 503 81 1 501 768 32 1 504 505 500 0 506 83 1 502 17324 81 1 504 676 507 1
 0 501 0 0 508 81 1 505 769 509 1 501 510 0 0 511 83 1 506 17325 80 1 509 32 512
 9000 0 0 0 0 3 5 0 0 0 FFTFTFTTFFFFFFFFF2 81 1 510 862 513 1 505 14 0 0 514 83
 1 511 17325 80 1 513 515 516 8040 0 0 0 0 3 5 0 0 0 TTTFFFFFFFFFFFFFF2 81 1 14
 863 517 1 510 2 0 0 518 83 3 514 .3098039215686275 .3098039215686275 .309803921
5686275 80 1 517 13 519 8038 0 0 0 0 0 0 0 0 0 TTTTTTTTTTTTTFTFT10 98 255 10 518
 72 67 45 48 52 65 114 114 97 121 79 14 519 SDL/TYSA_UNAME79 17 516 SDL/TYSA_COL
OUR_279 18 512 BTI/importMaxCount80 1 507 520 521 9000 0 0 0 0 3 5 0 0 0 TTTFFFF
FFFFFFFFFF1 82 255 1 508 2 79 23 521 ONSHAPE_ORIGINALBODY_ID81 1 497 765 32 147
 0 0 492 499 522 83 1 503 17323 81 1 492 764 32 427 0 0 490 497 523 83 1 522 173
22 83 1 523 17321 81 1 436 762 32 433 0 0 432 490 524 83 1 493 17320 83 1 524 17
319 83 1 452 17310 81 1 442 751 32 425 0 0 178 444 525 83 1 447 17309 83 1 525 1
7308 83 1 443 17307 83 1 437 17318 81 1 110 688 32 89 0 0 87 428 526 81 1 113 69
0 32 47 0 0 428 45 527 83 1 429 17246 81 1 45 691 32 43 0 0 113 65 528 83 1 527
 17247 81 1 65 692 32 48 0 0 45 57 529 83 1 528 17248 81 1 57 693 32 55 0 0 65 7
6 530 83 1 529 17249 81 1 76 694 32 59 0 0 57 80 531 83 1 530 17250 81 1 80 695
 32 78 0 0 76 120 532 83 1 531 17251 81 1 120 696 32 82 0 0 80 107 533 83 1 532
 17252 81 1 107 697 32 94 0 0 120 92 534 83 1 533 17253 81 1 92 698 32 90 0 0 10
7 103 535 83 1 534 17254 81 1 103 699 32 95 0 0 92 116 536 83 1 535 17255 81 1 1
16 700 32 105 0 0 103 132 537 83 1 536 17256 81 1 132 701 32 118 0 0 116 129 538
 83 1 537 17257 81 1 129 702 32 126 0 0 132 124 539 83 1 538 17258 81 1 124 703
 32 122 0 0 129 135 540 83 1 539 17259 81 1 135 704 32 127 0 0 124 138 541 83 1
 540 17260 83 1 541 17261 81 1 87 687 32 85 0 0 84 110 542 83 1 526 17245 81 1 8
4 686 32 63 0 0 61 87 543 83 1 542 17244 81 1 61 685 32 54 0 0 51 84 544 83 1 54
3 17243 81 1 51 684 32 49 0 0 73 61 545 83 1 544 17242 81 1 73 683 32 53 0 0 69
 51 546 83 1 545 17241 81 1 69 682 32 67 0 0 100 73 547 83 1 546 17240 81 1 100
 681 32 71 0 0 97 69 548 83 1 547 17239 81 1 97 680 32 40 0 0 33 100 549 83 1 54
8 17238 81 1 33 679 32 31 0 0 29 97 550 83 1 549 17237 83 1 550 17236 17 163 0 1
60 149 161 122 173 175 0 0 -81 1 421 716 32 257 0 0 255 271 551 81 1 255 715 32
 252 0 0 309 421 552 81 1 271 717 32 239 0 0 421 238 553 83 1 551 17273 81 1 238
 718 32 236 0 0 271 304 554 83 1 553 17274 81 1 304 719 32 232 0 0 238 231 555 8
3 1 554 17275 81 1 231 720 32 229 0 0 304 276 556 83 1 555 17276 81 1 276 721 32
 233 0 0 231 383 557 83 1 556 17277 81 1 383 722 32 277 0 0 276 393 558 83 1 557
 17278 81 1 393 723 32 349 0 0 383 347 559 83 1 558 17279 81 1 347 724 32 345 0
 0 393 369 560 83 1 559 17280 81 1 369 725 32 295 0 0 347 294 561 83 1 560 17281
 81 1 294 726 32 292 0 0 369 322 562 83 1 561 17282 83 1 562 17283 81 1 309 714
 32 256 0 0 402 255 563 83 1 552 17272 83 1 563 17271 81 1 287 712 32 285 0 0 37
9 402 564 83 1 404 17270 81 1 379 711 32 288 0 0 354 287 565 83 1 564 17269 81 1
 354 710 32 352 0 0 365 379 566 83 1 565 17268 81 1 365 709 32 342 0 0 341 354 5
67 83 1 566 17267 81 1 341 708 32 267 0 0 266 365 568 83 1 567 17266 81 1 266 70
7 32 27 0 0 25 341 569 83 1 568 17265 81 1 25 706 32 11 0 0 138 266 570 83 1 569
 17264 83 1 570 17263 81 1 398 738 32 192 0 0 359 191 571 81 1 359 737 32 357 0
 0 374 398 572 81 1 191 739 32 172 0 0 398 218 573 83 1 571 17295 81 1 218 740 3
2 193 0 0 191 243 574 83 1 573 17296 81 1 243 741 32 220 0 0 218 248 575 83 1 57
4 17297 81 1 248 742 32 226 0 0 243 224 576 83 1 575 17298 81 1 224 743 32 202 0
 0 248 201 577 83 1 576 17299 81 1 201 744 32 158 0 0 224 157 578 83 1 577 173e2
 81 1 157 745 32 144 0 0 201 167 579 83 1 578 17301 81 1 167 746 32 148 0 0 157
 197 580 83 1 579 17302 81 1 197 747 32 166 0 0 167 177 581 83 1 580 17303 81 1
 177 748 32 175 0 0 197 174 582 83 1 581 17304 83 1 582 17305 81 1 374 736 32 36
1 0 0 388 359 583 83 1 572 17294 81 1 388 735 32 337 0 0 336 374 584 83 1 583 17
293 81 1 336 734 32 282 0 0 281 388 585 83 1 584 17292 81 1 281 733 32 208 0 0 2
06 336 586 83 1 585 17291 81 1 206 732 32 152 0 0 300 281 587 83 1 586 17290 81
 1 300 731 32 207 0 0 213 206 588 83 1 587 17289 81 1 213 730 32 211 0 0 314 300
 589 83 1 588 17288 83 1 589 17287 83 1 327 17284 83 1 323 17285 83 1 317 17286
 83 1 179 17306 83 1 140 17262 83 1 34 17235 19 18 113 0 1 0 10 6 0 S0 141 21 20
 21 21 8 74 4 CI16 index_map_offset0 0 1 dCCZ20 16 6 0 0 504 501 505 510 14 2 0
 0 0 0 0 0 0 0 0 0 0 0 0 0 80 1 13 590 591 8017 0 0 0 0 0 0 0 0 0 TTTTTTTTTTTTTF
TFT3 84 255 10 15 HC-04Array79 13 591 SDL/TYSA_NAME1 0 
