**ABCDEFGHIJKLMNOPQRSTUVWXYZabcdefghijklmnopqrstuvwxyz**************************
**PARASOLID !"#$%&'()*+,-./:;<=>?@[\]^_`{|}~0123456789**************************
**PART1;
MC=unknown;
MC_MODEL=unknown;
MC_ID=unknown;
OS=unknown;
OS_RELEASE=unknown;
FRU=Parasolid 37.0.173;
APPL=Onshape;
SITE=unknown;
USER=unknown;
FORMAT=text;
GUISE=transmit;
KEY=BTGapi::writeModels_.xmt;
FILE=BTGapi::writeModels_.xmt;
DATE=2024-12-29T04:00:29 (UTC);
**PART2;
SCH=SCH_3700173_36001;
USFLD_SIZE=0;
**PART3;
**END_OF_HEADER*****************************************************************
T51 : TRANSMIT FILE created by modeller version 370017323 SCH_3700173_36001_1300
6231 0 12 36 CCCI7 lattice222 0 CCCI4 mesh1006 0 I8 polyline1008 0 CCCCCCCDI5 ow
ner1040 0 CCCI16 boundary_lattice222 0 CCCI13 boundary_mesh1006 0 I17 boundary_p
olyline1008 0 CCCA16 index_map_offset0 0 1 dA9 index_map82 0 A17 node_id_index_m
ap82 0 A20 schema_embedding_map82 0 A5 child12 0 A14 lowest_node_id0 0 1 dA16 me
sh_offset_data206 0 Z1 41 2 3 0 0 0 0 0 0 0 1e3 1e-8 0 0 4 1 0 2 2 5 0 0 6 7 0 0
 8 0 9 0 0 0 0 0 0 0 81 255 1 2 32 10 1 11 0 0 0 12 70 11 CI9 list_type0 0 1 uI1
0 notransmit0 0 1 lCCCDCCDI12 finger_index0 0 1 dI12 finger_block1012 0 CZ3 0 4
 T1 0 0 3 20 1 13 13 13 255 5 3 0 1 14 0 15 0 8 0 30 255 6 4 0 15 16 0 0 +-.0192
 .0380355995352136 .00815 141124423009615e-30 -1 0 29 255 7 8 0 9 17 0 -.0192 -.
0374874092332638 .00815 19 9 CCCCCCI5 frame230 0 CA5 owner12 0 Z8 2 0 1 0 0 5 0
 V0 18 255 9 7 18 19 0 20 7 ?1 81 1 18 25 21 9 0 0 0 22 23 17 255 19 0 0 0 0 9 2
4 15 0 0 +18 20 10 22 24 9 25 17 ?1 81 1 22 26 21 20 0 0 18 26 27 17 24 0 0 0 0
 20 19 15 0 0 -18 25 16 26 28 20 29 30 ?1 29 17 11 0 20 30 7 -.0192 .03803559953
52136 .00815 29 30 17 0 25 31 17 .0255988426111281 -.0374874092332638 .00815 29
 31 20 0 29 0 30 .0255988426111281 .0380355995352136 .00815 18 29 19 32 33 25 0
 31 ?1 81 1 32 28 21 29 0 0 26 34 35 17 33 0 0 0 0 29 28 36 0 0 -17 28 0 0 0 0 2
5 33 36 0 0 +16 255 36 14 37 ?28 0 0 16 0 0 14 81 1 37 30 21 36 0 0 34 11 38 30
 16 13 0 36 0 6 0 +.0255988426111281 .0380355995352136 .00815 0 -1 0 13 14 12 0
 1 0 0 36 0 8 0 80 7 CCCCCDI12 legal_owners0 17 1 lCZ1 21 39 40 9000 0 0 0 0 3 5
 0 0 0 FFTFTFTTFFFFFFFFF2 81 1 34 29 21 15 0 0 32 37 41 81 1 11 31 21 1 42 2 37
 0 43 83 255 1 38 166e2 81 1 42 21 44 1 0 11 0 0 45 83 1 43 16601 80 1 44 46 47
 9000 0 0 0 0 3 5 0 0 0 TTTFFFFFFFFFFFFFF1 82 255 1 45 54868 79 255 23 47 ONSHAP
E_ORIGINALBODY_ID16 15 5 34 ?19 0 0 6 0 0 5 83 1 41 16599 79 13 40 BTI/importTag
81 1 26 27 21 25 0 0 22 32 48 83 1 35 16598 83 1 48 16597 83 1 27 16596 83 1 23
 16595 74 4 CI16 index_map_offset0 0 1 dCCZ20 13 3 0 0 42 11 2 0 0 0 0 0 0 0 0 0
 0 0 0 0 0 0 0 0 80 1 10 21 49 9000 0 0 0 0 3 5 0 0 0 FFTFTFTTFFFFFFFFF2 83 1 12
 16608 79 18 49 BTI/importMaxCount1 0 
