**ABCDEFGHIJKLMNOPQRSTUVWXYZabcdefghijklmnopqrstuvwxyz**************************
**PARASOLID !"#$%&'()*+,-./:;<=>?@[\]^_`{|}~0123456789**************************
**PART1;
MC=unknown;
MC_MODEL=unknown;
MC_ID=unknown;
OS=unknown;
OS_RELEASE=unknown;
FRU=Parasolid 37.0.173;
APPL=Onshape;
SITE=unknown;
USER=unknown;
FORMAT=text;
GUISE=transmit;
KEY=BTGapi::writeModels_.xmt;
FILE=BTGapi::writeModels_.xmt;
DATE=2024-12-29T04:00:26 (UTC);
**PART2;
SCH=SCH_3700173_36001;
USFLD_SIZE=0;
**PART3;
**END_OF_HEADER*****************************************************************
T51 : TRANSMIT FILE created by modeller version 370017323 SCH_3700173_36001_1300
6231 0 12 36 CCCI7 lattice222 0 CCCI4 mesh1006 0 I8 polyline1008 0 CCCCCCCDI5 ow
ner1040 0 CCCI16 boundary_lattice222 0 CCCI13 boundary_mesh1006 0 I17 boundary_p
olyline1008 0 CCCA16 index_map_offset0 0 1 dA9 index_map82 0 A17 node_id_index_m
ap82 0 A20 schema_embedding_map82 0 A5 child12 0 A14 lowest_node_id0 0 1 dA16 me
sh_offset_data206 0 Z1 488 2 3 0 0 0 0 0 0 0 1e3 1e-8 0 4 5 1 0 1 2 6 0 7 8 9 0
 0 10 11 12 0 0 0 0 0 0 0 81 255 1 2 488 13 1 14 0 0 0 15 70 11 CI9 list_type0 0
 1 uI10 notransmit0 0 1 lCCCDCCDI12 finger_index0 0 1 dI12 finger_block1012 0 CZ
3 0 4 T1 0 0 6 20 1 16 16 13 255 6 64 0 1 0 17 0 0 18 0 50 255 7 227 0 17 19 0 0
 +.014838810490066 -9999999999999e-18 .008759566625853 0 -1 1224646799147e-28 -1
 0 0 30 255 8 189 0 1 20 0 21 +.014838810490066 -9999999999999e-18 .0090412444 1
 0 0 29 255 9 180 0 22 23 0 .014838810490066 -9999999999999e-18 .008759566625853
 19 9 CCCCCCI5 frame230 0 CA5 owner12 0 Z10 1 0 1 18 0 24 0 V0 16 255 11 58 25 ?
26 0 27 28 0 0 1 18 255 12 53 29 30 0 31 32 5e-7 1 81 1 29 382 33 12 0 0 0 34 35
 17 255 30 0 36 37 38 12 26 11 0 39 -18 31 51 34 40 12 41 42 5e-7 1 29 32 220 0
 12 43 42 .015658171 1072737523027e-30 .008759566625853 29 43 212 0 44 45 32 .01
5658171 -9999999999999e-18 .007732646771501 29 42 218 0 31 32 23 .015658171 -999
9999999999e-18 .008759566625853 29 23 179 0 46 42 9 .014838810490066 10727375230
27e-30 .008759566625853 18 46 6 47 26 22 0 23 5e-7 1 81 1 47 397 33 46 0 0 48 25
 49 17 26 0 50 51 39 46 30 11 0 52 +18 22 7 48 53 54 46 9 5e-7 1 81 1 48 396 33
 22 0 0 55 47 56 17 53 0 36 38 37 22 40 27 0 57 +18 54 9 55 58 59 22 60 5e-7 1 8
1 1 55 395 33 54 0 0 61 48 62 17 58 0 63 57 64 54 65 66 0 67 -18 59 11 61 68 69
 54 70 5e-7 1 29 60 182 0 54 70 71 .014838810490066 -9999999999999e-18 .00904124
44 29 70 184 0 59 0 60 .014838810490066 1107233101477e-30 .0090412444 29 71 190
 0 72 60 73 .015925234991888 1107233101477e-30 .0090412444 18 72 18 74 75 76 69
 71 5e-7 1 29 73 188 0 69 71 77 .015925234991888 -9999999999999e-18 .0090412444
 18 69 16 78 64 72 59 73 5e-7 1 29 77 196 0 79 73 80 .015925234991888 9124805333
156e-31 .007450968997354 18 79 25 81 82 83 76 77 5e-7 1 29 80 194 0 76 77 84 .01
5925234991888 -9999999999999e-18 .007450968997354 18 76 23 85 86 79 72 80 5e-7 1
 29 84 202 0 87 80 88 .014796228 9124805333156e-31 .007450968997354 18 87 32 89
 90 91 83 84 5e-7 1 29 88 200 0 83 84 92 .014796228 -9999999999999e-18 .00745096
8997354 18 83 30 93 94 87 79 88 5e-7 1 29 92 208 0 95 88 96 .014796228 946976111
7656e-31 .007732646771501 18 95 39 97 98 44 91 92 5e-7 1 29 96 206 0 91 92 45 .0
14796228 -9999999999999e-18 .007732646771501 18 91 37 99 100 95 87 96 5e-7 1 29
 45 214 0 41 96 43 .015658171 9469761117656e-31 .007732646771501 18 41 46 101 10
2 31 44 45 5e-7 1 81 1 101 384 33 41 0 0 34 103 104 17 102 0 105 106 107 41 39 1
08 0 109 -18 44 44 103 110 41 95 43 5e-7 1 81 1 103 385 33 44 0 0 101 97 111 17
 110 0 63 100 40 44 112 113 0 106 -15 255 63 62 0 57 17 0 17 100 0 63 94 110 91
 114 115 0 116 -17 40 0 63 110 57 31 53 27 0 37 -17 112 0 105 107 106 31 110 113
 0 0 +16 113 50 117 ?112 118 119 120 0 0 1 17 106 0 105 112 102 44 121 122 0 114
 +15 105 49 0 106 123 0 17 121 0 124 98 114 41 106 122 0 0 -16 122 45 125 ?106 1
19 115 126 0 0 1 17 114 0 124 121 116 44 100 115 0 0 +15 124 42 0 116 127 0 17 1
16 0 124 114 98 91 128 129 0 130 +16 115 43 131 ?114 122 132 133 0 0 1 81 1 131
 405 33 115 0 0 125 134 135 16 132 40 134 ?136 115 129 137 0 0 1 133 255 133 341
 0 115 138 139 0 +139 .014796228 -9999999999999e-18 .007732646771501 .015658171
 -9999999999999e-18 .007732646771501 0 861943e-9 30 138 219 0 1 120 133 140 +.01
5658171 -9999999999999e-18 .007732646771501 0 1224646799147e-28 1 30 139 213 0 1
 133 141 142 +.014796228 -9999999999999e-18 .007732646771501 1 0 0 133 141 343 0
 143 139 144 0 +144 .014796228 -9999999999999e-18 .007450968997354 .014796228 -9
99999999999897e-20 .007732646771501 0 .0002816777741469995 141 255 142 133 142 1
42 139 16 143 36 145 ?130 129 146 141 0 0 1 30 144 207 0 1 141 147 148 +.0147962
28 -9999999999999e-18 .007450968997354 0 1224646799147e-28 1 133 147 345 0 149 1
44 150 0 +150 .015925234991888 -9999999999999e-18 .007450968997354 .014796228 -9
999999999999e-18 .007450968997354 0 .001129006991888002 141 148 141 148 148 144
 16 149 29 151 ?152 153 154 147 0 0 1 30 150 201 0 1 147 155 156 +.0159252349918
88 -9999999999999e-18 .007450968997354 -1 0 0 133 155 347 0 157 150 158 0 +158 .
015925234991888 -9999999999999e-18 .0090412444 .015925234991888 -999999999999919
e-20 .007450968997354 0 .001590275402646 141 156 147 156 156 150 16 157 22 159 ?
160 161 162 155 0 0 1 30 158 195 0 1 155 20 163 +.015925234991888 -9999999999999
e-18 .0090412444 0 -1224646799147e-28 -1 133 20 349 0 66 158 8 0 +8 .01483881049
0066 -9999999999999e-18 .0090412444 .015925234991888 -9999999999999e-18 .0090412
444 0 .001086424501822 141 163 155 163 163 158 16 66 15 164 ?65 165 166 20 0 0 1
 81 1 164 417 33 66 0 0 167 168 169 17 65 0 170 171 67 69 58 66 0 0 +16 165 17 1
67 ?172 162 66 173 0 0 1 16 166 12 168 ?51 66 174 175 0 0 1 81 1 168 418 33 166
 0 0 164 176 177 17 51 0 50 178 26 59 52 166 0 179 +16 174 10 176 ?67 166 180 18
1 0 0 1 133 175 317 0 166 182 183 0 +183 .014838810490066 1072737523027e-30 .008
759566625853 .014838810490066 1107233101476996e-33 .0090412444 0 .00028167777414
7001 30 182 181 0 1 184 175 185 +.014838810490066 1072737523027e-30 .00875956662
5853 0 -1 1224646799147e-28 30 183 186 0 1 175 186 187 +.014838810490066 1072737
523027e-30 .008759566625853 0 1224646799147e-28 1 133 186 319 0 162 183 188 0 +1
88 .014838810490066 1107233101477e-30 .0090412444 .015925234991888 1107233101477
e-30 .0090412444 0 .001086424501822 141 187 175 187 187 183 16 162 19 189 ?178 1
57 165 186 0 0 1 30 188 192 0 1 186 190 191 +.014838810490066 1107233101477e-30
 .0090412444 1 0 0 133 190 321 0 154 188 192 0 +192 .015925234991888 11072331014
77e-30 .0090412444 .015925234991888 912480533315737e-33 .007450968997354 0 .0015
90275402646 141 191 186 191 191 188 16 154 26 193 ?194 149 161 190 0 0 1 30 192
 198 0 1 190 195 196 +.015925234991888 1107233101477e-30 .0090412444 0 -12246467
99147e-28 -1 133 195 323 0 146 192 197 0 +197 .015925234991888 9124805333156e-31
 .007450968997354 .014796228 9124805333156e-31 .007450968997354 0 .0011290069918
88002 141 196 190 196 196 192 16 146 33 198 ?199 143 153 195 0 0 1 30 197 204 0
 1 195 137 200 +.015925234991888 9124805333156e-31 .007450968997354 -1 0 0 133 1
37 325 0 132 197 201 0 +201 .014796228 9124805333156e-31 .007450968997354 .01479
6228 946976111765597e-33 .007732646771501 0 .0002816777741469995 141 200 195 200
 200 197 30 201 210 0 1 137 202 203 +.014796228 9124805333156e-31 .0074509689973
54 0 1224646799147e-28 1 133 202 327 0 119 201 204 0 +204 .014796228 94697611176
56e-31 .007732646771501 .015658171 9469761117656e-31 .007732646771501 0 861943e-
9 141 203 137 203 203 201 16 119 47 205 ?109 113 122 202 0 0 1 30 204 216 0 1 20
2 206 207 +.014796228 9469761117656e-31 .007732646771501 1 0 0 133 206 329 0 108
 204 208 0 +208 .015658171 9469761117656e-31 .007732646771501 .015658171 1072737
523026868e-33 .008759566625853 0 .001026919854352 141 207 202 207 207 204 16 108
 54 209 ?39 27 118 206 0 0 1 30 208 222 0 1 206 28 210 +.015658171 9469761117656
e-31 .007732646771501 0 1224646799147e-28 1 133 28 331 0 11 208 211 0 +211 .0156
58171 1072737523027e-30 .008759566625853 .014838810490066 1072737523027e-30 .008
759566625853 0 .000819360509933998 141 210 206 210 210 208 30 211 225 0 1 28 212
 213 +.015658171 1072737523027e-30 .008759566625853 -1 0 0 133 212 335 0 180 211
 214 0 +214 .014838810490066 -9999999999999e-18 .008759566625853 .01483881049006
6 -999999999999897e-20 .0090412444 0 .000281677774147001 141 213 28 213 213 211
 16 180 8 215 ?216 174 217 212 0 0 1 30 214 183 0 1 212 218 219 +.01483881049006
6 -9999999999999e-18 .008759566625853 0 1224646799147e-28 1 133 218 337 0 27 214
 220 0 +220 .015658171 -9999999999999e-18 .008759566625853 .014838810490066 -999
9999999999e-18 .008759566625853 0 .000819360509933998 141 219 212 219 219 214 16
 27 57 221 ?53 11 108 218 0 0 1 30 220 224 0 1 218 120 222 +.015658171 -99999999
99999e-18 .008759566625853 -1 0 0 133 120 339 0 113 220 138 0 +138 .015658171 -9
999999999999e-18 .007732646771501 .015658171 -999999999999887e-20 .0087595666258
53 0 .001026919854352 141 222 218 222 222 220 81 1 221 399 33 27 0 0 25 209 223
 80 7 CCCCCDI12 legal_owners0 17 1 lCZ1 33 224 225 9000 0 0 0 0 3 5 0 0 0 FFTFTF
TTFFFFFFFFF2 81 1 25 398 33 11 0 0 47 221 226 81 1 209 400 33 108 0 0 221 227 22
8 83 255 1 223 3376 81 1 227 401 33 118 0 0 209 117 229 83 1 228 3377 16 118 52
 227 ?37 108 113 230 0 0 1 81 1 117 402 33 113 0 0 227 205 231 83 1 229 3378 81
 1 205 403 33 119 0 0 117 125 232 83 1 231 3379 81 1 125 404 33 122 0 0 205 131
 233 83 1 232 3380 83 1 233 3381 17 37 0 36 53 30 31 107 118 0 112 +133 230 311
 0 118 234 235 0 +235 .015658171 1072737523027e-30 .008759566625853 .015658171 -
9999999999999e-18 .008759566625853 0 1e-5 30 234 215 0 1 126 230 236 +.015658171
 9469761117656e-31 .007732646771501 0 -1 1224646799147e-28 30 235 221 0 1 230 18
4 237 +.015658171 1072737523027e-30 .008759566625853 0 -1 1224646799147e-28 133
 184 313 0 217 235 182 0 +182 .014838810490066 1072737523027e-30 .00875956662585
3 .014838810490066 -9999999999999e-18 .008759566625853 0 1e-5 141 237 230 237 23
7 235 16 217 5 238 ?239 180 0 184 0 0 1 81 1 238 421 33 217 0 0 215 240 241 17 2
39 0 242 216 52 22 38 217 0 0 +15 242 4 0 239 243 0 17 216 0 242 179 239 54 57 1
80 0 0 +17 52 0 242 239 179 46 51 166 0 38 -17 38 0 36 30 53 46 239 217 0 0 -15
 36 56 0 37 244 0 14 255 244 55 245 ?123 246 36 6 247 +0 0 123 246 24 81 1 245 4
24 33 244 0 0 248 249 250 14 123 48 249 ?127 244 105 6 251 +0 0 127 244 24 14 24
6 59 248 ?244 17 50 6 19 -0 0 244 17 24 50 247 223 0 244 251 19 0 +.015658171 10
72737523027e-30 .008759566625853 0 -1224646799147e-28 -1 -1 0 0 13 24 2 0 0 0 0
 0 0 10 17 14 17 61 240 ?246 0 63 6 7 +0 0 246 0 24 81 1 240 422 33 17 0 0 238 2
48 252 81 1 248 423 33 246 0 0 240 245 253 83 1 252 3399 83 1 253 34e2 50 251 21
7 0 123 254 247 0 +.015658171 9469761117656e-31 .007732646771501 -1 0 0 0 122464
6799147e-28 1 50 19 226 0 246 247 7 0 +.014838810490066 1072737523027e-30 .00875
9566625853 0 -1 1224646799147e-28 -1 0 0 50 254 211 0 127 255 251 0 +.014796228
 9469761117656e-31 .007732646771501 0 1224646799147e-28 1 1 0 0 14 127 41 256 ?2
57 123 124 6 254 +0 0 257 123 24 50 255 205 0 257 258 254 0 +.014796228 91248053
33156e-31 .007450968997354 -1 0 0 0 1224646799147e-28 1 14 257 34 259 ?260 127 2
61 6 255 +0 0 260 127 24 50 258 199 0 260 262 255 0 +.015925234991888 9124805333
156e-31 .007450968997354 0 -1224646799147e-28 -1 -1 0 0 14 260 27 263 ?264 257 2
65 6 258 +0 0 264 257 24 50 262 193 0 264 266 258 0 +.015925234991888 1107233101
477e-30 .0090412444 1 0 0 0 -1224646799147e-28 -1 14 264 20 267 ?268 260 269 6 2
62 +0 0 268 260 24 50 266 187 0 268 270 262 0 +.014838810490066 1107233101477e-3
0 .0090412444 0 1224646799147e-28 1 1 0 0 14 268 13 271 ?243 264 170 6 266 +0 0
 243 264 24 50 270 178 0 243 0 266 0 +.014838810490066 1072737523027e-30 .008759
566625853 -1 0 0 0 1224646799147e-28 1 14 243 3 272 ?0 268 242 6 270 +0 0 0 268
 24 81 1 272 431 33 243 0 0 271 273 274 81 1 271 430 33 268 0 0 267 272 275 81 1
 273 432 33 1 276 277 272 0 278 83 1 274 3408 81 1 276 380 279 1 0 273 0 0 280 8
1 1 277 433 281 1 273 282 0 0 283 83 1 278 3409 80 1 281 33 284 9000 0 0 0 0 3 5
 0 0 0 FFTFTFTTFFFFFFFFF2 81 1 282 486 285 1 277 14 0 0 286 83 1 283 17325 80 1
 285 287 288 8040 0 0 0 0 3 5 0 0 0 TTTFFFFFFFFFFFFFF2 81 1 14 487 289 1 282 2 0
 0 290 83 3 286 1 1 1 80 1 289 13 291 8038 0 0 0 0 0 0 0 0 0 TTTTTTTTTTTTTFTFT10
 98 255 11 290 72 67 45 48 52 80 97 100 48 48 57 79 255 14 291 SDL/TYSA_UNAME79
 17 288 SDL/TYSA_COLOUR_279 18 284 BTI/importMaxCount80 1 279 292 293 9000 0 0 0
 0 3 5 0 0 0 TTTFFFFFFFFFFFFFF1 82 255 1 280 7 79 23 293 ONSHAPE_ORIGINALBODY_ID
81 1 267 429 33 264 0 0 263 271 294 83 1 275 3407 81 1 263 428 33 260 0 0 259 26
7 295 83 1 294 3406 81 1 259 427 33 257 0 0 256 263 296 83 1 295 3405 81 1 256 4
26 33 127 0 0 249 259 297 83 1 296 3404 81 1 249 425 33 123 0 0 245 256 298 83 1
 297 3403 83 1 298 3402 15 170 14 0 67 268 0 17 67 0 170 65 68 54 179 174 0 216
 +17 68 0 170 67 171 59 178 162 0 51 -17 179 0 242 52 216 59 67 174 0 0 -17 171
 0 170 68 65 72 172 165 0 0 -17 178 0 50 194 51 72 68 162 0 171 +15 50 60 0 51 2
46 0 17 194 0 50 199 178 79 75 154 0 299 +17 199 0 50 136 194 87 82 146 0 300 +1
7 75 0 269 172 299 72 194 154 0 178 -17 299 0 269 75 160 79 301 161 0 0 -15 269
 21 0 172 264 0 17 160 0 269 299 172 76 64 157 0 0 +17 301 0 265 152 82 76 299 1
61 0 160 +16 161 24 302 ?301 154 157 303 0 0 1 81 1 302 413 33 161 0 0 193 159 3
04 133 303 295 0 161 305 306 0 +306 .015925234991888 9124805333156e-31 .00745096
8997354 .015925234991888 -9999999999999e-18 .007450968997354 0 1e-5 30 305 191 0
 1 173 303 307 +.015925234991888 1107233101477e-30 .0090412444 0 -1 122464679914
7e-28 30 306 197 0 1 303 308 309 +.015925234991888 9124805333156e-31 .0074509689
97354 0 -1 1224646799147e-28 133 308 299 0 153 306 310 0 +310 .014796228 9124805
333156e-31 .007450968997354 .014796228 -9999999999999e-18 .007450968997354 0 1e-
5 141 309 303 309 309 306 16 153 31 311 ?312 146 149 308 0 0 1 30 310 203 0 1 30
8 313 314 +.014796228 9124805333156e-31 .007450968997354 0 -1 1224646799147e-28
 133 313 303 0 129 310 315 0 +315 .014796228 9469761117656e-31 .007732646771501
 .014796228 -9999999999999e-18 .007732646771501 0 1e-5 141 314 308 314 314 310 1
6 129 38 316 ?116 132 143 313 0 0 1 30 315 209 0 1 313 126 317 +.014796228 94697
61117656e-31 .007732646771501 0 -1 1224646799147e-28 133 126 307 0 122 315 234 0
 +234 .015658171 9469761117656e-31 .007732646771501 .015658171 -9999999999999e-1
8 .007732646771501 0 1e-5 141 317 313 317 317 315 81 1 316 407 33 129 0 0 134 14
5 318 81 1 134 406 33 132 0 0 131 316 319 81 1 145 408 33 143 0 0 316 198 320 83
 1 318 3384 81 1 198 409 33 146 0 0 145 311 321 83 1 320 3385 81 1 311 410 33 15
3 0 0 198 151 322 83 1 321 3386 81 1 151 411 33 149 0 0 311 193 323 83 1 322 338
7 81 1 193 412 33 154 0 0 151 302 324 83 1 323 3388 83 1 324 3389 83 1 319 3383
 17 312 0 261 130 90 83 300 153 0 152 +15 261 35 0 312 257 0 17 130 0 261 128 31
2 91 94 143 0 0 +17 90 0 261 312 128 87 136 132 0 199 -17 300 0 265 82 152 87 31
2 153 0 0 -17 152 0 265 300 301 83 86 149 0 0 +15 265 28 0 301 260 0 17 86 0 63
 64 94 76 152 149 0 301 -17 64 0 63 58 86 69 160 157 0 172 -17 94 0 63 86 100 83
 130 143 0 312 -17 172 0 269 160 75 69 171 165 0 65 +17 82 0 265 301 300 79 199
 146 0 194 -17 128 0 261 90 130 95 116 129 0 0 -17 136 0 50 109 199 95 90 132 0
 128 +17 109 0 50 39 136 41 98 119 0 121 +17 39 0 50 26 109 12 102 108 0 107 +17
 98 0 124 116 121 95 109 119 0 136 -17 107 0 105 102 112 12 37 118 0 0 -133 173
 291 0 165 325 305 0 +305 .015925234991888 1107233101477e-30 .0090412444 .015925
234991888 -9999999999999e-18 .0090412444 0 1e-5 141 307 173 307 307 305 30 325 1
85 0 1 181 173 326 +.014838810490066 1107233101477e-30 .0090412444 0 -1 12246467
99147e-28 133 181 287 0 174 0 325 0 +325 .014838810490066 1107233101477e-30 .009
0412444 .014838810490066 -9999999999999e-18 .0090412444 0 1e-5 141 326 181 326 3
26 325 81 1 159 414 33 157 0 0 302 189 327 83 1 304 3390 81 1 189 415 33 162 0 0
 159 167 328 83 1 327 3391 81 1 167 416 33 165 0 0 189 164 329 83 1 328 3392 83
 1 329 3393 83 1 250 3401 17 57 0 63 40 58 22 216 180 0 239 -81 1 215 420 33 180
 0 0 176 238 330 83 1 241 3398 81 1 176 419 33 174 0 0 168 215 331 83 1 330 3397
 83 1 331 3396 141 236 126 236 236 234 83 1 226 3375 79 13 225 BTI/importTag141
 185 184 185 185 182 83 1 177 3395 83 1 169 3394 141 140 120 140 140 138 83 1 13
5 3382 81 1 97 386 33 95 0 0 103 99 332 83 1 111 3362 81 1 99 387 33 91 0 0 97 8
9 333 83 1 332 3363 81 1 89 388 33 87 0 0 99 93 334 83 1 333 3364 81 1 93 389 33
 83 0 0 89 81 335 83 1 334 3365 81 1 81 390 33 79 0 0 93 85 336 83 1 335 3366 81
 1 85 391 33 76 0 0 81 74 337 83 1 336 3367 81 1 74 392 33 72 0 0 85 78 338 83 1
 337 3368 81 1 78 393 33 69 0 0 74 61 339 83 1 338 3369 81 1 61 394 33 59 0 0 78
 55 340 83 1 339 3370 83 1 340 3371 81 1 34 383 33 31 0 0 29 101 341 83 1 104 33
61 83 1 341 3360 83 1 62 3372 83 1 56 3373 83 1 49 3374 83 1 35 3359 19 18 63 0
 1 0 10 6 0 S0 141 21 20 21 21 8 74 4 CI16 index_map_offset0 0 1 dCCZ20 16 6 0 0
 276 273 277 282 14 2 0 0 0 0 0 0 0 0 0 0 0 0 0 0 80 1 13 342 343 8017 0 0 0 0 0
 0 0 0 0 TTTTTTTTTTTTTFTFT3 84 255 11 15 HC-04Pad00979 13 343 SDL/TYSA_NAME1 0 
