**ABCDEFGHIJKLMNOPQRSTUVWXYZabcdefghijklmnopqrstuvwxyz**************************
**PARASOLID !"#$%&'()*+,-./:;<=>?@[\]^_`{|}~0123456789**************************
**PART1;
MC=unknown;
MC_MODEL=unknown;
MC_ID=unknown;
OS=unknown;
OS_RELEASE=unknown;
FRU=Parasolid 37.0.173;
APPL=Onshape;
SITE=unknown;
USER=unknown;
FORMAT=text;
GUISE=transmit;
KEY=BTGapi::writeModels_.xmt;
FILE=BTGapi::writeModels_.xmt;
DATE=2024-12-29T04:00:26 (UTC);
**PART2;
SCH=SCH_3700173_36001;
USFLD_SIZE=0;
**PART3;
**END_OF_HEADER*****************************************************************
T51 : TRANSMIT FILE created by modeller version 370017323 SCH_3700173_36001_1300
6231 0 12 36 CCCI7 lattice222 0 CCCI4 mesh1006 0 I8 polyline1008 0 CCCCCCCDI5 ow
ner1040 0 CCCI16 boundary_lattice222 0 CCCI13 boundary_mesh1006 0 I17 boundary_p
olyline1008 0 CCCA16 index_map_offset0 0 1 dA9 index_map82 0 A17 node_id_index_m
ap82 0 A20 schema_embedding_map82 0 A5 child12 0 A14 lowest_node_id0 0 1 dA16 me
sh_offset_data206 0 Z1 265 2 3 0 0 0 0 0 0 0 1e3 1e-8 0 4 5 1 0 1 2 6 0 7 8 9 0
 0 10 11 12 0 0 0 0 0 0 0 81 255 1 2 237 13 1 14 0 0 0 15 70 11 CI9 list_type0 0
 1 uI10 notransmit0 0 1 lCCCDCCDI12 finger_index0 0 1 dI12 finger_block1012 0 CZ
3 0 4 T1 0 0 5 20 1 16 16 13 255 6 36 0 1 0 17 0 0 18 0 50 255 7 123 0 17 19 0 0
 +.0280046588128405 .0198418648140324 .0112013404070074 0 1 37007434154172e-30 1
 0 0 30 255 8 115 0 1 20 0 21 +.0295046588128405 .0198418648140324 .006701340407
00736 -1 0 0 29 255 9 102 0 22 23 0 .0295046588128405 .0218418648140324 .0157013
404070074 19 9 CCCCCCI5 frame230 0 CA5 owner12 0 Z10 1 0 1 18 0 24 0 V0 16 255 1
1 30 25 ?26 0 27 28 0 0 1 18 255 12 25 29 26 0 30 31 5e-7 1 81 1 29 210 32 12 0
 0 0 33 34 17 255 26 0 35 36 37 12 38 11 0 39 +18 30 23 33 40 12 41 42 5e-7 1 29
 31 116 0 12 42 23 .0295046588128405 .0218418648140324 .00670134040700736 29 42
 114 0 30 43 31 .0295046588128405 .0198418648140324 .00670134040700736 29 23 99
 0 44 31 9 .0295046588128405 .0198418648140324 .0157013404070074 18 44 6 45 46 4
7 0 23 5e-7 1 81 1 45 217 32 44 0 0 48 25 49 17 46 0 50 51 52 44 40 27 0 53 +18
 47 7 48 54 22 44 55 5e-7 1 81 1 48 216 32 47 0 0 56 45 57 17 54 0 58 59 60 47 6
1 62 0 63 -18 22 9 56 38 64 47 9 5e-7 1 29 55 100 0 47 0 65 .0265046588128405 .0
198418648140324 .0157013404070074 29 65 104 0 64 55 66 .0265046588128405 .021841
8648140324 .0157013404070074 18 64 11 67 68 69 22 65 5e-7 1 29 66 108 0 69 65 43
 .0265046588128405 .0198418648140324 .00670134040700736 18 69 16 70 71 41 64 66
 5e-7 1 29 43 110 0 41 66 42 .0265046588128405 .0218418648140324 .00670134040700
736 18 41 18 72 36 30 69 43 5e-7 1 81 1 72 212 32 41 0 0 33 70 73 17 36 0 35 68
 26 41 74 75 0 76 +15 255 35 32 0 26 77 0 17 68 0 35 37 36 64 78 79 0 59 +17 74
 0 80 81 76 12 36 75 0 0 -16 75 24 82 ?36 83 84 85 0 0 1 17 76 0 80 74 71 41 60
 86 0 78 +15 80 21 0 71 87 0 17 71 0 80 76 81 69 52 84 0 60 +17 60 0 58 54 78 69
 76 86 0 61 -16 86 19 88 ?76 84 79 89 0 0 1 17 78 0 58 60 59 41 68 79 0 0 -15 58
 14 0 54 90 0 17 59 0 58 78 54 64 63 91 0 92 +16 79 17 93 ?68 86 62 94 0 0 1 81
 1 93 224 32 79 0 0 88 95 96 16 62 15 95 ?61 79 91 97 0 0 1 133 255 94 177 0 79
 98 99 0 +99 .0265046588128405 .0218418648140324 .00670134040700736 .02650465881
28405 .0218418648140324 .0157013404070074 -.009 0 30 98 117 0 1 85 94 100 +.0295
046588128405 .0218418648140324 .00670134040700736 -1 0 0 30 99 111 0 1 94 101 10
2 +.0265046588128405 .0218418648140324 .0157013404070074 0 -37007434154172e-30 1
 133 101 179 0 103 99 104 0 +104 .0265046588128405 .0218418648140324 .0157013404
070074 .0295046588128405 .0218418648140324 .0157013404070074 -.003 0 141 255 102
 94 102 102 99 16 103 10 105 ?37 91 106 101 0 0 1 30 104 105 0 1 101 107 108 +.0
295046588128405 .0218418648140324 .0157013404070074 1 0 0 133 107 183 0 27 104 1
09 0 +109 .0295046588128405 .0198418648140324 .00670134040700736 .02950465881284
05 .0198418648140324 .0157013404070074 -.0045 .0045 141 108 101 108 108 104 16 2
7 29 110 ?46 11 83 107 0 0 1 30 109 120 0 1 107 111 112 +.0295046588128405 .0198
418648140324 .0112013404070074 0 -37007434154172e-30 1 133 111 185 0 113 109 114
 0 +114 .0295046588128405 .0198418648140324 .0157013404070074 .0265046588128405
 .0198418648140324 .0157013404070074 0 .003 141 112 107 112 112 109 16 113 5 115
 ?51 106 0 111 0 0 1 30 114 101 0 1 111 97 116 +.0295046588128405 .0198418648140
324 .0157013404070074 -1 0 0 133 97 187 0 62 114 117 0 +117 .0265046588128405 .0
198418648140324 .0157013404070074 .0265046588128405 .0198418648140324 .006701340
40700736 0 .009 141 116 111 116 116 114 30 117 109 0 1 97 20 118 +.0265046588128
405 .0198418648140324 .0157013404070074 0 37007434154172e-30 -1 133 20 189 0 84
 117 8 0 +8 .0295046588128405 .0198418648140324 .00670134040700736 .026504658812
8405 .0198418648140324 .00670134040700736 0 .003 141 118 97 118 118 117 16 84 22
 119 ?71 75 86 20 0 0 1 81 1 119 222 32 84 0 0 82 88 120 80 7 CCCCCDI12 legal_ow
ners0 17 1 lCZ1 32 121 122 9000 0 0 0 0 3 5 0 0 0 FFTFTFTTFFFFFFFFF2 81 1 82 221
 32 75 0 0 123 119 124 81 1 88 223 32 86 0 0 119 93 125 83 255 1 120 432 83 1 12
5 433 81 1 123 220 32 83 0 0 110 82 126 83 1 124 431 16 83 26 123 ?39 27 75 127
 0 0 1 81 1 110 219 32 27 0 0 25 123 128 83 1 126 430 81 1 25 218 32 11 0 0 45 1
10 129 83 1 128 429 83 1 129 428 17 39 0 130 38 40 12 81 83 0 74 +133 127 167 0
 83 131 132 0 +132 .0295046588128405 .0198418648140324 .00670134040700736 .02950
46588128405 .0218418648140324 .00670134040700736 0 .002 30 131 112 0 1 89 127 13
3 +.0265046588128405 .0198418648140324 .00670134040700736 0 1 222044604925031e-3
0 30 132 118 0 1 127 134 135 +.0295046588128405 .0198418648140324 .0067013404070
0736 0 1 222044604925031e-30 133 134 169 0 106 132 136 0 +136 .0295046588128405
 .0198418648140324 .0157013404070074 .0295046588128405 .0218418648140324 .015701
3404070074 0 .002 141 135 127 135 135 132 16 106 8 137 ?138 103 113 134 0 0 1 30
 136 103 0 1 134 28 139 +.0295046588128405 .0198418648140324 .0157013404070074 0
 1 222044604925031e-30 133 28 173 0 11 136 140 0 +140 .0295046588128405 .0218418
648140324 .0157013404070074 .0295046588128405 .0218418648140324 .006701340407007
36 -.0045 .0045 141 139 134 139 139 136 30 140 121 0 1 28 85 141 +.0295046588128
405 .0218418648140324 .0112013404070074 0 37007434154172e-30 -1 133 85 175 0 75
 140 98 0 +98 .0295046588128405 .0218418648140324 .00670134040700736 .0265046588
128405 .0218418648140324 .00670134040700736 0 .003 141 141 28 141 141 140 81 1 1
37 228 32 106 0 0 105 115 142 17 138 0 143 92 144 22 53 106 0 0 +15 143 4 0 144
 145 0 17 92 0 143 63 138 64 37 103 0 0 -17 144 0 143 138 63 44 51 113 0 0 -17 5
3 0 130 40 38 44 138 106 0 144 -15 130 28 0 40 146 0 17 40 0 130 39 53 30 46 27
 0 81 -17 38 0 130 53 39 22 26 11 0 37 -17 37 0 35 26 68 22 92 103 0 138 +17 81
 0 80 71 74 30 39 83 0 52 -17 52 0 50 46 61 30 71 84 0 0 -15 50 34 0 46 17 0 17
 61 0 50 52 51 69 54 62 0 0 +17 51 0 50 61 46 47 144 113 0 0 +14 255 17 33 147 ?
77 0 50 6 7 -0 0 77 0 24 81 1 147 230 32 17 0 0 115 148 149 14 77 31 148 ?146 17
 35 6 19 +0 0 146 17 24 13 24 2 0 0 0 0 0 0 10 17 81 1 148 231 32 77 0 0 147 150
 151 14 146 27 150 ?87 77 130 6 152 +0 0 87 77 24 50 19 122 0 77 152 7 0 +.02800
46588128405 .0218418648140324 .0112013404070074 0 1 222044604925031e-30 0 -22204
4604925031e-30 1 50 152 119 0 146 153 19 0 +.0295046588128405 .0198418648140324
 .0157013404070074 1 0 0 0 37007434154172e-30 -1 50 153 113 0 87 154 152 0 +.029
5046588128405 .0198418648140324 .00670134040700736 0 222044604925031e-30 -1 -1 0
 0 14 87 20 155 ?90 146 80 6 153 +0 0 90 146 24 50 154 107 0 90 156 153 0 +.0265
046588128405 .0198418648140324 .00670134040700735 -1 0 0 0 -37007434154172e-30 1
 14 90 13 157 ?145 87 58 6 154 +0 0 145 87 24 50 156 98 0 145 0 154 0 +.02650465
88128405 .0198418648140324 .0157013404070074 0 -222044604925031e-30 1 1 0 0 14 1
45 3 158 ?0 90 143 6 156 +0 0 0 90 24 81 1 158 235 32 145 0 0 157 14 159 81 1 15
7 234 32 90 0 0 155 158 160 81 1 14 236 32 1 161 2 158 0 162 83 1 159 445 81 1 1
61 208 163 1 164 14 0 0 165 83 1 162 446 80 1 163 166 167 9000 0 0 0 0 3 5 0 0 0
 TTTFFFFFFFFFFFFFF1 81 1 164 155 168 1 169 161 0 0 170 82 255 1 165 0 80 1 168 1
71 172 8038 0 0 0 0 0 0 0 0 0 TTTTTTTTTTTTTFTFT10 81 1 169 154 171 1 0 164 0 0 1
73 98 255 20 170 79 110 101 32 115 105 100 101 32 84 84 32 77 111 116 111 114 32
 118 49 80 1 171 174 175 8017 0 0 0 0 0 0 0 0 0 TTTTTTTTTTTTTFTFT3 84 255 20 173
 One side TT Motor v179 255 13 175 SDL/TYSA_NAME79 14 172 SDL/TYSA_UNAME79 23 16
7 ONSHAPE_ORIGINALBODY_ID81 1 155 233 32 87 0 0 150 157 176 83 1 160 444 81 1 15
0 232 32 146 0 0 148 155 177 83 1 176 443 83 1 177 442 83 1 151 441 81 1 115 229
 32 113 0 0 137 147 178 83 1 149 440 83 1 178 439 17 63 0 143 144 92 47 59 91 0
 51 -16 91 12 179 ?59 62 103 180 0 0 1 81 1 179 226 32 91 0 0 95 105 181 133 180
 159 0 91 0 182 0 +182 .0265046588128405 .0198418648140324 .0157013404070074 .02
65046588128405 .0218418648140324 .0157013404070074 0 .002 30 182 106 0 1 180 89
 183 +.0265046588128405 .0198418648140324 .0157013404070074 0 1 222044604925031e
-30 133 89 163 0 86 182 131 0 +131 .0265046588128405 .0198418648140324 .00670134
040700736 .0265046588128405 .0218418648140324 .00670134040700736 0 .002 141 183
 180 183 183 182 81 1 95 225 32 62 0 0 93 179 184 81 1 105 227 32 103 0 0 179 13
7 185 83 1 181 436 83 1 185 437 83 1 184 435 83 1 142 438 141 133 89 133 133 131
 79 13 122 BTI/importTag141 100 85 100 100 98 83 1 96 434 81 1 33 211 32 30 0 0
 29 72 186 81 1 70 213 32 69 0 0 72 67 187 83 1 73 422 81 1 67 214 32 64 0 0 70
 56 188 83 1 187 423 81 1 56 215 32 22 0 0 67 48 189 83 1 188 424 83 1 189 425 8
3 1 186 421 83 1 57 426 83 1 49 427 83 1 34 420 19 18 35 0 1 0 10 6 0 S0 141 21
 20 21 21 8 74 4 CI16 index_map_offset0 0 1 dCCZ20 16 5 0 0 169 164 161 14 2 0 0
 0 0 0 0 0 0 0 0 0 0 0 0 0 80 1 13 32 190 9000 0 0 0 0 3 5 0 0 0 FFTFTFTTFFFFFFF
FF2 83 1 15 1237 79 18 190 BTI/importMaxCount1 0 
