**ABCDEFGHIJKLMNOPQRSTUVWXYZabcdefghijklmnopqrstuvwxyz**************************
**PARASOLID !"#$%&'()*+,-./:;<=>?@[\]^_`{|}~0123456789**************************
**PART1;
MC=unknown;
MC_MODEL=unknown;
MC_ID=unknown;
OS=unknown;
OS_RELEASE=unknown;
FRU=Parasolid 37.0.173;
APPL=Onshape;
SITE=unknown;
USER=unknown;
FORMAT=text;
GUISE=transmit;
KEY=BTGapi::writeModels_.xmt;
FILE=BTGapi::writeModels_.xmt;
DATE=2024-12-29T04:00:25 (UTC);
**PART2;
SCH=SCH_3700173_36001;
USFLD_SIZE=0;
**PART3;
**END_OF_HEADER*****************************************************************
T51 : TRANSMIT FILE created by modeller version 370017323 SCH_3700173_36001_1300
6231 0 12 36 CCCI7 lattice222 0 CCCI4 mesh1006 0 I8 polyline1008 0 CCCCCCCDI5 ow
ner1040 0 CCCI16 boundary_lattice222 0 CCCI13 boundary_mesh1006 0 I17 boundary_p
olyline1008 0 CCCA16 index_map_offset0 0 1 dA9 index_map82 0 A17 node_id_index_m
ap82 0 A20 schema_embedding_map82 0 A5 child12 0 A14 lowest_node_id0 0 1 dA16 me
sh_offset_data206 0 Z1 1117 2 3 0 0 0 0 0 0 0 1e3 1e-8 0 4 5 1 0 1 2 6 0 7 8 9 0
 0 10 11 12 0 0 0 0 0 0 0 81 255 1 2 1117 13 1 14 0 0 0 15 70 11 CI9 list_type0
 0 1 uI10 notransmit0 0 1 lCCCDCCDI12 finger_index0 0 1 dI12 finger_block1012 0
 CZ3 0 4 T1 0 0 6 20 1 16 16 13 255 6 116 0 1 0 17 0 0 18 0 50 255 7 651 0 19 20
 0 21 +.003452437467048 .00545122918451733 -.00977573561223507 -2221059177735975
e-31 .999999961865988 .000276166656135497 1 221983330162517e-30 4439206307927e-2
8 30 255 8 937 0 1 22 0 23 +.003452437467048 -.001007167367418692 -.008739354979
4925 -221869373652652e-30 .99924082552513 -.0389586011537451 29 255 9 695 0 24 2
5 0 .003452513384495075 -.000807247900982538 -.00804726805738696 19 9 CCCCCCI5 f
rame230 0 CA5 owner12 0 Z10 1 0 1 18 0 26 0 V0 16 255 11 112 27 ?28 0 29 30 0 0
 1 18 255 12 108 31 32 0 33 34 5e-7 1 81 1 31 947 35 12 0 0 0 36 37 17 255 32 0
 38 39 40 12 28 11 0 41 -18 33 103 36 28 12 42 43 5e-7 1 29 34 406 0 12 44 43 .0
03952437467048 .005252922459138 -.01555412421196 29 44 396 0 42 45 34 .003652437
467048 .005252922459138 -.01555412421196 29 43 402 0 33 34 46 .003952437467048 .
004953153450632 -.01556589457896 29 46 676 0 47 43 48 .004152361549600825 .00475
325219064803 -.0153736655227937 18 47 83 49 50 51 52 46 5e-7 1 29 48 677 0 53 46
 54 .00345251338449699 .00475325219064875 -.015373665522795 18 53 71 55 56 52 57
 48 5e-7 1 29 54 680 0 52 48 58 .00345251338449507 .00545271321049595 -.01534620
133312825 18 52 73 59 60 47 53 54 5e-7 1 29 58 681 0 51 54 61 .00415236154960184
5 .00545271321049633 -.01534620133312655 18 51 88 62 39 63 47 58 5e-7 1 29 61 68
4 0 64 58 65 .004152437467048 .00475171381370187 -.00980319981691096 18 64 53 66
 67 68 69 61 5e-7 1 29 65 685 0 70 61 71 .004152437467048 .003941409562099995 -.
00893240966428915 18 70 17 72 73 74 75 65 5e-7 1 29 71 686 0 76 65 77 .003452437
467048 .003941409562099995 -.00893240966428915 18 76 7 78 79 24 80 71 5e-7 1 29
 77 687 0 81 71 82 .003452437467048 .00475171381370187 -.00980319981691101 18 81
 30 83 84 85 86 77 5e-7 1 29 82 688 0 57 77 87 .004152437467048 .005451174833549
82 -.00977573562724501 18 57 66 88 89 53 68 82 5e-7 1 29 87 689 0 85 82 90 .0034
52437467048 .00545117483354982 -.00977573562724505 18 85 32 91 92 93 81 87 5e-7
 1 29 90 690 0 94 87 95 .003452437467048 .0039414095621 -.00823240966428903 18 9
4 11 96 97 75 24 90 5e-7 1 29 95 691 0 98 90 99 .004152437467048 .0039414095621
 -.00823240966428903 18 98 39 100 101 69 93 95 5e-7 1 29 99 692 0 80 95 102 .003
45251338449538 -.00080724790098269 -.00874726805738718 18 80 6 103 104 76 0 99 5
e-7 1 29 102 693 0 75 99 25 .004152361549600405 -.000807247900982547 -.008747268
05738705 18 75 16 105 106 70 94 102 5e-7 1 29 25 694 0 93 102 9 .004152361549601
005 -.000807247900982498 -.008047268057387 18 93 37 107 108 98 85 25 5e-7 1 81 1
 107 960 35 93 0 0 100 91 109 17 108 0 110 111 112 93 113 114 0 115 -15 255 110
 61 0 116 117 0 17 111 0 110 116 108 24 118 119 0 120 -17 112 0 110 108 116 68 1
21 122 0 123 +17 113 0 124 125 115 68 108 114 0 112 +16 114 62 126 ?113 127 122
 128 0 0 1 17 115 0 124 113 106 93 129 130 0 131 -15 124 76 0 113 132 0 17 106 0
 124 115 125 75 133 134 0 129 -17 129 0 135 136 131 75 115 130 0 137 +16 130 43
 138 ?129 134 139 140 0 0 1 17 131 0 135 129 101 93 141 142 0 118 -15 135 42 0 1
31 143 0 17 101 0 135 131 89 98 144 127 0 145 -17 141 0 146 97 118 98 131 142 0
 0 +16 142 38 147 ?141 139 119 148 0 0 1 17 118 0 146 141 149 93 111 119 0 0 +15
 146 35 0 149 150 0 17 149 0 146 118 97 24 151 152 0 153 -16 119 36 154 ?118 142
 155 156 0 0 1 81 1 154 999 35 119 0 0 147 157 158 16 155 31 157 ?159 119 160 16
1 0 0 1 133 255 156 893 0 119 162 163 0 +163 .003452513384495075 -.0008072694674
601 -.00804721282428524 .004152361549601005 -.0008072694674601 -.008047212824285
24 759174470766309e-22 .000699924082553005 31 255 162 883 0 1 161 156 164 +.0034
52437467048 .003893735415406 -.009789177275343 -1 -2306951517968e-28 -2220469939
177e-28 2306951517968e-28 -1 0 .001557497421857 30 163 894 0 1 156 165 166 +.003
452437467048 -.0008072694674601 -.00804721282428524 1 -2112300764274225e-32 2228
68152971648e-30 133 165 903 0 160 163 167 0 +167 .003452437467048 .0039414095621
 -.00893240966428903 .003452437467048 .00475171381370173 -.009803199816911 1.626
38320142663 3.15793489862188 141 255 166 156 166 166 163 16 160 29 168 ?169 155
 170 165 0 0 1 31 167 900 0 1 165 171 172 +.003452437467048 .003893735415406 -.0
09789177275343 -1 -2306951517968e-28 -2220469939177e-28 2306951517968e-28 -1 0 .
000858092980751 133 171 908 0 173 167 174 0 +174 .004152361549600405 -.000807442
306162463 -.00874714190012577 .00345251338449538 -.000807442306162463 -.00874714
190012577 759174475940122e-22 .00069992408255262 141 172 165 172 172 167 16 173
 18 175 ?176 177 178 171 0 0 1 30 174 909 0 1 171 148 179 +.004152437467048 -.00
0807442306162463 -.00874714190012577 -1 1118038811118856e-31 -226403637002638e-3
0 133 148 913 0 142 174 180 0 +180 .004152437467048 -.00080724578354472 -.008047
21374767847 .004152437467048 .00394141167953777 -.00823235535458065 .00020007597
51258375 .00495234123669272 141 179 171 179 179 174 30 180 914 0 1 148 181 182 +
.004152437467048 -.001007169866097206 -.0080394190675631 -221869373652652e-30 .9
9924082552513 -.0389586011537451 133 181 918 0 178 180 183 0 +183 .0041524374670
48 -.000807243284866254 -.00874714965960787 .004152437467048 .003941414178216285
 -.00893229126651005 -.00605801146380515 -.00130574620223822 141 182 148 182 182
 180 16 178 15 184 ?136 173 152 181 0 0 1 30 183 919 0 1 181 185 186 +.004152437
467048 .00524616909126711 -.00898316131201107 -221869373652652e-30 .999240825525
13 -.0389586011537451 133 185 923 0 152 183 187 0 +187 .003452437467048 -.000807
245783544763 -.00804721374767847 .003452437467048 .00394141167953777 -.008232355
35458065 -.00608528248461277 -.001333017223045844 141 186 181 186 186 183 16 152
 10 188 ?151 178 189 185 0 0 1 30 187 924 0 1 185 190 191 +.003452437467048 .005
27341690993332 -.00828428784090437 -221869373652652e-30 .99924082552513 -.038958
6011537451 133 190 931 0 189 187 192 0 +192 .003452437467048 -.000807171983535 -
.00874726805738718 .003452437467048 -.000807171983535 -.00804726805738696 .00392
7470501382815 .00462747050138304 141 191 185 191 191 187 16 189 8 193 ?153 152 1
94 190 0 0 1 30 192 932 0 1 190 22 195 +.003452437467048 -.000807171983535 -.012
67473855877 -2220469939177e-28 -2337806391186905e-32 1 133 22 936 0 194 192 8 0
 +8 .003452437467048 -.00080724328486639 -.00874714965960786 .003452437467048 .0
03941414178216285 -.00893229126651005 .000200075975125653 .00495234123669272 141
 195 190 195 195 192 16 194 5 196 ?197 189 0 22 0 0 1 81 1 196 1010 35 194 0 0 1
93 198 199 17 197 0 200 201 176 76 202 194 0 0 +15 200 14 0 203 204 0 17 201 0 2
00 203 197 70 205 177 206 136 -17 176 0 200 197 203 80 137 173 0 207 +17 202 0 2
08 153 79 80 197 194 0 0 -15 208 4 0 202 209 0 17 153 0 208 151 202 24 207 189 0
 0 +17 79 0 208 202 84 76 169 160 0 205 -17 84 0 208 79 210 81 211 212 0 213 -17
 169 0 214 215 205 81 79 160 0 0 +17 205 0 214 169 73 76 201 177 216 197 +15 214
 51 0 73 217 0 17 73 0 214 205 215 70 218 219 0 201 -16 177 19 220 5e-7 205 221
 173 0 0 0 1 133 216 778 0 205 222 223 0 +223 .004152437467048 .0039414095621 -.
00893240966428903 .003452437467048 .0039414095621 -.00893240966428903 0 1 137 25
5 222 777 0 1 224 216 225 +226 227 0 ?137 223 779 0 1 216 206 228 +226 229 0 ?13
3 206 780 0 201 223 230 0 +230 .003452437467048 .00394141417821629 -.00893229126
651005 .004152437467048 .00394141417821629 -.00893229126651005 0 1 141 228 216 2
28 228 223 51 255 226 362 0 217 231 232 233 +.004152437467048 .003893735415406 -
.009789177275343 -1 -222044604925e-27 -222044604925e-27 .000858092980751 -225703
803236818e-30 .0166176467792259 .999861917374355 134 255 229 0 0 0 0 0 0 +234 23
5 136 255 234 1 2 2 2 5 FFF1 236 237 238 135 255 235 2 0 45 255 4 236 .038968462
94081965 -200826412776821e-33 .03896846294081985 7e-4 127 255 2 237 2 2 128 255
 2 238 0 1 14 255 217 50 239 ?240 241 214 6 226 -0 0 240 241 26 50 231 358 0 240
 242 226 0 +.004152437467048 -.000907247900983 -.008643369237387 -76359546937832
6e-31 .720749124575741 .693196003611751 -1 559019405558904e-31 -16827970883818e-
29 50 232 366 0 241 226 243 0 +.003802437467048 -.001007171983535 -.008389473377
272 7434529182758e-29 1 -2230358754827e-29 1 -7434529182758e-29 222044604925e-27
 141 233 222 244 244 226 141 244 223 233 233 226 14 241 55 245 ?217 117 246 6 23
2 -0 0 217 117 26 50 243 370 0 117 232 247 0 +.003452437467048 -.000907247900983
 -.008143369237387 175274410632337e-30 .693196003611751 -.720749124575741 1 -105
615038213691e-31 233025906885557e-30 14 117 60 248 ?241 249 110 6 243 -0 0 241 2
49 26 51 247 372 0 249 243 250 251 +.003452437467048 .003893735415406 -.00978917
7275343 -1 -222044604925e-27 -222044604925e-27 .001557497421857 -220181867053415
e-30 -.00835412923782185 .999965103653461 14 249 63 252 ?117 132 253 6 247 +0 0
 117 132 26 50 250 382 0 132 247 254 0 +.004052437467048 -.000907171983535 -.008
039473377272 -.707106781186548 .707106781186548 -17180630543769e-29 232507706088
103e-30 -104631011630929e-31 -1 141 251 255 256 256 247 137 255 783 0 1 257 258
 259 +247 260 0 ?141 256 261 251 251 247 137 261 787 0 1 262 263 264 +247 265 0
 ?133 262 786 0 145 266 261 0 +261 .003452437467048 .003941409562100015 -.008232
40966428854 .004152437467048 .003941409562100015 -.00823240966428854 0 1 133 263
 788 0 97 261 267 0 +267 .004152437467048 .003941411679537775 -.0082323553545806
5 .003452437467048 .003941411679537775 -.00823235535458065 0 1 141 264 262 264 2
64 261 134 265 0 0 0 0 0 0 +268 269 136 268 1 2 2 2 5 FFF1 270 271 272 135 269 2
 0 45 4 270 .03896846294062615 -3562576362244315e-34 .03896846294062605 -7e-4 12
7 2 271 2 2 128 2 272 0 1 17 97 0 146 149 141 94 145 139 263 273 -137 267 789 0
 1 263 274 275 +276 277 0 ?133 274 823 0 278 267 279 0 +279 .00345251338449507 .
00545276756683836 -.01534622078193025 .004152361549601845 .00545276756683836 -.0
1534622078193025 75917447069692e-21 .000699924082553845 141 275 263 275 275 267
 50 276 657 0 150 280 20 281 +.003452437467048 -.001007169866097206 -.0080394190
675631 -2218760343287295e-31 .0389586011537451 .99924082552513 1 277179837596211
e-44 222044604925071e-30 134 277 0 0 0 0 0 0 +282 283 136 282 1 2 2 2 5 FFF1 284
 285 286 135 283 2 0 45 4 284 7e-4 .00495234123669272 -428404616265098e-34 .0049
5234123669272 127 2 285 2 2 128 2 286 0 1 14 150 34 287 ?288 143 146 6 276 +0 0
 288 143 26 50 280 700 0 209 289 276 0 +.003452437467048 .005102241139255 -.0126
7473855877 -1 -2306951517968e-28 -2220469939177e-28 -239229438436205e-30 .999230
02835346 .0392345566655681 50 20 648 0 290 276 7 291 +.004152437467048 .00475183
230142906 -.00980319978418864 2221059177735975e-31 -.999999961865988 -.000276166
656135497 -1 -221983330162517e-30 -4439206307927e-28 141 281 267 281 281 276 14
 290 80 292 ?132 19 293 6 20 +0 0 132 19 26 141 291 294 291 291 20 137 294 775 0
 1 295 224 296 +20 297 0 ?133 295 774 0 213 298 294 0 +294 .004152437467048 .004
75183230142906 -.00980319978418864 .003452437467048 .00475183230142906 -.0098031
9978418864 0 1 133 224 776 0 215 294 222 0 +222 .003452437467048 .00475171381370
173 -.009803199816911 .004152437467048 .00475171381370173 -.009803199816911 0 1
 141 296 295 296 296 294 134 297 0 0 0 0 0 0 +299 300 136 299 1 2 2 2 5 FFF1 301
 302 303 135 300 2 0 45 4 301 0 0 7e-4 -3107015166291515e-34 127 2 302 2 2 128 2
 303 0 1 17 215 0 214 73 169 64 213 304 224 218 -17 213 0 293 211 67 81 215 304
 295 169 +16 304 54 305 5e-7 213 306 219 0 0 0 1 17 218 0 135 307 136 64 73 219
 0 0 +17 307 0 135 308 218 47 67 309 0 0 +17 136 0 135 218 129 70 203 178 0 0 +1
6 219 52 310 ?218 304 311 312 0 0 1 81 1 310 993 35 219 0 0 305 313 314 16 311 4
9 313 ?315 219 134 316 0 0 1 133 312 868 0 219 317 318 0 +318 .004152437467048 .
0039414095621 -.00893240966428903 .004152437467048 .00475171381370173 -.00980319
981691096 4.76797585501642 6.29952755221163 31 317 861 0 1 319 312 320 +.0041524
37467048 .003893735415406 -.009789177275343 -1 -2306951517968e-28 -2220469939177
e-28 -2306951517968e-28 1 0 .001557497421857 31 318 869 0 1 312 140 321 +.004152
437467048 .003893735415406 -.009789177275343 -1 -2306951517968e-28 -222046993917
7e-28 -2306951517968e-28 1 0 .000858092980751 133 140 878 0 130 318 322 0 +322 .
004152437467048 -.000807171983535001 -.008047268057387 .004152437467048 -.000807
171983535001 -.00874726805738705 -.004627470501383 -.003927470501382955 141 321
 312 321 321 318 30 322 879 0 1 140 161 323 +.004152437467048 -.0008071719835350
01 -.01267473855877 2220469939177e-28 -209238133334954e-31 -1 133 161 886 0 155
 322 162 0 +162 .003452437467048 .003941409562100015 -.00823240966428854 .003452
437467048 .00545117483354964 -.00977573562724505 1.60141056332015 3.132962260515
185 141 323 140 323 323 322 133 319 860 0 127 324 317 0 +317 .004152437467048 .0
03941409562100015 -.00823240966428854 .004152437467048 .00545117483354964 -.0097
7573562724501 4.74300321690994 6.27455491410495 141 320 319 320 320 317 16 127 6
5 325 ?144 326 114 319 0 0 1 30 324 854 0 1 327 319 328 +.003452437467048 .00475
183230142906 -.00980319978418864 221983275141499e-30 .000276166656135497 -.99999
9961865988 133 327 853 0 212 329 324 0 +324 .003452437467048 .00475183230142906
 -.00980319978418864 .003452437467048 .00475337067837483 -.01537366549007265 520
417022947452e-32 .00557046591830821 141 328 327 328 328 324 16 212 70 330 ?211 3
31 326 327 0 0 1 30 329 847 0 1 332 327 333 +.003452437467048 .00545202976582005
 -.01267464195881096 221983275141499e-30 .000276166656135497 -.999999961865988 1
33 332 846 0 331 334 329 0 +329 .003452437467048 .00545122918451733 -.0097757356
1223512 .003452437467048 .00545276756146311 -.01534620131811835 -.00289890645712
2775 .00267155946118466 141 333 332 333 333 329 16 331 72 335 ?336 337 212 332 0
 0 1 30 334 841 0 1 338 332 339 +.004152437467048 .00475262535138514 -.012674835
11099674 221983275141499e-30 .000276166656135497 -.999999961865988 133 338 840 0
 309 340 334 0 +334 .004152437467048 .00475183230142906 -.0098031997841886 .0041
52437467048 .00475337067837483 -.0153736654900713 -.002871635436315125 .00269883
0481991805 141 339 338 339 339 334 16 309 82 341 ?307 342 337 338 0 0 1 30 340 8
35 0 1 343 338 344 +.004152437467048 .00545122918451733 -.00977573561223507 2219
83275141499e-30 .000276166656135497 -.999999961865988 133 343 834 0 345 346 340
 0 +340 .004152437467048 .00545122918451733 -.00977573561223508 .004152437467048
 .00545276756146311 -.01534620131811665 693889363929937e-32 .00557046591830578 1
41 344 343 344 344 340 16 345 87 347 ?348 278 342 343 0 0 1 30 346 829 0 1 349 3
43 350 +.004152437467048 .00475337073082806 -.01537385542332215 -1 -222069815872
1215e-31 -1307557197316096e-31 133 349 828 0 342 279 346 0 +346 .004152361549600
825 .00475337073082806 -.01537385542332215 .00345251338449699 .00475337073082806
 -.01537385542332215 759174471742091e-22 .000699924082551011 141 350 349 350 350
 346 16 342 84 351 ?352 345 309 349 0 0 1 30 279 824 0 1 274 349 353 +.003452437
467048 .00545276756683836 -.01534622078193025 1 2220435157742725e-31 22598842166
0735e-30 141 353 274 353 353 279 81 1 351 982 35 342 0 0 347 341 354 17 352 0 35
5 356 50 53 357 342 0 210 +15 355 101 0 50 358 0 17 356 0 355 359 352 63 56 360
 0 0 +17 50 0 355 352 359 47 40 361 0 362 -17 357 0 293 67 211 47 352 342 0 307
 -17 210 0 208 84 336 53 363 337 0 211 -17 336 0 208 210 159 52 92 331 0 0 +17 3
63 0 364 365 56 52 210 337 0 336 +16 337 74 366 ?363 309 331 367 0 0 1 17 211 0
 293 357 213 53 84 212 0 0 +15 293 81 0 67 290 0 17 67 0 293 213 357 64 307 309
 0 215 -81 1 366 984 35 337 0 0 341 335 368 133 367 768 0 337 369 298 0 +298 .00
3452437467048 .00475324921206134 -.0153735896638013 .003452437467048 .0054527102
3190856 -.0153461254741354 779468011601776e-20 .000707794680115825 30 369 763 0
 1 370 367 371 +.004152437467048 .005444921553475 -.01534643129495 2392294384363
1e-29 -.99923002835346 -.0392345566655681 30 298 769 0 1 367 295 372 +.003452437
467048 .004745460533628 -.01537389548462 -23922943843631e-29 .99923002835346 .03
92345566655681 141 372 367 372 372 298 133 370 762 0 373 374 369 0 +369 .0041524
37467048 .00545271023190885 -.0153461254741313 .004152437467048 .004753249212060
51 -.0153735896637972 -77946801165308e-19 .000692205319884388 141 371 370 371 37
1 369 16 373 99 375 ?362 361 376 370 0 0 1 30 374 410 0 1 30 370 377 +.003952437
467048 .005452768464809 -.01554627730062 23922943843631e-29 -.99923002835346 -.0
392345566655681 133 30 637 0 11 378 374 0 +374 .003952437467048 .005252922459137
73 -.01555412421195315 .003952437467048 .00495315345063172 -.0155658945789528 .0
002000000000005775 .000500000000000553 141 377 30 377 377 374 30 378 403 0 1 379
 30 380 +.003971491887987 .00493409396939 -.01554757384187 -.584704894752145 .58
4860175473146 -.56219103621314 133 379 635 0 361 381 378 0 +378 .004152336568199
86 .00475320126205682 -.01537369252314835 .00395243746704825 .00495315345063224
 -.01556589457896 -.0003092922290132725 3258809890214025e-20 141 380 379 380 380
 378 16 361 102 382 ?40 383 373 379 0 0 1 30 381 407 0 1 384 379 385 +.003971245
699618 .005271725290325 -.01553456319722 -.569703396157035 -.569539787683035 -.5
92505249473036 133 384 631 0 386 387 381 0 +381 .004152335910837285 .00545276349
572281 -.01534622501721375 .003952437467048825 .00525292245913881 -.015554124211
96155 -.000317867529737118 3301407837139295e-20 141 385 384 385 385 381 16 386 1
07 388 ?389 29 383 384 0 0 1 30 387 404 0 1 390 384 391 +.004152437467048 .00495
3153450632 -.01556589457896 -1 -2219833301626e-28 -4439206307927e-28 133 390 627
 0 383 392 387 0 +387 .003952437467048 .004953153450632 -.01556589457896 .003652
437467048 .004953153450632 -.01556589457896 2e-4 5e-4 141 391 390 391 391 387 16
 383 104 393 ?394 386 361 390 0 0 1 30 392 408 0 1 395 390 396 +.003452437467048
 .005252922459138 -.01555412421196 1 2219833301626e-28 4439206307927e-28 133 395
 625 0 29 397 392 0 +392 .003652437467048 .005252922459138 -.01555412421196 .003
952437467048 .005252922459138 -.01555412421196 2e-4 5e-4 141 396 395 396 396 392
 16 29 109 398 ?41 11 386 395 0 0 1 30 397 398 0 1 399 395 400 +.003652437467048
 .004753307444961 -.01557374149029 -23922943843631e-29 .99923002835346 .03923455
66655681 133 399 623 0 376 401 397 0 +397 .003652437467048 .00495315345063188 -.
0155658945789569 .003652437467048 .00525292245913789 -.0155541242119572 .0002000
00000000185 .000500000000000161 141 400 399 400 400 397 16 376 96 402 ?403 373 4
04 399 0 0 1 30 401 397 0 1 405 399 406 +.003638144470011 .005267211351486 -.015
53925915089 .569703396157035 -.569539787683035 -.592505249473036 133 405 617 0 4
04 407 401 0 +401 .003452539023260945 .0054527634957209 -.0153462250172127 .0036
52437467048415 .00525292245913789 -.0155541242119595 -.00032579311972171 2508848
838505915e-20 141 406 405 406 406 401 16 404 94 408 ?365 376 360 405 0 0 1 30 40
7 395 0 1 409 405 410 +.003637957383339 .004938669521431 -.01555197204583 .58470
4894752145 .584860175473146 -.56219103621314 133 409 613 0 360 411 407 0 +407 .0
0345253836589983 .00475320126205975 -.0153736925231454 .00365243746705014 .00495
315345063387 -.01556589457895585 -.000317115555391014 247647725221772e-19 141 41
0 409 410 410 407 16 360 92 412 ?356 404 278 409 0 0 1 30 411 360 0 1 413 409 41
4 +.003966730464085 -.000992878986498 -.008554334491658 -.569703396157144 -.5697
03396157144 .59234793898015 133 413 573 0 134 415 411 0 +411 .004152335910834485
 -.000807273539748517 -.00874731737465844 .003952437467048195 -.0010071719835348
04 -.00853947337727162 -.000325793119720646 250884883839818e-19 141 414 413 414
 414 411 16 134 47 416 ?133 311 130 413 0 0 1 30 415 368 0 1 417 413 418 +.00395
2437467048 -.001007171983535 -.008039473377272 222044604925e-27 0 -1 133 417 571
 0 306 419 415 0 +415 .003952437467048 -.001007171983535 -.008239473377272 .0039
52437467048 -.001007171983535 -.008539473377272 2e-4 5e-4 141 418 417 418 418 41
5 16 306 57 420 ?125 122 304 417 0 0 1 30 419 371 0 1 128 417 421 +.003966917550
757 -.000992691899827 -.008225546844701 -.584704894751717 -.584704894751717 -.56
2352533653728 133 128 569 0 114 422 419 0 +419 .004152336568198875 -.00080727288
2385123 -.00804721610866312 .003952437467048395 -.001007171983535606 -.008239473
37727178 -.0003171155553958745 247647725178624e-19 141 421 128 421 421 419 30 42
2 369 0 1 423 128 424 +.003452437467048 -.001007171983535 -.008239473377272 1 24
65190328816e-44 222044604925e-27 133 423 553 0 122 425 422 0 +422 .0036524374670
48 -.001007171983535 -.008239473377272 .003952437467048 -.001007171983535 -.0082
39473377272 2e-4 5e-4 141 424 423 424 424 422 16 122 59 426 ?112 114 306 423 0 0
 1 30 425 342 0 1 427 423 428 +.003633383046109 -.000988117562597 -.008221147377
287 .584704894751717 -.584704894751717 -.562352533653728 133 427 551 0 170 429 4
25 0 +425 .00345253836589726 -.000807272882385258 -.00804721610866293 .003652437
467047715 -.001007171983535714 -.00823947337727156 -.000309292229011584 32588098
90210445e-20 141 428 427 428 428 425 16 170 26 430 ?116 160 431 427 0 0 1 30 429
 361 0 1 316 427 432 +.004152437467048 -.001007171983535 -.008539473377272 -1 -2
465190328816e-44 -222044604925e-27 133 316 547 0 311 433 429 0 +429 .00395243746
7048 -.001007171983535 -.008539473377272 .003652437467048 -.001007171983535 -.00
8539473377272 2e-4 5e-4 141 432 316 432 432 429 30 433 341 0 1 434 316 435 +.003
652437467048 -.001007171983535 -.008739473377272 -222044604925e-27 0 1 133 434 5
45 0 431 436 433 0 +433 .003652437467048 -.001007171983535 -.008539473377272 .00
3652437467048 -.001007171983535 -.008239473377272 .0002000000000000025 5e-4 141
 435 434 435 435 433 16 431 24 437 ?438 170 221 434 0 0 1 30 436 339 0 1 439 434
 440 +.003633629234478 -.000988363750966 -.008559029198553 .569703396157144 -.56
9703396157144 .59234793898015 133 439 533 0 221 0 436 0 +436 .00345253902326116
 -.000807273539749158 -.00874731737465892 .003652437467047515 -.0010071719835355
14 -.00853947337727203 -.000317867529732771 3301407837198e-17 141 440 439 440 44
0 436 16 221 22 441 ?442 431 177 439 0 0 1 81 1 441 1004 35 221 0 0 437 220 443
 17 442 0 444 438 207 74 104 221 0 0 +15 444 21 0 442 288 0 17 438 0 444 120 442
 86 445 431 0 0 +17 207 0 444 442 120 80 153 189 0 202 -18 74 23 446 315 86 70 4
47 5e-7 1 17 104 0 448 137 315 80 442 221 0 176 -15 448 46 0 133 240 0 17 137 0
 448 133 104 75 176 173 0 203 -17 315 0 448 104 133 74 449 311 0 445 +17 133 0 4
48 315 137 69 106 134 0 0 +17 449 0 246 123 445 69 315 311 0 133 -17 445 0 246 4
49 121 74 438 431 0 442 -15 246 56 0 445 241 0 17 121 0 246 445 123 86 112 122 0
 116 -17 123 0 246 121 449 68 125 306 0 0 -18 86 25 450 121 81 74 451 5e-7 1 17
 116 0 110 112 111 86 120 170 0 438 +17 120 0 444 207 438 24 116 170 0 149 -18 2
4 9 452 111 94 76 9 5e-7 1 81 1 452 968 35 24 0 0 96 78 453 80 7 CCCCCDI12 legal
_owners0 17 1 lCZ1 35 454 455 9000 0 0 0 0 3 5 0 0 0 FFTFTFTTFFFFFFFFF2 81 1 96
 967 35 94 0 0 105 452 456 81 1 78 969 35 76 0 0 452 103 457 83 255 1 453 16651
 81 1 103 970 35 80 0 0 78 27 458 83 1 457 16652 81 1 27 971 35 11 0 0 103 398 4
59 83 1 458 16653 81 1 398 972 35 29 0 0 27 388 460 83 1 459 16654 81 1 388 973
 35 386 0 0 398 393 461 83 1 460 16655 81 1 393 974 35 383 0 0 388 382 462 83 1
 461 16656 81 1 382 975 35 361 0 0 393 375 463 83 1 462 16657 81 1 375 976 35 37
3 0 0 382 402 464 83 1 463 16658 81 1 402 977 35 376 0 0 375 408 465 83 1 464 16
659 81 1 408 978 35 404 0 0 402 412 466 83 1 465 16660 81 1 412 979 35 360 0 0 4
08 467 468 83 1 466 16661 81 1 467 980 35 278 0 0 412 347 469 83 1 468 16662 16
 278 89 467 ?470 360 345 274 0 0 1 81 1 347 981 35 345 0 0 467 351 471 83 1 469
 16663 83 1 471 16664 17 470 0 472 389 60 51 473 278 0 348 +15 472 106 0 60 474
 0 17 389 0 472 475 470 12 39 386 0 0 +17 60 0 472 470 475 52 365 404 0 473 -17
 473 0 476 92 348 52 470 278 0 363 -17 348 0 476 473 477 51 89 345 0 0 +15 476 8
6 0 92 19 0 17 477 0 476 348 92 57 478 326 258 144 -17 89 0 135 101 308 57 348 3
45 0 477 -17 308 0 135 89 307 51 362 373 0 470 -17 362 0 38 40 39 47 308 373 0 3
57 +15 38 114 0 39 17 0 17 40 0 38 32 362 33 50 361 0 0 +17 39 0 38 362 32 51 38
9 386 0 308 -14 17 113 198 ?479 0 38 6 480 -0 0 479 0 26 81 1 198 1011 35 17 0 0
 196 481 482 14 479 110 481 ?474 17 483 6 484 -0 0 474 17 26 50 480 411 0 17 484
 289 0 +.004052437467048 .005448845009142 -.01544635429779 -.707106781186753 -.0
277430210750503 .706562329013753 887484530310143e-29 .99923002835346 .0392345566
65559 13 26 2 0 0 0 0 0 0 10 17 50 484 409 0 479 485 480 0 +.003802437467048 .00
5103037954885 -.01556000939546 -245257709685613e-30 -.0392345566655681 .99923002
835346 871182163421501e-32 -.99923002835346 -.0392345566655681 50 289 654 0 204
 480 280 486 +.004152437467048 -.001007167367418692 -.0087393549794925 221876034
3287295e-31 -.0389586011537451 -.99924082552513 -1 -277179837596211e-44 -2220446
04925071e-30 14 204 13 487 ?209 288 200 6 289 +0 0 209 288 26 141 486 230 486 48
6 289 137 230 781 0 1 206 257 488 +289 489 0 ?133 257 782 0 478 230 255 0 +255 .
004152437467048 .00545117483354964 -.009775735627245 .003452437467048 .005451174
83354964 -.009775735627245 0 1 141 488 206 488 488 230 134 489 0 0 0 0 0 0 +490
 491 136 490 1 2 2 2 5 FFF1 492 493 494 135 491 2 0 45 4 492 7e-4 .0049523412366
9272 428404616265098e-34 .00495234123669272 127 2 493 2 2 128 2 494 0 1 17 478 0
 253 273 144 85 477 326 257 159 +15 253 64 0 273 249 0 17 273 0 253 145 478 94 1
59 155 0 151 -17 144 0 253 478 145 57 101 127 0 0 +16 326 67 495 5e-7 478 212 12
7 0 0 0 1 17 159 0 208 336 151 85 273 155 0 0 +17 151 0 208 159 153 94 149 152 0
 0 +81 1 495 987 35 326 0 0 330 325 496 81 1 330 986 35 212 0 0 335 495 497 81 1
 325 988 35 127 0 0 495 126 498 83 1 496 16670 81 1 126 989 35 114 0 0 325 426 4
99 83 1 498 16671 81 1 426 990 35 122 0 0 126 420 500 83 1 499 16672 81 1 420 99
1 35 306 0 0 426 305 501 83 1 500 16673 81 1 305 992 35 304 0 0 420 310 502 83 1
 501 16674 83 1 502 16675 81 1 335 985 35 331 0 0 366 330 503 83 1 497 16669 83
 1 503 16668 17 145 0 253 144 273 98 97 139 262 141 +16 139 40 504 5e-7 145 130
 142 0 0 0 1 81 1 504 997 35 139 0 0 138 147 505 81 1 138 996 35 130 0 0 416 504
 506 81 1 147 998 35 142 0 0 504 154 507 83 1 505 16680 83 1 507 16681 81 1 416
 995 35 134 0 0 313 138 508 83 1 506 16679 81 1 313 994 35 311 0 0 310 416 509 8
3 1 508 16678 83 1 509 16677 81 1 487 1027 35 204 0 0 510 511 512 14 209 3 511 ?
0 204 208 6 280 +0 0 0 204 26 14 288 20 510 ?204 150 444 6 242 -0 0 204 150 26 8
1 1 510 1026 35 288 0 0 287 487 513 50 242 337 0 288 0 231 0 +.003552437467048 -
.000907171983535 -.008739473377272 .707106781186548 .707106781186548 17354172266
4389e-30 -23373483137732e-29 -116902264522496e-31 1 81 1 287 1025 35 150 0 0 514
 510 515 83 1 513 16709 81 1 514 1024 35 143 0 0 516 287 517 83 1 515 16708 14 1
43 41 514 ?150 240 135 6 518 +0 0 150 240 26 81 1 516 1023 35 240 0 0 239 514 51
9 83 1 517 16707 14 240 45 516 ?143 217 448 6 231 -0 0 143 217 26 81 1 239 1022
 35 217 0 0 245 516 520 83 1 519 16706 81 1 245 1021 35 241 0 0 248 239 521 83 1
 520 16705 81 1 248 1020 35 117 0 0 252 245 522 83 1 521 16704 81 1 252 1019 35
 249 0 0 523 248 524 83 1 522 16703 81 1 523 1018 35 132 0 0 292 252 525 83 1 52
4 16702 14 132 75 523 ?249 290 124 6 250 -0 0 249 290 26 81 1 292 1017 35 290 0
 0 526 523 527 83 1 525 16701 81 1 526 1016 35 19 0 0 528 292 529 83 1 527 167e2
 14 19 85 526 ?290 530 476 6 7 +0 0 290 530 26 81 1 528 1015 35 530 0 0 531 526
 532 83 1 529 16699 14 530 90 528 ?19 358 364 6 254 -0 0 19 358 26 81 1 531 1014
 35 358 0 0 533 528 534 83 1 532 16698 14 358 100 531 ?530 474 355 6 535 -0 0 53
0 474 26 81 1 533 1013 35 474 0 0 481 531 536 83 1 534 16697 14 474 105 533 ?358
 479 472 6 485 -0 0 358 479 26 81 1 481 1012 35 479 0 0 198 533 537 83 1 536 166
96 83 1 537 16695 50 485 405 0 474 535 484 0 +.003452437467048 .005352817845308
 -.0154502007601 347088849717455e-32 -.720940534712906 .692996930301909 -1 -3308
95630875631e-30 -339229763193974e-30 50 535 401 0 358 518 485 0 +.00415243746704
8 .004853202831131 -.01546981803844 -248160799212168e-30 .692996930301909 .72094
0534712906 1 655646755714154e-31 281194731803595e-30 50 518 399 0 143 254 535 0
 +.004152437467048 .005102241139255 -.01267473855877 1 2306951517968e-28 2220469
939177e-28 239229438436205e-30 -.99923002835346 -.0392345566655681 50 254 393 0
 530 250 518 0 +.003552437467048 .004749383989295 -.01547381848745 .707106781186
753 -.0277430210750503 .706562329013753 906566488545897e-29 -.99923002835346 -.0
392345566655592 15 364 91 0 56 530 0 17 56 0 364 363 538 53 356 360 0 352 -17 53
8 0 364 56 365 63 403 376 0 356 -17 365 0 364 538 363 42 60 404 0 0 +18 63 93 53
9 394 42 51 45 5e-7 1 17 403 0 483 41 394 42 538 376 0 365 +15 483 111 0 403 479
 0 17 41 0 483 28 403 12 475 29 0 389 +17 394 0 483 403 28 63 359 383 0 538 +18
 42 95 540 475 33 63 44 5e-7 1 81 1 540 949 35 42 0 0 36 539 541 17 475 0 472 60
 389 42 41 29 0 403 -81 1 36 948 35 33 0 0 31 540 542 81 1 539 950 35 63 0 0 540
 62 543 83 1 541 16632 81 1 62 951 35 51 0 0 539 49 544 83 1 543 16633 81 1 49 9
52 35 47 0 0 62 59 545 83 1 544 16634 81 1 59 953 35 52 0 0 49 55 546 83 1 545 1
6635 81 1 55 954 35 53 0 0 59 88 547 83 1 546 16636 81 1 88 955 35 57 0 0 55 548
 549 83 1 547 16637 81 1 548 956 35 68 0 0 88 66 550 83 1 549 16638 18 68 58 548
 113 57 64 551 5e-7 1 81 1 66 957 35 64 0 0 548 552 553 83 1 550 16639 81 1 552
 958 35 69 0 0 66 100 554 83 1 553 16640 18 69 48 552 125 64 98 555 5e-7 1 81 1
 100 959 35 98 0 0 552 107 556 83 1 554 16641 83 1 556 16642 17 125 0 124 106 11
3 69 123 306 0 449 +29 555 359 0 69 451 551 .003952437467048 -.001007171983535 -
.008539473377272 29 451 340 0 86 447 555 .003652437467048 -.001007171983535 -.00
8239473377272 29 551 367 0 68 555 45 .003952437467048 -.001007171983535 -.008239
473377272 29 45 394 0 63 551 44 .003652437467048 .004953153450632 -.015565894578
96 29 447 338 0 74 0 451 .003652437467048 -.001007171983535 -.008539473377272 83
 1 542 16631 17 28 0 483 394 41 33 32 11 0 359 +17 359 0 355 50 356 33 394 383 0
 40 -81 1 511 1028 35 209 0 0 487 557 558 81 1 557 1029 35 1 559 560 511 0 561 8
3 1 558 16711 81 1 559 945 562 1 0 557 0 0 563 81 1 560 1030 564 1 557 565 0 0 5
66 83 1 561 16712 80 1 564 35 567 9000 0 0 0 0 3 5 0 0 0 FFTFTFTTFFFFFFFFF2 81 1
 565 1115 568 1 560 14 0 0 569 83 1 566 17325 80 1 568 570 571 8040 0 0 0 0 3 5
 0 0 0 TTTFFFFFFFFFFFFFF2 81 1 14 1116 572 1 565 2 0 0 573 83 3 569 .69019607843
1373 .690196078431373 .690196078431373 80 1 572 13 574 8038 0 0 0 0 0 0 0 0 0 TT
TTTTTTTTTTTFTFT10 98 255 13 573 72 67 45 48 52 65 114 114 97 121 48 48 49 79 255
 14 574 SDL/TYSA_UNAME79 17 571 SDL/TYSA_COLOUR_279 18 567 BTI/importMaxCount80
 1 562 575 576 9000 0 0 0 0 3 5 0 0 0 TTTFFFFFFFFFFFFFF1 82 255 1 563 47 79 23 5
76 ONSHAPE_ORIGINALBODY_ID83 1 512 16710 83 1 482 16694 17 92 0 476 477 473 85 3
36 331 0 478 -133 258 784 0 477 255 266 0 +266 .003452437467048 .005451229184517
33 -.00977573561223507 .004152437467048 .00545122918451733 -.00977573561223507 0
 1 137 266 785 0 1 258 262 577 +7 578 0 ?141 577 258 577 577 266 134 578 0 0 0 0
 0 0 +579 580 136 579 1 2 2 2 5 FFF1 581 582 583 135 580 2 0 45 4 581 0 0 7e-4 3
107015166291515e-34 127 2 582 2 2 128 2 583 0 1 81 1 105 966 35 75 0 0 72 96 584
 83 1 456 16650 81 1 72 965 35 70 0 0 446 105 585 83 1 584 16649 81 1 446 964 35
 74 0 0 450 72 586 83 1 585 16648 81 1 450 963 35 86 0 0 83 446 587 83 1 586 166
47 81 1 83 962 35 81 0 0 91 450 588 83 1 587 16646 81 1 91 961 35 85 0 0 107 83
 589 83 1 588 16645 83 1 589 16644 79 13 455 BTI/importTag17 203 0 200 176 201 7
5 136 178 0 0 -81 1 437 1003 35 431 0 0 430 441 590 81 1 220 1005 35 177 0 0 441
 175 591 83 1 443 16687 81 1 175 1006 35 173 0 0 220 184 592 83 1 591 16688 81 1
 184 1007 35 178 0 0 175 188 593 83 1 592 16689 81 1 188 1008 35 152 0 0 184 193
 594 83 1 593 16690 81 1 193 1009 35 189 0 0 188 196 595 83 1 594 16691 83 1 595
 16692 81 1 430 1002 35 170 0 0 168 437 596 83 1 590 16686 81 1 168 1001 35 160
 0 0 157 430 597 83 1 596 16685 81 1 157 1000 35 155 0 0 154 168 598 83 1 597 16
684 83 1 598 16683 81 1 341 983 35 309 0 0 351 366 599 83 1 368 16667 83 1 599 1
6666 83 1 354 16665 83 1 314 16676 141 259 257 259 259 255 134 260 0 0 0 0 0 0 +
600 601 136 600 1 2 2 2 5 FFF1 602 603 604 135 601 2 0 45 4 602 1.57052016013563
5 -7e-4 1.570520160135635 -348805665737788e-33 127 2 603 2 2 128 2 604 0 1 141 2
25 224 225 225 222 134 227 0 0 0 0 0 0 +605 606 136 605 1 2 2 2 5 FFF1 607 608 6
09 135 606 2 0 45 4 607 1.57052016013607 7e-4 1.57052016013607 -18739584478125e-
32 127 2 608 2 2 128 2 609 0 1 83 1 199 16693 141 164 161 164 164 162 83 1 158 1
6682 83 1 109 16643 83 1 37 16630 19 18 115 0 1 0 10 6 0 S0 141 23 22 23 23 8 14
1 21 266 21 21 7 74 4 CI16 index_map_offset0 0 1 dCCZ20 16 6 0 0 559 557 560 565
 14 2 0 0 0 0 0 0 0 0 0 0 0 0 0 0 80 1 13 610 611 8017 0 0 0 0 0 0 0 0 0 TTTTTTT
TTTTTTFTFT3 84 255 13 15 HC-04Array00179 13 611 SDL/TYSA_NAME1 0 
