**ABCDEFGHIJKLMNOPQRSTUVWXYZabcdefghijklmnopqrstuvwxyz**************************
**PARASOLID !"#$%&'()*+,-./:;<=>?@[\]^_`{|}~0123456789**************************
**PART1;
MC=unknown;
MC_MODEL=unknown;
MC_ID=unknown;
OS=unknown;
OS_RELEASE=unknown;
FRU=Parasolid 37.0.173;
APPL=Onshape;
SITE=unknown;
USER=unknown;
FORMAT=text;
GUISE=transmit;
KEY=BTGapi::writeModels_.xmt;
FILE=BTGapi::writeModels_.xmt;
DATE=2024-12-29T04:00:29 (UTC);
**PART2;
SCH=SCH_3700173_36001;
USFLD_SIZE=0;
**PART3;
**END_OF_HEADER*****************************************************************
T51 : TRANSMIT FILE created by modeller version 370017323 SCH_3700173_36001_1300
6231 0 12 36 CCCI7 lattice222 0 CCCI4 mesh1006 0 I8 polyline1008 0 CCCCCCCDI5 ow
ner1040 0 CCCI16 boundary_lattice222 0 CCCI13 boundary_mesh1006 0 I17 boundary_p
olyline1008 0 CCCA16 index_map_offset0 0 1 dA9 index_map82 0 A17 node_id_index_m
ap82 0 A20 schema_embedding_map82 0 A5 child12 0 A14 lowest_node_id0 0 1 dA16 me
sh_offset_data206 0 Z1 488 2 3 0 0 0 0 0 0 0 1e3 1e-8 0 4 5 1 0 1 2 6 0 7 8 9 0
 0 10 11 12 0 0 0 0 0 0 0 81 255 1 2 488 13 1 14 0 0 0 15 70 11 CI9 list_type0 0
 1 uI10 notransmit0 0 1 lCCCDCCDI12 finger_index0 0 1 dI12 finger_block1012 0 CZ
3 0 4 T1 0 0 6 20 1 16 16 13 255 6 64 0 1 0 17 0 0 18 0 50 255 7 227 0 17 19 0 0
 +.017152447818218 -9999999999999e-18 .005479540812431 0 -1 1224646799147e-28 -1
 0 0 30 255 8 225 0 1 20 0 21 +.016870770044071 -9999999999999e-18 .005479540812
431 1 0 0 29 255 9 180 0 22 23 0 .017152447818218 -9999999999999e-18 .0054795408
12431 19 9 CCCCCCI5 frame230 0 CA5 owner12 0 Z10 1 0 1 18 0 24 0 V0 16 255 11 58
 25 ?26 0 27 20 0 0 1 18 255 12 53 28 29 0 30 31 5e-7 1 81 1 28 382 32 12 0 0 0
 33 34 17 255 29 0 35 36 37 12 26 11 0 38 -18 30 51 33 39 12 40 41 5e-7 1 29 31
 220 0 12 41 23 .016870770044071 -9999999999999e-18 .005479540812431 29 41 218 0
 30 42 31 .016870770044071 6710502116741e-31 .005479540812431 29 23 179 0 43 31
 9 .017152447818218 6710502116741e-31 .005479540812431 18 43 6 44 45 22 0 23 5e-
7 1 81 1 44 397 32 43 0 0 46 25 47 17 45 0 35 37 36 43 39 27 0 48 +18 22 7 46 26
 49 43 9 5e-7 1 81 1 46 396 32 22 0 0 50 44 51 17 26 0 52 53 38 22 29 11 0 54 +1
8 49 9 50 55 56 22 57 5e-7 1 81 1 50 395 32 49 0 0 58 46 59 17 55 0 60 48 61 49
 62 63 0 64 -18 56 11 58 65 66 49 67 5e-7 1 29 57 182 0 49 0 67 .017152447818218
 7716051260699e-31 .006300634 29 67 184 0 56 57 68 .017152447818218 -99999999999
99e-18 .006300634 29 68 188 0 66 67 69 .018179367672569 7716051260699e-31 .00630
0634 18 66 16 70 61 71 56 68 5e-7 1 29 69 190 0 71 68 72 .018179367672569 -99999
99999999e-18 .006300634 18 71 18 73 74 75 66 69 5e-7 1 29 72 194 0 75 69 76 .018
179367672569 6696922252487e-31 .005468452011755 18 75 23 77 78 79 71 72 5e-7 1 2
9 76 196 0 79 72 80 .018179367672569 -9999999999999e-18 .005468452011755 18 79 2
5 81 82 83 75 76 5e-7 1 29 80 200 0 83 76 84 .018461045446716 6696922252487e-31
 .005468452011755 18 83 30 85 86 87 79 80 5e-7 1 29 84 202 0 87 80 88 .018461045
446716 -9999999999999e-18 .005468452011755 18 87 32 89 90 91 83 84 5e-7 1 29 88
 206 0 91 84 92 .018461045446716 8027408541158e-31 .006554876513577 18 91 37 93
 94 95 87 88 5e-7 1 29 92 208 0 95 88 96 .018461045446716 -9999999999999e-18 .00
6554876513577 18 95 39 97 98 99 91 92 5e-7 1 29 96 212 0 99 92 42 .0168707700440
71 8027408541158e-31 .006554876513577 18 99 44 100 101 40 95 96 5e-7 1 29 42 214
 0 40 96 41 .016870770044071 -9999999999999e-18 .006554876513577 18 40 46 102 10
3 30 99 42 5e-7 1 81 1 102 384 32 40 0 0 33 100 104 17 103 0 105 106 107 40 38 1
08 0 109 -15 255 105 49 0 106 110 0 17 106 0 105 111 103 99 112 113 0 114 -17 10
7 0 105 103 111 12 36 115 0 0 +17 38 0 52 26 109 12 103 108 0 107 +16 108 54 116
 ?38 27 115 117 0 0 1 17 109 0 52 38 118 40 98 119 0 112 +15 52 62 0 53 17 0 17
 118 0 52 109 120 95 90 121 0 122 +17 98 0 123 124 112 95 109 119 0 118 -16 119
 47 125 ?109 126 113 127 0 0 1 17 112 0 123 98 114 40 106 113 0 0 +15 123 42 0 1
24 128 0 17 114 0 123 112 124 99 94 129 0 0 +16 113 45 130 ?112 119 129 131 0 0
 1 81 1 130 404 32 113 0 0 125 132 133 16 129 43 132 ?114 113 121 134 0 0 1 133
 255 131 307 0 113 135 136 0 +136 .016870770044071 8027408541158e-31 .0065548765
13577 .016870770044071 -9999999999999e-18 .006554876513577 0 99999999999998e-19
 30 135 209 0 1 137 131 138 +.018461045446716 8027408541158e-31 .006554876513577
 0 -1 1224646799147e-28 30 136 215 0 1 131 139 140 +.016870770044071 80274085411
58e-31 .006554876513577 0 -1 1224646799147e-28 133 139 311 0 115 136 141 0 +141
 .016870770044071 6710502116741e-31 .005479540812431 .016870770044071 -999999999
9999e-18 .005479540812431 0 999999999999967e-20 141 255 140 131 140 140 136 16 1
15 52 142 ?107 108 126 139 0 0 1 30 141 221 0 1 139 143 144 +.016870770044071 67
10502116741e-31 .005479540812431 0 -1 1224646799147e-28 133 143 313 0 145 141 14
6 0 +146 .017152447818218 6710502116741e-31 .005479540812431 .017152447818218 -9
999999999999e-18 .005479540812431 0 999999999999967e-20 141 144 139 144 144 141
 16 145 5 147 ?37 148 0 143 0 0 1 30 146 181 0 1 143 149 150 +.017152447818218 6
710502116741e-31 .005479540812431 0 -1 1224646799147e-28 133 149 317 0 148 146 1
51 0 +151 .017152447818218 6710502116741e-31 .005479540812431 .017152447818218 7
71605126069878e-33 .006300634 0 .000821093187569 141 150 143 150 150 146 16 148
 8 152 ?153 154 145 149 0 0 1 30 151 183 0 1 149 155 156 +.017152447818218 67105
02116741e-31 .005479540812431 0 1224646799147e-28 1 133 155 319 0 27 151 157 0 +
157 .016870770044071 6710502116741e-31 .005479540812431 .017152447818218 6710502
116741e-31 .005479540812431 0 .000281677774147001 141 156 149 156 156 151 16 27
 57 158 ?45 11 108 155 0 0 1 30 157 224 0 1 155 159 160 +.016870770044071 671050
2116741e-31 .005479540812431 1 0 0 133 159 321 0 126 157 161 0 +161 .01687077004
4071 8027408541158e-31 .006554876513577 .016870770044071 671050211674106e-33 .00
5479540812431 0 .001075335701146 141 160 155 160 160 157 16 126 50 162 ?111 115
 119 159 0 0 1 30 161 219 0 1 159 134 163 +.016870770044071 8027408541158e-31 .0
06554876513577 0 -1224646799147e-28 -1 133 134 323 0 129 161 164 0 +164 .0184610
45446716 8027408541158e-31 .006554876513577 .016870770044071 8027408541158e-31 .
006554876513577 0 .001590275402645 141 163 159 163 163 161 30 164 213 0 1 134 16
5 166 +.018461045446716 8027408541158e-31 .006554876513577 -1 0 0 133 165 325 0
 167 164 168 0 +168 .018461045446716 6696922252487e-31 .005468452011755 .0184610
45446716 802740854115819e-33 .006554876513577 0 .001086424501822 141 166 134 166
 166 164 16 167 36 169 ?170 171 172 165 0 0 1 30 168 207 0 1 165 173 174 +.01846
1045446716 6696922252487e-31 .005468452011755 0 1224646799147e-28 1 133 173 327
 0 175 168 176 0 +176 .018179367672569 6696922252487e-31 .005468452011755 .01846
1045446716 6696922252487e-31 .005468452011755 0 .000281677774147001 141 174 165
 174 174 168 16 175 29 177 ?178 179 180 173 0 0 1 30 176 201 0 1 173 181 182 +.0
18179367672569 6696922252487e-31 .005468452011755 1 0 0 133 181 329 0 183 176 18
4 0 +184 .018179367672569 7716051260699e-31 .006300634 .018179367672569 66969222
5248698e-33 .005468452011755 0 .000832181988244999 141 182 173 182 182 176 16 18
3 22 185 ?186 187 188 181 0 0 1 30 184 195 0 1 181 189 190 +.018179367672569 771
6051260699e-31 .006300634 0 -1224646799147e-28 -1 133 189 331 0 63 184 191 0 +19
1 .017152447818218 7716051260699e-31 .006300634 .018179367672569 7716051260699e-
31 .006300634 0 .001026919854350996 141 190 181 190 190 184 16 63 15 192 ?62 193
 194 189 0 0 1 30 191 189 0 1 189 195 196 +.017152447818218 7716051260699e-31 .0
06300634 1 0 0 133 195 335 0 194 191 197 0 +197 .017152447818218 -9999999999999e
-18 .005479540812431 .017152447818218 -99999999999989e-19 .006300634 0 .00082109
3187569 141 196 189 196 196 191 16 194 12 198 ?53 63 154 195 0 0 1 30 197 186 0
 1 195 199 200 +.017152447818218 -9999999999999e-18 .005479540812431 0 122464679
9147e-28 1 133 199 337 0 188 197 201 0 +201 .017152447818218 -9999999999999e-18
 .006300634 .018179367672569 -9999999999999e-18 .006300634 0 .001026919854350996
 141 200 195 200 200 197 16 188 19 202 ?203 183 193 199 0 0 1 30 201 192 0 1 199
 204 205 +.017152447818218 -9999999999999e-18 .006300634 1 0 0 133 204 339 0 180
 201 206 0 +206 .018179367672569 -9999999999999e-18 .006300634 .018179367672569
 -99999999999991e-19 .005468452011755 0 .000832181988244999 141 205 199 205 205
 201 16 180 26 207 ?208 175 187 204 0 0 1 30 206 198 0 1 204 209 210 +.018179367
672569 -9999999999999e-18 .006300634 0 -1224646799147e-28 -1 133 209 341 0 172 2
06 211 0 +211 .018179367672569 -9999999999999e-18 .005468452011755 .018461045446
716 -9999999999999e-18 .005468452011755 0 .000281677774147001 141 210 204 210 21
0 206 16 172 33 212 ?120 167 179 209 0 0 1 30 211 204 0 1 209 213 214 +.01817936
7672569 -9999999999999e-18 .005468452011755 1 0 0 133 213 343 0 121 211 215 0 +2
15 .018461045446716 -9999999999999e-18 .005468452011755 .018461045446716 -999999
999999887e-20 .006554876513577 0 .001086424501822 141 214 209 214 214 211 16 121
 40 216 ?118 129 171 213 0 0 1 30 215 210 0 1 213 127 217 +.018461045446716 -999
9999999999e-18 .005468452011755 0 1224646799147e-28 1 133 127 345 0 119 215 218
 0 +218 .018461045446716 -9999999999999e-18 .006554876513577 .016870770044071 -9
999999999999e-18 .006554876513577 0 .001590275402645 141 217 213 217 217 215 30
 218 216 0 1 127 117 219 +.018461045446716 -9999999999999e-18 .006554876513577 -
1 0 0 133 117 347 0 108 218 220 0 +220 .016870770044071 -9999999999999e-18 .0065
54876513577 .016870770044071 -999999999999913e-20 .005479540812431 0 .0010753357
01146 141 219 127 219 219 218 30 220 222 0 1 117 20 221 +.016870770044071 -99999
99999999e-18 .006554876513577 0 -1224646799147e-28 -1 133 20 349 0 11 220 8 0 +8
 .016870770044071 -9999999999999e-18 .005479540812431 .017152447818218 -99999999
99999e-18 .005479540812431 0 .000281677774147001 141 221 117 221 221 220 81 1 21
6 406 32 121 0 0 132 222 223 16 171 38 222 ?122 121 167 137 0 0 1 81 1 222 407 3
2 171 0 0 216 169 224 17 122 0 225 90 170 95 124 171 0 0 +133 137 303 0 171 226
 135 0 +135 .018461045446716 8027408541158e-31 .006554876513577 .018461045446716
 -9999999999999e-18 .006554876513577 0 99999999999998e-19 30 226 203 0 1 227 137
 228 +.018461045446716 6696922252487e-31 .005468452011755 0 -1 1224646799147e-28
 133 227 299 0 179 229 226 0 +226 .018461045446716 6696922252487e-31 .0054684520
11755 .018461045446716 -9999999999999e-18 .005468452011755 0 999999999999967e-20
 141 228 227 228 228 226 16 179 31 230 ?231 172 175 227 0 0 1 30 229 197 0 1 232
 227 233 +.018179367672569 6696922252487e-31 .005468452011755 0 -1 1224646799147
e-28 133 232 295 0 187 234 229 0 +229 .018179367672569 6696922252487e-31 .005468
452011755 .018179367672569 -9999999999999e-18 .005468452011755 0 999999999999967
e-20 141 233 232 233 233 229 16 187 24 235 ?236 180 183 232 0 0 1 30 234 191 0 1
 237 232 238 +.018179367672569 7716051260699e-31 .006300634 0 -1 1224646799147e-
28 133 237 291 0 193 239 234 0 +234 .018179367672569 7716051260699e-31 .00630063
4 .018179367672569 -9999999999999e-18 .006300634 0 999999999999977e-20 141 238 2
37 238 238 234 16 193 17 240 ?241 188 63 237 0 0 1 30 239 185 0 1 242 237 243 +.
017152447818218 7716051260699e-31 .006300634 0 -1 1224646799147e-28 133 242 287
 0 154 0 239 0 +239 .017152447818218 7716051260699e-31 .006300634 .0171524478182
18 -9999999999999e-18 .006300634 0 999999999999977e-20 141 243 242 243 243 239 1
6 154 10 244 ?245 194 148 242 0 0 1 81 1 244 419 32 154 0 0 198 152 246 17 245 0
 247 54 153 56 64 154 0 0 +15 247 4 0 248 249 0 17 54 0 247 248 245 22 53 194 0
 37 -17 153 0 247 245 248 49 48 148 0 0 +17 64 0 250 62 65 49 245 154 0 153 -15
 250 14 0 64 251 0 17 62 0 250 241 64 66 55 63 0 0 +17 65 0 250 64 241 56 203 18
8 0 53 -17 241 0 250 65 62 71 252 193 0 0 +17 203 0 52 208 53 71 65 188 0 241 +1
7 53 0 52 203 26 56 54 194 0 245 +17 208 0 52 120 203 79 74 180 0 236 +17 120 0
 52 118 208 87 82 172 0 231 +17 74 0 253 252 236 71 208 180 0 203 -17 236 0 253
 74 186 79 254 187 0 0 +15 253 21 0 252 255 0 17 186 0 253 236 252 75 61 183 0 0
 +17 254 0 256 178 82 75 236 187 0 186 -15 256 28 0 254 257 0 17 178 0 256 231 2
54 83 78 175 0 0 +17 82 0 256 254 231 79 120 172 0 208 -17 231 0 256 82 178 87 2
58 179 0 0 +17 258 0 225 170 90 83 231 179 0 178 -15 225 35 0 258 259 0 17 170 0
 225 122 258 91 86 167 0 0 +17 90 0 225 258 122 87 118 121 0 120 -17 86 0 60 78
 94 83 170 167 0 258 -15 60 60 0 48 260 0 17 78 0 60 61 86 75 178 175 0 254 -17
 94 0 60 86 101 91 114 129 0 124 -17 101 0 60 94 39 99 111 126 0 106 -17 124 0 1
23 114 98 91 122 171 0 170 -17 39 0 60 101 48 30 45 27 0 36 -17 111 0 105 107 10
6 30 101 126 0 0 +17 48 0 60 39 55 43 153 148 0 248 -17 36 0 35 45 29 30 107 115
 0 111 -15 35 56 0 36 261 0 14 255 261 55 262 ?110 260 35 6 263 -0 0 110 260 24
 81 1 262 424 32 261 0 0 264 265 266 14 110 48 265 ?128 261 105 6 267 -0 0 128 2
61 24 14 260 59 264 ?261 17 60 6 19 -0 0 261 17 24 50 263 223 0 261 267 19 0 +.0
16870770044071 6710502116741e-31 .005479540812431 0 1224646799147e-28 1 1 0 0 13
 24 2 0 0 0 0 0 0 10 17 14 17 61 268 ?260 0 52 6 7 +0 0 260 0 24 81 1 268 422 32
 17 0 0 147 264 269 80 7 CCCCCDI12 legal_owners0 17 1 lCZ1 32 270 271 9000 0 0 0
 0 3 5 0 0 0 FFTFTFTTFFFFFFFFF2 81 1 147 421 32 145 0 0 152 268 272 81 1 264 423
 32 260 0 0 268 262 273 83 255 1 269 3246 83 1 273 3247 81 1 152 420 32 148 0 0
 244 147 274 83 1 272 3245 83 1 274 3244 79 255 13 271 BTI/importTag50 267 217 0
 110 275 263 0 +.016870770044071 8027408541158e-31 .006554876513577 1 0 0 0 -122
4646799147e-28 -1 50 19 226 0 260 263 7 0 +.017152447818218 6710502116741e-31 .0
05479540812431 0 -1 1224646799147e-28 -1 0 0 50 275 211 0 128 276 267 0 +.018461
045446716 8027408541158e-31 .006554876513577 0 -1224646799147e-28 -1 -1 0 0 14 1
28 41 277 ?259 110 123 6 275 -0 0 259 110 24 50 276 205 0 259 278 275 0 +.018461
045446716 6696922252487e-31 .005468452011755 -1 0 0 0 1224646799147e-28 1 14 259
 34 279 ?257 128 225 6 276 -0 0 257 128 24 50 278 199 0 257 280 276 0 +.01817936
7672569 6696922252487e-31 .005468452011755 0 1224646799147e-28 1 1 0 0 14 257 27
 281 ?255 259 256 6 278 -0 0 255 259 24 50 280 193 0 255 282 278 0 +.01817936767
2569 7716051260699e-31 .006300634 1 0 0 0 -1224646799147e-28 -1 14 255 20 283 ?2
51 257 253 6 280 -0 0 251 257 24 50 282 187 0 251 284 280 0 +.017152447818218 77
16051260699e-31 .006300634 0 1224646799147e-28 1 1 0 0 14 251 13 285 ?249 255 25
0 6 282 -0 0 249 255 24 50 284 178 0 249 0 282 0 +.017152447818218 6710502116741
e-31 .005479540812431 -1 0 0 0 1224646799147e-28 1 14 249 3 286 ?0 251 247 6 284
 -0 0 0 251 24 81 1 286 431 32 249 0 0 285 287 288 81 1 285 430 32 251 0 0 283 2
86 289 81 1 287 432 32 1 290 291 286 0 292 83 1 288 3255 81 1 290 380 293 1 0 28
7 0 0 294 81 1 291 433 295 1 287 296 0 0 297 83 1 292 3256 80 1 295 32 298 9000
 0 0 0 0 3 5 0 0 0 FFTFTFTTFFFFFFFFF2 81 1 296 486 299 1 291 14 0 0 300 83 1 297
 17325 80 1 299 301 302 8040 0 0 0 0 3 5 0 0 0 TTTFFFFFFFFFFFFFF2 81 1 14 487 30
3 1 296 2 0 0 304 83 3 300 1 1 1 80 1 303 13 305 8038 0 0 0 0 0 0 0 0 0 TTTTTTTT
TTTTTFTFT10 98 255 11 304 72 67 45 48 52 80 97 100 48 48 57 79 14 305 SDL/TYSA_U
NAME79 17 302 SDL/TYSA_COLOUR_279 18 298 BTI/importMaxCount80 1 293 306 307 9000
 0 0 0 0 3 5 0 0 0 TTTFFFFFFFFFFFFFF1 82 255 1 294 7 79 23 307 ONSHAPE_ORIGINALB
ODY_ID81 1 283 429 32 255 0 0 281 285 308 83 1 289 3254 81 1 281 428 32 257 0 0
 279 283 309 83 1 308 3253 81 1 279 427 32 259 0 0 277 281 310 83 1 309 3252 81
 1 277 426 32 128 0 0 265 279 311 83 1 310 3251 81 1 265 425 32 110 0 0 262 277
 312 83 1 311 3250 83 1 312 3249 83 1 266 3248 17 248 0 247 153 54 43 37 145 0 0
 -17 37 0 35 29 45 22 248 145 0 0 +17 61 0 60 55 78 66 186 183 0 252 -17 252 0 2
53 186 74 66 241 193 0 62 -81 1 198 418 32 194 0 0 192 244 313 83 1 246 3243 81
 1 192 417 32 63 0 0 240 198 314 83 1 313 3242 81 1 240 416 32 193 0 0 202 192 3
15 83 1 314 3241 81 1 202 415 32 188 0 0 185 240 316 83 1 315 3240 81 1 185 414
 32 183 0 0 235 202 317 83 1 316 3239 81 1 235 413 32 187 0 0 207 185 318 83 1 3
17 3238 81 1 207 412 32 180 0 0 177 235 319 83 1 318 3237 81 1 177 411 32 175 0
 0 230 207 320 83 1 319 3236 81 1 230 410 32 179 0 0 212 177 321 83 1 320 3235 8
1 1 212 409 32 172 0 0 169 230 322 83 1 321 3234 81 1 169 408 32 167 0 0 222 212
 323 83 1 322 3233 83 1 323 3232 83 1 224 3231 81 1 132 405 32 129 0 0 130 216 3
24 83 1 223 3230 83 1 324 3229 81 1 162 402 32 126 0 0 142 125 325 81 1 142 401
 32 115 0 0 116 162 326 81 1 125 403 32 119 0 0 162 130 327 83 1 325 3226 83 1 3
27 3227 81 1 116 400 32 108 0 0 158 142 328 83 1 326 3225 81 1 158 399 32 27 0 0
 25 116 329 83 1 328 3224 81 1 25 398 32 11 0 0 44 158 330 83 1 329 3223 83 1 33
0 3222 141 138 137 138 138 135 83 1 133 3228 81 1 33 383 32 30 0 0 28 102 331 81
 1 100 385 32 99 0 0 102 97 332 83 1 104 3208 81 1 97 386 32 95 0 0 100 93 333 8
3 1 332 3209 81 1 93 387 32 91 0 0 97 89 334 83 1 333 3210 81 1 89 388 32 87 0 0
 93 85 335 83 1 334 3211 81 1 85 389 32 83 0 0 89 81 336 83 1 335 3212 81 1 81 3
90 32 79 0 0 85 77 337 83 1 336 3213 81 1 77 391 32 75 0 0 81 73 338 83 1 337 32
14 81 1 73 392 32 71 0 0 77 70 339 83 1 338 3215 81 1 70 393 32 66 0 0 73 58 340
 83 1 339 3216 81 1 58 394 32 56 0 0 70 50 341 83 1 340 3217 83 1 341 3218 83 1
 331 3207 83 1 59 3219 83 1 51 3220 83 1 47 3221 83 1 34 3206 19 18 63 0 1 0 10
 6 0 S0 141 21 20 21 21 8 74 4 CI16 index_map_offset0 0 1 dCCZ20 16 6 0 0 290 28
7 291 296 14 2 0 0 0 0 0 0 0 0 0 0 0 0 0 0 80 1 13 342 343 8017 0 0 0 0 0 0 0 0
 0 TTTTTTTTTTTTTFTFT3 84 255 11 15 HC-04Pad00979 13 343 SDL/TYSA_NAME1 0 
