**ABCDEFGHIJKLMNOPQRSTUVWXYZabcdefghijklmnopqrstuvwxyz**************************
**PARASOLID !"#$%&'()*+,-./:;<=>?@[\]^_`{|}~0123456789**************************
**PART1;
MC=unknown;
MC_MODEL=unknown;
MC_ID=unknown;
OS=unknown;
OS_RELEASE=unknown;
FRU=Parasolid 37.0.173;
APPL=Onshape;
SITE=unknown;
USER=unknown;
FORMAT=text;
GUISE=transmit;
KEY=BTGapi::writeModels_.xmt;
FILE=BTGapi::writeModels_.xmt;
DATE=2024-12-29T04:00:28 (UTC);
**PART2;
SCH=SCH_3700173_36001;
USFLD_SIZE=0;
**PART3;
**END_OF_HEADER*****************************************************************
T51 : TRANSMIT FILE created by modeller version 370017323 SCH_3700173_36001_1300
6231 0 12 36 CCCI7 lattice222 0 CCCI4 mesh1006 0 I8 polyline1008 0 CCCCCCCDI5 ow
ner1040 0 CCCI16 boundary_lattice222 0 CCCI13 boundary_mesh1006 0 I17 boundary_p
olyline1008 0 CCCA16 index_map_offset0 0 1 dA9 index_map82 0 A17 node_id_index_m
ap82 0 A20 schema_embedding_map82 0 A5 child12 0 A14 lowest_node_id0 0 1 dA16 me
sh_offset_data206 0 Z1 539 2 3 0 0 0 0 0 0 0 1e3 1e-8 0 4 5 1 0 3 2 6 0 7 8 9 0
 0 10 11 12 0 0 0 0 0 0 0 81 255 1 2 480 13 1 14 0 0 0 15 70 11 CI9 list_type0 0
 1 uI10 notransmit0 0 1 lCCCDCCDI12 finger_index0 0 1 dI12 finger_block1012 0 CZ
3 0 4 T1 0 0 5 20 1 16 16 13 255 6 2 0 1 0 17 0 0 10 17 50 255 7 150 0 17 0 0 0
 +.0022765 0 0 0 -1 0 1 0 0 31 255 8 421 0 1 18 0 19 +.002296587918535995 132818
0456262032e-35 .000209908015409663 -580366339844372e-31 1 -195230267225937e-31 -
.762925074710322 -568989846224568e-31 -.646486914313237 .000233427795781408 29 2
55 9 204 0 12 20 0 .0020635 2498001805407e-31 2225e-7 19 9 CCCCCCI5 frame230 0 C
A5 owner12 0 Z10 1 0 1 0 0 6 0 V0 16 255 11 60 21 ?22 0 23 18 0 0 1 18 255 12 59
 24 22 0 25 9 5e-7 1 81 1 24 422 26 12 0 0 0 27 28 17 255 22 0 0 0 0 12 29 11 0
 30 +18 25 57 27 31 12 32 20 5e-7 1 81 1 27 423 26 25 0 0 24 33 34 17 31 0 0 0 0
 25 30 23 0 35 +18 32 55 33 36 25 37 38 5e-7 1 29 20 202 0 25 38 9 .0020635 2498
001805407e-31 672e-6 29 38 200 0 32 39 20 .001983 2498001805407e-31 672e-6 29 39
 198 0 37 40 38 .0019565 2359223927328e-31 681e-6 18 37 53 41 42 32 43 39 5e-7 1
 29 40 196 0 43 44 39 .001946 2359223927328e-31 7095e-7 18 43 51 45 46 37 47 40
 5e-7 1 29 44 194 0 47 48 40 .001946 2359223927328e-31 78e-5 18 47 49 49 50 43 5
1 44 5e-7 1 29 48 192 0 51 52 44 .002073 2498001805407e-31 8e-4 18 51 47 53 54 4
7 55 48 5e-7 1 29 52 190 0 55 56 48 .002113 2636779683485e-31 .0010085 18 55 45
 57 58 51 59 52 5e-7 1 29 56 188 0 59 60 52 .002127 2636779683485e-31 .0010315 1
8 59 43 61 62 55 63 56 5e-7 1 29 60 186 0 63 64 56 .002155 2636779683485e-31 .00
104 18 63 41 65 66 59 67 60 5e-7 1 29 64 184 0 67 68 60 .0022535 2775557561563e-
31 .00104 18 67 39 69 70 63 71 64 5e-7 1 29 68 182 0 71 72 64 .0022535 277555756
1563e-31 8e-4 18 71 37 73 74 67 75 68 5e-7 1 29 72 180 0 75 76 68 .0024635 30531
13317719e-31 8e-4 18 75 35 77 78 71 79 72 5e-7 1 29 76 178 0 79 80 72 .0024635 3
053113317719e-31 672e-6 18 79 33 81 82 75 83 76 5e-7 1 29 80 176 0 83 84 76 .002
2535 2775557561563e-31 672e-6 18 83 31 85 86 79 87 80 5e-7 1 29 84 174 0 87 88 8
0 .0022535 2775557561563e-31 2395e-7 18 87 29 89 90 83 91 84 5e-7 1 29 88 172 0
 91 92 84 .0022715 2775557561563e-31 181e-6 18 91 27 93 94 87 95 88 5e-7 1 29 92
 170 0 95 96 88 .002321 2914335439641e-31 16e-5 18 95 25 97 98 91 99 92 5e-7 1 2
9 96 168 0 99 100 92 .0023505 2914335439641e-31 164e-6 18 99 23 101 102 95 103 9
6 5e-7 1 29 100 166 0 103 104 96 .002371 2914335439641e-31 173e-6 18 103 21 105
 106 99 107 100 5e-7 1 29 104 164 0 107 108 100 .002387 2914335439641e-31 1815e-
7 18 107 19 109 110 103 111 104 5e-7 1 29 108 162 0 111 112 104 .002401 29143354
39641e-31 186e-6 18 111 17 113 114 107 115 108 5e-7 1 29 112 160 0 115 116 108 .
0024145 2914335439641e-31 1815e-7 18 115 15 117 118 111 119 112 5e-7 1 29 116 15
8 0 119 120 112 .002426 3053113317719e-31 1685e-7 18 119 13 121 122 115 123 116
 5e-7 1 29 120 156 0 123 124 116 .002483 3053113317719e-31 73e-6 18 123 11 125 1
26 119 127 120 5e-7 1 29 124 154 0 127 128 120 .0023875 2914335439641e-31 185e-7
 18 127 9 129 130 123 131 124 5e-7 1 29 128 152 0 131 132 124 .0021185 263677968
3485e-31 59e-6 18 131 7 133 29 127 134 128 5e-7 1 29 132 151 0 134 0 128 .002276
5 2775557561563e-31 0 18 134 6 135 136 131 0 132 5e-7 1 81 1 135 449 26 134 0 0
 133 21 137 17 136 0 0 0 0 134 138 139 0 140 +17 138 0 141 142 140 127 136 139 0
 0 -16 139 8 143 ?136 144 145 146 0 0 1 17 140 0 141 138 29 134 147 145 0 0 -15
 255 141 4 0 140 17 0 17 29 0 141 140 30 131 22 11 0 147 -17 147 0 0 0 0 131 140
 145 0 0 +16 145 5 148 ?147 139 0 149 0 0 1 81 1 148 477 26 145 0 0 143 150 151
 133 255 149 270 0 145 0 152 0 +152 .0022765 0 0 .0021185 0 59e-6 0 1 134 255 15
2 153 0 1 149 153 154 +155 156 133 153 276 0 157 152 158 0 +158 .002426 0 1685e-
7 .002483 0 729999999999921e-19 0 .0001112171299755572 141 255 154 149 154 154 1
52 136 255 155 3 4 3 2 1 FFF1 159 160 161 135 255 156 2 0 45 255 12 159 .0022765
 0 0 .00220783333333333 0 0 .00215516666666667 0 196666666666667e-19 .0021185 0
 59e-6 127 255 2 160 4 4 128 255 2 161 0 1 16 157 12 162 ?126 163 144 153 0 0 1
 30 255 158 159 0 1 153 164 165 +.002426 0 1685e-7 .512510977513211 0 -.85868067
2851353 133 164 294 0 166 158 167 0 +167 .0022535 0 672e-6 .0022535 0 2395e-7 0
 4325e-7 141 165 153 165 165 158 16 166 30 168 ?90 169 170 164 0 0 1 30 167 177
 0 1 164 171 172 +.0022535 0 672e-6 0 0 -1 133 171 296 0 169 167 173 0 +173 .002
4635 0 672e-6 .0022535 0 672e-6 0 21e-5 141 172 164 172 172 167 16 169 32 174 ?8
6 175 166 171 0 0 1 30 173 179 0 1 171 176 177 +.0024635 0 672e-6 -1 0 0 133 176
 298 0 175 173 178 0 +178 .0024635 0 8e-4 .0024635 0 672e-6 0 128e-6 141 177 171
 177 177 173 16 175 34 179 ?82 180 169 176 0 0 1 30 178 181 0 1 176 181 182 +.00
24635 0 8e-4 0 0 -1 133 181 300 0 180 178 183 0 +183 .0022535 0 8e-4 .0024635 0
 8e-4 0 21e-5 141 182 176 182 182 178 16 180 36 184 ?78 185 175 181 0 0 1 30 183
 183 0 1 181 186 187 +.0022535 0 8e-4 1 0 0 133 186 302 0 185 183 188 0 +188 .00
22535 0 .00104 .0022535 0 8e-4 0 24e-5 141 187 181 187 187 183 16 185 38 189 ?74
 190 180 186 0 0 1 30 188 185 0 1 186 191 192 +.0022535 0 .00104 0 0 -1 133 191
 304 0 190 188 193 0 +193 .002155 0 .00104 .0022535 0 .00104 0 985e-7 141 192 18
6 192 192 188 16 190 40 194 ?70 195 185 191 0 0 1 30 193 187 0 1 191 196 197 +.0
02155 0 .00104 1 0 0 133 196 310 0 198 193 199 0 +199 .002073 0 8e-4 .0021129999
99999975 0 .0010085 0 .0002123022609394445 141 197 191 197 197 193 16 198 46 200
 ?58 201 202 196 0 0 1 30 199 193 0 1 196 203 204 +.002073 0 8e-4 .1884106171219
1 0 .982090341748528 133 203 312 0 201 199 205 0 +205 .001946 0 78e-5 .002073 0
 .000799999999999949 0 .0001285651585772754 141 204 196 204 204 199 16 201 48 20
6 ?54 207 198 203 0 0 1 30 205 195 0 1 203 208 209 +.001946 0 78e-5 .98782595071
1781 0 .155563141843966 133 208 314 0 207 205 210 0 +210 .001946 0 7095e-7 .0019
46 0 78e-5 0 705e-7 141 209 203 209 209 205 16 207 50 211 ?50 212 201 208 0 0 1
 30 210 197 0 1 208 213 214 +.001946 0 7095e-7 0 0 1 133 213 320 0 215 210 216 0
 +216 .0020635 0 672e-6 .001983 0 672e-6 0 805e-7 141 214 208 214 214 210 16 215
 56 217 ?36 23 218 213 0 0 1 30 216 203 0 1 213 219 220 +.0020635 0 672e-6 -1 0
 0 133 219 322 0 23 216 221 0 +221 .0020635 0 2225e-7 .0020635 0 672e-6 0 4495e-
7 141 220 213 220 220 216 16 23 58 222 ?31 11 215 219 0 0 1 30 221 205 0 1 219 1
46 223 +.0020635 0 2225e-7 0 0 1 133 146 364 0 139 221 224 0 +224 .0023875 -6018
53107621011e-50 185e-7 .0022765 -601853107621011e-50 -542101086242752e-34 120432
18094145e-29 .334892153863752 141 223 219 223 223 221 31 224 365 0 1 146 225 226
 +.00227727559523659 2038274937919055e-35 .0003375964285804715 1006653467932856e
-32 1 -603992080759717e-31 .3264966822734245 -603759218496179e-31 -.945198347683
938 .0003375973195069245 133 225 368 0 144 224 227 0 +227 .002483 0 73e-6 .00238
75 0 185e-7 70826688838857e-47 .3874221132351915 141 226 146 226 226 224 16 144
 10 228 ?130 157 139 225 0 0 1 31 227 369 0 1 225 229 230 +.00229634052317041 17
1608328067423e-34 .0002891601841692835 3034975766120305e-32 1 -531816854430253e-
31 .65357109707195 -600870875386104e-31 -.756865127398646 .000285599344380192 13
3 229 372 0 163 227 231 0 +231 .0024145 0 1815e-7 .002426 0 1685e-7 -86782774788
5496e-20 867827747885496e-20 141 230 225 230 230 227 16 163 14 232 ?122 233 157
 229 0 0 1 30 231 373 0 1 229 234 235 +.00242025 0 175e-6 .662573882203037 0 -.7
48996562490374 133 234 376 0 233 231 236 0 +236 .002401 -188079096131566e-51 186
e-6 .0024145 3573502826499755e-51 1815e-7 120909072784797e-47 .700960045971634 1
41 235 229 235 235 231 16 233 16 237 ?118 238 163 234 0 0 1 31 236 377 0 1 234 2
39 240 +.002401595271339965 1191762641223702e-36 .000165285814019901 19363366072
70185e-32 1 580900982181059e-31 -.0287255166194788 -575099039017191e-31 .9995873
3720218 207227374829273e-19 133 239 380 0 238 236 241 0 +241 .002387 -5078135595
55228e-50 1815e-7 .002401 376158192263132e-51 186e-6 1836251585881275e-30 .57725
6256145671 141 240 234 240 240 236 16 238 18 242 ?114 243 233 239 0 0 1 31 241 3
81 0 1 239 244 245 +.002401577815076725 151631839373443e-35 .0001601745753168595
 -187376581651315e-31 1 58294936513743e-30 -.564334095775335 -586994803495582e-3
1 .825546502836415 258318878583709e-19 133 244 384 0 243 241 246 0 +246 .002371
 0 173e-6 .002387 0 1815e-7 -905883546599694e-20 905883546599647e-20 141 245 239
 245 245 241 16 243 20 247 ?110 248 238 244 0 0 1 30 246 385 0 1 244 249 250 +.0
02379 0 17725e-8 .88311571945741 0 .469155225961751 133 249 388 0 248 246 251 0
 +251 .0023505 0 164e-6 .002371 0 173e-6 -1119430658861932e-20 1119430658861888e
-20 141 250 244 250 250 246 16 248 22 252 ?106 253 243 249 0 0 1 30 251 389 0 1
 249 254 255 +.00236075 0 1685e-7 .915644030191286 0 .401990062035195 133 254 39
2 0 253 251 256 0 +256 .002321 -150463276905253e-50 16e-5 .0023505 7523163845262
64e-51 164e-6 894279331904039e-32 .3156131179408505 141 255 249 255 255 251 16 2
53 24 257 ?102 258 248 254 0 0 1 31 256 393 0 1 254 259 260 +.002323181635003455
 572766716736138e-35 .000254691691849534 -82274021014388e-31 -1 606770904981105e
-31 -.02303323736898625 -604714891480939e-31 -.999734699796053 947168202412612e-
19 133 259 396 0 258 256 261 0 +261 .0022715 -752316384526264e-51 181e-6 .002321
 752316384526264e-51 16e-5 1461351992753536e-48 .893887269485266 141 260 254 260
 260 256 16 258 26 262 ?98 170 253 259 0 0 1 31 261 397 0 1 259 263 264 +.002318
157355941695 343474380386319e-35 .0002221387675768535 239142809929948e-31 -1 563
69376626345e-30 -.750072988249742 -552176285354746e-31 -.661355057664264 6220375
43980458e-19 133 263 400 0 170 261 265 0 +265 .0022535 -451389830715758e-50 2395
e-7 .0022715 -3009265538105055e-51 181e-6 0 .711408048779502 141 264 259 264 264
 261 16 170 28 266 ?94 166 258 263 0 0 1 31 265 401 0 1 263 267 268 +.0023412335
6290857 504409517898811e-35 .000234475711664176 585245851861783e-31 -1 180075646
7267045e-32 -.998364234827914 -573992900415726e-31 .0571738980346342 87877309550
9511e-19 133 267 404 0 195 265 269 0 +269 .002127 481482486096809e-49 .0010315 .
002155 458912994561021e-49 .00104 757768335021086e-31 .666730769818576 141 268 2
63 268 268 265 16 195 42 270 ?66 202 190 267 0 0 1 31 269 405 0 1 267 271 272 +.
00215327297011566 258709215672868e-35 .000995321392560172 -1778686830444785e-32
 1 585920367675922e-31 -.587604794038401 -578612828020793e-31 .809148074225657 4
47119737316936e-19 133 271 408 0 202 269 273 0 +273 .002113 564237288394698e-50
 .0010085 .002127 752316384526264e-50 .0010315 121393155835469e-47 .704343725392
74 141 272 267 272 272 269 16 202 44 274 ?62 198 195 271 0 0 1 31 273 409 0 1 27
1 275 276 +.00215129322327143 224322234347462e-35 .001000951951052172 -523045763
484758e-31 1 3183756821211565e-32 -.9811218143935 -574742523009248e-31 .19339075
8107018 3903003960329075e-20 133 275 412 0 212 273 277 0 +277 .0019565 0 681e-6
 .001946 -376158192263132e-51 7095e-7 140651097409409e-47 .848454245943872 141 2
76 271 276 276 273 16 212 52 278 ?46 218 207 275 0 0 1 31 277 413 0 1 275 279 28
0 +.00198280081968144 2058874288139665e-36 .000706873986198425 -574569447256013e
-31 1 -2116834805680025e-32 -.71286765084448 -558045298567601e-31 -.701298590031
002 3689439358103025e-20 133 279 416 0 218 277 281 0 +281 .001983 45891299456102
1e-49 672e-6 .0019565 4175355934120765e-50 681e-6 52039799376218e-31 .7021060525
51904 141 280 275 280 280 277 16 218 54 282 ?42 215 212 279 0 0 1 31 281 417 0 1
 279 18 283 +.00198203761902622 233967904901207e-35 .000712680211577199 -1969124
445506145e-32 1 -579797753399033e-31 .0236506090873736 -574978476150228e-31 -.99
972028522472 40691593617163e-18 133 18 420 0 11 281 8 0 +8 .0021185 451389830715
758e-50 59e-6 .0020635 601853107621011e-50 2225e-7 1161175095767942e-31 .7569406
48958487 141 283 279 283 283 281 81 1 282 453 26 218 0 0 217 278 284 17 42 0 0 0
 0 37 285 218 0 286 +17 285 0 141 35 286 32 42 218 0 0 -17 286 0 141 285 287 37
 46 212 0 0 -17 287 0 141 286 288 43 50 207 0 0 -17 46 0 0 0 0 43 286 212 0 287
 +17 288 0 141 287 289 47 54 201 0 0 -17 50 0 0 0 0 47 287 207 0 288 +17 289 0 1
41 288 290 51 58 198 0 0 -17 54 0 0 0 0 51 288 201 0 289 +17 290 0 141 289 291 5
5 62 202 0 0 -17 58 0 0 0 0 55 289 198 0 290 +17 291 0 141 290 292 59 66 195 0 0
 -17 62 0 0 0 0 59 290 202 0 291 +17 292 0 141 291 293 63 70 190 0 0 -17 66 0 0
 0 0 63 291 195 0 292 +17 293 0 141 292 294 67 74 185 0 0 -17 70 0 0 0 0 67 292
 190 0 293 +17 294 0 141 293 295 71 78 180 0 0 -17 74 0 0 0 0 71 293 185 0 294 +
17 295 0 141 294 296 75 82 175 0 0 -17 78 0 0 0 0 75 294 180 0 295 +17 296 0 141
 295 297 79 86 169 0 0 -17 82 0 0 0 0 79 295 175 0 296 +17 297 0 141 296 298 83
 90 166 0 0 -17 86 0 0 0 0 83 296 169 0 297 +17 298 0 141 297 299 87 94 170 0 0
 -17 90 0 0 0 0 87 297 166 0 298 +17 299 0 141 298 300 91 98 258 0 0 -17 94 0 0
 0 0 91 298 170 0 299 +17 300 0 141 299 301 95 102 253 0 0 -17 98 0 0 0 0 95 299
 258 0 300 +17 301 0 141 300 302 99 106 248 0 0 -17 102 0 0 0 0 99 300 253 0 301
 +17 302 0 141 301 303 103 110 243 0 0 -17 106 0 0 0 0 103 301 248 0 302 +17 303
 0 141 302 304 107 114 238 0 0 -17 110 0 0 0 0 107 302 243 0 303 +17 304 0 141 3
03 305 111 118 233 0 0 -17 114 0 0 0 0 111 303 238 0 304 +17 305 0 141 304 306 1
15 122 163 0 0 -17 118 0 0 0 0 115 304 233 0 305 +17 306 0 141 305 142 119 126 1
57 0 0 -17 122 0 0 0 0 119 305 163 0 306 +17 142 0 141 306 138 123 130 144 0 0 -
17 126 0 0 0 0 123 306 157 0 142 +17 130 0 0 0 0 127 142 144 0 138 +17 35 0 141
 30 285 25 36 215 0 0 -17 30 0 141 29 35 12 31 23 0 0 -17 36 0 0 0 0 32 35 215 0
 285 +80 7 CCCCCDI12 legal_owners0 17 1 lCZ1 26 307 308 9000 0 0 0 0 3 5 0 0 0 F
FTFTFTTFFFFFFFFF2 81 1 217 452 26 215 0 0 222 282 309 81 1 278 454 26 212 0 0 28
2 211 310 83 255 1 284 459 81 1 211 455 26 207 0 0 278 206 311 83 1 310 460 81 1
 206 456 26 201 0 0 211 200 312 83 1 311 461 81 1 200 457 26 198 0 0 206 274 313
 83 1 312 462 81 1 274 458 26 202 0 0 200 270 314 83 1 313 463 81 1 270 459 26 1
95 0 0 274 194 315 83 1 314 464 81 1 194 460 26 190 0 0 270 189 316 83 1 315 465
 81 1 189 461 26 185 0 0 194 184 317 83 1 316 466 81 1 184 462 26 180 0 0 189 17
9 318 83 1 317 467 81 1 179 463 26 175 0 0 184 174 319 83 1 318 468 81 1 174 464
 26 169 0 0 179 168 320 83 1 319 469 81 1 168 465 26 166 0 0 174 266 321 83 1 32
0 470 81 1 266 466 26 170 0 0 168 262 322 83 1 321 471 81 1 262 467 26 258 0 0 2
66 257 323 83 1 322 472 81 1 257 468 26 253 0 0 262 252 324 83 1 323 473 81 1 25
2 469 26 248 0 0 257 247 325 83 1 324 474 81 1 247 470 26 243 0 0 252 242 326 83
 1 325 475 81 1 242 471 26 238 0 0 247 237 327 83 1 326 476 81 1 237 472 26 233
 0 0 242 232 328 83 1 327 477 81 1 232 473 26 163 0 0 237 162 329 83 1 328 478 8
1 1 162 474 26 157 0 0 232 228 330 83 1 329 479 81 1 228 475 26 144 0 0 162 143
 331 83 1 330 480 81 1 143 476 26 139 0 0 228 148 332 83 1 331 481 83 1 332 482
 81 1 222 451 26 23 0 0 21 217 333 83 1 309 458 81 1 21 450 26 11 0 0 135 222 33
4 83 1 333 457 83 1 334 456 79 255 13 308 BTI/importTag81 1 150 478 26 17 0 0 14
8 14 335 83 1 151 483 14 255 17 3 150 ?0 0 141 6 7 +0 0 0 0 6 81 1 14 479 26 1 3
36 2 150 0 337 83 1 335 484 81 1 336 360 338 1 339 14 0 0 340 83 1 337 485 80 1
 338 341 342 9000 0 0 0 0 3 5 0 0 0 TTTFFFFFFFFFFFFFF1 81 1 339 269 343 1 344 33
6 0 0 345 82 255 1 340 0 80 1 343 346 347 8038 0 0 0 0 0 0 0 0 0 TTTTTTTTTTTTTFT
FT10 81 1 344 268 346 1 0 339 0 0 348 98 255 19 345 72 67 45 48 52 83 104 97 112
 101 83 116 114 105 110 103 48 49 50 80 1 346 349 350 8017 0 0 0 0 0 0 0 0 0 TTT
TTTTTTTTTTFTFT3 84 255 19 348 HC-04ShapeString01279 13 350 SDL/TYSA_NAME79 14 34
7 SDL/TYSA_UNAME79 23 342 ONSHAPE_ORIGINALBODY_ID81 1 133 448 26 131 0 0 129 135
 351 83 1 137 455 81 1 129 447 26 127 0 0 125 133 352 83 1 351 454 81 1 125 446
 26 123 0 0 121 129 353 83 1 352 453 81 1 121 445 26 119 0 0 117 125 354 83 1 35
3 452 81 1 117 444 26 115 0 0 113 121 355 83 1 354 451 81 1 113 443 26 111 0 0 1
09 117 356 83 1 355 450 81 1 109 442 26 107 0 0 105 113 357 83 1 356 449 81 1 10
5 441 26 103 0 0 101 109 358 83 1 357 448 81 1 101 440 26 99 0 0 97 105 359 83 1
 358 447 81 1 97 439 26 95 0 0 93 101 360 83 1 359 446 81 1 93 438 26 91 0 0 89
 97 361 83 1 360 445 81 1 89 437 26 87 0 0 85 93 362 83 1 361 444 81 1 85 436 26
 83 0 0 81 89 363 83 1 362 443 81 1 81 435 26 79 0 0 77 85 364 83 1 363 442 81 1
 77 434 26 75 0 0 73 81 365 83 1 364 441 81 1 73 433 26 71 0 0 69 77 366 83 1 36
5 440 81 1 69 432 26 67 0 0 65 73 367 83 1 366 439 81 1 65 431 26 63 0 0 61 69 3
68 83 1 367 438 81 1 61 430 26 59 0 0 57 65 369 83 1 368 437 81 1 57 429 26 55 0
 0 53 61 370 83 1 369 436 81 1 53 428 26 51 0 0 49 57 371 83 1 370 435 81 1 49 4
27 26 47 0 0 45 53 372 83 1 371 434 81 1 45 426 26 43 0 0 41 49 373 83 1 372 433
 81 1 41 425 26 37 0 0 33 45 374 83 1 373 432 81 1 33 424 26 32 0 0 27 41 375 83
 1 374 431 83 1 375 430 83 1 34 429 83 1 28 428 141 19 18 19 19 8 74 4 CI16 inde
x_map_offset0 0 1 dCCZ20 16 5 0 0 344 339 336 14 2 0 0 0 0 0 0 0 0 0 0 0 0 0 0 0
 80 1 13 26 376 9000 0 0 0 0 3 5 0 0 0 FFTFTFTTFFFFFFFFF2 83 1 15 17325 79 18 37
6 BTI/importMaxCount1 0 
