**ABCDEFGHIJKLMNOPQRSTUVWXYZabcdefghijklmnopqrstuvwxyz**************************
**PARASOLID !"#$%&'()*+,-./:;<=>?@[\]^_`{|}~0123456789**************************
**PART1;
MC=unknown;
MC_MODEL=unknown;
MC_ID=unknown;
OS=unknown;
OS_RELEASE=unknown;
FRU=Parasolid 37.0.173;
APPL=Onshape;
SITE=unknown;
USER=unknown;
FORMAT=text;
GUISE=transmit;
KEY=BTGapi::writeModels_.xmt;
FILE=BTGapi::writeModels_.xmt;
DATE=2024-12-29T04:00:26 (UTC);
**PART2;
SCH=SCH_3700173_36001;
USFLD_SIZE=0;
**PART3;
**END_OF_HEADER*****************************************************************
T51 : TRANSMIT FILE created by modeller version 370017323 SCH_3700173_36001_1300
6231 0 12 36 CCCI7 lattice222 0 CCCI4 mesh1006 0 I8 polyline1008 0 CCCCCCCDI5 ow
ner1040 0 CCCI16 boundary_lattice222 0 CCCI13 boundary_mesh1006 0 I17 boundary_p
olyline1008 0 CCCA16 index_map_offset0 0 1 dA9 index_map82 0 A17 node_id_index_m
ap82 0 A20 schema_embedding_map82 0 A5 child12 0 A14 lowest_node_id0 0 1 dA16 me
sh_offset_data206 0 Z1 330 2 3 0 0 0 0 0 0 0 1e3 1e-8 0 4 5 1 0 1 2 6 0 7 8 9 0
 0 10 11 12 0 0 0 0 0 0 0 81 255 1 2 330 13 1 14 0 0 0 15 70 11 CI9 list_type0 0
 1 uI10 notransmit0 0 1 lCCCDCCDI12 finger_index0 0 1 dI12 finger_block1012 0 CZ
3 0 4 T1 0 0 6 20 1 16 16 13 255 6 46 0 1 0 17 0 0 18 0 50 255 7 156 0 17 19 0 0
 +-.017747978 8e-4 .003924708 1233581138472e-28 -1 -2136625207093e-28 0 -2136625
207093e-28 1 31 255 8 155 0 11 20 0 0 +-.017747978 8e-4 .003924708 0 1 122464679
9147e-28 1 0 0 3e-4 29 255 9 140 0 21 22 0 -.01718245524369 0 -.0045 19 9 CCCCCC
I5 frame230 0 CA5 owner12 0 Z10 1 0 1 18 0 23 0 V0 16 255 11 42 24 ?25 0 26 8 0
 0 1 18 255 12 25 27 28 0 21 29 5e-7 1 81 1 27 264 30 12 0 0 0 31 32 17 255 28 0
 33 34 35 12 36 37 0 38 -18 21 23 31 39 12 40 9 5e-7 1 29 29 142 0 12 41 42 -.01
718245524369 .001 -.0045 29 41 128 0 43 44 29 -.01718245524369 0 .0045 29 42 134
 0 45 29 22 -.02018245524369 .001 -.0045 18 45 16 46 36 40 47 42 5e-7 1 29 22 13
5 0 40 42 9 -.02018245524369 0 -.0045 18 40 17 48 49 21 45 22 5e-7 1 81 1 48 266
 30 40 0 0 31 46 50 17 49 0 33 35 34 40 39 26 0 51 +15 255 33 37 0 34 52 0 17 35
 0 33 28 49 45 53 54 0 0 -17 34 0 33 49 28 21 55 56 0 57 +17 39 0 58 59 51 21 49
 26 0 34 -16 26 35 60 ?49 11 61 62 0 0 1 17 51 0 58 39 63 40 64 65 0 53 -15 58 3
4 0 63 66 0 17 63 0 58 51 59 67 68 69 0 70 -17 64 0 71 72 53 67 51 65 0 63 +16 6
5 18 73 ?64 74 54 75 0 0 1 17 53 0 71 64 76 40 35 54 0 0 +15 71 14 0 53 77 0 17
 76 0 71 53 72 45 78 74 0 35 -16 54 15 79 ?53 65 80 81 0 0 1 81 1 79 281 30 54 0
 0 73 82 83 16 80 12 82 ?84 54 85 86 0 0 1 133 255 81 227 0 54 87 88 0 +88 -.020
18245524369 .001 -.0045 -.02018245524369 0 -.0045 0 .001 30 255 87 150 0 1 62 81
 89 +-.01718245524369 0 -.0045 -1 0 0 30 88 136 0 1 81 90 91 +-.02018245524369 .
001 -.0045 0 -1 0 133 90 229 0 37 88 92 0 +92 -.01718245524369 .001 -.0045 -.020
18245524369 .001 -.0045 0 .003 141 255 91 81 91 91 88 16 37 29 93 ?36 61 94 90 0
 0 1 30 92 146 0 1 90 20 95 +-.01718245524369 .001 -.0045 -1 0 0 31 20 148 0 61
 92 8 0 +-.017747978 .001 .003924708 0 1 1224646799147e-28 1 0 0 3e-4 141 95 90
 95 95 92 16 61 31 96 ?97 26 37 20 0 0 1 81 1 96 274 30 61 0 0 60 93 98 17 97 0
 99 97 97 0 100 61 0 0 +15 99 39 0 97 101 0 17 100 0 102 100 100 0 97 61 0 0 -15
 102 30 0 100 103 104 14 255 103 27 105 ?106 66 102 6 107 -0 0 106 66 23 15 104
 28 0 84 103 0 17 84 0 104 38 78 47 108 80 0 109 +17 38 0 104 36 84 12 110 94 0
 55 +17 78 0 104 84 36 111 76 74 0 108 +18 47 11 112 110 45 43 44 5e-7 1 17 108
 0 113 70 109 111 84 80 0 72 -17 109 0 113 108 68 47 114 85 0 0 -15 113 4 0 70 1
15 0 17 68 0 113 109 70 43 63 69 0 0 +17 114 0 116 57 110 43 109 85 0 68 +16 85
 10 117 ?114 80 69 118 0 0 1 81 1 117 283 30 85 0 0 82 119 120 16 69 8 119 ?68 8
5 121 122 0 0 1 133 118 203 0 85 123 124 0 +124 -.01718245524369 .001 .0045 -.01
718245524369 0 .0045 0 .001 30 123 127 0 1 125 118 126 +-.02018245524369 .001 .0
045 0 -1 0 30 124 131 0 1 118 86 127 +-.01718245524369 .001 .0045 0 -1 0 133 86
 207 0 80 124 128 0 +128 -.02018245524369 .001 .0045 -.01718245524369 .001 .0045
 0 .003 141 127 118 127 127 124 30 128 132 0 1 86 129 130 +-.02018245524369 .001
 .0045 1 0 0 133 129 209 0 94 128 131 0 +131 -.01718245524369 .001 .0045 -.01718
245524369 .001 -.0045 0 .009 141 130 86 130 130 128 16 94 26 132 ?38 37 56 129 0
 0 1 30 131 144 0 1 129 133 134 +-.01718245524369 .001 .0045 0 0 -1 133 133 211
 0 74 131 135 0 +135 -.02018245524369 .001 -.0045 -.02018245524369 .001 .0045 0
 .009 141 134 129 134 134 131 16 74 19 136 ?78 137 65 133 0 0 1 30 135 138 0 1 1
33 122 138 +-.02018245524369 .001 -.0045 0 0 1 133 122 215 0 69 135 139 0 +139 -
.02018245524369 0 .0045 -.01718245524369 0 .0045 0 .003 141 138 133 138 138 135
 30 139 129 0 1 122 75 140 +-.02018245524369 0 .0045 1 0 0 133 75 217 0 65 139 1
41 0 +141 -.02018245524369 0 -.0045 -.02018245524369 0 .0045 0 .009 141 140 122
 140 140 139 30 141 137 0 1 75 142 143 +-.02018245524369 0 -.0045 0 0 1 133 142
 219 0 137 141 144 0 +144 -.01718245524369 0 .0045 -.01718245524369 0 -.0045 0 .
009 141 143 75 143 143 141 16 137 22 145 ?57 56 74 142 0 0 1 30 144 141 0 1 142
 146 147 +-.01718245524369 0 .0045 0 0 -1 133 146 223 0 56 144 148 0 +148 -.0171
8245524369 .001 -.0045 -.01718245524369 0 -.0045 0 .001 141 147 142 147 147 144
 16 56 24 149 ?34 94 137 146 0 0 1 30 148 143 0 1 146 62 150 +-.01718245524369 .
001 -.0045 0 -1 0 133 62 225 0 26 148 87 0 +87 -.01718245524369 0 -.0045 -.02018
245524369 0 -.0045 0 .003 141 150 146 150 150 148 81 1 149 277 30 56 0 0 132 145
 151 80 7 CCCCCDI12 legal_owners0 17 1 lCZ1 30 152 153 9000 0 0 0 0 3 5 0 0 0 FF
TFTFTTFFFFFFFFF2 81 1 132 276 30 94 0 0 93 149 154 81 1 145 278 30 137 0 0 149 1
36 155 83 255 1 151 7505 81 1 136 279 30 74 0 0 145 73 156 83 1 155 7506 81 1 73
 280 30 65 0 0 136 79 157 83 1 156 7507 83 1 157 7508 81 1 93 275 30 37 0 0 96 1
32 158 83 1 154 7504 83 1 158 7503 79 255 13 153 BTI/importTag17 57 0 116 55 114
 21 59 137 0 0 +15 116 21 0 114 106 0 17 55 0 116 110 57 12 34 56 0 0 -17 59 0 5
8 63 39 43 57 137 0 114 -18 43 9 159 59 47 67 41 5e-7 1 81 1 159 269 30 43 0 0 1
12 160 161 18 67 7 160 64 43 111 162 5e-7 1 81 1 160 270 30 67 0 0 159 163 164 1
8 111 6 163 78 67 0 165 5e-7 1 29 162 126 0 67 165 44 -.02018245524369 0 .0045 2
9 165 125 0 111 0 162 -.02018245524369 .001 .0045 29 44 130 0 47 162 41 -.017182
45524369 .001 .0045 81 1 163 271 30 111 0 0 160 24 166 81 1 24 272 30 11 0 0 163
 60 167 83 1 166 7499 81 1 60 273 30 26 0 0 24 96 168 83 1 167 75e2 83 1 168 750
1 83 1 164 7498 81 1 112 268 30 47 0 0 46 159 169 83 1 161 7497 81 1 46 267 30 4
5 0 0 48 112 170 83 1 169 7496 83 1 170 7495 17 110 0 116 114 55 47 38 94 0 84 -
14 106 20 171 ?77 103 116 6 172 +0 0 77 103 23 81 1 171 291 30 106 0 0 105 173 1
74 14 77 13 173 ?115 106 71 6 175 +0 0 115 106 23 50 172 139 0 106 175 107 0 +-.
01718245524369 .001 .0045 1 0 0 0 0 -1 13 23 2 0 0 0 0 0 0 10 17 14 17 43 176 ?1
01 0 177 6 7 -0 0 101 0 23 81 1 176 286 30 17 0 0 178 179 180 14 101 38 179 ?52
 17 181 6 19 -0 0 52 17 23 15 177 44 0 25 17 0 17 25 0 177 25 25 0 182 11 0 0 +1
7 182 0 181 182 182 0 25 11 0 0 -15 181 259 0 182 101 99 81 1 179 287 30 101 0 0
 176 183 184 14 52 36 183 ?66 101 33 6 185 +0 0 66 101 23 51 255 19 152 0 101 18
5 7 0 +-.017747978 8e-4 .003924708 0 -1 -1224646799147e-28 3e-4 1 0 0 50 185 151
 0 52 186 19 0 +-.01718245524369 .001 -.0045 0 0 -1 -1 0 0 50 186 149 0 66 107 1
85 0 +-.02018245524369 0 .0045 0 -1 0 1 0 0 14 66 33 187 ?103 52 58 6 186 +0 0 1
03 52 23 50 107 145 0 103 172 186 0 +-.02018245524369 .001 .0045 0 -1 0 1 0 0 81
 1 187 289 30 66 0 0 183 105 188 81 1 183 288 30 52 0 0 179 187 189 81 1 105 290
 30 103 0 0 187 171 190 83 1 188 7517 83 1 190 7518 83 1 189 7516 83 1 184 7515
 81 1 178 285 30 121 0 0 119 176 191 83 1 180 7514 16 121 5 178 ?70 69 0 125 0 0
 1 81 1 119 284 30 69 0 0 117 178 192 83 1 191 7513 83 1 192 7512 17 70 0 113 68
 108 67 72 121 0 0 +133 125 199 0 121 0 123 0 +123 -.02018245524369 .001 .0045 -
.02018245524369 0 .0045 0 .001 17 72 0 71 76 64 111 70 121 0 0 -50 175 133 0 77
 193 172 0 +-.02018245524369 .001 -.0045 -1 0 0 0 0 1 50 193 124 0 115 0 175 0 +
-.02018245524369 .001 .0045 0 0 1 1 0 0 14 115 3 194 ?0 77 113 6 193 +0 0 0 77 2
3 81 1 194 293 30 115 0 0 173 195 196 81 1 173 292 30 77 0 0 171 194 197 81 1 19
5 294 30 1 198 199 194 0 200 83 1 196 7521 81 1 198 262 201 1 0 195 0 0 202 81 1
 199 295 203 1 195 204 0 0 205 83 1 200 7522 80 1 203 30 206 9000 0 0 0 0 3 5 0
 0 0 FFTFTFTTFFFFFFFFF2 81 1 204 328 207 1 199 14 0 0 208 83 1 205 17325 80 1 20
7 209 210 8040 0 0 0 0 3 5 0 0 0 TTTFFFFFFFFFFFFFF2 81 1 14 329 211 1 204 2 0 0
 212 83 3 208 .3098039215686275 .3098039215686275 .3098039215686275 80 1 211 13
 213 8038 0 0 0 0 0 0 0 0 0 TTTTTTTTTTTTTFTFT10 98 255 15 212 72 67 45 48 52 73
 110 116 101 103 114 97 100 111 115 79 14 213 SDL/TYSA_UNAME79 17 210 SDL/TYSA_C
OLOUR_279 18 206 BTI/importMaxCount80 1 201 214 215 9000 0 0 0 0 3 5 0 0 0 TTTFF
FFFFFFFFFFFF1 82 255 1 202 2 79 23 215 ONSHAPE_ORIGINALBODY_ID83 1 197 7520 83 1
 174 7519 141 126 125 126 126 123 81 1 82 282 30 80 0 0 79 117 216 83 1 120 7511
 83 1 216 7510 17 36 0 104 78 38 45 28 37 0 76 +83 1 98 7502 141 89 62 89 89 87
 83 1 83 7509 81 1 31 265 30 21 0 0 27 48 217 83 1 50 7494 83 1 217 7493 83 1 32
 7492 19 18 45 0 1 0 10 6 0 S0 74 4 CI16 index_map_offset0 0 1 dCCZ20 16 6 0 0 1
98 195 199 204 14 2 0 0 0 0 0 0 0 0 0 0 0 0 0 0 80 1 13 218 219 8017 0 0 0 0 0 0
 0 0 0 TTTTTTTTTTTTTFTFT3 84 255 15 15 HC-04Integrados79 13 219 SDL/TYSA_NAME1 0
 
