**ABCDEFGHIJKLMNOPQRSTUVWXYZabcdefghijklmnopqrstuvwxyz**************************
**PARASOLID !"#$%&'()*+,-./:;<=>?@[\]^_`{|}~0123456789**************************
**PART1;
MC=unknown;
MC_MODEL=unknown;
MC_ID=unknown;
OS=unknown;
OS_RELEASE=unknown;
FRU=Parasolid 37.0.173;
APPL=Onshape;
SITE=unknown;
USER=unknown;
FORMAT=text;
GUISE=transmit;
KEY=BTGapi::writeModels_.xmt;
FILE=BTGapi::writeModels_.xmt;
DATE=2024-12-29T04:00:26 (UTC);
**PART2;
SCH=SCH_3700173_36001;
USFLD_SIZE=0;
**PART3;
**END_OF_HEADER*****************************************************************
T51 : TRANSMIT FILE created by modeller version 370017323 SCH_3700173_36001_1300
6231 0 12 36 CCCI7 lattice222 0 CCCI4 mesh1006 0 I8 polyline1008 0 CCCCCCCDI5 ow
ner1040 0 CCCI16 boundary_lattice222 0 CCCI13 boundary_mesh1006 0 I17 boundary_p
olyline1008 0 CCCA16 index_map_offset0 0 1 dA9 index_map82 0 A17 node_id_index_m
ap82 0 A20 schema_embedding_map82 0 A5 child12 0 A14 lowest_node_id0 0 1 dA16 me
sh_offset_data206 0 Z1 512 2 3 0 0 0 0 0 0 0 1e3 1e-8 0 4 5 1 0 1 2 6 0 7 8 9 0
 0 10 11 12 0 0 0 0 0 0 0 81 255 1 2 512 13 1 14 0 0 0 15 70 11 CI9 list_type0 0
 1 uI10 notransmit0 0 1 lCCCDCCDI12 finger_index0 0 1 dI12 finger_block1012 0 CZ
3 0 4 T1 0 0 6 20 1 16 16 13 255 6 64 0 1 0 17 0 0 18 0 50 255 7 364 0 19 20 0 0
 +.021001765 4862202940187e-31 .00397029 -1 0 0 0 1224646799147e-28 1 30 255 8 4
00 0 21 22 0 0 +.021001765 6816848225191e-31 .005566379 0 -1 1224646799147e-28 2
9 255 9 363 0 23 24 0 .021001765 -9999999999999e-18 .005266379 19 9 CCCCCCI5 fra
me230 0 CA5 owner12 0 Z10 1 0 1 18 0 25 0 V0 16 255 11 58 26 ?27 0 28 29 0 0 1 1
8 255 12 53 30 31 0 32 33 5e-7 1 81 1 30 406 34 12 0 0 0 35 36 17 255 31 0 37 38
 39 12 27 11 0 40 -18 32 51 35 41 12 42 43 5e-7 1 29 33 220 0 12 44 43 .02186370
8 6449454185447e-31 .005266379 29 44 212 0 45 46 33 .021863708 -9999999999999e-1
8 .004266379 29 43 218 0 32 33 47 .021863708 -9999999999999e-18 .005266379 29 47
 360 0 48 43 49 .021001765 6449454185447e-31 .005266379 18 48 6 50 27 23 0 47 ?1
 29 49 361 0 51 47 24 .021001765 681684822519103e-33 .005566379 18 51 11 52 53 5
4 55 49 ?1 29 24 362 0 55 49 9 .021001765 -999999999999899e-20 .005566379 18 55
 9 56 57 51 23 24 ?1 81 1 56 419 34 55 0 0 52 58 59 17 57 0 60 61 62 55 63 64 0
 65 -18 23 7 58 66 55 48 9 ?1 81 1 58 420 34 23 0 0 56 50 67 17 66 0 37 39 38 23
 41 28 0 61 +15 255 37 56 0 38 68 0 17 39 0 37 31 66 48 69 70 0 0 -17 38 0 37 66
 31 32 71 72 0 73 +17 41 0 60 74 61 32 66 28 0 38 -16 28 57 75 ?66 11 76 77 0 0
 1 17 61 0 60 41 57 23 78 79 0 69 -15 60 62 0 61 17 0 17 78 0 80 81 69 55 61 79
 0 0 +16 79 8 82 ?78 21 70 83 0 0 1 17 69 0 80 78 84 23 39 70 0 0 +15 80 4 0 69
 19 0 17 84 0 80 69 81 48 85 86 0 39 -16 70 5 87 ?69 79 0 22 0 0 1 81 1 87 445 3
4 70 0 0 82 88 89 30 22 391 0 70 90 8 0 +.021001765 644945418544664e-33 .0052663
79 0 -1 1224646799147e-28 30 90 380 0 86 83 22 0 +.021001765 6449454185447e-31 .
005266379 0 1224646799147e-28 1 16 86 12 91 ?85 64 21 90 0 0 1 30 83 367 0 79 92
 90 0 +.021001765 -999999999999916e-20 .00397029 0 1224646799147e-28 1 30 92 189
 0 1 93 83 94 +.021001765 -9999999999999e-18 .005566379 1 0 0 133 255 93 349 0 6
4 95 92 0 +92 .021001765 -9999999999999e-18 .005566379 .022186115 -9999999999999
e-18 .005566379 -3469446951953615e-33 .00118435 141 255 94 93 94 94 92 16 64 15
 96 ?63 97 86 93 0 0 1 30 95 195 0 1 98 93 99 +.022186115 -9999999999999e-18 .00
5566379 0 -1224646799147e-28 -1 133 98 347 0 100 101 95 0 +95 .022186115 -999999
9999999e-18 .005566379 .022186115 -999999999999919e-20 .00397029 0 .001596089 14
1 99 98 99 99 95 16 100 22 102 ?103 104 105 98 0 0 1 30 101 201 0 1 106 98 107 +
.022186115 -1e-5 .00397029 -1 0 0 133 106 345 0 108 109 101 0 +101 .022186115 -1
e-5 .00397029 .021001765 -1e-5 .00397029 0 .00118435 141 107 106 107 107 101 16
 108 29 110 ?111 112 113 106 0 0 1 30 109 207 0 1 114 106 115 +.021001765 -1e-5
 .00397029 0 1224646799147e-28 1 133 114 343 0 116 117 109 0 +109 .021001765 -1e
-5 .00397029 .021001765 -1e-5 .004266379 0 296089e-9 141 115 114 115 115 109 16
 116 36 118 ?119 120 121 114 0 0 1 30 117 213 0 1 122 114 123 +.021001765 -99999
99999999e-18 .004266379 1 0 0 133 122 341 0 124 125 117 0 +117 .021001765 -99999
99999999e-18 .004266379 .021863708 -9999999999999e-18 .004266379 0 861943e-9 141
 123 122 123 123 117 16 124 43 126 ?127 128 129 122 0 0 1 30 125 219 0 1 130 122
 131 +.021863708 -9999999999999e-18 .004266379 0 1224646799147e-28 1 133 130 339
 0 132 133 125 0 +125 .021863708 -9999999999999e-18 .004266379 .021863708 -99999
9999999888e-20 .005266379 0 .001 141 131 130 131 131 125 16 132 50 134 ?73 72 13
5 130 0 0 1 30 133 224 0 1 77 130 136 +.021863708 -9999999999999e-18 .005266379
 -1 0 0 133 77 337 0 28 137 133 0 +133 .021863708 -9999999999999e-18 .005266379
 .021001765 -9999999999999e-18 .005266379 0 861943e-9 141 136 77 136 136 133 30
 137 225 0 1 29 77 138 +.021863708 6449454185447e-31 .005266379 -1 0 0 133 29 33
1 0 11 139 137 0 +137 .021863708 6449454185447e-31 .005266379 .021001765 6449454
185447e-31 .005266379 0 861943e-9 141 138 29 138 138 137 30 139 222 0 1 140 29 1
41 +.021863708 5224807386299e-31 .004266379 0 1224646799147e-28 1 133 140 329 0
 76 142 139 0 +139 .021863708 5224807386299e-31 .004266379 .021863708 6449454185
446e-31 .005266379 0 .001 141 141 140 141 141 139 16 76 54 143 ?40 28 72 140 0 0
 1 30 142 216 0 1 144 140 145 +.021001765 5224807386299e-31 .004266379 1 0 0 133
 144 327 0 135 146 142 0 +142 .021001765 5224807386299e-31 .004266379 .021863708
 5224807386299e-31 .004266379 0 861943e-9 141 145 144 145 145 142 16 135 47 147
 ?148 132 128 144 0 0 1 30 146 210 0 1 149 144 150 +.021001765 4862202940187e-31
 .00397029 0 1224646799147e-28 1 133 149 325 0 129 151 146 0 +146 .021001765 486
2202940187e-31 .00397029 .021001765 522480738629964e-33 .004266379 0 296089e-9 1
41 150 149 150 150 146 16 129 40 152 ?153 124 120 149 0 0 1 30 151 204 0 1 154 1
49 155 +.022186115 4862202940187e-31 .00397029 -1 0 0 133 154 323 0 121 156 151
 0 +151 .022186115 4862202940187e-31 .00397029 .021001765 4862202940187e-31 .003
97029 0 .00118435 141 155 154 155 155 151 16 121 33 157 ?158 116 112 154 0 0 1 3
0 156 198 0 1 159 154 160 +.022186115 6816848225191e-31 .005566379 0 -1224646799
147e-28 -1 133 159 321 0 113 161 156 0 +156 .022186115 6816848225191e-31 .005566
379 .022186115 486220294018726e-33 .00397029 0 .001596089 141 160 159 160 160 15
6 16 113 26 162 ?163 108 104 159 0 0 1 30 161 192 0 1 164 159 165 +.021001765 68
16848225191e-31 .005566379 1 0 0 133 164 319 0 105 166 161 0 +161 .021001765 681
6848225191e-31 .005566379 .022186115 6816848225191e-31 .005566379 -3469446951953
615e-33 .00118435 141 165 164 165 165 161 16 105 19 167 ?168 100 97 164 0 0 1 30
 166 221 0 1 169 164 170 +.021863708 6449454185447e-31 .005266379 0 -1 122464679
9147e-28 133 169 311 0 72 171 166 0 +166 .021863708 6449454185447e-31 .005266379
 .021863708 -9999999999999e-18 .005266379 0 999999999999965e-20 141 170 169 170
 170 166 16 72 52 172 ?38 76 132 169 0 0 1 30 171 215 0 1 173 169 174 +.02186370
8 5224807386299e-31 .004266379 0 -1 1224646799147e-28 133 173 307 0 128 175 171
 0 +171 .021863708 5224807386299e-31 .004266379 .021863708 -9999999999999e-18 .0
04266379 0 999999999999952e-20 141 174 173 174 174 171 16 128 45 176 ?177 135 12
4 173 0 0 1 30 175 209 0 1 178 173 179 +.021001765 5224807386299e-31 .004266379
 0 -1 1224646799147e-28 133 178 303 0 120 180 175 0 +175 .021001765 522480738629
9e-31 .004266379 .021001765 -9999999999999e-18 .004266379 0 999999999999952e-20
 141 179 178 179 179 175 16 120 38 181 ?182 129 116 178 0 0 1 30 180 203 0 1 183
 178 184 +.021001765 4862202940187e-31 .00397029 0 -1 1224646799147e-28 133 183
 299 0 112 185 180 0 +180 .021001765 4862202940187e-31 .00397029 .021001765 -1e-
5 .00397029 0 100000000000005e-19 141 184 183 184 184 180 16 112 31 186 ?187 121
 108 183 0 0 1 30 185 197 0 1 188 183 189 +.022186115 4862202940187e-31 .0039702
9 0 -1 1224646799147e-28 133 188 295 0 104 190 185 0 +185 .022186115 48622029401
87e-31 .00397029 .022186115 -1e-5 .00397029 0 100000000000005e-19 141 189 188 18
9 189 185 16 104 24 191 ?192 113 100 188 0 0 1 30 190 191 0 1 193 188 194 +.0221
86115 6816848225191e-31 .005566379 0 -1 1224646799147e-28 133 193 291 0 97 0 190
 0 +190 .022186115 6816848225191e-31 .005566379 .022186115 -9999999999999e-18 .0
05566379 0 999999999999968e-20 141 194 193 194 194 190 16 97 17 195 ?196 105 64
 193 0 0 1 81 1 195 440 34 97 0 0 167 96 197 17 196 0 198 103 199 54 200 97 0 63
 +15 198 21 0 196 201 0 17 103 0 198 202 196 203 62 100 0 0 +17 199 0 198 196 20
2 204 163 113 0 168 -18 54 16 205 62 204 51 206 5e-7 1 17 200 0 207 53 63 204 19
6 97 0 0 -17 63 0 207 200 65 54 57 64 0 0 +15 207 14 0 65 208 0 17 65 0 207 63 5
3 55 81 21 0 78 +17 53 0 207 65 200 51 168 105 0 85 -17 81 0 80 84 78 51 65 21 0
 0 -16 21 10 209 ?65 86 79 8 0 0 1 81 1 209 443 34 21 0 0 91 82 210 80 7 CCCCCDI
12 legal_owners0 17 1 lCZ1 34 211 212 9000 0 0 0 0 3 5 0 0 0 FFTFTFTTFFFFFFFFF2
 81 1 91 442 34 86 0 0 96 209 213 81 1 82 444 34 79 0 0 209 87 214 83 255 1 210
 4416 83 1 214 4417 81 1 96 441 34 64 0 0 195 91 215 83 1 213 4415 83 1 215 4414
 79 255 13 212 BTI/importTag17 168 0 216 163 85 204 53 105 0 200 +17 85 0 216 16
8 27 51 84 86 0 81 +15 216 60 0 85 217 0 17 27 0 216 85 40 48 31 11 0 84 +17 40
 0 216 27 148 12 218 76 0 71 +17 148 0 216 40 153 42 219 135 0 220 +17 218 0 221
 177 71 42 40 76 0 148 -17 71 0 221 218 73 12 38 72 0 0 -15 221 49 0 177 222 0 1
7 73 0 221 71 177 32 74 132 0 0 +17 177 0 221 73 218 45 220 128 0 127 +17 74 0 6
0 223 41 45 73 132 0 177 -17 223 0 60 224 74 225 127 124 0 182 -18 45 44 226 74
 42 227 44 5e-7 1 81 1 226 409 34 45 0 0 228 229 230 18 42 46 228 218 32 45 46 5
e-7 1 18 227 39 229 219 45 225 231 5e-7 1 81 1 229 410 34 227 0 0 226 232 233 17
 219 0 234 182 220 227 148 135 0 153 -18 225 37 232 223 227 235 236 5e-7 1 29 23
1 208 0 227 237 236 .021001765 5224807386299e-31 .004266379 29 237 200 0 238 239
 231 .021001765 -1e-5 .00397029 29 236 206 0 225 231 46 .021001765 -999999999999
9e-18 .004266379 29 46 214 0 42 236 44 .021863708 5224807386299e-31 .004266379 1
8 238 30 240 224 235 241 237 5e-7 1 29 239 202 0 235 242 237 .021001765 48622029
40187e-31 .00397029 18 235 32 243 244 225 238 239 5e-7 1 29 242 194 0 203 245 23
9 .022186115 -1e-5 .00397029 18 203 23 246 247 241 204 242 5e-7 1 29 245 196 0 2
41 206 242 .022186115 4862202940187e-31 .00397029 18 241 25 248 249 238 203 245
 5e-7 1 29 206 188 0 54 250 245 .022186115 -9999999999999e-18 .005566379 29 250
 190 0 204 0 206 .022186115 6816848225191e-31 .005566379 18 204 18 251 199 203 5
4 250 5e-7 1 81 1 251 416 34 204 0 0 246 205 252 81 1 246 415 34 203 0 0 248 251
 253 81 1 205 417 34 54 0 0 251 52 254 83 1 252 4389 81 1 52 418 34 51 0 0 205 5
6 255 83 1 254 4390 83 1 255 4391 81 1 248 414 34 241 0 0 240 246 256 83 1 253 4
388 81 1 240 413 34 238 0 0 243 248 257 83 1 256 4387 81 1 243 412 34 235 0 0 23
2 240 258 83 1 257 4386 81 1 232 411 34 225 0 0 229 243 259 83 1 258 4385 83 1 2
59 4384 17 249 0 260 192 261 241 158 121 0 163 -15 260 28 0 192 262 0 17 192 0 2
60 111 249 203 202 104 0 103 +17 261 0 260 249 111 235 187 112 0 0 -17 158 0 216
 153 163 235 249 121 0 261 +17 163 0 216 158 168 241 199 113 0 202 +17 202 0 198
 199 103 241 192 104 0 0 -17 153 0 216 148 158 227 244 129 0 263 +17 244 0 264 1
87 263 235 153 129 0 158 -17 263 0 264 244 119 227 182 120 0 0 -15 264 35 0 187
 265 0 17 119 0 264 263 187 225 224 116 0 0 +17 182 0 234 127 219 225 263 120 0
 119 +15 234 42 0 182 266 0 17 127 0 234 220 182 45 223 124 0 0 +17 220 0 234 21
9 127 42 177 128 0 0 -14 255 266 41 267 ?265 222 234 6 268 +0 0 265 222 25 81 1
 267 450 34 266 0 0 269 270 271 14 265 34 270 ?262 266 264 6 7 +19 19 262 266 25
 14 222 48 269 ?266 68 221 6 272 +0 0 266 68 25 50 268 211 0 266 273 272 0 +.021
001765 5224807386299e-31 .004266379 0 1224646799147e-28 1 1 0 0 13 25 2 0 0 0 0
 0 0 10 17 14 17 61 88 ?217 0 60 6 20 +0 0 217 0 25 81 1 88 446 34 17 0 0 87 274
 275 14 217 59 274 ?68 17 216 6 276 -0 0 68 17 25 50 20 227 0 17 276 7 0 +.02100
1765 -9999999999999e-18 .005266379 0 -1 1224646799147e-28 -1 0 0 50 276 226 0 21
7 277 20 0 +.021001765 6449454185447e-31 .005266379 0 -1 1224646799147e-28 -1 0
 0 50 277 223 0 68 272 276 0 +.021863708 6449454185447e-31 .005266379 0 -1224646
799147e-28 -1 -1 0 0 14 68 55 278 ?222 217 37 6 277 +0 0 222 217 25 50 272 217 0
 222 268 277 0 +.021863708 5224807386299e-31 .004266379 -1 0 0 0 1224646799147e-
28 1 81 1 278 448 34 68 0 0 274 269 279 81 1 274 447 34 217 0 0 88 278 280 81 1
 269 449 34 222 0 0 278 267 281 83 1 279 4421 83 1 281 4422 83 1 280 4420 83 1 2
75 4419 50 273 199 0 262 282 268 0 +.022186115 4862202940187e-31 .00397029 0 -12
24646799147e-28 -1 -1 0 0 14 262 27 283 ?201 265 260 6 273 +0 0 201 265 25 50 28
2 193 0 201 284 273 0 +.022186115 6816848225191e-31 .005566379 1 0 0 0 -12246467
99147e-28 -1 14 201 20 285 ?208 262 198 6 282 +0 0 208 262 25 50 284 187 0 208 0
 282 0 +.021001765 6816848225191e-31 .005566379 0 1224646799147e-28 1 1 0 0 14 2
08 13 286 ?19 201 207 6 284 +0 0 19 201 25 81 1 286 454 34 208 0 0 285 287 288 1
4 19 3 287 ?0 208 80 6 7 +265 265 0 208 25 81 1 287 455 34 19 0 0 286 289 290 81
 1 289 456 34 1 291 292 287 0 293 83 1 290 4428 81 1 291 404 294 1 0 289 0 0 295
 81 1 292 457 296 1 289 297 0 0 298 83 1 293 4429 80 1 296 34 299 9000 0 0 0 0 3
 5 0 0 0 FFTFTFTTFFFFFFFFF2 81 1 297 510 300 1 292 14 0 0 301 83 1 298 17325 80
 1 300 302 303 8040 0 0 0 0 3 5 0 0 0 TTTFFFFFFFFFFFFFF2 81 1 14 511 304 1 297 2
 0 0 305 83 3 301 1 1 1 80 1 304 13 306 8038 0 0 0 0 0 0 0 0 0 TTTTTTTTTTTTTFTFT
10 98 255 11 305 72 67 45 48 52 80 97 100 48 48 57 79 14 306 SDL/TYSA_UNAME79 17
 303 SDL/TYSA_COLOUR_279 18 299 BTI/importMaxCount80 1 294 307 308 9000 0 0 0 0
 3 5 0 0 0 TTTFFFFFFFFFFFFFF1 82 255 1 295 7 79 23 308 ONSHAPE_ORIGINALBODY_ID81
 1 285 453 34 201 0 0 283 286 309 83 1 288 4427 81 1 283 452 34 262 0 0 270 285
 310 83 1 309 4426 81 1 270 451 34 265 0 0 267 283 311 83 1 310 4425 83 1 311 44
24 83 1 271 4423 17 187 0 264 119 244 238 261 112 0 111 +17 224 0 60 247 223 238
 119 116 0 187 -17 247 0 60 62 224 203 111 108 0 192 -17 62 0 60 57 247 54 103 1
00 0 196 -17 111 0 260 261 192 238 247 108 0 0 +83 1 233 4383 81 1 228 408 34 42
 0 0 35 226 312 81 1 35 407 34 32 0 0 30 228 313 83 1 312 4381 83 1 313 4380 83
 1 230 4382 81 1 167 439 34 105 0 0 102 195 314 83 1 197 4413 81 1 102 438 34 10
0 0 0 191 167 315 83 1 314 4412 81 1 191 437 34 104 0 0 162 102 316 83 1 315 441
1 81 1 162 436 34 113 0 0 110 191 317 83 1 316 4410 81 1 110 435 34 108 0 0 186
 162 318 83 1 317 4409 81 1 186 434 34 112 0 0 157 110 319 83 1 318 4408 81 1 15
7 433 34 121 0 0 118 186 320 83 1 319 4407 81 1 118 432 34 116 0 0 181 157 321 8
3 1 320 4406 81 1 181 431 34 120 0 0 152 118 322 83 1 321 4405 81 1 152 430 34 1
29 0 0 126 181 323 83 1 322 4404 81 1 126 429 34 124 0 0 176 152 324 83 1 323 44
03 81 1 176 428 34 128 0 0 147 126 325 83 1 324 4402 81 1 147 427 34 135 0 0 134
 176 326 83 1 325 4401 81 1 134 426 34 132 0 0 172 147 327 83 1 326 44e2 81 1 17
2 425 34 72 0 0 143 134 328 83 1 327 4399 81 1 143 424 34 76 0 0 75 172 329 83 1
 328 4398 81 1 75 423 34 28 0 0 26 143 330 83 1 329 4397 81 1 26 422 34 11 0 0 5
0 75 331 83 1 330 4396 81 1 50 421 34 48 0 0 58 26 332 83 1 331 4395 83 1 332 43
94 83 1 89 4418 83 1 67 4393 83 1 59 4392 83 1 36 4379 19 18 63 0 1 0 10 6 0 S0
 74 4 CI16 index_map_offset0 0 1 dCCZ20 16 6 0 0 291 289 292 297 14 2 0 0 0 0 0
 0 0 0 0 0 0 0 0 0 80 1 13 333 334 8017 0 0 0 0 0 0 0 0 0 TTTTTTTTTTTTTFTFT3 84
 255 11 15 HC-04Pad00979 13 334 SDL/TYSA_NAME1 0 
